<?xml version="1.0" standalone="no"?>
<!DOCTYPE svg PUBLIC "-//W3C//DTD SVG 1.1//EN" "http://www.w3.org/Graphics/SVG/1.1/DTD/svg11.dtd" >
<svg xmlns="http://www.w3.org/2000/svg" xmlns:xlink="http://www.w3.org/1999/xlink" version="1.1">
<metadata>
Created by FontForge 20170731 at Thu Apr 29 12:40:31 2021
 By Aleksey,,,
Copyright (c) 2014 by Rodrigo Saiani. All rights reserved.
</metadata>
<defs>
<font id="Tenez-Regular" horiz-adv-x="0" >
  <font-face 
    font-family="Tenez"
    font-weight="400"
    font-stretch="normal"
    units-per-em="2048"
    panose-1="2 0 5 0 0 0 0 0 0 0"
    ascent="1538"
    descent="-510"
    x-height="809"
    cap-height="1303"
    bbox="-1242 -668 2140 2275"
    underline-thickness="102"
    underline-position="-307"
    unicode-range="U+000D-FB02"
  />
<missing-glyph horiz-adv-x="1024" 
d="M840 1475v-2048h-650v2048h650zM682 1337h-338v-67h133v-76h-135v-68h340v68h-135v76h135v67zM547 1073h-205v-213h340v70h-135v143zM477 1004v-74h-67v74h67zM682 805h-340v-68h135v-75h-135v-68h205v143h135v68zM682 682h-68v-135h-272v-70h340v205zM682 432h-205v-115
h70v48h67v-97h-204v164h-68v-231h340v231zM682 78h-340v-232h340v232zM614 10v-96h-204v96h204zM682 -201h-340v-67h143l-143 -97v-67h340v67h-209l143 97h66v67z" />
    <glyph glyph-name="fi" unicode="fi" horiz-adv-x="1118" 
d="M1014 20q24 -9 24 -20q0 -12 -14 -12q-4 0 -74 6q-94 4 -108 4q-13 0 -99 -4q-65 -6 -69 -6q-14 0 -14 11q0 14 26 21q62 15 74 50q14 32 14 137v416q0 78 -24 102q-27 27 -238 27q-43 0 -80 -2h-84v-543q0 -100 21 -135q20 -33 100 -49q25 -9 25 -19q0 -14 -15 -14
q-5 0 -82 6q-102 4 -118 4q-18 0 -45 -1t-52 -2.5t-47 -3t-37 -2.5l-14 -1q-14 0 -14 11q-1 14 28 22q70 15 88 49q19 36 19 141v535q-58 -3 -127 -3q-17 0 -23.5 13.5t0 27t23.5 13.5h127v147q0 184 102 283.5t271 99.5q125 0 225 -59q98 -58 98 -121q0 -38 -22.5 -62
t-57.5 -24q-74 0 -98 90q-24 74 -64 106.5t-116 32.5q-86 0 -140.5 -57t-54.5 -162v-184v-92q63 -2 334 -2q21 0 53 3.5t63 8t58.5 9t45.5 8.5l18 3q16 0 16 -14l-10 -51q-8 -41 -8 -199v-340q0 -114 14 -149q15 -39 82 -54z" />
    <glyph glyph-name="fl" unicode="fl" horiz-adv-x="1083" 
d="M985 25q25 -13 25 -21q0 -14 -15 -14q-3 0 -65 6q-78 4 -94 4t-38.5 -1t-44 -2.5t-40.5 -3t-31 -2.5l-12 -1q-15 0 -15 12q0 16 27 25q54 19 66 59q12 44 12 195v462q-77 4 -412 7v-543q0 -100 21 -135q21 -34 98 -49q27 -9 27 -19q0 -14 -15 -14q-7 0 -84 6
q-102 4 -116 4q-20 0 -47 -1t-52.5 -2.5t-47.5 -3t-36 -2.5l-14 -1q-14 0 -14 11q-1 14 28 22q73 16 88 49q19 36 19 141v535q-15 0 -33 -0.5t-33.5 -1t-28.5 -0.5h-22l-8 -1q-17 0 -23.5 13.5t0 27t23.5 13.5l125 -4v174q0 174 97.5 267t260.5 93q104 0 203 -57
q37 7 72 21.5t53.5 25t19.5 10.5q13 0 13 -12q-19 -107 -19 -297v-756q0 -128 15 -174q14 -44 67 -65zM348 793q29 1 107.5 2t117.5 2t83 2t68 1.5t36 0.5v321q-5 69 -60 119.5t-153 50.5q-88 0 -143.5 -52.5t-55.5 -147.5v-299z" />
    <glyph glyph-name="T_h.liga" unicode="Th" horiz-adv-x="2187" 
d="M2081 27q26 -14 26 -25q0 -12 -14 -12q-5 0 -61 6q-74 4 -88 4t-84 -4q-52 -6 -56 -6q-15 0 -14 12t23 22l2 1q37 16 45 47q12 34 12 135v321q0 248 -182 248q-117 0 -195 -106q-80 -109 -80 -291v-137q0 -147 10 -174q12 -28 60 -43q3 -2 8 -3.5t7 -2.5t4.5 -2.5t3.5 -3
t2 -4.5t1 -7q0 -12 -16 -12q-5 0 -63 6q-78 4 -91 4q-14 0 -92 -4l-57 -6q-15 0 -14 12q1 13 26 23q42 15 51 57q11 53 11 201v804q0 107 -31 138q-37 37 -236 37q-202 0 -231 -39q-17 -24 -20 -115q-2 -55 -5 -530v-332q0 -132 19 -172q22 -36 108 -51q29 -10 29 -21
q0 -14 -14 -14l-88 4q-89 6 -135 6q-18 0 -47.5 -1t-58.5 -2.5t-55.5 -3t-43.5 -2.5l-17 -1q-14 0 -14 14q0 12 27 21q87 15 106 51q21 38 21 172v332q0 352 -5 522q-3 99 -20 123q-26 39 -162 39q-78 0 -112.5 -9t-65.5 -43q-29 -33 -44.5 -90t-35.5 -190q-3 -33 -20 -33
q-15 0 -15 21v21q1 21 2 54t2 70t1.5 76t0.5 65q0 14 -2.5 28.5t-5.5 25.5t-6 19.5t-6 13.5l-2 5q0 15 14 15q3 0 5.5 -0.5t6 -1.5t11.5 -2.5t19.5 -3t33 -3t49 -3t70 -3t93.5 -2.5t122 -1.5t154 -0.5q397 0 675 29q21 3 40 5.5t27 3.5t9 1q17 0 17 -12l-1 -8
q-1 -8 -2 -21.5t-3 -31.5t-3.5 -41t-2.5 -47t-2 -52.5t-1 -54.5v-486q35 119 115.5 185.5t189.5 66.5q154 0 226.5 -80.5t72.5 -252.5v-287q0 -98 11 -135q14 -31 51 -45z" />
    <glyph glyph-name="f_b.liga" unicode="fb" horiz-adv-x="1658" 
d="M1204 827q160 0 266 -118q109 -121 109 -308q0 -199 -113 -315q-111 -117 -286 -117q-129 0 -236 113q-70 84 -78 84q-9 0 -18 -21l-41 -147q-13 -29 -31 -29q-20 0 -20 23q0 2 1 14.5t2 34.5t1 47q0 911 -2 1030q-2 71 -57 122.5t-154 51.5q-88 0 -143.5 -52.5
t-55.5 -147.5v-297l223 6q33 0 33 -29t-33 -29q-1 0 -40 1.5t-92.5 3.5t-90.5 2v-537q0 -114 26 -155t93 -35q27 -9 27 -19q0 -14 -15 -14q-7 0 -84 6q-102 4 -116 4q-20 0 -47 -1t-52.5 -2.5t-47.5 -3t-36 -2.5l-14 -1q-14 0 -14 10q0 15 30 25q72 15 86 51q19 40 19 157
v515q-15 0 -33 -0.5t-33.5 -1t-28.5 -0.5h-22l-8 -1q-17 0 -23.5 13.5t0 27t23.5 13.5l125 -4v174q0 174 97.5 267t260.5 93q97 0 205 -57q31 7 61 21.5t47 25t19 10.5q18 0 18 -16l-2 -10q0 -4 -4 -55.5t-4 -90.5v-547h6q73 217 297 217zM1163 2q250 0 250 399
q0 390 -246 390q-113 0 -188.5 -104t-75.5 -281v-33q0 -172 75 -271.5t185 -99.5z" />
    <glyph glyph-name="f_f.liga" unicode="ff" horiz-adv-x="1183" 
d="M989 1329q83 0 141 -32t58 -76q0 -68 -64 -68q-25 0 -38 14.5t-39 61.5q-34 57 -103 57q-59 0 -95 -34.5t-36 -98.5q0 -19 21 -90q20 -67 20 -125v-143q144 6 199 6q32 0 32 -29t-32 -29l-199 5v-541q0 -97 23 -135q24 -34 112 -49q31 -6 31 -19q0 -14 -14 -14
q-7 0 -93 6q-114 4 -127 4q-20 0 -47 -1t-52 -2.5t-47 -3t-36 -2.5l-14 -1q-14 0 -14 10q-1 15 28 25q74 16 88 51q19 40 19 157v517h-64q-245 0 -311 -2v-541q0 -97 24 -134t99 -50q26 -6 26 -19q0 -14 -14 -14q-7 0 -86 6q-106 4 -119 4q-18 0 -44.5 -1t-51.5 -2.5t-48 -3
t-38 -2.5l-14 -1q-14 0 -14 11q-1 15 30 22q70 15 88 49q19 36 19 141v535q-58 -3 -115 -3q-17 0 -23.5 13.5t0 27t23.5 13.5q76 0 115 -2v155q0 160 97 250t251 90q138 0 225 -75q72 112 223 112zM647 793h64v192q0 83 18 148q-58 122 -190 122q-93 0 -148 -55t-55 -158
v-192v-55q81 0 151 -2h160z" />
    <glyph glyph-name="f_f_b.liga" unicode="ffb" horiz-adv-x="2220" 
d="M1749 827q160 0 266 -118q109 -121 109 -308q0 -199 -113 -315q-111 -117 -287 -117q-128 0 -235 113q-21 23 -40.5 45t-26.5 30.5t-9 8.5q-11 0 -20 -21l-41 -147q-10 -29 -31 -29q-18 0 -18 23q0 2 0.5 14.5t1 34.5t0.5 47q0 911 -2 1030q-2 71 -57 122.5t-154 51.5
q-88 0 -143.5 -52.5t-55.5 -147.5v-295q37 1 81.5 2t68.5 1.5t38 0.5q33 0 33 -29t-33 -29h-69q-43 2 -119 2v-532q0 -114 26 -155t93 -35q26 -9 26 -19q0 -14 -14 -14q-8 0 -84 6q-102 4 -117 4q-20 0 -47 -1t-52 -2.5t-47 -3t-36 -2.5l-14 -1q-14 0 -14 10q0 15 30 25
q72 15 86 51q19 40 19 157v515q-31 2 -136 2q-80 0 -143 -2h-139v-541q0 -99 22 -135q20 -34 99 -49q26 -9 26 -19q0 -14 -14 -14q-7 0 -84 6q-102 4 -117 4q-20 0 -47 -1t-52 -2.5t-47 -3t-36 -2.5l-14 -1q-14 0 -14 11q-1 14 28 22q73 16 88 49q18 34 18 141v532h-94
q-17 0 -23.5 13.5t0 27t23.5 13.5q63 0 94 -2v53q0 176 100.5 273.5t264.5 97.5q149 0 231 -76q82 184 324 184q97 0 205 -57q30 7 60 21.5t48 25t21 10.5q16 0 16 -16l-2 -10q0 -4 -4 -55.5t-4 -90.5v-547h6q73 217 297 217zM612 793h66q31 2 70 2v174q0 13 4 67
q-32 75 -79.5 110.5t-129.5 35.5q-96 0 -154.5 -58.5t-58.5 -167.5v-161q76 0 139 -2h143zM1708 2q250 0 250 399q0 196 -65 293t-179 97q-108 0 -188 -103q-78 -104 -78 -282v-33q0 -172 75 -271.5t185 -99.5z" />
    <glyph glyph-name="f_f_h.liga" unicode="ffh" horiz-adv-x="2213" 
d="M2114 27q26 -14 26 -25q0 -12 -14 -12q-6 0 -62 6q-74 4 -88 4t-84 -4q-52 -6 -57 -6q-14 0 -14 12q0 11 24 23q36 16 47 47q13 37 13 135v321q0 248 -183 248q-116 0 -194 -106q-80 -109 -80 -291v-189q2 -87 16.5 -117.5t65.5 -47.5q24 -9 24 -21q0 -14 -14 -14
q-4 0 -65 6q-78 4 -95 4q-16 0 -38.5 -1t-44 -2.5t-40.5 -3t-31 -2.5l-12 -1q-14 0 -14 12q0 15 29 25q51 17 63 59q13 47 13 195v841q-5 69 -60 119.5t-153 50.5q-88 0 -143.5 -52.5t-55.5 -147.5v-295q37 1 81.5 2t68.5 1.5t38 0.5q33 0 33 -29t-33 -29h-69q-43 2 -119 2
v-538q0 -102 20 -135q20 -34 99 -49q26 -9 26 -19q0 -14 -14 -14q-8 0 -84 6q-102 4 -117 4q-20 0 -47 -1t-52 -2.5t-47 -3t-36 -2.5l-14 -1q-14 0 -14 11q-1 14 28 21l2 1q71 15 86 49q19 36 19 141v535q-31 2 -136 2q-80 0 -143 -2h-139v-541q0 -99 22 -135q20 -34 99 -49
q26 -9 26 -19q0 -14 -14 -14q-7 0 -84 6q-102 4 -117 4q-20 0 -47 -1t-52 -2.5t-47 -3t-36 -2.5l-14 -1q-14 0 -14 11q-1 14 28 22q73 16 88 49q18 34 18 141v532h-94q-17 0 -23.5 13.5t0 27t23.5 13.5q63 0 94 -2v53q0 176 100.5 273.5t264.5 97.5q149 0 231 -76
q82 184 324 184q104 0 203 -57q37 7 72 21.5t53.5 25t19.5 10.5q12 0 12 -12q-18 -107 -18 -297v-447q35 121 115.5 187.5t189.5 66.5q154 0 226.5 -80.5t72.5 -252.5v-287q0 -105 10 -135q10 -29 52 -45zM612 793h66q31 2 70 2v174q0 13 4 67q-32 75 -79.5 110.5
t-129.5 35.5q-96 0 -154.5 -58.5t-58.5 -167.5v-161q76 0 139 -2h143z" />
    <glyph glyph-name="f_f_i.liga" unicode="ffi" horiz-adv-x="1640" 
d="M1538 20q25 -9 25 -20q0 -12 -15 -12q-3 0 -73 6q-90 4 -107 4q-14 0 -100 -4q-64 -6 -70 -6q-14 0 -14 11q0 14 26 21q62 15 74 50q14 32 14 137v416q0 77 -26 100q-27 27 -236 27q-112 0 -147 -2v-541q0 -102 20 -135q20 -34 99 -49q26 -9 26 -19q0 -14 -14 -14
q-8 0 -84 6q-102 4 -117 4q-20 0 -47 -1t-52 -2.5t-47 -3t-36 -2.5l-14 -1q-14 0 -14 11q-1 14 28 21l2 1q71 15 86 49q18 35 18 141v535q-283 0 -403 -3v-538q0 -102 20 -135t101 -49q26 -9 26 -19q0 -14 -14 -14q-7 0 -84 6q-102 4 -117 4q-20 0 -47 -1t-52 -2.5t-47 -3
t-36 -2.5l-14 -1q-14 0 -14 11q-1 14 28 22q73 16 88 49q19 36 19 141v532h-105q-17 0 -23.5 13.5t0 27t23.5 13.5h105v51q0 176 99 273.5t263 97.5q142 0 229 -72q88 180 332 180q122 0 217 -59q97 -60 97 -121q0 -38 -22.5 -62t-57.5 -24q-75 0 -99 90q-21 74 -60 106.5
t-112 32.5q-85 0 -139.5 -57t-54.5 -162v-184v-94h317q34 0 93.5 8t102.5 16l42 8q16 0 16 -14l-10 -51q-8 -41 -8 -199v-340q0 -114 14 -149q15 -39 82 -54zM340 799q98 -2 403 -2v149q0 43 11 107q-31 67 -77.5 98t-123.5 31q-96 0 -154.5 -58.5t-58.5 -167.5v-157z" />
    <glyph glyph-name="f_f_j.liga" unicode="ffj" horiz-adv-x="1593" 
d="M1444 827q16 0 16 -14q0 -5 -6 -27t-6 -24q-6 -35 -6 -203v-668q-1 -165 -68 -247t-178 -82q-67 0 -117.5 38.5t-50.5 88.5q-1 35 18 55t50 20q54 0 75 -75q21 -82 86 -82q86 0 86 117q0 22 -24 92q-23 77 -23 127v680q0 81 -24 102q-27 27 -236 27q-114 0 -149 -2v-543
q0 -102 20 -135t101 -49q24 -9 24 -19q0 -14 -14 -14q-6 0 -82 6q-102 4 -119 4q-18 0 -44.5 -1t-51.5 -2.5t-48 -3t-37 -2.5l-15 -1q-14 0 -14 11q-1 14 28 21l2 1q70 15 88 49q18 35 18 141v537q-121 0 -213 -2h-190v-541q0 -102 20 -135q20 -34 99 -49q26 -9 26 -19
q0 -14 -14 -14q-7 0 -84 6q-102 4 -117 4q-20 0 -47 -1t-52 -2.5t-47 -3t-36 -2.5l-14 -1q-14 0 -14 11q-1 15 30 22q71 15 86 49q19 36 19 141v532h-97q-17 0 -23.5 13.5t0 27t23.5 13.5h97v51q0 176 100 273.5t264 97.5q143 0 227 -72q91 180 332 180q124 0 219 -59
q97 -60 97 -121q0 -38 -22.5 -62t-57.5 -24q-75 0 -99 90q-24 74 -62 106.5t-110 32.5q-88 0 -142 -56t-54 -163v-184v-94h319q21 0 53 3.5t63 8t58.5 9t45.5 8.5zM340 799q96 -2 403 -2v149q0 58 11 107q-31 67 -77.5 98t-123.5 31q-97 0 -155 -58.5t-58 -167.5v-157z" />
    <glyph glyph-name="f_f_k.liga" unicode="ffk" horiz-adv-x="2131" 
d="M2019 53q16 -14 38.5 -24t35 -15.5t12.5 -13.5q0 -10 -18 -10l-55 6q-70 4 -90 4q-13 0 -99 -4q-65 -6 -67 -6q-17 0 -17 12q0 1 23.5 17t23.5 30q4 10 -25 61.5t-69 108.5q-26 43 -59 88l-58 88q-26 39 -39 39q-6 0 -10 -4l-98 -84v-156q2 -87 16.5 -117.5t65.5 -47.5
q24 -9 24 -21q0 -14 -14 -14q-4 0 -65 6q-78 4 -95 4q-16 0 -38.5 -1t-44 -2.5t-40.5 -3t-31 -2.5l-12 -1q-14 0 -14 12q0 15 29 25q51 17 63 59q13 47 13 195v841q-5 69 -60 119.5t-153 50.5q-88 0 -143.5 -52.5t-55.5 -147.5v-295q37 1 81.5 2t68.5 1.5t38 0.5
q33 0 33 -29t-33 -29h-69q-43 2 -119 2v-538q0 -102 20 -135q20 -34 99 -49q26 -9 26 -19q0 -14 -14 -14q-8 0 -84 6q-102 4 -117 4q-20 0 -47 -1t-52 -2.5t-47 -3t-36 -2.5l-14 -1q-14 0 -14 11q-1 14 28 21l2 1q71 15 86 49q19 36 19 141v535q-31 2 -136 2q-80 0 -143 -2
h-139v-541q0 -99 22 -135q20 -34 99 -49q26 -9 26 -19q0 -14 -14 -14q-7 0 -84 6q-102 4 -117 4q-20 0 -47 -1t-52 -2.5t-47 -3t-36 -2.5l-14 -1q-14 0 -14 11q-1 14 28 22q73 16 88 49q18 34 18 141v532h-94q-17 0 -23.5 13.5t0 27t23.5 13.5q63 0 94 -2v53
q0 176 100.5 273.5t264.5 97.5q149 0 231 -76q82 184 324 184q104 0 203 -57q37 7 72 21.5t53.5 25t19.5 10.5q12 0 12 -12q-18 -107 -18 -297v-639q297 259 336 305q20 26 20 41q0 38 -47 53q-24 9 -24 23q0 10 14 10l55 -6q49 -8 84 -8q30 0 88 6t66 6q16 0 16 -14
q0 -16 -45 -25q-59 -10 -111 -43t-151 -119l-82 -71l84 -125l74 -109q1 -2 57 -82q69 -96 94 -125q19 -24 43 -45zM612 793h66q31 2 70 2v174q0 13 4 67q-32 75 -79.5 110.5t-129.5 35.5q-96 0 -154.5 -58.5t-58.5 -167.5v-161q76 0 139 -2h143z" />
    <glyph glyph-name="f_f_l.liga" unicode="ffl" horiz-adv-x="1628" 
d="M1530 25q24 -9 24 -21q0 -14 -14 -14q-4 0 -65 6q-78 4 -95 4q-16 0 -38.5 -1t-44 -2.5t-40.5 -3t-31 -2.5l-12 -1q-14 0 -14 12q0 15 29 25q51 17 63 59q13 47 13 195v841q-5 69 -60 119.5t-153 50.5q-88 0 -143.5 -52.5t-55.5 -147.5v-295q37 1 81.5 2t68.5 1.5t38 0.5
q33 0 33 -29t-33 -29h-69q-43 2 -119 2v-538q0 -102 20 -135q20 -34 99 -49q26 -9 26 -19q0 -14 -14 -14q-8 0 -84 6q-102 4 -117 4q-20 0 -47 -1t-52 -2.5t-47 -3t-36 -2.5l-14 -1q-14 0 -14 11q-1 14 28 21l2 1q71 15 86 49q19 36 19 141v535q-31 2 -136 2q-80 0 -143 -2
h-139v-541q0 -99 22 -135q20 -34 99 -49q26 -9 26 -19q0 -14 -14 -14q-7 0 -84 6q-102 4 -117 4q-20 0 -47 -1t-52 -2.5t-47 -3t-36 -2.5l-14 -1q-14 0 -14 11q-1 14 28 22q73 16 88 49q18 34 18 141v532h-94q-17 0 -23.5 13.5t0 27t23.5 13.5q63 0 94 -2v53
q0 176 100.5 273.5t264.5 97.5q149 0 231 -76q82 184 324 184q104 0 203 -57q37 7 72 21.5t53.5 25t19.5 10.5q12 0 12 -12q-18 -107 -18 -297v-756q3 -136 16 -176q15 -42 66 -63zM612 793h66q31 2 70 2v174q0 13 4 67q-32 76 -79.5 111t-129.5 35q-96 0 -154.5 -58.5
t-58.5 -167.5v-161q76 0 139 -2h143z" />
    <glyph glyph-name="f_h.liga" unicode="fh" horiz-adv-x="1673" 
d="M1569 27q26 -14 26 -25q0 -12 -14 -12q-7 0 -63 6q-74 4 -86 4q-14 0 -84 -4q-52 -6 -58 -6q-14 0 -14 12q0 11 24 23q37 16 48 47q12 34 12 135v321q0 248 -182 248q-113 0 -190.5 -100t-84.5 -268v-197q0 -92 15 -129t59 -57q24 -12 24 -21q0 -14 -14 -14q-2 0 -61 6
q-78 4 -90 4q-16 0 -38.5 -1t-44 -2.5t-40.5 -3t-31 -2.5l-12 -1q-15 0 -15 12q0 16 27 25q54 19 66 59q12 44 12 195v841q-5 69 -60 119.5t-153 50.5q-88 0 -143.5 -52.5t-55.5 -147.5v-297l223 6q33 0 33 -29t-33 -29q-1 0 -40 1.5t-92.5 3.5t-90.5 2v-537q0 -114 26 -155
t93 -35q27 -9 27 -19q0 -14 -15 -14q-7 0 -84 6q-102 4 -116 4q-20 0 -47 -1t-52.5 -2.5t-47.5 -3t-36 -2.5l-14 -1q-14 0 -14 10q0 15 30 25q72 15 86 51q19 40 19 157v515q-15 0 -33 -0.5t-33.5 -1t-28.5 -0.5h-22l-8 -1q-17 0 -23.5 13.5t0 27t23.5 13.5l125 -4v174
q0 174 97.5 267t260.5 93q104 0 203 -57q36 9 70.5 23t53.5 24t21 10q13 0 13 -12q-19 -107 -19 -297v-445q35 119 115.5 185.5t189.5 66.5q154 0 225.5 -80.5t71.5 -252.5v-287q0 -98 11 -135q13 -30 53 -45z" />
    <glyph glyph-name="f_j.liga" unicode="fj" horiz-adv-x="1069" 
d="M920 827q16 0 16 -14l-10 -51q-8 -41 -8 -203v-668q0 -166 -65 -247.5t-179 -81.5q-67 0 -118.5 38.5t-51.5 88.5q0 35 18 55t49 20q55 0 76 -75q21 -82 86 -82q88 0 88 117q0 22 -24 92q-23 77 -23 127v680q0 78 -24 102q-27 27 -238 27q-43 0 -80 -2h-84v-543
q0 -100 21 -135q20 -33 100 -49q25 -9 25 -19q0 -14 -15 -14q-5 0 -82 6q-102 4 -118 4q-18 0 -45 -1t-52 -2.5t-47 -3t-37 -2.5l-14 -1q-14 0 -14 11q-1 14 28 22q70 15 88 49q19 36 19 141v535q-58 -3 -127 -3q-17 0 -23.5 13.5t0 27t23.5 13.5h127v147q0 184 102 283.5
t271 99.5q125 0 225 -59q98 -58 98 -121q0 -38 -22.5 -62t-57.5 -24q-74 0 -98 90q-24 74 -64 106.5t-116 32.5q-86 0 -140.5 -57t-54.5 -162v-184v-92q63 -2 334 -2q21 0 53 3.5t63 8t58.5 9t45.5 8.5z" />
    <glyph glyph-name="f_k.liga" unicode="fk" horiz-adv-x="1589" 
d="M1475 53q16 -14 38.5 -24t35 -15.5t12.5 -13.5q0 -10 -17 -10q-2 0 -57 6q-70 4 -90 4q-13 0 -99 -4q-64 -6 -67 -6q-14 0 -14 12q0 1 23.5 17t23.5 30q8 19 -95 170l-118 176q-26 39 -39 39q-1 0 -5 -1q-1 -1 -2.5 -1.5t-3.5 -1.5l-98 -84v-135q0 -92 15 -129t59 -57
q24 -12 24 -21q0 -14 -14 -14q-2 0 -61 6q-78 4 -90 4q-16 0 -38.5 -1t-44 -2.5t-40.5 -3t-31 -2.5l-12 -1q-15 0 -15 12q0 16 27 25q54 19 66 59q12 44 12 195v841q-5 69 -60 119.5t-153 50.5q-88 0 -143.5 -52.5t-55.5 -147.5v-297l223 6q33 0 33 -29t-33 -29
q-1 0 -40 1.5t-92.5 3.5t-90.5 2v-537q0 -114 26 -155t93 -35q27 -9 27 -19q0 -14 -15 -14q-7 0 -84 6q-102 4 -116 4q-20 0 -47 -1t-52.5 -2.5t-47.5 -3t-36 -2.5l-14 -1q-14 0 -14 10q0 15 30 25q72 15 86 51q19 40 19 157v515q-15 0 -33 -0.5t-33.5 -1t-28.5 -0.5h-22
l-8 -1q-17 0 -23.5 13.5t0 27t23.5 13.5l125 -4v174q0 174 97.5 267t260.5 93q104 0 203 -57q36 9 70.5 23t53.5 24t21 10q13 0 13 -12q-19 -107 -19 -297v-639q243 212 291 258q66 63 66 88q0 38 -46 53q-26 9 -26 23q0 10 14 10l55 -6q49 -8 86 -8q29 0 87 6t65 6
q16 0 16 -14q0 -16 -43 -25q-62 -9 -114 -43q-68 -44 -150 -119l-80 -71l58 -88l53 -78l45 -66q50 -70 76 -110q54 -72 63 -82q34 -41 56 -62z" />
    <glyph glyph-name=".notdef" horiz-adv-x="1024" 
d="M840 1475v-2048h-650v2048h650zM682 1337h-338v-67h133v-76h-135v-68h340v68h-135v76h135v67zM547 1073h-205v-213h340v70h-135v143zM477 1004v-74h-67v74h67zM682 805h-340v-68h135v-75h-135v-68h205v143h135v68zM682 682h-68v-135h-272v-70h340v205zM682 432h-205v-115
h70v48h67v-97h-204v164h-68v-231h340v231zM682 78h-340v-232h340v232zM614 10v-96h-204v96h204zM682 -201h-340v-67h143l-143 -97v-67h340v67h-209l143 97h66v67z" />
    <glyph glyph-name=".null" 
 />
    <glyph glyph-name="nonmarkingreturn" horiz-adv-x="682" 
 />
    <glyph glyph-name="NULL" 
 />
    <glyph glyph-name="NULL" 
 />
    <glyph glyph-name="CR" unicode="&#xd;" horiz-adv-x="681" 
 />
    <glyph glyph-name="space" unicode=" " horiz-adv-x="407" 
 />
    <glyph glyph-name="exclam" unicode="!" horiz-adv-x="468" 
d="M213 313q-6 224 -27 430q-21 201 -39 324q-16 128 -16 150q-8 59 47.5 83.5t110.5 0t47 -83.5q0 -15 -8 -73.5t-22.5 -171.5t-26.5 -229q-21 -206 -27 -430h-39zM236 199q51 0 82.5 -31t31.5 -82q0 -50 -31.5 -80.5t-82.5 -30.5q-50 0 -80.5 30.5t-30.5 80.5
q0 49 31.5 81t79.5 32z" />
    <glyph glyph-name="quotedbl" unicode="&#x22;" horiz-adv-x="776" 
d="M193 817q-4 113 -25 206t-40 143t-19 63q0 80 96 80q94 0 94 -80q0 -13 -19 -63t-40 -143t-25 -206h-22zM561 817q-4 113 -25 206t-40 143t-19 63q0 80 96 80q95 0 95 -80q0 -13 -19 -63t-40 -143t-25 -206h-23z" />
    <glyph glyph-name="numbersign" unicode="#" horiz-adv-x="950" 
d="M883 799q17 0 17 -24.5t-17 -24.5h-207l-55 -308h221q17 0 17 -24.5t-17 -24.5h-232l-67 -366q-6 -27 -31 -27q-19 0 -16 27l65 366h-260l-68 -366q-6 -27 -30 -27q-20 0 -17 27l66 366h-199q-17 0 -17 24.5t17 24.5h207l55 308h-211q-17 0 -17 24.5t17 24.5h220l59 336
q5 26 27 30q21 4 26 -14q2 -7 0 -16l-61 -336h258l59 336q5 26 27 30q21 4 26 -14q2 -7 0 -16l-61 -336h199zM569 442l56 308h-258l-56 -308h258z" />
    <glyph glyph-name="dollar" unicode="$" horiz-adv-x="1220" 
d="M1047 340q0 -124 -89 -209.5t-233 -112.5v-165q0 -15 -25 -15q-22 0 -22 15v159q-12 -2 -55 -2q-7 0 -29 1t-27 1v-159q0 -15 -24 -15q-23 0 -23 15v167q-63 12 -129 46q-63 32 -84 32q-44 0 -53 -73q-3 -21 -16 -21t-13 16q0 249 -16 396q0 12 12 12q16 0 19 -18
q50 -305 280 -357v496q-291 58 -291 280q0 119 80.5 193t210.5 92v186q0 17 23 17q24 0 24 -17v-180h27q46 0 84 -6v186q0 17 22 17q25 0 25 -17v-196q23 -6 90 -35q61 -22 78 -22q39 0 45 49q6 32 18 32q15 0 15 -16q0 -67 2.5 -125.5t6.5 -96t8 -65t6.5 -42.5t2.5 -17
q0 -10 -10 -10q-13 0 -16 16q-79 241 -246 297v-414q167 -37 244.5 -112t77.5 -203zM590 1090h-23v-402q1 0 6.5 -2t6.5 -2l98 -20v417q-35 9 -88 9zM340 897q0 -145 180 -197v383q-86 -13 -133 -64t-47 -122zM623 41q5 0 55 4v471l-16 4l-95 21v-496q46 -4 56 -4zM725 51
q99 20 152 80.5t53 149.5q0 90 -47 141t-158 82v-453z" />
    <glyph glyph-name="percent" unicode="%" horiz-adv-x="1730" 
d="M668 745q-95 -92 -226 -92q-130 0 -225 92q-96 93 -96 236t96 236q94 94 225 94q132 0 226 -94q98 -91 98 -236t-98 -236zM350 -8q-30 0 -33 14q-2 5 9 23l1022 1259q12 15 34 15q26 0 29 -15q2 -6 -8 -22l-1028 -1264q-7 -10 -25 -10zM311 750q54 -68 131 -68t131 68
q54 69 54 231t-54 231t-131 69t-131 -69q-53 -68 -53 -231t53 -231zM967 307q0 145 96 238q95 92 225 92t225 -92q99 -91 99 -238q0 -143 -99 -235q-95 -92 -225 -92t-225 92q-96 93 -96 235zM1288 8q187 0 187 299q0 301 -187 301q-184 0 -184 -301q0 -156 50 -227.5
t134 -71.5z" />
    <glyph glyph-name="ampersand" unicode="&#x26;" horiz-adv-x="1396" 
d="M1382 90q15 0 15 -14t-15 -23q-26 -34 -78.5 -59t-105.5 -25q-121 0 -264 146q-137 -146 -361 -146q-200 0 -337 90q-134 93 -134 254q0 222 306 367q-95 107 -135 182.5t-40 155.5q0 122 93 209q95 86 235 86q122 0 211 -68q90 -66 90 -172q0 -218 -301 -344l41 -45
l389 -418q64 125 64 254q0 86 -33.5 124t-126.5 58q-31 6 -31 21q0 12 15 12q10 0 75 -8q74 -6 129 -6t131 6q68 8 78 8q19 0 19 -14q4 -6 -11.5 -13t-39.5 -14t-31 -10q-49 -19 -75.5 -53.5t-43.5 -104.5q-37 -183 -90 -290l6 -9q108 -117 154 -151q47 -35 94 -35
q45 0 80 35q20 14 28 14zM569 1282q-88 0 -143 -59.5t-55 -153.5q0 -74 37 -142t135 -175q108 65 155 142t47 183q0 98 -47.5 151.5t-128.5 53.5zM590 0q195 0 317 143l-59 66l-346 366q-35 41 -68 74q-176 -129 -176 -313q0 -149 89.5 -242.5t242.5 -93.5z" />
    <glyph glyph-name="quotesingle" unicode="'" horiz-adv-x="323" 
d="M150 817q-4 113 -25 206t-40 143t-19 63q-8 49 44 69.5t104 0t44 -69.5q0 -13 -19.5 -63t-41 -143t-25.5 -206h-22z" />
    <glyph glyph-name="parenleft" unicode="(" horiz-adv-x="675" 
d="M489 -451q-176 271 -262 517q-80 238 -80 540q0 303 80 541q85 244 262 516h54q-147 -277 -215 -514q-66 -243 -66 -543t66 -543q68 -237 215 -514h-54z" />
    <glyph glyph-name="parenright" unicode=")" horiz-adv-x="675" 
d="M186 -451h-53q150 281 213 514q68 239 68 543t-68 543q-63 233 -213 514h53q179 -276 260 -516q82 -236 82 -541q0 -304 -82 -540q-81 -242 -260 -517z" />
    <glyph glyph-name="asterisk" unicode="*" horiz-adv-x="763" 
d="M430 1221q0 -17 -20 -84q-19 -65 -29 -144q-5 66 -29 146q-20 67 -20 82q0 57 49 57t49 -57zM111 1081q14 44 67 29q13 -3 74 -45q69 -45 129 -72q-67 14 -145 17q-71 3 -86 6q-54 19 -39 65zM653 1081q12 -45 -39 -65q-15 -3 -88 -6q-78 -3 -145 -17q65 28 129 72
q65 43 74 45q55 16 69 -29zM207 836q11 15 65 55q69 55 109 102q-39 -67 -62 -135q-25 -73 -32 -80q-32 -43 -72 -16q-42 31 -8 74zM549 762q-42 -28 -72 16q-9 12 -33 80q-26 76 -63 135q51 -56 108 -102l68 -55q31 -48 -8 -74z" />
    <glyph glyph-name="plus" unicode="+" horiz-adv-x="1146" 
d="M911 588q17 0 17 -24.5t-17 -24.5h-313v-314q0 -17 -24.5 -17t-24.5 17v314h-313q-17 0 -17 24.5t17 24.5h313v313q0 17 24.5 17t24.5 -17v-313h313z" />
    <glyph glyph-name="comma" unicode="," horiz-adv-x="489" 
d="M150 -293q-15 0 -15 14q0 8 15 17q75 45 121 113.5t46 140.5q0 24 -16 24q-1 0 -37 -18t-59 -18q-43 0 -73 30t-30 78q0 47 33 78t84 31q67 0 107.5 -48.5t40.5 -132.5q0 -71 -28.5 -133.5t-67 -98.5t-72 -56.5t-49.5 -20.5z" />
    <glyph glyph-name="hyphen" unicode="-" horiz-adv-x="698" 
d="M135 461q41 0 92 -2t117 -2q68 0 123 2t98 2q25 0 25 -31t-25 -31h-108q-47 2 -107 2l-215 -2q-26 0 -26 29q0 33 26 33z" />
    <glyph glyph-name="period" unicode="." horiz-adv-x="450" 
d="M225 209q54 0 86.5 -31.5t32.5 -85.5q0 -51 -32.5 -83t-86.5 -32q-51 0 -83.5 32t-32.5 83t32.5 84t83.5 33z" />
    <glyph glyph-name="slash" unicode="/" horiz-adv-x="727" 
d="M0 -182q-16 0 -16 14q0 6 6 18l704 1534q10 23 31 23q11 0 14.5 -6t2 -13.5t-6.5 -15.5l-702 -1534q-9 -20 -33 -20z" />
    <glyph glyph-name="zero" unicode="0" horiz-adv-x="1206" 
d="M250 1004q136 167 352 167t352 -167q142 -171 142 -433q0 -261 -142 -432q-137 -168 -352 -168t-352 168q-139 171 -139 432q0 262 139 433zM367 131q95 -129 235 -129q142 0 234 129q94 128 94 440q0 313 -94 441q-92 129 -234 129q-140 0 -235 -129q-93 -131 -93 -441
q0 -309 93 -440z" />
    <glyph glyph-name="one" unicode="1" horiz-adv-x="772" 
d="M467 1171q14 0 14 -12l-10 -219q-2 -56 -2 -102v-553q0 -143 27 -189q28 -48 139 -71q43 -15 43 -27t-14 -12l-107 6q-96 8 -176 8q-43 0 -110 -3.5t-117 -6.5l-50 -4q-14 0 -14 12q0 17 29 20q83 14 120 28t56 42q19 29 23 55.5t4 104.5v569q0 133 -37 170
q-32 38 -183 47q-15 1 -21.5 10.5t-1 19t18.5 9.5q62 2 122.5 13t102.5 25t74.5 27.5t50.5 23t19 9.5z" />
    <glyph glyph-name="two" unicode="2" horiz-adv-x="1097" 
d="M260 139q-78 0 -78 -76q0 -5 4 -25t4 -28q0 -33 -36 -33q-45 0 -45 121q0 167 91.5 275.5t286.5 185.5q161 66 224 138t63 188q0 129 -74 192.5t-206 63.5q-90 0 -155 -39.5t-65 -93.5q0 -30 29 -70t29 -68q0 -38 -27 -60t-69 -22q-46 0 -76.5 32.5t-30.5 86.5
q0 103 117 183q115 81 280 81q174 0 293 -79q121 -80 121 -207q0 -237 -389 -357q-406 -120 -406 -411q0 -84 2 -107h5q-1 9 -2 22.5t-2 23t-1 16.5q0 70 50 114.5t133 44.5q79 0 274 -53t250 -53q67 0 102.5 43.5t47.5 146.5q3 25 16 25q16 0 16 -14q0 -30 -16 -148
q-30 -192 -199 -192q-76 0 -286 75q-219 78 -275 78z" />
    <glyph glyph-name="three" unicode="3" horiz-adv-x="1101" 
d="M547 614q213 -7 335 -89.5t122 -217.5q0 -133 -134 -237q-131 -101 -338 -101q-188 0 -301 78q-110 76 -110 186q0 59 34.5 93t86.5 34q42 0 66 -20t24 -55q0 -37 -39 -76q-37 -40 -37 -78q0 -53 72.5 -92t181.5 -39q129 0 225 78q94 76 94 223q0 140 -88 212.5
t-256 72.5q-22 0 -45.5 -0.5t-41.5 -1.5t-32 -2t-22.5 -1.5t-9.5 -0.5q-41 0 -41 36q0 31 41 31q3 0 29 -2.5t61.5 -5t60.5 -2.5q133 0 214 68t81 192q0 122 -72 184t-198 62q-97 0 -155 -29.5t-58 -77.5q0 -13 22.5 -52t22.5 -56q0 -37 -26.5 -59.5t-65.5 -22.5
q-48 0 -78.5 28.5t-30.5 77.5q0 90 111 154q115 65 270 65q189 0 301 -75q117 -77 117 -197q0 -119 -108 -195t-285 -90z" />
    <glyph glyph-name="four" unicode="4" horiz-adv-x="978" 
d="M881 283h-146v-60q0 -107 19 -143q17 -33 100 -57q47 -15 47 -25q0 -12 -16 -12q-11 0 -90 8q-89 6 -142 6q-62 0 -133 -8l-82 -6q-14 0 -14 12q0 8 35 20q85 28 102 60q21 35 21 139v66h-537q-29 0 -29 20q0 12 21 39l604 770q31 42 41 50.5t29 8.5q26 0 26 -24v-19
q0 -18 -0.5 -49t-1 -68t-0.5 -84v-89v-488h146q41 0 41 -31q0 -36 -41 -36zM88 350h494v619q0 6 -4 6q-7 0 -25 -27z" />
    <glyph glyph-name="five" unicode="5" horiz-adv-x="1083" 
d="M504 -31q-165 0 -277 80q-108 79 -108 191q0 50 30.5 81t75.5 31q42 0 68 -23t26 -61q0 -20 -23.5 -64t-23.5 -61q0 -62 59.5 -102.5t155.5 -40.5q322 0 322 354q0 324 -301 324q-165 0 -277 -92q-22 -19 -32 -19q-12 0 -22.5 9.5t-10.5 21.5v514q0 49 51 49q1 0 31.5 -4
t78.5 -9.5t103.5 -11.5t119.5 -10t114 -4q110 0 260 35l16 4q8 0 8 -6q0 -56 -92 -121q-89 -65 -223 -65q-57 0 -120 9.5t-113 23.5t-91.5 28t-66 23.5t-25.5 9.5q-10 0 -10 -12l2 -441q123 105 332 105q177 0 307 -92q131 -91 131 -263q0 -178 -129 -284.5t-346 -106.5z
" />
    <glyph glyph-name="six" unicode="6" horiz-adv-x="1110" 
d="M612 715q173 0 287 -99q115 -100 115 -256q0 -178 -129 -286q-126 -105 -310 -105q-219 0 -339 172q-119 171 -119 426q0 243 147 424q149 180 377 180q130 0 215.5 -58t85.5 -150q0 -53 -25 -81t-67 -28q-37 0 -62.5 21.5t-25.5 56.5q0 18 21.5 60t21.5 59q0 38 -47 64
t-119 26q-184 0 -287 -154q-82 -122 -82 -412q0 -71 2 -94q22 111 117.5 172.5t222.5 61.5zM575 0q144 0 216.5 84.5t72.5 271.5q0 320 -280 320q-133 0 -218 -86.5t-85 -245.5q0 -156 82.5 -250t211.5 -94z" />
    <glyph glyph-name="seven" unicode="7" horiz-adv-x="948" 
d="M911 1155q27 0 27 -25q3 -6 -9.5 -21.5t-39.5 -48t-49 -65.5l-230 -315q-204 -290 -204 -438q0 -48 22.5 -111.5t22.5 -73.5q0 -38 -23.5 -63t-58.5 -25q-44 0 -69.5 32t-25.5 87q0 136 64 252q63 116 246 365l221 309q-59 -15 -156 -15q-23 0 -184 7q-123 8 -207 8
q-76 0 -108 -19l-44 -221q-6 -18 -16 -18q-12 0 -12 16l6 51q20 180 20 348q0 21 13 21q15 0 18 -12q3 -8 10 -45q70 18 146 18q56 0 184 -8t195 -8q53 0 110 4.5t93 9t38 4.5z" />
    <glyph glyph-name="eight" unicode="8" horiz-adv-x="1091" 
d="M672 641q164 -64 240.5 -140t76.5 -190q0 -161 -135 -250q-137 -90 -328 -90q-183 0 -301 86q-116 85 -116 215q0 222 297 326q-121 56 -178.5 122t-57.5 161q0 129 117 209q115 81 272 81q150 0 254 -67q105 -68 105 -178q0 -183 -246 -285zM291 932q0 -107 94 -168
q47 -28 89 -46.5t130 -51.5l33 -13q209 95 209 271q0 98 -86 157q-88 60 -205 60q-111 0 -187.5 -56.5t-76.5 -152.5zM528 2q149 0 234.5 67.5t85.5 188.5q0 102 -77 167t-251 128l-80 31q-254 -99 -254 -308q0 -116 95 -196q96 -78 247 -78z" />
    <glyph glyph-name="nine" unicode="9" horiz-adv-x="1124" 
d="M494 455q-164 0 -277 94q-115 95 -115 256q0 163 125 264q126 102 289 102q245 0 367 -165q123 -164 123 -410q0 -251 -142 -440q-141 -187 -377 -187q-141 0 -251 70q-111 71 -111 176q0 49 25 75.5t67 26.5q38 0 62 -19.5t24 -53.5q0 -16 -20.5 -57t-20.5 -58
q0 -56 67 -92.5t171 -36.5q186 0 274 156q66 117 66 508q-29 -101 -125.5 -155t-220.5 -54zM532 1141q-133 0 -206.5 -82t-73.5 -248q0 -317 270 -317q136 0 222.5 86t86.5 251q0 139 -82.5 224.5t-216.5 85.5z" />
    <glyph glyph-name="colon" unicode=":" horiz-adv-x="462" 
d="M219 725q54 0 86.5 -32t32.5 -83t-32.5 -82.5t-86.5 -31.5q-51 0 -84 31.5t-33 82.5t33 83t84 32zM219 209q54 0 86.5 -32t32.5 -83t-32.5 -82.5t-86.5 -31.5q-51 0 -84 31.5t-33 82.5t33 83t84 32z" />
    <glyph glyph-name="semicolon" unicode=";" horiz-adv-x="489" 
d="M225 729q54 0 86.5 -31.5t32.5 -85.5q0 -51 -32.5 -82.5t-86.5 -31.5q-51 0 -83.5 31.5t-32.5 82.5t32.5 84t83.5 33zM150 -293q-15 0 -15 14q0 8 15 17q75 45 121 113.5t46 140.5q0 24 -16 24q-1 0 -37 -18t-59 -18q-43 0 -73 30t-30 78q0 47 33 78t84 31
q67 0 107.5 -48.5t40.5 -132.5q0 -71 -28.5 -133.5t-67 -98.5t-72 -56.5t-49.5 -20.5z" />
    <glyph glyph-name="less" unicode="&#x3c;" horiz-adv-x="1146" 
d="M256 358l504 314q23 12 31.5 12t15.5 -12q10 -9 7.5 -21t-26.5 -24l-475 -295l475 -295q24 -12 26.5 -24t-7.5 -21q-7 -12 -15.5 -12t-31.5 12l-504 313q-20 12 -20 26.5t20 26.5z" />
    <glyph glyph-name="equal" unicode="=" horiz-adv-x="1146" 
d="M236 729h675q17 0 17 -24.5t-17 -24.5h-675q-17 0 -17 24.5t17 24.5zM236 442h675q17 0 17 -24.5t-17 -24.5h-675q-17 0 -17 24.5t17 24.5z" />
    <glyph glyph-name="greater" unicode="&#x3e;" horiz-adv-x="1146" 
d="M862 305l-504 -313q-23 -12 -31.5 -12t-15.5 12q-10 9 -7.5 21t26.5 24l475 295l-475 295q-24 12 -26.5 24t7.5 21q7 12 15.5 12t31.5 -12l504 -314q20 -12 20 -26.5t-20 -26.5z" />
    <glyph glyph-name="question" unicode="?" horiz-adv-x="1038" 
d="M424 367v79q0 99 33.5 155t122.5 93q101 42 142.5 107t41.5 190q0 144 -71 216.5t-199 72.5q-101 0 -172.5 -38.5t-71.5 -90.5q0 -17 26.5 -60.5t26.5 -64.5q0 -38 -26 -61t-68 -23q-44 0 -72 30.5t-28 80.5q0 105 114 182q116 76 291 76q188 0 303 -83t115 -227
q0 -125 -74.5 -204.5t-222.5 -128.5q-93 -32 -128.5 -79t-35.5 -136v-86h-47zM455 199q51 0 81.5 -31t30.5 -82q0 -50 -30.5 -80.5t-81.5 -30.5q-50 0 -81.5 31t-31.5 80q0 51 31.5 82t81.5 31z" />
    <glyph glyph-name="at" unicode="@" horiz-adv-x="1476" 
d="M1026 748q14 0 14 -15q0 -9 -10 -67l-47 -244q-25 -128 -25 -166q0 -125 111 -125q98 0 186 94t88 297q0 214 -163 346q-165 133 -408 133q-267 0 -455 -176q-184 -175 -184 -454q0 -248 172 -398q171 -149 422 -149q213 0 377 102q42 25 43 25q16 0 16 -17
q0 -11 -30 -32q-167 -111 -406 -111q-271 0 -461 158q-186 155 -186 422q0 296 201 479q202 184 491 184q266 0 445 -141q180 -137 180 -373q0 -203 -111 -317q-107 -113 -235 -113q-183 0 -177 189q0 2 1.5 14.5t4 39t5.5 54.5h-6q-73 -291 -271 -291q-96 0 -155.5 69.5
t-59.5 196.5q0 169 109 287q107 119 246 119q44 0 80.5 -14t54.5 -30t32.5 -30t20.5 -14q16 0 49 33q35 35 41 35zM633 131q68 0 127 80q55 75 84 176q28 98 28 174q0 174 -106 174q-94 0 -170 -131q-76 -128 -76 -291q0 -86 29.5 -134t83.5 -48z" />
    <glyph glyph-name="A" unicode="A" horiz-adv-x="1368" 
d="M899 -10q-22 0 -21 12q1 14 35 21q80 27 80 90q0 37 -86 284q-9 20 -33 23q-62 6 -301 6q-197 0 -227 -6q-21 -3 -27 -21l-63 -180q-14 -49 -14 -84q0 -81 106 -115q31 -6 31 -18q0 -14 -19 -14q-4 0 -75 6t-109 6q-32 0 -84 -6q-49 -6 -53 -6q-21 0 -21 14q0 11 29 21
q69 19 94 57q34 46 84 174q146 372 326 885q20 44 20 63q0 20 -55 41q-29 10 -29 21q0 16 21 16q23 1 46 3t43.5 5t40 6.5t36 7.5t31 8t25.5 7.5t18.5 6t11.5 4.5l4 1q14 0 14 -14q0 -4 -7 -18t-7 -19q0 -25 14 -57l379 -1018q35 -91 59.5 -123.5t65.5 -46.5q58 -20 54 -35
q-2 -8 -19 -8q-7 0 -84 6q-102 4 -127 4q-21 0 -127 -4q-77 -6 -80 -6zM586 461q209 0 274 8q17 0 17 10q0 2 -1 4.5t-2 7t-2 7.5l-258 694q0 5 -2 7t-4.5 0t-3.5 -7l-252 -698q-1 -4 -2 -8.5t-1.5 -7t-0.5 -3.5q0 -5 10 -8q18 -6 228 -6z" />
    <glyph glyph-name="B" unicode="B" horiz-adv-x="1302" 
d="M1044 606q173 -83 173 -252q0 -171 -149 -268.5t-409 -97.5q-63 0 -170 8q-120 6 -157 6q-28 0 -74.5 -3t-81.5 -6l-35 -3q-15 0 -14 11q1 15 37 28q46 15 61 59q25 70 25 477v97q0 460 -21 534q-13 52 -57 66l-8 4q-39 14 -37 30q1 9 14 9q1 0 72 -9q71 -6 111 -6
q53 0 149 8q132 11 156 11q251 0 370 -70q136 -77 136 -235q0 -139 -116.5 -226.5t-328.5 -97.5v-6h2q216 0 352 -68zM416 1174v-424q0 -41 22 -50q19 -8 121 -8q216 0 306.5 72t90.5 240q0 148 -82.5 212t-263.5 64q-145 0 -174 -29q-20 -20 -20 -77zM647 16q383 0 383 332
q0 307 -438 307q-116 0 -146 -18t-30 -86v-178q0 -271 10 -301q1 -4 4.5 -9t3.5 -6q27 -41 213 -41z" />
    <glyph glyph-name="C" unicode="C" horiz-adv-x="1335" 
d="M1231 477q16 0 16 -14l-10 -303q-2 -96 -2 -178q0 -12 -12 -14q-13 -3 -20 19l-3 23q-3 76 -45 76q-15 0 -79 -29t-161.5 -58.5t-193.5 -29.5q-271 0 -447 191t-176 483q0 290 181 483t450 193q84 0 172 -25t145.5 -50t65.5 -25q32 0 35 63q6 37 24 37q14 -2 15 -19
q0 -95 12 -227q7 -84 16 -154.5t14 -98.5l5 -29q0 -13 -12 -13q-20 0 -23 19l-16 65q-108 428 -445 428q-175 0 -305 -133q-69 -70 -108 -203.5t-39 -310.5t38 -309.5t105 -202.5q127 -133 299 -133q393 0 463 356l20 103q3 20 21 20z" />
    <glyph glyph-name="D" unicode="D" horiz-adv-x="1468" 
d="M637 1309q321 0 528 -189t207 -473t-207 -479q-206 -191 -528 -191q-41 0 -164 13q-127 10 -162 10q-10 0 -100 -4q-20 -1 -37 -2t-25 -2h-8q-14 0 -14 12q0 11 47 29q39 14 45 104q8 79 8 516q0 415 -8 496q-9 93 -49 111q-10 5 -20 9t-14 5t-6.5 4t-2.5 8q0 12 14 12h7
q8 -1 24 -2t35 -2q86 -4 104 -4q53 0 162 8q154 11 164 11zM641 6q241 0 393 158q150 156 150 483q0 329 -150 479q-151 154 -393 154q-207 0 -231 -74q-17 -60 -17 -553q0 -528 19 -577q27 -70 229 -70z" />
    <glyph glyph-name="E" unicode="E" horiz-adv-x="1208" 
d="M1122 399l-8 -49q-20 -165 -20 -252q0 -19 6.5 -40.5t13 -36t6.5 -15.5q0 -12 -14 -12q-9 0 -56.5 0.5t-139 1.5t-177.5 2q-102 2 -295 2q-36 0 -71.5 -0.5t-64 -1t-54 -1t-44 -1t-32.5 -1t-22 -1.5h-7q-16 0 -16 12q0 10 41 25q48 18 63 57q23 71 23 440v117
q0 465 -21 541q-12 52 -57 67l-8 4q-41 15 -41 29q0 12 16 12h10q10 -1 32 -2t48 -2q118 -4 154 -4q209 0 315 2l265 4q68 2 118 2q17 0 17 -12q0 -1 -7 -15.5t-13.5 -36t-6.5 -40.5q0 -22 3 -54t6.5 -61.5t7.5 -55t7 -41.5t3 -15q0 -17 -15 -17q-17 0 -20 25
q-52 182 -129 235q-79 54 -258 54q-117 0 -162.5 -8t-64.5 -33q-19 -22 -25 -107q-6 -83 -6 -373q0 -35 26.5 -44t126.5 -9q136 0 177 35q45 39 71 149q3 17 19 17q12 0 12 -14q0 -1 -1 -13.5t-3 -33t-4 -45t-3 -55.5t-1 -58q0 -23 0.5 -46.5t1.5 -43t2.5 -37t3 -31t2.5 -24
t2 -16.5v-5q0 -14 -12 -14q-14 3 -17 18q-21 108 -67 145q-45 39 -183 39q-71 0 -100.5 -4t-41 -14.5t-11.5 -36.5q0 -391 16 -485q9 -34 21 -49q19 -24 61 -32.5t144 -8.5q220 -3 303 65q83 69 118 297q3 27 23 27q14 0 14 -17z" />
    <glyph glyph-name="F" unicode="F" horiz-adv-x="1134" 
d="M1065 1194q0 -92 26 -228l1 -5q0 -16 -13 -17q-15 -1 -23 23q-1 1 -1 2q-57 183 -142 237q-82 54 -268 54q-101 0 -141.5 -7t-57.5 -28q-18 -21 -24 -115q-6 -88 -6 -405q0 -35 26.5 -43.5t130.5 -8.5q120 0 162 39q45 42 72 158q3 16 18 16q11 0 11 -14q0 -1 -1 -14
t-3 -34.5t-3.5 -47.5t-2.5 -58t-1 -61q0 -34 1 -68t2.5 -58.5t3.5 -44t3 -30.5t1 -12q0 -14 -11 -14q-13 3 -16 18q-20 111 -70 154q-47 41 -166 41q-104 0 -130.5 -8.5t-26.5 -43.5q0 -411 24 -481q14 -50 70 -63q6 0 8 -2q41 -12 41 -21q0 -12 -14 -12h-11q-10 1 -32.5 2
t-48.5 2q-114 4 -123 4q-18 0 -43.5 -1t-50 -2.5t-46 -3t-35.5 -2.5l-14 -1q-14 0 -14 12t33 23q50 17 65 57q25 64 25 432v131q0 473 -21 547q-12 53 -55 68q-6 0 -8 2q-39 14 -39 24q0 12 14 12l21 -1q21 -1 57 -2t80.5 -2t102 -2t110.5 -1q129 0 262 2t215 4t86 2
q15 0 15 -12q0 -1 -6 -15.5t-12.5 -36t-6.5 -40.5z" />
    <glyph glyph-name="G" unicode="G" horiz-adv-x="1372" 
d="M1229 -31q-12 0 -15 27q-12 110 -51 110q-7 0 -16.5 -3t-25.5 -11.5t-25 -13.5t-33 -20t-31 -19q-42 -27 -121 -47.5t-166 -20.5q-284 0 -466 191q-181 193 -181 481q0 290 189 485t469 195q87 0 170.5 -23.5t135.5 -47t60 -23.5q39 0 45 69q3 39 23 39q18 0 18 -20
q0 -57 2 -113t4.5 -99.5t6 -82.5t7.5 -67t6.5 -48.5t4.5 -31.5l2 -11q0 -14 -16 -14t-19 18q-70 232 -177 329t-275 97q-185 0 -316 -137q-70 -70 -109.5 -203.5t-39.5 -310.5q0 -333 129 -489t332 -156q152 0 243.5 65.5t91.5 180.5v78q0 81 -10 108q-9 24 -55 39
q-33 14 -33 23q0 12 14 12q3 0 64 -6t94 -6q21 0 111 4q68 6 69 6q15 0 15 -13q0 -8 -14.5 -13t-33.5 -10.5t-26 -12.5q-23 -17 -29 -62q-6 -46 -6 -198v-195q0 -29 -16 -29z" />
    <glyph glyph-name="H" unicode="H" horiz-adv-x="1511" 
d="M141 -12q-15 0 -14 10q1 15 37 25q48 17 57 110q8 84 8 520q0 421 -8 502q-9 96 -57 113q-38 11 -37 26q1 9 14 9q1 0 9 -1t25.5 -2.5t35.5 -3.5q67 -6 102 -6q37 0 101 6q19 2 36 3.5t24.5 2.5t8.5 1q15 0 15 -10q-1 -15 -35 -25q-51 -19 -60 -111q-8 -79 -8 -498
q0 -440 8 -524q9 -93 60 -112q36 -11 34 -26q-1 -9 -14 -9q-5 0 -69 6t-101 6q-35 0 -102 -6q-65 -6 -70 -6zM1370 -12q-2 0 -70 6t-102 6q-36 0 -100 -6t-70 -6q-15 0 -14 10q0 15 35 25q48 17 57 112q10 105 10 524q0 400 -10 498q-9 94 -57 111q-36 11 -35 26q1 9 14 9
q1 0 9 -1t25.5 -2.5t35.5 -3.5q64 -6 100 -6q34 0 102 6q20 2 37 3.5t24.5 2.5t8.5 1q15 0 14 -10q0 -15 -36 -25q-49 -18 -58 -113q-8 -81 -8 -502q0 -436 8 -520q9 -92 58 -110q38 -11 36 -26q-1 -9 -14 -9zM397 569v142q0 -38 56 -47q65 -7 303 -7q244 0 303 9
q57 9 57 45v-142q0 37 -55 43q-55 9 -305 9q-248 0 -303 -9q-56 -6 -56 -43z" />
    <glyph glyph-name="I" unicode="I" horiz-adv-x="641" 
d="M150 -12q-15 0 -15 12q0 16 35 25q48 14 57 106q11 112 11 477v45q0 390 -11 502q-9 94 -57 111q-35 9 -35 24q0 13 15 13l63 -7q61 -6 109 -6q44 0 108 6l62 7q15 0 14 -11q-1 -14 -35 -26q-50 -18 -59 -111q-9 -91 -9 -502q0 -483 15 -553q12 -60 53 -75q36 -12 35 -27
q-1 -10 -14 -10q-4 0 -68 6t-102 6q-42 0 -107 -6z" />
    <glyph glyph-name="J" unicode="J" horiz-adv-x="1073" 
d="M995 1305q15 0 15 -13t-37 -24q-54 -21 -70 -78q-12 -56 -12 -275v-469q0 -235 -116 -356t-318 -121q-164 0 -266.5 88.5t-102.5 243.5q0 69 30.5 110.5t80.5 41.5q35 0 57.5 -21.5t22.5 -54.5q0 -29 -39 -74t-39 -94q0 -79 67 -143q69 -66 185 -66q272 0 272 334v553
q0 234 -14 291q-15 63 -76 90q-31 16 -31 24q0 13 14 13q4 0 74 -9q70 -6 117 -6q45 0 115 6z" />
    <glyph glyph-name="K" unicode="K" horiz-adv-x="1339" 
d="M1245 45q11 -7 23 -13t19 -9t13 -6t8.5 -6t2.5 -7q0 -12 -17 -12q-1 0 -9.5 0.5t-27 1.5t-38.5 2q-90 4 -103 4q-31 0 -141 -4q-24 -1 -44.5 -2t-30.5 -2h-9q-14 0 -14 12q0 10 24 19q62 21 62 40q0 64 -340 588q-13 19 -23 19q-13 0 -27 -17l-8 -8l-6 -6l-164 -174
q3 -266 13 -352q12 -73 55 -88q35 -9 35 -25q0 -12 -15 -12q-1 0 -65 6t-105 6t-106 -6t-66 -6q-15 0 -14 11q1 14 37 26q48 17 57 110q8 84 8 518q0 421 -8 502q-9 94 -57 111q-39 13 -37 28q2 9 14 9l64 -7q61 -6 108 -6q45 0 109 6l61 7q15 0 15 -13q0 -15 -35 -24
q-51 -18 -60 -115q-8 -84 -8 -498v-149l449 477q145 154 145 215q0 44 -82 74q-18 6 -18 18q0 15 20 15q1 0 14.5 -1.5t35 -3.5t46.5 -3.5t52 -3t47 -1.5q25 0 62 3t64 7l27 3q17 0 17 -15q0 -9 -31 -18q-69 -17 -120.5 -52.5t-123.5 -113.5l-278 -295q247 -400 360 -571
q110 -157 164 -193z" />
    <glyph glyph-name="L" unicode="L" horiz-adv-x="1110" 
d="M473 1305q14 0 14 -13q0 -10 -26 -22q-1 0 -21 -8q-42 -20 -51 -117q-6 -91 -6 -529q0 -316 4 -430q3 -80 23 -110q30 -49 225 -49q182 0 264 73q83 76 123 291q1 13 8.5 18t14.5 0t6 -18l-19 -135q-14 -112 -14 -168q0 -22 8 -43t15.5 -33t7.5 -14q0 -12 -15 -12
q-2 0 -29 1t-71 3t-96.5 4t-115.5 3t-118 1q-43 0 -86.5 -0.5t-80 -1t-72 -1t-64.5 -1.5t-54.5 -2t-44.5 -1.5t-32.5 -1t-21.5 -1.5h-7q-14 0 -14 12q0 8 37 29q39 23 45 108q8 76 8 479q0 444 -6 533q-6 93 -45 113t-39 30q0 13 14 13l56 -7q94 -13 211 -2z" />
    <glyph glyph-name="M" unicode="M" horiz-adv-x="1722" 
d="M1364 1296q7 0 47.5 -3t58.5 -3q25 0 95 4l55 2q14 0 14 -10q0 -15 -51 -24q-32 -7 -45.5 -24.5t-21 -75t-7.5 -179.5v-559q0 -243 11 -322q12 -64 59 -79q55 -15 55 -25q0 -12 -12 -12h-15q-15 1 -38.5 1.5t-50.5 1t-56.5 1t-50.5 0.5q-28 0 -73 -1t-79 -2l-34 -1
q-15 0 -15 12q0 5 3 7.5t8.5 4t16.5 5.5t22 10q57 23 69 92q14 66 14 303v409q0 216 -2 279v104q0 7 -2 9t-4.5 0t-3.5 -7q-33 -65 -244 -573l-266 -635q-9 -18 -20 -18q-7 0 -17 16l-516 1116q-10 17 -12 17q-6 0 -6 -11q-2 -174 -2 -764q0 -149 10 -217q11 -55 35 -79
q25 -22 98 -37q46 -13 44 -31q-1 -10 -17 -10q-8 0 -84 6t-115 6q-31 0 -102 -6q-70 -6 -74 -6q-18 0 -18 14q0 13 38 21q77 20 102 40.5t36 83.5q14 60 14 218v753q0 75 -21.5 101t-93.5 38q-33 8 -33 24q1 13 19 13l49 -2q35 -2 84 -2q37 0 64 2l24 2t17.5 1.5t7.5 0.5
q37 0 51 -39l479 -1048l6 -8q3 0 6 6l429 1044q20 45 61 45z" />
    <glyph glyph-name="N" unicode="N" horiz-adv-x="1421" 
d="M1214 -37q-17 0 -36 25q-46 68 -359 448q-308 380 -532 649q-29 29 -35 29q-8 0 -8 -18v-817q0 -130 26 -181q26 -50 115 -75q33 -9 33 -23q0 -12 -21 -12q-3 0 -67 6t-101 6q-35 0 -94 -6q-58 -6 -67 -6q-19 0 -19 14q0 9 33 18q71 18 98 75t27 200v758q0 99 -13 135
t-57 53q-15 6 -32.5 12.5t-27 10.5l-19 8t-13.5 8.5t-4 9.5q0 13 14 13q1 0 6 -1t17 -2.5t24 -3.5q47 -6 64 -6q18 0 55.5 6.5t42.5 6.5q34 0 82 -54q157 -179 447 -528q327 -390 391 -473q18 -23 18 0v786q0 109 -27.5 160.5t-95.5 71.5q-41 9 -41 24q0 13 15 13
q1 0 8.5 -1t24.5 -2.5t36 -3.5q64 -6 97 -6t92 6q17 2 32 3.5t21.5 2.5t7.5 1q14 0 14 -13q0 -12 -32 -20q-64 -19 -90.5 -70.5t-26.5 -165.5v-1034q0 -37 -23 -37z" />
    <glyph glyph-name="O" unicode="O" horiz-adv-x="1484" 
d="M741 1329q283 0 465 -194q180 -192 180 -486q0 -293 -180 -485q-183 -195 -465 -195q-279 0 -462 195q-181 193 -181 485q0 293 181 486q182 194 462 194zM741 2q198 0 324 156q127 157 127 491q0 343 -125 492q-126 153 -326 153q-197 0 -323 -153q-127 -154 -127 -492
q0 -332 127 -489q131 -158 323 -158z" />
    <glyph glyph-name="P" unicode="P" horiz-adv-x="1251" 
d="M436 410q-10 0 -10 -11v-90q0 -151 20 -209t76 -75q53 -12 53 -29q0 -10 -14 -10q-149 14 -223 14q-20 0 -47 -1.5t-52.5 -3.5t-47.5 -4t-36 -3l-14 -2q-14 0 -14 12q0 9 27 18l20 7q44 14 59 61q23 77 23 512v63q0 467 -20 537q-12 52 -56 70q-4 0 -6 2q-34 18 -37 24
q0 13 13 13l71 -7q63 -8 117 -8q56 0 147 8q125 11 138 11q272 0 414.5 -117.5t142.5 -329.5q0 -211 -144 -346q-145 -133 -377 -133q-29 0 -62.5 3t-61 6.5t-50 7.5t-35.5 7zM451 1237q-17 -24 -23 -117q-6 -95 -6 -413q0 -211 24 -246q34 -37 172 -37q169 0 274 116.5
t105 319.5q0 420 -383 420q-129 0 -163 -43z" />
    <glyph glyph-name="Q" unicode="Q" horiz-adv-x="1503" 
d="M1470 -145q0 -28 -22.5 -76.5t-61.5 -100.5q-40 -58 -110.5 -95.5t-149.5 -37.5q-85 0 -173 40t-158 98q-168 142 -273 155q-54 -66 -77 -84q-32 -24 -66 -24q-55 0 -55 51q0 38 47 62t127 24h12q52 73 145 108q-248 30 -403 220q-154 189 -154 454q0 293 181 486
q182 194 462 194q283 0 465 -194q180 -192 180 -486q0 -282 -169 -475t-443 -205q-136 0 -229 -106q62 -9 172 -53q104 -42 217 -78q107 -37 201 -37q241 0 303 153q9 24 23 20q9 -2 9 -13zM291 649q0 -332 127 -489q131 -158 323 -158q198 0 324 156q127 157 127 491
q0 343 -125 492q-126 153 -326 153q-197 0 -323 -153q-127 -154 -127 -492z" />
    <glyph glyph-name="R" unicode="R" horiz-adv-x="1363" 
d="M1079 -39q-79 0 -174 53q-91 53 -168 121q-81 71 -162 119q-88 55 -157 55q-25 0 -25 -28q3 -148 10 -183q9 -43 33 -61q11 -7 27.5 -13.5t25.5 -11t9 -10.5q0 -12 -17 -12q-3 0 -67 6q-86 4 -107 4q-24 0 -63.5 -2.5t-69.5 -5.5l-29 -2q-16 0 -16 12q0 7 8.5 13.5
t30.5 17.5q5 3 8 4q30 15 39 125q8 96 8 536q0 369 -8 445q-9 86 -39 110q-7 5 -20 11.5t-21 11t-8 8.5q0 14 16 14l58 -4q78 -4 96 -4q25 0 149 13q106 14 177 14q260 0 415 -137q158 -137 158 -359q0 -233 -168 -370q-171 -136 -412 -136q-75 0 -122 7v-5q73 -16 170 -71
q110 -63 202 -105q103 -47 201 -47q91 0 144 51.5t59 143.5q0 10 8 10q10 0 18.5 -29.5t8.5 -66.5q0 -101 -68 -172q-64 -70 -158 -70zM561 340q195 0 320 119q129 120 129 362q0 233 -105 350t-284 117q-164 0 -203 -51q-22 -28 -25 -104q-5 -119 -2 -435v-303
q0 -38 27 -47q24 -8 143 -8z" />
    <glyph glyph-name="S" unicode="S" horiz-adv-x="1187" 
d="M160 -31q-17 0 -17 23q0 26 2 71q5 113 5 117q0 33 -2 74t-4 76t-4.5 64.5t-4.5 48.5t-2 20q0 16 17 16q11 0 20 -22q34 -94 68 -168q27 -57 86 -139q115 -148 327 -148q155 0 240.5 77.5t85.5 209.5q0 113 -71 181.5t-232 109.5l-170 45q-342 86 -342 348q0 162 119 256
q122 96 288 96q61 0 126 -17.5t108.5 -38t80 -38t46.5 -17.5q12 0 18 6t8 14t4 22.5t5 23.5q1 35 21 37q14 1 17 -14q1 -2 1 -5q0 -98 8 -186l12 -123q12 -99 12 -104q0 -9 -7 -12.5t-15.5 0.5t-12.5 16q-33 93 -64 153.5t-79 118.5q-103 131 -283 131q-134 0 -214 -68.5
t-80 -183.5q0 -102 68.5 -162t225.5 -102l170 -45q185 -45 270 -130t85 -230q0 -184 -127 -293t-326 -109q-86 0 -179 26t-156.5 51.5t-78.5 25.5q-24 0 -36 -17t-19 -63q-3 -23 -18 -23z" />
    <glyph glyph-name="T" unicode="T" horiz-adv-x="1304" 
d="M440 -12q-14 0 -14 14q0 12 27 21q87 15 106 51q21 38 21 172v332q0 352 -5 522q-3 99 -20 123q-26 39 -162 39q-78 0 -112.5 -9t-65.5 -43q-29 -33 -44.5 -90t-35.5 -190q-3 -33 -20 -33q-15 0 -15 21v21q1 21 2 54t2 70t1.5 76t0.5 65q0 14 -2.5 28.5t-5.5 25.5
t-6 19.5t-6 13.5l-2 5q0 15 14 15q1 0 17 -2t55.5 -5.5t89.5 -7.5q228 -6 402 -6q299 0 491 13q65 8 72 8q14 0 14 -15l-3 -5q-2 -5 -5 -13.5t-6 -19.5t-5.5 -25.5t-2.5 -28.5q0 -26 0.5 -65t1.5 -76t2 -70t1 -54l1 -21q0 -21 -13 -21t-22 33q-21 133 -36.5 190t-45.5 90
q-29 34 -63 43t-111 9q-138 0 -164 -39q-17 -24 -20 -115q-2 -55 -5 -530v-332q0 -132 19 -172q22 -36 108 -51q29 -10 29 -21q0 -14 -14 -14l-88 4q-89 6 -135 6q-18 0 -47.5 -1t-58.5 -2.5t-55.5 -3t-43.5 -2.5z" />
    <glyph glyph-name="U" unicode="U" horiz-adv-x="1331" 
d="M680 -31q-528 0 -528 613v487q0 98 -14.5 136.5t-61.5 58.5q-35 18 -35 26q0 13 14 13q1 0 8.5 -1t24.5 -2.5t37 -3.5q71 -6 115 -6t114 6q20 2 39.5 3.5t28 2.5t10.5 1q17 0 17 -13q0 -9 -46 -30q-50 -19 -65.5 -56t-15.5 -137l-3 -530q-1 -248 101.5 -377t294.5 -129
q187 0 295 134.5t108 403.5v457q0 121 -28 173.5t-97 70.5q-30 9 -30 20q0 13 14 13l27 -3q26 -4 62.5 -7t61.5 -3q46 0 101 6q16 2 30 3.5t20 2.5t7 1q14 0 14 -13q0 -11 -38 -22q-60 -19 -82.5 -65.5t-22.5 -151.5v-486q0 -301 -125 -448.5t-352 -147.5z" />
    <glyph glyph-name="V" unicode="V" horiz-adv-x="1353" 
d="M668 -55q-16 0 -19 12l-430 1112q-58 150 -162 188q-47 20 -45 38q3 9 19 10l92 -7q79 -8 141 -8q44 0 127 6q85 9 96 9q21 0 21 -15q0 -11 -55 -26q-44 -12 -63 -31t-19 -51q0 -47 69 -242q82 -232 172 -465l117 -301q7 -10 10 0q307 756 357 897q18 55 18 90
q0 80 -100 109q-31 9 -31 18q0 15 18 15q1 0 8.5 -1t25.5 -2.5t38 -3.5q71 -6 109 -6q23 0 57.5 3t58.5 7l25 3q20 0 21 -14q0 -14 -23 -20l-2 -1q-60 -12 -97 -51.5t-79 -135.5l-457 -1124q-6 -12 -18 -12z" />
    <glyph glyph-name="W" unicode="W" horiz-adv-x="2052" 
d="M2021 1303q12 0 16.5 -7t0 -15t-16.5 -11q-62 -13 -95 -51.5t-66 -133.5l-400 -1130q-6 -13 -18.5 -13.5t-18.5 11.5l-387 1059l-366 -1059q-6 -14 -17 -14q-15 0 -18 14l-434 1126q-31 80 -63.5 120t-86.5 63q-39 12 -39 28q0 13 19 13l88 -7q89 -6 137 -6q42 0 131 6
q26 2 48.5 3.5t32.5 2.5t11 1q21 0 21 -11q-1 -14 -43 -27q-1 -1 -2 -1q-86 -24 -86 -82q0 -82 340 -1002l2 -2q2 0 4 2l301 887l-6 14q-3 6 -7 18q-31 76 -49 99l-16 19q-20 26 -57 45q-31 22 -33 28q0 13 16 13q1 0 9.5 -1t27.5 -2.5t39 -3.5q70 -6 121 -6q48 0 95 3
t75 6.5t29 3.5q20 0 20 -13q0 -14 -45 -26q-74 -21 -74 -66q0 -63 342 -1005l4 -11l6 11q284 834 297 894q13 50 13 70q0 43 -28.5 68.5t-96.5 42.5q-25 6 -25 21q0 14 19 14l31 -3q31 -4 73 -7t70 -3q27 0 64.5 3t63.5 7z" />
    <glyph glyph-name="X" unicode="X" horiz-adv-x="1437" 
d="M1313 53q17 -9 46.5 -21t42.5 -19t13 -13q0 -14 -10 -14q-11 0 -82 8q-77 6 -127 6q-38 0 -97.5 -3.5t-100.5 -6.5l-40 -4q-16 0 -16 12q0 11 45 31q47 21 47 43q0 31 -67 135q-45 70 -289 407l-127 -161q-211 -266 -211 -349q0 -63 94 -90q23 -7 23 -16q0 -12 -15 -12
q-1 0 -15.5 1.5t-37 3.5t-48 4t-53.5 3.5t-48 1.5q-18 0 -46 -1.5t-55 -3.5t-51.5 -4t-40 -3.5t-14.5 -1.5q-15 0 -15 12q0 10 25 16q70 12 147 68q112 88 435 528l30 35q-253 348 -356 475q-83 105 -149 133q-16 6 -32.5 11t-25.5 7.5t-17 5.5t-11 6.5t-3 8.5q0 13 15 13
l13 -1q13 -2 33 -4t44 -4.5t50.5 -4t47.5 -1.5q62 0 154 6q95 9 96 9q14 0 14 -13q0 -6 -41 -24q-49 -18 -49 -41q0 -51 310 -469l106 129q178 236 178 311q0 36 -51 62q-55 27 -55 34q0 11 12 11q1 0 12.5 -1.5t30 -3.5t40 -4.5t47.5 -4t48 -1.5q56 0 133 6q77 9 80 9
q12 0 12 -11q0 -17 -41 -26q-90 -20 -163 -90q-73 -67 -228 -271l-139 -178l43 -57q373 -498 438 -566q41 -44 62 -53z" />
    <glyph glyph-name="Y" unicode="Y" horiz-adv-x="1255" 
d="M434 -14q-17 0 -17 9q1 14 46 32q46 15 61 53q20 45 23 123q6 82 6 299q0 47 -41 106l-283 453q-68 113 -108 156q-32 37 -80 53q-33 13 -31 25q2 8 17 8q1 0 8 -1t23.5 -2.5t35.5 -3.5q68 -6 115 -6q49 0 125 6q22 2 42 3.5t28.5 2.5t9.5 1q17 0 17 -9q-1 -12 -34 -25
q-1 -1 -2 -1q-47 -21 -47 -45q0 -40 68 -170q74 -137 276 -465l193 315q116 192 116 266q0 82 -110 103q-22 1 -23 16q3 13 19 15q1 0 9.5 -1t28 -2.5t40.5 -3.5q77 -6 118 -6q27 0 82 6q17 2 32.5 3.5t22 2.5t7.5 1q12 0 16.5 -6t0 -13.5t-16.5 -11.5q-55 -18 -90 -53
q-30 -30 -90 -127l-320 -510q-10 -17 -10 -29q0 -397 18 -459q12 -41 56 -59q2 -2 14 -6q46 -20 43 -35q-2 -8 -14 -8q-11 0 -82 8q-76 6 -113 6q-50 0 -123 -8z" />
    <glyph glyph-name="Z" unicode="Z" horiz-adv-x="1312" 
d="M84 -14q-14 0 -14 12q0 11 20 31q102 114 477 633q338 469 363 514q18 34 18 49q0 10 -11 16.5t-53.5 11t-121.5 4.5h-152q-225 0 -299 -47q-73 -46 -141 -241q-12 -27 -23 -27q-14 0 -14 16q0 -1 3 15.5t7.5 43t8.5 56.5t7 62t3 53t-2 39t-5 29.5t-6.5 19.5t-5.5 12
l-2 4q0 13 15 13l8 -1q9 0 25.5 -0.5t39 -1t56.5 -1t71 -1.5q133 -2 355 -2q79 0 193 2t196 4l82 1q14 0 14 -13q0 -5 -4.5 -8.5t-14 -10t-16.5 -16.5q-90 -118 -432 -604q-367 -503 -393 -549q-17 -34 -17 -43q0 -26 52 -26q238 0 299 2q149 5 231 23.5t141 66.5
q61 48 95 124t61 216q9 33 25 33q10 0 10 -17q0 2 -4.5 -23.5t-10.5 -68t-12.5 -92t-11 -103.5t-4.5 -94q0 -34 2 -61t2 -41q0 -12 -14 -12q-9 0 -65.5 0.5t-165.5 1.5t-208 2h-315q-129 0 -213 -2q-37 -1 -69 -2t-46 -2h-14z" />
    <glyph glyph-name="bracketleft" unicode="[" horiz-adv-x="712" 
d="M584 1503h-242v-1917h242v-53h-351v2023h351v-53z" />
    <glyph glyph-name="backslash" unicode="\" horiz-adv-x="860" 
d="M813 -182q-27 0 -33 20l-657 1446q-6 15 -6 23q0 12 18 12q21 0 31 -23l657 -1446q6 -12 6 -18q0 -14 -16 -14z" />
    <glyph glyph-name="bracketright" unicode="]" horiz-adv-x="712" 
d="M479 1556v-2023h-352v53h244v1917h-244v53h352z" />
    <glyph glyph-name="asciicircum" unicode="^" horiz-adv-x="1136" 
d="M250 1047l205 272q38 50 49 58q14 11 43 16q28 0 45 -14t51 -60q178 -234 279 -373q55 -76 55 -92q0 -14 -14 -14q-15 0 -72 57q-4 4 -342 358h-4q-338 -354 -342 -358q-57 -57 -72 -57q-14 0 -14 14q0 13 133 193z" />
    <glyph glyph-name="underscore" unicode="_" horiz-adv-x="1148" 
d="M125 -88h901q17 0 17 -24.5t-17 -24.5h-901q-17 0 -17 24.5t17 24.5z" />
    <glyph glyph-name="grave" unicode="`" horiz-adv-x="819" 
d="M610 924q-2 2 -4 2q-2 2 -6 2q-121 61 -344 213q-65 47 -59 86q12 60 69 51q28 -6 84 -59q46 -44 225 -232q6 -8 20.5 -21.5t20.5 -21.5q7 -10 5 -12q-3 -8 -11 -8z" />
    <glyph glyph-name="a" unicode="a" horiz-adv-x="999" 
d="M958 102q15 0 15 -16q0 -117 -135 -117q-85 0 -123.5 44.5t-38.5 144.5v28q-40 -102 -131.5 -159.5t-200.5 -57.5q-122 0 -190 51.5t-68 143.5q0 150 172 209q152 54 418 69v70q0 285 -242 285q-77 0 -125.5 -27t-48.5 -65q0 -11 18.5 -47.5t18.5 -55.5q5 -43 -44 -63
q-51 -20 -96 3q-47 24 -42 83q0 83 90.5 142.5t247.5 59.5q385 0 385 -372v-338q0 -90 49 -90q50 0 53 57q3 18 18 18zM395 16q113 0 197 90q84 93 84 252v58q-296 -18 -379 -86q-61 -49 -61 -146q0 -168 159 -168z" />
    <glyph glyph-name="b" unicode="b" horiz-adv-x="1032" 
d="M150 -31q-19 0 -19 23v6v15.5t0.5 25.5t0.5 35.5v43t0.5 50.5t0.5 56.5v61.5v66v692q0 91 -13 123.5t-52 46.5q-35 15 -35 27q0 14 20 14q54 4 105 22.5t79.5 35t30.5 16.5q17 0 17 -16l-2 -10q0 -4 -3.5 -55.5t-3.5 -90.5v-547h7q70 217 295 217q160 0 266 -118
q110 -119 110 -308q0 -197 -112 -315q-114 -117 -289 -117q-129 0 -236 113q-21 23 -40 45t-26 30.5t-9 8.5q-12 0 -21 -21l-41 -147q-10 -29 -30 -29zM537 2q249 0 249 399q0 390 -243 390q-109 0 -189 -103q-78 -104 -78 -282v-33q1 -172 76 -271.5t185 -99.5z" />
    <glyph glyph-name="c" unicode="c" horiz-adv-x="925" 
d="M858 260q12 0 12 -12v-4q-25 -125 -117 -200t-257 -75q-183 0 -299 119q-117 120 -117 305q0 200 125 316q124 118 307 118q96 0 170 -26l80 -25q27 0 39 39q6 16 18 16q15 0 15 -18q0 -45 2.5 -92.5t6 -83t7 -64t6 -43.5t2.5 -14q0 -16 -16 -16q-13 0 -19 20
q-38 150 -106 213.5t-187 63.5q-110 0 -200 -90q-88 -88 -88 -293q0 -180 84 -283.5t217 -103.5q232 0 299 217q6 16 16 16z" />
    <glyph glyph-name="d" unicode="d" horiz-adv-x="1064" 
d="M1001 51q31 -9 31 -16q0 -14 -24 -17q-50 -4 -106.5 -13.5t-92 -17t-37.5 -7.5q-12 0 -12 14l2 28q3 29 5.5 72t2.5 78h-2q-83 -203 -295 -203q-161 0 -278 117q-115 121 -115 301q0 197 115 318q113 122 278 122q200 0 279 -149h2v246q-2 130 -7.5 182t-16.5 70t-42 34
q-55 18 -55 31q0 14 20 14q41 2 80.5 10.5t67.5 18.5t50.5 20t35 16.5t14.5 6.5q12 0 12 -12l-10 -112q-6 -105 -6 -234v-754q0 -82 23 -116t81 -48zM492 10q123 0 197 99.5t75 277.5q6 406 -270 406q-116 0 -185 -100.5t-69 -305.5q0 -184 70.5 -280.5t181.5 -96.5z" />
    <glyph glyph-name="e" unicode="e" horiz-adv-x="950" 
d="M870 242q11 0 11 -11q0 -1 -0.5 -3.5l-1.5 -7.5t-2 -9q-33 -106 -132 -174t-237 -68q-197 0 -313 125q-115 127 -115 305q0 184 119 306t309 122q161 0 262 -88q102 -88 102 -219q0 -36 -11.5 -49.5t-43.5 -13.5l-577 2q-2 -10 -2 -49q0 -182 79.5 -284.5t225.5 -102.5
q113 0 199 60t114 144q3 15 14 15zM506 799q-111 0 -179 -79.5t-85 -223.5l471 4q13 0 16.5 6.5t3.5 32.5q0 115 -60.5 187.5t-166.5 72.5z" />
    <glyph glyph-name="f" unicode="f" horiz-adv-x="643" 
d="M471 1329q81 0 139 -32.5t60 -75.5q0 -68 -64 -68q-25 0 -39 15t-39 61q-34 57 -102 57q-55 0 -87 -34t-32 -99q0 -19 21 -90q20 -67 20 -125v-145q33 0 80.5 2t83 4t37.5 2q33 0 33 -29t-33 -29l-201 7v-537q0 -101 24.5 -139t102.5 -51q31 -6 31 -19q0 -14 -14 -14
q-9 0 -91 6q-110 4 -122 4q-18 0 -45 -1t-52 -2.5t-47 -3t-37 -2.5l-14 -1q-14 0 -14 10q-1 15 28 25q74 16 88 51q19 40 19 157v517l-127 -5q-17 0 -23.5 13.5t0 27t23.5 13.5l127 -4v188q0 172 71.5 259t194.5 87z" />
    <glyph glyph-name="g" unicode="g" horiz-adv-x="915" 
d="M557 35q328 0 328 -207q0 -125 -115 -195.5t-305 -70.5q-195 0 -301.5 53.5t-106.5 153.5q0 128 158 165q-121 35 -121 144q0 153 234 180q-111 30 -176.5 104t-65.5 175q0 132 104 211t261 79q73 0 135 -18q17 96 68.5 148.5t121.5 52.5q51 0 79 -24.5t28 -67.5
q0 -35 -22.5 -57.5t-55.5 -22.5q-54 0 -74 51q-18 35 -39 35q-56 0 -74 -125q92 -33 145.5 -102t53.5 -160q0 -132 -106 -213q-106 -80 -260 -80h-5q-245 0 -245 -119q0 -48 31.5 -69t105.5 -21h219zM670 537q-1 128 -59.5 194t-159.5 66t-159.5 -66.5t-58.5 -193.5
q0 -128 58.5 -196.5t159.5 -68.5q100 0 159 68.5t60 196.5zM469 -410q315 0 315 193q0 141 -194 141h-266q-154 -15 -154 -149q0 -185 299 -185z" />
    <glyph glyph-name="h" unicode="h" horiz-adv-x="1107" 
d="M1001 27q27 -15 27 -25q0 -12 -14 -12q-6 0 -62 6q-74 4 -88 4t-84 -4q-52 -6 -57 -6q-14 0 -14 12q0 11 26 23q36 16 47 47q13 37 13 135v330q0 239 -183 239q-115 0 -196 -106q-80 -109 -80 -291v-137q0 -147 10 -174q12 -28 60 -43q3 -2 8 -3.5t7 -2.5t4.5 -2.5
t3.5 -3t2 -4.5t1 -7q0 -12 -16 -12q-6 0 -64 6q-78 4 -90 4q-16 0 -90 -4l-53 -6q-15 0 -14 12q1 13 26 23q40 15 49 61q13 50 13 197v733q0 108 -13 145q-9 35 -55 56q-38 20 -41 28q0 12 22 15q57 4 114.5 21t86.5 33l29 15q16 0 16 -14l-2 -10q-14 -63 -14 -197v-537
q35 122 115.5 189t189.5 67q154 0 226.5 -80.5t72.5 -252.5v-287q0 -105 10 -135t51 -45z" />
    <glyph glyph-name="i" unicode="i" horiz-adv-x="542" 
d="M248 1077q-50 0 -82.5 31.5t-32.5 81.5q0 49 32.5 81t82.5 32q54 0 85.5 -31t31.5 -82t-31.5 -82t-85.5 -31zM98 -10q-13 0 -14 11q0 14 27 22q62 14 77 49t15 147v336q0 97 -19 129q-14 31 -84 53q-22 9 -22 19q0 12 18 12q50 3 94 10.5t71.5 16t47.5 16.5t31 13t12 5
q13 0 13 -14q0 -1 -1.5 -6.5t-4 -18.5t-5.5 -28q-8 -44 -8 -199v-338q0 -118 14 -153q16 -37 84 -52q23 -6 23 -19q0 -11 -14 -11q-5 0 -76 6q-90 4 -107 4q-14 0 -100 -4q-64 -6 -72 -6z" />
    <glyph glyph-name="j" unicode="j" horiz-adv-x="518" 
d="M264 1079q-51 0 -84 31t-33 82t33 82t84 31q54 0 85.5 -31t31.5 -82t-31.5 -82t-85.5 -31zM117 -440q-67 0 -118.5 39t-51.5 90q0 35 18 55t49 20q55 0 76 -75q21 -82 86 -82q86 0 86 117q0 18 -24 92q-23 77 -23 125v604q0 88 -21 121.5t-88 52.5q-33 14 -36 24
q0 12 22 15q37 2 72 6t61 9.5t49 12t38.5 12t26.5 10.5t17 8l6 3q17 0 17 -14q0 -3 -1 -9.5t-3 -20t-4 -23.5q-11 -75 -11 -199v-662q0 -166 -65 -248.5t-178 -82.5z" />
    <glyph glyph-name="k" unicode="k" horiz-adv-x="1026" 
d="M911 53q16 -14 38.5 -24t35 -15.5t12.5 -13.5q0 -10 -16 -10l-55 6q-74 4 -92 4q-13 0 -99 -4q-62 -6 -67 -6q-15 0 -15 12q0 1 23.5 17t23.5 30q4 7 -27.5 63t-66.5 105l-61 90q-16 25 -35.5 54t-22.5 34q-26 39 -38 39q-1 0 -5 -1q-1 -1 -2.5 -1.5t-3.5 -1.5l-96 -84
v-104v-45v-38.5v-30t1.5 -26t3.5 -20t5.5 -17t8.5 -12t12 -11.5t16 -8.5t21 -8.5q3 -2 8 -3.5t7 -2.5t4.5 -2.5t3.5 -3t2 -4.5t1 -7q0 -12 -16 -12q-6 0 -64 6q-78 4 -90 4q-16 0 -90 -4l-53 -6q-15 0 -14 12q1 13 26 23q40 15 49 61q13 50 13 197v733q0 108 -13 145
q-9 35 -55 56q-36 20 -39 28q0 12 21 15q118 7 221 63l10 6q14 0 14 -14v-10q-14 -63 -14 -197v-725q209 180 289 256q65 62 65 88q0 38 -45 53q-26 9 -26 23q0 10 14 10q8 0 55 -8q56 -6 86 -6q28 0 86 6t66 6q16 0 16 -14q0 -16 -43 -25q-62 -9 -114 -43
q-51 -34 -150 -119l-80 -71l57 -88l54 -78l45 -66q50 -70 76 -110q54 -72 63 -82q40 -47 55 -62z" />
    <glyph glyph-name="l" unicode="l" horiz-adv-x="512" 
d="M100 -10q-14 0 -14 11q0 14 29 26q53 18 65 59q13 47 13 195v673q0 140 -15 189t-65 69q-50 21 -50 31q0 14 23 14q68 4 131.5 22t92.5 34l30 16q12 0 12 -12q-16 -107 -16 -297v-756q0 -131 14 -174t68 -65q24 -12 24 -21q0 -14 -16 -14q-6 0 -64 6q-78 4 -94 4
q-18 0 -104 -4z" />
    <glyph glyph-name="m" unicode="m" horiz-adv-x="1601" 
d="M1495 27q29 -16 29 -25q0 -12 -17 -12q-9 0 -61 6q-70 4 -86 4q-20 0 -53.5 -2.5t-59 -5t-26.5 -2.5q-15 0 -15 12q0 9 25 25q33 12 45 46t12 128v356q0 209 -155 209q-89 0 -160 -80q-76 -88 -88 -248v-237q0 -99 10 -129q10 -31 49 -45q29 -16 29 -25q0 -12 -15 -12
q-6 0 -61 6q-74 4 -88 4q-13 0 -31.5 -1t-36 -2.5t-33 -3t-26.5 -2.5l-10 -1q-15 0 -15 12q0 9 25 25q33 12 44 45t11 129v356q0 209 -153 209q-92 0 -160 -80q-92 -109 -92 -303v-178q0 -107 12 -137t59 -45q25 -8 25 -22q-1 -11 -14 -11q-4 0 -60 6q-74 4 -90 4
q-14 0 -92 -4l-57 -6q-13 0 -14 11q-1 14 26 22q41 14 51 47t10 139v350q0 89 -16.5 124.5t-60.5 47.5q-33 8 -32 22q1 12 23 13q46 4 100.5 19t89.5 29l34 13q12 0 12 -14v-3q-1 -4 -2.5 -11t-2.5 -18t-3 -25t-3 -32t-2.5 -38.5t-2 -45t-1 -51.5t0.5 -57q29 139 110 217
t197 78q233 0 254 -245h2q35 117 112.5 181t182.5 64q254 0 254 -295v-331q0 -99 10 -129q14 -31 51 -45z" />
    <glyph glyph-name="n" unicode="n" horiz-adv-x="1103" 
d="M997 27q27 -15 27 -25q0 -12 -14 -12q-6 0 -62 6q-74 4 -88 4t-84 -4q-52 -6 -57 -6q-14 0 -14 12q0 11 24 23q38 15 49 47q13 37 13 135v330q0 239 -183 239q-115 0 -196 -106q-80 -109 -80 -291v-174q0 -107 12 -137t59 -45q25 -8 25 -22q-1 -11 -14 -11q-4 0 -60 6
q-74 4 -90 4q-14 0 -92 -4l-57 -6q-13 0 -14 11q-1 14 26 22q41 14 51 47t10 139v350q0 89 -16.5 124.5t-60.5 47.5q-33 8 -32 22q1 12 23 13q46 4 100.5 19t89.5 29l34 13q12 0 12 -14v-3q-1 -4 -2.5 -11t-2.5 -18t-3 -25t-3 -32t-2.5 -38.5t-2 -45t-1 -51.5t0.5 -57
q29 139 113 217t202 78q154 0 226.5 -80.5t72.5 -252.5v-287q0 -105 10 -135t51 -45z" />
    <glyph glyph-name="o" unicode="o" horiz-adv-x="1007" 
d="M930 397q0 -187 -117 -307q-118 -121 -309 -121t-309 121q-115 121 -115 307q0 189 115 310q117 120 309 120t309 -120t117 -310zM504 -2q266 3 266 399q0 402 -266 402q-264 0 -264 -402q0 -396 264 -399z" />
    <glyph glyph-name="p" unicode="p" horiz-adv-x="1062" 
d="M618 827q154 0 259 -114q106 -112 106 -303q0 -194 -109 -318q-108 -123 -266 -123q-214 0 -293 174v-364q0 -77 22 -111.5t75 -52.5q43 -14 41 -30q-2 -9 -15 -9t-78 8q-73 6 -116 6q-44 0 -109 -6q-57 -8 -67 -8q-15 0 -14 10q1 14 36 31q51 20 66 61q16 40 16 138v606
q0 172 -14 213q-11 41 -74 76q-6 3 -13.5 6.5t-11.5 5.5t-8 4.5t-6.5 4t-4.5 3t-2.5 3.5t-0.5 5q0 15 18 15q61 0 121 15t95.5 30.5t37.5 15.5q15 0 15 -12l-3 -13q-3 -13 -7 -35t-8.5 -49t-7.5 -63.5t-3 -71.5q77 252 323 252zM582 8q239 0 239 402q0 193 -63.5 285.5
t-173.5 92.5q-127 0 -198.5 -101.5t-76.5 -285.5q-1 -194 73 -293.5t200 -99.5z" />
    <glyph glyph-name="q" unicode="q" horiz-adv-x="1044" 
d="M899 -236q0 -111 66 -149q28 -16 28 -27q0 -12 -14 -12q-9 0 -61 8q-56 6 -89 6q-17 0 -75 -4q-92 -10 -105 -10q-14 0 -14 12q0 10 37 31q46 24 64 65t18 117l-2 367h-7q-24 -94 -96.5 -146.5t-187.5 -52.5q-153 0 -266 119q-115 121 -115 305q0 193 115 314
q117 120 290 120q84 0 142 -24.5t123 -83.5q27 -27 36 -27q17 0 37 51l41 68q10 16 25 16q16 0 16 -18q0 -1 -0.5 -14.5t-1.5 -38.5t-2 -59t-1.5 -84.5t-0.5 -106.5v-742zM502 795q-260 0 -260 -402q0 -193 67 -290t189 -97q121 0 188.5 97.5t67.5 291.5v41q-3 359 -252 359
z" />
    <glyph glyph-name="r" unicode="r" horiz-adv-x="778" 
d="M606 825q67 0 104.5 -30t37.5 -82q0 -43 -21 -69t-57 -26q-34 0 -54.5 20.5t-27.5 44.5t-23.5 44.5t-42.5 20.5q-57 0 -110 -95t-56 -227v-260q0 -69 24.5 -96t106.5 -50q20 -4 21 -18q-3 -12 -16 -14q-6 0 -82 6q-102 4 -121 4t-113 -4q-70 -6 -72 -6q-14 0 -14 14
q0 12 27 21q64 18 80 44.5t16 106.5v416q0 62 -20.5 91t-75.5 42q-37 9 -37 20q0 15 22 15q39 2 78 9t67 16t50 17t35 13.5t14 5.5q12 0 12 -14q-2 -15 -5.5 -40t-8 -93.5t-2.5 -124.5q25 128 97 203t167 75z" />
    <glyph glyph-name="s" unicode="s" horiz-adv-x="876" 
d="M461 -31q-82 0 -172 33l-96 35q-17 0 -24 -8t-13 -33q-6 -19 -17 -19q-14 0 -14 19q0 2 1 34.5t1 59.5q0 52 -12 125q-3 21 -5.5 40.5t-4 28t-1.5 9.5q0 14 12 14q14 -2 21 -20q89 -287 332 -287q92 0 147.5 45.5t55.5 126.5q0 67 -38.5 106.5t-127.5 59.5l-146 35
q-127 32 -184 82t-57 141q0 100 85.5 165.5t215.5 65.5q91 0 172 -34q84 -35 88 -35q19 0 25 47q1 19 15.5 18.5t14.5 -20.5q0 -59 6.5 -119.5t12.5 -91.5l6 -31q0 -13 -12 -12q-14 0 -21 18q-49 121 -122.5 176.5t-184.5 55.5q-84 0 -134 -41.5t-50 -104.5q0 -114 186 -157
l147 -33q228 -52 228 -238q0 -116 -101 -186q-98 -70 -235 -70z" />
    <glyph glyph-name="t" unicode="t" horiz-adv-x="675" 
d="M406 -31q-211 0 -211 232v485q0 41 -10.5 54t-47.5 14l-69 4q-25 0 -25 22q0 19 25 19q37 3 56.5 5t43.5 9.5t34 13t24.5 24.5t20.5 35.5t16.5 53t16.5 70t17 94.5q4 19 15.5 26t21.5 0t10 -26l-2 -291q0 -14 12 -14l215 2q31 0 31 -29t-27 -29q-4 0 -40 1.5t-87 2.5
t-92 1q-14 0 -14 -15l-2 -565q0 -135 113 -135q119 0 122 135q0 13 8.5 18.5t16.5 0t8 -20.5q0 -88 -52.5 -142.5t-147.5 -54.5z" />
    <glyph glyph-name="u" unicode="u" horiz-adv-x="1050" 
d="M979 49q19 -7 25.5 -14t1.5 -12.5t-21 -8.5q-51 -2 -96.5 -11t-70.5 -17.5t-27 -8.5q-16 0 -19 17q-12 128 -14 231q-59 -256 -316 -256q-142 0 -213 78.5t-71 247.5v278q0 90 -11.5 121.5t-50.5 50.5q-24 8 -31.5 13t-7.5 14q0 12 21 12q42 0 94.5 8.5t88.5 17.5l36 9
q18 0 18 -20q-12 -58 -12 -228v-284q0 -260 191 -260q109 0 178.5 90t75.5 239q0 138 -3 203q-4 78 -10 109q-7 42 -17.5 54.5t-37.5 20.5q-4 2 -11 4t-10 3t-7 3l-6 3t-4 3t-2.5 5t-0.5 6q0 14 20 14q25 0 51 2t48 5t43 7t37.5 7.5t28.5 6.5t19 5l7 2q14 0 14 -12
q0 -1 -1.5 -8.5t-4 -21.5t-5 -32t-4 -43.5t-1.5 -52.5v-434q0 -86 18.5 -119t69.5 -47z" />
    <glyph glyph-name="v" unicode="v" horiz-adv-x="968" 
d="M496 -27q-9 0 -25 29l-309 664q-25 47 -46.5 67.5t-58.5 32.5q-32 14 -32 27q0 14 20 14l27 -2q26 -2 64 -4t65 -2q53 0 96 2q19 1 37 2l27 1.5t10 0.5q20 0 20 -14q0 -10 -26 -19q-52 -18 -52 -57q0 -32 27 -99q38 -96 131 -305q46 -105 47 -106q28 -60 31 -60q1 0 5 9
t14.5 33.5t21.5 48.5q166 392 166 460q0 55 -68 76q-31 8 -31 24q0 13 17 13l53 -6q70 -4 82 -4q14 0 76 4q49 6 51 6q20 0 20 -14q0 -13 -45 -27q-43 -12 -68 -40t-55 -97l-268 -627q-12 -31 -24 -31z" />
    <glyph glyph-name="w" unicode="w" horiz-adv-x="1392" 
d="M418 -16l-262 665q-26 61 -43.5 84.5t-44.5 34.5q-43 13 -43 29q0 14 16 14l27 -3q28 -3 67 -6t66 -3q8 0 90 4q61 6 67 6q15 0 15 -14q0 -9 -23 -19q-59 -18 -59 -65q0 -67 174 -506q5 -25 14 -37l2 -4l15 35l141 430q25 67 25 92q0 31 -44 55q-24 12 -24 21q0 14 14 14
q2 0 49 -6q49 -6 80 -6q20 0 53 2.5t58 5t26 2.5q15 0 15 -12q0 -9 -27 -21q-33 -14 -33 -47q0 -38 97 -291l88 -229q11 -33 14 -33l16 37l119 330q33 90 33 145q0 65 -57 88q-27 9 -27 21t12 12q6 0 52 -6q62 -4 71 -4q35 0 51 2q15 1 30 3t24 4l8 1q18 0 18 -12
q0 -15 -20 -21q-62 -18 -84 -43q-20 -20 -45 -94l-236 -649q-13 -29 -18 -29q-9 0 -19 29l-260 655q-6 21 -10 21q-6 0 -12 -21l-228 -661q-5 -16 -9.5 -21t-9 0t-9.5 21z" />
    <glyph glyph-name="x" unicode="x" horiz-adv-x="1011" 
d="M938 31q13 -3 29 -13q26 -9 26 -18q0 -14 -14 -14l-80 6q-71 8 -127 8q-19 0 -45 -1.5t-49.5 -3.5t-44.5 -4t-34.5 -3.5t-14.5 -1.5q-15 0 -15 12q0 15 39 27q68 21 68 51q0 19 -25 55l-127 166l-63 82l-154 -201q-55 -76 -55 -102q0 -41 82 -56q33 -5 32 -20
q0 -12 -20 -12q-4 0 -63 6t-90 6q-41 0 -99 -6l-59 -6q-23 0 -23 14t19 18q99 21 170 86q69 63 243 293l-4 4q-167 218 -233 287q-64 67 -125 84q-32 8 -31 24q1 13 19 13q2 0 67 -6q64 -6 115 -6q29 0 69.5 3t66.5 6l26 3q18 0 17 -11q-2 -14 -38 -33q-1 0 -2 -1
q-35 -15 -35 -37q3 -37 170 -242l23 -26l121 162q47 65 47 92q0 40 -70 61q-30 11 -29 25q2 9 17 10q3 0 61 -6t95 -6q24 0 58.5 3t59 6t25.5 3q16 0 16 -12q0 -16 -22 -19q-79 -19 -140 -75q-65 -59 -223 -263l10 -12q176 -221 254 -307q58 -64 109 -92z" />
    <glyph glyph-name="y" unicode="y" horiz-adv-x="966" 
d="M143 -244q27 0 70 -37q44 -38 74 -38q38 0 98 106q64 107 64 162q0 61 -109 309q-108 249 -184 401q-24 53 -45 75t-58 36q-45 14 -45 31q0 12 19 12q10 0 65 -8q64 -6 101 -6q33 0 94 6t69 6q16 0 17 -12q2 -16 -31 -24q-2 -1 -4 -1q-37 -12 -37 -55q0 -35 96 -273
q82 -202 138 -317q3 -6 6 -6t6 8l67 160q54 121 107 258q47 121 47 164q0 27 -18 41t-68 24q-25 4 -25 19q0 14 19 14l49 -6q49 -6 82 -6q35 0 84 6t51 6q16 0 16 -14q0 -16 -20 -19q-55 -10 -85 -40.5t-62 -108.5l-308 -717q-71 -172 -140.5 -257t-158.5 -85
q-56 0 -89.5 25.5t-33.5 72.5q0 40 24 64t58 24z" />
    <glyph glyph-name="z" unicode="z" horiz-adv-x="923" 
d="M94 -6q-16 0 -16 12q0 8 43 66l287 377q218 276 229 294q4 12 4 15q0 16 -131 16q-223 0 -268 -45q-44 -41 -99 -213q-6 -22 -20 -22q-17 0 -17 16q29 127 29 186q0 28 -3 52.5t-6 38t-3 14.5q0 12 16 12q6 0 35 -0.5t88 -1.5t121 -2q147 -2 328 -2q30 0 66 2t38 2l12 2
q17 0 17 -12q0 -5 -56 -76l-243 -309q-211 -270 -226 -291q-47 -65 -47 -80q0 -18 115 -18q260 0 330 61q56 47 94 207q3 20 20 20q15 0 15 -12l-3 -16q-3 -16 -7 -42t-8.5 -55.5t-7.5 -63t-3 -58.5q0 -7 0.5 -21.5t0.5 -26.5l1 -12q0 -12 -16 -12h-492h-141z" />
    <glyph glyph-name="braceleft" unicode="{" horiz-adv-x="794" 
d="M645 -383q23 0 23 -18q0 -21 -47 -21q-133 0 -217.5 94.5t-84.5 255.5v490q0 131 -163 131q-15 0 -21 9.5t0 18.5t21 9q163 0 163 131v489q0 161 84.5 255.5t217.5 94.5q47 0 47 -20q0 -18 -23 -18q-97 0 -159 -72t-62 -207v-416q0 -111 -39 -181t-119 -71v-8
q80 -1 119 -71t39 -181v-415q0 -135 62 -207t159 -72z" />
    <glyph glyph-name="bar" unicode="|" horiz-adv-x="559" 
d="M254 -264v1710q0 17 24.5 17t24.5 -17v-1710q0 -17 -24.5 -17t-24.5 17z" />
    <glyph glyph-name="braceright" unicode="}" horiz-adv-x="794" 
d="M639 586q15 0 21 -9t0 -18.5t-21 -9.5q-164 0 -164 -131v-490q0 -161 -84 -255.5t-217 -94.5q-47 0 -47 21q0 18 23 18q97 0 159 72t62 207v415q0 111 38.5 181t118.5 71v8q-80 1 -118.5 71t-38.5 181v416q0 135 -62 207t-159 72q-23 0 -23 18q0 20 47 20
q133 0 217 -94.5t84 -255.5v-489q0 -131 164 -131z" />
    <glyph glyph-name="asciitilde" unicode="~" horiz-adv-x="1146" 
d="M186 270q-16 0 -16 21q6 135 54.5 216t137.5 81q71 0 234 -88q164 -86 207 -86q60 0 95 42.5t40 110.5q0 13 9 18.5t18.5 1t9.5 -15.5q0 -130 -47.5 -208t-141.5 -78q-69 0 -223 86t-215 86q-117 0 -141 -166q-3 -21 -21 -21z" />
    <glyph glyph-name="exclamdown" unicode="&#xa1;" horiz-adv-x="448" 
d="M236 997q-48 0 -79.5 32t-31.5 81q0 50 30.5 80.5t80.5 30.5q51 0 82.5 -30.5t31.5 -80.5q0 -51 -31.5 -82t-82.5 -31zM213 883h39q6 -224 27 -430q23 -228 38 -326q19 -127 19 -147q8 -59 -47 -83.5t-110.5 0t-47.5 83.5q0 16 7.5 73.5t22 171t25.5 228.5q21 206 27 430
z" />
    <glyph glyph-name="cent" unicode="&#xa2;" horiz-adv-x="925" 
d="M870 248v-4q-22 -113 -101 -187.5t-218 -85.5v-247q0 -17 -24.5 -17t-24.5 17v245h-6q-183 0 -299 119q-117 120 -117 305q0 200 125 316q124 118 307 118v238q0 17 24.5 17t24.5 -17v-240q63 -3 131 -26q67 -23 70 -23q27 0 39 39q6 16 18 16q15 0 15 -18
q0 -45 2.5 -92.5t6 -83t7 -64t6 -43.5t2.5 -14q0 -16 -16 -16q-13 0 -19 20q-38 150 -106 213.5t-187 63.5q-110 0 -200 -90q-88 -88 -88 -293q0 -180 84 -283.5t217 -103.5q232 0 299 217q6 16 16 16q12 0 12 -12z" />
    <glyph glyph-name="sterling" unicode="&#xa3;" horiz-adv-x="1169" 
d="M1047 256q0 -156 -46.5 -221.5t-152.5 -65.5q-71 0 -215 39q-152 41 -211 41q-79 0 -164 -39q-87 -37 -92 -37q-27 0 -27 29q0 9 22.5 36t49.5 60.5t50 95t24 130.5q3 71 -37 233h-135q-17 0 -17 24.5t17 24.5h125q-17 87 -17 168q0 182 121 291q121 106 307 106
q149 0 244 -71q98 -70 98 -164q0 -59 -31.5 -92t-82.5 -33q-42 0 -68.5 23.5t-26.5 64.5q0 31 35 66q37 34 37 65q0 47 -57.5 78t-143.5 31q-132 0 -210 -73.5t-78 -205.5q0 -107 24 -254h381q17 0 17 -24.5t-17 -24.5h-371q13 -102 13 -137q0 -211 -242 -416l4 -4
q12 6 66 49q60 48 133 82q73 37 145 37q55 0 195 -35q135 -33 176 -33q58 0 89 35t38 115q1 20 17 20q13 -2 14 -14z" />
    <glyph glyph-name="currency" unicode="&#xa4;" horiz-adv-x="1062" 
d="M768 281l139 -142q14 -5 0 -23q-10 -13 -22 -16q-7 0 -11 4l-143 144q-79 -64 -203 -64q-117 0 -196 64l-146 -142q-5 -14 -23 0q-13 10 -16 23q0 5 5 10l143 144q-72 78 -72 196q0 120 74 203l-145 145q-5 5 -5 11q0 8 9.5 18t19.5 10q6 0 10 -4l148 -145q79 61 194 61
q121 0 203 -61l143 145q4 4 11 4q8 0 18 -9t10 -19q0 -7 -4 -11l-143 -143q72 -78 72 -205q0 -119 -70 -198zM528 229q113 0 180.5 67.5t67.5 182.5q0 119 -65.5 186.5t-182.5 67.5q-110 0 -176.5 -69.5t-66.5 -184.5q0 -113 66.5 -181.5t176.5 -68.5z" />
    <glyph glyph-name="yen" unicode="&#xa5;" horiz-adv-x="1224" 
d="M1176 1153q18 0 18 -10q0 -12 -25 -21q-79 -21 -118 -47q-37 -27 -86 -108l-267 -441h279q17 0 17 -24.5t-17 -24.5h-291q0 -82 2 -100h289q17 0 17 -24.5t-17 -24.5h-289q0 -7 1 -19q7 -190 16 -225q9 -30 37 -46q6 -3 21 -10q3 -2 5 -3q39 -18 37 -30q-2 -7 -14 -7
l-74 6q-77 6 -111 6q-38 0 -114 -6l-78 -6q-15 0 -15 8q1 12 41 29q52 15 64 67q13 45 16 236h-303q-17 0 -17 24.5t17 24.5h303v61q0 24 -6 39h-297q-17 0 -17 24.5t17 24.5h277l-191 312q-106 171 -151 219q-45 51 -103 63q-29 13 -29 23q0 12 19 12q3 0 74 -6t118 -6
q43 0 117 6q73 6 76 6q15 0 14 -10q-1 -12 -30 -23q-43 -15 -43 -43q0 -70 297 -551l159 273q103 171 103 237q0 38 -22.5 57.5t-78.5 30.5q-20 3 -20 17q0 10 18 10q1 0 72 -6q94 -4 108 -4q11 0 105 4z" />
    <glyph glyph-name="brokenbar" unicode="&#xa6;" horiz-adv-x="559" 
d="M254 750v696q0 17 24.5 17t24.5 -17v-696q0 -17 -24.5 -17t-24.5 17zM254 -264v696q0 17 24.5 17t24.5 -17v-696q0 -17 -24.5 -17t-24.5 17z" />
    <glyph glyph-name="section" unicode="&#xa7;" horiz-adv-x="968" 
d="M659 367q117 -39 167.5 -92t50.5 -144q0 -138 -117 -215q-119 -78 -277 -78q-159 0 -253.5 69t-94.5 171q0 52 25.5 79t68.5 27q35 0 57.5 -19.5t22.5 -49.5q0 -15 -26.5 -57t-26.5 -62q0 -54 64.5 -91.5t162.5 -37.5q125 0 207 57.5t82 149.5q0 71 -52.5 113.5
t-178.5 80.5l-129 41q-131 38 -191.5 94t-60.5 146t62.5 149t168.5 78q-207 77 -207 260q0 128 101 201q103 74 247 74q138 0 228 -59.5t90 -141.5q0 -46 -25.5 -74t-64.5 -28q-33 0 -55.5 19t-22.5 48q0 23 27 58q26 33 26 55q0 40 -60.5 67t-144.5 27q-110 0 -177.5 -55
t-67.5 -146q0 -77 47 -121.5t151 -78.5l135 -43q136 -40 197.5 -93.5t61.5 -144.5q0 -90 -59 -151t-159 -82zM461 426l127 -39q90 7 139 49t49 109t-48.5 104t-170.5 74l-88 29q-102 -1 -157.5 -43t-55.5 -111q0 -64 48 -101.5t157 -70.5z" />
    <glyph glyph-name="dieresis" unicode="&#xa8;" horiz-adv-x="819" 
d="M356 1161q6 -58 -45 -82t-102 0t-45 82q-6 56 45 79.5t102 0t45 -79.5zM557 1251q43 0 69.5 -24.5t26.5 -65.5q6 -58 -45 -82t-102 0t-45 82q0 38 27.5 64t68.5 26z" />
    <glyph glyph-name="copyright" unicode="&#xa9;" horiz-adv-x="1513" 
d="M758 1305q277 0 467 -193q192 -192 192 -469t-190 -467t-469 -190t-469 190q-191 194 -191 469q0 276 191 467q190 193 469 193zM326 209q174 -180 432 -180q256 0 430 180q176 182 176 436t-176 436q-175 181 -430 181q-257 0 -432 -181q-174 -180 -174 -436t174 -436z
M1042 618q15 0 15 -12q0 -2 -1 -12t-2.5 -31.5t-3 -52.5t-2.5 -84.5t-1 -118.5q0 -14 -15 -14t-18 18q-3 56 -31 56q-6 0 -80 -39q-75 -37 -153 -37q-146 0 -246 106q-101 107 -101 267q0 153 103 262q100 106 246 106q71 0 139 -26q73 -25 74 -25q25 0 28 33q3 18 19 18
q12 0 12 -12q0 -25 3 -65.5t7 -80.5t8.5 -76.5t7.5 -60t3 -24.5q0 -13 -15 -13q-13 0 -16 13l-14 49q-64 242 -242 242q-105 0 -166 -83.5t-61 -256.5q0 -176 62 -260.5t165 -84.5q86 0 151.5 53.5t90.5 159.5l18 72q3 14 16 14z" />
    <glyph glyph-name="ordfeminine" unicode="&#xaa;" horiz-adv-x="751" 
d="M211 1038q80 28 233 43v37q0 88 -32 125t-97 37q-90 0 -90 -43q0 -7 7.5 -28t7.5 -31q0 -19 -17 -32t-43 -13q-53 0 -53 55q0 51 55 86t146 35q115 0 175 -53t60 -173v-188q0 -51 31 -51q37 0 37 51q0 12 12 12t12 -12q0 -88 -98 -88q-105 0 -111 104q-46 -104 -182 -104
q-67 0 -107 30.5t-40 86.5q0 80 94 114zM307 848q57 0 97 44t40 114v53l-12 -2q-129 -15 -174 -47q-27 -21 -27 -80q0 -82 76 -82zM635 618q17 0 17 -24.5t-17 -24.5h-520q-17 0 -17 24.5t17 24.5h520z" />
    <glyph glyph-name="guillemotleft" unicode="&#xab;" horiz-adv-x="985" 
d="M518 76q-12 0 -53 35l-287 235q-42 33 -55.5 52t-13.5 48t13.5 48.5t55.5 52.5l287 235q41 35 53 35q44 0 -20 -67l-281 -304l281 -303q37 -40 37 -51q0 -16 -17 -16zM860 76q-8 0 -55 35l-285 235q-42 33 -55.5 52t-13.5 48t13.5 48.5t55.5 52.5l285 235q47 35 55 35
q44 0 -20 -67l-281 -304l281 -303q37 -40 37 -51q0 -16 -17 -16z" />
    <glyph glyph-name="logicalnot" unicode="&#xac;" horiz-adv-x="1146" 
d="M903 588q29 0 29 -27v-256q0 -17 -24.5 -17t-24.5 17v234h-652q-17 0 -17 24.5t17 24.5h672z" />
    <glyph glyph-name="uni00AD" unicode="&#xad;" horiz-adv-x="698" 
d="M135 461q41 0 92 -2t117 -2q68 0 123 2t98 2q25 0 25 -31t-25 -31h-108q-47 2 -107 2l-215 -2q-26 0 -26 29q0 33 26 33z" />
    <glyph glyph-name="registered" unicode="&#xae;" horiz-adv-x="1513" 
d="M758 1305q277 0 467 -193q192 -192 192 -469t-190 -467t-469 -190t-469 190q-191 194 -191 469q0 276 191 467q190 193 469 193zM326 209q174 -180 432 -180q256 0 430 180q176 182 176 436t-176 436q-175 181 -430 181q-257 0 -432 -181q-174 -180 -174 -436t174 -436z
M1128 399q0 -56 -36 -92.5t-93 -36.5q-67 0 -192 82q-125 84 -164 84q-12 0 -12 -20q3 -87 41 -101q30 -15 30 -22q0 -10 -10 -10l-49 4q-77 7 -145 0l-41 -4q-13 0 -10 11q2 10 20 19q30 12 39 52q8 41 8 290q0 228 -8 275q-6 53 -39 67q-21 9 -21 17q0 12 13 12l9 -1
q8 -1 21 -2t27.5 -2t29.5 -2t25 -1q6 0 84 4q59 6 86 6q151 0 240.5 -81.5t89.5 -211.5q0 -133 -92 -213q-93 -78 -227 -78q-16 0 -53.5 3.5t-39.5 3.5v-2q41 -7 150 -43q115 -37 174 -37q102 0 117 92q0 8 8 8q20 0 20 -70zM647 979q-20 -26 -20 -272q0 -183 2 -201
q0 -41 61 -41q131 0 194.5 64.5t63.5 203.5q0 266 -207 266q-74 0 -94 -20z" />
    <glyph glyph-name="overscore" unicode="&#xaf;" horiz-adv-x="819" 
d="M199 1159q37 0 86 -2t112 -2q72 0 129 2t103 2q26 0 26 -20q0 -52 -34 -52q-39 0 -109 3q-47 2 -106 2q-60 0 -115 -2q-83 -3 -101 -3q-28 0 -28 25q0 47 37 47z" />
    <glyph glyph-name="degree" unicode="&#xb0;" horiz-adv-x="606" 
d="M301 1311q94 0 151.5 -55t57.5 -146q0 -88 -58.5 -143.5t-150.5 -55.5t-149.5 54.5t-57.5 144.5t58 145.5t149 55.5zM301 1268q-68 0 -108.5 -43t-40.5 -115q0 -69 41 -112.5t108 -43.5q69 0 110.5 42t41.5 114q0 74 -40 116t-112 42z" />
    <glyph glyph-name="plusminus" unicode="&#xb1;" horiz-adv-x="1146" 
d="M911 649q17 0 17 -24.5t-17 -24.5h-313v-313q0 -17 -24.5 -17t-24.5 17v313h-313q-17 0 -17 24.5t17 24.5h313v314q0 17 24.5 17t24.5 -17v-314h313zM870 121q17 0 17 -24.5t-17 -24.5h-594q-17 0 -17 24.5t17 24.5h594z" />
    <glyph glyph-name="uni00B2" unicode="&#xb2;" horiz-adv-x="827" 
d="M215 840q-51 0 -51 -47q0 -4 4 -20t4 -21q0 -25 -29 -25q-37 0 -37 78q0 230 271 332q115 42 161 93t46 132q0 170 -195 170q-63 0 -107 -24.5t-44 -59.5q0 -16 19 -49.5t19 -46.5q0 -30 -21 -48t-54 -18q-37 0 -59.5 24t-22.5 62q0 77 88 135t215 58q133 0 221 -58
q92 -59 92 -145q0 -169 -297 -248q-299 -74 -299 -289q0 -55 2 -69h2q-2 8 -2 41q0 56 39.5 91.5t106.5 35.5q62 0 198 -37q143 -35 183 -35q48 0 73 28t35 95q1 18 15 19q12 0 12 -11q0 -24 -12 -98q-24 -150 -154 -150q-60 0 -219 51q-164 54 -203 54z" />
    <glyph glyph-name="uni00B3" unicode="&#xb3;" horiz-adv-x="833" 
d="M442 1171q165 -5 259 -61t94 -152q0 -94 -103 -165q-101 -70 -262 -70q-142 0 -225.5 53t-83.5 133q0 46 28 73.5t70 27.5q74 0 74 -60q0 -21 -31 -57q-29 -32 -29 -57q0 -33 50.5 -57.5t124.5 -24.5q96 0 159.5 53t63.5 147q0 97 -60 147t-172 50q-26 0 -52 -0.5
t-41.5 -1t-16.5 -0.5q-19 0 -27 12.5t0 24.5t27 12q2 0 21.5 -1t45 -2t43.5 -1q92 0 146.5 47t54.5 131q0 164 -188 164q-150 0 -150 -68q0 -11 17.5 -41.5t17.5 -44.5q0 -30 -21.5 -47.5t-54.5 -17.5q-37 0 -61.5 23t-24.5 61q0 70 84 117q86 47 207 47q143 0 232.5 -53
t89.5 -138t-83.5 -138.5t-222.5 -64.5z" />
    <glyph glyph-name="acute" unicode="&#xb4;" horiz-adv-x="819" 
d="M205 924q-7 0 -10 8q-2 2 4 12q270 282 309 313q30 19 41 21q57 9 69 -51q6 -39 -59 -86q-223 -152 -344 -213q-6 0 -10 -4z" />
    <glyph glyph-name="uni00B5" unicode="&#xb5;" horiz-adv-x="1071" 
d="M985 51q29 -6 29 -18t-23 -15q-48 -2 -101.5 -11.5t-87.5 -18t-36 -8.5q-12 0 -12 14q12 86 12 229h-4q-26 -111 -95 -174t-167 -63q-163 0 -221 168q0 -20 -1.5 -81t-1.5 -85q0 -75 11 -211q12 -114 12 -131q0 -64 -80 -64q-35 0 -55.5 17.5t-20.5 48.5q0 3 3 35
t7.5 102.5t8.5 157.5q6 144 6 340v249q1 105 -13 146t-59 61q-39 13 -39 27t21 14q42 0 96 8.5t91 17.5t38 9q16 0 16 -20q-18 -66 -18 -256v-189q-9 -311 201 -311q107 0 176.5 84.5t73.5 222.5q0 236 -13 313q-6 42 -16.5 56t-36.5 22q-38 20 -41 29q0 14 21 14q25 0 51 2
t48 5t43 7t37 7.5t28 6.5t19 5l7 2q14 0 14 -12q0 -1 -1.5 -8.5t-4 -21.5t-5 -32t-4 -43.5t-1.5 -52.5v-430q0 -82 19.5 -116t68.5 -48z" />
    <glyph glyph-name="paragraph" unicode="&#xb6;" horiz-adv-x="1038" 
d="M588 -203q103 46 139 125q37 75 37 238v1138q15 0 34 1.5t35.5 3t30.5 3.5t22 4l9 1q16 0 16 -17l-30 -53q-33 -53 -33 -119v-917q0 -170 -53 -262q-54 -95 -207 -146zM430 -219q-122 0 -200 60.5t-78 148.5q0 54 29 87.5t73 33.5q82 0 82 -68q0 -26 -31 -68
q-29 -44 -29 -65q0 -42 43 -70t109 -28q190 0 190 233l3 490q0 12 -11 12q-1 0 -11 -3.5t-26.5 -8.5t-37.5 -9.5t-48 -8t-53 -3.5q-147 0 -250 109q-98 107 -98 286q0 185 103.5 292.5t283.5 107.5q47 0 117 -6q20 -1 40.5 -2t33 -2t18.5 -1v-1220q0 -297 -252 -297z" />
    <glyph glyph-name="middot" unicode="&#xb7;" horiz-adv-x="606" 
d="M225 721q54 0 86.5 -31.5t32.5 -85.5q0 -51 -32.5 -83t-86.5 -32q-51 0 -83.5 32t-32.5 83t32.5 84t83.5 33z" />
    <glyph glyph-name="cedilla" unicode="&#xb8;" horiz-adv-x="819" 
d="M397 -377q-44 0 -78 11.5t-46.5 21.5t-12.5 14q0 13 12 13l6 -3q5 -2 14 -6t20 -7.5t25.5 -6t27.5 -2.5q42 0 66 23.5t24 62.5q0 42 -25.5 64.5t-89.5 41.5q-12 3 -12 17q0 7 6 22l37 103h39l-35 -105q180 -27 180 -139q0 -55 -46.5 -90t-111.5 -35z" />
    <glyph glyph-name="uni00B9" unicode="&#xb9;" horiz-adv-x="598" 
d="M391 1565q10 0 10 -9q0 1 -1 -12.5t-2 -37t-2 -51.5t-2 -61.5t-1 -62.5v-354q0 -112 17 -158q18 -40 96 -55q40 -15 37 -26q-1 -5 -11 -5l-10 1q-10 0 -31 1t-45 2q-82 6 -135 6q-21 0 -51 -1t-57.5 -2.5t-51.5 -3t-39 -2.5l-16 -1q-10 0 -10 8q0 14 18 17q103 18 125 47
q23 33 23 127v350q0 114 -27 148t-133 43q-16 0 -16 14q0 12 14 12q45 1 92 8.5t82.5 17t64 18.5t45 15.5t17.5 6.5z" />
    <glyph glyph-name="ordmasculine" unicode="&#xba;" horiz-adv-x="688" 
d="M334 1311q106 0 180 -74q74 -71 74 -180t-74 -183q-74 -71 -180 -71t-180 71q-72 75 -72 183q0 109 74 180q74 74 178 74zM334 831q135 0 135 226q0 225 -135 225q-133 0 -133 -225q0 -226 133 -226zM98 618h494q17 0 17 -24.5t-17 -24.5h-494q-17 0 -17 24.5t17 24.5z
" />
    <glyph glyph-name="guillemotright" unicode="&#xbb;" horiz-adv-x="985" 
d="M125 76q-16 0 -16 16q0 12 36 51l281 303l-281 304q-49 52 -36 65t69 -33l285 -235q6 -5 19 -16t17 -15l12.5 -12.5t11 -13t6.5 -12t5 -15t1 -17.5q0 -27 -13 -44t-59 -56l-285 -235q-41 -35 -53 -35zM467 76q-16 0 -16 16q0 11 34 51l283 303l-283 304q-46 53 -33 65.5
t68 -33.5l285 -235q6 -5 19 -16t17 -15l12.5 -12.5t11 -13t6.5 -12t5 -15t1 -17.5q0 -27 -13 -44t-59 -56l-285 -235q-41 -35 -53 -35z" />
    <glyph glyph-name="onequarter" unicode="&#xbc;" horiz-adv-x="1755" 
d="M1196 1384q0 -7 -6 -22l-658 -1446q-9 -20 -32 -20q-17 0 -17 14q0 6 6 18l658 1446q10 23 31 23q18 0 18 -13zM537 496q0 -9 -11 -9l-10 1q-10 1 -31 2t-45 2q-82 6 -135 6q-21 0 -51 -1t-57.5 -3t-51.5 -3.5t-39 -2.5l-16 -1q-10 0 -10 9q0 11 18 14q103 18 125 49
q23 33 23 127v348q0 114 -27 148t-133 43q-16 3 -16 14q0 14 14 14q45 1 92 8.5t82.5 17t64 18.5t45 15.5t17.5 6.5q10 0 10 -8q-8 -126 -8 -228v-354q0 -115 16 -158q18 -39 97 -55q37 -15 37 -20zM1649 190h-105v-12q0 -88 15 -115q17 -30 75 -47q36 -12 33 -21
q-2 -5 -12 -5l-72 6q-94 4 -117 4q-20 0 -106 -4l-64 -6q-12 0 -12 8q0 6 29 16q60 21 71 47q15 27 15 111v18h-379q-21 0 -21 17q0 6 15 24l461 549q10 10 18 20t11 13.5t8 5.5t14 2q20 0 20 -20v-13q0 -12 -0.5 -33.5t-1 -48t-0.5 -59v-61.5v-344h105q30 0 30 -25
q0 -27 -30 -27zM1055 242h344v399q0 6 -2 6q-3 0 -19 -16z" />
    <glyph glyph-name="onehalf" unicode="&#xbd;" horiz-adv-x="1851" 
d="M500 -104q-17 0 -17 14q0 6 6 18l658 1446q10 23 31 23q18 0 18 -13q0 -7 -6 -22l-658 -1446q-9 -20 -32 -20zM385 1319q10 0 10 -8q-8 -126 -8 -228v-354q0 -115 16 -158q18 -39 97 -55q37 -15 37 -20q0 -9 -11 -9l-10 1q-10 1 -31 2t-45 2q-82 6 -135 6q-21 0 -51 -1
t-57.5 -3t-51.5 -3.5t-39 -2.5l-16 -1q-10 0 -10 9q0 11 18 14q103 18 125 49q23 33 23 127v348q0 114 -27 148t-133 43q-16 3 -16 14q0 14 14 14q45 1 92 8.5t82.5 17t64 18.5t45 15.5t17.5 6.5zM1221 96q-52 0 -52 -47q0 -4 4.5 -20t4.5 -21q0 -24 -29 -24q-37 0 -37 75
q0 122 66.5 202t203.5 132q115 42 161 93t46 132q0 170 -194 170q-63 0 -107.5 -24t-44.5 -59q0 -15 19.5 -49t19.5 -50q0 -30 -21.5 -47.5t-54.5 -17.5q-37 0 -59.5 23.5t-22.5 64.5q0 77 88 135q86 57 215 57q136 0 222 -57q92 -59 92 -146q0 -171 -297 -247
q-299 -74 -299 -289q0 -56 2 -72h2q-2 8 -2 43q0 56 39 91.5t106 35.5q63 0 199 -37q139 -34 182 -34q48 0 73.5 27.5t35.5 94.5q3 19 14 19q12 0 12 -10q0 -24 -12 -101q-24 -149 -154 -149q-54 0 -219 53q-161 53 -202 53z" />
    <glyph glyph-name="threequarters" unicode="&#xbe;" horiz-adv-x="1927" 
d="M1368 1384q0 -7 -6 -22l-657 -1446q-9 -20 -33 -20q-17 0 -17 14q0 4 7 18l657 1446q10 23 31 23q18 0 18 -13zM756 713q0 -95 -103 -166q-101 -70 -262 -70q-142 0 -225.5 53t-83.5 134q0 46 27 72t71 26q74 0 74 -57q0 -22 -31 -58q-28 -31 -28 -57q0 -33 49 -57.5
t125 -24.5q96 0 159.5 53t63.5 146q0 196 -232 196q-26 0 -52 -0.5t-41.5 -1t-16.5 -0.5q-31 0 -31 27q0 22 31 22q2 0 21.5 -0.5t45.5 -1t43 -0.5q92 0 146.5 46.5t54.5 131.5q0 164 -188 164q-69 0 -109.5 -18t-40.5 -49q0 -11 17.5 -42.5t17.5 -45.5q0 -29 -21.5 -46.5
t-54.5 -17.5q-37 0 -61.5 23t-24.5 61q0 70 84 117q86 47 207 47q142 0 232 -54t90 -139q0 -89 -92 -143t-244 -59q176 4 279.5 -53.5t103.5 -157.5zM1821 190h-105v-12q0 -88 15 -115q17 -30 75 -47q36 -12 33 -21q-2 -5 -12 -5l-72 6q-94 4 -117 4q-20 0 -106 -4l-64 -6
q-12 0 -12 8q0 6 29 16q60 21 71 47q15 27 15 111v18h-379q-21 0 -21 17q0 6 15 24l461 549q10 10 18 20t11 13.5t8 5.5t14 2q20 0 20 -20v-13q0 -12 -0.5 -33.5t-1 -48t-0.5 -59v-61.5v-344h105q30 0 30 -25q0 -27 -30 -27zM1227 242h344v399q0 6 -2 6q-3 0 -19 -16z" />
    <glyph glyph-name="questiondown" unicode="&#xbf;" horiz-adv-x="1038" 
d="M584 997q-51 0 -82 31t-31 82q0 50 31 80.5t82 30.5q50 0 81 -31t31 -80q0 -51 -31 -82t-81 -31zM614 829v-79q0 -100 -33 -155.5t-122 -92.5q-102 -42 -143.5 -107t-41.5 -190q0 -144 72.5 -216.5t200.5 -72.5q99 0 171.5 39t72.5 90q0 22 -29 59q-27 35 -27 66
q0 38 26 61t68 23q44 0 73.5 -30.5t29.5 -80.5q0 -105 -117 -182q-113 -76 -289 -76q-187 0 -302 83t-115 227q0 126 73.5 205t223.5 128q91 32 126 79t35 136v86h47z" />
    <glyph glyph-name="Agrave" unicode="&#xc0;" horiz-adv-x="1368" 
d="M885 1427q-1 0 -3.5 1t-6.5 2t-7 2q-124 25 -399 122q-78 28 -78 76q0 30 17.5 47t44.5 17q30 0 94 -37q108 -63 256 -156q14 -8 39 -24t43 -27q8 -5 8 -12q0 -11 -8 -11zM899 -10q-22 0 -21 12q1 14 35 21q80 27 80 90q0 37 -86 284q-9 20 -33 23q-62 6 -301 6
q-197 0 -227 -6q-21 -3 -27 -21l-63 -180q-14 -49 -14 -84q0 -81 106 -115q31 -6 31 -18q0 -14 -19 -14q-4 0 -75 6t-109 6q-32 0 -84 -6q-49 -6 -53 -6q-21 0 -21 14q0 11 29 21q69 19 94 57q34 46 84 174q146 372 326 885q20 44 20 63q0 20 -55 41q-29 10 -29 21
q0 16 21 16q23 1 46 3t43.5 5t40 6.5t36 7.5t31 8t25.5 7.5t18.5 6t11.5 4.5l4 1q14 0 14 -14q0 -4 -7 -18t-7 -19q0 -25 14 -57l379 -1018q35 -91 59.5 -123.5t65.5 -46.5q58 -20 54 -35q-2 -8 -19 -8q-7 0 -84 6q-102 4 -127 4q-21 0 -127 -4q-77 -6 -80 -6zM586 461
q209 0 274 8q17 0 17 10q0 2 -1 4.5t-2 7t-2 7.5l-258 694q0 5 -2 7t-4.5 0t-3.5 -7l-252 -698q-1 -4 -2 -8.5t-1.5 -7t-0.5 -3.5q0 -5 10 -8q18 -6 228 -6z" />
    <glyph glyph-name="Aacute" unicode="&#xc1;" horiz-adv-x="1368" 
d="M438 1411q-8 0 -8 10q0 8 8 13l82 51q127 80 256 155q64 37 94 37q27 0 44.5 -16.5t17.5 -46.5q0 -48 -78 -76q-282 -99 -399 -123zM899 -10q-22 0 -21 12q1 14 35 21q80 27 80 90q0 37 -86 284q-9 20 -33 23q-62 6 -301 6q-197 0 -227 -6q-21 -3 -27 -21l-63 -180
q-14 -49 -14 -84q0 -81 106 -115q31 -6 31 -18q0 -14 -19 -14q-4 0 -75 6t-109 6q-32 0 -84 -6q-49 -6 -53 -6q-21 0 -21 14q0 11 29 21q69 19 94 57q34 46 84 174q146 372 326 885q20 44 20 63q0 20 -55 41q-29 10 -29 21q0 16 21 16q23 1 46 3t43.5 5t40 6.5t36 7.5t31 8
t25.5 7.5t18.5 6t11.5 4.5l4 1q14 0 14 -14q0 -4 -7 -18t-7 -19q0 -25 14 -57l379 -1018q35 -91 59.5 -123.5t65.5 -46.5q58 -20 54 -35q-2 -8 -19 -8q-7 0 -84 6q-102 4 -127 4q-21 0 -127 -4q-77 -6 -80 -6zM586 461q209 0 274 8q17 0 17 10q0 2 -1 4.5t-2 7t-2 7.5
l-258 694q0 5 -2 7t-4.5 0t-3.5 -7l-252 -698q-1 -4 -2 -8.5t-1.5 -7t-0.5 -3.5q0 -5 10 -8q18 -6 228 -6z" />
    <glyph glyph-name="Acircumflex" unicode="&#xc2;" horiz-adv-x="1368" 
d="M393 1417q-14 0 -14 15q0 11 27 38l153 152q50 50 68 60q16 8 32 8q22 0 58 -27q8 -6 39 -37q132 -126 153 -149q31 -31 31 -45q0 -15 -14 -15q-4 0 -9 1.5t-14 6.5t-20 11.5t-32 20t-44 28t-63 39.5t-82 51h-5l-223 -139q-30 -19 -41 -19zM899 -10q-22 0 -21 12
q1 14 35 21q80 27 80 90q0 37 -86 284q-9 20 -33 23q-62 6 -301 6q-197 0 -227 -6q-21 -3 -27 -21l-63 -180q-14 -49 -14 -84q0 -81 106 -115q31 -6 31 -18q0 -14 -19 -14q-4 0 -75 6t-109 6q-32 0 -84 -6q-49 -6 -53 -6q-21 0 -21 14q0 11 29 21q69 19 94 57q34 46 84 174
q146 372 326 885q20 44 20 63q0 20 -55 41q-29 10 -29 21q0 16 21 16q23 1 46 3t43.5 5t40 6.5t36 7.5t31 8t25.5 7.5t18.5 6t11.5 4.5l4 1q14 0 14 -14q0 -4 -7 -18t-7 -19q0 -25 14 -57l379 -1018q35 -91 59.5 -123.5t65.5 -46.5q58 -20 54 -35q-2 -8 -19 -8q-7 0 -84 6
q-102 4 -127 4q-21 0 -127 -4q-77 -6 -80 -6zM586 461q209 0 274 8q17 0 17 10q0 2 -1 4.5t-2 7t-2 7.5l-258 694q0 5 -2 7t-4.5 0t-3.5 -7l-252 -698q-1 -4 -2 -8.5t-1.5 -7t-0.5 -3.5q0 -5 10 -8q18 -6 228 -6z" />
    <glyph glyph-name="Atilde" unicode="&#xc3;" horiz-adv-x="1368" 
d="M406 1466q5 90 38 142.5t93 52.5q56 0 145 -47q86 -45 127 -45q65 3 74 67q3 21 16 21q16 0 16 -23q0 -71 -34 -119.5t-93 -48.5q-51 0 -137 45q-87 43 -125 43q-36 -2 -56 -21t-32 -65q-3 -15 -11 -20.5t-14.5 0t-6.5 18.5zM899 -10q-22 0 -21 12q1 14 35 21
q80 27 80 90q0 37 -86 284q-9 20 -33 23q-62 6 -301 6q-197 0 -227 -6q-21 -3 -27 -21l-63 -180q-14 -49 -14 -84q0 -81 106 -115q31 -6 31 -18q0 -14 -19 -14q-4 0 -75 6t-109 6q-32 0 -84 -6q-49 -6 -53 -6q-21 0 -21 14q0 11 29 21q69 19 94 57q34 46 84 174
q146 372 326 885q20 44 20 63q0 20 -55 41q-29 10 -29 21q0 16 21 16q23 1 46 3t43.5 5t40 6.5t36 7.5t31 8t25.5 7.5t18.5 6t11.5 4.5l4 1q14 0 14 -14q0 -4 -7 -18t-7 -19q0 -25 14 -57l379 -1018q35 -91 59.5 -123.5t65.5 -46.5q58 -20 54 -35q-2 -8 -19 -8q-7 0 -84 6
q-102 4 -127 4q-21 0 -127 -4q-77 -6 -80 -6zM586 461q209 0 274 8q17 0 17 10q0 2 -1 4.5t-2 7t-2 7.5l-258 694q0 5 -2 7t-4.5 0t-3.5 -7l-252 -698q-1 -4 -2 -8.5t-1.5 -7t-0.5 -3.5q0 -5 10 -8q18 -6 228 -6z" />
    <glyph glyph-name="Adieresis" unicode="&#xc4;" horiz-adv-x="1368" 
d="M578 1436q-26 -25 -67.5 -25t-70.5 25q-26 26 -26 67t26 66q26 26 70 26t70 -26q27 -25 27 -66t-29 -67zM807 1411q-42 0 -69 25.5t-27 66.5t27 66.5t69 25.5q59 6 83.5 -43t0 -98t-83.5 -43zM899 -10q-22 0 -21 12q1 14 35 21q80 27 80 90q0 37 -86 284q-9 20 -33 23
q-62 6 -301 6q-197 0 -227 -6q-21 -3 -27 -21l-63 -180q-14 -49 -14 -84q0 -81 106 -115q31 -6 31 -18q0 -14 -19 -14q-4 0 -75 6t-109 6q-32 0 -84 -6q-49 -6 -53 -6q-21 0 -21 14q0 11 29 21q69 19 94 57q34 46 84 174q146 372 326 885q20 44 20 63q0 20 -55 41
q-29 10 -29 21q0 16 21 16q23 1 46 3t43.5 5t40 6.5t36 7.5t31 8t25.5 7.5t18.5 6t11.5 4.5l4 1q14 0 14 -14q0 -4 -7 -18t-7 -19q0 -25 14 -57l379 -1018q35 -91 59.5 -123.5t65.5 -46.5q58 -20 54 -35q-2 -8 -19 -8q-7 0 -84 6q-102 4 -127 4q-21 0 -127 -4q-77 -6 -80 -6
zM586 461q209 0 274 8q17 0 17 10q0 2 -1 4.5t-2 7t-2 7.5l-258 694q0 5 -2 7t-4.5 0t-3.5 -7l-252 -698q-1 -4 -2 -8.5t-1.5 -7t-0.5 -3.5q0 -5 10 -8q18 -6 228 -6z" />
    <glyph glyph-name="Aring" unicode="&#xc5;" horiz-adv-x="1368" 
d="M659 1417q-69 0 -116 41.5t-47 102.5q0 63 45.5 102t117.5 39q73 0 118.5 -39t45.5 -102q0 -62 -45.5 -103t-118.5 -41zM745 1561q0 114 -86 114t-86 -114q0 -117 86 -117t86 117zM899 -10q-22 0 -21 12q1 14 35 21q80 27 80 90q0 37 -86 284q-9 20 -33 23q-62 6 -301 6
q-197 0 -227 -6q-21 -3 -27 -21l-63 -180q-14 -49 -14 -84q0 -81 106 -115q31 -6 31 -18q0 -14 -19 -14q-4 0 -75 6t-109 6q-32 0 -84 -6q-49 -6 -53 -6q-21 0 -21 14q0 11 29 21q69 19 94 57q34 46 84 174q146 372 326 885q20 44 20 63q0 20 -55 41q-29 10 -29 21
q0 16 21 16q23 1 46 3t43.5 5t40 6.5t36 7.5t31 8t25.5 7.5t18.5 6t11.5 4.5l4 1q14 0 14 -14q0 -4 -7 -18t-7 -19q0 -25 14 -57l379 -1018q35 -91 59.5 -123.5t65.5 -46.5q58 -20 54 -35q-2 -8 -19 -8q-7 0 -84 6q-102 4 -127 4q-21 0 -127 -4q-77 -6 -80 -6zM586 461
q209 0 274 8q17 0 17 10q0 2 -1 4.5t-2 7t-2 7.5l-258 694q0 5 -2 7t-4.5 0t-3.5 -7l-252 -698q-1 -4 -2 -8.5t-1.5 -7t-0.5 -3.5q0 -5 10 -8q18 -6 228 -6z" />
    <glyph glyph-name="AE" unicode="&#xc6;" horiz-adv-x="1632" 
d="M1550 -2q0 -12 -14 -12q-4 0 -27.5 0.5t-71.5 1.5t-100 2q-121 2 -305 2q-92 0 -170 -2q-33 -1 -62.5 -2t-43.5 -1.5t-15 -0.5q-18 0 -18 14q0 11 37 20q65 12 92 37t27 70q0 78 -45 283q-6 22 -29 22q-108 6 -215 6q-149 0 -172 -2q-38 -3 -47 -26q-115 -251 -115 -289
q0 -74 123 -101q24 -4 25 -18q-1 -13 -19 -14q-1 0 -78 6t-119 6q-36 0 -92 -6t-57 -6q-21 0 -21 14q0 15 21 18q79 16 115 54q41 45 114 200q401 832 416 869q10 27 10 45q0 24 -39 57q-32 25 -32 41q0 17 22 17q3 0 13.5 -1t33.5 -2.5t47 -3.5q89 -6 170 -6q11 0 199 4
q34 1 88.5 4t96.5 4.5t77 2.5q120 6 123 6q14 0 14 -13q0 -1 -7.5 -16t-14.5 -40.5t-6 -51.5q4 -92 28 -211q0 -17 -13 -17q-14 0 -20 23q-1 1 -1 2q-60 188 -121 232q-62 47 -246 47q-155 0 -199 -13q-39 -12 -39 -55q0 -103 76 -461q6 -37 62 -37q144 0 184 37t61 168
q3 15 19 15q10 0 10 -15q0 -2 -1 -23t-1.5 -47.5t-0.5 -68.5t1 -84q2 -56 6.5 -109.5t7.5 -82.5l4 -29q0 -15 -12 -15q-15 0 -18 17q-19 91 -40 126.5t-71 55.5q-49 21 -149 21q-27 0 -35 -9.5t-4 -35.5q68 -335 112 -517q12 -50 44.5 -67t117.5 -17q130 0 184 66
q53 68 80 289q3 33 21 33q14 0 14 -17q0 1 -2 -18.5t-5 -52t-6 -70t-5 -78t-2 -70.5q0 -21 3 -39t7.5 -29.5t9 -19.5t7.5 -12zM793 489q22 3 22 23q0 15 -2 23q-15 97 -98 552q-1 9 -5.5 12t-9.5 0t-8 -12l-266 -577q-6 -12 -6 -14q0 -9 22 -9q82 -4 168 -4q153 0 183 6z
" />
    <glyph glyph-name="Ccedilla" unicode="&#xc7;" horiz-adv-x="1335" 
d="M1231 477q16 0 16 -14l-10 -303q-2 -96 -2 -178q0 -12 -12 -14q-13 -3 -20 19l-3 23q-3 76 -45 76q-16 0 -75.5 -27.5t-149.5 -57t-178 -32.5l-27 -82q180 -27 180 -139q0 -55 -46 -90t-111 -35q-44 0 -78 11.5t-47 21.5t-13 14q0 13 13 13l5 -3q6 -2 15 -6t20 -7.5
t25 -6t27 -2.5q42 0 66 23.5t24 62.5q0 42 -25.5 64.5t-89.5 41.5q-12 3 -12 17q0 7 6 22l29 80q-266 3 -441 193q-174 192 -174 481q0 290 181 483t450 193q84 0 172 -25t145.5 -50t65.5 -25q32 0 35 63q6 37 24 37q14 -2 15 -19q0 -95 12 -227q7 -84 16 -154.5t14 -98.5
l5 -29q0 -13 -12 -13q-20 0 -23 19l-16 65q-108 428 -445 428q-175 0 -305 -133q-69 -70 -108 -203.5t-39 -310.5t38 -309.5t105 -202.5q127 -133 299 -133q393 0 463 356l20 103q3 20 21 20z" />
    <glyph glyph-name="Egrave" unicode="&#xc8;" horiz-adv-x="1208" 
d="M453 1554q-78 28 -78 76q0 30 17 47t44 17q30 0 94 -37q108 -63 256 -156q14 -8 39 -24t43 -27q9 -6 9 -12q0 -11 -9 -11q-1 0 -3 1t-6 2t-7 2q-124 25 -399 122zM1122 399l-8 -49q-20 -165 -20 -252q0 -19 6.5 -40.5t13 -36t6.5 -15.5q0 -12 -14 -12q-9 0 -56.5 0.5
t-139 1.5t-177.5 2q-102 2 -295 2q-36 0 -71.5 -0.5t-64 -1t-54 -1t-44 -1t-32.5 -1t-22 -1.5h-7q-16 0 -16 12q0 10 41 25q48 18 63 57q23 71 23 440v117q0 465 -21 541q-12 52 -57 67l-8 4q-41 15 -41 29q0 12 16 12h10q10 -1 32 -2t48 -2q118 -4 154 -4q209 0 315 2
l265 4q68 2 118 2q17 0 17 -12q0 -1 -7 -15.5t-13.5 -36t-6.5 -40.5q0 -22 3 -54t6.5 -61.5t7.5 -55t7 -41.5t3 -15q0 -17 -15 -17q-17 0 -20 25q-52 182 -129 235q-79 54 -258 54q-117 0 -162.5 -8t-64.5 -33q-19 -22 -25 -107q-6 -83 -6 -373q0 -35 26.5 -44t126.5 -9
q136 0 177 35q45 39 71 149q3 17 19 17q12 0 12 -14q0 -1 -1 -13.5t-3 -33t-4 -45t-3 -55.5t-1 -58q0 -23 0.5 -46.5t1.5 -43t2.5 -37t3 -31t2.5 -24t2 -16.5v-5q0 -14 -12 -14q-14 3 -17 18q-21 108 -67 145q-45 39 -183 39q-71 0 -100.5 -4t-41 -14.5t-11.5 -36.5
q0 -391 16 -485q9 -34 21 -49q19 -24 61 -32.5t144 -8.5q220 -3 303 65q83 69 118 297q3 27 23 27q14 0 14 -17z" />
    <glyph glyph-name="Eacute" unicode="&#xc9;" horiz-adv-x="1208" 
d="M424 1411q-8 0 -8 10q0 8 8 13l82 51q127 80 256 155q64 37 94 37q27 0 44.5 -16.5t17.5 -46.5q0 -48 -78 -76q-281 -99 -400 -123zM1122 399l-8 -49q-20 -165 -20 -252q0 -19 6.5 -40.5t13 -36t6.5 -15.5q0 -12 -14 -12q-9 0 -56.5 0.5t-139 1.5t-177.5 2q-102 2 -295 2
q-36 0 -71.5 -0.5t-64 -1t-54 -1t-44 -1t-32.5 -1t-22 -1.5h-7q-16 0 -16 12q0 10 41 25q48 18 63 57q23 71 23 440v117q0 465 -21 541q-12 52 -57 67l-8 4q-41 15 -41 29q0 12 16 12h10q10 -1 32 -2t48 -2q118 -4 154 -4q209 0 315 2l265 4q68 2 118 2q17 0 17 -12
q0 -1 -7 -15.5t-13.5 -36t-6.5 -40.5q0 -22 3 -54t6.5 -61.5t7.5 -55t7 -41.5t3 -15q0 -17 -15 -17q-17 0 -20 25q-52 182 -129 235q-79 54 -258 54q-117 0 -162.5 -8t-64.5 -33q-19 -22 -25 -107q-6 -83 -6 -373q0 -35 26.5 -44t126.5 -9q136 0 177 35q45 39 71 149
q3 17 19 17q12 0 12 -14q0 -1 -1 -13.5t-3 -33t-4 -45t-3 -55.5t-1 -58q0 -23 0.5 -46.5t1.5 -43t2.5 -37t3 -31t2.5 -24t2 -16.5v-5q0 -14 -12 -14q-14 3 -17 18q-21 108 -67 145q-45 39 -183 39q-71 0 -100.5 -4t-41 -14.5t-11.5 -36.5q0 -391 16 -485q9 -34 21 -49
q19 -24 61 -32.5t144 -8.5q220 -3 303 65q83 69 118 297q3 27 23 27q14 0 14 -17z" />
    <glyph glyph-name="Ecircumflex" unicode="&#xca;" horiz-adv-x="1208" 
d="M377 1417q-15 0 -15 15q0 11 27 38l154 152q50 50 68 60q16 8 32 8q21 0 57 -27q8 -6 39 -37q139 -133 154 -149q31 -31 31 -45q0 -15 -15 -15q-4 0 -9 1.5t-14 6.5t-20 11.5t-32 20t-44 28t-63 39.5t-82 51h-4l-223 -139q-30 -19 -41 -19zM1122 399l-8 -49
q-20 -165 -20 -252q0 -19 6.5 -40.5t13 -36t6.5 -15.5q0 -12 -14 -12q-9 0 -56.5 0.5t-139 1.5t-177.5 2q-102 2 -295 2q-36 0 -71.5 -0.5t-64 -1t-54 -1t-44 -1t-32.5 -1t-22 -1.5h-7q-16 0 -16 12q0 10 41 25q48 18 63 57q23 71 23 440v117q0 465 -21 541q-12 52 -57 67
l-8 4q-41 15 -41 29q0 12 16 12h10q10 -1 32 -2t48 -2q118 -4 154 -4q209 0 315 2l265 4q68 2 118 2q17 0 17 -12q0 -1 -7 -15.5t-13.5 -36t-6.5 -40.5q0 -22 3 -54t6.5 -61.5t7.5 -55t7 -41.5t3 -15q0 -17 -15 -17q-17 0 -20 25q-52 182 -129 235q-79 54 -258 54
q-117 0 -162.5 -8t-64.5 -33q-19 -22 -25 -107q-6 -83 -6 -373q0 -35 26.5 -44t126.5 -9q136 0 177 35q45 39 71 149q3 17 19 17q12 0 12 -14q0 -1 -1 -13.5t-3 -33t-4 -45t-3 -55.5t-1 -58q0 -23 0.5 -46.5t1.5 -43t2.5 -37t3 -31t2.5 -24t2 -16.5v-5q0 -14 -12 -14
q-14 3 -17 18q-21 108 -67 145q-45 39 -183 39q-71 0 -100.5 -4t-41 -14.5t-11.5 -36.5q0 -391 16 -485q9 -34 21 -49q19 -24 61 -32.5t144 -8.5q220 -3 303 65q83 69 118 297q3 27 23 27q14 0 14 -17z" />
    <glyph glyph-name="Edieresis" unicode="&#xcb;" horiz-adv-x="1208" 
d="M563 1436q-26 -25 -67 -25t-70 25q-26 26 -26 67t26 66q26 26 69.5 26t69.5 -26q27 -25 27 -66t-29 -67zM793 1411q-42 0 -69.5 25.5t-27.5 66.5t27.5 66.5t69.5 25.5q59 6 83.5 -43t0 -98t-83.5 -43zM1122 399l-8 -49q-20 -165 -20 -252q0 -19 6.5 -40.5t13 -36
t6.5 -15.5q0 -12 -14 -12q-9 0 -56.5 0.5t-139 1.5t-177.5 2q-102 2 -295 2q-36 0 -71.5 -0.5t-64 -1t-54 -1t-44 -1t-32.5 -1t-22 -1.5h-7q-16 0 -16 12q0 10 41 25q48 18 63 57q23 71 23 440v117q0 465 -21 541q-12 52 -57 67l-8 4q-41 15 -41 29q0 12 16 12h10
q10 -1 32 -2t48 -2q118 -4 154 -4q209 0 315 2l265 4q68 2 118 2q17 0 17 -12q0 -1 -7 -15.5t-13.5 -36t-6.5 -40.5q0 -22 3 -54t6.5 -61.5t7.5 -55t7 -41.5t3 -15q0 -17 -15 -17q-17 0 -20 25q-52 182 -129 235q-79 54 -258 54q-117 0 -162.5 -8t-64.5 -33
q-19 -22 -25 -107q-6 -83 -6 -373q0 -35 26.5 -44t126.5 -9q136 0 177 35q45 39 71 149q3 17 19 17q12 0 12 -14q0 -1 -1 -13.5t-3 -33t-4 -45t-3 -55.5t-1 -58q0 -23 0.5 -46.5t1.5 -43t2.5 -37t3 -31t2.5 -24t2 -16.5v-5q0 -14 -12 -14q-14 3 -17 18q-21 108 -67 145
q-45 39 -183 39q-71 0 -100.5 -4t-41 -14.5t-11.5 -36.5q0 -391 16 -485q9 -34 21 -49q19 -24 61 -32.5t144 -8.5q220 -3 303 65q83 69 118 297q3 27 23 27q14 0 14 -17z" />
    <glyph glyph-name="Igrave" unicode="&#xcc;" horiz-adv-x="641" 
d="M549 1427q-1 0 -3.5 1t-6.5 2t-7 2q-124 25 -399 122q-78 28 -78 76q0 30 17.5 47t44.5 17q30 0 94 -37q108 -63 256 -156q14 -8 39 -24t43 -27q8 -5 8 -12q0 -11 -8 -11zM150 -12q-15 0 -15 12q0 16 35 25q48 14 57 106q11 112 11 477v45q0 390 -11 502q-9 94 -57 111
q-35 9 -35 24q0 13 15 13l63 -7q61 -6 109 -6q44 0 108 6l62 7q15 0 14 -11q-1 -14 -35 -26q-50 -18 -59 -111q-9 -91 -9 -502q0 -483 15 -553q12 -60 53 -75q36 -12 35 -27q-1 -10 -14 -10q-4 0 -68 6t-102 6q-42 0 -107 -6z" />
    <glyph glyph-name="Iacute" unicode="&#xcd;" horiz-adv-x="641" 
d="M102 1411q-8 0 -8 10q0 8 8 13l82 51q127 80 256 155q64 37 95 37q27 0 44 -16.5t17 -46.5q0 -48 -78 -76q-282 -99 -399 -123zM150 -12q-15 0 -15 12q0 16 35 25q48 14 57 106q11 112 11 477v45q0 390 -11 502q-9 94 -57 111q-35 9 -35 24q0 13 15 13l63 -7
q61 -6 109 -6q44 0 108 6l62 7q15 0 14 -11q-1 -14 -35 -26q-50 -18 -59 -111q-9 -91 -9 -502q0 -483 15 -553q12 -60 53 -75q36 -12 35 -27q-1 -10 -14 -10q-4 0 -68 6t-102 6q-42 0 -107 -6z" />
    <glyph glyph-name="Icircumflex" unicode="&#xce;" horiz-adv-x="641" 
d="M55 1417q-14 0 -14 15q0 11 27 38l153 152q27 27 37.5 36.5t29 20.5t34.5 11q21 0 57 -27q8 -6 39 -37q132 -126 153 -149q31 -31 31 -45q0 -15 -14 -15q-4 0 -9 1.5t-14 6.5t-20 11.5t-32 20t-44 28t-63 39.5t-82 51h-5l-223 -139q-30 -19 -41 -19zM150 -12
q-15 0 -15 12q0 16 35 25q48 14 57 106q11 112 11 477v45q0 390 -11 502q-9 94 -57 111q-35 9 -35 24q0 13 15 13l63 -7q61 -6 109 -6q44 0 108 6l62 7q15 0 14 -11q-1 -14 -35 -26q-50 -18 -59 -111q-9 -91 -9 -502q0 -483 15 -553q12 -60 53 -75q36 -12 35 -27
q-1 -10 -14 -10q-4 0 -68 6t-102 6q-42 0 -107 -6z" />
    <glyph glyph-name="Idieresis" unicode="&#xcf;" horiz-adv-x="641" 
d="M242 1436q-26 -25 -67.5 -25t-70.5 25q-26 26 -26 67t26 66q26 26 70 26t70 -26q27 -25 27 -66t-29 -67zM471 1411q-42 0 -69 25.5t-27 66.5t27 66.5t69 25.5q59 6 83.5 -43t0 -98t-83.5 -43zM150 -12q-15 0 -15 12q0 16 35 25q48 14 57 106q11 112 11 477v45
q0 390 -11 502q-9 94 -57 111q-35 9 -35 24q0 13 15 13l63 -7q61 -6 109 -6q44 0 108 6l62 7q15 0 14 -11q-1 -14 -35 -26q-50 -18 -59 -111q-9 -91 -9 -502q0 -483 15 -553q12 -60 53 -75q36 -12 35 -27q-1 -10 -14 -10q-4 0 -68 6t-102 6q-42 0 -107 -6z" />
    <glyph glyph-name="Eth" unicode="&#xd0;" horiz-adv-x="1472" 
d="M639 1309q321 0 528 -189t207 -473t-207 -479q-206 -191 -528 -191q-41 0 -164 13q-127 10 -162 10q-12 0 -98 -4q-19 -1 -36 -2t-25 -1.5t-9 -0.5q-14 0 -14 12q0 11 47 29q39 14 45 102q8 76 8 483q-20 -1 -41.5 -2t-33.5 -1.5t-17 -0.5q-26 0 -26 33q0 39 32 39
q3 0 13.5 -0.5t31 -1.5t41.5 -2q0 363 -10 465q-9 93 -47 113q-10 5 -20 9t-14 5t-6.5 4t-2.5 8q0 12 14 12h7q8 -1 23.5 -2t33.5 -2q86 -4 104 -4q53 0 162 8q154 11 164 11zM645 6q239 0 391 158q150 156 150 483q0 329 -150 479q-148 154 -391 154q-206 0 -233 -74
q-15 -46 -15 -528q16 0 148 4q28 1 57.5 2t45 1.5t22.5 0.5q30 0 30 -31q0 -18 -8.5 -30t-21.5 -11q-48 3 -273 9q0 -498 19 -547q24 -70 229 -70z" />
    <glyph glyph-name="Ntilde" unicode="&#xd1;" horiz-adv-x="1421" 
d="M530 1466q5 89 38.5 142t93.5 53q56 0 145 -47q86 -45 127 -45q65 3 74 67q3 21 16 21q16 0 16 -23q0 -71 -34 -119.5t-93 -48.5q-51 0 -137 45q-87 43 -125 43q-36 -2 -56 -21t-32 -65q-3 -15 -11 -20.5t-15 0t-7 18.5zM1214 -37q-17 0 -36 25q-46 68 -359 448
q-308 380 -532 649q-29 29 -35 29q-8 0 -8 -18v-817q0 -130 26 -181q26 -50 115 -75q33 -9 33 -23q0 -12 -21 -12q-3 0 -67 6t-101 6q-35 0 -94 -6q-58 -6 -67 -6q-19 0 -19 14q0 9 33 18q71 18 98 75t27 200v758q0 99 -13 135t-57 53q-15 6 -32.5 12.5t-27 10.5l-19 8
t-13.5 8.5t-4 9.5q0 13 14 13q1 0 6 -1t17 -2.5t24 -3.5q47 -6 64 -6q18 0 55.5 6.5t42.5 6.5q34 0 82 -54q157 -179 447 -528q327 -390 391 -473q18 -23 18 0v786q0 109 -27.5 160.5t-95.5 71.5q-41 9 -41 24q0 13 15 13q1 0 8.5 -1t24.5 -2.5t36 -3.5q64 -6 97 -6t92 6
q17 2 32 3.5t21.5 2.5t7.5 1q14 0 14 -13q0 -12 -32 -20q-64 -19 -90.5 -70.5t-26.5 -165.5v-1034q0 -37 -23 -37z" />
    <glyph glyph-name="Ograve" unicode="&#xd2;" horiz-adv-x="1484" 
d="M547 1554q-78 28 -78 76q0 30 17 47t44 17q31 0 95 -37q108 -63 256 -156q14 -8 39 -24t43 -27q8 -5 8 -12q0 -11 -8 -11q-1 0 -3.5 1t-6.5 2t-7 2q-124 25 -399 122zM741 1329q283 0 465 -194q180 -192 180 -486q0 -293 -180 -485q-183 -195 -465 -195q-279 0 -462 195
q-181 193 -181 485q0 293 181 486q182 194 462 194zM741 2q198 0 324 156q127 157 127 491q0 343 -125 492q-126 153 -326 153q-197 0 -323 -153q-127 -154 -127 -492q0 -332 127 -489q131 -158 323 -158z" />
    <glyph glyph-name="Oacute" unicode="&#xd3;" horiz-adv-x="1484" 
d="M518 1411q-8 0 -8 10q0 8 8 13l82 51q127 80 256 155q64 37 94 37q27 0 44.5 -16.5t17.5 -46.5q0 -48 -78 -76q-282 -99 -399 -123zM741 1329q283 0 465 -194q180 -192 180 -486q0 -293 -180 -485q-183 -195 -465 -195q-279 0 -462 195q-181 193 -181 485q0 293 181 486
q182 194 462 194zM741 2q198 0 324 156q127 157 127 491q0 343 -125 492q-126 153 -326 153q-197 0 -323 -153q-127 -154 -127 -492q0 -332 127 -489q131 -158 323 -158z" />
    <glyph glyph-name="Ocircumflex" unicode="&#xd4;" horiz-adv-x="1484" 
d="M471 1417q-14 0 -14 15q0 12 26 38l154 152q50 50 68 60q16 8 32 8q22 0 58 -27q8 -6 39 -37q132 -126 153 -149q31 -31 31 -45q0 -15 -14 -15q-4 0 -9 1.5t-14.5 6.5t-20 11.5t-32 20t-44.5 28t-63 39.5t-82 51h-4l-223 -139q-30 -19 -41 -19zM741 1329q283 0 465 -194
q180 -192 180 -486q0 -293 -180 -485q-183 -195 -465 -195q-279 0 -462 195q-181 193 -181 485q0 293 181 486q182 194 462 194zM741 2q198 0 324 156q127 157 127 491q0 343 -125 492q-126 153 -326 153q-197 0 -323 -153q-127 -154 -127 -492q0 -332 127 -489
q131 -158 323 -158z" />
    <glyph glyph-name="Otilde" unicode="&#xd5;" horiz-adv-x="1484" 
d="M483 1466q5 90 38 142.5t93 52.5q57 0 146 -47q86 -45 127 -45q65 3 74 67q3 21 16 21q16 0 16 -23q0 -71 -34 -119.5t-93 -48.5q-51 0 -137 45q-87 43 -125 43q-36 -2 -56 -21t-32 -65q-3 -15 -11 -20.5t-15 0t-7 18.5zM741 1329q283 0 465 -194q180 -192 180 -486
q0 -293 -180 -485q-183 -195 -465 -195q-279 0 -462 195q-181 193 -181 485q0 293 181 486q182 194 462 194zM741 2q198 0 324 156q127 157 127 491q0 343 -125 492q-126 153 -326 153q-197 0 -323 -153q-127 -154 -127 -492q0 -332 127 -489q131 -158 323 -158z" />
    <glyph glyph-name="Odieresis" unicode="&#xd6;" horiz-adv-x="1484" 
d="M657 1436q-26 -25 -67 -25t-70 25q-26 26 -26 67t26 66q26 26 69.5 26t69.5 -26q27 -25 27 -66t-29 -67zM887 1411q-42 0 -69 25.5t-27 66.5t27 66.5t69 25.5q59 6 83.5 -43t0 -98t-83.5 -43zM741 1329q283 0 465 -194q180 -192 180 -486q0 -293 -180 -485
q-183 -195 -465 -195q-279 0 -462 195q-181 193 -181 485q0 293 181 486q182 194 462 194zM741 2q198 0 324 156q127 157 127 491q0 343 -125 492q-126 153 -326 153q-197 0 -323 -153q-127 -154 -127 -492q0 -332 127 -489q131 -158 323 -158z" />
    <glyph glyph-name="multiply" unicode="&#xd7;" horiz-adv-x="1146" 
d="M606 551l250 -250q13 -13 -6 -29q-16 -19 -29 -6l-250 250l-249 -250q-13 -13 -29 6q-19 16 -6 29l250 250l-250 250q-13 13 6 28q16 20 29 7l249 -250l250 250q13 13 29 -7q19 -15 6 -28z" />
    <glyph glyph-name="Oslash" unicode="&#xd8;" horiz-adv-x="1484" 
d="M1044 1260q160 -85 251 -246.5t91 -364.5q0 -293 -180 -485q-183 -195 -465 -195q-153 0 -288 66l-99 -205q-9 -20 -35 -20q-20 0 -20 14q0 6 6 18l105 215q-146 88 -229 245t-83 347q0 293 181 486q182 194 462 194q143 0 256 -49l84 174q10 23 37 23q21 0 21 -13
q0 -7 -6 -22zM291 649q0 -349 153 -518l529 1098q-100 65 -232 65q-197 0 -323 -153q-127 -154 -127 -492zM741 2q198 0 324 156q127 157 127 491q0 393 -176 549l-535 -1104q112 -92 260 -92z" />
    <glyph glyph-name="Ugrave" unicode="&#xd9;" horiz-adv-x="1331" 
d="M915 1430l-16 4q-124 25 -399 122q-78 28 -78 76q0 30 17 47t44 17q31 0 95 -37q108 -63 256 -156q15 -8 39 -24.5t42 -26.5q9 -6 9 -12q0 -10 -9 -10zM680 -31q-528 0 -528 613v487q0 98 -14.5 136.5t-61.5 58.5q-35 18 -35 26q0 13 14 13q1 0 8.5 -1t24.5 -2.5t37 -3.5
q71 -6 115 -6t114 6q20 2 39.5 3.5t28 2.5t10.5 1q17 0 17 -13q0 -9 -46 -30q-50 -19 -65.5 -56t-15.5 -137l-3 -530q-1 -248 101.5 -377t294.5 -129q187 0 295 134.5t108 403.5v457q0 121 -28 173.5t-97 70.5q-30 9 -30 20q0 13 14 13l27 -3q26 -4 62.5 -7t61.5 -3
q46 0 101 6q16 2 30 3.5t20 2.5t7 1q14 0 14 -13q0 -11 -38 -22q-60 -19 -82.5 -65.5t-22.5 -151.5v-486q0 -301 -125 -448.5t-352 -147.5z" />
    <glyph glyph-name="Uacute" unicode="&#xda;" horiz-adv-x="1331" 
d="M469 1413q-8 0 -8 10q0 8 8 13l82 51q127 80 256 155q64 37 94 37q27 0 44.5 -16.5t17.5 -46.5q0 -48 -78 -76q-281 -99 -400 -123zM680 -31q-528 0 -528 613v487q0 98 -14.5 136.5t-61.5 58.5q-35 18 -35 26q0 13 14 13q1 0 8.5 -1t24.5 -2.5t37 -3.5q71 -6 115 -6
t114 6q20 2 39.5 3.5t28 2.5t10.5 1q17 0 17 -13q0 -9 -46 -30q-50 -19 -65.5 -56t-15.5 -137l-3 -530q-1 -248 101.5 -377t294.5 -129q187 0 295 134.5t108 403.5v457q0 121 -28 173.5t-97 70.5q-30 9 -30 20q0 13 14 13l27 -3q26 -4 62.5 -7t61.5 -3q46 0 101 6
q16 2 30 3.5t20 2.5t7 1q14 0 14 -13q0 -11 -38 -22q-60 -19 -82.5 -65.5t-22.5 -151.5v-486q0 -301 -125 -448.5t-352 -147.5z" />
    <glyph glyph-name="Ucircumflex" unicode="&#xdb;" horiz-adv-x="1331" 
d="M422 1419q-14 0 -14 15q0 13 26 39l154 151q50 50 68 60q16 8 32 8q21 0 57 -27q8 -6 39 -37q139 -133 154 -149q31 -31 31 -45q0 -15 -15 -15q-4 0 -9 1.5t-14 6.5t-20 11.5t-32 20t-44 28t-63 39.5t-82 51h-4l-223 -139q-30 -19 -41 -19zM680 -31q-528 0 -528 613v487
q0 98 -14.5 136.5t-61.5 58.5q-35 18 -35 26q0 13 14 13q1 0 8.5 -1t24.5 -2.5t37 -3.5q71 -6 115 -6t114 6q20 2 39.5 3.5t28 2.5t10.5 1q17 0 17 -13q0 -9 -46 -30q-50 -19 -65.5 -56t-15.5 -137l-3 -530q-1 -248 101.5 -377t294.5 -129q187 0 295 134.5t108 403.5v457
q0 121 -28 173.5t-97 70.5q-30 9 -30 20q0 13 14 13l27 -3q26 -4 62.5 -7t61.5 -3q46 0 101 6q16 2 30 3.5t20 2.5t7 1q14 0 14 -13q0 -11 -38 -22q-60 -19 -82.5 -65.5t-22.5 -151.5v-486q0 -301 -125 -448.5t-352 -147.5z" />
    <glyph glyph-name="Udieresis" unicode="&#xdc;" horiz-adv-x="1331" 
d="M608 1438q-26 -25 -67 -25t-70 25q-26 26 -26 67t26 66q26 26 69.5 26t69.5 -26q27 -25 27 -66t-29 -67zM838 1413q-42 0 -69.5 25.5t-27.5 66.5t27.5 66.5t69.5 25.5q59 6 83.5 -43t0 -98t-83.5 -43zM680 -31q-528 0 -528 613v487q0 98 -14.5 136.5t-61.5 58.5
q-35 18 -35 26q0 13 14 13q1 0 8.5 -1t24.5 -2.5t37 -3.5q71 -6 115 -6t114 6q20 2 39.5 3.5t28 2.5t10.5 1q17 0 17 -13q0 -9 -46 -30q-50 -19 -65.5 -56t-15.5 -137l-3 -530q-1 -248 101.5 -377t294.5 -129q187 0 295 134.5t108 403.5v457q0 121 -28 173.5t-97 70.5
q-30 9 -30 20q0 13 14 13l27 -3q26 -4 62.5 -7t61.5 -3q46 0 101 6q16 2 30 3.5t20 2.5t7 1q14 0 14 -13q0 -11 -38 -22q-60 -19 -82.5 -65.5t-22.5 -151.5v-486q0 -301 -125 -448.5t-352 -147.5z" />
    <glyph glyph-name="Yacute" unicode="&#xdd;" horiz-adv-x="1255" 
d="M416 1411q-8 0 -8 10q0 8 8 13l82 51q127 80 256 155q64 37 94 37q27 0 44 -16.5t17 -46.5q0 -48 -78 -76q-282 -99 -399 -123zM434 -14q-17 0 -17 9q1 14 46 32q46 15 61 53q20 45 23 123q6 82 6 299q0 47 -41 106l-283 453q-68 113 -108 156q-32 37 -80 53
q-33 13 -31 25q2 8 17 8q1 0 8 -1t23.5 -2.5t35.5 -3.5q68 -6 115 -6q49 0 125 6q22 2 42 3.5t28.5 2.5t9.5 1q17 0 17 -9q-1 -12 -34 -25q-1 -1 -2 -1q-47 -21 -47 -45q0 -40 68 -170q74 -137 276 -465l193 315q116 192 116 266q0 82 -110 103q-22 1 -23 16q3 13 19 15
q1 0 9.5 -1t28 -2.5t40.5 -3.5q77 -6 118 -6q27 0 82 6q17 2 32.5 3.5t22 2.5t7.5 1q12 0 16.5 -6t0 -13.5t-16.5 -11.5q-55 -18 -90 -53q-30 -30 -90 -127l-320 -510q-10 -17 -10 -29q0 -397 18 -459q12 -41 56 -59q2 -2 14 -6q46 -20 43 -35q-2 -8 -14 -8q-11 0 -82 8
q-76 6 -113 6q-50 0 -123 -8z" />
    <glyph glyph-name="Thorn" unicode="&#xde;" horiz-adv-x="1243" 
d="M141 -14q-14 0 -14 12q0 9 27 18l20 7q25 10 35 16t20 25.5t15 56.5q10 65 10 135q2 51 2 252v336q-3 248 -18 325q-15 75 -64 97q-47 15 -47 26q0 13 14 13l14 -1q14 -2 36 -4t47.5 -4.5t52.5 -4t47 -1.5q52 0 135 6q82 9 88 9q14 0 14 -11q0 -14 -53 -26
q-65 -21 -80 -64q-16 -43 -16 -155q0 -11 10 -11q115 27 221 27q229 0 367 -111q141 -108 141 -284q0 -177 -139 -289q-138 -111 -367 -111q-29 0 -62.5 3t-61 7t-50 7.5t-35.5 6.5l-14 3q-10 0 -10 -10q3 -152 18 -201q18 -46 78 -61q53 -12 53 -29q0 -10 -14 -10
q-149 14 -223 14q-20 0 -47 -1.5t-52.5 -3.5t-47.5 -4t-36 -3zM618 311q164 0 264 95.5t99 263.5q1 167 -97.5 260.5t-260.5 93.5q-157 0 -187 -47q-14 -20 -14 -240v-69q0 -295 12 -316q30 -41 184 -41z" />
    <glyph glyph-name="germandbls" unicode="&#xdf;" horiz-adv-x="1052" 
d="M805 492q101 -78 144.5 -141t43.5 -140q0 -104 -79.5 -173t-196.5 -69q-72 0 -139 33q-72 35 -80 35q-25 0 -31 -41q-1 -12 -8.5 -16.5t-15 0t-7.5 16.5v7q0 7 0.5 17.5t1 22.5t0.5 25v22q0 50 -6 117q-1 21 -2 38.5t-2 25.5v8q0 14 12 13q13 -2 19 -20
q43 -141 104.5 -206.5t153.5 -65.5q69 0 114.5 41.5t45.5 108.5q0 55 -30.5 99.5t-109.5 106.5l-164 127q-118 90 -118 213q0 52 24 96.5t84 114.5l53 60l54 59q45 62 45 127q0 56 -43 93.5t-115 37.5q-102 0 -163.5 -71t-61.5 -209v-865q0 -15 1 -34t2 -35.5t2 -30.5t2 -23
l1 -8q0 -14 -14 -14h-8q-7 1 -18 2t-23 2t-25.5 1.5t-22.5 0.5q-16 0 -90 -4q-15 -1 -28.5 -2t-19.5 -1.5t-7 -0.5q-14 0 -14 12q0 17 36 31q50 23 66 65q16 43 16 150v498q-15 0 -37.5 -1t-39.5 -1.5t-19 -0.5q-17 0 -23.5 13.5t0 27t23.5 13.5l96 -4v92q0 223 99 325
q103 103 248 103q101 0 158 -47t57 -117q0 -47 -20.5 -91.5t-50 -79t-59.5 -67.5t-50.5 -70.5t-20.5 -74.5q0 -76 104 -158z" />
    <glyph glyph-name="agrave" unicode="&#xe0;" horiz-adv-x="999" 
d="M233 1141q-65 47 -59 86q12 60 70 51q28 -6 84 -59q46 -44 225 -232q6 -8 20.5 -21.5t20.5 -21.5q7 -7 4 -12q-3 -8 -10 -8q-2 2 -4 2q-2 2 -6 2q-125 63 -345 213zM958 102q15 0 15 -16q0 -117 -135 -117q-85 0 -123.5 44.5t-38.5 144.5v28q-40 -102 -131.5 -159.5
t-200.5 -57.5q-122 0 -190 51.5t-68 143.5q0 150 172 209q152 54 418 69v70q0 285 -242 285q-77 0 -125.5 -27t-48.5 -65q0 -11 18.5 -47.5t18.5 -55.5q5 -43 -44 -63q-51 -20 -96 3q-47 24 -42 83q0 83 90.5 142.5t247.5 59.5q385 0 385 -372v-338q0 -90 49 -90q50 0 53 57
q3 18 18 18zM395 16q113 0 197 90q84 93 84 252v58q-296 -18 -379 -86q-61 -49 -61 -146q0 -168 159 -168z" />
    <glyph glyph-name="aacute" unicode="&#xe1;" horiz-adv-x="999" 
d="M293 924q-7 0 -10 8q-3 5 4 12q270 282 309 313q30 19 41 21q58 9 70 -51q6 -39 -60 -86q-223 -152 -344 -213q-6 0 -10 -4zM958 102q15 0 15 -16q0 -117 -135 -117q-85 0 -123.5 44.5t-38.5 144.5v28q-40 -102 -131.5 -159.5t-200.5 -57.5q-122 0 -190 51.5t-68 143.5
q0 150 172 209q152 54 418 69v70q0 285 -242 285q-77 0 -125.5 -27t-48.5 -65q0 -11 18.5 -47.5t18.5 -55.5q5 -43 -44 -63q-51 -20 -96 3q-47 24 -42 83q0 83 90.5 142.5t247.5 59.5q385 0 385 -372v-338q0 -90 49 -90q50 0 53 57q3 18 18 18zM395 16q113 0 197 90
q84 93 84 252v58q-296 -18 -379 -86q-61 -49 -61 -146q0 -168 159 -168z" />
    <glyph glyph-name="acircumflex" unicode="&#xe2;" horiz-adv-x="999" 
d="M201 1022q-15 0 -15 14q0 15 84 111l101 113q26 32 43.5 41.5t52.5 9.5q34 0 50 -8.5t42 -36.5q177 -201 184 -215q1 -2 2 -5.5t2 -5.5t1 -4q0 -14 -15 -14q-11 0 -115 78q-24 18 -75 56.5t-74 57.5h-4l-121 -94q-125 -98 -143 -98zM958 102q15 0 15 -16
q0 -117 -135 -117q-85 0 -123.5 44.5t-38.5 144.5v28q-40 -102 -131.5 -159.5t-200.5 -57.5q-122 0 -190 51.5t-68 143.5q0 150 172 209q152 54 418 69v70q0 285 -242 285q-77 0 -125.5 -27t-48.5 -65q0 -11 18.5 -47.5t18.5 -55.5q5 -43 -44 -63q-51 -20 -96 3
q-47 24 -42 83q0 83 90.5 142.5t247.5 59.5q385 0 385 -372v-338q0 -90 49 -90q50 0 53 57q3 18 18 18zM395 16q113 0 197 90q84 93 84 252v58q-296 -18 -379 -86q-61 -49 -61 -146q0 -168 159 -168z" />
    <glyph glyph-name="atilde" unicode="&#xe3;" horiz-adv-x="999" 
d="M188 1040q5 90 38 142.5t93 52.5q57 0 146 -47q86 -45 127 -45q65 3 74 67q3 21 16 21q16 0 16 -23q0 -71 -34 -119.5t-93 -48.5q-51 0 -137 45q-87 43 -125 43q-36 -2 -56 -21t-32 -65q-3 -15 -11 -20.5t-15 0t-7 18.5zM958 102q15 0 15 -16q0 -117 -135 -117
q-85 0 -123.5 44.5t-38.5 144.5v28q-40 -102 -131.5 -159.5t-200.5 -57.5q-122 0 -190 51.5t-68 143.5q0 150 172 209q152 54 418 69v70q0 285 -242 285q-77 0 -125.5 -27t-48.5 -65q0 -11 18.5 -47.5t18.5 -55.5q5 -43 -44 -63q-51 -20 -96 3q-47 24 -42 83
q0 83 90.5 142.5t247.5 59.5q385 0 385 -372v-338q0 -90 49 -90q50 0 53 57q3 18 18 18zM395 16q113 0 197 90q84 93 84 252v58q-296 -18 -379 -86q-61 -49 -61 -146q0 -168 159 -168z" />
    <glyph glyph-name="adieresis" unicode="&#xe4;" horiz-adv-x="999" 
d="M217 1075q-6 56 45.5 79.5t102.5 0t45 -79.5q6 -58 -45 -82t-102.5 0t-45.5 82zM514 1075q0 38 27.5 64t68.5 26q43 0 70 -24.5t27 -65.5q6 -58 -45 -82t-102.5 0t-45.5 82zM958 102q15 0 15 -16q0 -117 -135 -117q-85 0 -123.5 44.5t-38.5 144.5v28
q-40 -102 -131.5 -159.5t-200.5 -57.5q-122 0 -190 51.5t-68 143.5q0 150 172 209q152 54 418 69v70q0 285 -242 285q-77 0 -125.5 -27t-48.5 -65q0 -11 18.5 -47.5t18.5 -55.5q5 -43 -44 -63q-51 -20 -96 3q-47 24 -42 83q0 83 90.5 142.5t247.5 59.5q385 0 385 -372v-338
q0 -90 49 -90q50 0 53 57q3 18 18 18zM395 16q113 0 197 90q84 93 84 252v58q-296 -18 -379 -86q-61 -49 -61 -146q0 -168 159 -168z" />
    <glyph glyph-name="aring" unicode="&#xe5;" horiz-adv-x="999" 
d="M475 1012q-69 0 -114.5 40t-45.5 101q0 62 45 101.5t115 39.5q72 0 116 -39t44 -102q0 -62 -44.5 -101.5t-115.5 -39.5zM561 1153q0 115 -86 115t-86 -115t86 -115t86 115zM958 102q15 0 15 -16q0 -117 -135 -117q-85 0 -123.5 44.5t-38.5 144.5v28
q-40 -102 -131.5 -159.5t-200.5 -57.5q-122 0 -190 51.5t-68 143.5q0 150 172 209q152 54 418 69v70q0 285 -242 285q-77 0 -125.5 -27t-48.5 -65q0 -11 18.5 -47.5t18.5 -55.5q5 -43 -44 -63q-51 -20 -96 3q-47 24 -42 83q0 83 90.5 142.5t247.5 59.5q385 0 385 -372v-338
q0 -90 49 -90q50 0 53 57q3 18 18 18zM395 16q113 0 197 90q84 93 84 252v58q-296 -18 -379 -86q-61 -49 -61 -146q0 -168 159 -168z" />
    <glyph glyph-name="ae" unicode="&#xe6;" horiz-adv-x="1511" 
d="M1432 242q12 0 12 -11q0 -1 -0.5 -3.5l-1.5 -7.5t-2 -9q-33 -106 -131 -174t-234 -68q-140 0 -242.5 71.5t-146.5 192.5q-31 -126 -127.5 -195t-222.5 -69q-116 0 -183 53t-67 146q0 125 139 190q142 66 432 84v54q0 301 -233 301q-77 0 -124.5 -27t-47.5 -65
q0 -11 15.5 -46t15.5 -51q0 -33 -23 -54.5t-61 -21.5q-41 0 -63.5 25t-22.5 68q0 83 86.5 142.5t234.5 59.5q228 0 314 -153q117 153 329 153q155 0 256 -90q101 -88 101 -217q0 -35 -12.5 -48t-43.5 -13l-563 2v-33v-31q0 -173 78 -272.5t217 -99.5q119 0 201 61
q82 64 106 141q6 15 15 15zM1075 799q-109 0 -175.5 -78t-80.5 -219l453 2q13 0 16.5 6.5t3.5 32.5q0 113 -57.5 184.5t-159.5 71.5zM381 16q111 0 190 74.5t97 206.5q-11 68 -11 102v4v11q-278 -15 -364 -86q-62 -56 -62 -146q0 -166 150 -166z" />
    <glyph glyph-name="ccedilla" unicode="&#xe7;" horiz-adv-x="925" 
d="M870 248v-4q-22 -118 -107 -193t-235 -82l-26 -82q180 -27 180 -139q0 -55 -46.5 -90t-111.5 -35q-44 0 -78 11.5t-46.5 21.5t-12.5 14q0 13 12 13l5 -3q6 -2 15 -6t20 -7.5t25.5 -6t27.5 -2.5q42 0 66 23.5t24 62.5q0 42 -25.5 64.5t-89.5 41.5q-12 3 -12 17q0 7 6 22
l28 80q-181 3 -294 119q-115 121 -115 305q0 200 125 316q124 118 307 118q96 0 170 -26l80 -25q27 0 39 39q6 16 18 16q15 0 15 -18q0 -45 2.5 -92.5t6 -83t7 -64t6 -43.5t2.5 -14q0 -16 -16 -16q-13 0 -19 20q-38 150 -106 213.5t-187 63.5q-110 0 -200 -90
q-88 -88 -88 -293q0 -180 84 -283.5t217 -103.5q232 0 299 217q6 16 16 16q12 0 12 -12z" />
    <glyph glyph-name="egrave" unicode="&#xe8;" horiz-adv-x="950" 
d="M270 1141q-65 47 -59 86q12 60 70 51q28 -6 84 -59q46 -44 225 -232q6 -8 20.5 -21.5t20.5 -21.5q7 -7 4 -12q-3 -8 -10 -8q-2 2 -4 2q-2 2 -7 2q-121 61 -344 213zM870 242q11 0 11 -11q0 -1 -0.5 -3.5l-1.5 -7.5t-2 -9q-33 -106 -132 -174t-237 -68q-197 0 -313 125
q-115 127 -115 305q0 184 119 306t309 122q161 0 262 -88q102 -88 102 -219q0 -36 -11.5 -49.5t-43.5 -13.5l-577 2q-2 -10 -2 -49q0 -182 79.5 -284.5t225.5 -102.5q113 0 199 60t114 144q3 15 14 15zM506 799q-111 0 -179 -79.5t-85 -223.5l471 4q13 0 16.5 6.5t3.5 32.5
q0 115 -60.5 187.5t-166.5 72.5z" />
    <glyph glyph-name="eacute" unicode="&#xe9;" horiz-adv-x="950" 
d="M330 924q-8 0 -11 8q-2 5 5 12q270 282 309 313q30 19 41 21q57 9 69 -51q6 -39 -59 -86q-223 -152 -344 -213q-6 0 -10 -4zM870 242q11 0 11 -11q0 -1 -0.5 -3.5l-1.5 -7.5t-2 -9q-33 -106 -132 -174t-237 -68q-197 0 -313 125q-115 127 -115 305q0 184 119 306t309 122
q161 0 262 -88q102 -88 102 -219q0 -36 -11.5 -49.5t-43.5 -13.5l-577 2q-2 -10 -2 -49q0 -182 79.5 -284.5t225.5 -102.5q113 0 199 60t114 144q3 15 14 15zM506 799q-111 0 -179 -79.5t-85 -223.5l471 4q13 0 16.5 6.5t3.5 32.5q0 115 -60.5 187.5t-166.5 72.5z" />
    <glyph glyph-name="ecircumflex" unicode="&#xea;" horiz-adv-x="950" 
d="M238 1022q-15 0 -15 14q0 15 84 111l101 113q26 32 43.5 41.5t52.5 9.5q34 0 50 -8.5t42 -36.5q177 -201 184 -215q4 -12 4 -15q0 -14 -14 -14q-11 0 -115 78q-24 18 -75 56.5t-74 57.5h-4l-121 -94q-125 -98 -143 -98zM870 242q11 0 11 -11q0 -1 -0.5 -3.5l-1.5 -7.5
t-2 -9q-33 -106 -132 -174t-237 -68q-197 0 -313 125q-115 127 -115 305q0 184 119 306t309 122q161 0 262 -88q102 -88 102 -219q0 -36 -11.5 -49.5t-43.5 -13.5l-577 2q-2 -10 -2 -49q0 -182 79.5 -284.5t225.5 -102.5q113 0 199 60t114 144q3 15 14 15zM506 799
q-111 0 -179 -79.5t-85 -223.5l471 4q13 0 16.5 6.5t3.5 32.5q0 115 -60.5 187.5t-166.5 72.5z" />
    <glyph glyph-name="edieresis" unicode="&#xeb;" horiz-adv-x="950" 
d="M254 1075q-6 56 45 79.5t102 0t45 -79.5q6 -58 -45 -82t-102 0t-45 82zM551 1075q0 38 27.5 64t68.5 26q43 0 69.5 -24.5t26.5 -65.5q6 -58 -45 -82t-102 0t-45 82zM870 242q11 0 11 -11q0 -1 -0.5 -3.5l-1.5 -7.5t-2 -9q-33 -106 -132 -174t-237 -68q-197 0 -313 125
q-115 127 -115 305q0 184 119 306t309 122q161 0 262 -88q102 -88 102 -219q0 -36 -11.5 -49.5t-43.5 -13.5l-577 2q-2 -10 -2 -49q0 -182 79.5 -284.5t225.5 -102.5q113 0 199 60t114 144q3 15 14 15zM506 799q-111 0 -179 -79.5t-85 -223.5l471 4q13 0 16.5 6.5t3.5 32.5
q0 115 -60.5 187.5t-166.5 72.5z" />
    <glyph glyph-name="igrave" unicode="&#xec;" horiz-adv-x="567" 
d="M387 924q-2 2 -4 2q-2 2 -6 2q-121 61 -344 213q-66 47 -60 86q12 60 70 51q28 -6 84 -59q46 -44 225 -232l41 -43q7 -7 4 -12q-3 -8 -10 -8zM111 -10q-15 0 -15 12t25 21q66 15 78 49q14 32 14 147v338q0 94 -16 131q-14 32 -84 51q-25 6 -25 17t21 14q50 2 93.5 9
t70.5 15.5t47 16t30.5 13t11.5 5.5q15 0 15 -14q0 -2 -4.5 -20t-5.5 -31q-11 -79 -11 -199v-340q0 -109 17 -151q16 -36 84 -54q23 -6 22 -19q0 -11 -14 -11q-5 0 -76 6q-90 4 -106 4q-15 0 -101 -4q-65 -6 -71 -6z" />
    <glyph glyph-name="iacute" unicode="&#xed;" horiz-adv-x="567" 
d="M92 924q-7 0 -10 8q-3 5 4 12q270 282 309 313q30 19 41 21q58 9 70 -51q6 -39 -60 -86q-223 -152 -344 -213q-6 0 -10 -4zM111 -10q-15 0 -15 12t25 21q66 15 78 49q14 32 14 147v338q0 94 -16 131q-14 32 -84 51q-25 6 -25 17t21 14q50 2 93.5 9t70.5 15.5t47 16
t30.5 13t11.5 5.5q15 0 15 -14q0 -2 -4.5 -20t-5.5 -31q-11 -79 -11 -199v-340q0 -109 17 -151q16 -36 84 -54q23 -6 22 -19q0 -11 -14 -11q-5 0 -76 6q-90 4 -106 4q-15 0 -101 -4q-65 -6 -71 -6z" />
    <glyph glyph-name="icircumflex" unicode="&#xee;" horiz-adv-x="567" 
d="M55 1016q-12 0 -12 14q0 24 141 221q47 72 80 72q31 0 78 -68q141 -203 141 -225q0 -14 -10 -14q-12 0 -88 76q-25 27 -69 69.5t-50 48.5h-4l-84 -84q-71 -72 -92 -91t-31 -19zM111 -10q-15 0 -15 12t25 21q66 15 78 49q14 32 14 147v338q0 94 -16 131q-14 32 -84 51
q-25 6 -25 17t21 14q50 2 93.5 9t70.5 15.5t47 16t30.5 13t11.5 5.5q15 0 15 -14q0 -2 -4.5 -20t-5.5 -31q-11 -79 -11 -199v-340q0 -109 17 -151q16 -36 84 -54q23 -6 22 -19q0 -11 -14 -11q-5 0 -76 6q-90 4 -106 4q-15 0 -101 -4q-65 -6 -71 -6z" />
    <glyph glyph-name="idieresis" unicode="&#xef;" horiz-adv-x="567" 
d="M209 1075q6 -58 -45 -82t-102.5 0t-45.5 82q-6 56 45 79.5t102.5 0t45.5 -79.5zM410 1165q43 0 69.5 -24.5t26.5 -65.5q6 -58 -45 -82t-102.5 0t-45.5 82q0 38 28 64t69 26zM111 -10q-15 0 -15 12t25 21q66 15 78 49q14 32 14 147v338q0 94 -16 131q-14 32 -84 51
q-25 6 -25 17t21 14q50 2 93.5 9t70.5 15.5t47 16t30.5 13t11.5 5.5q15 0 15 -14q0 -2 -4.5 -20t-5.5 -31q-11 -79 -11 -199v-340q0 -109 17 -151q16 -36 84 -54q23 -6 22 -19q0 -11 -14 -11q-5 0 -76 6q-90 4 -106 4q-15 0 -101 -4q-65 -6 -71 -6z" />
    <glyph glyph-name="eth" unicode="&#xf0;" horiz-adv-x="1026" 
d="M596 1102q350 -156 350 -572q0 -228 -110 -393q-108 -166 -322 -166q-182 0 -309 109q-125 110 -125 291q0 179 113 286q115 109 274 109q116 0 195 -54.5t108 -162.5q-1 196 -37.5 306.5t-111.5 168.5q-3 2 -13 8.5t-24 15t-29 17.5l-223 -201q-17 -14 -27 -14
q-18 0 -18 18q0 14 14 25l211 190q-136 54 -301 54q-25 0 -25 18q0 16 25 16q189 0 340 -53l168 150q8 8 18 8q19 0 19 -21q0 -9 -11 -20zM762 358v43q0 155 -73.5 242.5t-194.5 87.5q-110 0 -178 -90.5t-68 -271.5q0 -184 72 -276.5t194 -92.5q118 0 183 91t65 267z" />
    <glyph glyph-name="ntilde" unicode="&#xf1;" horiz-adv-x="1103" 
d="M295 1040q5 90 38 142.5t93 52.5q56 0 145 -47q86 -45 127 -45q65 3 74 67q3 21 16 21q17 0 17 -23q0 -71 -34 -119.5t-93 -48.5q-51 0 -137 45q-87 43 -125 43q-36 -2 -56 -21t-32 -65q-3 -15 -11 -20.5t-15 0t-7 18.5zM997 27q27 -15 27 -25q0 -12 -14 -12q-6 0 -62 6
q-74 4 -88 4t-84 -4q-52 -6 -57 -6q-14 0 -14 12q0 11 24 23q38 15 49 47q13 37 13 135v330q0 239 -183 239q-115 0 -196 -106q-80 -109 -80 -291v-174q0 -107 12 -137t59 -45q25 -8 25 -22q-1 -11 -14 -11q-4 0 -60 6q-74 4 -90 4q-14 0 -92 -4l-57 -6q-13 0 -14 11
q-1 14 26 22q41 14 51 47t10 139v350q0 89 -16.5 124.5t-60.5 47.5q-33 8 -32 22q1 12 23 13q46 4 100.5 19t89.5 29l34 13q12 0 12 -14v-3q-1 -4 -2.5 -11t-2.5 -18t-3 -25t-3 -32t-2.5 -38.5t-2 -45t-1 -51.5t0.5 -57q29 139 113 217t202 78q154 0 226.5 -80.5
t72.5 -252.5v-287q0 -105 10 -135t51 -45z" />
    <glyph glyph-name="ograve" unicode="&#xf2;" horiz-adv-x="1007" 
d="M631 924q-2 2 -4 2q-2 2 -6 2q-125 63 -345 213q-65 47 -59 86q12 60 70 51q28 -6 84 -59q46 -44 225 -232q6 -8 20.5 -21.5t20.5 -21.5q7 -7 4 -12q-3 -8 -10 -8zM930 397q0 -187 -117 -307q-118 -121 -309 -121t-309 121q-115 121 -115 307q0 189 115 310
q117 120 309 120t309 -120t117 -310zM504 -2q266 3 266 399q0 402 -266 402q-264 0 -264 -402q0 -396 264 -399z" />
    <glyph glyph-name="oacute" unicode="&#xf3;" horiz-adv-x="1007" 
d="M336 924q-7 0 -10 8q-3 5 4 12q270 282 309 313q30 19 41 21q58 9 70 -51q6 -39 -60 -86q-223 -152 -344 -213q-6 0 -10 -4zM930 397q0 -187 -117 -307q-118 -121 -309 -121t-309 121q-115 121 -115 307q0 189 115 310q117 120 309 120t309 -120t117 -310zM504 -2
q266 3 266 399q0 402 -266 402q-264 0 -264 -402q0 -396 264 -399z" />
    <glyph glyph-name="ocircumflex" unicode="&#xf4;" horiz-adv-x="1007" 
d="M244 1022q-15 0 -15 14q0 15 84 111l101 113q26 32 43.5 41.5t52.5 9.5q34 0 50 -8.5t42 -36.5q177 -201 184 -215q1 -2 2 -5.5t2 -5.5t1 -4q0 -14 -15 -14q-10 0 -114 78q-25 19 -76 57t-74 57h-4l-121 -94q-125 -98 -143 -98zM930 397q0 -187 -117 -307
q-118 -121 -309 -121t-309 121q-115 121 -115 307q0 189 115 310q117 120 309 120t309 -120t117 -310zM504 -2q266 3 266 399q0 402 -266 402q-264 0 -264 -402q0 -396 264 -399z" />
    <glyph glyph-name="otilde" unicode="&#xf5;" horiz-adv-x="1007" 
d="M231 1040q5 90 38 142.5t93 52.5q57 0 146 -47q86 -45 127 -45q65 3 74 67q3 21 16 21q16 0 16 -23q0 -71 -34 -119.5t-93 -48.5q-51 0 -137 45q-87 43 -125 43q-36 -2 -56 -21t-32 -65q-3 -15 -11 -20.5t-15 0t-7 18.5zM930 397q0 -187 -117 -307q-118 -121 -309 -121
t-309 121q-115 121 -115 307q0 189 115 310q117 120 309 120t309 -120t117 -310zM504 -2q266 3 266 399q0 402 -266 402q-264 0 -264 -402q0 -396 264 -399z" />
    <glyph glyph-name="odieresis" unicode="&#xf6;" horiz-adv-x="1007" 
d="M453 1075q6 -58 -45.5 -82t-102.5 0t-45 82q-6 56 45 79.5t102.5 0t45.5 -79.5zM653 1165q43 0 70 -24.5t27 -65.5q6 -58 -45 -82t-102.5 0t-45.5 82q0 38 27.5 64t68.5 26zM930 397q0 -187 -117 -307q-118 -121 -309 -121t-309 121q-115 121 -115 307q0 189 115 310
q117 120 309 120t309 -120t117 -310zM504 -2q266 3 266 399q0 402 -266 402q-264 0 -264 -402q0 -396 264 -399z" />
    <glyph glyph-name="divide" unicode="&#xf7;" horiz-adv-x="1146" 
d="M565 860q60 0 60 -57q0 -26 -17 -42t-43 -16t-41 18t-15 39.5t15 39.5t41 18zM258 567h631q17 0 17 -24.5t-17 -24.5h-631q-17 0 -17 24.5t17 24.5zM565 332q60 0 60 -58q0 -26 -16.5 -41.5t-43.5 -15.5q-26 0 -41 18t-15 39.5t15 39.5t41 18z" />
    <glyph glyph-name="oslash" unicode="&#xf8;" horiz-adv-x="1009" 
d="M764 750q166 -120 166 -351q0 -187 -117 -307q-118 -121 -309 -121q-114 0 -205 45l-100 -159q-8 -13 -22 -18t-24 -1.5t-10 12.5q0 5 7 19l108 172q-178 117 -178 358q0 187 115 308q117 120 309 120q127 0 219 -51l102 162q16 23 37 23t21 -13t-6 -22zM240 399
q0 -192 61 -290l385 610q-65 80 -182 80q-264 0 -264 -400zM504 0q266 0 266 399q0 172 -53 275l-385 -606q68 -68 172 -68z" />
    <glyph glyph-name="ugrave" unicode="&#xf9;" horiz-adv-x="1050" 
d="M297 1141q-65 47 -59 86q12 60 69 51q28 -6 84 -59q46 -44 225 -232q6 -8 20.5 -21.5t20.5 -21.5q7 -7 5 -12q-3 -8 -11 -8q-2 2 -4 2q-2 2 -6 2q-121 61 -344 213zM979 49q19 -7 25.5 -14t1.5 -12.5t-21 -8.5q-51 -2 -96.5 -11t-70.5 -17.5t-27 -8.5q-16 0 -19 17
q-12 128 -14 231q-59 -256 -316 -256q-142 0 -213 78.5t-71 247.5v278q0 90 -11.5 121.5t-50.5 50.5q-24 8 -31.5 13t-7.5 14q0 12 21 12q42 0 94.5 8.5t88.5 17.5l36 9q18 0 18 -20q-12 -58 -12 -228v-284q0 -260 191 -260q109 0 178.5 90t75.5 239q0 138 -3 203
q-4 78 -10 109q-7 42 -17.5 54.5t-37.5 20.5q-4 2 -11 4t-10 3t-7 3l-6 3t-4 3t-2.5 5t-0.5 6q0 14 20 14q25 0 51 2t48 5t43 7t37.5 7.5t28.5 6.5t19 5l7 2q14 0 14 -12q0 -1 -1.5 -8.5t-4 -21.5t-5 -32t-4 -43.5t-1.5 -52.5v-434q0 -86 18.5 -119t69.5 -47z" />
    <glyph glyph-name="uacute" unicode="&#xfa;" horiz-adv-x="1050" 
d="M356 924q-7 0 -10 8q-3 5 4 12q270 282 309 313q30 19 41 21q58 9 70 -51q6 -39 -59 -86q-223 -152 -344 -213q-7 0 -11 -4zM979 49q19 -7 25.5 -14t1.5 -12.5t-21 -8.5q-51 -2 -96.5 -11t-70.5 -17.5t-27 -8.5q-16 0 -19 17q-12 128 -14 231q-59 -256 -316 -256
q-142 0 -213 78.5t-71 247.5v278q0 90 -11.5 121.5t-50.5 50.5q-24 8 -31.5 13t-7.5 14q0 12 21 12q42 0 94.5 8.5t88.5 17.5l36 9q18 0 18 -20q-12 -58 -12 -228v-284q0 -260 191 -260q109 0 178.5 90t75.5 239q0 138 -3 203q-4 78 -10 109q-7 42 -17.5 54.5t-37.5 20.5
q-4 2 -11 4t-10 3t-7 3l-6 3t-4 3t-2.5 5t-0.5 6q0 14 20 14q25 0 51 2t48 5t43 7t37.5 7.5t28.5 6.5t19 5l7 2q14 0 14 -12q0 -1 -1.5 -8.5t-4 -21.5t-5 -32t-4 -43.5t-1.5 -52.5v-434q0 -86 18.5 -119t69.5 -47z" />
    <glyph glyph-name="ucircumflex" unicode="&#xfb;" horiz-adv-x="1050" 
d="M258 965q-14 0 -14 14q0 15 84 111l100 112q26 32 43.5 41.5t52.5 9.5q34 0 50 -8.5t42 -36.5q179 -203 185 -215q4 -12 4 -14q0 -14 -14 -14q-12 0 -115 77q-23 18 -74.5 57t-75.5 58h-4q-238 -183 -252 -188q-8 -4 -12 -4zM979 49q19 -7 25.5 -14t1.5 -12.5t-21 -8.5
q-51 -2 -96.5 -11t-70.5 -17.5t-27 -8.5q-16 0 -19 17q-12 128 -14 231q-59 -256 -316 -256q-142 0 -213 78.5t-71 247.5v278q0 90 -11.5 121.5t-50.5 50.5q-24 8 -31.5 13t-7.5 14q0 12 21 12q42 0 94.5 8.5t88.5 17.5l36 9q18 0 18 -20q-12 -58 -12 -228v-284
q0 -260 191 -260q109 0 178.5 90t75.5 239q0 138 -3 203q-4 78 -10 109q-7 42 -17.5 54.5t-37.5 20.5q-4 2 -11 4t-10 3t-7 3l-6 3t-4 3t-2.5 5t-0.5 6q0 14 20 14q25 0 51 2t48 5t43 7t37.5 7.5t28.5 6.5t19 5l7 2q14 0 14 -12q0 -1 -1.5 -8.5t-4 -21.5t-5 -32t-4 -43.5
t-1.5 -52.5v-434q0 -86 18.5 -119t69.5 -47z" />
    <glyph glyph-name="udieresis" unicode="&#xfc;" horiz-adv-x="1050" 
d="M281 1075q-6 56 45 79.5t102 0t45 -79.5q6 -58 -45 -82t-102 0t-45 82zM578 1075q0 38 27.5 64t68.5 26q43 0 69.5 -24.5t26.5 -65.5q6 -58 -45 -82t-102 0t-45 82zM979 49q19 -7 25.5 -14t1.5 -12.5t-21 -8.5q-51 -2 -96.5 -11t-70.5 -17.5t-27 -8.5q-16 0 -19 17
q-12 128 -14 231q-59 -256 -316 -256q-142 0 -213 78.5t-71 247.5v278q0 90 -11.5 121.5t-50.5 50.5q-24 8 -31.5 13t-7.5 14q0 12 21 12q42 0 94.5 8.5t88.5 17.5l36 9q18 0 18 -20q-12 -58 -12 -228v-284q0 -260 191 -260q109 0 178.5 90t75.5 239q0 138 -3 203
q-4 78 -10 109q-7 42 -17.5 54.5t-37.5 20.5q-4 2 -11 4t-10 3t-7 3l-6 3t-4 3t-2.5 5t-0.5 6q0 14 20 14q25 0 51 2t48 5t43 7t37.5 7.5t28.5 6.5t19 5l7 2q14 0 14 -12q0 -1 -1.5 -8.5t-4 -21.5t-5 -32t-4 -43.5t-1.5 -52.5v-434q0 -86 18.5 -119t69.5 -47z" />
    <glyph glyph-name="yacute" unicode="&#xfd;" horiz-adv-x="966" 
d="M338 924q-7 0 -10 8q-3 5 4 12q270 282 309 313q30 19 41 21q58 9 70 -51q6 -39 -60 -86q-223 -152 -344 -213q-6 0 -10 -4zM143 -244q27 0 70 -37q44 -38 74 -38q38 0 98 106q64 107 64 162q0 61 -109 309q-108 249 -184 401q-24 53 -45 75t-58 36q-45 14 -45 31
q0 12 19 12q10 0 65 -8q64 -6 101 -6q33 0 94 6t69 6q16 0 17 -12q2 -16 -31 -24q-2 -1 -4 -1q-37 -12 -37 -55q0 -35 96 -273q82 -202 138 -317q3 -6 6 -6t6 8l67 160q54 121 107 258q47 121 47 164q0 27 -18 41t-68 24q-25 4 -25 19q0 14 19 14l49 -6q49 -6 82 -6
q35 0 84 6t51 6q16 0 16 -14q0 -16 -20 -19q-55 -10 -85 -40.5t-62 -108.5l-308 -717q-71 -172 -140.5 -257t-158.5 -85q-56 0 -89.5 25.5t-33.5 72.5q0 40 24 64t58 24z" />
    <glyph glyph-name="thorn" unicode="&#xfe;" horiz-adv-x="1071" 
d="M627 827q153 0 258 -114q106 -112 106 -303q0 -195 -108 -318t-267 -123q-220 0 -297 185l3 -375q0 -77 21.5 -111.5t74.5 -52.5q43 -14 41 -30q-2 -9 -15 -9q-14 0 -79 8q-74 6 -115 6q-51 0 -111 -8l-65 -6q-15 0 -14 10q1 14 36 31q51 20 66 61q16 40 16 138v956
q0 188 -16 244q-14 53 -80 88q-10 5 -20.5 10t-14.5 6.5t-7 5t-3 9.5q0 14 18 14q61 0 124.5 15.5t102.5 30.5t40 15q14 0 14 -10q0 -2 -1 -15.5t-3.5 -45.5t-5.5 -66q-11 -144 -9 -180v-277q85 211 310 211zM590 8q239 0 239 402q0 193 -63.5 285.5t-173.5 92.5
q-121 0 -191.5 -93t-81.5 -261v-92q10 -165 83 -249.5t188 -84.5z" />
    <glyph glyph-name="ydieresis" unicode="&#xff;" horiz-adv-x="966" 
d="M455 1075q6 -58 -45.5 -82t-102.5 0t-45 82q-6 56 45.5 79.5t102.5 0t45 -79.5zM655 1165q43 0 70 -24.5t27 -65.5q6 -58 -45 -82t-102.5 0t-45.5 82q0 38 27.5 64t68.5 26zM143 -244q27 0 70 -37q44 -38 74 -38q38 0 98 106q64 107 64 162q0 61 -109 309
q-108 249 -184 401q-24 53 -45 75t-58 36q-45 14 -45 31q0 12 19 12q10 0 65 -8q64 -6 101 -6q33 0 94 6t69 6q16 0 17 -12q2 -16 -31 -24q-2 -1 -4 -1q-37 -12 -37 -55q0 -35 96 -273q82 -202 138 -317q3 -6 6 -6t6 8l67 160q54 121 107 258q47 121 47 164q0 27 -18 41
t-68 24q-25 4 -25 19q0 14 19 14l49 -6q49 -6 82 -6q35 0 84 6t51 6q16 0 16 -14q0 -16 -20 -19q-55 -10 -85 -40.5t-62 -108.5l-308 -717q-71 -172 -140.5 -257t-158.5 -85q-56 0 -89.5 25.5t-33.5 72.5q0 40 24 64t58 24z" />
    <glyph glyph-name="Amacron" unicode="&#x100;" horiz-adv-x="1368" 
d="M449 1575q37 0 86 -2t112 -2q72 0 129 2t103 2q26 0 26 -21q0 -51 -35 -51q-61 0 -108 2t-107 2q-59 0 -114 -2t-101 -2q-28 0 -28 25q0 47 37 47zM899 -10q-22 0 -21 12q1 14 35 21q80 27 80 90q0 37 -86 284q-9 20 -33 23q-62 6 -301 6q-197 0 -227 -6q-21 -3 -27 -21
l-63 -180q-14 -49 -14 -84q0 -81 106 -115q31 -6 31 -18q0 -14 -19 -14q-4 0 -75 6t-109 6q-32 0 -84 -6q-49 -6 -53 -6q-21 0 -21 14q0 11 29 21q69 19 94 57q34 46 84 174q146 372 326 885q20 44 20 63q0 20 -55 41q-29 10 -29 21q0 16 21 16q23 1 46 3t43.5 5t40 6.5
t36 7.5t31 8t25.5 7.5t18.5 6t11.5 4.5l4 1q14 0 14 -14q0 -4 -7 -18t-7 -19q0 -25 14 -57l379 -1018q35 -91 59.5 -123.5t65.5 -46.5q58 -20 54 -35q-2 -8 -19 -8q-7 0 -84 6q-102 4 -127 4q-21 0 -127 -4q-77 -6 -80 -6zM586 461q209 0 274 8q17 0 17 10q0 2 -1 4.5t-2 7
t-2 7.5l-258 694q0 5 -2 7t-4.5 0t-3.5 -7l-252 -698q-1 -4 -2 -8.5t-1.5 -7t-0.5 -3.5q0 -5 10 -8q18 -6 228 -6z" />
    <glyph glyph-name="amacron" unicode="&#x101;" horiz-adv-x="999" 
d="M244 1036q-29 0 -29 25q0 47 37 47t86 -2t113 -2q72 0 129 2t102 2q27 0 27 -21q0 -51 -35 -51q-62 0 -109 2t-106 2q-60 0 -115 -2t-100 -2zM958 102q15 0 15 -16q0 -117 -135 -117q-85 0 -123.5 44.5t-38.5 144.5v28q-40 -102 -131.5 -159.5t-200.5 -57.5
q-122 0 -190 51.5t-68 143.5q0 150 172 209q152 54 418 69v70q0 285 -242 285q-77 0 -125.5 -27t-48.5 -65q0 -11 18.5 -47.5t18.5 -55.5q5 -43 -44 -63q-51 -20 -96 3q-47 24 -42 83q0 83 90.5 142.5t247.5 59.5q385 0 385 -372v-338q0 -90 49 -90q50 0 53 57q3 18 18 18z
M395 16q113 0 197 90q84 93 84 252v58q-296 -18 -379 -86q-61 -49 -61 -146q0 -168 159 -168z" />
    <glyph glyph-name="Abreve" unicode="&#x102;" horiz-adv-x="1368" 
d="M408 1628q0 21 14 21q11 0 18 -17q40 -106 219 -106q180 0 220 106q7 17 18 17q14 0 14 -19q0 -81 -68.5 -142t-183.5 -61t-183 60.5t-68 140.5zM1282 33q58 -20 54 -35q-2 -8 -19 -8q-7 0 -84 6q-102 4 -127 4q-21 0 -127 -4q-77 -6 -80 -6q-22 0 -21 12q1 14 35 21
q80 27 80 90q0 37 -86 284q-9 20 -33 23q-62 6 -301 6q-197 0 -227 -6q-21 -3 -27 -21l-63 -180q-14 -49 -14 -84q0 -81 106 -115q31 -6 31 -18q0 -14 -19 -14q-4 0 -75 6t-109 6q-32 0 -84 -6q-49 -6 -53 -6q-21 0 -21 14q0 11 29 21q69 19 94 57q34 46 84 174
q146 372 326 885q20 44 20 63q0 20 -55 41q-29 10 -29 21q0 16 21 16q23 1 46 3t43.5 5t40 6.5t36 7.5t31 8t25.5 7.5t18.5 6t11.5 4.5l4 1q14 0 14 -14q0 -4 -7 -18t-7 -19q0 -25 14 -57l379 -1018q35 -91 59.5 -123.5t65.5 -46.5zM860 469q17 0 17 10q0 2 -1 4.5t-2 7
t-2 7.5l-258 694q0 5 -2 7t-4.5 0t-3.5 -7l-252 -698q-1 -4 -2 -8.5t-1.5 -7t-0.5 -3.5q0 -5 10 -8q18 -6 228 -6q209 0 274 8z" />
    <glyph glyph-name="abreve" unicode="&#x103;" horiz-adv-x="999" 
d="M209 1260q0 20 14 20q13 0 19 -18q14 -76 63 -111t156 -35t156 35t63 111q6 18 18 18q15 0 15 -20q0 -108 -65.5 -175t-186.5 -67t-186.5 67t-65.5 175zM958 102q15 0 15 -16q0 -117 -135 -117q-85 0 -123.5 44.5t-38.5 144.5v28q-40 -102 -131.5 -159.5t-200.5 -57.5
q-122 0 -190 51.5t-68 143.5q0 150 172 209q152 54 418 69v70q0 285 -242 285q-77 0 -125.5 -27t-48.5 -65q0 -11 18.5 -47.5t18.5 -55.5q5 -43 -44 -63q-51 -20 -96 3q-47 24 -42 83q0 83 90.5 142.5t247.5 59.5q385 0 385 -372v-338q0 -90 49 -90q50 0 53 57q3 18 18 18z
M395 16q113 0 197 90q84 93 84 252v58q-296 -18 -379 -86q-61 -49 -61 -146q0 -168 159 -168z" />
    <glyph glyph-name="Aogonek" unicode="&#x104;" horiz-adv-x="1368" 
d="M1282 33q58 -20 54 -35q-2 -8 -19 -8q-7 0 -84 6q-102 4 -127 4q-19 0 -125 -4q-79 -6 -82 -6l-33 -27q-141 -114 -141 -221q0 -122 117 -131q25 -3 65 12q40 12 43 12q8 0 8 -8q0 -6 -8 -14q-81 -66 -180 -66q-84 0 -129 40.5t-45 113.5q0 85 68 157t221 156h2
q20 5 26 9q80 27 80 90q0 37 -86 284q-9 20 -33 23q-62 6 -301 6q-197 0 -227 -6q-21 -3 -27 -21l-63 -180q-14 -49 -14 -84q0 -81 106 -115q31 -6 31 -18q0 -14 -19 -14q-4 0 -75 6t-109 6q-32 0 -84 -6q-49 -6 -53 -6q-21 0 -21 14q0 11 29 21q69 19 94 57q34 46 84 174
q146 372 326 885q20 44 20 63q0 20 -55 41q-29 10 -29 21q0 16 21 16q23 1 46 3t43.5 5t40 6.5t36 7.5t31 8t25.5 7.5t18.5 6t11.5 4.5l4 1q14 0 14 -14q0 -4 -7 -18t-7 -19q0 -25 14 -57l379 -1018q35 -91 59.5 -123.5t65.5 -46.5zM860 469q17 0 17 10q0 2 -1 4.5t-2 7
t-2 7.5l-258 694q0 5 -2 7t-4.5 0t-3.5 -7l-252 -698q-1 -4 -2 -8.5t-1.5 -7t-0.5 -3.5q0 -5 10 -8q18 -6 228 -6q209 0 274 8z" />
    <glyph glyph-name="aogonek" unicode="&#x105;" horiz-adv-x="999" 
d="M971 -354q8 0 8 -8q0 -7 -8 -15q-80 -65 -180 -65q-84 0 -129.5 40t-45.5 113q0 135 197 258q-137 12 -137 189v28q-40 -102 -131.5 -159.5t-200.5 -57.5q-122 0 -190 51.5t-68 143.5q0 150 172 209q152 54 418 69v70q0 285 -242 285q-77 0 -125.5 -27t-48.5 -65
q0 -11 18.5 -47.5t18.5 -55.5q5 -43 -44 -63q-51 -20 -96 3q-47 24 -42 83q0 83 90.5 142.5t247.5 59.5q385 0 385 -372v-338q0 -90 49 -90q50 0 53 57q3 18 18 18t15 -16q0 -96 -84 -111l-2 -2q-142 -115 -142 -221q0 -122 117 -131q26 -3 66 12q11 3 22 6.5t15.5 5
t5.5 1.5zM395 16q113 0 197 90q84 93 84 252v58q-296 -18 -379 -86q-61 -49 -61 -146q0 -168 159 -168z" />
    <glyph glyph-name="Cacute" unicode="&#x106;" horiz-adv-x="1335" 
d="M528 1411q-8 0 -8 10q0 8 8 13l82 51q127 80 256 155q64 37 95 37q27 0 44 -16.5t17 -46.5q0 -48 -78 -76q-282 -99 -399 -123zM1231 477q16 0 16 -14l-10 -303q-2 -96 -2 -178q0 -12 -12 -14q-13 -3 -20 19l-3 23q-3 76 -45 76q-15 0 -79 -29t-161.5 -58.5t-193.5 -29.5
q-271 0 -447 191t-176 483q0 290 181 483t450 193q84 0 172 -25t145.5 -50t65.5 -25q32 0 35 63q6 37 24 37q14 -2 15 -19q0 -95 12 -227q7 -84 16 -154.5t14 -98.5l5 -29q0 -13 -12 -13q-20 0 -23 19l-16 65q-108 428 -445 428q-175 0 -305 -133q-69 -70 -108 -203.5
t-39 -310.5t38 -309.5t105 -202.5q127 -133 299 -133q393 0 463 356l20 103q3 20 21 20z" />
    <glyph glyph-name="cacute" unicode="&#x107;" horiz-adv-x="925" 
d="M336 924q-7 0 -10 8q-3 5 4 12q270 282 309 313q30 19 41 21q58 9 70 -51q6 -39 -60 -86q-223 -152 -344 -213q-6 0 -10 -4zM858 260q12 0 12 -12v-4q-25 -125 -117 -200t-257 -75q-183 0 -299 119q-117 120 -117 305q0 200 125 316q124 118 307 118q96 0 170 -26l80 -25
q27 0 39 39q6 16 18 16q15 0 15 -18q0 -45 2.5 -92.5t6 -83t7 -64t6 -43.5t2.5 -14q0 -16 -16 -16q-13 0 -19 20q-38 150 -106 213.5t-187 63.5q-110 0 -200 -90q-88 -88 -88 -293q0 -180 84 -283.5t217 -103.5q232 0 299 217q6 16 16 16z" />
    <glyph glyph-name="Cdotaccent" unicode="&#x10a;" horiz-adv-x="1335" 
d="M752 1436q-43 0 -71 27t-28 71q0 42 28 69t71 27q44 0 72 -26.5t28 -69.5q0 -44 -28 -71t-72 -27zM1231 477q16 0 16 -14l-10 -303q-2 -96 -2 -178q0 -12 -12 -14q-13 -3 -20 19l-3 23q-3 76 -45 76q-15 0 -79 -29t-161.5 -58.5t-193.5 -29.5q-271 0 -447 191t-176 483
q0 290 181 483t450 193q84 0 172 -25t145.5 -50t65.5 -25q32 0 35 63q6 37 24 37q14 -2 15 -19q0 -95 12 -227q7 -84 16 -154.5t14 -98.5l5 -29q0 -13 -12 -13q-20 0 -23 19l-16 65q-108 428 -445 428q-175 0 -305 -133q-69 -70 -108 -203.5t-39 -310.5t38 -309.5
t105 -202.5q127 -133 299 -133q393 0 463 356l20 103q3 20 21 20z" />
    <glyph glyph-name="cdotaccent" unicode="&#x10b;" horiz-adv-x="925" 
d="M393 1163q0 47 31.5 77t79.5 30q49 0 79.5 -30t30.5 -77q0 -49 -30 -78.5t-80 -29.5t-80.5 29.5t-30.5 78.5zM858 260q12 0 12 -12v-4q-25 -125 -117 -200t-257 -75q-183 0 -299 119q-117 120 -117 305q0 200 125 316q124 118 307 118q96 0 170 -26l80 -25q27 0 39 39
q6 16 18 16q15 0 15 -18q0 -45 2.5 -92.5t6 -83t7 -64t6 -43.5t2.5 -14q0 -16 -16 -16q-13 0 -19 20q-38 150 -106 213.5t-187 63.5q-110 0 -200 -90q-88 -88 -88 -293q0 -180 84 -283.5t217 -103.5q232 0 299 217q6 16 16 16z" />
    <glyph glyph-name="Ccaron" unicode="&#x10c;" horiz-adv-x="1335" 
d="M481 1702q19 0 84 -47q37 -20 180 -111h5q42 26 82 51t63 39.5t44 28t32 20t20 11.5t14 6.5t9 1.5q20 0 12 -21q-6 -16 -29 -39q-21 -23 -153 -149q-44 -44 -58 -49q-20 -14 -38 -14q-17 0 -34.5 10t-29 20.5t-37.5 36.5l-153 150q-27 27 -27 41t14 14zM1231 477
q16 0 16 -14l-10 -303q-2 -96 -2 -178q0 -12 -12 -14q-13 -3 -20 19l-3 23q-3 76 -45 76q-15 0 -79 -29t-161.5 -58.5t-193.5 -29.5q-271 0 -447 191t-176 483q0 290 181 483t450 193q84 0 172 -25t145.5 -50t65.5 -25q32 0 35 63q6 37 24 37q14 -2 15 -19q0 -95 12 -227
q7 -84 16 -154.5t14 -98.5l5 -29q0 -13 -12 -13q-20 0 -23 19l-16 65q-108 428 -445 428q-175 0 -305 -133q-69 -70 -108 -203.5t-39 -310.5t38 -309.5t105 -202.5q127 -133 299 -133q393 0 463 356l20 103q3 20 21 20z" />
    <glyph glyph-name="ccaron" unicode="&#x10d;" horiz-adv-x="925" 
d="M238 1231q18 0 143 -98l121 -95h4q24 20 76 59.5t73 55.5q65 52 84.5 65t30.5 13q14 0 14 -14q0 -17 -104 -136q-16 -16 -43 -47t-41 -47q-26 -28 -42 -36.5t-50 -8.5q-35 0 -52.5 9.5t-43.5 41.5q-177 201 -179 207q-6 9 -6 17q0 14 15 14zM858 260q12 0 12 -12v-4
q-25 -125 -117 -200t-257 -75q-183 0 -299 119q-117 120 -117 305q0 200 125 316q124 118 307 118q96 0 170 -26l80 -25q27 0 39 39q6 16 18 16q15 0 15 -18q0 -45 2.5 -92.5t6 -83t7 -64t6 -43.5t2.5 -14q0 -16 -16 -16q-13 0 -19 20q-38 150 -106 213.5t-187 63.5
q-110 0 -200 -90q-88 -88 -88 -293q0 -180 84 -283.5t217 -103.5q232 0 299 217q6 16 16 16z" />
    <glyph glyph-name="Dcaron" unicode="&#x10e;" horiz-adv-x="1468" 
d="M590 1497l-154 150q-26 26 -26 41q0 14 14 14q19 0 84 -47q37 -20 180 -111h4q42 26 82 51t63 39.5t44 28t32 20t20 11.5t14 6.5t9 1.5q19 0 13 -20q-6 -17 -29 -40q-15 -16 -154 -149q-44 -44 -57 -49q-20 -14 -39 -14q-17 0 -35 10.5t-28 20t-37 36.5zM637 1309
q321 0 528 -189t207 -473t-207 -479q-206 -191 -528 -191q-41 0 -164 13q-127 10 -162 10q-10 0 -100 -4q-20 -1 -37 -2t-25 -2h-8q-14 0 -14 12q0 11 47 29q39 14 45 104q8 79 8 516q0 415 -8 496q-9 93 -49 111q-10 5 -20 9t-14 5t-6.5 4t-2.5 8q0 12 14 12h7q8 -1 24 -2
t35 -2q86 -4 104 -4q53 0 162 8q154 11 164 11zM641 6q241 0 393 158q150 156 150 483q0 329 -150 479q-151 154 -393 154q-207 0 -231 -74q-17 -60 -17 -553q0 -528 19 -577q27 -70 229 -70z" />
    <glyph glyph-name="dcaron" unicode="&#x10f;" horiz-adv-x="1216" 
d="M1001 51q31 -9 31 -16q0 -14 -24 -17q-50 -4 -106.5 -13.5t-92 -17t-37.5 -7.5q-12 0 -12 14l2 28q3 29 5.5 72t2.5 78h-2q-83 -203 -295 -203q-161 0 -278 117q-115 121 -115 301q0 197 115 318q113 122 278 122q200 0 279 -149h2v246q-2 130 -7.5 182t-16.5 70t-42 34
q-55 18 -55 31q0 14 20 14q41 2 80.5 10.5t67.5 18.5t50.5 20t35 16.5t14.5 6.5q12 0 12 -12l-10 -112q-6 -105 -6 -234v-754q0 -82 23 -116t81 -48zM1090 1315q127 0 127 -158q0 -105 -72 -168q-70 -61 -123 -61q-18 0 -18 16q0 15 20 21q64 20 104.5 67t40.5 111
q0 37 -14 37q-1 0 -30 -21.5t-50 -21.5q-36 0 -60 24t-24 62q0 41 28 66.5t71 25.5zM492 10q123 0 197 99.5t75 277.5q6 406 -270 406q-116 0 -185 -100.5t-69 -305.5q0 -184 70.5 -280.5t181.5 -96.5z" />
    <glyph glyph-name="Dcroat" unicode="&#x110;" horiz-adv-x="1472" 
d="M639 1309q321 0 528 -189t207 -473t-207 -479q-206 -191 -528 -191q-41 0 -164 13q-127 10 -162 10q-12 0 -98 -4q-19 -1 -36 -2t-25 -1.5t-9 -0.5q-14 0 -14 12q0 11 47 29q39 14 45 102q8 76 8 483q-20 -1 -41.5 -2t-33.5 -1.5t-17 -0.5q-26 0 -26 33q0 39 32 39
q3 0 13.5 -0.5t31 -1.5t41.5 -2q0 363 -10 465q-9 93 -47 113q-10 5 -20 9t-14 5t-6.5 4t-2.5 8q0 12 14 12h7q8 -1 23.5 -2t33.5 -2q86 -4 104 -4q53 0 162 8q154 11 164 11zM645 6q239 0 391 158q150 156 150 483q0 329 -150 479q-148 154 -391 154q-206 0 -233 -74
q-15 -46 -15 -528q16 0 148 4q28 1 57.5 2t45 1.5t22.5 0.5q30 0 30 -31q0 -18 -8.5 -30t-21.5 -11q-48 3 -273 9q0 -498 19 -547q24 -70 229 -70z" />
    <glyph glyph-name="dslash" unicode="&#x111;" horiz-adv-x="1067" 
d="M1001 51q31 -9 31 -16q0 -14 -24 -17q-50 -4 -106.5 -13.5t-92 -17t-37.5 -7.5q-12 0 -12 14l2 28q3 29 5.5 72t2.5 78h-2q-83 -203 -295 -203q-161 0 -278 117q-115 121 -115 301q0 197 115 318q113 122 278 122q200 0 279 -149h2v246v41h-217q-23 0 -23 24q0 23 23 23
h217q-3 117 -17 149q-12 34 -49 49q-55 18 -55 31q0 14 20 14q41 2 80.5 10.5t67.5 18.5t50.5 20t35 16.5t14.5 6.5q12 0 12 -12l-1 -3q0 -4 -1 -11.5t-2 -18t-2.5 -26t-3 -33.5t-2.5 -41.5t-2 -49t-1.5 -56.5t-0.5 -64h70q28 0 28 -23q0 -24 -28 -24h-70v-750
q0 -82 23 -116t81 -48zM492 10q123 0 197 99.5t75 277.5q6 406 -270 406q-116 0 -185 -100.5t-69 -305.5q0 -184 70.5 -280.5t181.5 -96.5z" />
    <glyph glyph-name="Emacron" unicode="&#x112;" horiz-adv-x="1208" 
d="M426 1503q-29 0 -29 25q0 47 37 47t86 -2t113 -2q72 0 129 2t102 2q27 0 27 -21q0 -51 -35 -51q-61 0 -108 2t-107 2t-115 -2t-100 -2zM1122 399l-8 -49q-20 -165 -20 -252q0 -19 6.5 -40.5t13 -36t6.5 -15.5q0 -12 -14 -12q-9 0 -56.5 0.5t-139 1.5t-177.5 2
q-102 2 -295 2q-36 0 -71.5 -0.5t-64 -1t-54 -1t-44 -1t-32.5 -1t-22 -1.5h-7q-16 0 -16 12q0 10 41 25q48 18 63 57q23 71 23 440v117q0 465 -21 541q-12 52 -57 67l-8 4q-41 15 -41 29q0 12 16 12h10q10 -1 32 -2t48 -2q118 -4 154 -4q209 0 315 2l265 4q68 2 118 2
q17 0 17 -12q0 -1 -7 -15.5t-13.5 -36t-6.5 -40.5q0 -22 3 -54t6.5 -61.5t7.5 -55t7 -41.5t3 -15q0 -17 -15 -17q-17 0 -20 25q-52 182 -129 235q-79 54 -258 54q-117 0 -162.5 -8t-64.5 -33q-19 -22 -25 -107q-6 -83 -6 -373q0 -35 26.5 -44t126.5 -9q136 0 177 35
q45 39 71 149q3 17 19 17q12 0 12 -14q0 -1 -1 -13.5t-3 -33t-4 -45t-3 -55.5t-1 -58q0 -23 0.5 -46.5t1.5 -43t2.5 -37t3 -31t2.5 -24t2 -16.5v-5q0 -14 -12 -14q-14 3 -17 18q-21 108 -67 145q-45 39 -183 39q-71 0 -100.5 -4t-41 -14.5t-11.5 -36.5q0 -391 16 -485
q9 -34 21 -49q19 -24 61 -32.5t144 -8.5q220 -3 303 65q83 69 118 297q3 27 23 27q14 0 14 -17z" />
    <glyph glyph-name="emacron" unicode="&#x113;" horiz-adv-x="950" 
d="M281 1036q-29 0 -29 25q0 47 37 47t86 -2t112 -2q72 0 129 2t103 2q26 0 26 -21q0 -51 -34 -51q-62 0 -109 2t-106 2q-60 0 -115 -2t-100 -2zM870 242q11 0 11 -11q0 -1 -0.5 -3.5l-1.5 -7.5t-2 -9q-33 -106 -132 -174t-237 -68q-197 0 -313 125q-115 127 -115 305
q0 184 119 306t309 122q161 0 262 -88q102 -88 102 -219q0 -36 -11.5 -49.5t-43.5 -13.5l-577 2q-2 -10 -2 -49q0 -182 79.5 -284.5t225.5 -102.5q113 0 199 60t114 144q3 15 14 15zM506 799q-111 0 -179 -79.5t-85 -223.5l471 4q13 0 16.5 6.5t3.5 32.5q0 115 -60.5 187.5
t-166.5 72.5z" />
    <glyph glyph-name="Edotaccent" unicode="&#x116;" horiz-adv-x="1208" 
d="M647 1436q-43 0 -70.5 27t-27.5 71q0 43 27.5 69.5t70.5 26.5q44 0 72.5 -26.5t28.5 -69.5q0 -44 -28 -71t-73 -27zM1122 399l-8 -49q-20 -165 -20 -252q0 -19 6.5 -40.5t13 -36t6.5 -15.5q0 -12 -14 -12q-9 0 -56.5 0.5t-139 1.5t-177.5 2q-102 2 -295 2
q-36 0 -71.5 -0.5t-64 -1t-54 -1t-44 -1t-32.5 -1t-22 -1.5h-7q-16 0 -16 12q0 10 41 25q48 18 63 57q23 71 23 440v117q0 465 -21 541q-12 52 -57 67l-8 4q-41 15 -41 29q0 12 16 12h10q10 -1 32 -2t48 -2q118 -4 154 -4q209 0 315 2l265 4q68 2 118 2q17 0 17 -12
q0 -1 -7 -15.5t-13.5 -36t-6.5 -40.5q0 -22 3 -54t6.5 -61.5t7.5 -55t7 -41.5t3 -15q0 -17 -15 -17q-17 0 -20 25q-52 182 -129 235q-79 54 -258 54q-117 0 -162.5 -8t-64.5 -33q-19 -22 -25 -107q-6 -83 -6 -373q0 -35 26.5 -44t126.5 -9q136 0 177 35q45 39 71 149
q3 17 19 17q12 0 12 -14q0 -1 -1 -13.5t-3 -33t-4 -45t-3 -55.5t-1 -58q0 -23 0.5 -46.5t1.5 -43t2.5 -37t3 -31t2.5 -24t2 -16.5v-5q0 -14 -12 -14q-14 3 -17 18q-21 108 -67 145q-45 39 -183 39q-71 0 -100.5 -4t-41 -14.5t-11.5 -36.5q0 -391 16 -485q9 -34 21 -49
q19 -24 61 -32.5t144 -8.5q220 -3 303 65q83 69 118 297q3 27 23 27q14 0 14 -17z" />
    <glyph glyph-name="edotaccent" unicode="&#x117;" horiz-adv-x="950" 
d="M387 1163q0 47 31.5 77t79.5 30q49 0 79.5 -30t30.5 -77q0 -49 -30 -78.5t-80 -29.5t-80.5 29.5t-30.5 78.5zM870 242q11 0 11 -11q0 -1 -0.5 -3.5l-1.5 -7.5t-2 -9q-33 -106 -132 -174t-237 -68q-197 0 -313 125q-115 127 -115 305q0 184 119 306t309 122q161 0 262 -88
q102 -88 102 -219q0 -36 -11.5 -49.5t-43.5 -13.5l-577 2q-2 -10 -2 -49q0 -182 79.5 -284.5t225.5 -102.5q113 0 199 60t114 144q3 15 14 15zM506 799q-111 0 -179 -79.5t-85 -223.5l471 4q13 0 16.5 6.5t3.5 32.5q0 115 -60.5 187.5t-166.5 72.5z" />
    <glyph glyph-name="Eogonek" unicode="&#x118;" horiz-adv-x="1208" 
d="M1141 -383q8 0 8 -8q0 -7 -8 -15q-80 -65 -180 -65q-84 0 -129.5 40.5t-45.5 113.5q0 85 67 155.5t218 155.5q-295 6 -633 6q-36 0 -71.5 -0.5t-64 -1t-54 -1t-44 -1t-32.5 -1t-22 -1.5h-7q-16 0 -16 12q0 10 41 25q48 18 63 57q23 71 23 440v117q0 465 -21 541
q-12 52 -57 67l-8 4q-41 15 -41 29q0 12 16 12h10q10 -1 32 -2t48 -2q118 -4 154 -4q209 0 315 2l265 4q68 2 118 2q17 0 17 -12q0 -1 -7 -15.5t-13.5 -36t-6.5 -40.5q0 -22 3 -54t6.5 -61.5t7.5 -55t7 -41.5t3 -15q0 -17 -15 -17q-17 0 -20 25q-52 182 -129 235
q-79 54 -258 54q-117 0 -162.5 -8t-64.5 -33q-19 -22 -25 -107q-6 -83 -6 -373q0 -35 26.5 -44t126.5 -9q136 0 177 35q45 39 71 149q3 17 19 17q12 0 12 -14q0 -1 -1 -13.5t-3 -33t-4 -45t-3 -55.5t-1 -58q0 -23 0.5 -46.5t1.5 -43t2.5 -37t3 -31t2.5 -24t2 -16.5v-5
q0 -14 -12 -14q-14 3 -17 18q-21 108 -67 145q-45 39 -183 39q-71 0 -100.5 -4t-41 -14.5t-11.5 -36.5q0 -391 16 -485q9 -34 21 -49q19 -24 61 -32.5t144 -8.5q220 -3 303 65q83 69 118 297q3 27 23 27q14 0 14 -17l-8 -49q-20 -165 -20 -252q0 -19 6.5 -40.5t13 -36
t6.5 -15.5q0 -6 -4 -10h4l-63 -51q-142 -115 -142 -221q0 -123 117 -132q24 -3 66 13q40 12 43 12z" />
    <glyph glyph-name="eogonek" unicode="&#x119;" horiz-adv-x="950" 
d="M877 211q-26 -84 -103 -152l-63 -51q-142 -115 -142 -221q0 -122 117 -131q26 -3 66 12q11 3 22 6.5t15.5 5t5.5 1.5q8 0 8 -9q0 -6 -8 -14q-81 -66 -181 -66q-84 0 -129 40.5t-45 113.5q0 120 156 231q-31 -8 -88 -8q-197 0 -313 125q-115 127 -115 305q0 184 119 306
t309 122q161 0 262 -88q102 -88 102 -219q0 -36 -11.5 -49.5t-43.5 -13.5l-577 2q-2 -10 -2 -49q0 -182 79.5 -284.5t225.5 -102.5q113 0 199 60t114 144q3 15 14 15t11 -11q0 -1 -0.5 -3.5l-1.5 -7.5t-2 -9zM506 799q-111 0 -179 -79.5t-85 -223.5l471 4q13 0 16.5 6.5
t3.5 32.5q0 115 -60.5 187.5t-166.5 72.5z" />
    <glyph glyph-name="Ecaron" unicode="&#x11a;" horiz-adv-x="1208" 
d="M543 1497l-154 150q-27 27 -27 41t15 14q19 0 84 -47q37 -20 180 -111h4q42 26 82 51t63 39.5t44 28t32 20t20 11.5t14 6.5t9 1.5q19 0 13 -20q-6 -17 -29 -40q-15 -16 -154 -149q-44 -44 -57 -49q-20 -14 -39 -14q-17 0 -35 10.5t-28 20t-37 36.5zM1122 399l-8 -49
q-20 -165 -20 -252q0 -19 6.5 -40.5t13 -36t6.5 -15.5q0 -12 -14 -12q-9 0 -56.5 0.5t-139 1.5t-177.5 2q-102 2 -295 2q-36 0 -71.5 -0.5t-64 -1t-54 -1t-44 -1t-32.5 -1t-22 -1.5h-7q-16 0 -16 12q0 10 41 25q48 18 63 57q23 71 23 440v117q0 465 -21 541q-12 52 -57 67
l-8 4q-41 15 -41 29q0 12 16 12h10q10 -1 32 -2t48 -2q118 -4 154 -4q209 0 315 2l265 4q68 2 118 2q17 0 17 -12q0 -1 -7 -15.5t-13.5 -36t-6.5 -40.5q0 -22 3 -54t6.5 -61.5t7.5 -55t7 -41.5t3 -15q0 -17 -15 -17q-17 0 -20 25q-52 182 -129 235q-79 54 -258 54
q-117 0 -162.5 -8t-64.5 -33q-19 -22 -25 -107q-6 -83 -6 -373q0 -35 26.5 -44t126.5 -9q136 0 177 35q45 39 71 149q3 17 19 17q12 0 12 -14q0 -1 -1 -13.5t-3 -33t-4 -45t-3 -55.5t-1 -58q0 -23 0.5 -46.5t1.5 -43t2.5 -37t3 -31t2.5 -24t2 -16.5v-5q0 -14 -12 -14
q-14 3 -17 18q-21 108 -67 145q-45 39 -183 39q-71 0 -100.5 -4t-41 -14.5t-11.5 -36.5q0 -391 16 -485q9 -34 21 -49q19 -24 61 -32.5t144 -8.5q220 -3 303 65q83 69 118 297q3 27 23 27q14 0 14 -17z" />
    <glyph glyph-name="ecaron" unicode="&#x11b;" horiz-adv-x="950" 
d="M401 993q-176 199 -178 207q-6 9 -6 17q0 14 14 14q19 0 144 -98l121 -95h4q24 20 76 59.5t73 55.5q65 52 84.5 65t30.5 13q14 0 14 -14q0 -17 -104 -136q-16 -16 -43 -47t-41 -47q-26 -28 -42 -36.5t-50 -8.5q-35 0 -53 9.5t-44 41.5zM870 242q11 0 11 -11
q0 -1 -0.5 -3.5l-1.5 -7.5t-2 -9q-33 -106 -132 -174t-237 -68q-197 0 -313 125q-115 127 -115 305q0 184 119 306t309 122q161 0 262 -88q102 -88 102 -219q0 -36 -11.5 -49.5t-43.5 -13.5l-577 2q-2 -10 -2 -49q0 -182 79.5 -284.5t225.5 -102.5q113 0 199 60t114 144
q3 15 14 15zM506 799q-111 0 -179 -79.5t-85 -223.5l471 4q13 0 16.5 6.5t3.5 32.5q0 115 -60.5 187.5t-166.5 72.5z" />
    <glyph glyph-name="Gbreve" unicode="&#x11e;" horiz-adv-x="1372" 
d="M498 1751q0 21 14 21q12 0 18 -19q14 -76 63.5 -110.5t156.5 -34.5t156 34.5t63 110.5q6 19 18 19q14 0 14 -21q0 -108 -65 -175t-186 -67t-186.5 67t-65.5 175zM1339 502q15 0 15 -13q0 -8 -14.5 -13t-33.5 -10.5t-26 -12.5q-23 -17 -29 -62q-6 -46 -6 -198v-195
q0 -29 -16 -29q-12 0 -15 27q-12 110 -51 110q-7 0 -16.5 -3t-25.5 -11.5t-25 -13.5t-33 -20t-31 -19q-42 -27 -121 -47.5t-166 -20.5q-284 0 -466 191q-181 193 -181 481q0 290 189 485t469 195q87 0 170.5 -23.5t135.5 -47t60 -23.5q39 0 45 69q3 39 23 39q18 0 18 -20
q0 -57 2 -113t4.5 -99.5t6 -82.5t7.5 -67t6.5 -48.5t4.5 -31.5l2 -11q0 -14 -16 -14t-19 18q-70 232 -177 329t-275 97q-185 0 -316 -137q-70 -70 -109.5 -203.5t-39.5 -310.5q0 -333 129 -489t332 -156q152 0 243.5 65.5t91.5 180.5v78q0 81 -10 108q-9 24 -55 39
q-33 14 -33 23q0 12 14 12q3 0 64 -6t94 -6q21 0 111 4q68 6 69 6z" />
    <glyph glyph-name="gbreve" unicode="&#x11f;" horiz-adv-x="915" 
d="M442 1006q-115 0 -177 62.5t-62 164.5q0 20 12 20.5t18 -18.5q14 -70 61 -102.5t148 -32.5q100 0 146.5 32.5t60.5 102.5q6 18 19 18q14 0 14 -18q0 -102 -63 -165.5t-177 -63.5zM557 35q328 0 328 -207q0 -125 -115 -195.5t-305 -70.5q-195 0 -301.5 53.5t-106.5 153.5
q0 128 158 165q-121 35 -121 144q0 153 234 180q-111 30 -176.5 104t-65.5 175q0 132 104 211t261 79q73 0 135 -18q17 96 68.5 148.5t121.5 52.5q51 0 79 -24.5t28 -67.5q0 -35 -22.5 -57.5t-55.5 -22.5q-54 0 -74 51q-18 35 -39 35q-56 0 -74 -125q92 -33 145.5 -102
t53.5 -160q0 -132 -106 -213q-106 -80 -260 -80h-5q-245 0 -245 -119q0 -48 31.5 -69t105.5 -21h219zM670 537q-1 128 -59.5 194t-159.5 66t-159.5 -66.5t-58.5 -193.5q0 -128 58.5 -196.5t159.5 -68.5q100 0 159 68.5t60 196.5zM469 -410q315 0 315 193q0 141 -194 141
h-266q-154 -15 -154 -149q0 -185 299 -185z" />
    <glyph glyph-name="Gdotaccent" unicode="&#x120;" horiz-adv-x="1372" 
d="M752 1436q-43 0 -71 27t-28 71q0 42 28 69t71 27q44 0 72 -26.5t28 -69.5q0 -44 -28 -71t-72 -27zM1229 -31q-12 0 -15 27q-12 110 -51 110q-7 0 -16.5 -3t-25.5 -11.5t-25 -13.5t-33 -20t-31 -19q-42 -27 -121 -47.5t-166 -20.5q-284 0 -466 191q-181 193 -181 481
q0 290 189 485t469 195q87 0 170.5 -23.5t135.5 -47t60 -23.5q39 0 45 69q3 39 23 39q18 0 18 -20q0 -57 2 -113t4.5 -99.5t6 -82.5t7.5 -67t6.5 -48.5t4.5 -31.5l2 -11q0 -14 -16 -14t-19 18q-70 232 -177 329t-275 97q-185 0 -316 -137q-70 -70 -109.5 -203.5
t-39.5 -310.5q0 -333 129 -489t332 -156q152 0 243.5 65.5t91.5 180.5v78q0 81 -10 108q-9 24 -55 39q-33 14 -33 23q0 12 14 12q3 0 64 -6t94 -6q21 0 111 4q68 6 69 6q15 0 15 -13q0 -8 -14.5 -13t-33.5 -10.5t-26 -12.5q-23 -17 -29 -62q-6 -46 -6 -198v-195
q0 -29 -16 -29z" />
    <glyph glyph-name="gdotaccent" unicode="&#x121;" horiz-adv-x="915" 
d="M326 1128q0 45 29.5 74t76.5 29q36 4 63.5 -15t38.5 -47.5t5.5 -61t-29.5 -54.5q-23 -21 -56.5 -26.5t-63 4.5t-49 36t-15.5 61zM557 35q328 0 328 -207q0 -125 -115 -195.5t-305 -70.5q-195 0 -301.5 53.5t-106.5 153.5q0 128 158 165q-121 35 -121 144q0 153 234 180
q-111 30 -176.5 104t-65.5 175q0 132 104 211t261 79q73 0 135 -18q17 96 68.5 148.5t121.5 52.5q51 0 79 -24.5t28 -67.5q0 -35 -22.5 -57.5t-55.5 -22.5q-54 0 -74 51q-18 35 -39 35q-56 0 -74 -125q92 -33 145.5 -102t53.5 -160q0 -132 -106 -213q-106 -80 -260 -80h-5
q-245 0 -245 -119q0 -48 31.5 -69t105.5 -21h219zM670 537q-1 128 -59.5 194t-159.5 66t-159.5 -66.5t-58.5 -193.5q0 -128 58.5 -196.5t159.5 -68.5q100 0 159 68.5t60 196.5zM469 -410q315 0 315 193q0 141 -194 141h-266q-154 -15 -154 -149q0 -185 299 -185z" />
    <glyph glyph-name="Gcommaaccent" unicode="&#x122;" horiz-adv-x="1372" 
d="M1229 -31q-12 0 -15 27q-12 110 -51 110q-7 0 -16.5 -3t-25.5 -11.5t-25 -13.5t-33 -20t-31 -19q-42 -27 -121 -47.5t-166 -20.5q-284 0 -466 191q-181 193 -181 481q0 290 189 485t469 195q87 0 170.5 -23.5t135.5 -47t60 -23.5q39 0 45 69q3 39 23 39q18 0 18 -20
q0 -57 2 -113t4.5 -99.5t6 -82.5t7.5 -67t6.5 -48.5t4.5 -31.5l2 -11q0 -14 -16 -14t-19 18q-70 232 -177 329t-275 97q-185 0 -316 -137q-70 -70 -109.5 -203.5t-39.5 -310.5q0 -333 129 -489t332 -156q152 0 243.5 65.5t91.5 180.5v78q0 81 -10 108q-9 24 -55 39
q-33 14 -33 23q0 12 14 12q3 0 64 -6t94 -6q21 0 111 4q68 6 69 6q15 0 15 -13q0 -8 -14.5 -13t-33.5 -10.5t-26 -12.5q-23 -17 -29 -62q-6 -46 -6 -198v-195q0 -29 -16 -29zM690 -496q-18 0 -18 17q0 12 20 18q63 19 103.5 67.5t40.5 110.5q0 39 -15 39q-2 0 -14.5 -11
t-30.5 -21.5t-33 -10.5q-37 0 -61.5 23.5t-24.5 60.5q0 41 29 66.5t72 25.5q125 0 125 -157q0 -106 -72 -166q-71 -62 -121 -62z" />
    <glyph glyph-name="gcommaaccent" unicode="&#x123;" horiz-adv-x="915" 
d="M442 934q-125 0 -125 158q0 105 72 165q71 62 121 62q18 0 18 -16q0 -13 -20 -19q-63 -19 -103 -67.5t-40 -110.5q0 -39 14 -39q2 0 14.5 10.5t30.5 21.5t33 11q37 0 61.5 -23.5t24.5 -60.5q0 -41 -29 -66.5t-72 -25.5zM557 35q328 0 328 -207q0 -125 -115 -195.5
t-305 -70.5q-195 0 -301.5 53.5t-106.5 153.5q0 128 158 165q-121 35 -121 144q0 153 234 180q-111 30 -176.5 104t-65.5 175q0 132 104 211t261 79q73 0 135 -18q17 96 68.5 148.5t121.5 52.5q51 0 79 -24.5t28 -67.5q0 -35 -22.5 -57.5t-55.5 -22.5q-54 0 -74 51
q-18 35 -39 35q-56 0 -74 -125q92 -33 145.5 -102t53.5 -160q0 -132 -106 -213q-106 -80 -260 -80h-5q-245 0 -245 -119q0 -48 31.5 -69t105.5 -21h219zM670 537q-1 128 -59.5 194t-159.5 66t-159.5 -66.5t-58.5 -193.5q0 -128 58.5 -196.5t159.5 -68.5q100 0 159 68.5
t60 196.5zM469 -410q315 0 315 193q0 141 -194 141h-266q-154 -15 -154 -149q0 -185 299 -185z" />
    <glyph glyph-name="Hbar" unicode="&#x126;" horiz-adv-x="1611" 
d="M1466 983q17 0 17 -24.5t-17 -24.5h-141v-281q0 -436 8 -520q9 -92 58 -110q38 -11 36 -26q-1 -9 -14 -9q-5 0 -72 6t-100 6t-100 -6t-70 -6q-15 0 -14 10q0 15 35 25q48 17 57 112q10 105 10 524v275h-721v-275q0 -440 8 -524q9 -93 60 -112q36 -11 34 -26q-1 -9 -14 -9
q-2 0 -69 6t-101 6q-32 0 -100 -6t-72 -6q-15 0 -14 10q1 15 37 25q48 17 57 110q8 84 8 520v281h-129q-17 0 -17 24.5t17 24.5h129q-3 172 -16 217q-12 53 -49 68q-38 11 -37 26q1 9 14 9q1 0 9 -1t26 -2.5t37 -3.5q67 -6 100 -6q34 0 101 6q20 2 37 3.5t24 2.5t8 1
q15 0 15 -10q-1 -15 -35 -25q-38 -14 -53 -68q-12 -53 -15 -217h721q-3 172 -16 217q-12 54 -51 68q-36 11 -35 26q1 9 14 9q1 0 8.5 -1t24.5 -2.5t37 -3.5q67 -6 100 -6t100 6q19 2 37 3.5t26 2.5t9 1q15 0 14 -10q0 -15 -36 -25q-37 -15 -52 -68q-11 -48 -14 -217h141z
M438 569v142q0 -38 56 -47q68 -7 305 -7q295 0 338 17q20 11 20 37v-142q0 37 -55 43q-56 9 -303 9t-305 -9q-56 -6 -56 -43z" />
    <glyph glyph-name="hbar" unicode="&#x127;" horiz-adv-x="1107" 
d="M1001 27q27 -15 27 -25q0 -12 -14 -12q-6 0 -62 6q-74 4 -88 4t-84 -4q-52 -6 -57 -6q-14 0 -14 12q0 11 26 23q36 16 47 47q13 37 13 135v330q0 239 -183 239q-115 0 -196 -106q-80 -109 -80 -291v-137q0 -147 10 -174q12 -28 60 -43q3 -2 8 -3.5t7 -2.5t4.5 -2.5
t3.5 -3t2 -4.5t1 -7q0 -12 -16 -12q-6 0 -64 6q-78 4 -90 4q-16 0 -90 -4l-53 -6q-15 0 -14 12q1 13 26 23q40 15 49 61q13 50 13 197v653h-158q-17 0 -17 24.5t17 24.5h158v31q0 108 -13 145q-9 35 -55 56q-38 20 -41 28q0 12 22 15q57 4 114.5 21t86.5 33l29 15
q16 0 16 -14l-2 -10q-14 -63 -14 -197v-123h199q17 0 17 -24.5t-17 -24.5h-199v-365q35 122 115.5 189t189.5 67q154 0 226.5 -80.5t72.5 -252.5v-287q0 -105 10 -135t51 -45z" />
    <glyph glyph-name="Itilde" unicode="&#x128;" horiz-adv-x="641" 
d="M68 1466q5 90 38 142.5t93 52.5q56 0 145 -47q86 -45 127 -45q65 3 74 67q3 21 16 21q17 0 17 -23q0 -71 -34 -119.5t-93 -48.5q-52 0 -138 45q-87 43 -125 43q-36 -2 -56 -21t-32 -65q-3 -15 -11 -20.5t-14.5 0t-6.5 18.5zM150 -12q-15 0 -15 12q0 16 35 25
q48 14 57 106q11 112 11 477v45q0 390 -11 502q-9 94 -57 111q-35 9 -35 24q0 13 15 13l63 -7q61 -6 109 -6q44 0 108 6l62 7q15 0 14 -11q-1 -14 -35 -26q-50 -18 -59 -111q-9 -91 -9 -502q0 -483 15 -553q12 -60 53 -75q36 -12 35 -27q-1 -10 -14 -10q-4 0 -68 6t-102 6
q-42 0 -107 -6z" />
    <glyph glyph-name="itilde" unicode="&#x129;" horiz-adv-x="567" 
d="M6 1040q5 90 38 142.5t93 52.5q57 0 146 -47q86 -45 127 -45q64 3 73 67q3 21 17 21q16 0 16 -23q0 -71 -34 -119.5t-93 -48.5q-51 0 -137 45q-87 43 -125 43q-36 -2 -56 -21t-32 -65q-3 -15 -11 -20.5t-15 0t-7 18.5zM111 -10q-15 0 -15 12t25 21q66 15 78 49
q14 32 14 147v338q0 94 -16 131q-14 32 -84 51q-25 6 -25 17t21 14q50 2 93.5 9t70.5 15.5t47 16t30.5 13t11.5 5.5q15 0 15 -14q0 -2 -4.5 -20t-5.5 -31q-11 -79 -11 -199v-340q0 -109 17 -151q16 -36 84 -54q23 -6 22 -19q0 -11 -14 -11q-5 0 -76 6q-90 4 -106 4
q-15 0 -101 -4q-65 -6 -71 -6z" />
    <glyph glyph-name="Imacron" unicode="&#x12a;" horiz-adv-x="641" 
d="M113 1575q37 0 86 -2t112 -2q72 0 129 2t103 2q26 0 26 -21q0 -51 -34 -51q-62 0 -109 2t-107 2q-59 0 -114 -2t-101 -2q-28 0 -28 25q0 47 37 47zM150 -12q-15 0 -15 12q0 16 35 25q48 14 57 106q11 112 11 477v45q0 390 -11 502q-9 94 -57 111q-35 9 -35 24q0 13 15 13
l63 -7q61 -6 109 -6q44 0 108 6l62 7q15 0 14 -11q-1 -14 -35 -26q-50 -18 -59 -111q-9 -91 -9 -502q0 -483 15 -553q12 -60 53 -75q36 -12 35 -27q-1 -10 -14 -10q-4 0 -68 6t-102 6q-42 0 -107 -6z" />
    <glyph glyph-name="imacron" unicode="&#x12b;" horiz-adv-x="567" 
d="M51 1108q37 0 86 -2t113 -2q72 0 129 2t102 2q27 0 27 -21q0 -51 -35 -51q-61 0 -108 2t-107 2t-115 -2t-100 -2q-29 0 -29 25q0 47 37 47zM111 -10q-15 0 -15 12t25 21q66 15 78 49q14 32 14 147v338q0 94 -16 131q-14 32 -84 51q-25 6 -25 17t21 14q50 2 93.5 9
t70.5 15.5t47 16t30.5 13t11.5 5.5q15 0 15 -14q0 -2 -4.5 -20t-5.5 -31q-11 -79 -11 -199v-340q0 -109 17 -151q16 -36 84 -54q23 -6 22 -19q0 -11 -14 -11q-5 0 -76 6q-90 4 -106 4q-15 0 -101 -4q-65 -6 -71 -6z" />
    <glyph glyph-name="Iogonek" unicode="&#x12e;" horiz-adv-x="641" 
d="M471 25q36 -12 35 -27q-1 -10 -14 -10q-2 0 -25 2t-56.5 5t-54.5 5l-32 -27q-142 -115 -142 -221q0 -122 117 -131q26 -3 66 12q11 3 22 6.5t15.5 5t5.5 1.5q8 0 8 -8q0 -7 -8 -15q-80 -65 -181 -65q-84 0 -129 40t-45 113q0 79 59.5 147t186.5 142l-92 -6q-53 -6 -57 -6
q-15 0 -15 12q0 16 35 25q48 14 57 106q11 112 11 477v45q0 390 -11 502q-9 94 -57 111q-35 9 -35 24q0 13 15 13l63 -7q61 -6 109 -6q44 0 108 6l62 7q15 0 14 -11q-1 -14 -35 -26q-50 -18 -59 -111q-9 -91 -9 -502q0 -483 15 -553q12 -60 53 -75z" />
    <glyph glyph-name="iogonek" unicode="&#x12f;" horiz-adv-x="542" 
d="M248 1077q-50 0 -82.5 31.5t-32.5 81.5q0 49 32.5 81t82.5 32q54 0 85.5 -31t31.5 -82t-31.5 -82t-85.5 -31zM444 20q23 -6 23 -19q0 -11 -14 -11q-24 0 -115 8l-43 -35q-141 -114 -141 -221q0 -122 116 -131q26 -3 66 12q40 12 43 12q8 0 8 -8q0 -6 -8 -14
q-81 -66 -180 -66q-84 0 -129 40.5t-45 113.5q0 83 62.5 152.5t199.5 146.5h-17q-14 0 -100 -4q-64 -6 -72 -6q-13 0 -14 11q0 14 27 22q62 14 77 49t15 147v336q0 97 -19 129q-14 31 -84 53q-22 9 -22 19q0 12 18 12q50 3 94 10.5t71.5 16t47.5 16.5t31 13t12 5
q13 0 13 -14q0 -1 -1.5 -6.5t-4 -18.5t-5.5 -28q-8 -44 -8 -199v-338q0 -118 14 -153q16 -37 84 -52z" />
    <glyph glyph-name="Idot" unicode="&#x130;" horiz-adv-x="641" 
d="M326 1436q-43 0 -71 27t-28 71q0 42 28 69t71 27q44 0 72 -26.5t28 -69.5q0 -44 -28 -71t-72 -27zM150 -12q-15 0 -15 12q0 16 35 25q48 14 57 106q11 112 11 477v45q0 390 -11 502q-9 94 -57 111q-35 9 -35 24q0 13 15 13l63 -7q61 -6 109 -6q44 0 108 6l62 7
q15 0 14 -11q-1 -14 -35 -26q-50 -18 -59 -111q-9 -91 -9 -502q0 -483 15 -553q12 -60 53 -75q36 -12 35 -27q-1 -10 -14 -10q-4 0 -68 6t-102 6q-42 0 -107 -6z" />
    <glyph glyph-name="dotlessi" unicode="&#x131;" horiz-adv-x="567" 
d="M111 -10q-15 0 -15 12t25 21q66 15 78 49q14 32 14 147v338q0 94 -16 131q-14 32 -84 51q-25 6 -25 17t21 14q50 2 93.5 9t70.5 15.5t47 16t30.5 13t11.5 5.5q15 0 15 -14q0 -2 -4.5 -20t-5.5 -31q-11 -79 -11 -199v-340q0 -109 17 -151q16 -36 84 -54q23 -6 22 -19
q0 -11 -14 -11q-5 0 -76 6q-90 4 -106 4q-15 0 -101 -4q-65 -6 -71 -6z" />
    <glyph glyph-name="IJ" unicode="&#x132;" horiz-adv-x="1202" 
d="M575 -31q-166 0 -266 81.5t-100 221.5q0 74 36.5 121t88.5 47q36 0 60 -21t24 -52q0 -37 -51 -82q-50 -47 -50 -99q0 -73 68 -129.5t180 -56.5q287 0 287 377v520q0 237 -12 293q-12 57 -72 78q-31 16 -31 24q0 13 15 13q4 0 71 -9q70 -6 115 -6q46 0 113 6q70 9 71 9
q15 0 15 -13q0 -8 -6 -12.5t-29 -11.5q-2 -1 -7 -4q-39 -21 -50 -38q-19 -30 -23 -153q-1 -41 -2 -137l-2 -447q0 -263 -116.5 -391.5t-326.5 -128.5zM158 621q-15 0 -15 12q0 9 37 24q47 12 56 68q10 62 10 252q0 166 -10 221q-9 51 -56 66q-37 12 -37 22q0 12 15 12h8
q8 -1 25.5 -2t37.5 -2q90 -4 101 -4q8 0 94 4q19 1 36 2t25 1.5t9 0.5q14 0 14 -12q0 -10 -37 -22q-40 -15 -49 -60q-8 -41 -8 -190v-37v-41q0 -170 8 -217q9 -50 49 -62q37 -15 37 -24q0 -12 -14 -12q-1 0 -9 0.5t-25 1.5t-36 2q-86 4 -94 4q-11 0 -101 -4q-20 -1 -37.5 -2
t-25.5 -1z" />
    <glyph glyph-name="ij" unicode="&#x133;" horiz-adv-x="1060" 
d="M807 1079q-50 0 -82.5 31.5t-32.5 81.5q0 49 32.5 81t82.5 32q54 0 85.5 -31t31.5 -82t-31.5 -82t-85.5 -31zM248 1077q-50 0 -82.5 31.5t-32.5 81.5q0 49 32.5 81t82.5 32q54 0 85.5 -31t31.5 -82t-31.5 -82t-85.5 -31zM98 -10q-13 0 -14 11q0 14 27 22q62 14 77 49
t15 147v336q0 97 -19 129q-14 31 -84 53q-22 9 -22 19q0 12 18 12q50 3 94 10.5t71.5 16t47.5 16.5t31 13t12 5q13 0 13 -14q0 -1 -1.5 -6.5t-4 -18.5t-5.5 -28q-8 -44 -8 -199v-338q0 -118 14 -153q16 -37 84 -52q23 -6 23 -19q0 -11 -14 -11q-5 0 -76 6q-90 4 -107 4
q-14 0 -100 -4q-64 -6 -72 -6zM659 -440q-67 0 -118.5 39t-51.5 90q0 35 18.5 55t49.5 20q55 0 76 -75q21 -82 86 -82q86 0 86 117q0 15 -25 92q-22 74 -22 125v604q0 88 -21 121.5t-88 52.5q-34 15 -37 24q0 12 23 15q37 2 72 6t61 9.5t49 12t38.5 12t26.5 10.5t17 8l6 3
q17 0 17 -14q0 -3 -1.5 -10t-3.5 -19.5t-4 -23.5q-10 -68 -10 -199v-662q0 -166 -65.5 -248.5t-178.5 -82.5z" />
    <glyph glyph-name="Kcommaaccent" unicode="&#x136;" horiz-adv-x="1339" 
d="M1245 45q11 -7 23 -13t19 -9t13 -6t8.5 -6t2.5 -7q0 -12 -17 -12q-1 0 -9.5 0.5t-27 1.5t-38.5 2q-90 4 -103 4q-31 0 -141 -4q-24 -1 -44.5 -2t-30.5 -2h-9q-14 0 -14 12q0 10 24 19q62 21 62 40q0 64 -340 588q-13 19 -23 19q-13 0 -27 -17l-8 -8l-6 -6l-164 -174
q3 -266 13 -352q12 -73 55 -88q35 -9 35 -25q0 -12 -15 -12q-1 0 -65 6t-105 6t-106 -6t-66 -6q-15 0 -14 11q1 14 37 26q48 17 57 110q8 84 8 518q0 421 -8 502q-9 94 -57 111q-39 13 -37 28q2 9 14 9l64 -7q61 -6 108 -6q45 0 109 6l61 7q15 0 15 -13q0 -15 -35 -24
q-51 -18 -60 -115q-8 -84 -8 -498v-149l449 477q145 154 145 215q0 44 -82 74q-18 6 -18 18q0 15 20 15q1 0 14.5 -1.5t35 -3.5t46.5 -3.5t52 -3t47 -1.5q25 0 62 3t64 7l27 3q17 0 17 -15q0 -9 -31 -18q-69 -17 -120.5 -52.5t-123.5 -113.5l-278 -295q247 -400 360 -571
q110 -157 164 -193zM674 -111q125 0 125 -157q0 -106 -72 -166q-71 -62 -121 -62q-18 0 -18 17q0 12 20 18q63 19 103.5 67.5t40.5 110.5q0 39 -15 39q-2 0 -14.5 -11t-30.5 -21.5t-33 -10.5q-37 0 -61.5 23.5t-24.5 60.5q0 41 29 66.5t72 25.5z" />
    <glyph glyph-name="kcommaaccent" unicode="&#x137;" horiz-adv-x="1026" 
d="M911 53q16 -14 38.5 -24t35 -15.5t12.5 -13.5q0 -10 -16 -10l-55 6q-74 4 -92 4q-13 0 -99 -4q-62 -6 -67 -6q-15 0 -15 12q0 1 23.5 17t23.5 30q4 7 -27.5 63t-66.5 105l-61 90q-16 25 -35.5 54t-22.5 34q-26 39 -38 39q-1 0 -5 -1q-1 -1 -2.5 -1.5t-3.5 -1.5l-96 -84
v-104v-45v-38.5v-30t1.5 -26t3.5 -20t5.5 -17t8.5 -12t12 -11.5t16 -8.5t21 -8.5q3 -2 8 -3.5t7 -2.5t4.5 -2.5t3.5 -3t2 -4.5t1 -7q0 -12 -16 -12q-6 0 -64 6q-78 4 -90 4q-16 0 -90 -4l-53 -6q-15 0 -14 12q1 13 26 23q40 15 49 61q13 50 13 197v733q0 108 -13 145
q-9 35 -55 56q-36 20 -39 28q0 12 21 15q118 7 221 63l10 6q14 0 14 -14v-10q-14 -63 -14 -197v-725q209 180 289 256q65 62 65 88q0 38 -45 53q-26 9 -26 23q0 10 14 10q8 0 55 -8q56 -6 86 -6q28 0 86 6t66 6q16 0 16 -14q0 -16 -43 -25q-62 -9 -114 -43
q-51 -34 -150 -119l-80 -71l57 -88l54 -78l45 -66q50 -70 76 -110q54 -72 63 -82q40 -47 55 -62zM543 -111q125 0 125 -157q0 -106 -72 -166q-71 -62 -121 -62q-18 0 -18 17q0 12 20 18q63 19 103.5 67.5t40.5 110.5q0 39 -15 39q-2 0 -14.5 -11t-30.5 -21.5t-33 -10.5
q-37 0 -61.5 23.5t-24.5 60.5q0 41 29 66.5t72 25.5z" />
    <glyph glyph-name="Lacute" unicode="&#x139;" horiz-adv-x="1110" 
d="M219 1411q-8 0 -8 10q0 8 8 13l82 51q127 80 256 155q64 37 94 37q27 0 44.5 -16.5t17.5 -46.5q0 -48 -78 -76q-282 -99 -399 -123zM473 1305q14 0 14 -13q0 -10 -26 -22q-1 0 -21 -8q-42 -20 -51 -117q-6 -91 -6 -529q0 -316 4 -430q3 -80 23 -110q30 -49 225 -49
q182 0 264 73q83 76 123 291q1 13 8.5 18t14.5 0t6 -18l-19 -135q-14 -112 -14 -168q0 -22 8 -43t15.5 -33t7.5 -14q0 -12 -15 -12q-2 0 -29 1t-71 3t-96.5 4t-115.5 3t-118 1q-43 0 -86.5 -0.5t-80 -1t-72 -1t-64.5 -1.5t-54.5 -2t-44.5 -1.5t-32.5 -1t-21.5 -1.5h-7
q-14 0 -14 12q0 8 37 29q39 23 45 108q8 76 8 479q0 444 -6 533q-6 93 -45 113t-39 30q0 13 14 13l56 -7q94 -13 211 -2z" />
    <glyph glyph-name="lacute" unicode="&#x13a;" horiz-adv-x="512" 
d="M45 1411q-8 0 -8 10q0 8 8 13l82 51q127 80 256 155q64 37 94 37q27 0 44.5 -16.5t17.5 -46.5q0 -48 -78 -76q-281 -99 -400 -123zM100 -10q-14 0 -14 11q0 14 29 26q53 18 65 59q13 47 13 195v673q0 140 -15 189t-65 69q-50 21 -50 31q0 14 23 14q68 4 131.5 22t92.5 34
l30 16q12 0 12 -12q-16 -107 -16 -297v-756q0 -131 14 -174t68 -65q24 -12 24 -21q0 -14 -16 -14q-6 0 -64 6q-78 4 -94 4q-18 0 -104 -4z" />
    <glyph glyph-name="Lcommaaccent" unicode="&#x13b;" horiz-adv-x="1110" 
d="M473 1305q14 0 14 -13q0 -10 -26 -22q-1 0 -21 -8q-42 -20 -51 -117q-6 -91 -6 -529q0 -316 4 -430q3 -80 23 -110q30 -49 225 -49q182 0 264 73q83 76 123 291q1 13 8.5 18t14.5 0t6 -18l-19 -135q-14 -112 -14 -168q0 -22 8 -43t15.5 -33t7.5 -14q0 -12 -15 -12
q-2 0 -29 1t-71 3t-96.5 4t-115.5 3t-118 1q-43 0 -86.5 -0.5t-80 -1t-72 -1t-64.5 -1.5t-54.5 -2t-44.5 -1.5t-32.5 -1t-21.5 -1.5h-7q-14 0 -14 12q0 8 37 29q39 23 45 108q8 76 8 479q0 444 -6 533q-6 93 -45 113t-39 30q0 13 14 13l56 -7q94 -13 211 -2zM524 -496
q-18 0 -18 17q0 12 20 18q63 19 103.5 67.5t40.5 110.5q0 39 -15 39q-2 0 -14 -11t-30 -21.5t-33 -10.5q-37 0 -61.5 23.5t-24.5 60.5q0 41 28.5 66.5t71.5 25.5q125 0 125 -157q0 -106 -72 -166q-71 -62 -121 -62z" />
    <glyph glyph-name="lcommaaccent" unicode="&#x13c;" horiz-adv-x="512" 
d="M100 -10q-14 0 -14 11q0 14 29 26q53 18 65 59q13 47 13 195v673q0 140 -15 189t-65 69q-50 21 -50 31q0 14 23 14q68 4 131.5 22t92.5 34l30 16q12 0 12 -12q-16 -107 -16 -297v-756q0 -131 14 -174t68 -65q24 -12 24 -21q0 -14 -16 -14q-6 0 -64 6q-78 4 -94 4
q-18 0 -104 -4zM219 -496q-18 0 -18 17q0 12 20 18q63 19 103.5 67.5t40.5 110.5q0 39 -15 39q-2 0 -14.5 -11t-30.5 -21.5t-33 -10.5q-37 0 -61.5 23.5t-24.5 60.5q0 41 29 66.5t72 25.5q125 0 125 -157q0 -106 -72 -166q-71 -62 -121 -62z" />
    <glyph glyph-name="Lcaron" unicode="&#x13d;" horiz-adv-x="1110" 
d="M473 1305q14 0 14 -13q0 -10 -26 -22q-1 0 -21 -8q-42 -20 -51 -117q-6 -91 -6 -529q0 -316 4 -430q3 -80 23 -110q30 -49 225 -49q182 0 264 73q83 76 123 291q1 13 8.5 18t14.5 0t6 -18l-19 -135q-14 -112 -14 -168q0 -22 8 -43t15.5 -33t7.5 -14q0 -12 -15 -12
q-2 0 -29 1t-71 3t-96.5 4t-115.5 3t-118 1q-43 0 -86.5 -0.5t-80 -1t-72 -1t-64.5 -1.5t-54.5 -2t-44.5 -1.5t-32.5 -1t-21.5 -1.5h-7q-14 0 -14 12q0 8 37 29q39 23 45 108q8 76 8 479q0 444 -6 533q-6 93 -45 113t-39 30q0 13 14 13l56 -7q94 -13 211 -2zM678 915
q-19 0 -19 17q0 14 21 20q64 20 104.5 67t40.5 111q0 37 -16 37q-2 0 -14.5 -10.5t-30.5 -21.5t-33 -11q-37 0 -60.5 24t-23.5 62q0 41 27.5 67t70.5 26q61 0 94 -40.5t33 -117.5q0 -106 -71 -168t-123 -62z" />
    <glyph glyph-name="lcaron" unicode="&#x13e;" horiz-adv-x="512" 
d="M100 -10q-14 0 -14 11q0 14 29 26q53 18 65 59q13 47 13 195v673q0 140 -15 189t-65 69q-50 21 -50 31q0 14 23 14q68 4 131.5 22t92.5 34l30 16q12 0 12 -12q-16 -107 -16 -297v-756q0 -131 14 -174t68 -65q24 -12 24 -21q0 -14 -16 -14q-6 0 -64 6q-78 4 -94 4
q-18 0 -104 -4zM483 930q-18 0 -18 16q0 15 20 21q64 20 105 67t41 111q0 37 -17 37q-2 0 -14 -11t-30 -21.5t-33 -10.5q-37 0 -60.5 24t-23.5 62q0 41 27.5 66.5t70.5 25.5q125 0 125 -158q0 -105 -72 -168q-70 -61 -121 -61z" />
    <glyph glyph-name="Ldot" unicode="&#x13f;" horiz-adv-x="1110" 
d="M473 1305q14 0 14 -13q0 -10 -26 -22q-1 0 -21 -8q-42 -20 -51 -117q-6 -91 -6 -529q0 -316 4 -430q3 -80 23 -110q30 -49 225 -49q182 0 264 73q83 76 123 291q1 13 8.5 18t14.5 0t6 -18l-19 -135q-14 -112 -14 -168q0 -22 8 -43t15.5 -33t7.5 -14q0 -12 -15 -12
q-2 0 -29 1t-71 3t-96.5 4t-115.5 3t-118 1q-43 0 -86.5 -0.5t-80 -1t-72 -1t-64.5 -1.5t-54.5 -2t-44.5 -1.5t-32.5 -1t-21.5 -1.5h-7q-14 0 -14 12q0 8 37 29q39 23 45 108q8 76 8 479q0 444 -6 533q-6 93 -45 113t-39 30q0 13 14 13l56 -7q94 -13 211 -2zM713 756
q59 6 82.5 -43t-1 -98.5t-81.5 -43.5q-58 -6 -82 43.5t0 98.5t82 43z" />
    <glyph glyph-name="ldot" unicode="&#x140;" horiz-adv-x="616" 
d="M100 -10q-14 0 -14 11q0 14 29 26q53 18 65 59q13 47 13 195v673q0 140 -15 189t-65 69q-50 21 -50 31q0 14 23 14q68 4 131.5 22t92.5 34l30 16q12 0 12 -12q-16 -107 -16 -297v-756q0 -131 14 -174t68 -65q24 -12 24 -21q0 -14 -16 -14q-6 0 -64 6q-78 4 -94 4
q-18 0 -104 -4zM545 739q59 6 82.5 -43t-1 -98t-81.5 -43q-58 -6 -82 43t0 98t82 43z" />
    <glyph glyph-name="Lslash" unicode="&#x141;" horiz-adv-x="1110" 
d="M1051 391l-19 -135q-14 -112 -14 -168q0 -22 8 -43t15.5 -33t7.5 -14q0 -12 -15 -12q-2 0 -29 1t-71 3t-96.5 4t-115.5 3t-118 1q-43 0 -86.5 -0.5t-80 -1t-72 -1t-64.5 -1.5t-54.5 -2t-44.5 -1.5t-32.5 -1t-21.5 -1.5h-7q-14 0 -14 12q0 8 37 29q39 23 45 106
q8 73 8 469l-117 -47q-12 -6 -20 -6q-19 0 -19 22q0 12 17 19l139 55q0 423 -6 506q-6 89 -45 109t-39 30q0 13 14 13l56 -7q94 -13 211 -2l65 9q14 0 14 -13q0 -10 -26 -22q-1 0 -21 -8q-38 -20 -47 -103q-7 -63 -10 -444l164 63q2 2 12 2q19 0 19 -22q0 -12 -17 -19
l-178 -69v-54q0 -316 4 -430q3 -80 23 -110q30 -49 225 -49q182 0 264 73q83 76 123 291q1 13 8.5 18t14.5 0t6 -18z" />
    <glyph glyph-name="lslash" unicode="&#x142;" horiz-adv-x="542" 
d="M483 793q10 -19 -10 -29l-137 -80v-420q0 -131 14 -174t68 -65q24 -12 24 -21q0 -14 -16 -14q-6 0 -64 6q-78 4 -94 4q-18 0 -104 -4l-64 -6q-14 0 -14 11q0 14 29 26q53 18 65 59q13 47 13 195v321l-68 -39q-19 -9 -31 6q-10 19 10 29l89 49v307q0 140 -15 189t-65 69
q-50 21 -50 31q0 14 23 14q68 4 131.5 22t92.5 34l30 16q12 0 12 -12q-16 -107 -16 -297v-289l117 68q18 9 30 -6z" />
    <glyph glyph-name="Nacute" unicode="&#x143;" horiz-adv-x="1421" 
d="M565 1411q-8 0 -8 10q0 8 8 13l82 51q127 80 256 155q64 37 94 37q27 0 44.5 -16.5t17.5 -46.5q0 -48 -78 -76q-282 -99 -399 -123zM1214 -37q-17 0 -36 25q-46 68 -359 448q-308 380 -532 649q-29 29 -35 29q-8 0 -8 -18v-817q0 -130 26 -181q26 -50 115 -75
q33 -9 33 -23q0 -12 -21 -12q-3 0 -67 6t-101 6q-35 0 -94 -6q-58 -6 -67 -6q-19 0 -19 14q0 9 33 18q71 18 98 75t27 200v758q0 99 -13 135t-57 53q-15 6 -32.5 12.5t-27 10.5l-19 8t-13.5 8.5t-4 9.5q0 13 14 13q1 0 6 -1t17 -2.5t24 -3.5q47 -6 64 -6q18 0 55.5 6.5
t42.5 6.5q34 0 82 -54q157 -179 447 -528q327 -390 391 -473q18 -23 18 0v786q0 109 -27.5 160.5t-95.5 71.5q-41 9 -41 24q0 13 15 13q1 0 8.5 -1t24.5 -2.5t36 -3.5q64 -6 97 -6t92 6q17 2 32 3.5t21.5 2.5t7.5 1q14 0 14 -13q0 -12 -32 -20q-64 -19 -90.5 -70.5
t-26.5 -165.5v-1034q0 -37 -23 -37z" />
    <glyph glyph-name="nacute" unicode="&#x144;" horiz-adv-x="1103" 
d="M397 924q-7 0 -10 8q-3 5 4 12q270 282 309 313q30 19 41 21q58 9 70 -51q6 -39 -59 -86q-223 -152 -344 -213q-7 0 -11 -4zM997 27q27 -15 27 -25q0 -12 -14 -12q-6 0 -62 6q-74 4 -88 4t-84 -4q-52 -6 -57 -6q-14 0 -14 12q0 11 24 23q38 15 49 47q13 37 13 135v330
q0 239 -183 239q-115 0 -196 -106q-80 -109 -80 -291v-174q0 -107 12 -137t59 -45q25 -8 25 -22q-1 -11 -14 -11q-4 0 -60 6q-74 4 -90 4q-14 0 -92 -4l-57 -6q-13 0 -14 11q-1 14 26 22q41 14 51 47t10 139v350q0 89 -16.5 124.5t-60.5 47.5q-33 8 -32 22q1 12 23 13
q46 4 100.5 19t89.5 29l34 13q12 0 12 -14v-3q-1 -4 -2.5 -11t-2.5 -18t-3 -25t-3 -32t-2.5 -38.5t-2 -45t-1 -51.5t0.5 -57q29 139 113 217t202 78q154 0 226.5 -80.5t72.5 -252.5v-287q0 -105 10 -135t51 -45z" />
    <glyph glyph-name="Ncommaaccent" unicode="&#x145;" horiz-adv-x="1421" 
d="M1214 -37q-17 0 -36 25q-46 68 -359 448q-308 380 -532 649q-29 29 -35 29q-8 0 -8 -18v-817q0 -130 26 -181q26 -50 115 -75q33 -9 33 -23q0 -12 -21 -12q-3 0 -67 6t-101 6q-35 0 -94 -6q-58 -6 -67 -6q-19 0 -19 14q0 9 33 18q71 18 98 75t27 200v758q0 99 -13 135
t-57 53q-15 6 -32.5 12.5t-27 10.5l-19 8t-13.5 8.5t-4 9.5q0 13 14 13q1 0 6 -1t17 -2.5t24 -3.5q47 -6 64 -6q18 0 55.5 6.5t42.5 6.5q34 0 82 -54q157 -179 447 -528q327 -390 391 -473q18 -23 18 0v786q0 109 -27.5 160.5t-95.5 71.5q-41 9 -41 24q0 13 15 13
q1 0 8.5 -1t24.5 -2.5t36 -3.5q64 -6 97 -6t92 6q17 2 32 3.5t21.5 2.5t7.5 1q14 0 14 -13q0 -12 -32 -20q-64 -19 -90.5 -70.5t-26.5 -165.5v-1034q0 -37 -23 -37zM682 -496q-18 0 -18 17q0 12 20 18q63 19 103 67.5t40 110.5q0 39 -14 39q-2 0 -14.5 -11t-30.5 -21.5
t-33 -10.5q-37 0 -61.5 23.5t-24.5 60.5q0 41 29 66.5t72 25.5q124 0 124 -157q0 -107 -71 -166q-71 -62 -121 -62z" />
    <glyph glyph-name="ncommaaccent" unicode="&#x146;" horiz-adv-x="1103" 
d="M997 27q27 -15 27 -25q0 -12 -14 -12q-6 0 -62 6q-74 4 -88 4t-84 -4q-52 -6 -57 -6q-14 0 -14 12q0 11 24 23q38 15 49 47q13 37 13 135v330q0 239 -183 239q-115 0 -196 -106q-80 -109 -80 -291v-174q0 -107 12 -137t59 -45q25 -8 25 -22q-1 -11 -14 -11q-4 0 -60 6
q-74 4 -90 4q-14 0 -92 -4l-57 -6q-13 0 -14 11q-1 14 26 22q41 14 51 47t10 139v350q0 89 -16.5 124.5t-60.5 47.5q-33 8 -32 22q1 12 23 13q46 4 100.5 19t89.5 29l34 13q12 0 12 -14v-3q-1 -4 -2.5 -11t-2.5 -18t-3 -25t-3 -32t-2.5 -38.5t-2 -45t-1 -51.5t0.5 -57
q29 139 113 217t202 78q154 0 226.5 -80.5t72.5 -252.5v-287q0 -105 10 -135t51 -45zM571 -111q125 0 125 -157q0 -107 -71 -166q-71 -62 -121 -62q-19 0 -19 17q0 12 21 18q63 19 103 67.5t40 110.5q0 39 -14 39q-2 0 -14.5 -11t-30.5 -21.5t-33 -10.5q-37 0 -61.5 23.5
t-24.5 60.5q0 41 28.5 66.5t71.5 25.5z" />
    <glyph glyph-name="Ncaron" unicode="&#x147;" horiz-adv-x="1421" 
d="M518 1702q19 0 84 -47q37 -20 180 -111h4q42 26 82 51t63 39.5t44.5 28t32 20t20 11.5t14.5 6.5t9 1.5q20 0 12 -21q-6 -16 -29 -39q-21 -23 -153 -149q-44 -44 -58 -49q-20 -14 -39 -14q-17 0 -35 10.5t-28 20t-37 36.5l-154 150q-26 26 -26 41q0 14 14 14zM1214 -37
q-17 0 -36 25q-46 68 -359 448q-308 380 -532 649q-29 29 -35 29q-8 0 -8 -18v-817q0 -130 26 -181q26 -50 115 -75q33 -9 33 -23q0 -12 -21 -12q-3 0 -67 6t-101 6q-35 0 -94 -6q-58 -6 -67 -6q-19 0 -19 14q0 9 33 18q71 18 98 75t27 200v758q0 99 -13 135t-57 53
q-15 6 -32.5 12.5t-27 10.5l-19 8t-13.5 8.5t-4 9.5q0 13 14 13q1 0 6 -1t17 -2.5t24 -3.5q47 -6 64 -6q18 0 55.5 6.5t42.5 6.5q34 0 82 -54q157 -179 447 -528q327 -390 391 -473q18 -23 18 0v786q0 109 -27.5 160.5t-95.5 71.5q-41 9 -41 24q0 13 15 13q1 0 8.5 -1
t24.5 -2.5t36 -3.5q64 -6 97 -6t92 6q17 2 32 3.5t21.5 2.5t7.5 1q14 0 14 -13q0 -12 -32 -20q-64 -19 -90.5 -70.5t-26.5 -165.5v-1034q0 -37 -23 -37z" />
    <glyph glyph-name="ncaron" unicode="&#x148;" horiz-adv-x="1103" 
d="M469 993l-100 113q-80 92 -84 111q0 14 14 14q18 0 143 -98l121 -95h4q24 19 75.5 58t74.5 57q66 53 84.5 65.5t29.5 12.5q15 0 15 -14q0 -16 -105 -136q-16 -16 -43 -47t-41 -47q-26 -28 -42 -36.5t-50 -8.5q-35 0 -52.5 9.5t-43.5 41.5zM997 27q27 -15 27 -25
q0 -12 -14 -12q-6 0 -62 6q-74 4 -88 4t-84 -4q-52 -6 -57 -6q-14 0 -14 12q0 11 24 23q38 15 49 47q13 37 13 135v330q0 239 -183 239q-115 0 -196 -106q-80 -109 -80 -291v-174q0 -107 12 -137t59 -45q25 -8 25 -22q-1 -11 -14 -11q-4 0 -60 6q-74 4 -90 4q-14 0 -92 -4
l-57 -6q-13 0 -14 11q-1 14 26 22q41 14 51 47t10 139v350q0 89 -16.5 124.5t-60.5 47.5q-33 8 -32 22q1 12 23 13q46 4 100.5 19t89.5 29l34 13q12 0 12 -14v-3q-1 -4 -2.5 -11t-2.5 -18t-3 -25t-3 -32t-2.5 -38.5t-2 -45t-1 -51.5t0.5 -57q29 139 113 217t202 78
q154 0 226.5 -80.5t72.5 -252.5v-287q0 -105 10 -135t51 -45z" />
    <glyph glyph-name="Eng" unicode="&#x14a;" horiz-adv-x="1474" 
d="M930 -440q-127 0 -207 64t-80 173q0 73 35 118.5t86 45.5q37 0 60.5 -21.5t23.5 -56.5q0 -40 -49 -80q-47 -41 -47 -84q0 -53 50 -92t132 -39q112 0 173.5 84t61.5 234q0 58 -65 129l-821 1048q-25 25 -27 25q-10 0 -10 -18v-811q0 -122 32 -179t111 -77q33 -9 33 -23
q0 -12 -19 -12q-7 0 -71 6t-101 6q-33 0 -92 -6t-69 -6q-19 0 -19 14q0 9 33 18q70 18 97.5 73t27.5 188v766q0 107 -18 148.5t-78 61.5q-70 15 -70 33q0 15 14 15q1 0 6 -1t17 -2.5t24 -3.5q47 -6 66 -6q9 0 44.5 6.5t43.5 6.5q35 0 84 -58q169 -194 858 -1057
q13 -16 19 -16q4 0 4 14v846q0 117 -23.5 164t-95.5 70q-42 11 -41 26q0 9 14 9l64 -7q64 -6 98 -6q37 0 96 6q17 2 32.5 3.5t22 2.5t7.5 1q14 0 14 -11q0 -13 -37 -22q-63 -18 -88 -65.5t-26 -166.5v-1011q0 -223 -85 -345t-245 -122z" />
    <glyph glyph-name="eng" unicode="&#x14b;" horiz-adv-x="1073" 
d="M643 827q155 0 226 -82t71 -264v-590q0 -166 -65.5 -248.5t-178.5 -82.5q-67 0 -117.5 39t-52.5 90q0 35 19.5 55t50.5 20q56 0 74 -75q24 -82 86 -82q88 0 88 117q0 15 -25 92q-22 74 -22 125l-2 583q0 250 -187 250q-115 0 -196 -106q-80 -106 -80 -289v-174
q0 -107 12 -137t59 -45q25 -8 25 -22q-1 -11 -14 -11q-4 0 -60 6q-74 4 -90 4q-14 0 -92 -4l-57 -6q-13 0 -14 11q-1 14 26 22q41 14 51 47t10 139v350q0 89 -16.5 124.5t-60.5 47.5q-33 8 -32 22q1 12 23 13q46 4 100.5 19t89.5 29l34 13q12 0 12 -14v-3q-1 -4 -2.5 -11
t-2.5 -18t-3 -25t-3 -32t-2.5 -38.5t-2 -45t-1 -51.5t0.5 -57q29 139 114 217t207 78z" />
    <glyph glyph-name="Omacron" unicode="&#x14c;" horiz-adv-x="1484" 
d="M520 1503q-28 0 -28 25q0 47 36 47q37 0 86 -2t113 -2q72 0 129 2t102 2q27 0 27 -21q0 -51 -35 -51q-61 0 -108 2t-107 2q-59 0 -114 -2t-101 -2zM741 1329q283 0 465 -194q180 -192 180 -486q0 -293 -180 -485q-183 -195 -465 -195q-279 0 -462 195q-181 193 -181 485
q0 293 181 486q182 194 462 194zM741 2q198 0 324 156q127 157 127 491q0 343 -125 492q-126 153 -326 153q-197 0 -323 -153q-127 -154 -127 -492q0 -332 127 -489q131 -158 323 -158z" />
    <glyph glyph-name="omacron" unicode="&#x14d;" horiz-adv-x="1007" 
d="M295 1108q37 0 86 -2t113 -2q72 0 129 2t102 2q27 0 27 -21q0 -51 -35 -51q-62 0 -109 2t-106 2q-60 0 -115 -2t-100 -2q-29 0 -29 25q0 47 37 47zM930 397q0 -187 -117 -307q-118 -121 -309 -121t-309 121q-115 121 -115 307q0 189 115 310q117 120 309 120t309 -120
t117 -310zM504 -2q266 3 266 399q0 402 -266 402q-264 0 -264 -402q0 -396 264 -399z" />
    <glyph glyph-name="Ohungarumlaut" unicode="&#x150;" horiz-adv-x="1484" 
d="M530 1411q-7 0 -10 8q-2 2 2 13q126 191 199 286q42 54 74 54q25 0 42 -17t17 -43q0 -35 -51 -80q-181 -163 -264 -215l-7 -4zM762 1419q-3 6 4 13q170 212 225 276q58 64 86 64q29 0 45.5 -17.5t16.5 -44.5q0 -38 -54 -80q-205 -156 -303 -215l-8 -4q-9 0 -12 8z
M741 1329q283 0 465 -194q180 -192 180 -486q0 -293 -180 -485q-183 -195 -465 -195q-279 0 -462 195q-181 193 -181 485q0 293 181 486q182 194 462 194zM741 2q198 0 324 156q127 157 127 491q0 343 -125 492q-126 153 -326 153q-197 0 -323 -153q-127 -154 -127 -492
q0 -332 127 -489q131 -158 323 -158z" />
    <glyph glyph-name="ohungarumlaut" unicode="&#x151;" horiz-adv-x="1007" 
d="M297 920q-7 0 -10 8q-1 2 2 12q136 207 198 287q41 53 74 53q25 0 42.5 -16.5t17.5 -42.5q0 -34 -52 -80q-181 -163 -264 -215l-6 -4zM541 920q-10 0 -13 8q-3 5 4 12q168 209 226 277q57 63 86 63t45 -17t16 -44q0 -39 -53 -80q-205 -156 -303 -215zM930 397
q0 -187 -117 -307q-118 -121 -309 -121t-309 121q-115 121 -115 307q0 189 115 310q117 120 309 120t309 -120t117 -310zM504 -2q266 3 266 399q0 402 -266 402q-264 0 -264 -402q0 -396 264 -399z" />
    <glyph glyph-name="OE" unicode="&#x152;" horiz-adv-x="1777" 
d="M1692 397l-19 -159q-8 -89 -8 -144q0 -19 6.5 -40.5t13.5 -36t7 -15.5q0 -12 -17 -12h-25q-26 1 -84 2t-126 2q-152 2 -365 2q-55 0 -205 -12q-147 -15 -211 -15q-237 0 -401 197q-160 198 -160 483q0 294 162 486q164 194 412 194q71 0 172 -14q31 -4 61 -8t47.5 -6
t22.5 -3h194q68 0 141.5 0.5t131.5 2t106 2.5t77 1.5t32 0.5q16 0 16 -13l-3 -4q-2 -5 -6 -12.5t-8 -16t-6.5 -19t-2.5 -19.5q0 -25 6.5 -87t12.5 -112l7 -49q0 -16 -13 -17q-15 -1 -21 23q-1 1 -1 2q-44 191 -104 242q-62 53 -209 53q-110 0 -154 -8t-61 -31
q-19 -22 -25 -109q-3 -86 -6 -376h2q0 -41 22 -51.5t109 -10.5q114 0 156 39q45 42 66 145q7 17 20 17q10 0 10 -14q0 -1 -1 -13.5t-2.5 -33t-3 -45t-2.5 -55.5t-1 -58q0 -23 0.5 -46.5t1.5 -43t2 -37t2 -31t2 -24t2 -16.5v-5q0 -14 -10 -14q-15 0 -18 18q-21 104 -66 143
q-44 41 -158 41q-87 0 -109 -10t-22 -51h-2q3 -332 8 -412q9 -98 29 -118q29 -39 193 -39q176 0 245 69q76 73 105 293q3 23 20 23q13 0 13 -15zM891 72q19 37 22 135q7 122 7 440q0 296 -9 416q-9 122 -30 162q-17 35 -70 55t-127 20q-163 0 -274 -133
q-58 -71 -91.5 -204.5t-33.5 -313.5q0 -363 123 -518q110 -133 256 -133q82 0 145.5 20t81.5 54z" />
    <glyph glyph-name="oe" unicode="&#x153;" horiz-adv-x="1542" 
d="M1460 242q13 0 13 -11q0 -6 -7 -20q-30 -103 -122.5 -172.5t-213.5 -69.5q-221 0 -329 205q-102 -203 -334 -203q-172 0 -281 121q-106 118 -106 307q0 190 106 308q108 120 281 120q232 0 334 -215q105 215 329 215q147 0 240 -90q94 -88 94 -217q0 -36 -11.5 -49.5
t-43.5 -13.5l-535 2q0 -7 -1 -30.5t-1 -31.5q0 -173 75.5 -272.5t209.5 -99.5q110 0 186 61q83 67 103 141q6 15 14 15zM477 0q244 0 244 399q0 400 -244 400q-241 0 -241 -400q0 -399 241 -399zM1118 799q-100 0 -162 -77.5t-75 -219.5l424 2q14 0 18 7t4 32
q0 113 -56.5 184.5t-152.5 71.5z" />
    <glyph glyph-name="Racute" unicode="&#x154;" horiz-adv-x="1363" 
d="M403 1411q-8 0 -8 10q0 8 8 13l82 51q127 80 256 155q64 37 95 37q27 0 44 -16.5t17 -46.5q0 -48 -78 -76q-282 -99 -399 -123zM1079 -39q-79 0 -174 53q-91 53 -168 121q-81 71 -162 119q-88 55 -157 55q-25 0 -25 -28q3 -148 10 -183q9 -43 33 -61q11 -7 27.5 -13.5
t25.5 -11t9 -10.5q0 -12 -17 -12q-3 0 -67 6q-86 4 -107 4q-24 0 -63.5 -2.5t-69.5 -5.5l-29 -2q-16 0 -16 12q0 7 8.5 13.5t30.5 17.5q5 3 8 4q30 15 39 125q8 96 8 536q0 369 -8 445q-9 86 -39 110q-7 5 -20 11.5t-21 11t-8 8.5q0 14 16 14l58 -4q78 -4 96 -4q25 0 149 13
q106 14 177 14q260 0 415 -137q158 -137 158 -359q0 -233 -168 -370q-171 -136 -412 -136q-75 0 -122 7v-5q73 -16 170 -71q110 -63 202 -105q103 -47 201 -47q91 0 144 51.5t59 143.5q0 10 8 10q10 0 18.5 -29.5t8.5 -66.5q0 -101 -68 -172q-64 -70 -158 -70zM561 340
q195 0 320 119q129 120 129 362q0 233 -105 350t-284 117q-164 0 -203 -51q-22 -28 -25 -104q-5 -119 -2 -435v-303q0 -38 27 -47q24 -8 143 -8z" />
    <glyph glyph-name="racute" unicode="&#x155;" horiz-adv-x="778" 
d="M258 924q-7 0 -10 8q-3 5 4 12q270 282 309 313q30 19 41 21q58 9 70 -51q6 -39 -60 -86q-223 -152 -344 -213q-6 0 -10 -4zM606 825q67 0 104.5 -30t37.5 -82q0 -43 -21 -69t-57 -26q-34 0 -54.5 20.5t-27.5 44.5t-23.5 44.5t-42.5 20.5q-57 0 -110 -95t-56 -227v-260
q0 -69 24.5 -96t106.5 -50q20 -4 21 -18q-3 -12 -16 -14q-6 0 -82 6q-102 4 -121 4t-113 -4q-70 -6 -72 -6q-14 0 -14 14q0 12 27 21q64 18 80 44.5t16 106.5v416q0 62 -20.5 91t-75.5 42q-37 9 -37 20q0 15 22 15q39 2 78 9t67 16t50 17t35 13.5t14 5.5q12 0 12 -14
q-2 -15 -5.5 -40t-8 -93.5t-2.5 -124.5q25 128 97 203t167 75z" />
    <glyph glyph-name="Rcommaaccent" unicode="&#x156;" horiz-adv-x="1363" 
d="M1079 -39q-79 0 -174 53q-91 53 -168 121q-81 71 -162 119q-88 55 -157 55q-25 0 -25 -28q3 -148 10 -183q9 -43 33 -61q11 -7 27.5 -13.5t25.5 -11t9 -10.5q0 -12 -17 -12q-3 0 -67 6q-86 4 -107 4q-24 0 -63.5 -2.5t-69.5 -5.5l-29 -2q-16 0 -16 12q0 7 8.5 13.5
t30.5 17.5q5 3 8 4q30 15 39 125q8 96 8 536q0 369 -8 445q-9 86 -39 110q-7 5 -20 11.5t-21 11t-8 8.5q0 14 16 14l58 -4q78 -4 96 -4q25 0 149 13q106 14 177 14q260 0 415 -137q158 -137 158 -359q0 -233 -168 -370q-171 -136 -412 -136q-75 0 -122 7v-5q73 -16 170 -71
q110 -63 202 -105q103 -47 201 -47q91 0 144 51.5t59 143.5q0 10 8 10q10 0 18.5 -29.5t8.5 -66.5q0 -101 -68 -172q-64 -70 -158 -70zM561 340q195 0 320 119q129 120 129 362q0 233 -105 350t-284 117q-164 0 -203 -51q-22 -28 -25 -104q-5 -119 -2 -435v-303
q0 -38 27 -47q24 -8 143 -8zM561 -496q-18 0 -18 17q0 12 20 18q63 19 103.5 67.5t40.5 110.5q0 39 -15 39q-2 0 -14.5 -11t-30.5 -21.5t-33 -10.5q-37 0 -61.5 23.5t-24.5 60.5q0 41 29 66.5t72 25.5q125 0 125 -157q0 -106 -72 -166q-71 -62 -121 -62z" />
    <glyph glyph-name="rcommaaccent" unicode="&#x157;" horiz-adv-x="778" 
d="M606 825q67 0 104.5 -30t37.5 -82q0 -43 -21 -69t-57 -26q-34 0 -54.5 20.5t-27.5 44.5t-23.5 44.5t-42.5 20.5q-57 0 -110 -95t-56 -227v-260q0 -69 24.5 -96t106.5 -50q20 -4 21 -18q-3 -12 -16 -14q-6 0 -82 6q-102 4 -121 4t-113 -4q-70 -6 -72 -6q-14 0 -14 14
q0 12 27 21q64 18 80 44.5t16 106.5v416q0 62 -20.5 91t-75.5 42q-37 9 -37 20q0 15 22 15q39 2 78 9t67 16t50 17t35 13.5t14 5.5q12 0 12 -14q-2 -15 -5.5 -40t-8 -93.5t-2.5 -124.5q25 128 97 203t167 75zM315 -111q125 0 125 -157q0 -107 -71 -166q-71 -62 -121 -62
q-19 0 -19 17q0 12 21 18q63 19 103 67.5t40 110.5q0 39 -14 39q-2 0 -14.5 -11t-30.5 -21.5t-33 -10.5q-37 0 -61.5 23.5t-24.5 60.5q0 41 28.5 66.5t71.5 25.5z" />
    <glyph glyph-name="Rcaron" unicode="&#x158;" horiz-adv-x="1363" 
d="M356 1702q19 0 84 -47q44 -24 181 -111h4q42 26 82 51t63 39.5t44 28t32 20t20 11.5t14 6.5t9 1.5q20 0 12 -21q-6 -16 -29 -39q-21 -23 -153 -149q-44 -44 -57 -49q-20 -14 -39 -14q-17 0 -34.5 10t-29 20.5t-37.5 36.5l-153 150q-27 27 -27 41t14 14zM1079 -39
q-79 0 -174 53q-91 53 -168 121q-81 71 -162 119q-88 55 -157 55q-25 0 -25 -28q3 -148 10 -183q9 -43 33 -61q11 -7 27.5 -13.5t25.5 -11t9 -10.5q0 -12 -17 -12q-3 0 -67 6q-86 4 -107 4q-24 0 -63.5 -2.5t-69.5 -5.5l-29 -2q-16 0 -16 12q0 7 8.5 13.5t30.5 17.5q5 3 8 4
q30 15 39 125q8 96 8 536q0 369 -8 445q-9 86 -39 110q-7 5 -20 11.5t-21 11t-8 8.5q0 14 16 14l58 -4q78 -4 96 -4q25 0 149 13q106 14 177 14q260 0 415 -137q158 -137 158 -359q0 -233 -168 -370q-171 -136 -412 -136q-75 0 -122 7v-5q73 -16 170 -71q110 -63 202 -105
q103 -47 201 -47q91 0 144 51.5t59 143.5q0 10 8 10q10 0 18.5 -29.5t8.5 -66.5q0 -101 -68 -172q-64 -70 -158 -70zM561 340q195 0 320 119q129 120 129 362q0 233 -105 350t-284 117q-164 0 -203 -51q-22 -28 -25 -104q-5 -119 -2 -435v-303q0 -38 27 -47q24 -8 143 -8z
" />
    <glyph glyph-name="rcaron" unicode="&#x159;" horiz-adv-x="778" 
d="M330 993q-175 199 -178 207q-7 10 -7 17q0 14 15 14q18 0 143 -98l121 -95h4q24 19 75.5 58t74.5 57q66 53 84.5 65.5t29.5 12.5q15 0 15 -14q0 -16 -105 -136q-16 -16 -43 -47t-41 -47q-26 -28 -42 -36.5t-50 -8.5q-35 0 -52.5 9.5t-43.5 41.5zM606 825q67 0 104.5 -30
t37.5 -82q0 -43 -21 -69t-57 -26q-34 0 -54.5 20.5t-27.5 44.5t-23.5 44.5t-42.5 20.5q-57 0 -110 -95t-56 -227v-260q0 -69 24.5 -96t106.5 -50q20 -4 21 -18q-3 -12 -16 -14q-6 0 -82 6q-102 4 -121 4t-113 -4q-70 -6 -72 -6q-14 0 -14 14q0 12 27 21q64 18 80 44.5
t16 106.5v416q0 62 -20.5 91t-75.5 42q-37 9 -37 20q0 15 22 15q39 2 78 9t67 16t50 17t35 13.5t14 5.5q12 0 12 -14q-2 -15 -5.5 -40t-8 -93.5t-2.5 -124.5q25 128 97 203t167 75z" />
    <glyph glyph-name="Sacute" unicode="&#x15a;" horiz-adv-x="1187" 
d="M373 1411q-8 0 -8 10q0 8 8 13l82 51q127 80 256 155q64 37 94 37q27 0 44 -16.5t17 -46.5q0 -48 -78 -76q-282 -99 -399 -123zM160 -31q-17 0 -17 23q0 26 2 71q5 113 5 117q0 33 -2 74t-4 76t-4.5 64.5t-4.5 48.5t-2 20q0 16 17 16q11 0 20 -22q34 -94 68 -168
q27 -57 86 -139q115 -148 327 -148q155 0 240.5 77.5t85.5 209.5q0 113 -71 181.5t-232 109.5l-170 45q-342 86 -342 348q0 162 119 256q122 96 288 96q61 0 126 -17.5t108.5 -38t80 -38t46.5 -17.5q12 0 18 6t8 14t4 22.5t5 23.5q1 35 21 37q14 1 17 -14q1 -2 1 -5
q0 -98 8 -186l12 -123q12 -99 12 -104q0 -9 -7 -12.5t-15.5 0.5t-12.5 16q-33 93 -64 153.5t-79 118.5q-103 131 -283 131q-134 0 -214 -68.5t-80 -183.5q0 -102 68.5 -162t225.5 -102l170 -45q185 -45 270 -130t85 -230q0 -184 -127 -293t-326 -109q-86 0 -179 26
t-156.5 51.5t-78.5 25.5q-24 0 -36 -17t-19 -63q-3 -23 -18 -23z" />
    <glyph glyph-name="sacute" unicode="&#x15b;" horiz-adv-x="876" 
d="M279 924q-8 0 -11 8q-3 5 4 12q267 279 310 313q30 19 41 21q57 9 69 -51q6 -39 -59 -86q-223 -152 -344 -213q-6 0 -10 -4zM461 -31q-82 0 -172 33l-96 35q-17 0 -24 -8t-13 -33q-6 -19 -17 -19q-14 0 -14 19q0 2 1 34.5t1 59.5q0 52 -12 125q-3 21 -5.5 40.5t-4 28
t-1.5 9.5q0 14 12 14q14 -2 21 -20q89 -287 332 -287q92 0 147.5 45.5t55.5 126.5q0 67 -38.5 106.5t-127.5 59.5l-146 35q-127 32 -184 82t-57 141q0 100 85.5 165.5t215.5 65.5q91 0 172 -34q84 -35 88 -35q19 0 25 47q1 19 15.5 18.5t14.5 -20.5q0 -59 6.5 -119.5
t12.5 -91.5l6 -31q0 -13 -12 -12q-14 0 -21 18q-49 121 -122.5 176.5t-184.5 55.5q-84 0 -134 -41.5t-50 -104.5q0 -114 186 -157l147 -33q228 -52 228 -238q0 -116 -101 -186q-98 -70 -235 -70z" />
    <glyph glyph-name="Scedilla" unicode="&#x15e;" horiz-adv-x="1187" 
d="M647 -31h-26l-27 -82q180 -27 180 -139q0 -55 -46.5 -90t-111.5 -35q-44 0 -78 11.5t-46.5 21.5t-12.5 14q0 13 13 13l6 -3q5 -2 14 -6t20 -7.5t25 -6t27 -2.5q42 0 66 23.5t24 62.5q0 42 -25.5 64.5t-89.5 41.5q-12 3 -12 17q0 7 6 22l31 82q-99 9 -215 56
q-110 45 -136 45q-24 0 -36 -17t-19 -63q-3 -23 -18 -23q-17 0 -17 23q0 26 2 71q5 113 5 117q0 33 -2 74t-4 76t-4.5 64.5t-4.5 48.5t-2 20q0 16 17 16q11 0 20 -22q34 -94 68 -168q27 -57 86 -139q115 -148 327 -148q155 0 240.5 77.5t85.5 209.5q0 113 -71 181.5
t-232 109.5l-170 45q-342 86 -342 348q0 162 119 256q122 96 288 96q61 0 126 -17.5t108.5 -38t80 -38t46.5 -17.5q12 0 18 6t8 14t4 22.5t5 23.5q1 35 21 37q14 1 17 -14q1 -2 1 -5q0 -98 8 -186l12 -123q12 -99 12 -104q0 -9 -7 -12.5t-15.5 0.5t-12.5 16
q-33 93 -64 153.5t-79 118.5q-103 131 -283 131q-134 0 -214 -68.5t-80 -183.5q0 -102 68.5 -162t225.5 -102l170 -45q185 -45 270 -130t85 -230q0 -184 -127 -293t-326 -109z" />
    <glyph glyph-name="scedilla" unicode="&#x15f;" horiz-adv-x="876" 
d="M461 -31h-8l-27 -82q180 -27 180 -139q0 -55 -46 -90t-111 -35q-44 0 -78 11.5t-47 21.5t-13 14q0 13 13 13l6 -3q5 -2 14 -6t20 -7.5t25 -6t27 -2.5q42 0 66 23.5t24 62.5q0 42 -25.5 64.5t-89.5 41.5q-12 3 -12 17q0 7 6 22l31 82q-42 5 -95.5 21.5t-89 30.5t-38.5 14
q-17 0 -24 -8t-13 -33q-6 -19 -17 -19q-14 0 -14 19q0 2 1 34.5t1 59.5q0 52 -12 125q-3 21 -5.5 40.5t-4 28t-1.5 9.5q0 14 12 14q14 -2 21 -20q89 -287 332 -287q92 0 147.5 45.5t55.5 126.5q0 67 -38.5 106.5t-127.5 59.5l-146 35q-127 32 -184 82t-57 141
q0 100 85.5 165.5t215.5 65.5q91 0 172 -34q84 -35 88 -35q19 0 25 47q1 19 15.5 18.5t14.5 -20.5q0 -59 6.5 -119.5t12.5 -91.5l6 -31q0 -13 -12 -12q-14 0 -21 18q-49 121 -122.5 176.5t-184.5 55.5q-84 0 -134 -41.5t-50 -104.5q0 -114 186 -157l147 -33
q228 -52 228 -238q0 -116 -101 -186q-98 -70 -235 -70z" />
    <glyph glyph-name="Scaron" unicode="&#x160;" horiz-adv-x="1187" 
d="M326 1702q19 0 84 -47q37 -20 180 -111h4q42 26 82 51t63 39.5t44 28t32 20t20 11.5t14 6.5t9 1.5q19 0 13 -20q-6 -17 -29 -40q-15 -16 -154 -149q-44 -44 -57 -49q-20 -14 -39 -14q-17 0 -35 10.5t-28 20t-37 36.5l-154 150q-27 27 -27 41t15 14zM160 -31q-17 0 -17 23
q0 26 2 71q5 113 5 117q0 33 -2 74t-4 76t-4.5 64.5t-4.5 48.5t-2 20q0 16 17 16q11 0 20 -22q34 -94 68 -168q27 -57 86 -139q115 -148 327 -148q155 0 240.5 77.5t85.5 209.5q0 113 -71 181.5t-232 109.5l-170 45q-342 86 -342 348q0 162 119 256q122 96 288 96
q61 0 126 -17.5t108.5 -38t80 -38t46.5 -17.5q12 0 18 6t8 14t4 22.5t5 23.5q1 35 21 37q14 1 17 -14q1 -2 1 -5q0 -98 8 -186l12 -123q12 -99 12 -104q0 -9 -7 -12.5t-15.5 0.5t-12.5 16q-33 93 -64 153.5t-79 118.5q-103 131 -283 131q-134 0 -214 -68.5t-80 -183.5
q0 -102 68.5 -162t225.5 -102l170 -45q185 -45 270 -130t85 -230q0 -184 -127 -293t-326 -109q-86 0 -179 26t-156.5 51.5t-78.5 25.5q-24 0 -36 -17t-19 -63q-3 -23 -18 -23z" />
    <glyph glyph-name="scaron" unicode="&#x161;" horiz-adv-x="876" 
d="M180 1231q19 0 144 -98l120 -95h5q24 20 76 59.5t73 55.5q65 52 84.5 65t30.5 13q14 0 14 -14q0 -17 -104 -136q-16 -16 -43 -47t-41 -47q-26 -28 -42.5 -36.5t-50.5 -8.5q-35 0 -52.5 9.5t-43.5 41.5q-175 199 -178 207q-6 9 -6 17q0 14 14 14zM461 -31q-82 0 -172 33
l-96 35q-17 0 -24 -8t-13 -33q-6 -19 -17 -19q-14 0 -14 19q0 2 1 34.5t1 59.5q0 52 -12 125q-3 21 -5.5 40.5t-4 28t-1.5 9.5q0 14 12 14q14 -2 21 -20q89 -287 332 -287q92 0 147.5 45.5t55.5 126.5q0 67 -38.5 106.5t-127.5 59.5l-146 35q-127 32 -184 82t-57 141
q0 100 85.5 165.5t215.5 65.5q91 0 172 -34q84 -35 88 -35q19 0 25 47q1 19 15.5 18.5t14.5 -20.5q0 -59 6.5 -119.5t12.5 -91.5l6 -31q0 -13 -12 -12q-14 0 -21 18q-49 121 -122.5 176.5t-184.5 55.5q-84 0 -134 -41.5t-50 -104.5q0 -114 186 -157l147 -33
q228 -52 228 -238q0 -116 -101 -186q-98 -70 -235 -70z" />
    <glyph glyph-name="uni0162" unicode="&#x162;" horiz-adv-x="1304" 
d="M440 -12q-14 0 -14 14q0 12 27 21q87 15 106 51q21 38 21 172v332q0 352 -5 522q-3 99 -20 123q-26 39 -162 39q-78 0 -112.5 -9t-65.5 -43q-29 -33 -44.5 -90t-35.5 -190q-3 -33 -20 -33q-15 0 -15 21v21q1 21 2 54t2 70t1.5 76t0.5 65q0 14 -2.5 28.5t-5.5 25.5
t-6 19.5t-6 13.5l-2 5q0 15 14 15q1 0 17 -2t55.5 -5.5t89.5 -7.5q228 -6 402 -6q299 0 491 13q65 8 72 8q14 0 14 -15l-3 -5q-2 -5 -5 -13.5t-6 -19.5t-5.5 -25.5t-2.5 -28.5q0 -26 0.5 -65t1.5 -76t2 -70t1 -54l1 -21q0 -21 -13 -21t-22 33q-21 133 -36.5 190t-45.5 90
q-29 34 -63 43t-111 9q-138 0 -164 -39q-17 -24 -20 -115q-2 -55 -5 -530v-332q0 -132 19 -172q22 -36 108 -51q29 -10 29 -21q0 -14 -14 -14l-88 4q-89 6 -135 6q-18 0 -47.5 -1t-58.5 -2.5t-55.5 -3t-43.5 -2.5zM664 -377q-44 0 -78 11.5t-47 21.5t-13 14q0 13 13 13l5 -3
q6 -2 15 -6t20 -7.5t25 -6t27 -2.5q42 0 66 23.5t24 62.5q0 42 -25.5 64.5t-89.5 41.5q-12 3 -12 17q0 7 6 22l37 103h39l-35 -105q180 -27 180 -139q0 -55 -46 -90t-111 -35z" />
    <glyph glyph-name="uni0163" unicode="&#x163;" horiz-adv-x="675" 
d="M406 -31q-36 0 -44 2l-28 -84q180 -27 180 -139q0 -55 -46.5 -90t-111.5 -35q-44 0 -78 11.5t-46.5 21.5t-12.5 14q0 13 12 13l5 -3q6 -2 15 -6t20 -7.5t25.5 -6t27.5 -2.5q42 0 66 23.5t24 62.5q0 42 -25.5 64.5t-89.5 41.5q-12 3 -12 17q0 7 6 22l33 91
q-131 34 -131 221v485q0 41 -10.5 54t-47.5 14l-69 4q-25 0 -25 22q0 19 25 19q37 3 56.5 5t43.5 9.5t34 13t24.5 24.5t20.5 35.5t16.5 53t16.5 70t17 94.5q4 19 15.5 26t21.5 0t10 -26l-2 -291q0 -14 12 -14l215 2q31 0 31 -29t-27 -29q-4 0 -40 1.5t-87 2.5t-92 1
q-14 0 -14 -15l-2 -565q0 -135 113 -135q119 0 122 135q0 13 8.5 18.5t16.5 0t8 -20.5q0 -88 -52.5 -142.5t-147.5 -54.5z" />
    <glyph glyph-name="Tcaron" unicode="&#x164;" horiz-adv-x="1304" 
d="M395 1702q19 0 84 -47q37 -20 180 -111h5q42 26 82 51t63 39.5t44 28t32 20t20 11.5t14 6.5t9 1.5q20 0 12 -21q-6 -16 -29 -39q-21 -23 -153 -149q-44 -44 -58 -49q-20 -14 -38 -14q-17 0 -34.5 10t-29 20.5t-37.5 36.5l-153 150q-27 27 -27 41t14 14zM440 -12
q-14 0 -14 14q0 12 27 21q87 15 106 51q21 38 21 172v332q0 352 -5 522q-3 99 -20 123q-26 39 -162 39q-78 0 -112.5 -9t-65.5 -43q-29 -33 -44.5 -90t-35.5 -190q-3 -33 -20 -33q-15 0 -15 21v21q1 21 2 54t2 70t1.5 76t0.5 65q0 14 -2.5 28.5t-5.5 25.5t-6 19.5t-6 13.5
l-2 5q0 15 14 15q1 0 17 -2t55.5 -5.5t89.5 -7.5q228 -6 402 -6q299 0 491 13q65 8 72 8q14 0 14 -15l-3 -5q-2 -5 -5 -13.5t-6 -19.5t-5.5 -25.5t-2.5 -28.5q0 -26 0.5 -65t1.5 -76t2 -70t1 -54l1 -21q0 -21 -13 -21t-22 33q-21 133 -36.5 190t-45.5 90q-29 34 -63 43
t-111 9q-138 0 -164 -39q-17 -24 -20 -115q-2 -55 -5 -530v-332q0 -132 19 -172q22 -36 108 -51q29 -10 29 -21q0 -14 -14 -14l-88 4q-89 6 -135 6q-18 0 -47.5 -1t-58.5 -2.5t-55.5 -3t-43.5 -2.5z" />
    <glyph glyph-name="tcaron" unicode="&#x165;" horiz-adv-x="675" 
d="M498 911q-17 0 -17 13t19 16q52 14 85 54t33 93q0 31 -12 31q-2 0 -12 -9t-24.5 -17.5t-28.5 -8.5q-30 0 -50 20t-20 50q0 35 23 55.5t59 20.5q104 0 104 -129q0 -86 -59 -139q-59 -50 -100 -50zM406 -31q-211 0 -211 232v485q0 41 -10.5 54t-47.5 14l-69 4q-25 0 -25 22
q0 19 25 19q37 3 56.5 5t43.5 9.5t34 13t24.5 24.5t20.5 35.5t16.5 53t16.5 70t17 94.5q4 19 15.5 26t21.5 0t10 -26l-2 -291q0 -14 12 -14l215 2q31 0 31 -29t-27 -29q-4 0 -40 1.5t-87 2.5t-92 1q-14 0 -14 -15l-2 -565q0 -135 113 -135q119 0 122 135q0 13 8.5 18.5
t16.5 0t8 -20.5q0 -88 -52.5 -142.5t-147.5 -54.5z" />
    <glyph glyph-name="Tbar" unicode="&#x166;" horiz-adv-x="1304" 
d="M1239 1296l-3 -5q-2 -5 -5 -13.5t-6 -19.5t-5.5 -25.5t-2.5 -28.5q0 -26 0.5 -65t1.5 -76t2 -70t1 -54l1 -21q0 -21 -13 -21t-22 33q-21 133 -36.5 190t-45.5 90q-29 34 -63 43t-111 9q-138 0 -164 -39q-15 -21 -18 -101q-4 -110 -7 -403h185q17 0 17 -24.5t-17 -24.5
h-185v-92v-332q0 -132 19 -172q22 -36 108 -51q29 -10 29 -21q0 -14 -14 -14l-88 4q-89 6 -135 6q-18 0 -47.5 -1t-58.5 -2.5t-55.5 -3t-43.5 -2.5l-17 -1q-14 0 -14 14q0 12 27 21q87 15 106 51q21 38 21 172v332v92h-183q-17 0 -17 24.5t17 24.5h183q-3 293 -7 403
q-3 80 -18 101q-26 39 -162 39q-78 0 -112.5 -9t-65.5 -43q-29 -33 -44.5 -90t-35.5 -190q-3 -33 -20 -33q-15 0 -15 21v21q1 21 2 54t2 70t1.5 76t0.5 65q0 14 -2.5 28.5t-5.5 25.5t-6 19.5t-6 13.5l-2 5q0 15 14 15q1 0 17 -2t55.5 -5.5t89.5 -7.5q228 -6 402 -6
q299 0 491 13q65 8 72 8q14 0 14 -15z" />
    <glyph glyph-name="tbar" unicode="&#x167;" horiz-adv-x="677" 
d="M606 166q0 -88 -52.5 -142.5t-147.5 -54.5q-211 0 -211 232v262h-123q-17 0 -17 24.5t17 24.5h123v174q0 41 -10.5 54t-47.5 14l-69 4q-25 0 -25 22q0 19 25 19q37 3 56.5 5t43.5 9.5t34 13t24.5 24.5t20.5 35.5t16.5 53t16.5 70t17 94.5q4 19 15.5 26t21.5 0t10 -26
l-2 -291q0 -14 12 -14l215 2q31 0 31 -29t-27 -29q-4 0 -40 1.5t-87 2.5t-92 1q-14 0 -14 -15v-221h197q17 0 17 -24.5t-17 -24.5h-197l-2 -295q0 -135 113 -135q119 0 122 135q0 13 8.5 18.5t16.5 0t8 -20.5z" />
    <glyph glyph-name="Utilde" unicode="&#x168;" horiz-adv-x="1331" 
d="M436 1468q5 90 38 142.5t93 52.5q57 0 146 -47q86 -45 127 -45q64 3 73 67q3 21 17 21q16 0 16 -23q0 -71 -34 -119.5t-93 -48.5q-51 0 -137 45q-87 43 -125 43q-36 -2 -56 -21t-32 -65q-3 -15 -11 -20.5t-15 0t-7 18.5zM680 -31q-528 0 -528 613v487q0 98 -14.5 136.5
t-61.5 58.5q-35 18 -35 26q0 13 14 13q1 0 8.5 -1t24.5 -2.5t37 -3.5q71 -6 115 -6t114 6q20 2 39.5 3.5t28 2.5t10.5 1q17 0 17 -13q0 -9 -46 -30q-50 -19 -65.5 -56t-15.5 -137l-3 -530q-1 -248 101.5 -377t294.5 -129q187 0 295 134.5t108 403.5v457q0 121 -28 173.5
t-97 70.5q-30 9 -30 20q0 13 14 13l27 -3q26 -4 62.5 -7t61.5 -3q46 0 101 6q16 2 30 3.5t20 2.5t7 1q14 0 14 -13q0 -11 -38 -22q-60 -19 -82.5 -65.5t-22.5 -151.5v-486q0 -301 -125 -448.5t-352 -147.5z" />
    <glyph glyph-name="utilde" unicode="&#x169;" horiz-adv-x="1050" 
d="M268 1040q5 90 38 142.5t93 52.5q57 0 146 -47q86 -45 127 -45q64 3 73 67q3 21 17 21q16 0 16 -23q0 -71 -34 -119.5t-93 -48.5q-51 0 -137 45q-87 43 -125 43q-36 -2 -56 -21t-32 -65q-3 -15 -11 -20.5t-15 0t-7 18.5zM979 49q19 -7 25.5 -14t1.5 -12.5t-21 -8.5
q-51 -2 -96.5 -11t-70.5 -17.5t-27 -8.5q-16 0 -19 17q-12 128 -14 231q-59 -256 -316 -256q-142 0 -213 78.5t-71 247.5v278q0 90 -11.5 121.5t-50.5 50.5q-24 8 -31.5 13t-7.5 14q0 12 21 12q42 0 94.5 8.5t88.5 17.5l36 9q18 0 18 -20q-12 -58 -12 -228v-284
q0 -260 191 -260q109 0 178.5 90t75.5 239q0 138 -3 203q-4 78 -10 109q-7 42 -17.5 54.5t-37.5 20.5q-4 2 -11 4t-10 3t-7 3l-6 3t-4 3t-2.5 5t-0.5 6q0 14 20 14q25 0 51 2t48 5t43 7t37.5 7.5t28.5 6.5t19 5l7 2q14 0 14 -12q0 -1 -1.5 -8.5t-4 -21.5t-5 -32t-4 -43.5
t-1.5 -52.5v-434q0 -86 18.5 -119t69.5 -47z" />
    <glyph glyph-name="Umacron" unicode="&#x16a;" horiz-adv-x="1331" 
d="M479 1577q37 0 86 -2t113 -2q72 0 129 2t102 2q27 0 27 -21q0 -51 -35 -51q-61 0 -108 2t-107 2t-115 -2t-100 -2q-29 0 -29 25q0 47 37 47zM680 -31q-528 0 -528 613v487q0 98 -14.5 136.5t-61.5 58.5q-35 18 -35 26q0 13 14 13q1 0 8.5 -1t24.5 -2.5t37 -3.5
q71 -6 115 -6t114 6q20 2 39.5 3.5t28 2.5t10.5 1q17 0 17 -13q0 -9 -46 -30q-50 -19 -65.5 -56t-15.5 -137l-3 -530q-1 -248 101.5 -377t294.5 -129q187 0 295 134.5t108 403.5v457q0 121 -28 173.5t-97 70.5q-30 9 -30 20q0 13 14 13l27 -3q26 -4 62.5 -7t61.5 -3
q46 0 101 6q16 2 30 3.5t20 2.5t7 1q14 0 14 -13q0 -11 -38 -22q-60 -19 -82.5 -65.5t-22.5 -151.5v-486q0 -301 -125 -448.5t-352 -147.5z" />
    <glyph glyph-name="umacron" unicode="&#x16b;" horiz-adv-x="1050" 
d="M307 1036q-28 0 -28 25q0 47 36 47q37 0 86 -2t113 -2q72 0 129 2t102 2q27 0 27 -21q0 -51 -35 -51q-61 0 -108 2t-107 2q-59 0 -114 -2t-101 -2zM979 49q19 -7 25.5 -14t1.5 -12.5t-21 -8.5q-51 -2 -96.5 -11t-70.5 -17.5t-27 -8.5q-16 0 -19 17q-12 128 -14 231
q-59 -256 -316 -256q-142 0 -213 78.5t-71 247.5v278q0 90 -11.5 121.5t-50.5 50.5q-24 8 -31.5 13t-7.5 14q0 12 21 12q42 0 94.5 8.5t88.5 17.5l36 9q18 0 18 -20q-12 -58 -12 -228v-284q0 -260 191 -260q109 0 178.5 90t75.5 239q0 138 -3 203q-4 78 -10 109
q-7 42 -17.5 54.5t-37.5 20.5q-4 2 -11 4t-10 3t-7 3l-6 3t-4 3t-2.5 5t-0.5 6q0 14 20 14q25 0 51 2t48 5t43 7t37.5 7.5t28.5 6.5t19 5l7 2q14 0 14 -12q0 -1 -1.5 -8.5t-4 -21.5t-5 -32t-4 -43.5t-1.5 -52.5v-434q0 -86 18.5 -119t69.5 -47z" />
    <glyph glyph-name="Uring" unicode="&#x16e;" horiz-adv-x="1331" 
d="M688 1419q-69 0 -116.5 41.5t-47.5 102.5q0 63 46 102t118 39q73 0 118.5 -39t45.5 -102q0 -62 -45.5 -103t-118.5 -41zM774 1563q0 114 -86 114t-86 -114q0 -117 86 -117t86 117zM680 -31q-528 0 -528 613v487q0 98 -14.5 136.5t-61.5 58.5q-35 18 -35 26q0 13 14 13
q1 0 8.5 -1t24.5 -2.5t37 -3.5q71 -6 115 -6t114 6q20 2 39.5 3.5t28 2.5t10.5 1q17 0 17 -13q0 -9 -46 -30q-50 -19 -65.5 -56t-15.5 -137l-3 -530q-1 -248 101.5 -377t294.5 -129q187 0 295 134.5t108 403.5v457q0 121 -28 173.5t-97 70.5q-30 9 -30 20q0 13 14 13l27 -3
q26 -4 62.5 -7t61.5 -3q46 0 101 6q16 2 30 3.5t20 2.5t7 1q14 0 14 -13q0 -11 -38 -22q-60 -19 -82.5 -65.5t-22.5 -151.5v-486q0 -301 -125 -448.5t-352 -147.5z" />
    <glyph glyph-name="uring" unicode="&#x16f;" horiz-adv-x="1050" 
d="M539 1012q-69 0 -114.5 40t-45.5 101q0 62 45 101.5t115 39.5q72 0 115.5 -39t43.5 -102q0 -62 -44 -101.5t-115 -39.5zM625 1153q0 115 -86 115t-86 -115t86 -115t86 115zM979 49q19 -7 25.5 -14t1.5 -12.5t-21 -8.5q-51 -2 -96.5 -11t-70.5 -17.5t-27 -8.5
q-16 0 -19 17q-12 128 -14 231q-59 -256 -316 -256q-142 0 -213 78.5t-71 247.5v278q0 90 -11.5 121.5t-50.5 50.5q-24 8 -31.5 13t-7.5 14q0 12 21 12q42 0 94.5 8.5t88.5 17.5l36 9q18 0 18 -20q-12 -58 -12 -228v-284q0 -260 191 -260q109 0 178.5 90t75.5 239
q0 138 -3 203q-4 78 -10 109q-7 42 -17.5 54.5t-37.5 20.5q-4 2 -11 4t-10 3t-7 3l-6 3t-4 3t-2.5 5t-0.5 6q0 14 20 14q25 0 51 2t48 5t43 7t37.5 7.5t28.5 6.5t19 5l7 2q14 0 14 -12q0 -1 -1.5 -8.5t-4 -21.5t-5 -32t-4 -43.5t-1.5 -52.5v-434q0 -86 18.5 -119t69.5 -47z
" />
    <glyph glyph-name="Uhungarumlaut" unicode="&#x170;" horiz-adv-x="1331" 
d="M489 1364q-7 0 -10 8q-1 2 2 12q130 198 199 287q41 53 74 53q25 0 42 -16.5t17 -42.5q0 -35 -51 -80q-181 -163 -264 -215l-6 -4zM733 1364q-9 0 -12 8q-3 5 4 12q181 226 225 277q57 63 86 63t45.5 -17t16.5 -44q0 -38 -54 -80q-205 -156 -303 -215zM680 -31
q-528 0 -528 613v487q0 98 -14.5 136.5t-61.5 58.5q-35 18 -35 26q0 13 14 13q1 0 8.5 -1t24.5 -2.5t37 -3.5q71 -6 115 -6t114 6q20 2 39.5 3.5t28 2.5t10.5 1q17 0 17 -13q0 -9 -46 -30q-50 -19 -65.5 -56t-15.5 -137l-3 -530q-1 -248 101.5 -377t294.5 -129
q187 0 295 134.5t108 403.5v457q0 121 -28 173.5t-97 70.5q-30 9 -30 20q0 13 14 13l27 -3q26 -4 62.5 -7t61.5 -3q46 0 101 6q16 2 30 3.5t20 2.5t7 1q14 0 14 -13q0 -11 -38 -22q-60 -19 -82.5 -65.5t-22.5 -151.5v-486q0 -301 -125 -448.5t-352 -147.5z" />
    <glyph glyph-name="uhungarumlaut" unicode="&#x171;" horiz-adv-x="1050" 
d="M317 920q-7 0 -10 8q-1 2 2 12q130 198 199 287q41 53 74 53q25 0 42 -16.5t17 -42.5q0 -35 -51 -80q-181 -163 -264 -215l-7 -4zM549 928q-3 5 4 12q181 226 225 277q57 63 86 63t45.5 -17t16.5 -44q0 -38 -54 -80q-205 -156 -303 -215l-8 -4q-9 0 -12 8zM979 49
q19 -7 25.5 -14t1.5 -12.5t-21 -8.5q-51 -2 -96.5 -11t-70.5 -17.5t-27 -8.5q-16 0 -19 17q-12 128 -14 231q-59 -256 -316 -256q-142 0 -213 78.5t-71 247.5v278q0 90 -11.5 121.5t-50.5 50.5q-24 8 -31.5 13t-7.5 14q0 12 21 12q42 0 94.5 8.5t88.5 17.5l36 9q18 0 18 -20
q-12 -58 -12 -228v-284q0 -260 191 -260q109 0 178.5 90t75.5 239q0 138 -3 203q-4 78 -10 109q-7 42 -17.5 54.5t-37.5 20.5q-4 2 -11 4t-10 3t-7 3l-6 3t-4 3t-2.5 5t-0.5 6q0 14 20 14q25 0 51 2t48 5t43 7t37.5 7.5t28.5 6.5t19 5l7 2q14 0 14 -12q0 -1 -1.5 -8.5
t-4 -21.5t-5 -32t-4 -43.5t-1.5 -52.5v-434q0 -86 18.5 -119t69.5 -47z" />
    <glyph glyph-name="Uogonek" unicode="&#x172;" horiz-adv-x="1331" 
d="M1286 1303q14 0 14 -13q0 -11 -38 -22q-60 -19 -82.5 -65.5t-22.5 -151.5v-486q0 -431 -260 -551l-49 -41q-141 -114 -141 -221q0 -122 116 -131q26 -3 66 12q11 3 22 6.5t15.5 5t5.5 1.5q8 0 8 -8q0 -7 -8 -15q-80 -65 -180 -65q-84 0 -129 40t-45 113t50.5 136.5
t159.5 132.5q-72 -11 -108 -11q-528 0 -528 613v487q0 98 -14.5 136.5t-61.5 58.5q-35 18 -35 26q0 13 14 13q1 0 8.5 -1t24.5 -2.5t37 -3.5q71 -6 115 -6t114 6q20 2 39.5 3.5t28 2.5t10.5 1q17 0 17 -13q0 -9 -46 -30q-50 -19 -65.5 -56t-15.5 -137l-3 -530
q-1 -248 101.5 -377t294.5 -129q187 0 295 134.5t108 403.5v457q0 121 -28 173.5t-97 70.5q-30 9 -30 20q0 13 14 13l27 -3q26 -4 62.5 -7t61.5 -3q46 0 101 6q16 2 30 3.5t20 2.5t7 1z" />
    <glyph glyph-name="uogonek" unicode="&#x173;" horiz-adv-x="1050" 
d="M979 49q19 -7 25.5 -14t1.5 -12.5t-21 -8.5q-72 -3 -133 -20l-16 -12q-142 -115 -142 -222q0 -122 117 -131q24 -3 66 13q41 12 43 12q8 0 8 -8q0 -7 -8 -15q-80 -65 -181 -65q-84 0 -129 40t-45 113t51 136t160 133l-4 6q-12 128 -14 231q-59 -256 -316 -256
q-142 0 -213 78.5t-71 247.5v278q0 90 -11.5 121.5t-50.5 50.5q-24 8 -31.5 13t-7.5 14q0 12 21 12q42 0 94.5 8.5t88.5 17.5l36 9q18 0 18 -20q-12 -58 -12 -228v-284q0 -260 191 -260q109 0 178.5 90t75.5 239q0 138 -3 203q-4 78 -10 109q-7 42 -17.5 54.5t-37.5 20.5
q-4 2 -11 4t-10 3t-7 3l-6 3t-4 3t-2.5 5t-0.5 6q0 14 20 14q25 0 51 2t48 5t43 7t37.5 7.5t28.5 6.5t19 5l7 2q14 0 14 -12q0 -1 -1.5 -8.5t-4 -21.5t-5 -32t-4 -43.5t-1.5 -52.5v-434q0 -86 18.5 -119t69.5 -47z" />
    </font>
</defs>
</svg>
