<?xml version="1.0" standalone="no"?>
<!DOCTYPE svg PUBLIC "-//W3C//DTD SVG 1.1//EN" "http://www.w3.org/Graphics/SVG/1.1/DTD/svg11.dtd" >
<svg xmlns="http://www.w3.org/2000/svg" xmlns:xlink="http://www.w3.org/1999/xlink" version="1.1">
<metadata>
Created by FontForge 20170731 at Thu Apr 29 12:40:36 2021
 By Aleksey,,,
Copyright (c) 2014 by Rodrigo Saiani. All rights reserved.
</metadata>
<defs>
<font id="Tenez-Light" horiz-adv-x="0" >
  <font-face 
    font-family="Tenez Light"
    font-weight="300"
    font-stretch="normal"
    units-per-em="2048"
    panose-1="2 0 3 0 0 0 0 0 0 0"
    ascent="1538"
    descent="-510"
    x-height="809"
    cap-height="1303"
    bbox="-1242 -627.581 2013 2331"
    underline-thickness="102"
    underline-position="-307"
    unicode-range="U+000D-FB02"
  />
<missing-glyph horiz-adv-x="1024" 
d="M840 1475v-2048h-650v2048h650zM682 1337h-338v-67h133v-76h-135v-68h340v68h-135v76h135v67zM547 1073h-205v-213h340v70h-135v143zM477 1004v-74h-67v74h67zM682 805h-340v-68h135v-75h-135v-68h205v143h135v68zM682 682h-68v-135h-272v-70h340v205zM682 432h-205v-115
h70v48h67v-97h-204v164h-68v-231h340v231zM682 78h-340v-232h340v232zM614 10v-96h-204v96h204zM682 -201h-340v-67h143l-143 -97v-67h340v67h-209l143 97h66v67z" />
    <glyph glyph-name="fi" unicode="fi" horiz-adv-x="1017" 
d="M911 18q21 -3 21 -16q0 -12 -14 -12q-2 0 -9 0.5t-21.5 1.5t-29.5 2q-70 4 -80 4q-3 0 -73 -4q-14 -1 -27.5 -2t-21 -1.5t-9.5 -0.5q-14 0 -14 12q0 13 20 16q65 12 82 35q15 24 15 117v455q0 80 -25 102q-26 23 -274 23q-123 0 -164 -2v-586q0 -80 22 -105
q22 -22 109 -37q20 -3 20 -14q0 -14 -14 -14q-1 0 -10 0.5t-26 1.5t-36 2q-86 4 -94 4q-41 0 -68 -2q-22 -1 -45.5 -2.5t-36.5 -2.5l-14 -1q-13 0 -14 11q-1 14 26 20q78 12 97 34q18 24 18 105v586q-58 -3 -137 -3q-17 0 -23.5 13.5t0 27t23.5 13.5q90 0 137 -2v235
q0 140 83.5 218.5t219.5 78.5q116 0 201 -55q86 -53 86 -103q0 -26 -15 -43.5t-38 -17.5q-51 0 -66 59q-21 67 -62 95t-126 28q-97 0 -157 -60.5t-60 -174.5v-133v-127q294 -4 362 -4q49 0 133 24l29 8q16 0 16 -14q0 -4 -3 -22t-3 -23q-6 -35 -6 -164v-432q0 -95 14 -117
q17 -23 82 -35z" />
    <glyph glyph-name="fl" unicode="fl" horiz-adv-x="954" 
d="M856 23q21 -6 21 -17q0 -14 -15 -14q-2 0 -7.5 0.5t-17 1.5t-22.5 2q-54 4 -61 4q-14 0 -76 -4l-47 -4q-13 0 -14 11q-1 14 26 20q53 12 62 38q12 27 12 129v553q-18 0 -55.5 1t-98 2t-114.5 2q-63 2 -162 2v-588q0 -80 22 -105q22 -22 109 -37q20 -3 20 -14
q0 -14 -14 -14q-1 0 -10 0.5t-26 1.5t-36 2q-86 4 -94 4q-41 0 -68 -2q-22 -1 -45.5 -2.5t-36.5 -2.5l-14 -1q-13 0 -14 11q-1 14 26 20q78 12 97 34q18 24 18 105v588l-137 -5q-17 0 -23.5 13.5t0 27t23.5 13.5l9 -1q9 0 23.5 -1t31.5 -2t36.5 -1.5t36.5 -0.5v270
q0 126 80 196t211 70q76 0 172 -51q26 8 49 21t35 21.5t16 8.5q13 0 13 -12l-1 -7q-1 -7 -2.5 -20t-3.5 -31t-3.5 -42.5t-3 -52.5t-2.5 -63.5t-1 -72.5v-858q3 -87 15 -111q15 -24 61 -36zM287 793q337 7 430 8v307q0 74 -58.5 129t-166.5 55q-90 0 -147.5 -53t-57.5 -152
v-294z" />
    <glyph glyph-name="T_h.liga" unicode="Th" horiz-adv-x="2064" 
d="M1950 25q25 -8 24 -22q-1 -11 -14 -11q-1 0 -5.5 0.5t-15 1.5t-22.5 2q-54 4 -64 4q-3 0 -57 -4q-12 -1 -22.5 -2t-15 -1.5t-5.5 -0.5q-14 0 -14 12q0 13 20 19q37 11 49.5 42.5t12.5 124.5v310q0 282 -213 282q-130 0 -219 -108q-89 -109 -89 -295v-186q0 -110 3 -130
q10 -26 63 -40q23 -7 20 -22q-2 -9 -14 -9q-2 0 -7.5 0.5t-17 1.5t-22.5 2q-54 4 -61 4q-8 0 -62 -4q-11 -1 -20.5 -2t-13.5 -1.5t-5 -0.5q-13 0 -14 11q0 14 23 21q1 1 2 1q36 9 45 36q8 24 8 129v951q0 71 -29 94q-37 29 -244 29q-237 0 -264 -35q-15 -18 -18 -103
q-2 -55 -2 -548l-2 -351q0 -126 20 -159q23 -33 123 -48q23 -7 23 -16q0 -14 -15 -14l-69 4q-115 8 -230 0l-69 -4q-15 0 -15 14q0 9 23 16q97 14 121 48q22 36 22 159v351q-3 532 -4 548q-3 85 -18 103q-27 35 -183 35q-112 -4 -141 -13q-43 -13 -70 -61q-29 -90 -41 -236
q-3 -32 -20 -32q-14 0 -14 20l4 111q2 74 2 159q0 13 -2.5 26t-5.5 22.5t-6.5 17t-6.5 12.5l-2 4q0 15 15 15q4 0 6 -2q46 -17 520 -17q323 0 481 15l105 10q24 3 41.5 7t24.5 5.5t9 1.5q17 0 17 -14q0 -1 -1.5 -11t-3.5 -26t-3.5 -36t-3 -46t-1.5 -49v-582
q36 122 119.5 192t188.5 70q144 0 213 -79.5t69 -249.5v-308q0 -97 10.5 -125.5t49.5 -39.5z" />
    <glyph glyph-name="f_b.liga" unicode="fb" horiz-adv-x="1548" 
d="M1096 827q157 0 262 -120q104 -119 104 -308q0 -198 -106 -313q-105 -117 -271 -117q-143 0 -241 125q-19 25 -34 49t-21 33.5t-7 9.5q-7 0 -10 -20l-16 -166q-4 -30 -23 -31q-16 4 -18 21v26v1086q0 75 -57.5 132.5t-165.5 57.5q-90 0 -147.5 -53t-57.5 -152v-292l245 6
q33 0 33 -29t-33 -29q-4 0 -47 1.5t-100.5 3.5t-97.5 2v-580q0 -97 31.5 -131t99.5 -16q20 -6 20 -17q0 -14 -14 -14q-1 0 -10 0.5t-26 1.5t-36 2q-86 4 -94 4q-41 0 -68 -2q-22 -1 -45.5 -2.5t-36.5 -2.5l-14 -1q-13 0 -14 11q-1 14 26 20q80 13 97 38q18 27 18 129v560
l-137 -5q-17 0 -23.5 13.5t0 27t23.5 13.5l9 -1q9 0 23.5 -1t31.5 -2t36.5 -1.5t36.5 -0.5v270q0 126 80 196t211 70q76 0 172 -51q23 8 43 21t30.5 21.5t14.5 8.5q16 0 16 -14q-10 -82 -10 -168v-559h6q38 116 120 177.5t192 61.5zM1081 -2q134 0 212.5 100.5t78.5 300.5
t-78 300t-211 100q-120 0 -211 -107q-92 -109 -92 -284v-21q0 -173 90 -283q87 -106 211 -106z" />
    <glyph glyph-name="f_f.liga" unicode="ff" horiz-adv-x="1081" 
d="M893 1329q73 0 130.5 -29.5t57.5 -66.5q0 -43 -37 -43q-17 0 -27.5 11t-31.5 48q-37 43 -108 43q-69 0 -110.5 -39t-41.5 -114v-133v-213l141 4q24 1 46 2l33 1.5t13 0.5q33 0 33 -29t-33 -29q-4 0 -42.5 1.5t-93.5 3.5t-97 2v-588q0 -85 20 -105q19 -19 121 -34
q20 -1 20 -17q-2 -13 -14 -14q-2 0 -11 0.5t-27.5 1.5t-38.5 2q-90 4 -99 4l-164 -8q-13 0 -14 11q0 14 27 20q79 12 96 38q18 27 18 129v560q-110 0 -202 -2h-191v-586q0 -79 23 -105q22 -22 108 -37q21 -3 21 -14q0 -14 -15 -14q-1 0 -9.5 0.5l-25.5 1.5t-36 2
q-86 4 -94 4q-41 0 -68 -2q-22 -1 -45.5 -2.5t-36.5 -2.5l-14 -1q-13 0 -14 11q-1 14 26 20q77 12 96 34q19 25 19 105v586q-59 -3 -117 -3q-17 0 -23.5 13.5t0 27t23.5 13.5q78 0 117 -2v209q0 134 79 209t209 75q126 0 203 -71q58 110 201 110zM266 797q300 -4 393 -4v282
q0 31 11 88q-59 90 -187 90q-98 0 -157.5 -57t-59.5 -166v-133v-100z" />
    <glyph glyph-name="f_f_b.liga" unicode="ffb" horiz-adv-x="2039" 
d="M1587 827q157 0 262 -120t105 -308q0 -197 -107 -313q-105 -117 -270 -117q-144 0 -242 125q-19 25 -34 49t-20.5 33.5t-6.5 9.5q-7 0 -10 -20l-17 -166q-4 -30 -23 -31q-16 4 -18 21v26v1086q0 75 -57.5 132.5t-165.5 57.5q-90 0 -147.5 -53t-57.5 -152v-290q23 2 103 2
q79 0 102 2q33 0 33 -29t-33 -29l-205 5v-578q0 -97 31.5 -131t99.5 -16q21 -6 21 -17q0 -14 -15 -14q-1 0 -9.5 0.5l-25.5 1.5t-36 2q-86 4 -94 4q-41 0 -68 -2q-22 -1 -45.5 -2.5t-36.5 -2.5l-14 -1q-13 0 -14 11q-1 14 26 20q79 12 96 38q19 28 19 129v558q-35 2 -154 2
q-88 0 -156 -2h-139v-586q0 -79 23 -105q22 -22 108 -37q21 -3 21 -14q0 -14 -15 -14q-1 0 -9.5 0.5l-25.5 1.5t-36 2q-86 4 -94 4q-41 0 -68 -2q-22 -1 -45.5 -2.5t-36.5 -2.5l-14 -1q-13 0 -14 11q-1 14 26 20q77 12 96 34q19 25 19 105v586q-52 -3 -103 -3
q-17 0 -23.5 13.5t0 27t23.5 13.5q68 0 103 -2v133q0 140 83.5 218.5t219.5 78.5q145 0 221 -82q24 89 99 136.5t182 47.5q76 0 172 -51q23 8 43 21t30.5 21.5t14.5 8.5q16 0 16 -14q-10 -82 -10 -168v-559h6q38 116 119.5 177.5t191.5 61.5zM559 793q17 1 77 2t77 2v266
q-34 66 -83 96.5t-134 30.5q-106 0 -169 -60.5t-63 -175.5v-133v-24q226 -4 295 -4zM1573 -2q134 0 212.5 100.5t78.5 300.5t-78 300t-211 100q-120 0 -211 -107q-92 -109 -92 -284v-21q0 -173 90 -283q87 -106 211 -106z" />
    <glyph glyph-name="f_f_h.liga" unicode="ffh" horiz-adv-x="2025" 
d="M1923 25q25 -8 24 -22q-1 -11 -14 -11q-1 0 -5.5 0.5t-15 1.5t-22.5 2q-54 4 -63 4q-4 0 -58 -4q-12 -1 -22.5 -2t-15 -1.5t-5.5 -0.5q-14 0 -13 12q0 13 20 19q37 11 49 42t12 125v310q0 282 -213 282q-131 0 -219 -108q-88 -107 -88 -295h-2v-209q3 -89 14 -111
q15 -24 62 -36q20 -6 20 -17q0 -14 -14 -14q-2 0 -7.5 0.5t-17 1.5t-22.5 2q-54 4 -62 4q-14 0 -76 -4l-47 -4q-13 0 -14 11q0 14 27 20q52 12 61 38q12 27 12 129v918q0 74 -58.5 129t-166.5 55q-90 0 -147.5 -53t-57.5 -152v-290q23 2 103 2q79 0 102 2q33 0 33 -29
t-33 -29l-205 5v-586q0 -79 23 -105q22 -22 108 -37q21 -3 21 -14q0 -14 -15 -14q-1 0 -9.5 0.5l-25.5 1.5t-36 2q-86 4 -94 4q-41 0 -68 -2q-22 -1 -45.5 -2.5t-36.5 -2.5l-14 -1q-13 0 -14 11q-1 14 26 20q77 12 96 34q19 25 19 105v586q-35 2 -154 2q-88 0 -156 -2h-139
v-586q0 -79 23 -105q22 -22 108 -37q21 -3 21 -14q0 -14 -15 -14q-1 0 -9.5 0.5l-25.5 1.5t-36 2q-86 4 -94 4q-41 0 -68 -2q-22 -1 -45.5 -2.5t-36.5 -2.5l-14 -1q-13 0 -14 11q-1 14 26 20q77 12 96 34q19 25 19 105v586q-52 -3 -103 -3q-17 0 -23.5 13.5t0 27t23.5 13.5
q68 0 103 -2v133q0 140 83.5 218.5t219.5 78.5q145 0 221 -82q24 89 99 136.5t182 47.5q76 0 172 -51q26 8 49 21t35 21.5t16 8.5q12 0 12 -12l-1 -7q-1 -7 -2.5 -20t-3 -31t-3 -42.5t-3 -52.5t-2.5 -63.5t-1 -72.5v-465q37 122 120.5 193t188.5 71q144 0 213.5 -79.5
t69.5 -249.5v-308q0 -68 4.5 -99t16 -45t38.5 -21zM559 793q17 1 77 2t77 2v266q-34 66 -83 96.5t-134 30.5q-106 0 -169 -60.5t-63 -175.5v-133v-24q226 -4 295 -4z" />
    <glyph glyph-name="f_f_i.liga" unicode="ffi" horiz-adv-x="1478" 
d="M1372 18q21 -3 21 -16q0 -12 -15 -12q-2 0 -9 0.5l-21 1.5t-29 2q-70 4 -80 4q-4 0 -74 -4q-14 -1 -27.5 -2t-20.5 -1.5t-9 -0.5q-14 0 -14 12q0 13 20 16q65 12 82 35q14 22 14 117v455q0 81 -24 102q-26 23 -262 23h-156v-588q0 -79 23 -105q22 -22 108 -37
q21 -3 21 -14q0 -14 -15 -14q-1 0 -9.5 0.5l-25.5 1.5t-36 2q-86 4 -95 4q-40 0 -67 -2q-22 -1 -45.5 -2.5t-37.5 -2.5l-14 -1q-13 0 -14 11q0 14 27 20q77 12 96 34q18 24 18 105v588q-121 0 -221 -2q-153 0 -217 -3v-583q0 -79 23 -105q22 -22 108 -37q21 -3 21 -14
q0 -14 -15 -14q-1 0 -9.5 0.5l-25.5 1.5t-36 2q-86 4 -94 4q-41 0 -68 -2q-22 -1 -45.5 -2.5t-36.5 -2.5l-14 -1q-13 0 -14 11q-1 14 26 20q77 12 96 34q19 25 19 105v583h-95q-17 0 -23.5 13.5t0 27t23.5 13.5h95v131q0 140 83.5 218.5t219.5 78.5q142 0 219 -80
q30 89 106 135.5t181 46.5q110 0 192 -55q84 -53 84 -103q0 -26 -15 -43.5t-38 -17.5q-51 0 -66 59q-21 68 -59.5 95.5t-118.5 27.5q-96 0 -157.5 -61t-61.5 -174v-133v-129q76 -2 342 -2q41 0 135 24l27 8q16 0 16 -14q0 -4 -3 -22t-3 -23q-6 -35 -6 -164v-432
q0 -95 14 -117q17 -23 82 -35zM264 797q99 0 199 -2h239v237q0 30 3 45q-61 113 -209 113q-106 0 -169 -60.5t-63 -175.5v-133v-24z" />
    <glyph glyph-name="f_f_j.liga" unicode="ffj" horiz-adv-x="1439" 
d="M1272 825q16 0 16 -14q0 -4 -3 -22t-3 -23q-6 -35 -6 -168v-801q0 -111 -50.5 -173t-140.5 -62q-60 0 -106.5 33.5t-46.5 74.5q0 54 47 54q37 0 55 -60q21 -65 82 -65q94 0 94 133v133v760q0 81 -24 102q-26 23 -275 23h-143v-588q0 -79 23 -105q22 -22 108 -37
q21 -3 21 -14q0 -14 -15 -14q-1 0 -9.5 0.5l-25.5 1.5t-36 2q-86 4 -95 4q-40 0 -67 -2q-22 -1 -45.5 -2.5t-37.5 -2.5l-14 -1q-13 0 -14 11q0 14 27 20q77 12 96 34q18 24 18 105v588q-121 0 -221 -2q-153 0 -217 -3v-583q0 -79 23 -105q22 -22 108 -37q21 -3 21 -14
q0 -14 -15 -14q-1 0 -9.5 0.5l-25.5 1.5t-36 2q-86 4 -94 4q-41 0 -68 -2q-22 -1 -45.5 -2.5t-36.5 -2.5l-14 -1q-13 0 -14 11q-1 14 26 20q77 12 96 34q19 25 19 105v583h-95q-17 0 -23.5 13.5t0 27t23.5 13.5h95v131q0 140 83.5 218.5t219.5 78.5q142 0 219 -80
q30 89 106 135.5t181 46.5q110 0 192 -55q84 -53 84 -103q0 -26 -15 -43.5t-38 -17.5q-51 0 -66 59q-21 68 -59.5 95.5t-118.5 27.5q-96 0 -157.5 -61t-61.5 -174v-133v-129q76 -2 342 -2q41 0 135 24zM264 797q99 0 199 -2h239v237q0 30 3 45q-61 113 -209 113
q-106 0 -169 -60.5t-63 -175.5v-133v-24z" />
    <glyph glyph-name="f_f_k.liga" unicode="ffk" horiz-adv-x="1918" 
d="M1872 -8q-1 0 -6 0.5t-16 1.5t-25 2q-58 4 -68 4q-7 0 -69 -4l-26 -2l-19.5 -1.5t-8.5 -0.5q-14 0 -14 10q0 1 24.5 16.5t24.5 30.5q0 12 -32 67.5t-74 114.5q-70 109 -121 179q-23 36 -39 36q-10 0 -47 -34l-84 -78v-164q3 -89 14 -111q15 -24 62 -36q20 -6 20 -17
q0 -14 -14 -14q-2 0 -7.5 0.5t-17 1.5t-22.5 2q-54 4 -62 4q-14 0 -76 -4l-47 -4q-13 0 -14 11q0 14 27 20q52 12 61 38q12 27 12 129v918q0 74 -58.5 129t-166.5 55q-90 0 -147.5 -53t-57.5 -152v-290q23 2 103 2q79 0 102 2q33 0 33 -29t-33 -29l-205 5v-586
q0 -79 23 -105q22 -22 108 -37q21 -3 21 -14q0 -14 -15 -14q-1 0 -9.5 0.5l-25.5 1.5t-36 2q-86 4 -94 4q-41 0 -68 -2q-22 -1 -45.5 -2.5t-36.5 -2.5l-14 -1q-13 0 -14 11q-1 14 26 20q77 12 96 34q19 25 19 105v586q-35 2 -154 2q-88 0 -156 -2h-139v-586q0 -79 23 -105
q22 -22 108 -37q21 -3 21 -14q0 -14 -15 -14q-1 0 -9.5 0.5l-25.5 1.5t-36 2q-86 4 -94 4q-41 0 -68 -2q-22 -1 -45.5 -2.5t-36.5 -2.5l-14 -1q-13 0 -14 11q-1 14 26 20q77 12 96 34q19 25 19 105v586q-52 -3 -103 -3q-17 0 -23.5 13.5t0 27t23.5 13.5q68 0 103 -2v133
q0 140 83.5 218.5t219.5 78.5q145 0 221 -82q24 89 99 136.5t182 47.5q76 0 172 -51q26 8 49 21t35 21.5t16 8.5q12 0 12 -12l-1 -7q-1 -7 -2.5 -20t-3 -31t-3 -42.5t-3 -52.5t-2.5 -63.5t-1 -72.5v-657l151 141l58 55l86 84q65 59 65 84q0 38 -39 47q-20 6 -20 21
q0 10 14 10l45 -6q41 -8 72 -8q24 0 76 6q53 6 59 6q16 0 16 -14q0 -17 -32 -23q-68 -13 -117 -45q-48 -33 -147 -125l-99 -92q95 -141 107 -158q55 -78 82 -123l55 -79q35 -47 51 -65.5t33 -29.5q16 -10 51 -27q49 -23 50 -30q1 -6 -17 -8zM559 793q17 1 77 2t77 2v266
q-34 66 -83 96.5t-134 30.5q-106 0 -169 -60.5t-63 -175.5v-133v-24q226 -4 295 -4z" />
    <glyph glyph-name="f_f_l.liga" unicode="ffl" horiz-adv-x="1445" 
d="M1348 23q20 -6 20 -17q0 -14 -14 -14q-2 0 -7.5 0.5t-17 1.5t-22.5 2q-54 4 -62 4q-14 0 -76 -4l-47 -4q-13 0 -14 11q0 14 27 20q52 12 61 38q12 27 12 129v918q0 74 -58.5 129t-166.5 55q-90 0 -147.5 -53t-57.5 -152v-290q23 2 103 2q79 0 102 2q33 0 33 -29t-33 -29
l-205 5v-586q0 -79 23 -105q22 -22 108 -37q21 -3 21 -14q0 -14 -15 -14q-1 0 -9.5 0.5l-25.5 1.5t-36 2q-86 4 -94 4q-41 0 -68 -2q-22 -1 -45.5 -2.5t-36.5 -2.5l-14 -1q-13 0 -14 11q-1 14 26 20q77 12 96 34q19 25 19 105v586q-35 2 -154 2q-88 0 -156 -2h-139v-586
q0 -79 23 -105q22 -22 108 -37q21 -3 21 -14q0 -14 -15 -14q-1 0 -9.5 0.5l-25.5 1.5t-36 2q-86 4 -94 4q-41 0 -68 -2q-22 -1 -45.5 -2.5t-36.5 -2.5l-14 -1q-13 0 -14 11q-1 14 26 20q77 12 96 34q19 25 19 105v586q-52 -3 -103 -3q-17 0 -23.5 13.5t0 27t23.5 13.5
q68 0 103 -2v133q0 140 83.5 218.5t219.5 78.5q145 0 221 -82q24 89 99 136.5t182 47.5q76 0 172 -51q26 8 49 21t35 21.5t16 8.5q12 0 12 -12l-1 -7q-1 -7 -2.5 -20t-3 -31t-3 -42.5t-3 -52.5t-2.5 -63.5t-1 -72.5v-858q3 -89 14 -111q15 -24 62 -36zM559 793q17 1 77 2
t77 2v266q-34 67 -82 97t-135 30q-106 0 -169 -60.5t-63 -175.5v-133v-24q226 -4 295 -4z" />
    <glyph glyph-name="f_h.liga" unicode="fh" horiz-adv-x="1546" 
d="M1432 25q25 -8 24 -22q-1 -11 -14 -11q-1 0 -5.5 0.5t-15 1.5t-22.5 2q-54 4 -64 4q-3 0 -57 -4q-12 -1 -22.5 -2t-15 -1.5t-5.5 -0.5q-14 0 -14 12q0 13 20 19q37 11 49.5 42.5t12.5 124.5v310q0 282 -213 282q-124 0 -213 -102q-89 -103 -95 -277v-233q0 -85 13 -110
t61 -37q21 -6 21 -17q0 -14 -15 -14q-2 0 -7.5 0.5t-17 1.5t-22.5 2q-54 4 -61 4q-14 0 -76 -4l-47 -4q-13 0 -14 11q-1 14 26 20q53 12 62 38q12 27 12 129v918q0 74 -58.5 129t-166.5 55q-90 0 -147.5 -53t-57.5 -152v-292l245 6q33 0 33 -29t-33 -29q-4 0 -47 1.5
t-100.5 3.5t-97.5 2v-580q0 -97 31.5 -131t99.5 -16q20 -6 20 -17q0 -14 -14 -14q-1 0 -10 0.5t-26 1.5t-36 2q-86 4 -94 4q-41 0 -68 -2q-22 -1 -45.5 -2.5t-36.5 -2.5l-14 -1q-13 0 -14 11q-1 14 26 20q80 13 97 38q18 27 18 129v560l-137 -5q-17 0 -23.5 13.5t0 27
t23.5 13.5l9 -1q9 0 23.5 -1t31.5 -2t36.5 -1.5t36.5 -0.5v270q0 126 80 196t211 70q76 0 172 -51q26 8 49 21t35 21.5t16 8.5q13 0 13 -12l-1 -7q-1 -7 -2.5 -20t-3.5 -31t-3.5 -42.5t-3 -52.5t-2.5 -63.5t-1 -72.5v-463q36 122 120.5 192t189.5 70q144 0 213 -79.5
t69 -249.5v-308q0 -97 10.5 -125.5t49.5 -39.5z" />
    <glyph glyph-name="f_j.liga" unicode="fj" horiz-adv-x="978" 
d="M811 825q16 0 16 -14q0 -4 -3 -22t-3 -23q-6 -35 -6 -168v-801q0 -111 -50 -173t-140 -62q-60 0 -107 33.5t-47 74.5q0 54 47 54q37 0 55 -60q21 -65 82 -65q95 0 95 133v133v760q0 80 -25 102q-26 23 -274 23q-123 0 -164 -2v-586q0 -80 22 -105q22 -22 109 -37
q20 -3 20 -14q0 -14 -14 -14q-1 0 -10 0.5t-26 1.5t-36 2q-86 4 -94 4q-41 0 -68 -2q-22 -1 -45.5 -2.5t-36.5 -2.5l-14 -1q-13 0 -14 11q-1 14 26 20q78 12 97 34q18 24 18 105v586q-58 -3 -137 -3q-17 0 -23.5 13.5t0 27t23.5 13.5q90 0 137 -2v235q0 140 83.5 218.5
t219.5 78.5q116 0 201 -55q86 -53 86 -103q0 -26 -15 -43.5t-38 -17.5q-51 0 -66 59q-21 67 -62 95t-126 28q-97 0 -157 -60.5t-60 -174.5v-133v-127q294 -4 362 -4q49 0 133 24z" />
    <glyph glyph-name="f_k.liga" unicode="fk" horiz-adv-x="1429" 
d="M1382 -8q-1 0 -6 0.5t-16 1.5t-25 2q-58 4 -67 4q-8 0 -70 -4l-26 -2t-19 -1.5t-8 -0.5q-15 0 -15 10q0 1 25 16.5t25 30.5q0 12 -32.5 67.5t-74.5 114.5q-70 109 -121 179q-23 36 -39 36q-10 0 -47 -34l-84 -78v-164q0 -85 13 -110t61 -37q21 -6 21 -17q0 -14 -15 -14
q-2 0 -7.5 0.5t-17 1.5t-22.5 2q-54 4 -61 4q-14 0 -76 -4l-47 -4q-13 0 -14 11q-1 14 26 20q53 12 62 38q12 27 12 129v918q0 74 -58.5 129t-166.5 55q-90 0 -147.5 -53t-57.5 -152v-292l245 6q33 0 33 -29t-33 -29q-4 0 -47 1.5t-100.5 3.5t-97.5 2v-580q0 -97 31.5 -131
t99.5 -16q20 -6 20 -17q0 -14 -14 -14q-1 0 -10 0.5t-26 1.5t-36 2q-86 4 -94 4q-41 0 -68 -2q-22 -1 -45.5 -2.5t-36.5 -2.5l-14 -1q-13 0 -14 11q-1 14 26 20q80 13 97 38q18 27 18 129v560l-137 -5q-17 0 -23.5 13.5t0 27t23.5 13.5l9 -1q9 0 23.5 -1t31.5 -2t36.5 -1.5
t36.5 -0.5v270q0 126 80 196t211 70q76 0 172 -51q26 8 49 21t35 21.5t16 8.5q13 0 13 -12l-1 -7q-1 -7 -2.5 -20t-3.5 -31t-3.5 -42.5t-3 -52.5t-2.5 -63.5t-1 -72.5l2 -659q51 48 135 127q137 129 181.5 175t44.5 64q0 38 -39 47q-21 6 -21 21q0 10 15 10l45 -6
q41 -8 71 -8q24 0 76 6q53 6 60 6q16 0 16 -14q0 -17 -33 -23q-66 -12 -116 -45q-52 -36 -148 -125l-98 -92q3 -5 43 -65t63 -93q55 -78 82 -123l55 -79q35 -47 51 -65.5t33 -29.5q16 -10 51 -27q49 -23 50 -30q1 -6 -17 -8z" />
    <glyph glyph-name=".notdef" horiz-adv-x="1024" 
d="M840 1475v-2048h-650v2048h650zM682 1337h-338v-67h133v-76h-135v-68h340v68h-135v76h135v67zM547 1073h-205v-213h340v70h-135v143zM477 1004v-74h-67v74h67zM682 805h-340v-68h135v-75h-135v-68h205v143h135v68zM682 682h-68v-135h-272v-70h340v205zM682 432h-205v-115
h70v48h67v-97h-204v164h-68v-231h340v231zM682 78h-340v-232h340v232zM614 10v-96h-204v96h204zM682 -201h-340v-67h143l-143 -97v-67h340v67h-209l143 97h66v67z" />
    <glyph glyph-name=".null" 
 />
    <glyph glyph-name="nonmarkingreturn" horiz-adv-x="682" 
 />
    <glyph glyph-name="NULL" 
 />
    <glyph glyph-name="NULL" 
 />
    <glyph glyph-name="CR" unicode="&#xd;" horiz-adv-x="681" 
 />
    <glyph glyph-name="space" unicode=" " horiz-adv-x="399" 
 />
    <glyph glyph-name="exclam" unicode="!" horiz-adv-x="407" 
d="M184 293q-3 271 -14 465q-7 158 -20 342q-9 123 -9 145q0 66 62 66q61 0 61 -66q0 -12 -4 -69t-12 -174.5t-15 -243.5q-9 -217 -12 -465h-37zM203 170q43 0 68.5 -26t25.5 -70q0 -43 -26 -70t-68 -27q-57 -6 -80.5 45t0 102.5t80.5 45.5z" />
    <glyph glyph-name="quotedbl" unicode="&#x22;" horiz-adv-x="751" 
d="M182 860q-4 110 -21.5 196.5t-33.5 130.5t-16 54q0 68 82 68q37 0 59 -18.5t22 -49.5q0 -10 -17 -54.5t-34.5 -130.5t-19.5 -196h-21zM551 860q-4 110 -22 196.5t-34 130.5t-16 54q0 68 82 68q37 0 59.5 -18.5t22.5 -49.5q0 -10 -17 -54.5t-35 -130.5t-20 -196h-20z" />
    <glyph glyph-name="numbersign" unicode="#" horiz-adv-x="960" 
d="M889 799q17 0 17 -24.5t-17 -24.5h-207l-57 -308h223q17 0 17 -24.5t-17 -24.5h-232l-67 -366q-6 -27 -31 -27q-19 0 -16 27l65 366h-260l-67 -366q-6 -27 -31 -27q-19 0 -16 27l65 366h-199q-17 0 -17 24.5t17 24.5h207l56 308h-211q-17 0 -17 24.5t17 24.5h219l59 336
q5 26 27 30q21 4 26 -14q2 -7 0 -16l-61 -336h258l59 336q5 27 28 30q22 4 26 -16v-14l-62 -336h199zM575 442l56 308h-258l-58 -308h260z" />
    <glyph glyph-name="dollar" unicode="$" horiz-adv-x="1179" 
d="M997 322q0 -114 -82 -195.5t-215 -106.5v-165q0 -13 -22.5 -13t-22.5 13v159q-54 -4 -63 -4q-39 0 -49 2v-157q0 -13 -22.5 -13t-22.5 13v165q-57 11 -123 48q-61 34 -74 34q-36 0 -45 -77q-6 -21 -16 -21q-13 0 -13 16q0 61 -2 123.5t-5 109t-6 84t-5 58.5l-2 21
q0 12 12 12q16 0 19 -18q44 -309 260 -361v539q-262 53 -262 258q0 112 71 180t191 88v176q0 14 22.5 14t22.5 -14v-172q6 2 32 2q49 0 80 -8v178q0 14 22.5 14t22.5 -14v-188q26 -7 60 -21.5t57.5 -24t34.5 -9.5q39 0 45 49q6 32 18 32q15 0 15 -16q0 -72 2.5 -133
t6.5 -97.5t8 -62t6.5 -38.5t2.5 -15q0 -10 -10 -10q-13 0 -16 16q-64 242 -230 301v-452q153 -32 225 -104.5t72 -194.5zM571 1092h-28v-439q2 -2 6 -2l106 -20v452q-35 9 -84 9zM301 877q0 -160 197 -213v421q-95 -17 -146 -72.5t-51 -135.5zM594 39q7 0 30.5 1t30.5 1v516
l-112 23v-539q10 -2 51 -2zM700 49q112 23 172 90t60 166q0 98 -54.5 155.5t-177.5 86.5v-498z" />
    <glyph glyph-name="percent" unicode="%" horiz-adv-x="1722" 
d="M442 664q-113 0 -209 90q-92 89 -92 233q0 145 92 234q96 90 209 90q116 0 209 -90q94 -88 94 -234q0 -145 -94 -233q-93 -90 -209 -90zM393 -8q-29 0 -37 14q-2 5 9 23l919 1259q10 14 33 14t31 -14q2 -4 -9 -22l-923 -1264q-7 -10 -23 -10zM291 760q63 -68 151.5 -68
t151.5 68q63 66 63 227t-63 227q-63 68 -151.5 68t-151.5 -68q-64 -67 -64 -227t64 -227zM1280 -20q-113 0 -209 90q-92 89 -92 233q0 145 92 234q96 90 209 90q116 0 209 -90q94 -88 94 -234q0 -145 -94 -233q-93 -90 -209 -90zM1128 76q63 -68 152 -68t152 68
q63 66 63 227t-63 227q-63 68 -152 68t-152 -68q-63 -66 -63 -227t63 -227z" />
    <glyph glyph-name="ampersand" unicode="&#x26;" horiz-adv-x="1325" 
d="M1313 37q14 0 14 -14t-18 -23q-48 -31 -107 -31q-46 0 -98.5 28.5t-89.5 63.5l-86 93q-132 -185 -383 -185q-182 0 -309 92q-123 91 -123 254q0 222 303 377q-187 208 -187 346q0 111 82 193t211 82q114 0 197 -68q84 -66 84 -170q0 -229 -301 -370l49 -54l383 -409
q82 149 82 301q0 67 -29.5 96.5t-112.5 46.5q-32 6 -32 21q0 12 16 12q9 0 66 -8q65 -6 116 -6q52 0 117 6q57 8 68 8q18 0 18 -14q3 -4 -4 -8.5t-20 -9t-26.5 -8.5l-27 -8t-18.5 -7q-61 -24 -80 -109q0 -1 -10 -57q-10 -60 -17 -88q-21 -104 -75 -201q127 -137 161 -162
q47 -35 95 -35q11 0 24 2.5t24.5 6t21 7.5t15.5 6zM532 1284q-98 0 -159.5 -65t-61.5 -168q0 -73 37.5 -143.5t132.5 -180.5q133 74 188.5 153t55.5 191q0 102 -52.5 157.5t-140.5 55.5zM545 -2q222 0 354 188l-14 15l-393 411l-54 56q-83 -51 -131.5 -96.5t-76 -107
t-27.5 -140.5q0 -138 90 -234q92 -92 252 -92z" />
    <glyph glyph-name="quotesingle" unicode="'" horiz-adv-x="327" 
d="M154 860q-4 110 -22 196.5t-34 130.5t-16 54q0 68 82 68t82 -68q0 -10 -16 -54t-34 -130.5t-22 -196.5h-20z" />
    <glyph glyph-name="parenleft" unicode="(" horiz-adv-x="675" 
d="M483 -440q-175 282 -250 516q-75 232 -75 540q0 309 75 541q75 234 250 516h54q-161 -271 -236 -514q-72 -242 -72 -543q0 -300 72 -542q75 -243 236 -514h-54z" />
    <glyph glyph-name="parenright" unicode=")" horiz-adv-x="675" 
d="M193 -440h-54q163 275 234 514q73 235 73 542q0 308 -73 543q-71 239 -234 514h54q168 -272 247 -516q78 -242 78 -541q0 -298 -78 -540q-79 -244 -247 -516z" />
    <glyph glyph-name="asterisk" unicode="*" horiz-adv-x="741" 
d="M408 1219l-17 -80q-14 -64 -20 -146q-5 60 -23 146q-14 66 -14 80q0 47 37 47t37 -47zM113 1077q9 36 55 21q10 -4 72 -41q78 -44 131 -64q-79 19 -146 25t-80 10q-44 14 -32 49zM631 1077q9 -35 -35 -49q-5 -2 -36.5 -5t-85 -10.5t-103.5 -19.5q67 25 133 66
q58 35 69 39q46 15 58 -21zM209 834q2 5 57 53q53 44 105 106q-45 -72 -70 -131q-24 -58 -33 -71q-26 -39 -57 -17q-29 20 -2 60zM530 774q-29 -25 -57 17q-14 21 -35 71q-31 73 -67 131q58 -65 104 -108l60 -51q26 -39 -5 -60z" />
    <glyph glyph-name="plus" unicode="+" horiz-adv-x="1146" 
d="M911 588q17 0 17 -24.5t-17 -24.5h-313v-314q0 -17 -24.5 -17t-24.5 17v314h-313q-17 0 -17 24.5t17 24.5h313v313q0 17 24.5 17t24.5 -17v-313h313z" />
    <glyph glyph-name="comma" unicode="," horiz-adv-x="458" 
d="M156 -285q-15 0 -15 13q0 7 15 16q129 108 129 244q0 24 -15 24q-2 0 -34 -14t-50 -14q-50 -6 -72 43q-21 47 2 90q24 46 81 41q57 0 93 -45t36 -119q0 -46 -14.5 -92t-36 -79.5t-45.5 -59.5t-44 -38.5t-30 -9.5z" />
    <glyph glyph-name="hyphen" unicode="-" horiz-adv-x="679" 
d="M137 461q39 0 86 -2t107 -2q68 0 121 2q55 2 96 2q24 0 24 -31t-26 -31h-105q-47 2 -104 2l-199 -2q-26 0 -26 29q0 33 26 33z" />
    <glyph glyph-name="period" unicode="." horiz-adv-x="407" 
d="M203 172q43 0 68.5 -26t25.5 -70q0 -43 -25.5 -69.5t-68.5 -26.5q-57 -6 -80.5 45t0 102t80.5 45z" />
    <glyph glyph-name="slash" unicode="/" horiz-adv-x="712" 
d="M-18 -184q-15 0 -15 14q0 6 6 18l717 1520q10 23 29 23q16 0 16 -13q0 -7 -6 -22l-715 -1520q-9 -20 -32 -20z" />
    <glyph glyph-name="zero" unicode="0" horiz-adv-x="1179" 
d="M256 1001q132 170 334 170t334 -170q133 -171 133 -430q0 -261 -133 -432q-131 -168 -334 -168t-334 168q-133 171 -133 432q0 259 133 430zM457 31q68 -24 134 -25t131.5 23.5t121.5 92.5t90 175q35 119 35 274q0 157 -35 273q-55 200 -213 266q-61 29 -131 29t-133 -29
q-152 -65 -213 -266q-33 -109 -33 -273q0 -162 33 -274q59 -193 213 -266z" />
    <glyph glyph-name="one" unicode="1" horiz-adv-x="718" 
d="M403 1171q15 0 15 -12l-10 -219q-2 -56 -2 -102v-619q0 -109 28 -145q30 -35 160 -56q33 -3 33 -20q0 -12 -15 -12l-96 6q-84 8 -156 8q-39 0 -100 -3.5t-106 -6.5l-45 -4q-15 0 -15 12q0 19 29 22q88 13 126.5 24.5t57.5 35.5q15 17 21 36t7 34.5t1 68.5v674
q0 93 -39 113q-41 24 -191 24q-24 0 -24 21q0 18 20 18q80 1 143 17t89 36q11 8 28 22.5t26 20.5t15 6z" />
    <glyph glyph-name="two" unicode="2" horiz-adv-x="1046" 
d="M973 274q14 0 14 -14q0 -40 -12 -117q-24 -155 -180 -155q-55 0 -258 78q-201 77 -267 77q-90 0 -90 -88q0 -5 4 -22t4 -25q0 -31 -34 -31q-41 0 -41 127q0 167 93.5 271t303.5 192q164 67 228.5 137.5t64.5 180.5q0 258 -305 258q-97 0 -170 -43q-74 -44 -74 -96
q0 -18 20.5 -55t20.5 -52q0 -34 -21.5 -54t-54.5 -20q-38 0 -62 27.5t-24 73.5q0 94 111 170q115 77 256 77q161 0 276 -77q113 -76 113 -205q0 -225 -359 -363q-190 -74 -285 -171.5t-95 -229.5v-35q8 38 42.5 62t83.5 24q82 0 279 -57q204 -56 254 -56q65 0 99 42.5
t46 144.5q3 24 19 24z" />
    <glyph glyph-name="three" unicode="3" horiz-adv-x="1056" 
d="M547 614q190 -10 298.5 -94t108.5 -215t-120 -233q-121 -103 -310 -103q-175 0 -288 78q-109 77 -109 180q0 49 26 77t68 28q74 0 74 -62q0 -29 -31 -65q-28 -36 -28 -70q0 -53 81.5 -95t204.5 -42q139 0 242 80q102 80 102 227q0 136 -96 209.5t-278 73.5
q-42 0 -85 -1.5t-69 -3t-27 -1.5q-39 0 -39 34q0 27 39 27q3 0 29 -1.5t62.5 -3t64.5 -1.5q146 0 239 69t93 193q0 123 -77.5 183.5t-213.5 60.5q-103 0 -165 -29.5t-62 -73.5q0 -12 17 -43t17 -45q0 -30 -22 -48.5t-55 -18.5q-38 0 -63 25t-25 65q0 77 104 135
q104 61 256 61q169 0 272 -75q105 -77 105 -197q0 -112 -93 -186.5t-247 -98.5z" />
    <glyph glyph-name="four" unicode="4" horiz-adv-x="946" 
d="M854 299h-152v-121q0 -84 19 -112t102 -46q47 -11 46 -26q-1 -8 -17 -8l-72 6q-63 8 -116 8q-52 0 -115 -8l-72 -6q-16 0 -16 12q0 9 35 18q86 20 106 50q21 27 21 112v121h-62h-510q-33 0 -33 20q0 6 23 39l573 752q32 43 41.5 52t26.5 9q20 0 20 -20v-313v-480h152
q37 0 37 -28q0 -31 -37 -31zM561 358h62v699q0 3 -2 2q-5 -4 -21 -25l-2 -2l-514 -674h477z" />
    <glyph glyph-name="five" unicode="5" horiz-adv-x="1040" 
d="M504 -31q-161 0 -271 78q-108 80 -108 184q0 46 26.5 73.5t65.5 27.5q33 0 55.5 -20t22.5 -54q0 -17 -18.5 -51t-18.5 -47q0 -70 68 -116t176 -46q178 0 262 91.5t84 281.5q0 327 -318 327q-191 0 -301 -104q-22 -19 -32 -19q-29 0 -29 27v508q0 29 11.5 40t41.5 11
q2 0 31 -4.5t75 -11.5t100 -13.5t119 -11t120 -4.5q96 0 225 39l12 6q2 0 2 -2q4 -17 -27.5 -49.5t-96 -61.5t-134.5 -28q-60 0 -126 10.5t-118.5 26t-95.5 31t-68 26t-26 10.5q-6 0 -6 -10v-498q123 111 330 111q157 0 278 -92t121 -264q0 -187 -115 -294.5t-317 -107.5z
" />
    <glyph glyph-name="six" unicode="6" horiz-adv-x="1069" 
d="M559 721q179 0 291 -100q115 -103 115 -261q0 -186 -123 -288q-124 -103 -299 -103q-215 0 -322 174q-108 175 -108 432q0 233 139 416q140 180 364 180q124 0 203.5 -54t79.5 -140q0 -94 -72 -94q-32 0 -51.5 16.5t-19.5 46.5q0 17 20.5 53.5t20.5 51.5q0 38 -52 65
t-127 27q-203 0 -329 -170q-99 -132 -99 -424q0 -57 3 -92q24 129 131 196q109 68 235 68zM543 -2q165 0 249.5 85.5t84.5 276.5q0 164 -83 248t-239 84q-142 0 -248 -86q-102 -82 -102 -256q0 -153 98 -254q98 -98 240 -98z" />
    <glyph glyph-name="seven" unicode="7" horiz-adv-x="903" 
d="M852 1151q27 0 27 -23q3 -5 -11 -22t-46 -54.5t-58 -76.5l-193 -285q-101 -149 -157 -282t-56 -209q0 -40 12 -77t24 -60t12 -31q0 -26 -15.5 -44t-38.5 -18q-69 0 -69 101q0 146 55 274q61 135 211 361q137 216 256 376q-65 -10 -176 -10q-92 0 -176 2q-168 4 -207 4
q-78 0 -107 -16l-39 -232q-6 -20 -17 -19q-9 1 -9 17l11 127q7 106 7 213q0 21 12 21q14 0 17 -12q0 -2 12 -39q49 14 125 14q9 0 30 -0.5t60.5 -1.5t77.5 -2q184 -4 190 -4q40 0 150 4q24 1 45 2t31 1z" />
    <glyph glyph-name="eight" unicode="8" horiz-adv-x="1085" 
d="M649 621q164 -63 243 -138t79 -186q0 -151 -127 -240q-127 -86 -301 -86q-186 0 -305 90q-117 89 -117 222q0 235 321 340q-129 53 -189 117t-60 159q0 124 110 197q109 75 260 75q143 0 244 -67q102 -68 102 -180q0 -195 -260 -303zM262 915q0 -110 98 -172
q90 -54 224 -98q6 -3 12 -5t11 -3t7 -2q250 102 250 289q0 101 -94 159q-94 60 -219 60q-110 0 -201 -60q-88 -58 -88 -168zM541 0q162 0 255 72.5t93 201.5q0 109 -81 180t-257 130q-57 18 -74 26q-303 -104 -303 -327q0 -119 105 -201q104 -82 262 -82z" />
    <glyph glyph-name="nine" unicode="9" horiz-adv-x="1097" 
d="M506 459q-165 0 -281 96q-114 99 -114 258q0 161 120 260q122 98 275 98q236 0 350 -163q115 -165 115 -412q0 -250 -129 -438q-130 -189 -350 -189q-140 0 -256 72q-113 73 -113 182q0 46 21 70t55 24q67 0 67 -63q0 -17 -20.5 -53t-20.5 -51q0 -64 78.5 -108t194.5 -44
q195 0 303 170q78 128 78 520q-24 -75 -82 -128t-132 -77t-159 -24zM520 1143q-145 0 -233 -84.5t-88 -245.5q0 -326 307 -326q99 0 174 32t129 110q57 80 57 207q0 132 -100 219q-98 88 -246 88z" />
    <glyph glyph-name="colon" unicode=":" horiz-adv-x="421" 
d="M195 692q43 0 68.5 -26t25.5 -70q0 -43 -25.5 -69.5t-68.5 -26.5q-57 -6 -80.5 45t0 102t80.5 45zM195 172q43 0 68.5 -26t25.5 -70q0 -43 -25.5 -69.5t-68.5 -26.5q-57 -6 -80.5 45t0 102t80.5 45z" />
    <glyph glyph-name="semicolon" unicode=";" horiz-adv-x="458" 
d="M203 692q43 0 68.5 -26t25.5 -70q0 -43 -25.5 -69.5t-68.5 -26.5q-57 -6 -80.5 45t0 102t80.5 45zM156 -285q-15 0 -15 13q0 7 15 16q129 108 129 244q0 24 -15 24q-2 0 -34 -14t-50 -14q-50 -6 -72 43q-21 47 2 90q24 46 81 41q57 0 93 -45t36 -119q0 -46 -14.5 -92
t-36 -79.5t-45.5 -59.5t-44 -38.5t-30 -9.5z" />
    <glyph glyph-name="less" unicode="&#x3c;" horiz-adv-x="1146" 
d="M256 358l504 314q23 12 31.5 12t15.5 -12q10 -9 7.5 -21t-26.5 -24l-475 -295l475 -295q24 -12 26.5 -24t-7.5 -21q-7 -12 -15.5 -12t-31.5 12l-504 313q-20 12 -20 26.5t20 26.5z" />
    <glyph glyph-name="equal" unicode="=" horiz-adv-x="1146" 
d="M236 729h675q17 0 17 -24.5t-17 -24.5h-675q-17 0 -17 24.5t17 24.5zM236 442h675q17 0 17 -24.5t-17 -24.5h-675q-17 0 -17 24.5t17 24.5z" />
    <glyph glyph-name="greater" unicode="&#x3e;" horiz-adv-x="1146" 
d="M862 305l-504 -313q-23 -12 -31.5 -12t-15.5 12q-10 9 -7.5 21t26.5 24l475 295l-475 295q-24 12 -26.5 24t7.5 21q7 12 15.5 12t31.5 -12l504 -314q20 -12 20 -26.5t-20 -26.5z" />
    <glyph glyph-name="question" unicode="?" horiz-adv-x="991" 
d="M406 356v97q0 101 37 156t137 91q119 43 167 108t48 191q0 139 -80.5 211t-218.5 72q-112 0 -191 -43q-80 -41 -80 -94q0 -15 23.5 -52t23.5 -55q0 -34 -21 -53.5t-54 -19.5q-38 0 -62 27t-24 73q0 103 112 172q115 74 275 74q162 0 272 -82q113 -82 113 -223
q0 -244 -267 -332q-97 -35 -131 -80t-34 -137v-101h-45zM428 170q43 0 68.5 -26t25.5 -70q0 -43 -26 -70t-68 -27q-57 -6 -80.5 45t0 102.5t80.5 45.5z" />
    <glyph glyph-name="at" unicode="@" horiz-adv-x="1474" 
d="M993 752q15 0 15 -15q0 -3 -11 -67l-47 -244q-24 -123 -24 -166q0 -141 123 -141q35 0 71.5 12t76 42t69.5 74.5t49.5 117.5t19.5 163q0 214 -161 344q-166 134 -402 134q-266 0 -450 -181q-183 -180 -183 -460q0 -249 168 -392q169 -147 416 -147q217 0 367 100l38 23
q15 0 15 -15q0 -10 -31 -32q-150 -105 -389 -105q-267 0 -453 154q-184 153 -184 414q0 299 199 483q198 186 487 186q263 0 440 -139t177 -369q0 -208 -109 -323q-107 -113 -233 -113q-168 0 -162 184q0 13 5 55t7 70h-4q-35 -137 -110.5 -218t-168.5 -81
q-89 0 -142.5 65.5t-53.5 190.5q0 174 104 293q108 123 238 123q47 0 83 -15t52.5 -33t28 -33t14.5 -15q11 0 29 37q17 39 26 39zM621 129q111 0 188 141q78 144 78 275q0 105 -28.5 151.5t-94.5 46.5q-104 0 -186 -120q-82 -119 -82 -293q0 -92 34 -146.5t91 -54.5z" />
    <glyph glyph-name="A" unicode="A" horiz-adv-x="1304" 
d="M944 -10q-22 0 -21 12q1 14 35 21q74 24 74 90q0 32 -92 282q-7 18 -27 21q-35 6 -319 6q-223 0 -250 -6q-16 -3 -22 -21l-66 -178q-16 -53 -16 -84q0 -79 98 -113q31 -6 31 -18q0 -14 -19 -14q-2 0 -69 6q-65 6 -107 6q-34 0 -80 -6t-51 -6q-20 0 -20 14q0 12 30 21
q67 22 90 55q22 32 82 170q149 372 332 885q25 73 25 75q0 26 -56 47q-22 6 -22 19q0 16 20 16q30 0 57 4t45 10t31.5 11.5t20.5 9.5t8 4q16 0 16 -14q0 -3 -7 -15t-7 -18q0 -19 14 -57l392 -1032q36 -91 55 -119q23 -29 65 -41q56 -14 54 -32q-1 -11 -19 -11q-7 0 -63 6
q-74 4 -86 4q-8 0 -90 -4q-58 -6 -66 -6zM604 453q215 0 293 10q14 0 14 8l-4 16l-278 734q-3 7 -6 2l-273 -744q-2 -2 -2 -12q0 -5 8 -8q27 -6 248 -6z" />
    <glyph glyph-name="B" unicode="B" horiz-adv-x="1218" 
d="M614 -12q-64 0 -178 6t-135 6l-143 -10q-15 0 -15 11q1 14 35 26q48 15 64 57q26 68 26 481v101q0 458 -18 532q-16 52 -57 66l-13 4q-24 7 -30.5 11.5t-6.5 12.5q0 13 15 13q2 0 55 -9q56 -6 86 -6q43 0 127 8q121 11 149 11q227 0 343 -72q126 -83 126 -236
q0 -138 -108.5 -226.5t-296.5 -98.5v-6h-10q204 0 334 -68q165 -85 165 -252q0 -165 -141 -264q-137 -98 -373 -98zM506 688q233 0 341.5 76t108.5 237q0 145 -96 212t-293 67q-178 0 -209 -31q-20 -17 -20 -75v-422q0 -45 24 -54q30 -10 144 -10zM606 16q430 0 430 332
q0 162 -127 232.5t-381 70.5q-122 0 -159 -16q-31 -15 -31 -82v-180v-67.5v-58.5v-48v-41t0.5 -32t1.5 -26.5t3 -19t4 -15.5t5 -10q33 -39 254 -39z" />
    <glyph glyph-name="C" unicode="C" horiz-adv-x="1298" 
d="M1192 449q16 0 16 -15q0 2 -1 -27.5t-2 -79t-2 -107.5t-2 -123t-1 -115q0 -13 -12 -15t-19 19q-3 11 -4 28q-1 49 -8.5 64.5t-26.5 15.5q-11 0 -52 -19.5t-91.5 -43t-133.5 -43t-167 -19.5q-252 0 -418 193t-166 481q0 287 170 481q171 195 422 195q88 0 178.5 -26.5
t147.5 -52.5t63 -26q12 0 18.5 13t10.5 53q6 38 24 39q13 -3 15 -19q0 -98 10 -221q7 -80 16 -146t14 -92l5 -26q0 -12 -12 -12q-20 0 -23 18l-14 56q-53 217 -162.5 315t-290.5 98q-188 0 -336 -137q-77 -71 -122.5 -204t-45.5 -306q0 -172 45 -304t123 -206
q147 -135 328 -135q212 0 326 83.5t145 256.5l14 90q6 21 21 21z" />
    <glyph glyph-name="D" unicode="D" horiz-adv-x="1394" 
d="M582 1309q310 0 510 -191t200 -469q0 -280 -200 -477q-201 -195 -510 -195q-58 0 -172 13q-105 12 -138 12q-32 0 -63 -2q-13 -1 -25.5 -2t-18 -1.5t-7.5 -0.5q-15 0 -15 12q0 5 3.5 7.5t9 4t17 5.5t22.5 10q33 11 36 96q7 96 7 526q0 401 -9 492q-6 93 -41 108l-9 4.5
t-11 4.5q-25 9 -25 18q0 12 15 12q1 0 5.5 -0.5t15 -1.5t22.5 -2q29 -2 71 -2q34 0 138 8q147 11 172 11zM582 4q272 0 446 162q176 164 176 483q0 322 -176 475q-175 156 -446 156q-239 0 -260 -68q-15 -40 -15 -555q0 -542 19 -591q24 -62 256 -62z" />
    <glyph glyph-name="E" unicode="E" horiz-adv-x="1114" 
d="M1038 319l-6 -36q-16 -131 -16 -189q0 -14 3.5 -35t7 -36t3.5 -17q0 -12 -14 -12q-2 0 -32.5 0.5t-83.5 1.5t-120.5 2t-160.5 1.5t-185 0.5q-218 0 -274 -6q-17 0 -17 12q0 3 0.5 4.5t2.5 3.5t4 3t6 2.5t7 2.5t9.5 3t11.5 4q49 15 64 55q24 62 24 430v131q0 469 -20 539
q-12 52 -55 67l-13 4q-41 15 -41 29q0 12 17 12h8q9 -1 26.5 -2t38.5 -2q47 -2 117 -2q136 0 324 2t223 2q20 0 50 1q42 1 49.5 0t7.5 -11q0 -2 -4 -17t-7.5 -36t-3.5 -35q0 -79 21 -176q0 -16 -13 -16q-16 0 -22 22q-41 159 -98 199q-56 39 -250 39q-139 0 -191 -9
q-51 -9 -69 -30q-18 -25 -21 -99q-4 -102 -4 -381l2 3q0 -37 31 -46q27 -8 143 -8q139 0 180 35q42 36 60 145q3 17 18 17q12 0 12 -14q0 -1 -1 -13t-3 -31.5t-4 -43.5t-3 -54t-1 -57q0 -30 1 -61.5t3 -54.5t4 -41t3 -28.5t1 -11.5q0 -14 -12 -14q-13 3 -16 18
q-9 110 -55 144q-46 37 -187 37q-108 0 -145 -11q-29 -10 -29 -45q0 -429 14 -497q5 -23 17 -43q19 -25 64 -34t165 -9q241 0 303 45q67 46 94 239q3 25 23 25q14 0 14 -17z" />
    <glyph glyph-name="F" unicode="F" horiz-adv-x="1054" 
d="M987 1196q0 -13 1 -27.5l2 -29t3 -30t3.5 -29.5t3.5 -26.5t4 -23t3 -18t2 -11.5l1 -4q0 -16 -13 -16q-16 0 -22 25q-53 172 -123 213q-67 43 -272 43q-119 0 -163 -6.5t-57 -26.5q-17 -24 -20 -103q-4 -110 -4 -409q0 -35 29.5 -44t136.5 -9q132 0 172 34q39 33 57 146
q3 16 21 16q10 0 10 -14q0 -1 -1 -13t-2.5 -31.5t-3 -43.5t-2.5 -54t-1 -57q0 -31 1 -61.5t2.5 -53.5t3 -41t2.5 -28.5t1 -11.5q0 -15 -10 -15q-16 3 -19 19q-12 109 -55 143q-40 37 -176 37q-111 0 -135 -8q-28 -9 -31 -45q0 -418 22 -492q15 -54 64 -63l18 -4
q35 -6 35 -17q0 -12 -16 -12q-2 0 -11 0.5t-27.5 1.5t-37.5 2q-45 2 -86 2q-14 0 -84 -4q-15 -1 -28.5 -2t-19.5 -1.5t-7 -0.5q-15 0 -15 12q0 10 31 19q53 15 68 53q24 58 24 405v164q0 475 -18 551q-15 49 -58 64q-6 0 -8 2q-40 11 -38 26q1 8 14 8l238 -6h87
q80 0 160.5 0.5t138.5 1.5t104 2t72.5 1.5t28.5 0.5q17 0 17 -12q0 -2 -4 -17t-8.5 -35.5t-4.5 -35.5z" />
    <glyph glyph-name="G" unicode="G" horiz-adv-x="1329" 
d="M1184 -31q-12 0 -15 27q-12 127 -39 127q-4 0 -11 -3.5t-18.5 -12.5t-21 -16.5t-27 -22t-28.5 -23.5q-39 -31 -122.5 -53.5t-182.5 -22.5q-272 0 -445 197q-172 199 -172 483q0 283 177 481q178 199 440 199q70 0 138.5 -15.5t110 -34.5t74.5 -34.5t41 -15.5q38 0 41 76
q3 38 23 38q18 0 18 -18q0 -74 3 -145.5t7.5 -121.5t9.5 -88.5t8 -60t3 -22.5q0 -9 -8 -12.5t-17 0.5t-12 16q-52 231 -160 319q-110 90 -280 90q-199 0 -352 -139q-80 -74 -126 -206.5t-46 -305.5q0 -328 151 -493q154 -160 373 -160q182 0 294.5 75t112.5 203v68
q0 70 -10 91t-51 34q-31 9 -31 20q0 13 15 13q3 0 47 -6q51 -7 63 -7q1 0 78 5q14 1 26 2l18 1.5t7 0.5q15 0 15 -11t-38 -21t-44 -18q-21 -21 -21 -256v-192q0 -29 -16 -29z" />
    <glyph glyph-name="H" unicode="H" horiz-adv-x="1425" 
d="M371 20q36 -8 35 -22q-1 -10 -15 -10q-7 0 -53 6t-64 6q-16 0 -63 -6t-53 -6q-14 0 -15 10q-1 14 35 22q47 15 53 107q9 95 9 530q0 413 -9 504q-6 94 -53 109q-37 8 -34 23q1 10 14 10q2 0 8 -1t19.5 -2.5t25.5 -3.5q47 -6 63 -6q18 0 64 6q12 2 25.5 3.5t19.5 2.5t8 1
q14 0 15 -11q0 -15 -35 -22q-47 -15 -56 -109q-6 -92 -6 -504q0 -435 6 -530q9 -92 56 -107zM1247 20q36 -8 35 -22q0 -10 -14 -10q-8 0 -54 6t-63 6t-64 -6t-53 -6q-14 0 -14 10q-1 14 35 22q44 14 53 101q8 76 8 465q-3 25 -69 28q-75 7 -334 7q-267 0 -342 -7
q-62 -6 -62 -34v120q0 -30 62 -36q75 -7 342 -7q250 0 329 7q71 6 74 30q0 392 -8 471q-9 91 -53 105q-37 8 -35 23q1 10 14 10q2 0 8 -1t19.5 -2.5t25.5 -3.5q47 -6 64 -6t63 6q12 2 26 3.5t20 2.5t8 1q14 0 14 -11q0 -15 -35 -22q-46 -15 -55 -109q-6 -91 -6 -504
q0 -435 6 -530q9 -92 55 -107z" />
    <glyph glyph-name="I" unicode="I" horiz-adv-x="544" 
d="M156 -12q-15 0 -15 12q0 14 35 23q47 15 53 108q9 95 9 526q0 413 -9 504q-6 92 -53 107q-35 9 -35 20q0 15 15 15l8 -1q8 -2 20.5 -4t27 -3.5t31 -3t29.5 -1.5t30 1.5t31.5 3t27 3.5t20.5 4l8 1q14 0 14 -15q0 -11 -34 -20q-47 -15 -56 -107q-6 -92 -6 -504
q0 -431 6 -526q9 -93 56 -108q34 -9 34 -23q0 -12 -14 -12q-3 0 -47 6t-70 6t-69 -6t-47 -6z" />
    <glyph glyph-name="J" unicode="J" horiz-adv-x="1007" 
d="M936 1305q14 0 14 -13q0 -9 -20 -18l-15 -4q-41 -12 -56 -37.5t-21 -89.5q-7 -75 -7 -223v-531q0 -203 -101 -311.5t-275 -108.5q-159 0 -255 93.5t-96 250.5q0 65 22.5 101.5t61.5 36.5q54 0 54 -52q0 -24 -39 -63t-39 -90q0 -90 78 -168q81 -78 213 -78q148 0 227.5 91
t79.5 271v560q0 141 -2 178q-3 56 -12 96q-7 27 -17 41t-20.5 19.5t-36.5 13.5q-33 11 -33 22q0 13 14 13q8 0 58 -9q52 -6 86 -6q33 0 82 6q53 9 55 9z" />
    <glyph glyph-name="K" unicode="K" horiz-adv-x="1245" 
d="M1143 41q63 -21 69 -29q2 -3 2 -6q0 -12 -14 -12q-2 0 -10.5 0.5l-25.5 1.5l-34 2q-41 2 -90 2q-61 0 -100 -2q-17 -1 -31.5 -2t-20.5 -2h-7q-15 0 -15 10q0 13 25 19q76 21 76 43q0 31 -41 98q-54 89 -109 168q-28 45 -72 104q-19 30 -86 125l-88 131q-12 15 -18 15
q-9 0 -18 -9l-226 -237q0 -268 10 -350q9 -72 52 -88q35 -9 35 -23q0 -12 -15 -12q-3 0 -47 6t-70 6t-69 -6t-47 -6q-15 0 -15 12q0 14 35 23q47 15 53 108q9 95 9 526q0 413 -9 504q-6 92 -53 107q-35 9 -35 20q0 15 15 15l8 -1q8 -2 20.5 -4t27 -3.5t31 -3t29.5 -1.5
t30 1.5t31.5 3t27 3.5t20.5 4l8 1q15 0 15 -15q0 -11 -35 -20q-47 -15 -56 -107q-6 -92 -6 -504v-159l506 538q83 90 107 122t24 54q0 34 -76 58q-18 6 -18 18q0 15 20 15l26 -3q26 -4 62.5 -7t61.5 -3q15 0 35 1.5t38 3t33 3.5t25 4l10 1q19 0 19 -15q0 -9 -31 -18
q-63 -15 -107 -47q-37 -24 -108 -99l-328 -346q382 -572 424 -626q72 -97 111 -111z" />
    <glyph glyph-name="L" unicode="L" horiz-adv-x="1007" 
d="M258 1290q18 0 45.5 4t48.5 7.5t23 3.5q14 0 14 -13q0 -2 -0.5 -3.5t-1.5 -3l-2 -3t-3.5 -3t-4.5 -2.5t-6.5 -3t-8 -4t-9.5 -4.5t-11 -5.5q-37 -18 -43 -109q-6 -89 -6 -535q0 -393 2 -444q3 -75 20 -102q30 -47 252 -47q189 0 260 59q68 59 103 246q3 18 14 18
q12 0 12 -16q0 -5 -16 -111q-14 -88 -14 -135q0 -19 5 -38.5t10 -32.5t5 -15q0 -12 -14 -12l-23 2q-23 1 -61.5 3t-84.5 4t-102.5 3.5t-105.5 1.5q-313 0 -397 -10q-15 0 -15 12q0 5 35 29q33 20 39 106q6 83 6 479q0 431 -4 541q-3 85 -37 103q-9 9 -19.5 14t-15 8t-4.5 10
q0 13 15 13l7 -1q7 -2 18 -4t23.5 -4.5t26.5 -4t25 -1.5z" />
    <glyph glyph-name="M" unicode="M" horiz-adv-x="1636" 
d="M1483 20q8 -2 19 -4t17.5 -3.5t13.5 -3.5t10 -5t3 -6q0 -12 -14 -12h-12q-11 1 -28.5 1.5t-38 1t-42.5 1t-39 0.5q-13 0 -33 -0.5t-39 -1t-36 -1t-28 -1.5h-11q-15 0 -15 12q0 4 1.5 6.5t6.5 4t10 2.5t15.5 3.5t20.5 5.5q56 14 69 76q15 58 15 254v457q0 239 -2 307v113
q0 8 -5 8q-3 0 -6 -6q-7 -14 -262 -608l-258 -607q-9 -18 -18 -18q-7 0 -17 16l-524 1125q-6 20 -12 20q-4 0 -4 -10q0 -244 -2 -434v-437q0 -158 18 -196q22 -36 111 -51q44 -8 43 -27q-1 -13 -17 -14q-7 0 -78 6t-104 6q-30 0 -94 -6q-65 -6 -68 -6q-16 0 -16 14t39 23
q33 9 41 11t29 11t24 12.5t14.5 20t12 27.5t5.5 40.5t6 55t3 73.5v867q0 62 -21 82.5t-94 31.5q-30 4 -31 21q3 14 19 16l16 -1q15 -1 35.5 -2t34.5 -1q4 0 35.5 3t34.5 3q33 0 47 -36l530 -1158l6 -8q1 0 4 6l484 1166q12 28 45 28q8 0 39 -2t39 -2q42 0 65 2l35 2
q14 0 14 -12q0 -17 -55 -20q-29 -3 -43 -17.5t-20.5 -51.5t-6.5 -112v-737q0 -194 11 -258q9 -54 53 -66z" />
    <glyph glyph-name="N" unicode="N" horiz-adv-x="1386" 
d="M1186 -31q-17 0 -33 25q-50 82 -369 514q-361 489 -512 686q-21 27 -24 27q-8 0 -8 -17v-958q0 -111 22 -160q20 -45 98 -63q31 -9 31 -21q0 -14 -18 -14q-3 0 -56 6t-92 6q-22 0 -55 -3t-58 -6t-28 -3q-18 0 -18 14q0 10 32 18q61 13 83 62.5t22 163.5v903
q0 61 -12.5 81t-59.5 27q-80 9 -80 35q0 11 15 11q1 0 5.5 -1t15 -2.5t22.5 -3.5q40 -6 57 -6q12 0 43.5 6.5t38.5 6.5q39 0 82 -58l827 -1110q19 -31 19 -2v944q0 93 -20.5 132.5t-76.5 56.5q-41 15 -41 24q0 13 15 13l55 -7q55 -6 84 -6q34 0 86 6l53 7q15 0 15 -11
q0 -13 -35 -22q-55 -18 -78 -60t-23 -133v-1067q0 -41 -24 -41z" />
    <glyph glyph-name="O" unicode="O" horiz-adv-x="1433" 
d="M717 1329q275 0 444 -196q170 -194 170 -484q0 -284 -172 -483q-170 -197 -442 -197t-445 197q-170 200 -170 483q0 290 170 484q172 196 445 196zM717 6q221 0 368 156q150 156 150 487q0 142 -28.5 253.5t-77 183.5t-116 119.5t-140.5 67t-156 19.5q-81 0 -153.5 -19.5
t-140 -67t-116.5 -119.5t-78.5 -184t-29.5 -253q0 -167 43 -297t120 -205q147 -141 355 -141z" />
    <glyph glyph-name="P" unicode="P" horiz-adv-x="1167" 
d="M358 428q-10 0 -10 -10v-92q0 -164 21 -226q21 -61 82 -77q59 -18 56 -31q-2 -6 -15 -6l-14 2q-13 1 -34 3t-44.5 4t-48.5 3.5t-42 1.5q-23 0 -60.5 -3.5t-64.5 -6.5l-26 -4q-15 0 -15 12q0 9 27 18l23 7q44 14 59 57q22 74 22 508v78q0 464 -20 534q-12 53 -55 68
q-4 0 -6 2q-37 12 -37 22q0 13 14 13l53 -9q52 -6 86 -6q46 0 125 8q108 11 133 11q249 0 383.5 -117t134.5 -324t-137 -338t-360 -131q-29 0 -62.5 3t-62 7.5t-52.5 8.5t-39 7zM373 1235q-17 -24 -23 -115q-6 -92 -6 -391q0 -143 6 -192q9 -50 29 -64q44 -33 205 -33
q178 0 297 113q123 114 123 315q0 412 -443 412q-155 0 -188 -45z" />
    <glyph glyph-name="Q" unicode="Q" horiz-adv-x="1460" 
d="M1452 -186q0 -18 -22.5 -58t-59.5 -82q-38 -49 -105.5 -81.5t-140.5 -32.5q-86 0 -175.5 38t-155.5 93q-166 137 -265 147q-56 -70 -88 -88q-23 -10 -43 -10q-55 0 -55 49q0 34 40.5 56t111.5 22q18 0 24 -2q47 74 131 108q-248 27 -397 217q-150 194 -150 459
q0 290 170 484q172 196 445 196q275 0 444 -196q170 -194 170 -484q0 -272 -157 -467q-158 -196 -414 -211v-2q-124 0 -213 -108q59 -11 172 -66t215 -96q107 -43 201 -43q104 0 181 41t103 110q8 23 23 20q10 -1 10 -13zM199 649q0 -167 43 -297t120 -205
q147 -141 355 -141q221 0 368 156q150 156 150 487q0 142 -28.5 253.5t-77 183.5t-116 119.5t-140.5 67t-156 19.5q-81 0 -153.5 -19.5t-140 -67t-116.5 -119.5t-78.5 -184t-29.5 -253z" />
    <glyph glyph-name="R" unicode="R" horiz-adv-x="1261" 
d="M989 -25q-74 0 -166 56q-92 57 -164 121q-69 63 -163 120q-92 56 -166 56q-25 0 -25 -29q0 -149 6 -195q6 -44 25 -63q8 -8 24.5 -14.5t27.5 -11.5t11 -11q0 -12 -16 -12q-1 0 -6 0.5t-16.5 1.5t-24.5 2q-58 4 -70 4q-9 0 -63 -4q-12 -1 -22 -2t-14 -1.5t-5 -0.5
q-17 0 -17 12q0 7 4.5 11t19 10.5t26.5 13.5q14 8 20 49q9 41 12 184q4 192 4 445q0 335 -6 420q-6 87 -28 112q-7 10 -30.5 18t-23.5 15q0 14 17 14l18 -2q17 -1 39.5 -2.5t34.5 -1.5q19 0 127 15q101 14 186 14q239 0 389 -135q150 -132 150 -357q0 -231 -168 -362
q-165 -131 -408 -131q-62 0 -112 4v-4q73 -15 176 -86q96 -65 205 -127q101 -58 192 -58q80 0 127 54.5t47 146.5q0 10 8 10q10 0 17.5 -26.5t7.5 -59.5q0 -91 -63 -151q-62 -62 -144 -62zM502 358q212 0 362 117q152 119 152 352q0 240 -129 351q-127 112 -322 112
q-191 0 -233 -51q-24 -31 -27 -100q-4 -98 -4 -422v-295q0 -43 29 -53q37 -11 172 -11z" />
    <glyph glyph-name="S" unicode="S" horiz-adv-x="1134" 
d="M168 -31q-16 0 -16 23q0 24 2 69q4 90 4 115q0 32 -2 73t-4 77t-4.5 67t-4.5 50t-2 20q0 16 17 16q11 0 20 -22q28 -94 55 -164q33 -71 78 -137q103 -152 320 -152q167 0 257.5 83.5t90.5 227.5q0 116 -72 188.5t-223 114.5l-192 52q-312 83 -312 325q0 151 105 242
q109 92 260 92q73 0 149 -29.5t126.5 -58.5t60.5 -29t16.5 5.5t8.5 18t2.5 20t0.5 24.5q3 37 21 37q20 0 20 -19q0 -112 6 -186q0 -1 13 -115q14 -98 14 -112q0 -15 -16 -15q-15 0 -21 19q-45 155 -121 268q-90 137 -272 137q-139 0 -226 -75.5t-87 -202.5
q0 -111 71.5 -176.5t233.5 -108.5l168 -45q167 -43 246 -124t79 -214q0 -173 -110 -276t-301 -103q-66 0 -137 16.5t-118 37t-87.5 37t-53.5 16.5q-20 0 -29 -16t-16 -68q-3 -23 -18 -23z" />
    <glyph glyph-name="T" unicode="T" horiz-adv-x="1243" 
d="M451 -10q-15 0 -15 14q0 9 23 16q97 14 121 48q22 36 22 159v351q-3 532 -4 548q-3 85 -18 103q-27 35 -183 35q-112 -4 -141 -13q-43 -13 -70 -61q-29 -90 -41 -236q-3 -32 -20 -32q-14 0 -14 20l4 111q2 74 2 159q0 13 -2.5 26t-5.5 22.5t-6.5 17t-6.5 12.5l-2 4
q0 15 15 15q1 0 16.5 -2.5t51.5 -5.5t83 -5q216 -6 375 -6q321 0 459 10q19 2 35.5 4.5t22.5 3.5t9 1q15 0 15 -15l-2 -4q-3 -5 -6.5 -12.5t-6.5 -17t-5.5 -22.5t-2.5 -26q0 -85 2 -159l4 -111q0 -20 -14 -20q-18 0 -21 32q-17 154 -31 207.5t-55 77.5q-57 25 -166 25
q-155 0 -182 -35q-15 -18 -18 -103q-2 -55 -2 -548l-2 -351q0 -126 20 -159q23 -33 123 -48q23 -7 23 -16q0 -14 -15 -14l-69 4q-115 8 -230 0z" />
    <glyph glyph-name="U" unicode="U" horiz-adv-x="1275" 
d="M645 -31q-240 0 -367.5 152.5t-127.5 451.5v510q0 90 -15 126.5t-63 54.5q-37 14 -36 29q1 10 17 10q1 0 6.5 -1t18.5 -2.5t28 -3.5q52 -6 84 -6q34 0 86 6q61 7 62 7q14 0 14 -13q0 -14 -39 -26q-51 -17 -69.5 -50t-18.5 -106l-2 -551q-1 -268 108 -408.5t314 -140.5
q200 0 311 137t111 412v469q0 121 -25 173.5t-88 70.5q-33 8 -33 22q0 11 17 11l10 -1q10 -2 25 -4t32.5 -3.5t36 -3t31.5 -1.5q43 0 92 6q15 2 29 3.5t20 2.5t7 1q12 0 12 -9q0 -15 -33 -26q-53 -13 -74.5 -56t-21.5 -127v-528q0 -299 -121 -443.5t-338 -144.5z" />
    <glyph glyph-name="V" unicode="V" horiz-adv-x="1290" 
d="M639 -55q-15 0 -18 12q-87 253 -408 1122q-31 84 -68 125.5t-90 59.5q-45 12 -45 29q0 12 19 12q7 0 77 -9q70 -6 105 -6q29 0 96 6q71 9 82 9q21 0 21 -15q0 -13 -64 -28q-76 -21 -76 -84q0 -36 78 -258q93 -264 184 -502q68 -176 127 -342q1 -2 4 -2t3 2
q337 863 387 997q16 53 16 84q0 79 -88 113q-31 9 -31 18q0 15 19 15q1 0 7.5 -1t22.5 -2.5t35 -3.5q64 -6 103 -6q20 0 49.5 3t51 6.5t22.5 3.5q20 0 20 -14q-3 -15 -27 -21q-50 -12 -83 -49.5t-68 -122.5l-445 -1139q-3 -12 -18 -12z" />
    <glyph glyph-name="W" unicode="W" horiz-adv-x="1970" 
d="M1939 1303q13 0 18 -7t0 -15t-18 -11q-51 -13 -78.5 -47.5t-58.5 -122.5l-387 -1155q-6 -15 -16 -15q-15 0 -21 13l-377 1063l-360 -1063q-6 -15 -16 -15q-16 0 -19 15l-411 1153q-27 72 -59.5 109.5t-90.5 60.5q-35 12 -35 24q0 15 19 15q4 0 69 -9q64 -6 99 -6
q29 0 100 6q73 9 76 9q20 0 20 -15q0 -11 -47 -26q-88 -24 -88 -82q0 -74 381 -1121l2 -2q2 0 4 2l338 998l-10 28q-4 8 -10.5 25t-9 22t-7.5 17t-7.5 16t-7 12.5t-9 13.5t-9.5 11t-12 13q-25 28 -63 45q-35 15 -35 28q0 15 18 15q7 0 60 -9q53 -6 90 -6q27 0 67 4
q17 2 36 5t28 4.5t12 1.5q21 0 21 -13q-1 -16 -45 -28q-39 -12 -53.5 -24.5t-14.5 -35.5q0 -68 393 -1134l2 -4q2 0 2 4q240 714 273 823q67 210 67 264q0 43 -28 68.5t-95 42.5q-25 6 -25 21q0 14 19 14q1 0 13 -1.5t30.5 -3.5t40 -3.5t46 -3t42.5 -1.5q25 0 59.5 3t56.5 7
z" />
    <glyph glyph-name="X" unicode="X" horiz-adv-x="1409" 
d="M1255 57q9 -5 25.5 -12t32 -13.5t29.5 -13t21.5 -11.5t4.5 -7q0 -14 -10 -14q-12 0 -64 8q-58 6 -96 6q-22 0 -51.5 -1.5t-56.5 -3.5t-50.5 -4t-37.5 -3.5t-13 -1.5q-16 0 -16 12q0 11 53 29q55 21 55 45q0 18 -16 55q-13 29 -98 147q-109 155 -250 338q-12 20 -23 29
l-194 -260q-166 -220 -166 -281q0 -62 92 -86q25 -6 25 -16q0 -12 -15 -12q-123 14 -186 14q-25 0 -74.5 -3.5t-85.5 -6.5l-37 -4q-12 0 -12 12q0 13 25 16q70 15 147 74q43 34 117 123q61 73 282 373l64 84q-274 361 -363 467q-77 95 -133 116q-19 9 -38 14.5t-29.5 7
t-19 3.5t-12 5.5t-3.5 10.5q0 13 14 13l26 -3q26 -4 63.5 -8t64.5 -4q52 0 131 6q82 9 86 9q14 0 14 -13q0 -6 -49 -24q-57 -20 -57 -43q0 -48 346 -502l143 195q166 224 166 288q0 30 -49 54q-46 21 -51 27q-2 3 -2 7q0 11 12 11q1 0 11.5 -1.5t28 -3.5t38 -4.5t45 -4
t45.5 -1.5q50 0 117 6q71 9 75 9q13 0 13 -11q0 -15 -37 -24q-92 -21 -148 -74q-58 -55 -170 -205q-9 -14 -26 -37l-193 -258l14 -17.5l18 -22.5t9 -13q366 -477 410 -524q40 -46 69 -62z" />
    <glyph glyph-name="Y" unicode="Y" horiz-adv-x="1191" 
d="M451 -14q-19 0 -18 10q2 14 50 31q32 11 50.5 33t25.5 65q12 52 12 209q2 43 2 178q0 22 -14 47l-313 506q-69 117 -107 152q-41 41 -90 55q-29 10 -29 20q0 11 17 11q1 0 6 -1t17 -2.5t24 -3.5q43 -6 76 -6q38 0 102 6q18 2 35.5 3.5t25.5 2.5t9 1q17 0 17 -9
q-1 -11 -32 -23l-2 -1q-24 -10 -36 -21t-13 -27.5t3.5 -30.5t15.5 -40q55 -127 336 -571l208 329q75 120 101 174.5t26 96.5q0 80 -106 92q-25 1 -25 17q2 13 19 14q1 0 8.5 -1t25 -2.5t37.5 -3.5q67 -6 105 -6q26 0 82 6q17 2 32 3.5t21.5 2.5t7.5 1q12 0 16.5 -6t0 -13.5
t-16.5 -11.5q-49 -16 -76 -43q-22 -22 -86 -119l-348 -539q-12 -15 -12 -28q0 -393 18 -451q12 -39 54 -55q2 -2 20 -8q49 -21 46 -35q-2 -8 -17 -8q-9 0 -66 8q-64 6 -84 6q-34 0 -94 -8z" />
    <glyph glyph-name="Z" unicode="Z" horiz-adv-x="1269" 
d="M90 -14q-14 0 -14 12q0 11 20 31q40 42 127 153l90 115l131 166q22 28 77 100t81 105q345 440 383 499q27 43 27 62q0 9 -11.5 14.5t-62 9.5t-145.5 4h-201h-44.5h-41t-31 -0.5t-31 -1t-25 -2t-28.5 -3.5t-26 -5q-47 -9 -68 -24q-22 -13 -47.5 -46t-38.5 -69l-33 -102
q-12 -25 -20 -25q-15 0 -15 16q25 130 25 193q0 21 -2 39t-5 29.5t-6.5 19.5t-5.5 12l-2 4q0 13 15 13l8 -1q8 0 24.5 -0.5t38 -1t54.5 -1t69 -1.5q129 -2 349 -2q168 0 272 2q46 1 86 2t59 2l19 1q14 0 14 -13q0 -5 -4.5 -8.5t-14 -10t-16.5 -16.5l-465 -602
q-396 -507 -424 -557q-20 -29 -20 -45q0 -18 47 -18h369q123 2 186.5 7t116.5 21q63 19 88 39q31 23 58.5 71t41.5 99q14 48 33 146q9 33 25 33q10 0 10 -17l-23 -127q-20 -131 -20 -205q0 -34 2 -61t2 -41q0 -12 -14 -12q-58 0 -146 2q-194 0 -319 2h-338q-91 0 -150 -2
q-26 -1 -48 -2t-32 -2h-10z" />
    <glyph glyph-name="bracketleft" unicode="[" horiz-adv-x="688" 
d="M530 1503h-229v-1917h229v-53h-299v2023h299v-53z" />
    <glyph glyph-name="backslash" unicode="\" horiz-adv-x="866" 
d="M782 -184q-23 0 -32 20l-674 1438q-6 15 -6 22q0 13 16 13q19 0 29 -23l676 -1438q6 -12 6 -18q0 -14 -15 -14z" />
    <glyph glyph-name="bracketright" unicode="]" horiz-adv-x="688" 
d="M457 1556v-2023h-299v53h229v1917h-229v53h299z" />
    <glyph glyph-name="asciicircum" unicode="^" horiz-adv-x="1146" 
d="M137 840q-14 0 -14 14t153 217q78 101 195 258q28 39 43 51.5t39 12.5q23 0 36 -11t48 -53q208 -273 289 -385q57 -75 57 -90q0 -14 -14 -14q-11 0 -70 59q-85 89 -344 377h-4q-259 -288 -344 -377q-59 -59 -70 -59z" />
    <glyph glyph-name="underscore" unicode="_" horiz-adv-x="1153" 
d="M127 -88h901q17 0 17 -24.5t-17 -24.5h-901q-17 0 -17 24.5t17 24.5z" />
    <glyph glyph-name="grave" unicode="`" horiz-adv-x="819" 
d="M600 924q-1 0 -2 0.5t-3.5 1.5t-4.5 2q-150 94 -338 231q-52 40 -43 74q15 53 63 41q15 5 129 -117l91 -96q22 -23 59.5 -63t54.5 -56q7 -7 4 -12q-3 -9 -10 -6z" />
    <glyph glyph-name="a" unicode="a" horiz-adv-x="935" 
d="M901 59q0 -41 -26 -65.5t-70 -24.5q-59 0 -86 35t-27 109v90q-43 -107 -139 -170.5t-199 -63.5q-123 0 -191.5 52t-68.5 143q0 151 172 213q149 53 426 65v35q0 322 -276 322q-86 0 -139.5 -29.5t-53.5 -71.5q0 -12 17.5 -43t17.5 -47q0 -27 -19 -44t-51 -17
q-69 0 -69 84q0 79 83 137.5t222 58.5q342 0 342 -364v-354q0 -99 51 -99q47 0 53 47q1 13 8.5 18t15 0.5t7.5 -16.5zM358 -2q136 0 234 98q100 100 100 279v45q-349 -15 -450 -94q-70 -52 -70 -152q0 -176 186 -176z" />
    <glyph glyph-name="b" unicode="b" horiz-adv-x="962" 
d="M131 -10v383v729q0 74 -8.5 93.5t-46.5 31.5q-41 12 -41 26q0 12 20 15q37 5 68 20.5t46.5 28t18.5 12.5q17 0 17 -14q-10 -82 -10 -168v-559h6q38 116 119.5 177.5t191.5 61.5q157 0 262 -120t105 -308q0 -197 -107 -313q-105 -117 -270 -117q-68 0 -134 35t-108 90
q-19 25 -34 49t-20.5 33.5t-6.5 9.5q-8 0 -11 -20l-16 -166q-4 -30 -23 -31q-16 4 -18 21zM498 -2q134 0 212 100.5t78 300.5t-77.5 300t-210.5 100q-120 0 -211 -107q-92 -109 -92 -284v-21q0 -173 90 -283q87 -106 211 -106z" />
    <glyph glyph-name="c" unicode="c" horiz-adv-x="888" 
d="M817 260q12 0 12 -12v-4q-25 -125 -113.5 -200t-242.5 -75q-171 0 -278 119q-109 121 -109 309q0 196 119 312q118 118 272 118q94 0 168 -26q21 -7 41 -13.5t28 -9t9 -2.5q25 0 37 35q6 16 18 16q15 0 15 -18q0 -43 2.5 -88t5.5 -78t6 -59.5t5.5 -40.5t2.5 -13
q0 -16 -16 -16q-13 0 -19 21q-38 147 -107.5 205.5t-199.5 58.5q-103 0 -199 -78q-51 -42 -81.5 -126t-30.5 -192q0 -182 94 -286q94 -105 229 -105q245 0 316 232q6 16 16 16z" />
    <glyph glyph-name="d" unicode="d" horiz-adv-x="997" 
d="M938 45q31 -6 31 -14q0 -14 -25 -17q-33 -3 -72.5 -12t-65 -15.5t-28.5 -6.5q-12 0 -12 14l2 28q2 27 4 69.5t2 80.5h-2q-86 -203 -307 -203q-157 0 -268 117q-111 120 -111 301q0 198 111 318q110 122 268 122q212 0 297 -163h2v307q-3 170 -10 201.5t-46 47.5
q-2 1 -3 1q-61 21 -64 30q0 12 23 15q51 4 90.5 19.5t58.5 29.5t21 14q12 0 12 -12v-3q-1 -4 -2 -12.5t-2.5 -20t-2.5 -28.5t-2.5 -37t-3 -45.5t-2.5 -53.5t-1.5 -62t-0.5 -70v-819q0 -55 26 -81.5t83 -39.5zM463 4q139 0 223.5 101t85.5 282q6 412 -309 412
q-132 0 -214.5 -104t-82.5 -308q0 -195 88 -289t209 -94z" />
    <glyph glyph-name="e" unicode="e" horiz-adv-x="903" 
d="M829 229q0 -2 -4 -18q-32 -105 -124 -173.5t-222 -68.5q-180 0 -289 127q-104 125 -104 301q0 178 109 305q110 125 288 125q151 0 242 -88q92 -86 92 -211q0 -32 -9 -42.5t-38 -10.5l-602 2q-4 -66 -4 -74q0 -179 87 -286t238 -107q127 0 209 70q89 73 109 147
q1 8 6.5 11t10.5 0.5t5 -9.5zM479 799q-120 0 -200.5 -77.5t-104.5 -209.5l559 4q12 0 12 21q0 102 -71 182t-195 80z" />
    <glyph glyph-name="f" unicode="f" horiz-adv-x="595" 
d="M438 1329q73 0 131 -29.5t58 -66.5q0 -43 -37 -43q-17 0 -28 11.5t-32 47.5q-37 43 -108 43q-62 0 -98.5 -38.5t-36.5 -114.5v-133v-213q17 1 60 2t65 2q24 1 46 2l33 1.5t13 0.5q33 0 33 -29t-33 -29q-31 0 -86 2q-20 1 -48.5 2t-48 2t-34.5 1v-580q0 -86 22 -111
q21 -24 109 -36q20 -6 20 -17q0 -14 -14 -14q-1 0 -10 0.5t-26 1.5t-36 2q-86 4 -94 4q-41 0 -68 -2q-22 -1 -45.5 -2.5t-36.5 -2.5l-14 -1q-13 0 -14 11q-1 14 26 20q80 13 97 38q18 27 18 129v560l-137 -5q-17 0 -23.5 13.5t0 27t23.5 13.5l10 -1q9 0 23.5 -1t31.5 -2
t37 -1.5t35 -0.5v280q0 118 59 187t158 69z" />
    <glyph glyph-name="g" unicode="g" horiz-adv-x="851" 
d="M508 10q303 0 303 -192q0 -120 -111 -187q-109 -69 -270 -69q-175 0 -277 60.5t-102 168.5q0 71 40.5 118.5t109.5 61.5q-99 27 -99 127q0 144 209 168q-100 27 -160.5 100.5t-60.5 174.5q0 131 94 207q94 79 234 79q84 0 143 -26q12 90 58.5 141t111.5 51q94 0 94 -78
q0 -29 -18 -48t-45 -19q-42 0 -62 39q-15 35 -43 35q-54 0 -69 -134q157 -80 157 -247q0 -128 -96 -209q-95 -80 -231 -80q-248 0 -248 -137q0 -55 34.5 -80t114.5 -25h189zM238 733q-70 -64 -70 -192t70 -195q71 -65 180 -65q107 0 178 65q72 69 72 195t-72 192t-178 66
q-108 0 -180 -66zM434 -410q151 0 231 56t80 159q0 154 -208 154h-246q-162 -15 -162 -164q0 -98 78.5 -151.5t226.5 -53.5z" />
    <glyph glyph-name="h" unicode="h" horiz-adv-x="1024" 
d="M909 25q25 -8 25 -22q-1 -11 -14 -11q-1 0 -5.5 0.5t-15 1.5t-22.5 2q-54 4 -64 4q-3 0 -57 -4q-12 -1 -22.5 -2t-15 -1.5t-5.5 -0.5q-14 0 -14 12q0 13 20 19q26 8 39 21.5t19.5 47.5t6.5 98v310q0 282 -217 282q-131 0 -219 -108q-88 -107 -88 -295v-186q0 -117 2 -130
q10 -25 64 -40q23 -7 20 -22q-2 -9 -14 -9q-2 0 -7.5 0.5t-17 1.5t-22.5 2q-54 4 -62 4q-12 0 -34.5 -2t-40.5 -4l-17 -2q-13 0 -14 11q-1 14 24 22q33 12 43 41q11 33 11 124v912q0 71 -9.5 92t-46.5 33q-28 8 -34.5 12t-6.5 14q0 12 21 15q36 5 68.5 20.5t49.5 28t19 12.5
q16 0 16 -14q-12 -73 -12 -168v-582q36 122 119 192t188 70q144 0 213.5 -79.5t69.5 -249.5v-308q0 -68 4.5 -99t16 -45t38.5 -21z" />
    <glyph glyph-name="i" unicode="i" horiz-adv-x="481" 
d="M217 1133q-49 -4 -69.5 40t0 87.5t69.5 37.5q37 0 59.5 -22t22.5 -59q0 -38 -22.5 -61t-59.5 -23zM111 -8q-15 0 -15 12q0 13 21 16q65 12 82 35q14 22 14 117v428q0 80 -16 102q-17 24 -95 39q-11 3 -15.5 9t0 11.5t15.5 6.5q54 4 95.5 18.5t61 27.5t20.5 13
q12 0 12 -14l-4 -45q-8 -57 -8 -164v-432q0 -95 14 -117q17 -23 82 -35q20 -3 20 -16q0 -12 -14 -12q-2 0 -9 0.5l-21 1.5t-29 2q-70 4 -80 4q-4 0 -74 -4q-14 -1 -27.5 -2t-20.5 -1.5t-9 -0.5z" />
    <glyph glyph-name="j" unicode="j" horiz-adv-x="473" 
d="M244 1124q-49 -4 -69.5 40.5t0 88t69.5 37.5q37 0 59.5 -22.5t22.5 -59.5q0 -38 -22.5 -61t-59.5 -23zM111 -440q-60 0 -107 33.5t-47 74.5q0 53 47 53q37 0 55 -59q21 -65 82 -65q95 0 95 133v133v729q0 69 -21 90q-25 25 -100 39q-36 8 -35 24q0 13 20 13q36 2 68.5 9
t55 16t39 17t25 13.5t9.5 5.5q16 0 16 -14l-4 -45q-8 -57 -8 -164v-801q0 -111 -50 -173t-140 -62z" />
    <glyph glyph-name="k" unicode="k" horiz-adv-x="915" 
d="M868 -8q-1 0 -6 0.5t-16 1.5t-25 2q-58 4 -67 4q-8 0 -70 -4l-26 -2t-19 -1.5t-8 -0.5q-15 0 -15 10q0 1 25 16.5t25 30.5q0 12 -32.5 67.5t-74.5 114.5q-70 109 -121 179q-23 36 -39 36q-10 0 -47 -34l-84 -78v-141q0 -117 2 -130q10 -25 64 -40q23 -7 20 -22
q-2 -9 -14 -9q-2 0 -7.5 0.5t-17 1.5t-22.5 2q-54 4 -62 4q-12 0 -34.5 -2t-40.5 -4l-17 -2q-13 0 -14 11q0 14 25 22q33 12 43 41q10 30 10 124v912q0 71 -9.5 92t-46.5 33q-28 8 -34.5 12t-6.5 14q0 12 21 15q36 5 68.5 20.5t49.5 28t19 12.5q17 0 17 -14
q-13 -80 -13 -168v-776l152 141l57 55l86 84q66 60 66 84q0 38 -39 47q-21 6 -21 21q0 10 15 10l45 -6q41 -8 71 -8q24 0 76 6q53 6 60 6q16 0 16 -14q0 -17 -33 -23q-68 -13 -117 -45q-48 -33 -147 -125l-98 -92q3 -5 43 -65t63 -93q55 -78 82 -123l55 -79q35 -47 51 -65.5
t33 -29.5q16 -10 51 -27q49 -23 50 -30q1 -6 -17 -8z" />
    <glyph glyph-name="l" unicode="l" horiz-adv-x="430" 
d="M106 -8q-13 0 -14 11q0 14 27 20q52 12 61 38q13 29 13 129v830q0 110 -14 151t-58 54q-57 14 -54 30q2 10 21 11q51 4 91 19.5t59.5 29.5t21.5 14q12 0 12 -12l-1 -7q-1 -7 -2.5 -20t-3 -31t-3 -42.5t-3 -52.5t-2.5 -63.5t-1 -72.5v-858q3 -89 14 -111q15 -24 62 -36
q20 -6 20 -17q0 -14 -14 -14q-2 0 -7.5 0.5t-17 1.5t-22.5 2q-54 4 -62 4q-13 0 -75 -4z" />
    <glyph glyph-name="m" unicode="m" horiz-adv-x="1507" 
d="M1393 25q25 -8 24 -22q-1 -11 -14 -11q-1 0 -5.5 0.5t-15 1.5t-22.5 2q-54 4 -64 4q-3 0 -57 -4q-12 -1 -22.5 -2t-15 -1.5t-5.5 -0.5q-14 0 -14 12q0 13 20 19q37 11 49.5 42.5t12.5 124.5v351q0 241 -183 241q-107 0 -184 -86q-86 -103 -98 -262v-244q0 -68 4.5 -99
t16 -45t38.5 -21q25 -8 24 -22q-1 -11 -14 -11q-1 0 -5.5 0.5t-15 1.5t-22.5 2q-54 4 -63 4q-3 0 -57 -4q-12 -1 -22.5 -2t-15 -1.5t-5.5 -0.5q-14 0 -14 12q0 13 20 19q37 11 49 42t12 125v351q0 241 -182 241q-108 0 -185 -86q-100 -112 -100 -317v-199q0 -92 13 -120
t61 -40q20 -6 20 -16q0 -12 -14 -12q-2 0 -7.5 0.5t-17 1.5t-22.5 2q-54 4 -62 4q-7 0 -61 -4q-11 -1 -20.5 -2t-13.5 -1.5t-5 -0.5q-14 0 -14 12q0 10 22 16q36 11 45 39q11 33 11 121v420q0 118 -76 133q-31 10 -31 19q0 11 25 14q38 5 70.5 20.5t49 28t19.5 12.5
q12 0 12 -14q-2 -11 -5 -31.5t-7 -95t-2 -160.5q26 139 108.5 220t192.5 81q229 0 244 -247h2q35 116 112 181.5t176 65.5q246 0 246 -288v-349q0 -97 10.5 -125.5t49.5 -39.5z" />
    <glyph glyph-name="n" unicode="n" horiz-adv-x="1026" 
d="M911 25q25 -8 25 -22q-1 -11 -14 -11q-1 0 -5.5 0.5t-15 1.5t-22.5 2q-54 4 -64 4q-3 0 -57 -4q-12 -1 -22.5 -2t-15 -1.5t-5.5 -0.5q-14 0 -14 12q0 13 20 19q26 8 39 21.5t19.5 47.5t6.5 98v310q0 282 -217 282q-131 0 -219 -108q-88 -107 -88 -295v-199q0 -92 13 -120
t61 -40q20 -6 20 -16q0 -12 -14 -12q-2 0 -7.5 0.5t-17 1.5t-22.5 2q-54 4 -62 4q-7 0 -61 -4q-11 -1 -20.5 -2t-13.5 -1.5t-5 -0.5q-14 0 -14 12q0 10 22 16q36 11 45 39q11 33 11 121v420q0 118 -76 133q-31 10 -31 19q0 11 25 14q38 5 70.5 20.5t49 28t19.5 12.5
q12 0 12 -14q-2 -11 -5 -32t-7 -96t-2 -163q29 140 115 222.5t202 82.5q144 0 213.5 -79.5t69.5 -249.5v-308q0 -68 4.5 -99t16 -45t38.5 -21z" />
    <glyph glyph-name="o" unicode="o" horiz-adv-x="952" 
d="M190 705q107 122 287 122q181 0 285 -122q106 -121 106 -308q0 -186 -106 -307t-285 -121q-178 0 -287 121q-104 122 -104 307q0 186 104 308zM248 100q82 -102 229 -102q149 0 228 102q81 103 81 297t-81 297q-79 105 -228 105q-147 0 -229 -105q-80 -106 -80 -297
t80 -297z" />
    <glyph glyph-name="p" unicode="p" horiz-adv-x="1003" 
d="M557 827q153 0 256 -112q105 -114 105 -305q0 -193 -107 -318q-108 -123 -254 -123q-221 0 -307 191v-393q0 -72 20 -102t74 -50q45 -14 43 -30q-1 -9 -14 -9q-12 0 -64 8q-59 6 -92 6q-31 0 -84 -6q-47 -8 -53 -8q-15 0 -14 11q0 15 36 28q51 21 68 47q14 22 14 105v655
q0 172 -14 213q-14 44 -78 78q-44 18 -47 23q-2 3 -2 7q0 15 18 15q54 0 97.5 15t66 30.5t25.5 15.5q14 0 14 -12q0 -1 -3 -13t-7 -33t-8 -47.5t-7 -60.5t-3 -67h2q85 241 319 241zM557 0q129 0 204 102t75 308q0 189 -78 289t-201 100q-147 0 -229 -107.5t-84 -294.5
q-1 -195 84.5 -296t228.5 -101z" />
    <glyph glyph-name="q" unicode="q" horiz-adv-x="983" 
d="M831 -254q0 -91 70 -131q29 -16 29 -27q0 -12 -15 -12q-8 0 -47 8q-44 6 -67 6q-14 0 -60 -4q-72 -10 -84 -10q-14 0 -14 12q0 10 37 31q47 23 65.5 51.5t16.5 75.5l-2 436h-6q-19 -99 -96 -156t-197 -57q-151 0 -264 119q-111 120 -111 307q0 191 109 312
q111 120 276 120q171 0 264 -112q21 -21 25 -21q11 0 26 54l21 65q6 14 16 14q15 0 15 -16q0 -1 -0.5 -14.5t-2 -39t-2.5 -59.5t-1.5 -85t-0.5 -107v-760zM473 799q-128 0 -217 -92q-88 -91 -88 -312q0 -195 83 -296t222 -101q136 0 212.5 99.5t76.5 291.5v31
q0 379 -289 379z" />
    <glyph glyph-name="r" unicode="r" horiz-adv-x="700" 
d="M537 825q61 0 95 -25t34 -67q0 -67 -58 -67q-41 0 -65 53q-21 55 -66 55q-59 0 -119 -84q-60 -85 -63 -215v-330q0 -61 24 -84t109 -43q14 -3 14 -14q0 -14 -16 -14q-1 0 -9 0.5t-24.5 1.5t-34.5 2q-78 4 -92 4t-88 -4q-16 -1 -30.5 -2t-21 -1.5t-7.5 -0.5q-15 0 -15 14
q0 9 23 16q69 17 85.5 38t16.5 87v465q0 51 -23 76.5t-79 36.5q-37 3 -37 18q0 12 25 15q53 5 93 20.5t58.5 28t20.5 12.5q12 0 12 -14q-2 -14 -5 -38t-7 -85t-2 -105q23 116 91.5 183t160.5 67z" />
    <glyph glyph-name="s" unicode="s" horiz-adv-x="825" 
d="M444 -31q-73 0 -157 35l-86 33q-17 0 -24 -8t-15 -33q-6 -19 -17 -19q-14 0 -14 19v7q0 7 0.5 17.5t1 22.5t0.5 25v22q0 52 -12 125q-3 21 -5.5 40.5t-3.5 28t-1 9.5q0 14 12 14q14 0 20 -20q89 -287 312 -287q96 0 156.5 50.5t60.5 139.5q0 139 -166 179l-146 34
q-118 27 -172.5 74.5t-54.5 134.5q0 92 74 153.5t190 61.5q86 0 158 -34q78 -35 80 -35q19 0 22 47q3 18 15 18q14 0 14 -20q0 -111 14 -207l5 -31q0 -12 -13 -12q-9 0 -18 18q-44 124 -108.5 176t-174.5 52q-86 0 -140 -47.5t-54 -116.5q0 -66 48.5 -107.5t151.5 -66.5
l138 -31q204 -46 204 -227q0 -102 -83.5 -168t-211.5 -66z" />
    <glyph glyph-name="t" unicode="t" horiz-adv-x="616" 
d="M375 -31q-164 0 -164 185v536q0 41 -9.5 52t-47.5 12l-82 4q-25 0 -25 22q0 19 25 19q12 1 36.5 2t31 2t21 4.5t20 10.5t13 18.5t13.5 29.5q14 74 24 230q3 30 27 30q23 0 23 -28l-2 -283q0 -14 12 -14l213 2q31 0 31 -29t-27 -29q-2 0 -41 1.5t-82 1.5q-35 2 -94 2
q-15 0 -15 -17v-577q0 -71 27 -103.5t84 -32.5q118 0 121 130q0 20 14 20q17 0 17 -23q0 -77 -45 -127.5t-119 -50.5z" />
    <glyph glyph-name="u" unicode="u" horiz-adv-x="972" 
d="M897 45q27 -6 27 -16q0 -12 -23 -15q-34 -4 -61.5 -12.5t-41 -15t-14.5 -6.5q-16 0 -16 14q-9 38 -12 239h-2q-31 -124 -115 -194t-207 -70q-268 0 -268 322v280q0 91 -11.5 123t-50.5 51q-24 8 -31.5 13t-7.5 14q0 12 21 12q18 0 39.5 3.5t38.5 9t31.5 10.5t22.5 9l9 3
q17 0 17 -18q-13 -56 -13 -230v-270q0 -287 226 -287q128 0 207 101q81 100 81 264v2q0 149 -2 204t-12 93q-7 39 -17 48.5t-42 16.5q-40 15 -43 27q0 14 20 14q32 0 60 3.5t46 9t31 10.5t20.5 8.5t8.5 3.5q12 0 12 -12l-8 -33q-8 -31 -8 -74v-534q0 -58 20 -83t68 -38z" />
    <glyph glyph-name="v" unicode="v" horiz-adv-x="925" 
d="M481 -18q-12 0 -26 36l-299 672q-17 35 -38 51t-63 27q-25 8 -25 23q1 14 21 14l47 -2q62 -4 72 -4q37 0 70 2t57 2q20 0 20 -15q0 -9 -26 -18q-31 -8 -41 -17t-10 -32q0 -28 28 -107q10 -26 195 -460q35 -78 37 -78t51 117q60 142 151 376q33 88 33 131q0 47 -53 68
q-35 15 -35 27q0 14 17 14l45 -6q62 -4 75 -4q14 0 38.5 2t44.5 4t22 2q20 0 20 -12q0 -3 -1.5 -6t-4.5 -5.5t-5.5 -4.5t-8.5 -4t-10 -3.5t-11.5 -3.5t-11.5 -4q-46 -20 -82 -105l-266 -639q-17 -35 -27 -38z" />
    <glyph glyph-name="w" unicode="w" horiz-adv-x="1343" 
d="M418 -33q-6 0 -15 25l-262 696q-13 38 -27.5 54.5t-41.5 27.5q-37 16 -41 25q0 14 16 14l49 -6q66 -4 78 -4q6 0 68 4l26 2t19 1.5t8 0.5q16 0 16 -14q0 -11 -22 -17q-37 -7 -51.5 -21.5t-14.5 -41.5q0 -51 195 -580l16 -43l4 8l11 31l167 520q22 62 20 86t-38 43
q-25 12 -25 19q0 12 17 12l6 -1q7 -1 17 -2.5t21 -3t24.5 -2.5t23.5 -1q13 0 59 4l33 4q14 0 14 -10q0 -6 -24 -21q-29 -16 -29 -39q0 -32 80 -248l59 -159l68 -187q2 -7 5.5 -15.5t5 -12.5t1.5 -6l2 -3q2 0 17 37l141 400q29 89 29 143q0 77 -62 92q-27 8 -25 21q1 8 11 8
q2 0 7.5 -0.5t18 -1.5t25.5 -2q62 -4 76 -4q37 0 55 2q15 1 29.5 2.5t22.5 2.5l8 1q18 0 18 -10q0 -16 -16 -19q-91 -22 -109 -63q-7 -12 -24 -64l-222 -651q-8 -23 -13 -29t-10 0t-13 29q-33 87 -248 676q-4 16 -7 21t-6.5 0t-7.5 -21l-219 -684q-6 -25 -14 -25z" />
    <glyph glyph-name="x" unicode="x" horiz-adv-x="964" 
d="M877 33l26 -10q37 -15 37 -23q0 -14 -14 -14l-30 4q-30 3 -70 6.5t-64 3.5q-16 0 -38.5 -1.5t-43.5 -3.5t-39.5 -4t-30.5 -3l-12 -2q-14 0 -14 12q0 16 41 25q73 18 73 51q0 23 -26 59l-123 154q-12 15 -42.5 51t-41.5 51l-168 -215q-57 -72 -57 -98q0 -41 88 -56
q31 -5 31 -20q0 -12 -19 -12q-4 0 -66 6q-61 6 -98 6q-36 0 -92 -6t-57 -6q-20 0 -20.5 14t18.5 18q98 22 168 86q67 59 258 304q-184 228 -244 288q-65 65 -131 80q-25 6 -25 19q0 14 19 14q4 0 53 -6q52 -6 88 -6q25 0 57 3t51 6l19 3q14 0 14 -12q0 -19 -39 -33
q-26 -12 -26 -31q0 -38 180 -248l25 -30l137 168q49 58 49 88q0 24 -16 37t-56 26q-24 9 -24 21q0 14 18 14q2 0 55 -6q55 -6 93 -6q24 0 57 3t56.5 6t25.5 3q14 0 14 -12q0 -16 -22 -19q-44 -11 -78 -32q-32 -19 -103 -93q-55 -55 -190 -217q0 -1 4 -5t4 -5
q283 -339 315 -367q15 -15 46 -28z" />
    <glyph glyph-name="y" unicode="y" horiz-adv-x="921" 
d="M117 -262q20 0 61 -41q40 -43 66 -43q35 0 106 129q74 130 74 180q0 53 -287 721q-21 43 -38 60.5t-52 27.5q-43 12 -41 29q2 11 19 12q11 0 55 -8q52 -6 70 -6q22 0 65 6q47 6 53 6q17 0 17 -14q0 -16 -35 -25q-37 -6 -37 -49q0 -41 106 -297q102 -247 156 -365l4 -4
l4 4q18 49 76 177q64 138 125 294q57 137 57 183q0 27 -16.5 40t-65.5 23q-13 3 -18 11t-0.5 15t16.5 7l43 -6q44 -6 72 -6q30 0 74 6t45 6q13 0 14 -12q2 -15 -20 -21h-2q-38 -8 -61 -32.5t-52 -90.5l-324 -743q-71 -172 -138 -255t-154 -83q-111 0 -111 86q0 36 21 57
t53 21z" />
    <glyph glyph-name="z" unicode="z" horiz-adv-x="884" 
d="M98 -6q-16 0 -16 12q0 6 45 66l299 377q64 82 178 219q76 91 76 100q0 10 -141 10q-256 0 -301 -45q-41 -41 -84 -196q-9 -21 -23 -21q-18 0 -18 16q30 109 30 164q0 26 -2.5 50.5t-5 39t-2.5 15.5q0 12 17 12q8 0 37.5 -0.5l88.5 -1.5t121 -2q145 -2 305 -2q15 0 29 0.5
t23 1.5t16 2t10 1l4 1q17 0 17 -12q0 -5 -58 -78l-254 -307q-299 -367 -299 -381q0 -15 129 -15q288 0 359 56q52 43 92 205q3 14 18 14t15 -12l-3 -16q-3 -16 -7.5 -42t-9.5 -55t-8 -61t-3 -56v-45q0 -12 -16 -12h-428h-150z" />
    <glyph glyph-name="braceleft" unicode="{" horiz-adv-x="815" 
d="M635 -383q22 0 22 -18q0 -21 -47 -21q-127 0 -205.5 91.5t-78.5 248.5v500q0 131 -164 131q-15 0 -21 9.5t0 18.5t21 9q164 0 164 131v500q0 157 78.5 248t205.5 91q47 0 47 -20q0 -18 -22 -18q-107 0 -173.5 -74t-66.5 -215v-406q0 -246 -123 -252v-8q123 -6 123 -252
v-405q0 -141 66.5 -215t173.5 -74z" />
    <glyph glyph-name="bar" unicode="|" horiz-adv-x="622" 
d="M287 -264v1710q0 17 24.5 17t24.5 -17v-1710q0 -17 -24.5 -17t-24.5 17z" />
    <glyph glyph-name="braceright" unicode="}" horiz-adv-x="815" 
d="M653 586q15 0 21 -9t0 -18.5t-21 -9.5q-164 0 -164 -131v-500q0 -157 -78.5 -248.5t-205.5 -91.5q-47 0 -47 21q0 18 22 18q107 0 173.5 74t66.5 215v405q0 246 123 252v8q-123 6 -123 252v406q0 141 -66.5 215t-173.5 74q-22 0 -22 18q0 20 47 20q127 0 205.5 -91
t78.5 -248v-500q0 -131 164 -131z" />
    <glyph glyph-name="asciitilde" unicode="~" horiz-adv-x="1146" 
d="M199 297q-15 0 -15 20q6 115 54 186.5t131 71.5q75 0 221 -94q151 -92 196 -92q63 0 101.5 49t38.5 115q0 20 18 20q17 0 17 -18q0 -110 -45.5 -178t-137.5 -68q-65 0 -213 92q-145 95 -205 95q-120 0 -141 -179q-3 -20 -20 -20z" />
    <glyph glyph-name="exclamdown" unicode="&#xa1;" horiz-adv-x="407" 
d="M203 1026q-57 -6 -80.5 45t0 102.5t80.5 45.5q42 0 68 -27t26 -70q0 -44 -25.5 -70t-68.5 -26zM184 903h37q3 -248 12 -465q12 -224 21 -342q10 -137 10 -145q0 -66 -61 -66q-62 0 -62 66q0 11 4 68.5t11.5 174.5t13.5 244q11 194 14 465z" />
    <glyph glyph-name="cent" unicode="&#xa2;" horiz-adv-x="888" 
d="M829 244q-21 -115 -99 -188t-212 -85v-247q0 -17 -24.5 -17t-24.5 17v245q-170 3 -276 121q-107 119 -107 307q0 196 119 312q118 118 272 118h2v238q0 17 24.5 17t24.5 -17v-240q40 -4 86.5 -16t76 -22.5t32.5 -10.5q25 0 37 35q6 16 18 16q15 0 15 -18q0 -43 2.5 -88
t5.5 -78t6 -59.5t5.5 -40.5t2.5 -13q0 -16 -16 -16q-13 0 -19 21q-38 147 -107.5 205.5t-199.5 58.5q-103 0 -199 -78q-51 -42 -81.5 -126t-30.5 -192q0 -182 94 -286q94 -105 229 -105q245 0 316 232q6 16 16 16q12 0 12 -12v-4z" />
    <glyph glyph-name="sterling" unicode="&#xa3;" horiz-adv-x="1077" 
d="M961 180q0 -111 -39.5 -161t-122.5 -50q-60 0 -203 33t-205 33q-69 0 -151 -31q-79 -31 -84 -31q-27 0 -27 27q0 2 13 19t32 46t37.5 66.5t31.5 90.5t13 108q0 63 -25 213h-122q-17 0 -17 24.5t17 24.5h116q-14 85 -14 188q0 184 106 287q107 104 269 104q143 0 231 -67
q92 -68 92 -156q0 -52 -26.5 -79t-69.5 -27q-36 0 -58 20.5t-22 55.5q0 23 29 55q31 36 31 59q0 45 -58 75t-145 30q-136 0 -217.5 -78t-81.5 -215q0 -120 18 -252h414q17 0 17 -24.5t-17 -24.5h-408q19 -127 19 -183q0 -217 -178 -358l6 -4l17 12q17 11 35.5 22.5t47.5 27
t57 26.5q64 23 130 23q37 0 192 -31q158 -31 178 -31q55 0 80 28t31 99q1 20 17 20q13 -2 14 -14z" />
    <glyph glyph-name="currency" unicode="&#xa4;" horiz-adv-x="1073" 
d="M774 281l139 -142q14 -5 0 -23q-10 -13 -22 -16q-6 0 -10 4l-144 144q-82 -64 -202 -64q-117 0 -199 64l-143 -142q-5 -14 -23 0q-13 10 -16 23q0 6 4 10l143 144q-72 78 -72 196q0 123 74 203l-145 145q-4 4 -4 11q0 8 9 18t19 10q7 0 11 -4l145 -145q82 61 197 61
q121 0 200 -61l146 145q4 4 10 4q8 0 18.5 -9t10.5 -19q0 -6 -5 -11l-143 -143q72 -84 72 -205q0 -119 -70 -198zM535 229q113 0 180 67.5t67 182.5q0 119 -65 186.5t-182 67.5q-110 0 -177 -69.5t-67 -184.5q0 -113 67 -181.5t177 -68.5z" />
    <glyph glyph-name="yen" unicode="&#xa5;" horiz-adv-x="1163" 
d="M1104 1153q18 0 18 -10q0 -12 -26 -21q-60 -14 -92 -39q-26 -20 -78 -102l-293 -461h297q17 0 17 -24.5t-17 -24.5h-316v-100h316q17 0 17 -24.5t-17 -24.5h-316q7 -194 15 -230.5t49 -57.5q10 -6 16 -9q41 -18 39 -30q-1 -7 -14 -7l-57 6q-58 6 -78 6q-22 0 -84 -6
q-59 -6 -62 -6q-14 0 -14 10q0 12 41 27q51 15 63 67q14 49 17 230h-332q-17 0 -17 24.5t17 24.5h332v67q0 17 -4 33h-328q-17 0 -17 24.5t17 24.5h305q-25 54 -211 346q-95 151 -141 197q-41 44 -107 59q-26 6 -26 19q0 14 18 14q6 0 55 -6q52 -6 84 -6q34 0 93 6t61 6
q15 0 14 -10q0 -11 -28 -21q-43 -15 -43 -41q0 -18 16 -61q12 -31 84 -160q89 -151 207 -340l176 283q111 175 111 239q0 67 -88 82q-21 3 -21 17q0 10 16 10q6 0 64 -6q78 -4 92 -4z" />
    <glyph glyph-name="brokenbar" unicode="&#xa6;" horiz-adv-x="622" 
d="M287 750v696q0 17 24.5 17t24.5 -17v-696q0 -17 -24.5 -17t-24.5 17zM287 -264v696q0 17 24.5 17t24.5 -17v-696q0 -17 -24.5 -17t-24.5 17z" />
    <glyph glyph-name="section" unicode="&#xa7;" horiz-adv-x="942" 
d="M643 356q113 -43 158 -88t45 -127q0 -134 -107 -204q-110 -72 -258 -72q-156 0 -248 74q-92 71 -92 170q0 48 23.5 73t60.5 25q32 0 53 -18.5t21 -47.5q0 -20 -29 -57q-28 -36 -28 -59q0 -55 67 -93t170 -38q131 0 218 61.5t87 159.5q0 75 -53.5 120.5t-175.5 83.5
l-147 48q-120 38 -176 89t-56 130q0 83 57 136t156 71q-190 82 -190 249q0 122 91.5 195.5t231.5 73.5q129 0 215 -62t86 -143q0 -43 -23.5 -69.5t-60.5 -26.5q-32 0 -52.5 18t-20.5 45q0 24 28 60q29 37 29 55q0 40 -60.5 67t-142.5 27q-116 0 -188 -61.5t-72 -163.5
q0 -84 50 -136t153 -85l147 -50q123 -40 177.5 -88t54.5 -131t-53 -137.5t-146 -73.5zM233 604q0 -68 49.5 -107.5t159.5 -74.5l129 -41q102 6 157.5 50t55.5 118q0 69 -47.5 106.5t-163.5 75.5l-110 37q-110 -4 -170 -47t-60 -117z" />
    <glyph glyph-name="dieresis" unicode="&#xa8;" horiz-adv-x="819" 
d="M225 1202q23 23 58 23t55 -23q23 -20 23 -54.5t-23 -57.5q-20 -20 -55 -20t-58 20q-20 23 -20 57.5t20 54.5zM477 1202q23 23 58 23t55 -23q23 -20 23 -54.5t-23 -57.5q-20 -20 -55 -20t-58 20q-20 23 -20 57.5t20 54.5z" />
    <glyph glyph-name="copyright" unicode="&#xa9;" horiz-adv-x="1523" 
d="M762 1305q277 0 467 -193q192 -192 192 -469t-190 -467t-469 -190t-469 190q-191 194 -191 469q0 276 191 467q190 193 469 193zM330 209q174 -180 432 -180q256 0 430 180q176 182 176 436t-176 436q-175 181 -430 181q-257 0 -432 -181q-174 -180 -174 -436t174 -436z
M1055 606q0 -2 -1 -12t-2.5 -31.5t-3.5 -52.5t-3 -84.5t-1 -118.5q0 -14 -14 -14q-18 0 -18 18q-3 64 -29 64q-2 0 -36.5 -21t-90 -42t-108.5 -21q-135 0 -234 108q-96 110 -96 265q0 150 96 260q99 108 231 108q74 0 142 -26q73 -25 76 -25q25 0 28 33q3 18 19 18
q12 0 12 -12q0 -25 3 -65.5t7 -80.5t8.5 -76.5t7.5 -60t3 -24.5q0 -12 -14.5 -12t-16.5 12l-12 49q-30 124 -91 183t-165 59q-116 0 -186 -85t-70 -255q0 -180 77 -263q76 -82 179 -82q209 0 256 213l16 72q1 8 8.5 12t15 1t7.5 -11z" />
    <glyph glyph-name="ordfeminine" unicode="&#xaa;" horiz-adv-x="716" 
d="M209 1044q70 31 244 48v4q0 99 -36 140.5t-108 41.5q-94 0 -94 -41q0 -7 5 -25t5 -26q0 -33 -41 -33t-41 43q0 46 48 78.5t124 32.5q99 0 151 -49t52 -162v-187q0 -53 31 -53q39 0 39 47q0 7 5 9.5t10 0t5 -9.5q0 -72 -73 -72q-82 0 -82 93v4q-48 -97 -174 -97
q-144 0 -144 109q0 69 74 104zM297 860q65 0 110.5 45t45.5 115v51l-13 -2q-143 -14 -196 -45q-31 -19 -31 -78q0 -86 84 -86zM590 629q17 0 17 -24.5t-17 -24.5h-465q-17 0 -17 24.5t17 24.5h465z" />
    <glyph glyph-name="guillemotleft" unicode="&#xab;" horiz-adv-x="954" 
d="M504 74q-15 0 -55 37l-277 243q-43 38 -50 49q-7 13 -11 43q0 41 61 93l277 243q40 37 55 37q16 0 16 -14q0 -16 -35 -51l-303 -308l303 -307q35 -35 35 -49q0 -16 -16 -16zM829 74q-15 0 -55 37l-276 243q-43 38 -50 48q-8 14 -12 44q0 40 62 93l276 243q40 37 55 37
q17 0 17 -14q0 -16 -35 -51l-303 -308l303 -307q35 -35 35 -49q0 -16 -17 -16z" />
    <glyph glyph-name="logicalnot" unicode="&#xac;" horiz-adv-x="1146" 
d="M903 588q29 0 29 -27v-256q0 -17 -24.5 -17t-24.5 17v234h-652q-17 0 -17 24.5t17 24.5h672z" />
    <glyph glyph-name="uni00AD" unicode="&#xad;" horiz-adv-x="679" 
d="M137 461q39 0 86 -2t107 -2q68 0 121 2q55 2 96 2q24 0 24 -31t-26 -31h-105q-47 2 -104 2l-199 -2q-26 0 -26 29q0 33 26 33z" />
    <glyph glyph-name="registered" unicode="&#xae;" horiz-adv-x="1523" 
d="M762 1305q277 0 467 -193q192 -192 192 -469t-190 -467t-469 -190t-469 190q-191 194 -191 469q0 276 191 467q190 193 469 193zM330 209q174 -180 432 -180q256 0 430 180q176 182 176 436t-176 436q-175 181 -430 181q-257 0 -432 -181q-174 -180 -174 -436t174 -436z
M1104 387q0 -51 -33 -84t-86 -33q-63 0 -188 82q-128 84 -170 84q-13 0 -13 -20q3 -87 41 -101q31 -15 31 -22q0 -10 -10 -10l-8 1q-8 1 -20 2t-25 2t-27 2t-23 1q-14 0 -35 -2t-37 -4l-16 -2q-13 0 -10 11q3 10 21 19q30 12 39 52q8 41 8 290q0 228 -8 275q-6 53 -39 67
q-21 9 -21 17q0 12 12 12l37 -4q38 -4 54 -4q1 0 71 4q53 6 88 6q142 0 230 -81.5t88 -211.5q0 -133 -92 -213q-93 -78 -228 -78q-15 0 -53 3.5t-43 3.5v-2q46 -6 164 -52q116 -45 182 -45q84 0 90 90q0 9 8 9q21 0 21 -64zM631 977q-21 -27 -21 -260q0 -187 2 -203
q0 -49 66 -49q154 0 226.5 65t72.5 205q0 264 -238 264q-86 0 -108 -22z" />
    <glyph glyph-name="overscore" unicode="&#xaf;" horiz-adv-x="819" 
d="M221 1149q33 0 76 -2q45 -2 100 -2q66 0 117 2t90 2q25 0 25 -19q0 -40 -31 -40q-55 0 -98 2t-94 2q-54 0 -103 -2q-47 -2 -90 -2q-25 0 -25 20q0 39 33 39z" />
    <glyph glyph-name="degree" unicode="&#xb0;" horiz-adv-x="616" 
d="M307 1311q94 0 151.5 -55t57.5 -146q0 -88 -58.5 -143.5t-150.5 -55.5t-149.5 54.5t-57.5 144.5t58 145.5t149 55.5zM307 1268q-68 0 -108.5 -43t-40.5 -115q0 -69 41 -112.5t108 -43.5q69 0 110.5 42t41.5 114q0 74 -40 116t-112 42z" />
    <glyph glyph-name="plusminus" unicode="&#xb1;" horiz-adv-x="1146" 
d="M911 649q17 0 17 -24.5t-17 -24.5h-313v-313q0 -17 -24.5 -17t-24.5 17v313h-313q-17 0 -17 24.5t17 24.5h313v314q0 17 24.5 17t24.5 -17v-314h313zM870 121q17 0 17 -24.5t-17 -24.5h-594q-17 0 -17 24.5t17 24.5h594z" />
    <glyph glyph-name="uni00B2" unicode="&#xb2;" horiz-adv-x="794" 
d="M762 950q0 -30 -10 -88q-18 -117 -136 -117q-40 0 -194 54q-151 53 -197 53q-57 0 -57 -57q0 -4 2 -17t2 -18q0 -23 -27 -23q-32 0 -32 78q0 124 66.5 199.5t217.5 134.5q120 44 166.5 91.5t46.5 123.5q0 170 -217 170q-69 0 -120.5 -26.5t-51.5 -61.5q0 -13 16.5 -41
t16.5 -39q0 -53 -59 -53q-30 0 -49 19.5t-19 53.5q0 66 82 121q83 56 192 56q122 0 205 -56q84 -53 84 -141q0 -156 -268 -248q-279 -94 -279 -280v-33q1 38 29 61t72 23q61 0 200 -39q145 -37 187 -37q45 0 70.5 29.5t35.5 99.5q5 20 17 19q7 -3 8 -11z" />
    <glyph glyph-name="uni00B3" unicode="&#xb3;" horiz-adv-x="782" 
d="M434 1178q145 -6 227 -63.5t82 -149.5q0 -91 -92 -162q-88 -70 -231 -70q-130 0 -211.5 52t-81.5 126q0 36 20.5 57t53.5 21q57 0 57 -45q0 -15 -23.5 -48t-23.5 -50q0 -32 58 -58t145 -26q104 0 174.5 54t70.5 147q0 94 -68.5 144t-197.5 50h-38.5t-34 -0.5t-26 -1
t-18.5 -0.5h-8q-28 0 -28 25q0 20 28 20q1 0 20 -0.5t45.5 -1t47.5 -0.5q103 0 168 46t65 130q0 160 -206 160q-76 0 -120 -18.5t-44 -45.5q0 -7 14 -30t14 -35q0 -24 -17 -37.5t-44 -13.5q-30 0 -49 18.5t-19 48.5q0 58 79 100t190 42q125 0 203.5 -52.5t78.5 -136.5
q0 -80 -71 -132t-189 -64z" />
    <glyph glyph-name="acute" unicode="&#xb4;" horiz-adv-x="819" 
d="M219 924q-9 -3 -12 6l4 12q13 13 36 37t42.5 44.5t36.5 39.5l90 94l57 60q55 55 72 57q51 9 65 -41q9 -33 -45 -74q-188 -137 -338 -231z" />
    <glyph glyph-name="uni00B5" unicode="&#xb5;" horiz-adv-x="993" 
d="M897 45q27 -3 27 -16q0 -12 -23 -15q-33 -4 -68 -12.5t-56 -15t-23 -6.5q-13 0 -13 14l1 6q1 5 2.5 14.5t3.5 24.5t3.5 34t3 43.5t2 53.5t-0.5 63h-4q-29 -116 -107 -181.5t-190 -65.5q-169 0 -236 143v-174q0 -94 6 -205q8 -101 8 -125q0 -35 -47 -35q-43 0 -43 37
q19 227 19 664v280q1 90 -10 122.5t-50 51.5q-24 8 -31.5 13t-7.5 14q0 12 21 12q18 0 39.5 3.5t38.5 9t31.5 10.5t22.5 9l9 3q17 0 17 -18q-13 -56 -13 -230v-233q-12 -307 226 -307q123 0 202.5 90.5t85.5 238.5q0 166 -2 207q-3 60 -12 107q-7 42 -17 52t-42 17
q-40 15 -43 27q0 14 20 14q32 0 60 3.5t46 9t31 10.5t20.5 8.5t8.5 3.5q12 0 12 -12l-8 -33q-8 -31 -8 -74v-534q0 -59 21.5 -86t66.5 -35z" />
    <glyph glyph-name="paragraph" unicode="&#xb6;" horiz-adv-x="993" 
d="M555 -182q97 35 131.5 96t34.5 188v1196q23 0 68 6l45 7q16 0 16 -17q0 -2 -16 -23t-32 -56.5t-16 -71.5v-1002q0 -135 -49.5 -209t-181.5 -114zM422 -190q-108 0 -176 53.5t-68 130.5q0 42 23.5 69t56.5 27q61 0 61 -53q0 -17 -22.5 -56.5t-22.5 -52.5q0 -36 42.5 -63
t103.5 -27q75 0 120.5 49.5t45.5 141.5l2 555q0 12 -10 12l-9 -4q-9 -3 -23.5 -7.5t-33 -9.5t-43 -8.5t-47.5 -3.5q-142 0 -232 102t-90 271q0 173 92 273t252 100q46 0 113 -6q20 -1 40.5 -2t33 -2t18.5 -1v-1232q0 -256 -227 -256z" />
    <glyph glyph-name="middot" unicode="&#xb7;" horiz-adv-x="616" 
d="M203 684q43 0 68.5 -26t25.5 -70q0 -43 -25.5 -69.5t-68.5 -26.5q-57 -6 -80.5 45t0 102t80.5 45z" />
    <glyph glyph-name="cedilla" unicode="&#xb8;" horiz-adv-x="819" 
d="M399 -365q-39 0 -69 10.5t-42 20.5t-12 15q0 12 13 12l5 -3q6 -3 15 -6.5t20 -7.5t25.5 -7t28.5 -3q43 0 68.5 22.5t25.5 59.5q0 42 -28.5 64.5t-96.5 40.5q-12 3 -12 16q0 6 4 22l25 101h39l-23 -105q156 -30 156 -131q0 -54 -41.5 -87.5t-100.5 -33.5z" />
    <glyph glyph-name="uni00B9" unicode="&#xb9;" horiz-adv-x="555" 
d="M328 1563q10 0 10 -9v-4q-1 -4 -1 -12t-1 -19t-1.5 -25t-1 -29t-1.5 -32t-1 -34t-0.5 -34.5t-0.5 -33.5v-409q0 -89 20 -115q21 -27 111 -39q26 -3 26 -16q0 -9 -10 -9l-71 7q-98 4 -119 4q-18 0 -43.5 -1t-50 -3t-46 -3.5t-35.5 -2.5l-14 -1q-10 0 -10 9q0 13 18 16
q108 15 132 39t24 104v441q0 69 -29 92q-28 22 -139 22q-16 0 -16 15q0 12 14 12q73 2 128.5 19.5t81.5 33.5z" />
    <glyph glyph-name="ordmasculine" unicode="&#xba;" horiz-adv-x="636" 
d="M152 1239q66 72 157.5 72t157.5 -72q65 -71 65 -172t-65 -172q-66 -72 -157.5 -72t-157.5 72t-66 172t66 172zM164 1067q0 -215 145 -215q146 0 146 215t-146 215q-145 0 -145 -215zM104 629h431q17 0 17 -24.5t-17 -24.5h-431q-17 0 -17 24.5t17 24.5z" />
    <glyph glyph-name="guillemotright" unicode="&#xbb;" horiz-adv-x="954" 
d="M127 74q-16 0 -16 16q0 15 34 49l304 307l-304 308q-34 34 -34 51q0 14 16 14q15 0 55 -37l275 -243q4 -3 14 -11.5t12.5 -11t9.5 -9t9 -9t6.5 -8.5t5.5 -9.5t3 -9.5t2.5 -12t0.5 -13q0 -33 -26 -59l-37 -33l-275 -243q-40 -37 -55 -37zM453 74q-17 0 -17 16q0 14 35 49
l303 307l-303 308q-35 35 -35 51q0 14 17 14q15 0 55 -37l274 -243q5 -4 15.5 -13t13.5 -12t10.5 -10t9.5 -10t6.5 -9.5t5.5 -11.5t2 -12t1 -15q0 -32 -27 -59l-37 -33l-274 -243q-40 -37 -55 -37z" />
    <glyph glyph-name="onequarter" unicode="&#xbc;" horiz-adv-x="1708" 
d="M1161 1378q0 -7 -6 -22l-674 -1438q-9 -20 -32 -20q-15 0 -15 14q0 6 6 18l676 1438q10 23 29 23q16 0 16 -13zM487 506q0 -8 -10 -8l-71 6q-98 4 -119 4q-18 0 -43.5 -1t-50 -2.5t-46 -3t-35.5 -2.5l-14 -1q-10 0 -10 8q0 13 18 16q108 15 132 39t24 105v440
q0 69 -29 92q-30 23 -139 23q-16 0 -16 14q0 12 14 12q73 2 128.5 19.5t81.5 33.5l26 17q10 0 10 -8q0 1 -1 -13t-2 -37.5t-2 -51.5t-2 -61.5t-1 -60.5v-409q0 -89 20 -115q21 -27 111 -39q26 -3 26 -16zM1602 203h-109v-70q0 -68 14 -87.5t74 -31.5q34 -8 33 -18
q-1 -6 -12 -6l-58 6q-90 7 -178 0l-53 -6q-12 0 -12 7q0 9 26 15q60 15 76 37q14 20 14 84v70h-28h-381q-23 0 -23 14q0 11 16 27l426 522q39 40 50 43q16 0 16 -16v-215v-332h109q26 0 26 -21q0 -22 -26 -22zM1389 246h28v461v2q-4 0 -18 -17l-367 -446h357z" />
    <glyph glyph-name="onehalf" unicode="&#xbd;" horiz-adv-x="1794" 
d="M1161 1378q0 -7 -6 -22l-674 -1438q-9 -20 -32 -20q-15 0 -15 14q0 6 6 18l676 1438q10 23 29 23q16 0 16 -13zM487 506q0 -8 -10 -8l-71 6q-98 4 -119 4q-18 0 -43.5 -1t-50 -2.5t-46 -3t-35.5 -2.5l-14 -1q-10 0 -10 8q0 13 18 16q108 15 132 39t24 105v440
q0 69 -29 92q-30 23 -139 23q-16 0 -16 14q0 12 14 12q73 2 128.5 19.5t81.5 33.5l26 17q10 0 10 -8q0 1 -1 -13t-2 -37.5t-2 -51.5t-2 -61.5t-1 -60.5v-409q0 -89 20 -115q21 -27 111 -39q26 -3 26 -16zM1733 207q10 0 10 -10q0 -30 -10 -88q-18 -117 -136 -117
q-43 0 -194 53t-197 53q-57 0 -57 -57q0 -4 2 -17t2 -18q0 -22 -27 -22q-32 0 -32 77q0 124 66.5 199.5t217.5 134.5q120 44 166.5 91.5t46.5 123.5q0 170 -217 170q-69 0 -120.5 -26.5t-51.5 -61.5q0 -13 16.5 -41t16.5 -39q0 -53 -59 -53q-30 0 -49 20t-19 54q0 66 82 121
t192 55q123 0 205 -55q84 -53 84 -142q0 -155 -268 -247q-279 -95 -279 -281v-33q1 38 29 61t72 23q63 0 202 -39q142 -37 185 -37q45 0 70.5 29.5t35.5 99.5q3 19 15 19z" />
    <glyph glyph-name="threequarters" unicode="&#xbe;" horiz-adv-x="1871" 
d="M1327 1378q0 -7 -6 -22l-674 -1438q-9 -20 -33 -20q-14 0 -14 14q0 6 6 18l676 1438q10 23 29 23q16 0 16 -13zM700 719q0 -91 -92 -162q-88 -70 -231 -70q-130 0 -211.5 52.5t-81.5 126.5q0 36 20.5 56.5t53.5 20.5q57 0 57 -45q0 -15 -23.5 -48t-23.5 -50q0 -32 58 -58
t145 -26q104 0 174.5 54t70.5 147q0 94 -68.5 144t-197.5 50h-38.5t-34 -0.5t-26 -1t-18.5 -0.5h-8q-28 0 -28 25q0 20 28 20q1 0 20 -0.5t45.5 -1t47.5 -0.5q103 0 168 46t65 130q0 160 -206 160q-76 0 -120 -18t-44 -45q0 -7 14 -30.5t14 -35.5q0 -24 -17 -37.5t-44 -13.5
q-30 0 -49 19t-19 49q0 57 78.5 99t190.5 42q125 0 203.5 -52.5t78.5 -136.5q0 -80 -71 -132t-189 -64q145 -6 227 -63.5t82 -149.5zM1767 203h-108v-70q0 -68 14 -87.5t74 -31.5q34 -8 32 -18q-1 -6 -12 -6l-55 6q-92 7 -180 0l-53 -6q-12 0 -12 7q0 9 26 15q60 15 76 37
q14 20 14 84v70h-29h-380q-23 0 -23 14q0 11 16 27l426 522q40 40 49 43q17 0 17 -16v-215v-332h108q27 0 27 -21q0 -22 -27 -22zM1554 246h29v461v2q-4 0 -18 -17l-367 -446h356z" />
    <glyph glyph-name="questiondown" unicode="&#xbf;" horiz-adv-x="991" 
d="M563 1026q-43 0 -68.5 26t-25.5 70q0 43 26 70t68 27q57 6 80.5 -45.5t0 -102.5t-80.5 -45zM588 840v-97q0 -101 -37.5 -156t-138.5 -91q-117 -42 -165 -107.5t-48 -191.5q0 -139 79.5 -211t217.5 -72q114 0 190 43q80 41 80 94q0 15 -22.5 52.5t-22.5 54.5
q0 34 20.5 53.5t53.5 19.5q37 0 62.5 -28t25.5 -72q0 -102 -113 -172q-115 -74 -276 -74q-163 0 -273 82t-110 223q0 244 266 332q97 35 131.5 80.5t34.5 136.5v101h45z" />
    <glyph glyph-name="Agrave" unicode="&#xc0;" horiz-adv-x="1304" 
d="M854 1415q-1 0 -3 0.5t-6.5 1.5t-8.5 2q-120 35 -381 129q-62 21 -62 60q0 25 15 40t36 15t52 -16q48 -25 94 -54q55 -30 158 -94l106 -61q8 -8 8 -13q0 -10 -8 -10zM944 -10q-22 0 -21 12q1 14 35 21q74 24 74 90q0 32 -92 282q-7 18 -27 21q-35 6 -319 6
q-223 0 -250 -6q-16 -3 -22 -21l-66 -178q-16 -53 -16 -84q0 -79 98 -113q31 -6 31 -18q0 -14 -19 -14q-2 0 -69 6q-65 6 -107 6q-34 0 -80 -6t-51 -6q-20 0 -20 14q0 12 30 21q67 22 90 55q22 32 82 170q149 372 332 885q25 73 25 75q0 26 -56 47q-22 6 -22 19q0 16 20 16
q30 0 57 4t45 10t31.5 11.5t20.5 9.5t8 4q16 0 16 -14q0 -3 -7 -15t-7 -18q0 -19 14 -57l392 -1032q36 -91 55 -119q23 -29 65 -41q56 -14 54 -32q-1 -11 -19 -11q-7 0 -63 6q-74 4 -86 4q-8 0 -90 -4q-58 -6 -66 -6zM604 453q215 0 293 10q14 0 14 8l-4 16l-278 734
q-3 7 -6 2l-273 -744q-2 -2 -2 -12q0 -5 8 -8q27 -6 248 -6z" />
    <glyph glyph-name="Aacute" unicode="&#xc1;" horiz-adv-x="1304" 
d="M426 1393q-8 0 -8 10q0 4 8 12l195 115q67 42 124 74q62 36 91 36q21 0 36 -15t15 -40q0 -38 -62 -59q-261 -94 -381 -129zM944 -10q-22 0 -21 12q1 14 35 21q74 24 74 90q0 32 -92 282q-7 18 -27 21q-35 6 -319 6q-223 0 -250 -6q-16 -3 -22 -21l-66 -178
q-16 -53 -16 -84q0 -79 98 -113q31 -6 31 -18q0 -14 -19 -14q-2 0 -69 6q-65 6 -107 6q-34 0 -80 -6t-51 -6q-20 0 -20 14q0 12 30 21q67 22 90 55q22 32 82 170q149 372 332 885q25 73 25 75q0 26 -56 47q-22 6 -22 19q0 16 20 16q30 0 57 4t45 10t31.5 11.5t20.5 9.5t8 4
q16 0 16 -14q0 -3 -7 -15t-7 -18q0 -19 14 -57l392 -1032q36 -91 55 -119q23 -29 65 -41q56 -14 54 -32q-1 -11 -19 -11q-7 0 -63 6q-74 4 -86 4q-8 0 -90 -4q-58 -6 -66 -6zM604 453q215 0 293 10q14 0 14 8l-4 16l-278 734q-3 7 -6 2l-273 -744q-2 -2 -2 -12q0 -5 8 -8
q27 -6 248 -6z" />
    <glyph glyph-name="Acircumflex" unicode="&#xc2;" horiz-adv-x="1304" 
d="M377 1415q-15 0 -15 15q0 11 95 100l82 74q5 5 16 16.5t16 16.5t14 12.5t14.5 11t13 6t14.5 2.5q13 0 29 -10t24 -18l31 -31q163 -150 178 -170q2 -4 2 -10q0 -15 -14 -15q-10 0 -74 45q-34 29 -174 123h-4q-68 -46 -135 -94t-74 -53q-30 -21 -39 -21zM944 -10
q-22 0 -21 12q1 14 35 21q74 24 74 90q0 32 -92 282q-7 18 -27 21q-35 6 -319 6q-223 0 -250 -6q-16 -3 -22 -21l-66 -178q-16 -53 -16 -84q0 -79 98 -113q31 -6 31 -18q0 -14 -19 -14q-2 0 -69 6q-65 6 -107 6q-34 0 -80 -6t-51 -6q-20 0 -20 14q0 12 30 21q67 22 90 55
q22 32 82 170q149 372 332 885q25 73 25 75q0 26 -56 47q-22 6 -22 19q0 16 20 16q30 0 57 4t45 10t31.5 11.5t20.5 9.5t8 4q16 0 16 -14q0 -3 -7 -15t-7 -18q0 -19 14 -57l392 -1032q36 -91 55 -119q23 -29 65 -41q56 -14 54 -32q-1 -11 -19 -11q-7 0 -63 6q-74 4 -86 4
q-8 0 -90 -4q-58 -6 -66 -6zM604 453q215 0 293 10q14 0 14 8l-4 16l-278 734q-3 7 -6 2l-273 -744q-2 -2 -2 -12q0 -5 8 -8q27 -6 248 -6z" />
    <glyph glyph-name="Atilde" unicode="&#xc3;" horiz-adv-x="1304" 
d="M395 1460q15 164 117 164q52 0 129 -47q82 -43 115 -43q64 3 73 61q3 21 15 21q16 0 16 -23q0 -56 -31.5 -94.5t-83.5 -38.5q-41 0 -124 45q-82 43 -113 43q-69 -3 -82 -86q-4 -19 -18 -20q-11 -2 -13 12v6zM944 -10q-22 0 -21 12q1 14 35 21q74 24 74 90q0 32 -92 282
q-7 18 -27 21q-35 6 -319 6q-223 0 -250 -6q-16 -3 -22 -21l-66 -178q-16 -53 -16 -84q0 -79 98 -113q31 -6 31 -18q0 -14 -19 -14q-2 0 -69 6q-65 6 -107 6q-34 0 -80 -6t-51 -6q-20 0 -20 14q0 12 30 21q67 22 90 55q22 32 82 170q149 372 332 885q25 73 25 75
q0 26 -56 47q-22 6 -22 19q0 16 20 16q30 0 57 4t45 10t31.5 11.5t20.5 9.5t8 4q16 0 16 -14q0 -3 -7 -15t-7 -18q0 -19 14 -57l392 -1032q36 -91 55 -119q23 -29 65 -41q56 -14 54 -32q-1 -11 -19 -11q-7 0 -63 6q-74 4 -86 4q-8 0 -90 -4q-58 -6 -66 -6zM604 453
q215 0 293 10q14 0 14 8l-4 16l-278 734q-3 7 -6 2l-273 -744q-2 -2 -2 -12q0 -5 8 -8q27 -6 248 -6z" />
    <glyph glyph-name="Adieresis" unicode="&#xc4;" horiz-adv-x="1304" 
d="M557 1417q-20 -20 -55 -20t-58 20q-20 23 -20 58t20 55q23 23 58 23t55 -23q23 -20 23 -55t-23 -58zM809 1417q-20 -20 -55 -20t-58 20q-20 23 -20 58t20 55q23 23 58 23t55 -23q23 -20 23 -55t-23 -58zM944 -10q-22 0 -21 12q1 14 35 21q74 24 74 90q0 32 -92 282
q-7 18 -27 21q-35 6 -319 6q-223 0 -250 -6q-16 -3 -22 -21l-66 -178q-16 -53 -16 -84q0 -79 98 -113q31 -6 31 -18q0 -14 -19 -14q-2 0 -69 6q-65 6 -107 6q-34 0 -80 -6t-51 -6q-20 0 -20 14q0 12 30 21q67 22 90 55q22 32 82 170q149 372 332 885q25 73 25 75
q0 26 -56 47q-22 6 -22 19q0 16 20 16q30 0 57 4t45 10t31.5 11.5t20.5 9.5t8 4q16 0 16 -14q0 -3 -7 -15t-7 -18q0 -19 14 -57l392 -1032q36 -91 55 -119q23 -29 65 -41q56 -14 54 -32q-1 -11 -19 -11q-7 0 -63 6q-74 4 -86 4q-8 0 -90 -4q-58 -6 -66 -6zM604 453
q215 0 293 10q14 0 14 8l-4 16l-278 734q-3 7 -6 2l-273 -744q-2 -2 -2 -12q0 -5 8 -8q27 -6 248 -6z" />
    <glyph glyph-name="Aring" unicode="&#xc5;" horiz-adv-x="1304" 
d="M627 1401q-63 0 -106.5 39.5t-43.5 99.5q0 61 42 100t108 39q67 0 108 -38.5t41 -100.5t-41 -100.5t-108 -38.5zM627 1427q88 0 88 113t-88 113q-41 0 -64.5 -29.5t-23.5 -83.5t23.5 -83.5t64.5 -29.5zM944 -10q-22 0 -21 12q1 14 35 21q74 24 74 90q0 32 -92 282
q-7 18 -27 21q-35 6 -319 6q-223 0 -250 -6q-16 -3 -22 -21l-66 -178q-16 -53 -16 -84q0 -79 98 -113q31 -6 31 -18q0 -14 -19 -14q-2 0 -69 6q-65 6 -107 6q-34 0 -80 -6t-51 -6q-20 0 -20 14q0 12 30 21q67 22 90 55q22 32 82 170q149 372 332 885q25 73 25 75
q0 26 -56 47q-22 6 -22 19q0 16 20 16q30 0 57 4t45 10t31.5 11.5t20.5 9.5t8 4q16 0 16 -14q0 -3 -7 -15t-7 -18q0 -19 14 -57l392 -1032q36 -91 55 -119q23 -29 65 -41q56 -14 54 -32q-1 -11 -19 -11q-7 0 -63 6q-74 4 -86 4q-8 0 -90 -4q-58 -6 -66 -6zM604 453
q215 0 293 10q14 0 14 8l-4 16l-278 734q-3 7 -6 2l-273 -744q-2 -2 -2 -12q0 -5 8 -8q27 -6 248 -6z" />
    <glyph glyph-name="AE" unicode="&#xc6;" horiz-adv-x="1513" 
d="M1417 102q0 -21 2 -39t5.5 -29.5t6.5 -19.5t5 -12l2 -4q0 -12 -15 -12q-5 0 -23 0.5t-55 1.5t-75 2q-90 2 -248 2q-92 0 -160 -2q-30 -1 -56 -2t-38 -2h-12q-19 0 -19 14q0 17 37 20q117 21 117 97q0 68 -53 295q-6 18 -25 18q-114 6 -219 6q-152 0 -172 -2
q-35 0 -47 -26q-115 -251 -115 -287q0 -74 123 -101q24 -4 25 -18q-1 -13 -19 -14q-3 0 -76 6q-71 6 -114 6q-39 0 -97 -6l-59 -6q-20 0 -20 14q0 15 20 18q77 15 115 56t114 196q357 729 416 873q12 27 12 43q0 23 -38 55q-31 28 -31 41q0 16 24 16q13 0 90 -6
q102 -4 140 -4q4 0 164 4l225 9q105 6 106 6q15 0 15 -13q0 -2 -4.5 -17.5t-9.5 -40t-5 -46.5q0 -78 19 -156q0 -16 -13 -17q-15 -1 -21 23q-1 1 -1 2q-1 1 -1.5 3.5t-1 6t-1.5 5.5q-42 132 -70 158q-44 44 -192 47h-64q-176 0 -221 -11q-27 -6 -34 -14t-7 -29
q0 -101 80 -475q6 -37 61 -37q154 0 195 35q39 33 51 168q3 17 19 17q10 0 10 -15q0 -2 -1 -23t-1.5 -47.5t-0.5 -68.5t1 -84q2 -56 6.5 -109.5t7.5 -82.5l4 -29q0 -15 -12 -15q-16 0 -19 17q-21 130 -63 166q-40 37 -197 37q-26 0 -34.5 -10t-4.5 -36q66 -328 111 -514
q11 -51 42 -67.5t122 -16.5q141 0 188 50t68 223q3 33 22 33q15 0 15 -17q-21 -131 -21 -207zM797 487q22 3 22 23q0 15 -2 25q-40 254 -100 550q-3 15 -8 15q-9 0 -15 -15l-129 -282l-135 -295q-6 -12 -6 -14q0 -6 22 -9q78 -4 168 -4q153 0 183 6z" />
    <glyph glyph-name="Ccedilla" unicode="&#xc7;" horiz-adv-x="1298" 
d="M1192 449q16 0 16 -15q0 2 -1 -27.5t-2 -79t-2 -107.5t-2 -123t-1 -115q0 -13 -12 -15t-19 19q-3 11 -4 28q-1 49 -8.5 64.5t-26.5 15.5q-11 0 -49 -17.5t-84 -39.5t-119.5 -42t-146.5 -24l-18 -84q155 -30 155 -131q0 -54 -41 -87.5t-100 -33.5q-39 0 -69 10.5t-42 20.5
t-12 15q0 12 12 12l6 -3q5 -3 14.5 -6.5t20.5 -7.5t25.5 -7t28.5 -3q43 0 68.5 22.5t25.5 59.5q0 42 -28.5 64.5t-96.5 40.5q-12 3 -12 16q0 6 4 22l18 78h-4q-252 0 -418 193t-166 481q0 287 170 481q171 195 422 195q88 0 178.5 -26.5t147.5 -52.5t63 -26q12 0 18.5 13
t10.5 53q6 38 24 39q13 -3 15 -19q0 -98 10 -221q7 -80 16 -146t14 -92l5 -26q0 -12 -12 -12q-20 0 -23 18l-14 56q-53 217 -162.5 315t-290.5 98q-188 0 -336 -137q-77 -71 -122.5 -204t-45.5 -306q0 -172 45 -304t123 -206q147 -135 328 -135q212 0 326 83.5t145 256.5
l14 90q6 21 21 21z" />
    <glyph glyph-name="Egrave" unicode="&#xc8;" horiz-adv-x="1114" 
d="M428 1548q-61 21 -61 60q0 25 15 40t36 15q20 0 51 -16q48 -25 94 -54q55 -30 158 -94l106 -61q9 -9 9 -13q0 -10 -9 -10q-1 0 -3 0.5t-6.5 1.5t-8.5 2q-120 35 -381 129zM1038 319l-6 -36q-16 -131 -16 -189q0 -14 3.5 -35t7 -36t3.5 -17q0 -12 -14 -12q-2 0 -32.5 0.5
t-83.5 1.5t-120.5 2t-160.5 1.5t-185 0.5q-218 0 -274 -6q-17 0 -17 12q0 3 0.5 4.5t2.5 3.5t4 3t6 2.5t7 2.5t9.5 3t11.5 4q49 15 64 55q24 62 24 430v131q0 469 -20 539q-12 52 -55 67l-13 4q-41 15 -41 29q0 12 17 12h8q9 -1 26.5 -2t38.5 -2q47 -2 117 -2q136 0 324 2
t223 2q20 0 50 1q42 1 49.5 0t7.5 -11q0 -2 -4 -17t-7.5 -36t-3.5 -35q0 -79 21 -176q0 -16 -13 -16q-16 0 -22 22q-41 159 -98 199q-56 39 -250 39q-139 0 -191 -9q-51 -9 -69 -30q-18 -25 -21 -99q-4 -102 -4 -381l2 3q0 -37 31 -46q27 -8 143 -8q139 0 180 35
q42 36 60 145q3 17 18 17q12 0 12 -14q0 -1 -1 -13t-3 -31.5t-4 -43.5t-3 -54t-1 -57q0 -30 1 -61.5t3 -54.5t4 -41t3 -28.5t1 -11.5q0 -14 -12 -14q-13 3 -16 18q-9 110 -55 144q-46 37 -187 37q-108 0 -145 -11q-29 -10 -29 -45q0 -429 14 -497q5 -23 17 -43
q19 -25 64 -34t165 -9q241 0 303 45q67 46 94 239q3 25 23 25q14 0 14 -17z" />
    <glyph glyph-name="Eacute" unicode="&#xc9;" horiz-adv-x="1114" 
d="M399 1393q-8 0 -8 10q0 4 8 12l195 115q59 37 125 74q62 36 90 36q21 0 36 -15t15 -40q0 -38 -61 -59q-261 -94 -381 -129zM1038 319l-6 -36q-16 -131 -16 -189q0 -14 3.5 -35t7 -36t3.5 -17q0 -12 -14 -12q-2 0 -32.5 0.5t-83.5 1.5t-120.5 2t-160.5 1.5t-185 0.5
q-218 0 -274 -6q-17 0 -17 12q0 3 0.5 4.5t2.5 3.5t4 3t6 2.5t7 2.5t9.5 3t11.5 4q49 15 64 55q24 62 24 430v131q0 469 -20 539q-12 52 -55 67l-13 4q-41 15 -41 29q0 12 17 12h8q9 -1 26.5 -2t38.5 -2q47 -2 117 -2q136 0 324 2t223 2q20 0 50 1q42 1 49.5 0t7.5 -11
q0 -2 -4 -17t-7.5 -36t-3.5 -35q0 -79 21 -176q0 -16 -13 -16q-16 0 -22 22q-41 159 -98 199q-56 39 -250 39q-139 0 -191 -9q-51 -9 -69 -30q-18 -25 -21 -99q-4 -102 -4 -381l2 3q0 -37 31 -46q27 -8 143 -8q139 0 180 35q42 36 60 145q3 17 18 17q12 0 12 -14
q0 -1 -1 -13t-3 -31.5t-4 -43.5t-3 -54t-1 -57q0 -30 1 -61.5t3 -54.5t4 -41t3 -28.5t1 -11.5q0 -14 -12 -14q-13 3 -16 18q-9 110 -55 144q-46 37 -187 37q-108 0 -145 -11q-29 -10 -29 -45q0 -429 14 -497q5 -23 17 -43q19 -25 64 -34t165 -9q241 0 303 45q67 46 94 239
q3 25 23 25q14 0 14 -17z" />
    <glyph glyph-name="Ecircumflex" unicode="&#xca;" horiz-adv-x="1114" 
d="M352 1415q-14 0 -14 15q0 12 94 100q31 23 82 74q5 5 16 16.5t16 16.5t14 12.5t14.5 11t13 6t14.5 2.5q13 0 29 -10t24 -18l31 -31q163 -150 178 -170q2 -4 2 -10q0 -15 -14 -15q-10 0 -74 45q-34 29 -174 123h-4q-68 -46 -135 -94t-74 -53q-30 -21 -39 -21zM1038 319
l-6 -36q-16 -131 -16 -189q0 -14 3.5 -35t7 -36t3.5 -17q0 -12 -14 -12q-2 0 -32.5 0.5t-83.5 1.5t-120.5 2t-160.5 1.5t-185 0.5q-218 0 -274 -6q-17 0 -17 12q0 3 0.5 4.5t2.5 3.5t4 3t6 2.5t7 2.5t9.5 3t11.5 4q49 15 64 55q24 62 24 430v131q0 469 -20 539
q-12 52 -55 67l-13 4q-41 15 -41 29q0 12 17 12h8q9 -1 26.5 -2t38.5 -2q47 -2 117 -2q136 0 324 2t223 2q20 0 50 1q42 1 49.5 0t7.5 -11q0 -2 -4 -17t-7.5 -36t-3.5 -35q0 -79 21 -176q0 -16 -13 -16q-16 0 -22 22q-41 159 -98 199q-56 39 -250 39q-139 0 -191 -9
q-51 -9 -69 -30q-18 -25 -21 -99q-4 -102 -4 -381l2 3q0 -37 31 -46q27 -8 143 -8q139 0 180 35q42 36 60 145q3 17 18 17q12 0 12 -14q0 -1 -1 -13t-3 -31.5t-4 -43.5t-3 -54t-1 -57q0 -30 1 -61.5t3 -54.5t4 -41t3 -28.5t1 -11.5q0 -14 -12 -14q-13 3 -16 18
q-9 110 -55 144q-46 37 -187 37q-108 0 -145 -11q-29 -10 -29 -45q0 -429 14 -497q5 -23 17 -43q19 -25 64 -34t165 -9q241 0 303 45q67 46 94 239q3 25 23 25q14 0 14 -17z" />
    <glyph glyph-name="Edieresis" unicode="&#xcb;" horiz-adv-x="1114" 
d="M530 1417q-20 -20 -54.5 -20t-57.5 20q-20 23 -20 58t20 55q23 23 57.5 23t54.5 -23q23 -20 23 -55t-23 -58zM782 1417q-20 -20 -54.5 -20t-57.5 20q-20 23 -20 58t20 55q23 23 57.5 23t54.5 -23q23 -20 23 -55t-23 -58zM1038 319l-6 -36q-16 -131 -16 -189
q0 -14 3.5 -35t7 -36t3.5 -17q0 -12 -14 -12q-2 0 -32.5 0.5t-83.5 1.5t-120.5 2t-160.5 1.5t-185 0.5q-218 0 -274 -6q-17 0 -17 12q0 3 0.5 4.5t2.5 3.5t4 3t6 2.5t7 2.5t9.5 3t11.5 4q49 15 64 55q24 62 24 430v131q0 469 -20 539q-12 52 -55 67l-13 4q-41 15 -41 29
q0 12 17 12h8q9 -1 26.5 -2t38.5 -2q47 -2 117 -2q136 0 324 2t223 2q20 0 50 1q42 1 49.5 0t7.5 -11q0 -2 -4 -17t-7.5 -36t-3.5 -35q0 -79 21 -176q0 -16 -13 -16q-16 0 -22 22q-41 159 -98 199q-56 39 -250 39q-139 0 -191 -9q-51 -9 -69 -30q-18 -25 -21 -99
q-4 -102 -4 -381l2 3q0 -37 31 -46q27 -8 143 -8q139 0 180 35q42 36 60 145q3 17 18 17q12 0 12 -14q0 -1 -1 -13t-3 -31.5t-4 -43.5t-3 -54t-1 -57q0 -30 1 -61.5t3 -54.5t4 -41t3 -28.5t1 -11.5q0 -14 -12 -14q-13 3 -16 18q-9 110 -55 144q-46 37 -187 37
q-108 0 -145 -11q-29 -10 -29 -45q0 -429 14 -497q5 -23 17 -43q19 -25 64 -34t165 -9q241 0 303 45q67 46 94 239q3 25 23 25q14 0 14 -17z" />
    <glyph glyph-name="Igrave" unicode="&#xcc;" horiz-adv-x="544" 
d="M500 1415q-1 0 -3.5 0.5t-7 1.5t-8.5 2q-120 35 -381 129q-61 21 -61 60q0 25 15 40t36 15q20 0 51 -16q53 -28 95 -54q46 -25 157 -94l107 -61q8 -8 8 -13q0 -10 -8 -10zM156 -12q-15 0 -15 12q0 14 35 23q47 15 53 108q9 95 9 526q0 413 -9 504q-6 92 -53 107
q-35 9 -35 20q0 15 15 15l8 -1q8 -2 20.5 -4t27 -3.5t31 -3t29.5 -1.5t30 1.5t31.5 3t27 3.5t20.5 4l8 1q14 0 14 -15q0 -11 -34 -20q-47 -15 -56 -107q-6 -92 -6 -504q0 -431 6 -526q9 -93 56 -108q34 -9 34 -23q0 -12 -14 -12q-3 0 -47 6t-70 6t-69 -6t-47 -6z" />
    <glyph glyph-name="Iacute" unicode="&#xcd;" horiz-adv-x="544" 
d="M72 1393q-9 0 -9 10q0 3 9 12l194 115q59 37 125 74q62 36 90 36q21 0 36 -15t15 -40q0 -38 -61 -59q-261 -94 -381 -129zM156 -12q-15 0 -15 12q0 14 35 23q47 15 53 108q9 95 9 526q0 413 -9 504q-6 92 -53 107q-35 9 -35 20q0 15 15 15l8 -1q8 -2 20.5 -4t27 -3.5
t31 -3t29.5 -1.5t30 1.5t31.5 3t27 3.5t20.5 4l8 1q14 0 14 -15q0 -11 -34 -20q-47 -15 -56 -107q-6 -92 -6 -504q0 -431 6 -526q9 -93 56 -108q34 -9 34 -23q0 -12 -14 -12q-3 0 -47 6t-70 6t-69 -6t-47 -6z" />
    <glyph glyph-name="Icircumflex" unicode="&#xce;" horiz-adv-x="544" 
d="M25 1415q-15 0 -15 15q0 12 94 100l82 74q5 5 16 16.5t16 16.5t14 12.5t14.5 11t13 6t14.5 2.5q13 0 29 -10t24 -18l31 -31q166 -153 179 -170q2 -4 2 -10q0 -15 -15 -15q-9 0 -73 45q-31 26 -175 123h-4q-68 -46 -135 -94t-74 -53q-30 -21 -38 -21zM156 -12
q-15 0 -15 12q0 14 35 23q47 15 53 108q9 95 9 526q0 413 -9 504q-6 92 -53 107q-35 9 -35 20q0 15 15 15l8 -1q8 -2 20.5 -4t27 -3.5t31 -3t29.5 -1.5t30 1.5t31.5 3t27 3.5t20.5 4l8 1q14 0 14 -15q0 -11 -34 -20q-47 -15 -56 -107q-6 -92 -6 -504q0 -431 6 -526
q9 -93 56 -108q34 -9 34 -23q0 -12 -14 -12q-3 0 -47 6t-70 6t-69 -6t-47 -6z" />
    <glyph glyph-name="Idieresis" unicode="&#xcf;" horiz-adv-x="544" 
d="M205 1417q-20 -20 -55 -20t-58 20q-20 23 -20 58t20 55q23 23 58 23t55 -23q23 -20 23 -55t-23 -58zM457 1417q-20 -20 -55 -20t-58 20q-20 23 -20 58t20 55q23 23 58 23t55 -23q23 -20 23 -55t-23 -58zM156 -12q-15 0 -15 12q0 14 35 23q47 15 53 108q9 95 9 526
q0 413 -9 504q-6 92 -53 107q-35 9 -35 20q0 15 15 15l8 -1q8 -2 20.5 -4t27 -3.5t31 -3t29.5 -1.5t30 1.5t31.5 3t27 3.5t20.5 4l8 1q14 0 14 -15q0 -11 -34 -20q-47 -15 -56 -107q-6 -92 -6 -504q0 -431 6 -526q9 -93 56 -108q34 -9 34 -23q0 -12 -14 -12q-3 0 -47 6
t-70 6t-69 -6t-47 -6z" />
    <glyph glyph-name="Eth" unicode="&#xd0;" horiz-adv-x="1394" 
d="M582 1309q310 0 510 -191t200 -469q0 -280 -200 -477q-201 -195 -510 -195q-58 0 -172 13q-105 12 -138 12q-32 0 -63 -2q-13 -1 -25.5 -2t-18 -1.5t-7.5 -0.5q-15 0 -15 12q0 5 3.5 7.5t9 4t17 5.5t22.5 10q33 11 36 96q7 96 7 492q-25 -2 -93 -2q-22 0 -22 26
q0 33 29 33q3 0 13.5 -0.5t31 -1.5t41.5 -2q0 386 -9 475q-6 91 -41 106l-9 4.5t-11 4.5q-25 9 -25 18q0 12 15 12q1 0 5.5 -0.5t15 -1.5t22.5 -2q29 -2 71 -2q34 0 138 8q147 11 172 11zM582 4q272 0 446 162q176 164 176 483q0 322 -176 475q-175 156 -446 156
q-239 0 -260 -68q-15 -40 -15 -538h27q88 0 158 2q30 1 59.5 2t44.5 1.5t20 0.5q27 0 27 -27q0 -14 -8.5 -23.5t-20.5 -8.5q-138 6 -274 6q-25 0 -33 -2q0 -513 19 -559q24 -62 256 -62z" />
    <glyph glyph-name="Ntilde" unicode="&#xd1;" horiz-adv-x="1386" 
d="M555 1460q15 164 117 164q52 0 129 -47q82 -43 114 -43q65 3 74 61q3 21 15 21q16 0 16 -23q0 -56 -31.5 -94.5t-83.5 -38.5q-42 0 -125 45q-82 43 -112 43q-69 -3 -82 -86q-4 -19 -18 -20q-11 -2 -13 12v6zM1186 -31q-17 0 -33 25q-50 82 -369 514q-361 489 -512 686
q-21 27 -24 27q-8 0 -8 -17v-958q0 -111 22 -160q20 -45 98 -63q31 -9 31 -21q0 -14 -18 -14q-3 0 -56 6t-92 6q-22 0 -55 -3t-58 -6t-28 -3q-18 0 -18 14q0 10 32 18q61 13 83 62.5t22 163.5v903q0 61 -12.5 81t-59.5 27q-80 9 -80 35q0 11 15 11q1 0 5.5 -1t15 -2.5
t22.5 -3.5q40 -6 57 -6q12 0 43.5 6.5t38.5 6.5q39 0 82 -58l827 -1110q19 -31 19 -2v944q0 93 -20.5 132.5t-76.5 56.5q-41 15 -41 24q0 13 15 13l55 -7q55 -6 84 -6q34 0 86 6l53 7q15 0 15 -11q0 -13 -35 -22q-55 -18 -78 -60t-23 -133v-1067q0 -41 -24 -41z" />
    <glyph glyph-name="Ograve" unicode="&#xd2;" horiz-adv-x="1433" 
d="M539 1548q-62 21 -62 60q0 25 15 40t36 15t52 -16q48 -25 94 -54q46 -25 157 -94l107 -61q8 -8 8 -13q0 -10 -8 -10q-1 0 -3 0.5t-6.5 1.5t-8.5 2q-120 35 -381 129zM717 1329q275 0 444 -196q170 -194 170 -484q0 -284 -172 -483q-170 -197 -442 -197t-445 197
q-170 200 -170 483q0 290 170 484q172 196 445 196zM717 6q221 0 368 156q150 156 150 487q0 142 -28.5 253.5t-77 183.5t-116 119.5t-140.5 67t-156 19.5q-81 0 -153.5 -19.5t-140 -67t-116.5 -119.5t-78.5 -184t-29.5 -253q0 -167 43 -297t120 -205q147 -141 355 -141z
" />
    <glyph glyph-name="Oacute" unicode="&#xd3;" horiz-adv-x="1433" 
d="M510 1393q-8 0 -8 10q0 4 8 12l195 115q67 42 124 74q62 36 91 36q21 0 36 -15t15 -40q0 -38 -62 -59q-261 -94 -381 -129zM717 1329q275 0 444 -196q170 -194 170 -484q0 -284 -172 -483q-170 -197 -442 -197t-445 197q-170 200 -170 483q0 290 170 484q172 196 445 196
zM717 6q221 0 368 156q150 156 150 487q0 142 -28.5 253.5t-77 183.5t-116 119.5t-140.5 67t-156 19.5q-81 0 -153.5 -19.5t-140 -67t-116.5 -119.5t-78.5 -184t-29.5 -253q0 -167 43 -297t120 -205q147 -141 355 -141z" />
    <glyph glyph-name="Ocircumflex" unicode="&#xd4;" horiz-adv-x="1433" 
d="M461 1415q-15 0 -15 15q0 11 95 100q31 23 82 74q5 5 16 16.5t16 16.5t14 12.5t14.5 11t13 6t14.5 2.5q13 0 29 -10t24 -18l31 -31q163 -150 178 -170q2 -4 2 -10q0 -15 -14 -15q-10 0 -74 45q-34 29 -174 123h-4q-68 -46 -135 -94t-74 -53q-30 -21 -39 -21zM717 1329
q275 0 444 -196q170 -194 170 -484q0 -284 -172 -483q-170 -197 -442 -197t-445 197q-170 200 -170 483q0 290 170 484q172 196 445 196zM717 6q221 0 368 156q150 156 150 487q0 142 -28.5 253.5t-77 183.5t-116 119.5t-140.5 67t-156 19.5q-81 0 -153.5 -19.5t-140 -67
t-116.5 -119.5t-78.5 -184t-29.5 -253q0 -167 43 -297t120 -205q147 -141 355 -141z" />
    <glyph glyph-name="Otilde" unicode="&#xd5;" horiz-adv-x="1433" 
d="M477 1460q15 164 117 164q52 0 129 -47q82 -43 115 -43q64 3 73 61q3 21 15 21q16 0 16 -23q0 -56 -31.5 -94.5t-83.5 -38.5q-42 0 -125 45q-82 43 -112 43q-69 -3 -82 -86q-4 -19 -18 -20q-11 -2 -13 12v6zM717 1329q275 0 444 -196q170 -194 170 -484q0 -284 -172 -483
q-170 -197 -442 -197t-445 197q-170 200 -170 483q0 290 170 484q172 196 445 196zM717 6q221 0 368 156q150 156 150 487q0 142 -28.5 253.5t-77 183.5t-116 119.5t-140.5 67t-156 19.5q-81 0 -153.5 -19.5t-140 -67t-116.5 -119.5t-78.5 -184t-29.5 -253q0 -167 43 -297
t120 -205q147 -141 355 -141z" />
    <glyph glyph-name="Odieresis" unicode="&#xd6;" horiz-adv-x="1433" 
d="M641 1417q-20 -20 -55 -20t-58 20q-20 23 -20 58t20 55q23 23 58 23t55 -23q23 -20 23 -55t-23 -58zM893 1417q-20 -20 -55 -20t-58 20q-20 23 -20 58t20 55q23 23 58 23t55 -23q23 -20 23 -55t-23 -58zM717 1329q275 0 444 -196q170 -194 170 -484q0 -284 -172 -483
q-170 -197 -442 -197t-445 197q-170 200 -170 483q0 290 170 484q172 196 445 196zM717 6q221 0 368 156q150 156 150 487q0 142 -28.5 253.5t-77 183.5t-116 119.5t-140.5 67t-156 19.5q-81 0 -153.5 -19.5t-140 -67t-116.5 -119.5t-78.5 -184t-29.5 -253q0 -167 43 -297
t120 -205q147 -141 355 -141z" />
    <glyph glyph-name="multiply" unicode="&#xd7;" horiz-adv-x="1146" 
d="M606 551l250 -250q13 -13 -6 -29q-16 -19 -29 -6l-250 250l-249 -250q-13 -13 -29 6q-19 16 -6 29l250 250l-250 250q-13 13 6 28q16 20 29 7l249 -250l250 250q13 13 29 -7q19 -15 6 -28z" />
    <glyph glyph-name="Oslash" unicode="&#xd8;" horiz-adv-x="1433" 
d="M1010 1255q151 -84 236 -245.5t85 -360.5q0 -284 -172 -483q-170 -197 -442 -197q-160 0 -293 74l-102 -213q-9 -20 -35 -20q-21 0 -21 14q0 6 6 18l111 228q-131 91 -206 244t-75 335q0 290 170 484q172 196 445 196q137 0 248 -51l84 176q10 23 36 23q21 0 21 -13
q0 -7 -6 -22zM199 649q0 -373 202 -536l547 1130q-101 49 -231 49q-81 0 -153.5 -19.5t-140 -67t-116.5 -119.5t-78.5 -184t-29.5 -253zM717 6q221 0 368 156q150 156 150 487q0 424 -242 570l-551 -1137q119 -76 275 -76z" />
    <glyph glyph-name="Ugrave" unicode="&#xd9;" horiz-adv-x="1275" 
d="M872 1415q-1 0 -3 0.5t-6.5 1.5t-8.5 2q-120 35 -381 129q-61 21 -61 60q0 25 15 40t36 15q20 0 51 -16q48 -25 94 -54q55 -30 158 -94l106 -61q9 -9 9 -13q0 -10 -9 -10zM645 -31q-240 0 -367.5 152.5t-127.5 451.5v510q0 90 -15 126.5t-63 54.5q-37 14 -36 29
q1 10 17 10q1 0 6.5 -1t18.5 -2.5t28 -3.5q52 -6 84 -6q34 0 86 6q61 7 62 7q14 0 14 -13q0 -14 -39 -26q-51 -17 -69.5 -50t-18.5 -106l-2 -551q-1 -268 108 -408.5t314 -140.5q200 0 311 137t111 412v469q0 121 -25 173.5t-88 70.5q-33 8 -33 22q0 11 17 11l10 -1
q10 -2 25 -4t32.5 -3.5t36 -3t31.5 -1.5q43 0 92 6q15 2 29 3.5t20 2.5t7 1q12 0 12 -9q0 -15 -33 -26q-53 -13 -74.5 -56t-21.5 -127v-528q0 -299 -121 -443.5t-338 -144.5z" />
    <glyph glyph-name="Uacute" unicode="&#xda;" horiz-adv-x="1275" 
d="M444 1393q-8 0 -8 10q0 4 8 12l195 115q59 37 125 74q62 36 90 36q21 0 36 -15t15 -40q0 -38 -61 -59q-261 -94 -381 -129zM645 -31q-240 0 -367.5 152.5t-127.5 451.5v510q0 90 -15 126.5t-63 54.5q-37 14 -36 29q1 10 17 10q1 0 6.5 -1t18.5 -2.5t28 -3.5q52 -6 84 -6
q34 0 86 6q61 7 62 7q14 0 14 -13q0 -14 -39 -26q-51 -17 -69.5 -50t-18.5 -106l-2 -551q-1 -268 108 -408.5t314 -140.5q200 0 311 137t111 412v469q0 121 -25 173.5t-88 70.5q-33 8 -33 22q0 11 17 11l10 -1q10 -2 25 -4t32.5 -3.5t36 -3t31.5 -1.5q43 0 92 6q15 2 29 3.5
t20 2.5t7 1q12 0 12 -9q0 -15 -33 -26q-53 -13 -74.5 -56t-21.5 -127v-528q0 -299 -121 -443.5t-338 -144.5z" />
    <glyph glyph-name="Ucircumflex" unicode="&#xdb;" horiz-adv-x="1275" 
d="M395 1415q-14 0 -14 15q0 12 94 100l82 74q5 5 16 16.5t16 16.5t14 12.5t14.5 11t13 6t14.5 2.5q13 0 29 -10t24 -18l31 -31q163 -150 178 -170q2 -4 2 -10q0 -15 -14 -15q-10 0 -74 45q-34 29 -174 123h-4q-68 -46 -135 -94t-74 -53q-30 -21 -39 -21zM645 -31
q-240 0 -367.5 152.5t-127.5 451.5v510q0 90 -15 126.5t-63 54.5q-37 14 -36 29q1 10 17 10q1 0 6.5 -1t18.5 -2.5t28 -3.5q52 -6 84 -6q34 0 86 6q61 7 62 7q14 0 14 -13q0 -14 -39 -26q-51 -17 -69.5 -50t-18.5 -106l-2 -551q-1 -268 108 -408.5t314 -140.5q200 0 311 137
t111 412v469q0 121 -25 173.5t-88 70.5q-33 8 -33 22q0 11 17 11l10 -1q10 -2 25 -4t32.5 -3.5t36 -3t31.5 -1.5q43 0 92 6q15 2 29 3.5t20 2.5t7 1q12 0 12 -9q0 -15 -33 -26q-53 -13 -74.5 -56t-21.5 -127v-528q0 -299 -121 -443.5t-338 -144.5z" />
    <glyph glyph-name="Udieresis" unicode="&#xdc;" horiz-adv-x="1275" 
d="M575 1417q-20 -20 -54.5 -20t-57.5 20q-20 23 -20 58t20 55q23 23 57.5 23t54.5 -23q23 -20 23 -55t-23 -58zM827 1417q-20 -20 -54.5 -20t-57.5 20q-20 23 -20 58t20 55q23 23 57.5 23t54.5 -23q23 -20 23 -55t-23 -58zM645 -31q-240 0 -367.5 152.5t-127.5 451.5v510
q0 90 -15 126.5t-63 54.5q-37 14 -36 29q1 10 17 10q1 0 6.5 -1t18.5 -2.5t28 -3.5q52 -6 84 -6q34 0 86 6q61 7 62 7q14 0 14 -13q0 -14 -39 -26q-51 -17 -69.5 -50t-18.5 -106l-2 -551q-1 -268 108 -408.5t314 -140.5q200 0 311 137t111 412v469q0 121 -25 173.5t-88 70.5
q-33 8 -33 22q0 11 17 11l10 -1q10 -2 25 -4t32.5 -3.5t36 -3t31.5 -1.5q43 0 92 6q15 2 29 3.5t20 2.5t7 1q12 0 12 -9q0 -15 -33 -26q-53 -13 -74.5 -56t-21.5 -127v-528q0 -299 -121 -443.5t-338 -144.5z" />
    <glyph glyph-name="Yacute" unicode="&#xdd;" horiz-adv-x="1191" 
d="M397 1393q-8 0 -8 10q0 4 8 12l195 115q59 37 125 74q62 36 90 36q21 0 36 -15t15 -40q0 -38 -61 -59q-261 -94 -381 -129zM451 -14q-19 0 -18 10q2 14 50 31q32 11 50.5 33t25.5 65q12 52 12 209q2 43 2 178q0 22 -14 47l-313 506q-69 117 -107 152q-41 41 -90 55
q-29 10 -29 20q0 11 17 11q1 0 6 -1t17 -2.5t24 -3.5q43 -6 76 -6q38 0 102 6q18 2 35.5 3.5t25.5 2.5t9 1q17 0 17 -9q-1 -11 -32 -23l-2 -1q-24 -10 -36 -21t-13 -27.5t3.5 -30.5t15.5 -40q55 -127 336 -571l208 329q75 120 101 174.5t26 96.5q0 80 -106 92q-25 1 -25 17
q2 13 19 14q1 0 8.5 -1t25 -2.5t37.5 -3.5q67 -6 105 -6q26 0 82 6q17 2 32 3.5t21.5 2.5t7.5 1q12 0 16.5 -6t0 -13.5t-16.5 -11.5q-49 -16 -76 -43q-22 -22 -86 -119l-348 -539q-12 -15 -12 -28q0 -393 18 -451q12 -39 54 -55q2 -2 20 -8q49 -21 46 -35q-2 -8 -17 -8
q-9 0 -66 8q-64 6 -84 6q-34 0 -94 -8z" />
    <glyph glyph-name="Thorn" unicode="&#xde;" horiz-adv-x="1165" 
d="M158 -14q-15 0 -15 12q0 9 27 18l23 7q50 15 61 59q20 59 20 428v344q0 240 -18 317q-19 81 -63 95q-14 7 -28 11t-18 6.5t-4 8.5q0 13 15 13q100 -15 151 -15q17 0 42 1.5t48.5 4t44.5 4.5t34 4l14 1q16 0 15 -8q-2 -12 -56 -29q-71 -21 -86 -62q-17 -46 -17 -155
q0 -11 10 -11l14 3q15 3 39 7t52.5 8.5t62 7.5t62.5 3q214 0 346 -111q131 -107 131 -284q0 -179 -131 -289q-133 -109 -346 -109q-29 0 -62.5 3t-62 7t-52.5 8.5t-39 7.5l-14 3q-10 0 -10 -10q0 -154 19 -209q17 -47 84 -63q59 -18 56 -31q-2 -6 -15 -6l-14 2q-13 1 -34 3
t-44.5 4t-48.5 3.5t-42 1.5q-23 0 -60.5 -3.5t-64.5 -6.5zM584 317q166 0 282 93q117 94 117 264q0 169 -117 260q-113 94 -282 94q-173 0 -219 -43q-16 -16 -19 -61q-2 -31 -2 -250q0 -278 10 -305l6 -13q13 -13 84 -26q76 -13 140 -13z" />
    <glyph glyph-name="germandbls" unicode="&#xdf;" horiz-adv-x="962" 
d="M702 465q111 -83 157 -143t46 -132q0 -97 -72 -159t-182 -62q-76 0 -143 33q-72 35 -80 35q-25 0 -31 -41q-1 -12 -8.5 -16.5t-14.5 0t-7 16.5v7q0 7 0.5 17.5t1 22.5t0.5 25v22q0 38 -7 117q-1 21 -2 38.5t-2 25.5v8q0 14 12 13q13 -2 19 -20q43 -141 105.5 -206.5
t156.5 -65.5q75 0 123.5 45t48.5 119q0 61 -34.5 112t-120.5 113l-150 105q-123 92 -123 211q0 49 26.5 96t90.5 119q11 14 46.5 52t37.5 40l29 41q30 40 30 104q0 55 -40.5 90t-112.5 35q-108 0 -173 -75.5t-65 -223.5v-844q0 -15 1 -34t2 -35.5t2 -30.5t2 -23l1 -8
q0 -14 -14 -14l-20 2q-28 4 -33 4q-41 0 -68 -2q-12 -1 -22.5 -2t-15 -1.5t-5.5 -0.5q-14 0 -14 12q0 16 39 33q50 23 65 55.5t15 118.5v537q-24 -1 -46.5 -2t-34.5 -2t-16 -1q-17 0 -23.5 13.5t0 27t23.5 13.5q4 0 16 -0.5t35 -1.5l46 -2v131q0 191 82 288t219 97
q88 0 141 -46t53 -112q0 -108 -119 -219q-48 -43 -82 -97t-34 -104q0 -87 102 -164z" />
    <glyph glyph-name="agrave" unicode="&#xe0;" horiz-adv-x="935" 
d="M199 1159q-55 40 -43 74q15 53 63 41q15 2 129 -117l88 -94l117 -121q7 -7 4 -12q-3 -9 -12 -6l-8 4q-150 94 -338 231zM901 59q0 -41 -26 -65.5t-70 -24.5q-59 0 -86 35t-27 109v90q-43 -107 -139 -170.5t-199 -63.5q-123 0 -191.5 52t-68.5 143q0 151 172 213
q149 53 426 65v35q0 322 -276 322q-86 0 -139.5 -29.5t-53.5 -71.5q0 -12 17.5 -43t17.5 -47q0 -27 -19 -44t-51 -17q-69 0 -69 84q0 79 83 137.5t222 58.5q342 0 342 -364v-354q0 -99 51 -99q47 0 53 47q1 13 8.5 18t15 0.5t7.5 -16.5zM358 -2q136 0 234 98
q100 100 100 279v45q-349 -15 -450 -94q-70 -52 -70 -152q0 -176 186 -176z" />
    <glyph glyph-name="aacute" unicode="&#xe1;" horiz-adv-x="935" 
d="M283 924q-10 -3 -13 6l4 12q13 13 36 37t42.5 44.5t36.5 39.5l90 94l58 60q55 55 71 57q52 9 66 -41q9 -33 -45 -74q-188 -137 -338 -231zM901 59q0 -41 -26 -65.5t-70 -24.5q-59 0 -86 35t-27 109v90q-43 -107 -139 -170.5t-199 -63.5q-123 0 -191.5 52t-68.5 143
q0 151 172 213q149 53 426 65v35q0 322 -276 322q-86 0 -139.5 -29.5t-53.5 -71.5q0 -12 17.5 -43t17.5 -47q0 -27 -19 -44t-51 -17q-69 0 -69 84q0 79 83 137.5t222 58.5q342 0 342 -364v-354q0 -99 51 -99q47 0 53 47q1 13 8.5 18t15 0.5t7.5 -16.5zM358 -2q136 0 234 98
q100 100 100 279v45q-349 -15 -450 -94q-70 -52 -70 -152q0 -176 186 -176z" />
    <glyph glyph-name="acircumflex" unicode="&#xe2;" horiz-adv-x="935" 
d="M186 1036q-14 0 -14 15q0 12 18 36l93 103q47 54 67 74q26 31 40.5 39t45.5 8q9 0 16 -0.5t12 -1t10.5 -3.5t8.5 -4t8 -5.5t7.5 -6.5t9.5 -9.5t10 -10.5q135 -147 158 -176q24 -27 24 -43q0 -15 -14 -15t-102 76l-146 127h-4q-49 -42 -118 -103q-76 -66 -97.5 -83
t-32.5 -17zM901 59q0 -41 -26 -65.5t-70 -24.5q-59 0 -86 35t-27 109v90q-43 -107 -139 -170.5t-199 -63.5q-123 0 -191.5 52t-68.5 143q0 151 172 213q149 53 426 65v35q0 322 -276 322q-86 0 -139.5 -29.5t-53.5 -71.5q0 -12 17.5 -43t17.5 -47q0 -27 -19 -44t-51 -17
q-69 0 -69 84q0 79 83 137.5t222 58.5q342 0 342 -364v-354q0 -99 51 -99q47 0 53 47q1 13 8.5 18t15 0.5t7.5 -16.5zM358 -2q136 0 234 98q100 100 100 279v45q-349 -15 -450 -94q-70 -52 -70 -152q0 -176 186 -176z" />
    <glyph glyph-name="atilde" unicode="&#xe3;" horiz-adv-x="935" 
d="M197 1032q-16 0 -13 19q15 163 117 163q52 0 129 -47q82 -43 115 -43q64 3 73 62q3 20 15 20q16 0 16 -22q0 -56 -31 -94.5t-83 -38.5q-42 0 -125 45q-82 43 -113 43q-69 -3 -82 -86q-6 -21 -18 -21zM901 59q0 -41 -26 -65.5t-70 -24.5q-59 0 -86 35t-27 109v90
q-43 -107 -139 -170.5t-199 -63.5q-123 0 -191.5 52t-68.5 143q0 151 172 213q149 53 426 65v35q0 322 -276 322q-86 0 -139.5 -29.5t-53.5 -71.5q0 -12 17.5 -43t17.5 -47q0 -27 -19 -44t-51 -17q-69 0 -69 84q0 79 83 137.5t222 58.5q342 0 342 -364v-354q0 -99 51 -99
q47 0 53 47q1 13 8.5 18t15 0.5t7.5 -16.5zM358 -2q136 0 234 98q100 100 100 279v45q-349 -15 -450 -94q-70 -52 -70 -152q0 -176 186 -176z" />
    <glyph glyph-name="adieresis" unicode="&#xe4;" horiz-adv-x="935" 
d="M362 999q-20 -20 -54.5 -20t-57.5 20q-20 23 -20 58t20 55q23 23 57.5 23t54.5 -23q23 -20 23 -55t-23 -58zM614 999q-20 -20 -54.5 -20t-57.5 20q-20 23 -20 58t20 55q23 23 57.5 23t54.5 -23q23 -20 23 -55t-23 -58zM901 59q0 -41 -26 -65.5t-70 -24.5q-59 0 -86 35
t-27 109v90q-43 -107 -139 -170.5t-199 -63.5q-123 0 -191.5 52t-68.5 143q0 151 172 213q149 53 426 65v35q0 322 -276 322q-86 0 -139.5 -29.5t-53.5 -71.5q0 -12 17.5 -43t17.5 -47q0 -27 -19 -44t-51 -17q-69 0 -69 84q0 79 83 137.5t222 58.5q342 0 342 -364v-354
q0 -99 51 -99q47 0 53 47q1 13 8.5 18t15 0.5t7.5 -16.5zM358 -2q136 0 234 98q100 100 100 279v45q-349 -15 -450 -94q-70 -52 -70 -152q0 -176 186 -176z" />
    <glyph glyph-name="aring" unicode="&#xe5;" horiz-adv-x="935" 
d="M451 1012q-63 0 -106.5 39.5t-43.5 99.5q0 61 42 100t108 39q67 0 108 -38.5t41 -100.5t-41 -100.5t-108 -38.5zM451 1264q-42 0 -65.5 -29.5t-23.5 -83.5t23.5 -83.5t65.5 -29.5q88 0 88 113t-88 113zM901 59q0 -41 -26 -65.5t-70 -24.5q-59 0 -86 35t-27 109v90
q-43 -107 -139 -170.5t-199 -63.5q-123 0 -191.5 52t-68.5 143q0 151 172 213q149 53 426 65v35q0 322 -276 322q-86 0 -139.5 -29.5t-53.5 -71.5q0 -12 17.5 -43t17.5 -47q0 -27 -19 -44t-51 -17q-69 0 -69 84q0 79 83 137.5t222 58.5q342 0 342 -364v-354q0 -99 51 -99
q47 0 53 47q1 13 8.5 18t15 0.5t7.5 -16.5zM358 -2q136 0 234 98q100 100 100 279v45q-349 -15 -450 -94q-70 -52 -70 -152q0 -176 186 -176z" />
    <glyph glyph-name="ae" unicode="&#xe6;" horiz-adv-x="1507" 
d="M1434 229q0 -2 -4 -18q-32 -105 -124.5 -173.5t-222.5 -68.5q-142 0 -241 82t-135 217q-36 -149 -140 -223q-107 -76 -229 -76q-110 0 -177 53.5t-67 141.5q0 117 113 184q131 76 483 94v13q3 344 -274 344q-86 0 -139.5 -29.5t-53.5 -71.5q0 -12 17.5 -43t17.5 -47
q0 -27 -19 -44t-51 -17q-69 0 -69 84q0 79 83 137.5t222 58.5q250 0 317 -211q50 98 140.5 154.5t205.5 56.5q151 0 242 -88q92 -86 92 -211q0 -32 -9 -42.5t-38 -10.5l-602 2q-4 -54 -4 -61v-13q0 -179 87.5 -286t238.5 -107q127 0 209 70q87 72 108 147q1 8 6.5 11t11 0.5
t5.5 -9.5zM1083 799q-120 0 -201 -76t-106 -207l561 4q13 0 13 21q0 100 -72 178q-71 80 -195 80zM342 -2q153 0 250.5 105t97.5 294v23q-347 -15 -448 -94q-70 -52 -70 -152q0 -176 170 -176z" />
    <glyph glyph-name="ccedilla" unicode="&#xe7;" horiz-adv-x="888" 
d="M829 244q-21 -117 -102 -191.5t-217 -81.5l-18 -84q155 -30 155 -131q0 -54 -41 -87.5t-100 -33.5q-39 0 -69 10.5t-42 20.5t-12 15q0 12 12 12l5 -3q6 -3 15 -6.5t20 -7.5t25.5 -7t28.5 -3q43 0 69 22.5t26 59.5q0 42 -28.5 64.5t-96.5 40.5q-13 3 -13 16q0 2 5 22
l18 78q-170 3 -276 121q-107 119 -107 307q0 196 119 312q118 118 272 118q94 0 168 -26q21 -7 41 -13.5t28 -9t9 -2.5q25 0 37 35q6 16 18 16q15 0 15 -18q0 -43 2.5 -88t5.5 -78t6 -59.5t5.5 -40.5t2.5 -13q0 -16 -16 -16q-13 0 -19 21q-38 147 -107.5 205.5t-199.5 58.5
q-103 0 -199 -78q-51 -42 -81.5 -126t-30.5 -192q0 -182 94 -286q94 -105 229 -105q245 0 316 232q6 16 16 16q12 0 12 -12v-4z" />
    <glyph glyph-name="egrave" unicode="&#xe8;" horiz-adv-x="903" 
d="M240 1159q-55 40 -43 74q15 53 63 41q15 2 129 -117l88 -94l117 -121q7 -7 4 -12q-3 -9 -12 -6l-8 4q-150 94 -338 231zM829 229q0 -2 -4 -18q-32 -105 -124 -173.5t-222 -68.5q-180 0 -289 127q-104 125 -104 301q0 178 109 305q110 125 288 125q151 0 242 -88
q92 -86 92 -211q0 -32 -9 -42.5t-38 -10.5l-602 2q-4 -66 -4 -74q0 -179 87 -286t238 -107q127 0 209 70q89 73 109 147q1 8 6.5 11t10.5 0.5t5 -9.5zM479 799q-120 0 -200.5 -77.5t-104.5 -209.5l559 4q12 0 12 21q0 102 -71 182t-195 80z" />
    <glyph glyph-name="eacute" unicode="&#xe9;" horiz-adv-x="903" 
d="M324 924q-10 -3 -13 6l4 12q13 13 36 37t42.5 44.5t36.5 39.5l90 94l58 60q55 55 71 57q52 9 66 -41q9 -33 -45 -74q-188 -137 -338 -231zM829 229q0 -2 -4 -18q-32 -105 -124 -173.5t-222 -68.5q-180 0 -289 127q-104 125 -104 301q0 178 109 305q110 125 288 125
q151 0 242 -88q92 -86 92 -211q0 -32 -9 -42.5t-38 -10.5l-602 2q-4 -66 -4 -74q0 -179 87 -286t238 -107q127 0 209 70q89 73 109 147q1 8 6.5 11t10.5 0.5t5 -9.5zM479 799q-120 0 -200.5 -77.5t-104.5 -209.5l559 4q12 0 12 21q0 102 -71 182t-195 80z" />
    <glyph glyph-name="ecircumflex" unicode="&#xea;" horiz-adv-x="903" 
d="M227 1036q-14 0 -14 15q0 12 18 36l93 103q47 54 67 74q26 31 40.5 39t45.5 8q9 0 16 -0.5t12 -1t10.5 -3.5t8.5 -4t8 -5.5t7.5 -6.5t9.5 -9.5t10 -10.5q135 -147 158 -176q24 -27 24 -43q0 -15 -14 -15t-102 76l-146 127h-4q-49 -42 -118 -103q-76 -66 -97.5 -83
t-32.5 -17zM829 229q0 -2 -4 -18q-32 -105 -124 -173.5t-222 -68.5q-180 0 -289 127q-104 125 -104 301q0 178 109 305q110 125 288 125q151 0 242 -88q92 -86 92 -211q0 -32 -9 -42.5t-38 -10.5l-602 2q-4 -66 -4 -74q0 -179 87 -286t238 -107q127 0 209 70q89 73 109 147
q1 8 6.5 11t10.5 0.5t5 -9.5zM479 799q-120 0 -200.5 -77.5t-104.5 -209.5l559 4q12 0 12 21q0 102 -71 182t-195 80z" />
    <glyph glyph-name="edieresis" unicode="&#xeb;" horiz-adv-x="903" 
d="M401 999q-20 -20 -54.5 -20t-57.5 20q-20 23 -20 58t20 55q23 23 57.5 23t54.5 -23q23 -20 23 -55t-23 -58zM653 999q-20 -20 -54.5 -20t-57.5 20q-20 23 -20 58t20 55q23 23 57.5 23t54.5 -23q23 -20 23 -55t-23 -58zM829 229q0 -2 -4 -18q-32 -105 -124 -173.5
t-222 -68.5q-180 0 -289 127q-104 125 -104 301q0 178 109 305q110 125 288 125q151 0 242 -88q92 -86 92 -211q0 -32 -9 -42.5t-38 -10.5l-602 2q-4 -66 -4 -74q0 -179 87 -286t238 -107q127 0 209 70q89 73 109 147q1 8 6.5 11t10.5 0.5t5 -9.5zM479 799
q-120 0 -200.5 -77.5t-104.5 -209.5l559 4q12 0 12 21q0 102 -71 182t-195 80z" />
    <glyph glyph-name="igrave" unicode="&#xec;" horiz-adv-x="505" 
d="M346 924l-8 4q-150 94 -338 231q-54 41 -45 74q14 50 65 41q16 2 130 -117l88 -94l116 -121q7 -7 4 -12q-3 -9 -12 -6zM123 -8q-14 0 -14 12q0 13 20 16q65 12 82 35q14 22 14 117v428q0 80 -16 102q-17 24 -94 39q-11 3 -15.5 9t0 11.5t15.5 6.5q54 4 95.5 18.5
t60.5 27.5t20 13q12 0 12 -14l-4 -45q-8 -57 -8 -164v-432q0 -95 14 -117q17 -23 82 -35q21 -3 21 -16q0 -12 -15 -12q-2 0 -9 0.5l-21 1.5t-29 2q-70 4 -80 4q-4 0 -74 -4q-14 -1 -27.5 -2t-20.5 -1.5t-9 -0.5z" />
    <glyph glyph-name="iacute" unicode="&#xed;" horiz-adv-x="505" 
d="M84 924q-9 -3 -12 6l4 12q97 102 114 121l91 94l57 60q54 55 72 57q51 9 65 -41q9 -33 -45 -74q-188 -137 -338 -231zM123 -8q-14 0 -14 12q0 13 20 16q65 12 82 35q14 22 14 117v428q0 80 -16 102q-17 24 -94 39q-11 3 -15.5 9t0 11.5t15.5 6.5q54 4 95.5 18.5
t60.5 27.5t20 13q12 0 12 -14l-4 -45q-8 -57 -8 -164v-432q0 -95 14 -117q17 -23 82 -35q21 -3 21 -16q0 -12 -15 -12q-2 0 -9 0.5l-21 1.5t-29 2q-70 4 -80 4q-4 0 -74 -4q-14 -1 -27.5 -2t-20.5 -1.5t-9 -0.5z" />
    <glyph glyph-name="icircumflex" unicode="&#xee;" horiz-adv-x="505" 
d="M35 1034q-20 0 -9 29q5 14 19 33l123 166q6 7 15 20t14 19.5t12 14t14 10.5t15 3q21 0 67 -61l125 -174q21 -30 21 -45t-13 -15q-6 0 -17.5 11t-47.5 51q-21 23 -34.5 38t-42.5 46t-58 63h-2q-107 -112 -170 -184q-20 -25 -31 -25zM123 -8q-14 0 -14 12q0 13 20 16
q65 12 82 35q14 22 14 117v428q0 80 -16 102q-17 24 -94 39q-11 3 -15.5 9t0 11.5t15.5 6.5q54 4 95.5 18.5t60.5 27.5t20 13q12 0 12 -14l-4 -45q-8 -57 -8 -164v-432q0 -95 14 -117q17 -23 82 -35q21 -3 21 -16q0 -12 -15 -12q-2 0 -9 0.5l-21 1.5t-29 2q-70 4 -80 4
q-4 0 -74 -4q-14 -1 -27.5 -2t-20.5 -1.5t-9 -0.5z" />
    <glyph glyph-name="idieresis" unicode="&#xef;" horiz-adv-x="505" 
d="M51 1112q23 23 58 23t55 -23q23 -20 23 -55t-23 -58q-20 -20 -55 -20t-58 20q-20 23 -20 58t20 55zM303 1112q23 23 58 23t55 -23q23 -20 23 -55t-23 -58q-20 -20 -55 -20t-58 20q-20 23 -20 58t20 55zM123 -8q-14 0 -14 12q0 13 20 16q65 12 82 35q14 22 14 117v428
q0 80 -16 102q-17 24 -94 39q-11 3 -15.5 9t0 11.5t15.5 6.5q54 4 95.5 18.5t60.5 27.5t20 13q12 0 12 -14l-4 -45q-8 -57 -8 -164v-432q0 -95 14 -117q17 -23 82 -35q21 -3 21 -16q0 -12 -15 -12q-2 0 -9 0.5l-21 1.5t-29 2q-70 4 -80 4q-4 0 -74 -4q-14 -1 -27.5 -2
t-20.5 -1.5t-9 -0.5z" />
    <glyph glyph-name="eth" unicode="&#xf0;" horiz-adv-x="976" 
d="M582 1102q309 -143 309 -572q0 -201 -84 -370q-44 -88 -127 -138.5t-191 -50.5q-165 0 -286 109q-117 111 -117 289q0 177 109 286q111 111 270 111q122 0 210 -66t116 -192q-9 388 -173 514q-61 41 -73 47l-230 -205q-17 -14 -26 -14q-19 0 -19 18q0 13 15 25l217 194
q-127 50 -291 50q-29 0 -29 18q0 16 29 16q194 0 328 -51l163 148q8 8 19 8q18 0 18 -21q0 -10 -10 -20zM774 362v25q0 164 -86.5 257t-224.5 93q-116 0 -199 -92q-84 -90 -84 -276q0 -184 84 -276.5t225 -92.5q132 0 208.5 95.5t76.5 266.5z" />
    <glyph glyph-name="ntilde" unicode="&#xf1;" horiz-adv-x="1026" 
d="M287 1032q-16 0 -13 19q15 163 117 163q52 0 129 -47q82 -43 115 -43q65 3 74 62q3 20 14 20q16 0 16 -22q0 -56 -31 -94.5t-83 -38.5q-42 0 -125 45q-82 43 -113 43q-69 -3 -82 -86q-6 -21 -18 -21zM911 25q25 -8 25 -22q-1 -11 -14 -11q-1 0 -5.5 0.5t-15 1.5t-22.5 2
q-54 4 -64 4q-3 0 -57 -4q-12 -1 -22.5 -2t-15 -1.5t-5.5 -0.5q-14 0 -14 12q0 13 20 19q26 8 39 21.5t19.5 47.5t6.5 98v310q0 282 -217 282q-131 0 -219 -108q-88 -107 -88 -295v-199q0 -92 13 -120t61 -40q20 -6 20 -16q0 -12 -14 -12q-2 0 -7.5 0.5t-17 1.5t-22.5 2
q-54 4 -62 4q-7 0 -61 -4q-11 -1 -20.5 -2t-13.5 -1.5t-5 -0.5q-14 0 -14 12q0 10 22 16q36 11 45 39q11 33 11 121v420q0 118 -76 133q-31 10 -31 19q0 11 25 14q38 5 70.5 20.5t49 28t19.5 12.5q12 0 12 -14q-2 -11 -5 -32t-7 -96t-2 -163q29 140 115 222.5t202 82.5
q144 0 213.5 -79.5t69.5 -249.5v-308q0 -68 4.5 -99t16 -45t38.5 -21z" />
    <glyph glyph-name="ograve" unicode="&#xf2;" horiz-adv-x="952" 
d="M590 924l-8 4q-150 94 -338 231q-55 40 -43 74q15 53 63 41q15 2 129 -117l88 -94l117 -121q7 -7 4 -12q-3 -9 -12 -6zM190 705q107 122 287 122q181 0 285 -122q106 -121 106 -308q0 -186 -106 -307t-285 -121q-178 0 -287 121q-104 122 -104 307q0 186 104 308z
M248 100q82 -102 229 -102q149 0 228 102q81 103 81 297t-81 297q-79 105 -228 105q-147 0 -229 -105q-80 -106 -80 -297t80 -297z" />
    <glyph glyph-name="oacute" unicode="&#xf3;" horiz-adv-x="952" 
d="M328 924q-10 -3 -13 6l4 12q13 13 36 37t42.5 44.5t36.5 39.5l90 94l58 60q55 55 71 57q52 9 66 -41q9 -33 -45 -74q-188 -137 -338 -231zM190 705q107 122 287 122q181 0 285 -122q106 -121 106 -308q0 -186 -106 -307t-285 -121q-178 0 -287 121q-104 122 -104 307
q0 186 104 308zM248 100q82 -102 229 -102q149 0 228 102q81 103 81 297t-81 297q-79 105 -228 105q-147 0 -229 -105q-80 -106 -80 -297t80 -297z" />
    <glyph glyph-name="ocircumflex" unicode="&#xf4;" horiz-adv-x="952" 
d="M231 1036q-14 0 -14 15q0 11 19 36l92 103q47 54 67 74q26 31 40.5 39t45.5 8q9 0 16 -0.5t12 -1t10.5 -3.5t8.5 -4t8 -5.5t7.5 -6.5t9.5 -9.5t10 -10.5q135 -147 158 -176q24 -27 24 -43q0 -15 -14 -15t-102 76l-146 127h-4q-49 -42 -118 -103q-76 -66 -97.5 -83
t-32.5 -17zM190 705q107 122 287 122q181 0 285 -122q106 -121 106 -308q0 -186 -106 -307t-285 -121q-178 0 -287 121q-104 122 -104 307q0 186 104 308zM248 100q82 -102 229 -102q149 0 228 102q81 103 81 297t-81 297q-79 105 -228 105q-147 0 -229 -105
q-80 -106 -80 -297t80 -297z" />
    <glyph glyph-name="otilde" unicode="&#xf5;" horiz-adv-x="952" 
d="M242 1032q-16 0 -13 19q15 163 117 163q52 0 129 -47q82 -43 115 -43q65 3 74 62q3 20 14 20q16 0 16 -22q0 -56 -31 -94.5t-83 -38.5q-42 0 -125 45q-82 43 -113 43q-69 -3 -82 -86q-6 -21 -18 -21zM190 705q107 122 287 122q181 0 285 -122q106 -121 106 -308
q0 -186 -106 -307t-285 -121q-178 0 -287 121q-104 122 -104 307q0 186 104 308zM248 100q82 -102 229 -102q149 0 228 102q81 103 81 297t-81 297q-79 105 -228 105q-147 0 -229 -105q-80 -106 -80 -297t80 -297z" />
    <glyph glyph-name="odieresis" unicode="&#xf6;" horiz-adv-x="952" 
d="M295 1112q23 23 58 23t55 -23q23 -20 23 -55t-23 -58q-20 -20 -55 -20t-58 20q-20 23 -20 58t20 55zM547 1112q23 23 57.5 23t54.5 -23q23 -20 23 -55t-23 -58q-20 -20 -54.5 -20t-57.5 20q-20 23 -20 58t20 55zM190 705q107 122 287 122q181 0 285 -122
q106 -121 106 -308q0 -186 -106 -307t-285 -121q-178 0 -287 121q-104 122 -104 307q0 186 104 308zM248 100q82 -102 229 -102q149 0 228 102q81 103 81 297t-81 297q-79 105 -228 105q-147 0 -229 -105q-80 -106 -80 -297t80 -297z" />
    <glyph glyph-name="divide" unicode="&#xf7;" horiz-adv-x="1146" 
d="M563 842q47 0 47 -47q0 -50 -47 -50q-22 0 -34 15t-12 33.5t12 33.5t34 15zM266 561h615q17 0 17 -24.5t-17 -24.5h-615q-17 0 -17 24.5t17 24.5zM563 313q47 0 47 -47q0 -49 -47 -49q-22 0 -34 15t-12 33t12 33t34 15z" />
    <glyph glyph-name="oslash" unicode="&#xf8;" horiz-adv-x="954" 
d="M731 735q137 -119 137 -336q0 -186 -106 -307t-285 -121q-113 0 -198 52l-105 -166q-8 -13 -21.5 -18t-23.5 -1.5t-10 12.5q0 7 6 19l115 180q-154 121 -154 350q0 187 104 306q107 122 287 122q121 0 215 -61l109 172q16 23 37 23q20 0 20 -13t-6 -22zM168 399
q0 -207 94 -311l408 643q-74 68 -193 68q-148 0 -228.5 -104t-80.5 -296zM477 0q148 0 228.5 103.5t80.5 295.5t-81 295l-406 -641q71 -53 178 -53z" />
    <glyph glyph-name="ugrave" unicode="&#xf9;" horiz-adv-x="972" 
d="M254 1159q-55 40 -43 74q15 53 63 41q15 2 129 -117l89 -94l116 -121q7 -7 4 -12q-3 -9 -12 -6l-8 4q-150 94 -338 231zM897 45q27 -6 27 -16q0 -12 -23 -15q-34 -4 -61.5 -12.5t-41 -15t-14.5 -6.5q-16 0 -16 14q-9 38 -12 239h-2q-31 -124 -115 -194t-207 -70
q-268 0 -268 322v280q0 91 -11.5 123t-50.5 51q-24 8 -31.5 13t-7.5 14q0 12 21 12q18 0 39.5 3.5t38.5 9t31.5 10.5t22.5 9l9 3q17 0 17 -18q-13 -56 -13 -230v-270q0 -287 226 -287q128 0 207 101q81 100 81 264v2q0 149 -2 204t-12 93q-7 39 -17 48.5t-42 16.5
q-40 15 -43 27q0 14 20 14q32 0 60 3.5t46 9t31 10.5t20.5 8.5t8.5 3.5q12 0 12 -12l-8 -33q-8 -31 -8 -74v-534q0 -58 20 -83t68 -38z" />
    <glyph glyph-name="uacute" unicode="&#xfa;" horiz-adv-x="972" 
d="M338 924q-9 -3 -12 6l4 12q97 102 114 121l91 94l57 60q54 55 72 57q51 9 65 -41q9 -33 -45 -74q-188 -137 -338 -231zM897 45q27 -6 27 -16q0 -12 -23 -15q-34 -4 -61.5 -12.5t-41 -15t-14.5 -6.5q-16 0 -16 14q-9 38 -12 239h-2q-31 -124 -115 -194t-207 -70
q-268 0 -268 322v280q0 91 -11.5 123t-50.5 51q-24 8 -31.5 13t-7.5 14q0 12 21 12q18 0 39.5 3.5t38.5 9t31.5 10.5t22.5 9l9 3q17 0 17 -18q-13 -56 -13 -230v-270q0 -287 226 -287q128 0 207 101q81 100 81 264v2q0 149 -2 204t-12 93q-7 39 -17 48.5t-42 16.5
q-40 15 -43 27q0 14 20 14q32 0 60 3.5t46 9t31 10.5t20.5 8.5t8.5 3.5q12 0 12 -12l-8 -33q-8 -31 -8 -74v-534q0 -58 20 -83t68 -38z" />
    <glyph glyph-name="ucircumflex" unicode="&#xfb;" horiz-adv-x="972" 
d="M238 971q-15 0 -15 14q0 12 19 37l92 102q47 54 67 74q26 31 40.5 39t45.5 8q9 0 16 -0.5t12 -1t10.5 -3.5t8.5 -4t8 -5.5t7.5 -6.5t9.5 -9.5t10 -10.5q135 -147 158 -176q25 -28 25 -43q0 -14 -15 -14q-14 0 -102 76l-146 127h-4q-54 -46 -127 -110q-70 -62 -90 -77.5
t-30 -15.5zM897 45q27 -6 27 -16q0 -12 -23 -15q-34 -4 -61.5 -12.5t-41 -15t-14.5 -6.5q-16 0 -16 14q-9 38 -12 239h-2q-31 -124 -115 -194t-207 -70q-268 0 -268 322v280q0 91 -11.5 123t-50.5 51q-24 8 -31.5 13t-7.5 14q0 12 21 12q18 0 39.5 3.5t38.5 9t31.5 10.5
t22.5 9l9 3q17 0 17 -18q-13 -56 -13 -230v-270q0 -287 226 -287q128 0 207 101q81 100 81 264v2q0 149 -2 204t-12 93q-7 39 -17 48.5t-42 16.5q-40 15 -43 27q0 14 20 14q32 0 60 3.5t46 9t31 10.5t20.5 8.5t8.5 3.5q12 0 12 -12l-8 -33q-8 -31 -8 -74v-534q0 -58 20 -83
t68 -38z" />
    <glyph glyph-name="udieresis" unicode="&#xfc;" horiz-adv-x="972" 
d="M418 999q-20 -20 -55 -20t-58 20q-20 23 -20 58t20 55q23 23 58 23t55 -23q23 -20 23 -55t-23 -58zM670 999q-20 -20 -55 -20t-58 20q-20 23 -20 58t20 55q23 23 58 23t55 -23q23 -20 23 -55t-23 -58zM897 45q27 -6 27 -16q0 -12 -23 -15q-34 -4 -61.5 -12.5t-41 -15
t-14.5 -6.5q-16 0 -16 14q-9 38 -12 239h-2q-31 -124 -115 -194t-207 -70q-268 0 -268 322v280q0 91 -11.5 123t-50.5 51q-24 8 -31.5 13t-7.5 14q0 12 21 12q18 0 39.5 3.5t38.5 9t31.5 10.5t22.5 9l9 3q17 0 17 -18q-13 -56 -13 -230v-270q0 -287 226 -287q128 0 207 101
q81 100 81 264v2q0 149 -2 204t-12 93q-7 39 -17 48.5t-42 16.5q-40 15 -43 27q0 14 20 14q32 0 60 3.5t46 9t31 10.5t20.5 8.5t8.5 3.5q12 0 12 -12l-8 -33q-8 -31 -8 -74v-534q0 -58 20 -83t68 -38z" />
    <glyph glyph-name="yacute" unicode="&#xfd;" horiz-adv-x="921" 
d="M326 924q-10 -3 -13 6l4 12q13 13 36 37t42.5 44.5t36.5 39.5l90 94l58 60q55 55 71 57q52 9 66 -41q9 -33 -45 -74q-188 -137 -338 -231zM117 -262q20 0 61 -41q40 -43 66 -43q35 0 106 129q74 130 74 180q0 53 -287 721q-21 43 -38 60.5t-52 27.5q-43 12 -41 29
q2 11 19 12q11 0 55 -8q52 -6 70 -6q22 0 65 6q47 6 53 6q17 0 17 -14q0 -16 -35 -25q-37 -6 -37 -49q0 -41 106 -297q102 -247 156 -365l4 -4l4 4q18 49 76 177q64 138 125 294q57 137 57 183q0 27 -16.5 40t-65.5 23q-13 3 -18 11t-0.5 15t16.5 7l43 -6q44 -6 72 -6
q30 0 74 6t45 6q13 0 14 -12q2 -15 -20 -21h-2q-38 -8 -61 -32.5t-52 -90.5l-324 -743q-71 -172 -138 -255t-154 -83q-111 0 -111 86q0 36 21 57t53 21z" />
    <glyph glyph-name="thorn" unicode="&#xfe;" horiz-adv-x="1005" 
d="M559 827q153 0 256 -112q105 -114 105 -305q0 -193 -107 -318q-108 -123 -254 -123q-229 0 -311 199l2 -401q0 -72 20 -102t74 -50q45 -14 43 -30q-1 -9 -14 -9q-12 0 -64 8q-59 6 -92 6q-31 0 -84 -6q-47 -8 -53 -8q-15 0 -14 11q0 15 36 28q51 21 68 47q14 22 14 105
v1005q0 172 -14 213q-14 44 -78 78q-3 1 -9 4q-36 14 -39 22l-1 5q0 14 18 14q54 0 97.5 15t66 30.5t25.5 15.5q14 0 14 -12q0 -8 -10 -100t-10 -121l2 -332q88 223 313 223zM559 0q129 0 204 102t75 308q0 189 -78 289t-201 100q-141 0 -223 -99t-90 -276l2 -80
q7 -167 92.5 -255.5t218.5 -88.5z" />
    <glyph glyph-name="ydieresis" unicode="&#xff;" horiz-adv-x="921" 
d="M293 1112q23 23 58 23t55 -23q23 -20 23 -55t-23 -58q-20 -20 -55 -20t-58 20q-20 23 -20 58t20 55zM545 1112q23 23 57.5 23t54.5 -23q23 -20 23 -55t-23 -58q-20 -20 -54.5 -20t-57.5 20q-20 23 -20 58t20 55zM117 -262q20 0 61 -41q40 -43 66 -43q35 0 106 129
q74 130 74 180q0 53 -287 721q-21 43 -38 60.5t-52 27.5q-43 12 -41 29q2 11 19 12q11 0 55 -8q52 -6 70 -6q22 0 65 6q47 6 53 6q17 0 17 -14q0 -16 -35 -25q-37 -6 -37 -49q0 -41 106 -297q102 -247 156 -365l4 -4l4 4q18 49 76 177q64 138 125 294q57 137 57 183
q0 27 -16.5 40t-65.5 23q-13 3 -18 11t-0.5 15t16.5 7l43 -6q44 -6 72 -6q30 0 74 6t45 6q13 0 14 -12q2 -15 -20 -21h-2q-38 -8 -61 -32.5t-52 -90.5l-324 -743q-71 -172 -138 -255t-154 -83q-111 0 -111 86q0 36 21 57t53 21z" />
    <glyph glyph-name="Amacron" unicode="&#x100;" horiz-adv-x="1304" 
d="M440 1544q33 0 76 -2q45 -2 100 -2q66 0 117 2t90 2q25 0 25 -18q0 -41 -31 -41q-55 0 -98 2t-94 2q-54 0 -103 -2q-47 -2 -90 -2q-24 0 -24 20q0 39 32 39zM944 -10q-22 0 -21 12q1 14 35 21q74 24 74 90q0 32 -92 282q-7 18 -27 21q-35 6 -319 6q-223 0 -250 -6
q-16 -3 -22 -21l-66 -178q-16 -53 -16 -84q0 -79 98 -113q31 -6 31 -18q0 -14 -19 -14q-2 0 -69 6q-65 6 -107 6q-34 0 -80 -6t-51 -6q-20 0 -20 14q0 12 30 21q67 22 90 55q22 32 82 170q149 372 332 885q25 73 25 75q0 26 -56 47q-22 6 -22 19q0 16 20 16q30 0 57 4t45 10
t31.5 11.5t20.5 9.5t8 4q16 0 16 -14q0 -3 -7 -15t-7 -18q0 -19 14 -57l392 -1032q36 -91 55 -119q23 -29 65 -41q56 -14 54 -32q-1 -11 -19 -11q-7 0 -63 6q-74 4 -86 4q-8 0 -90 -4q-58 -6 -66 -6zM604 453q215 0 293 10q14 0 14 8l-4 16l-278 734q-3 7 -6 2l-273 -744
q-2 -2 -2 -12q0 -5 8 -8q27 -6 248 -6z" />
    <glyph glyph-name="amacron" unicode="&#x101;" horiz-adv-x="935" 
d="M238 1032q-25 0 -25 21q0 39 33 39t76 -2q68 -3 100 -3q40 0 117 3q51 2 90 2q24 0 24 -19q0 -41 -30 -41q-56 0 -99 2t-94 2q-53 0 -102 -2q-47 -2 -90 -2zM901 59q0 -41 -26 -65.5t-70 -24.5q-59 0 -86 35t-27 109v90q-43 -107 -139 -170.5t-199 -63.5
q-123 0 -191.5 52t-68.5 143q0 151 172 213q149 53 426 65v35q0 322 -276 322q-86 0 -139.5 -29.5t-53.5 -71.5q0 -12 17.5 -43t17.5 -47q0 -27 -19 -44t-51 -17q-69 0 -69 84q0 79 83 137.5t222 58.5q342 0 342 -364v-354q0 -99 51 -99q47 0 53 47q1 13 8.5 18t15 0.5
t7.5 -16.5zM358 -2q136 0 234 98q100 100 100 279v45q-349 -15 -450 -94q-70 -52 -70 -152q0 -176 186 -176z" />
    <glyph glyph-name="Abreve" unicode="&#x102;" horiz-adv-x="1304" 
d="M395 1589q0 23 15 23q12 0 18 -19q37 -112 199 -112q164 0 198 112q6 19 19 19q14 0 14 -21q0 -70 -63 -122t-168 -52t-168.5 52t-63.5 120zM1214 33q56 -14 54 -32q-1 -11 -19 -11q-7 0 -63 6q-74 4 -86 4q-8 0 -90 -4q-58 -6 -66 -6q-22 0 -21 12q1 14 35 21
q74 24 74 90q0 32 -92 282q-7 18 -27 21q-35 6 -319 6q-223 0 -250 -6q-16 -3 -22 -21l-66 -178q-16 -53 -16 -84q0 -79 98 -113q31 -6 31 -18q0 -14 -19 -14q-2 0 -69 6q-65 6 -107 6q-34 0 -80 -6t-51 -6q-20 0 -20 14q0 12 30 21q67 22 90 55q22 32 82 170
q149 372 332 885q25 73 25 75q0 26 -56 47q-22 6 -22 19q0 16 20 16q30 0 57 4t45 10t31.5 11.5t20.5 9.5t8 4q16 0 16 -14q0 -3 -7 -15t-7 -18q0 -19 14 -57l392 -1032q36 -91 55 -119q23 -29 65 -41zM897 463q14 0 14 8l-4 16l-278 734q-3 7 -6 2l-273 -744q-2 -2 -2 -12
q0 -5 8 -8q27 -6 248 -6q215 0 293 10z" />
    <glyph glyph-name="abreve" unicode="&#x103;" horiz-adv-x="935" 
d="M201 1241q0 23 14 23q12 0 18 -19q14 -82 58 -117.5t141 -35.5t141 36t58 117q6 19 18 19q15 0 15 -21q0 -97 -60 -156t-172 -59t-171.5 58.5t-59.5 154.5zM901 59q0 -41 -26 -65.5t-70 -24.5q-59 0 -86 35t-27 109v90q-43 -107 -139 -170.5t-199 -63.5q-123 0 -191.5 52
t-68.5 143q0 151 172 213q149 53 426 65v35q0 322 -276 322q-86 0 -139.5 -29.5t-53.5 -71.5q0 -12 17.5 -43t17.5 -47q0 -27 -19 -44t-51 -17q-69 0 -69 84q0 79 83 137.5t222 58.5q342 0 342 -364v-354q0 -99 51 -99q47 0 53 47q1 13 8.5 18t15 0.5t7.5 -16.5zM358 -2
q136 0 234 98q100 100 100 279v45q-349 -15 -450 -94q-70 -52 -70 -152q0 -176 186 -176z" />
    <glyph glyph-name="Aogonek" unicode="&#x104;" horiz-adv-x="1304" 
d="M1214 33q56 -14 54 -32q-1 -11 -19 -11q-7 0 -63 6q-74 4 -86 4q-8 0 -86 -4q-58 -6 -68 -6l-39 -29q-87 -68 -126.5 -125t-39.5 -123q0 -125 117 -125q31 0 74 19q43 18 47 18q14 0 -2 -22q-64 -58 -152 -58q-79 0 -123.5 41t-44.5 113q0 85 64.5 156.5t206.5 156.5
q14 7 30 11q74 24 74 90q0 32 -92 282q-7 18 -27 21q-35 6 -319 6q-223 0 -250 -6q-16 -3 -22 -21l-66 -178q-16 -53 -16 -84q0 -79 98 -113q31 -6 31 -18q0 -14 -19 -14q-2 0 -69 6q-65 6 -107 6q-34 0 -80 -6t-51 -6q-20 0 -20 14q0 12 30 21q67 22 90 55q22 32 82 170
q149 372 332 885q25 73 25 75q0 26 -56 47q-22 6 -22 19q0 16 20 16q30 0 57 4t45 10t31.5 11.5t20.5 9.5t8 4q16 0 16 -14q0 -3 -7 -15t-7 -18q0 -19 14 -57l392 -1032q36 -91 55 -119q23 -29 65 -41zM897 463q14 0 14 8l-4 16l-278 734q-3 7 -6 2l-273 -744q-2 -2 -2 -12
q0 -5 8 -8q27 -6 248 -6q215 0 293 10z" />
    <glyph glyph-name="aogonek" unicode="&#x105;" horiz-adv-x="935" 
d="M901 -367q14 0 -2 -22q-63 -57 -151 -57q-79 0 -123.5 40.5t-44.5 112.5q0 135 194 264q-82 18 -82 142v90q-43 -107 -139 -170.5t-199 -63.5q-123 0 -191.5 52t-68.5 143q0 151 172 213q149 53 426 65v35q0 322 -276 322q-86 0 -139.5 -29.5t-53.5 -71.5q0 -12 17.5 -43
t17.5 -47q0 -27 -19 -44t-51 -17q-69 0 -69 84q0 79 83 137.5t222 58.5q342 0 342 -364v-354q0 -99 51 -99q16 0 23.5 5t9.5 5h4q12 12 16 37q1 13 8.5 18t15 0.5t7.5 -16.5q0 -26 -8 -39h6l-8 -6q-16 -32 -57 -41l-5 -4q-87 -68 -126 -125t-39 -123q0 -124 116 -124
q34 0 74 18q44 18 47 18zM358 -2q136 0 234 98q100 100 100 279v45q-349 -15 -450 -94q-70 -52 -70 -152q0 -176 186 -176z" />
    <glyph glyph-name="Cacute" unicode="&#x106;" horiz-adv-x="1298" 
d="M512 1393q-8 0 -8 10q0 4 8 12l195 115q67 42 124 74q62 36 91 36q21 0 36 -15t15 -40q0 -38 -62 -59q-261 -94 -381 -129zM1192 449q16 0 16 -15q0 2 -1 -27.5t-2 -79t-2 -107.5t-2 -123t-1 -115q0 -13 -12 -15t-19 19q-3 11 -4 28q-1 49 -8.5 64.5t-26.5 15.5
q-11 0 -52 -19.5t-91.5 -43t-133.5 -43t-167 -19.5q-252 0 -418 193t-166 481q0 287 170 481q171 195 422 195q88 0 178.5 -26.5t147.5 -52.5t63 -26q12 0 18.5 13t10.5 53q6 38 24 39q13 -3 15 -19q0 -98 10 -221q7 -80 16 -146t14 -92l5 -26q0 -12 -12 -12q-20 0 -23 18
l-14 56q-53 217 -162.5 315t-290.5 98q-188 0 -336 -137q-77 -71 -122.5 -204t-45.5 -306q0 -172 45 -304t123 -206q147 -135 328 -135q212 0 326 83.5t145 256.5l14 90q6 21 21 21z" />
    <glyph glyph-name="cacute" unicode="&#x107;" horiz-adv-x="888" 
d="M338 924q-9 -3 -12 6l4 12q97 102 114 121l91 94l57 60q54 55 72 57q51 9 65 -41q9 -33 -45 -74q-188 -137 -338 -231zM817 260q12 0 12 -12v-4q-25 -125 -113.5 -200t-242.5 -75q-171 0 -278 119q-109 121 -109 309q0 196 119 312q118 118 272 118q94 0 168 -26
q21 -7 41 -13.5t28 -9t9 -2.5q25 0 37 35q6 16 18 16q15 0 15 -18q0 -43 2.5 -88t5.5 -78t6 -59.5t5.5 -40.5t2.5 -13q0 -16 -16 -16q-13 0 -19 21q-38 147 -107.5 205.5t-199.5 58.5q-103 0 -199 -78q-51 -42 -81.5 -126t-30.5 -192q0 -182 94 -286q94 -105 229 -105
q245 0 316 232q6 16 16 16z" />
    <glyph glyph-name="Cdotaccent" unicode="&#x10a;" horiz-adv-x="1298" 
d="M719 1432q-49 -4 -69.5 40t0 87.5t69.5 37.5q37 0 59.5 -22t22.5 -59q0 -38 -22.5 -61t-59.5 -23zM1192 449q16 0 16 -15q0 2 -1 -27.5t-2 -79t-2 -107.5t-2 -123t-1 -115q0 -13 -12 -15t-19 19q-3 11 -4 28q-1 49 -8.5 64.5t-26.5 15.5q-11 0 -52 -19.5t-91.5 -43
t-133.5 -43t-167 -19.5q-252 0 -418 193t-166 481q0 287 170 481q171 195 422 195q88 0 178.5 -26.5t147.5 -52.5t63 -26q12 0 18.5 13t10.5 53q6 38 24 39q13 -3 15 -19q0 -98 10 -221q7 -80 16 -146t14 -92l5 -26q0 -12 -12 -12q-20 0 -23 18l-14 56q-53 217 -162.5 315
t-290.5 98q-188 0 -336 -137q-77 -71 -122.5 -204t-45.5 -306q0 -172 45 -304t123 -206q147 -135 328 -135q212 0 326 83.5t145 256.5l14 90q6 21 21 21z" />
    <glyph glyph-name="cdotaccent" unicode="&#x10b;" horiz-adv-x="888" 
d="M487 1124q-49 -4 -69.5 40.5t0 88t69.5 37.5q37 0 59.5 -22.5t22.5 -59.5q0 -38 -22.5 -61t-59.5 -23zM817 260q12 0 12 -12v-4q-25 -125 -113.5 -200t-242.5 -75q-171 0 -278 119q-109 121 -109 309q0 196 119 312q118 118 272 118q94 0 168 -26q21 -7 41 -13.5t28 -9
t9 -2.5q25 0 37 35q6 16 18 16q15 0 15 -18q0 -43 2.5 -88t5.5 -78t6 -59.5t5.5 -40.5t2.5 -13q0 -16 -16 -16q-13 0 -19 21q-38 147 -107.5 205.5t-199.5 58.5q-103 0 -199 -78q-51 -42 -81.5 -126t-30.5 -192q0 -182 94 -286q94 -105 229 -105q245 0 316 232q6 16 16 16z
" />
    <glyph glyph-name="Ccaron" unicode="&#x10c;" horiz-adv-x="1298" 
d="M463 1683q16 0 78 -49q13 -8 39 -26t64.5 -45.5t66.5 -46.5h4q32 23 63 44.5t51.5 36t39.5 28t30.5 21.5t22 15.5t16 11t11 6t8.5 3.5t6 1q14 0 14 -14q0 -13 -121 -125q-20 -16 -59 -55l-31 -31t-24 -18t-29 -10q-7 0 -14.5 2.5t-13 6t-14.5 11t-14 12.5t-16 16.5
t-16 16.5q-162 149 -172 164q-4 8 -4 10q0 14 14 14zM1192 449q16 0 16 -15q0 2 -1 -27.5t-2 -79t-2 -107.5t-2 -123t-1 -115q0 -13 -12 -15t-19 19q-3 11 -4 28q-1 49 -8.5 64.5t-26.5 15.5q-11 0 -52 -19.5t-91.5 -43t-133.5 -43t-167 -19.5q-252 0 -418 193t-166 481
q0 287 170 481q171 195 422 195q88 0 178.5 -26.5t147.5 -52.5t63 -26q12 0 18.5 13t10.5 53q6 38 24 39q13 -3 15 -19q0 -98 10 -221q7 -80 16 -146t14 -92l5 -26q0 -12 -12 -12q-20 0 -23 18l-14 56q-53 217 -162.5 315t-290.5 98q-188 0 -336 -137q-77 -71 -122.5 -204
t-45.5 -306q0 -172 45 -304t123 -206q147 -135 328 -135q212 0 326 83.5t145 256.5l14 90q6 21 21 21z" />
    <glyph glyph-name="ccaron" unicode="&#x10d;" horiz-adv-x="888" 
d="M238 1208q11 0 33 -17.5t98 -83.5q68 -60 116 -101h4l230 196q9 6 18 6q23 0 10 -29q-6 -13 -20 -30l-158 -174q-31 -31 -42 -35q-14 -6 -40 -6q-13 1 -19 2t-14 3t-10 3t-8.5 5.5t-8.5 7t-11 11.5l-15 15q-20 20 -67 74q-108 123 -111 139q0 14 15 14zM817 260
q12 0 12 -12v-4q-25 -125 -113.5 -200t-242.5 -75q-171 0 -278 119q-109 121 -109 309q0 196 119 312q118 118 272 118q94 0 168 -26q21 -7 41 -13.5t28 -9t9 -2.5q25 0 37 35q6 16 18 16q15 0 15 -18q0 -43 2.5 -88t5.5 -78t6 -59.5t5.5 -40.5t2.5 -13q0 -16 -16 -16
q-13 0 -19 21q-38 147 -107.5 205.5t-199.5 58.5q-103 0 -199 -78q-51 -42 -81.5 -126t-30.5 -192q0 -182 94 -286q94 -105 229 -105q245 0 316 232q6 16 16 16z" />
    <glyph glyph-name="Dcaron" unicode="&#x10e;" horiz-adv-x="1394" 
d="M553 1495q-162 149 -172 164q-4 8 -4 10q0 14 14 14q16 0 78 -49q13 -8 39 -26t64.5 -45.5t66.5 -46.5h4q32 23 63 44.5t51.5 36t39.5 28t30.5 21.5t22 15.5t16 11t11 6t8.5 3.5t6 1q14 0 14 -14q0 -13 -121 -125q-20 -16 -59 -55l-31 -31t-24 -18t-29 -10
q-7 0 -14.5 2.5t-13 6t-14.5 11t-14 12.5t-16 16.5t-16 16.5zM582 1309q310 0 510 -191t200 -469q0 -280 -200 -477q-201 -195 -510 -195q-58 0 -172 13q-105 12 -138 12q-32 0 -63 -2q-13 -1 -25.5 -2t-18 -1.5t-7.5 -0.5q-15 0 -15 12q0 5 3.5 7.5t9 4t17 5.5t22.5 10
q33 11 36 96q7 96 7 526q0 401 -9 492q-6 93 -41 108l-9 4.5t-11 4.5q-25 9 -25 18q0 12 15 12q1 0 5.5 -0.5t15 -1.5t22.5 -2q29 -2 71 -2q34 0 138 8q147 11 172 11zM582 4q272 0 446 162q176 164 176 483q0 322 -176 475q-175 156 -446 156q-239 0 -260 -68
q-15 -40 -15 -555q0 -542 19 -591q24 -62 256 -62z" />
    <glyph glyph-name="dcaron" unicode="&#x10f;" horiz-adv-x="1142" 
d="M938 45q31 -6 31 -14q0 -14 -25 -17q-33 -3 -72.5 -12t-65 -15.5t-28.5 -6.5q-12 0 -12 14l2 28q2 27 4 69.5t2 80.5h-2q-86 -203 -307 -203q-157 0 -268 117q-111 120 -111 301q0 198 111 318q110 122 268 122q212 0 297 -163h2v307q-3 170 -10 201.5t-46 47.5
q-2 1 -3 1q-61 21 -64 30q0 12 23 15q51 4 90.5 19.5t58.5 29.5t21 14q12 0 12 -12v-3q-1 -4 -2 -12.5t-2.5 -20t-2.5 -28.5t-2.5 -37t-3 -45.5t-2.5 -53.5t-1.5 -62t-0.5 -70v-819q0 -55 26 -81.5t83 -39.5zM1008 1311q122 0 122 -156q0 -99 -63 -156t-115 -57
q-18 0 -18 16q0 15 22 21q62 21 96.5 65.5t34.5 108.5q0 45 -16 45q-2 0 -14.5 -11t-30.5 -21.5t-33 -10.5q-32 0 -53.5 21t-21.5 53q0 36 26 59t64 23zM463 4q139 0 223.5 101t85.5 282q6 412 -309 412q-132 0 -214.5 -104t-82.5 -308q0 -195 88 -289t209 -94z" />
    <glyph glyph-name="Dcroat" unicode="&#x110;" horiz-adv-x="1394" 
d="M582 1309q310 0 510 -191t200 -469q0 -280 -200 -477q-201 -195 -510 -195q-58 0 -172 13q-105 12 -138 12q-32 0 -63 -2q-13 -1 -25.5 -2t-18 -1.5t-7.5 -0.5q-15 0 -15 12q0 5 3.5 7.5t9 4t17 5.5t22.5 10q33 11 36 96q7 96 7 492q-25 -2 -93 -2q-22 0 -22 26
q0 33 29 33q3 0 13.5 -0.5t31 -1.5t41.5 -2q0 386 -9 475q-6 91 -41 106l-9 4.5t-11 4.5q-25 9 -25 18q0 12 15 12q1 0 5.5 -0.5t15 -1.5t22.5 -2q29 -2 71 -2q34 0 138 8q147 11 172 11zM582 4q272 0 446 162q176 164 176 483q0 322 -176 475q-175 156 -446 156
q-239 0 -260 -68q-15 -40 -15 -538h27q88 0 158 2q30 1 59.5 2t44.5 1.5t20 0.5q27 0 27 -27q0 -14 -8.5 -23.5t-20.5 -8.5q-138 6 -274 6q-25 0 -33 -2q0 -513 19 -559q24 -62 256 -62z" />
    <glyph glyph-name="dslash" unicode="&#x111;" horiz-adv-x="997" 
d="M938 45q31 -6 31 -14q0 -14 -25 -17q-33 -3 -72.5 -12t-65 -15.5t-28.5 -6.5q-12 0 -12 14l2 28q2 27 4 69.5t2 80.5h-2q-86 -203 -307 -203q-157 0 -268 117q-111 120 -111 301q0 198 111 318q110 122 268 122q212 0 297 -163h2v301h-221q-23 0 -23 24q0 23 23 23h221
q-6 142 -13 168t-43 40q-2 1 -3 1q-61 21 -64 30q0 12 23 15q51 4 90.5 19.5t58.5 29.5t21 14q12 0 12 -12v-3q-1 -4 -2 -11.5t-2.5 -19t-2.5 -27t-2.5 -34t-3 -42t-2.5 -49t-1.5 -56.5t-0.5 -63h60q29 0 29 -23q0 -24 -29 -24h-60v-799q0 -55 26 -81.5t83 -39.5zM463 4
q139 0 223.5 101t85.5 282q6 412 -309 412q-132 0 -214.5 -104t-82.5 -308q0 -195 88 -289t209 -94z" />
    <glyph glyph-name="Emacron" unicode="&#x112;" horiz-adv-x="1114" 
d="M406 1485q-25 0 -25 20q0 39 33 39q32 0 75 -2q45 -2 101 -2q66 0 117 2t90 2q24 0 24 -18q0 -41 -30 -41q-56 0 -99 2t-94 2q-53 0 -102 -2q-47 -2 -90 -2zM1038 319l-6 -36q-16 -131 -16 -189q0 -14 3.5 -35t7 -36t3.5 -17q0 -12 -14 -12q-2 0 -32.5 0.5t-83.5 1.5
t-120.5 2t-160.5 1.5t-185 0.5q-218 0 -274 -6q-17 0 -17 12q0 3 0.5 4.5t2.5 3.5t4 3t6 2.5t7 2.5t9.5 3t11.5 4q49 15 64 55q24 62 24 430v131q0 469 -20 539q-12 52 -55 67l-13 4q-41 15 -41 29q0 12 17 12h8q9 -1 26.5 -2t38.5 -2q47 -2 117 -2q136 0 324 2t223 2
q20 0 50 1q42 1 49.5 0t7.5 -11q0 -2 -4 -17t-7.5 -36t-3.5 -35q0 -79 21 -176q0 -16 -13 -16q-16 0 -22 22q-41 159 -98 199q-56 39 -250 39q-139 0 -191 -9q-51 -9 -69 -30q-18 -25 -21 -99q-4 -102 -4 -381l2 3q0 -37 31 -46q27 -8 143 -8q139 0 180 35q42 36 60 145
q3 17 18 17q12 0 12 -14q0 -1 -1 -13t-3 -31.5t-4 -43.5t-3 -54t-1 -57q0 -30 1 -61.5t3 -54.5t4 -41t3 -28.5t1 -11.5q0 -14 -12 -14q-13 3 -16 18q-9 110 -55 144q-46 37 -187 37q-108 0 -145 -11q-29 -10 -29 -45q0 -429 14 -497q5 -23 17 -43q19 -25 64 -34t165 -9
q241 0 303 45q67 46 94 239q3 25 23 25q14 0 14 -17z" />
    <glyph glyph-name="emacron" unicode="&#x113;" horiz-adv-x="903" 
d="M276 1032q-24 0 -24 21q0 39 33 39q32 0 75 -2q68 -3 101 -3q41 0 117 3q51 2 90 2q24 0 24 -19q0 -41 -30 -41q-56 0 -99 2t-94 2q-53 0 -102 -2q-47 -2 -91 -2zM829 229q0 -2 -4 -18q-32 -105 -124 -173.5t-222 -68.5q-180 0 -289 127q-104 125 -104 301q0 178 109 305
q110 125 288 125q151 0 242 -88q92 -86 92 -211q0 -32 -9 -42.5t-38 -10.5l-602 2q-4 -66 -4 -74q0 -179 87 -286t238 -107q127 0 209 70q89 73 109 147q1 8 6.5 11t10.5 0.5t5 -9.5zM479 799q-120 0 -200.5 -77.5t-104.5 -209.5l559 4q12 0 12 21q0 102 -71 182t-195 80z
" />
    <glyph glyph-name="Edotaccent" unicode="&#x116;" horiz-adv-x="1114" 
d="M608 1432q-49 -4 -69.5 40t0 87.5t69.5 37.5q37 0 59.5 -22t22.5 -59q0 -38 -22.5 -61t-59.5 -23zM1038 319l-6 -36q-16 -131 -16 -189q0 -14 3.5 -35t7 -36t3.5 -17q0 -12 -14 -12q-2 0 -32.5 0.5t-83.5 1.5t-120.5 2t-160.5 1.5t-185 0.5q-218 0 -274 -6q-17 0 -17 12
q0 3 0.5 4.5t2.5 3.5t4 3t6 2.5t7 2.5t9.5 3t11.5 4q49 15 64 55q24 62 24 430v131q0 469 -20 539q-12 52 -55 67l-13 4q-41 15 -41 29q0 12 17 12h8q9 -1 26.5 -2t38.5 -2q47 -2 117 -2q136 0 324 2t223 2q20 0 50 1q42 1 49.5 0t7.5 -11q0 -2 -4 -17t-7.5 -36t-3.5 -35
q0 -79 21 -176q0 -16 -13 -16q-16 0 -22 22q-41 159 -98 199q-56 39 -250 39q-139 0 -191 -9q-51 -9 -69 -30q-18 -25 -21 -99q-4 -102 -4 -381l2 3q0 -37 31 -46q27 -8 143 -8q139 0 180 35q42 36 60 145q3 17 18 17q12 0 12 -14q0 -1 -1 -13t-3 -31.5t-4 -43.5t-3 -54
t-1 -57q0 -30 1 -61.5t3 -54.5t4 -41t3 -28.5t1 -11.5q0 -14 -12 -14q-13 3 -16 18q-9 110 -55 144q-46 37 -187 37q-108 0 -145 -11q-29 -10 -29 -45q0 -429 14 -497q5 -23 17 -43q19 -25 64 -34t165 -9q241 0 303 45q67 46 94 239q3 25 23 25q14 0 14 -17z" />
    <glyph glyph-name="edotaccent" unicode="&#x117;" horiz-adv-x="903" 
d="M471 1124q-49 -4 -69.5 40.5t0 88t69.5 37.5q37 0 59.5 -22.5t22.5 -59.5q0 -38 -22.5 -61t-59.5 -23zM829 229q0 -2 -4 -18q-32 -105 -124 -173.5t-222 -68.5q-180 0 -289 127q-104 125 -104 301q0 178 109 305q110 125 288 125q151 0 242 -88q92 -86 92 -211
q0 -32 -9 -42.5t-38 -10.5l-602 2q-4 -66 -4 -74q0 -179 87 -286t238 -107q127 0 209 70q89 73 109 147q1 8 6.5 11t10.5 0.5t5 -9.5zM479 799q-120 0 -200.5 -77.5t-104.5 -209.5l559 4q12 0 12 21q0 102 -71 182t-195 80z" />
    <glyph glyph-name="Eogonek" unicode="&#x118;" horiz-adv-x="1114" 
d="M1032 -391q12 -2 -2 -23q-63 -57 -151 -57q-79 0 -123.5 41t-44.5 113q0 86 63.5 157.5t204.5 153.5q-228 6 -545 6q-218 0 -274 -6q-17 0 -17 12q0 3 0.5 4.5t2.5 3.5t4 3t6 2.5t7 2.5t9.5 3t11.5 4q49 15 64 55q24 62 24 430v131q0 469 -20 539q-12 52 -55 67l-13 4
q-41 15 -41 29q0 12 17 12h8q9 -1 26.5 -2t38.5 -2q47 -2 117 -2q136 0 324 2t223 2q20 0 50 1q42 1 49.5 0t7.5 -11q0 -2 -4 -17t-7.5 -36t-3.5 -35q0 -79 21 -176q0 -16 -13 -16q-16 0 -22 22q-41 159 -98 199q-56 39 -250 39q-139 0 -191 -9q-51 -9 -69 -30
q-18 -25 -21 -99q-4 -102 -4 -381l2 3q0 -37 31 -46q27 -8 143 -8q139 0 180 35q42 36 60 145q3 17 18 17q12 0 12 -14q0 -1 -1 -13t-3 -31.5t-4 -43.5t-3 -54t-1 -57q0 -30 1 -61.5t3 -54.5t4 -41t3 -28.5t1 -11.5q0 -14 -12 -14q-13 3 -16 18q-9 110 -55 144
q-46 37 -187 37q-108 0 -145 -11q-29 -10 -29 -45q0 -429 14 -497q5 -23 17 -43q19 -25 64 -34t165 -9q241 0 303 45q67 46 94 239q3 25 23 25q14 0 14 -17l-6 -36q-16 -131 -16 -189q0 -14 3.5 -35t7 -36t3.5 -17q0 -6 -4 -10h4l-69 -51q-87 -68 -126.5 -125t-39.5 -123
q0 -125 116 -125q33 0 74 18q46 19 47 19z" />
    <glyph glyph-name="eogonek" unicode="&#x119;" horiz-adv-x="903" 
d="M829 229q0 -2 -4 -18q-28 -93 -100 -154h2l-10 -6q-10 -10 -31 -24l-29 -21q-87 -68 -126 -125t-39 -123q0 -125 116 -125q31 0 74 19q44 18 47 18q14 0 -2 -22q-64 -58 -152 -58q-79 0 -123 41t-44 113q0 123 147 231q-37 -6 -76 -6q-180 0 -289 127q-104 125 -104 301
q0 178 109 305q110 125 288 125q151 0 242 -88q92 -86 92 -211q0 -32 -9 -42.5t-38 -10.5l-602 2q-4 -66 -4 -74q0 -179 87 -286t238 -107q127 0 209 70q89 73 109 147q1 8 6.5 11t10.5 0.5t5 -9.5zM479 799q-120 0 -200.5 -77.5t-104.5 -209.5l559 4q12 0 12 21
q0 102 -71 182t-195 80z" />
    <glyph glyph-name="Ecaron" unicode="&#x11a;" horiz-adv-x="1114" 
d="M514 1495q-162 149 -172 164q-4 8 -4 10q0 14 14 14q16 0 78 -49q13 -8 39 -26t64.5 -45.5t66.5 -46.5h4q32 23 63 44.5t51.5 36t39.5 28t30.5 21.5t22 15.5t16 11t11 6t8.5 3.5t6 1q14 0 14 -14q0 -13 -121 -125q-20 -16 -59 -55l-31 -31t-24 -18t-29 -10
q-7 0 -14.5 2.5t-13 6t-14.5 11t-14 12.5t-16 16.5t-16 16.5zM1038 319l-6 -36q-16 -131 -16 -189q0 -14 3.5 -35t7 -36t3.5 -17q0 -12 -14 -12q-2 0 -32.5 0.5t-83.5 1.5t-120.5 2t-160.5 1.5t-185 0.5q-218 0 -274 -6q-17 0 -17 12q0 3 0.5 4.5t2.5 3.5t4 3t6 2.5t7 2.5
t9.5 3t11.5 4q49 15 64 55q24 62 24 430v131q0 469 -20 539q-12 52 -55 67l-13 4q-41 15 -41 29q0 12 17 12h8q9 -1 26.5 -2t38.5 -2q47 -2 117 -2q136 0 324 2t223 2q20 0 50 1q42 1 49.5 0t7.5 -11q0 -2 -4 -17t-7.5 -36t-3.5 -35q0 -79 21 -176q0 -16 -13 -16
q-16 0 -22 22q-41 159 -98 199q-56 39 -250 39q-139 0 -191 -9q-51 -9 -69 -30q-18 -25 -21 -99q-4 -102 -4 -381l2 3q0 -37 31 -46q27 -8 143 -8q139 0 180 35q42 36 60 145q3 17 18 17q12 0 12 -14q0 -1 -1 -13t-3 -31.5t-4 -43.5t-3 -54t-1 -57q0 -30 1 -61.5t3 -54.5
t4 -41t3 -28.5t1 -11.5q0 -14 -12 -14q-13 3 -16 18q-9 110 -55 144q-46 37 -187 37q-108 0 -145 -11q-29 -10 -29 -45q0 -429 14 -497q5 -23 17 -43q19 -25 64 -34t165 -9q241 0 303 45q67 46 94 239q3 25 23 25q14 0 14 -17z" />
    <glyph glyph-name="ecaron" unicode="&#x11b;" horiz-adv-x="903" 
d="M473 934q-13 1 -19 2t-14 3t-10 3t-8.5 5.5t-8.5 7t-11 11.5l-15 15q-28 27 -68 74q-106 121 -110 139q0 14 14 14q11 0 34.5 -18t107.5 -92q63 -55 106 -92h4l230 196q9 6 18 6q23 0 10 -29q-6 -13 -20 -30l-158 -174q-31 -31 -42 -35q-14 -6 -40 -6zM829 229
q0 -2 -4 -18q-32 -105 -124 -173.5t-222 -68.5q-180 0 -289 127q-104 125 -104 301q0 178 109 305q110 125 288 125q151 0 242 -88q92 -86 92 -211q0 -32 -9 -42.5t-38 -10.5l-602 2q-4 -66 -4 -74q0 -179 87 -286t238 -107q127 0 209 70q89 73 109 147q1 8 6.5 11t10.5 0.5
t5 -9.5zM479 799q-120 0 -200.5 -77.5t-104.5 -209.5l559 4q12 0 12 21q0 102 -71 182t-195 80z" />
    <glyph glyph-name="Gbreve" unicode="&#x11e;" horiz-adv-x="1329" 
d="M479 1733q0 22 15 22q12 0 18 -18q14 -82 58 -118t141 -36q96 0 140 36.5t58 117.5q6 18 19 18q14 0 14 -20q0 -97 -59.5 -156t-171.5 -59t-172 58.5t-60 154.5zM1288 496q15 0 15 -11t-38 -21t-44 -18q-21 -21 -21 -256v-192q0 -29 -16 -29q-12 0 -15 27
q-12 127 -39 127q-4 0 -11 -3.5t-18.5 -12.5t-21 -16.5t-27 -22t-28.5 -23.5q-39 -31 -122.5 -53.5t-182.5 -22.5q-272 0 -445 197q-172 199 -172 483q0 283 177 481q178 199 440 199q70 0 138.5 -15.5t110 -34.5t74.5 -34.5t41 -15.5q38 0 41 76q3 38 23 38q18 0 18 -18
q0 -74 3 -145.5t7.5 -121.5t9.5 -88.5t8 -60t3 -22.5q0 -9 -8 -12.5t-17 0.5t-12 16q-52 231 -160 319q-110 90 -280 90q-199 0 -352 -139q-80 -74 -126 -206.5t-46 -305.5q0 -328 151 -493q154 -160 373 -160q182 0 294.5 75t112.5 203v68q0 70 -10 91t-51 34q-31 9 -31 20
q0 13 15 13q3 0 47 -6q51 -7 63 -7q1 0 78 5q14 1 26 2l18 1.5t7 0.5z" />
    <glyph glyph-name="gbreve" unicode="&#x11f;" horiz-adv-x="851" 
d="M176 1241q0 23 14 23q13 0 19 -19q14 -82 58 -117.5t141 -35.5t140.5 36t57.5 117q6 19 19 19q14 0 14 -21q0 -97 -59.5 -156t-171.5 -59t-172 58.5t-60 154.5zM508 10q303 0 303 -192q0 -120 -111 -187q-109 -69 -270 -69q-175 0 -277 60.5t-102 168.5q0 71 40.5 118.5
t109.5 61.5q-99 27 -99 127q0 144 209 168q-100 27 -160.5 100.5t-60.5 174.5q0 131 94 207q94 79 234 79q84 0 143 -26q12 90 58.5 141t111.5 51q94 0 94 -78q0 -29 -18 -48t-45 -19q-42 0 -62 39q-15 35 -43 35q-54 0 -69 -134q157 -80 157 -247q0 -128 -96 -209
q-95 -80 -231 -80q-248 0 -248 -137q0 -55 34.5 -80t114.5 -25h189zM238 733q-70 -64 -70 -192t70 -195q71 -65 180 -65q107 0 178 65q72 69 72 195t-72 192t-178 66q-108 0 -180 -66zM434 -410q151 0 231 56t80 159q0 154 -208 154h-246q-162 -15 -162 -164
q0 -98 78.5 -151.5t226.5 -53.5z" />
    <glyph glyph-name="Gdotaccent" unicode="&#x120;" horiz-adv-x="1329" 
d="M717 1432q-49 -4 -69.5 40t0 87.5t69.5 37.5q37 0 59.5 -22t22.5 -59q0 -38 -22.5 -61t-59.5 -23zM1184 -31q-12 0 -15 27q-12 127 -39 127q-4 0 -11 -3.5t-18.5 -12.5t-21 -16.5t-27 -22t-28.5 -23.5q-39 -31 -122.5 -53.5t-182.5 -22.5q-272 0 -445 197
q-172 199 -172 483q0 283 177 481q178 199 440 199q70 0 138.5 -15.5t110 -34.5t74.5 -34.5t41 -15.5q38 0 41 76q3 38 23 38q18 0 18 -18q0 -74 3 -145.5t7.5 -121.5t9.5 -88.5t8 -60t3 -22.5q0 -9 -8 -12.5t-17 0.5t-12 16q-52 231 -160 319q-110 90 -280 90
q-199 0 -352 -139q-80 -74 -126 -206.5t-46 -305.5q0 -328 151 -493q154 -160 373 -160q182 0 294.5 75t112.5 203v68q0 70 -10 91t-51 34q-31 9 -31 20q0 13 15 13q3 0 47 -6q51 -7 63 -7q1 0 78 5q14 1 26 2l18 1.5t7 0.5q15 0 15 -11t-38 -21t-44 -18q-21 -21 -21 -256
v-192q0 -29 -16 -29z" />
    <glyph glyph-name="gdotaccent" unicode="&#x121;" horiz-adv-x="851" 
d="M410 1042q-49 -4 -69.5 40.5t0 88t69.5 37.5q37 0 59.5 -22.5t22.5 -59.5q0 -38 -22.5 -61t-59.5 -23zM508 10q303 0 303 -192q0 -120 -111 -187q-109 -69 -270 -69q-175 0 -277 60.5t-102 168.5q0 71 40.5 118.5t109.5 61.5q-99 27 -99 127q0 144 209 168
q-100 27 -160.5 100.5t-60.5 174.5q0 131 94 207q94 79 234 79q84 0 143 -26q12 90 58.5 141t111.5 51q94 0 94 -78q0 -29 -18 -48t-45 -19q-42 0 -62 39q-15 35 -43 35q-54 0 -69 -134q157 -80 157 -247q0 -128 -96 -209q-95 -80 -231 -80q-248 0 -248 -137q0 -55 34.5 -80
t114.5 -25h189zM238 733q-70 -64 -70 -192t70 -195q71 -65 180 -65q107 0 178 65q72 69 72 195t-72 192t-178 66q-108 0 -180 -66zM434 -410q151 0 231 56t80 159q0 154 -208 154h-246q-162 -15 -162 -164q0 -98 78.5 -151.5t226.5 -53.5z" />
    <glyph glyph-name="Gcommaaccent" unicode="&#x122;" horiz-adv-x="1329" 
d="M1184 -31q-12 0 -15 27q-12 127 -39 127q-4 0 -11 -3.5t-18.5 -12.5t-21 -16.5t-27 -22t-28.5 -23.5q-39 -31 -122.5 -53.5t-182.5 -22.5q-272 0 -445 197q-172 199 -172 483q0 283 177 481q178 199 440 199q70 0 138.5 -15.5t110 -34.5t74.5 -34.5t41 -15.5q38 0 41 76
q3 38 23 38q18 0 18 -18q0 -74 3 -145.5t7.5 -121.5t9.5 -88.5t8 -60t3 -22.5q0 -9 -8 -12.5t-17 0.5t-12 16q-52 231 -160 319q-110 90 -280 90q-199 0 -352 -139q-80 -74 -126 -206.5t-46 -305.5q0 -328 151 -493q154 -160 373 -160q182 0 294.5 75t112.5 203v68
q0 70 -10 91t-51 34q-31 9 -31 20q0 13 15 13q3 0 47 -6q51 -7 63 -7q1 0 78 5q14 1 26 2l18 1.5t7 0.5q15 0 15 -11t-38 -21t-44 -18q-21 -21 -21 -256v-192q0 -29 -16 -29zM676 -489q-19 0 -19 16q0 14 21 20q133 44 133 174q0 46 -16 46q-2 0 -14.5 -10.5t-30.5 -21.5
t-33 -11q-33 0 -54.5 20.5t-21.5 52.5q0 36 25.5 59t64.5 23q123 0 123 -155q0 -94 -66 -154q-65 -59 -112 -59z" />
    <glyph glyph-name="gcommaaccent" unicode="&#x123;" horiz-adv-x="851" 
d="M426 930q-121 0 -121 155q0 96 64 154q65 59 112 59q12 0 16.5 -7.5t-0.5 -16.5t-18 -12q-131 -43 -131 -175q0 -45 14 -45q2 0 14.5 11t30.5 21.5t33 10.5q33 0 54.5 -20.5t21.5 -52.5q0 -36 -25.5 -59t-64.5 -23zM508 10q303 0 303 -192q0 -120 -111 -187
q-109 -69 -270 -69q-175 0 -277 60.5t-102 168.5q0 71 40.5 118.5t109.5 61.5q-99 27 -99 127q0 144 209 168q-100 27 -160.5 100.5t-60.5 174.5q0 131 94 207q94 79 234 79q84 0 143 -26q12 90 58.5 141t111.5 51q94 0 94 -78q0 -29 -18 -48t-45 -19q-42 0 -62 39
q-15 35 -43 35q-54 0 -69 -134q157 -80 157 -247q0 -128 -96 -209q-95 -80 -231 -80q-248 0 -248 -137q0 -55 34.5 -80t114.5 -25h189zM238 733q-70 -64 -70 -192t70 -195q71 -65 180 -65q107 0 178 65q72 69 72 195t-72 192t-178 66q-108 0 -180 -66zM434 -410
q151 0 231 56t80 159q0 154 -208 154h-246q-162 -15 -162 -164q0 -98 78.5 -151.5t226.5 -53.5z" />
    <glyph glyph-name="Hbar" unicode="&#x126;" horiz-adv-x="1552" 
d="M1393 983q17 0 17 -24.5t-17 -24.5h-154v-277q0 -435 6 -530q9 -92 55 -107q36 -8 35 -22q0 -10 -14 -10q-7 0 -53 6t-64 6q-16 0 -63 -6t-54 -6q-14 0 -14 10q-1 14 35 22q47 15 53 107q8 84 8 530v277h-807v-277q0 -420 7 -530q9 -92 55 -107q36 -8 35 -22
q-1 -10 -15 -10q-6 0 -53 6t-63 6q-18 0 -64 -6t-53 -6q-14 0 -15 10q-1 14 35 22q48 15 54 107q8 84 8 530v277h-133q-17 0 -17 24.5t17 24.5h133q-3 169 -14 219q-12 59 -48 68q-37 8 -34 23q1 10 14 10q2 0 8 -1t19.5 -2.5t25.5 -3.5q46 -6 64 -6q16 0 63 6
q12 2 25.5 3.5t19.5 2.5t8 1q14 0 15 -11q0 -15 -35 -22q-35 -9 -47 -68q-12 -56 -15 -219h807q-3 169 -14 219q-12 59 -47 68q-37 8 -35 23q1 10 14 10q2 0 8 -1t20 -2.5t26 -3.5q47 -6 63 -6q18 0 64 6q12 2 25.5 3.5t19.5 2.5t8 1q14 0 14 -11q0 -15 -35 -22
q-35 -9 -47 -68q-11 -50 -14 -219h154zM766 657q263 0 338 7q65 6 65 36v-120q0 28 -63 34q-72 7 -340 7q-267 0 -342 -7q-62 -6 -62 -34v120q0 -30 62 -36q75 -7 342 -7z" />
    <glyph glyph-name="hbar" unicode="&#x127;" horiz-adv-x="1024" 
d="M909 25q25 -8 25 -22q-1 -11 -14 -11q-1 0 -5.5 0.5t-15 1.5t-22.5 2q-54 4 -64 4q-3 0 -57 -4q-12 -1 -22.5 -2t-15 -1.5t-5.5 -0.5q-14 0 -14 12q0 13 20 19q26 8 39 21.5t19.5 47.5t6.5 98v310q0 282 -217 282q-131 0 -219 -108q-88 -107 -88 -295v-186q0 -117 2 -130
q10 -25 64 -40q23 -7 20 -22q-2 -9 -14 -9q-2 0 -7.5 0.5t-17 1.5t-22.5 2q-54 4 -62 4q-12 0 -34.5 -2t-40.5 -4l-17 -2q-13 0 -14 11q-1 14 24 22q33 12 43 41q11 33 11 124v746h-154q-17 0 -17 24.5t17 24.5h154v117q0 71 -9.5 92t-46.5 33q-28 8 -34.5 12t-6.5 14
q0 12 21 15q36 5 68.5 20.5t49.5 28t19 12.5q16 0 16 -14q-12 -73 -12 -168v-162h191q17 0 17 -24.5t-17 -24.5h-191v-371q36 122 119 192t188 70q144 0 213.5 -79.5t69.5 -249.5v-308q0 -68 4.5 -99t16 -45t38.5 -21z" />
    <glyph glyph-name="Itilde" unicode="&#x128;" horiz-adv-x="544" 
d="M53 1442q-15 0 -12 18q15 164 117 164q52 0 129 -47q82 -43 114 -43q65 3 74 61q3 21 14 21q17 0 17 -23q0 -56 -31.5 -94.5t-83.5 -38.5q-42 0 -125 45q-82 43 -112 43q-69 -3 -82 -86q-6 -20 -19 -20zM156 -12q-15 0 -15 12q0 14 35 23q47 15 53 108q9 95 9 526
q0 413 -9 504q-6 92 -53 107q-35 9 -35 20q0 15 15 15l8 -1q8 -2 20.5 -4t27 -3.5t31 -3t29.5 -1.5t30 1.5t31.5 3t27 3.5t20.5 4l8 1q14 0 14 -15q0 -11 -34 -20q-47 -15 -56 -107q-6 -92 -6 -504q0 -431 6 -526q9 -93 56 -108q34 -9 34 -23q0 -12 -14 -12q-3 0 -47 6
t-70 6t-69 -6t-47 -6z" />
    <glyph glyph-name="itilde" unicode="&#x129;" horiz-adv-x="505" 
d="M12 1032q-15 0 -12 19q15 163 117 163q52 0 129 -47q82 -43 114 -43q65 3 74 62q3 20 15 20q16 0 16 -22q0 -56 -31.5 -94.5t-83.5 -38.5q-42 0 -125 45q-82 43 -112 43q-69 -3 -82 -86q-6 -21 -19 -21zM123 -8q-14 0 -14 12q0 13 20 16q65 12 82 35q14 22 14 117v428
q0 80 -16 102q-17 24 -94 39q-11 3 -15.5 9t0 11.5t15.5 6.5q54 4 95.5 18.5t60.5 27.5t20 13q12 0 12 -14l-4 -45q-8 -57 -8 -164v-432q0 -95 14 -117q17 -23 82 -35q21 -3 21 -16q0 -12 -15 -12q-2 0 -9 0.5l-21 1.5t-29 2q-70 4 -80 4q-4 0 -74 -4q-14 -1 -27.5 -2
t-20.5 -1.5t-9 -0.5z" />
    <glyph glyph-name="Imacron" unicode="&#x12a;" horiz-adv-x="544" 
d="M86 1544q33 0 76 -2q45 -2 100 -2q66 0 117 2t90 2q25 0 25 -18q0 -41 -31 -41q-55 0 -98 2t-95 2q-53 0 -102 -2q-47 -2 -90 -2q-25 0 -25 20q0 39 33 39zM156 -12q-15 0 -15 12q0 14 35 23q47 15 53 108q9 95 9 526q0 413 -9 504q-6 92 -53 107q-35 9 -35 20
q0 15 15 15l8 -1q8 -2 20.5 -4t27 -3.5t31 -3t29.5 -1.5t30 1.5t31.5 3t27 3.5t20.5 4l8 1q14 0 14 -15q0 -11 -34 -20q-47 -15 -56 -107q-6 -92 -6 -504q0 -431 6 -526q9 -93 56 -108q34 -9 34 -23q0 -12 -14 -12q-3 0 -47 6t-70 6t-69 -6t-47 -6z" />
    <glyph glyph-name="imacron" unicode="&#x12b;" horiz-adv-x="505" 
d="M45 1092q33 0 76 -2q67 -3 100 -3q41 0 117 3q51 2 90 2q25 0 25 -19q0 -41 -31 -41q-55 0 -98 2t-95 2q-53 0 -102 -2q-47 -2 -90 -2q-25 0 -25 21q0 39 33 39zM123 -8q-14 0 -14 12q0 13 20 16q65 12 82 35q14 22 14 117v428q0 80 -16 102q-17 24 -94 39q-11 3 -15.5 9
t0 11.5t15.5 6.5q54 4 95.5 18.5t60.5 27.5t20 13q12 0 12 -14l-4 -45q-8 -57 -8 -164v-432q0 -95 14 -117q17 -23 82 -35q21 -3 21 -16q0 -12 -15 -12q-2 0 -9 0.5l-21 1.5t-29 2q-70 4 -80 4q-4 0 -74 -4q-14 -1 -27.5 -2t-20.5 -1.5t-9 -0.5z" />
    <glyph glyph-name="Iogonek" unicode="&#x12e;" horiz-adv-x="544" 
d="M369 23q34 -9 34 -23q0 -12 -14 -12q-2 0 -17.5 2t-36.5 4.5t-34 3.5l-39 -29q-87 -68 -126.5 -125t-39.5 -123q0 -124 117 -124q33 0 74 18q43 18 47 18q14 0 -2 -22q-63 -57 -152 -57q-79 0 -123.5 40.5t-44.5 112.5q0 82 56.5 149t179.5 142q-13 -1 -35 -3.5
t-38.5 -4.5t-18.5 -2q-15 0 -15 12q0 14 35 23q47 15 53 108q9 95 9 526q0 413 -9 504q-6 92 -53 107q-35 9 -35 20q0 15 15 15l8 -1q8 -2 20.5 -4t27 -3.5t31 -3t29.5 -1.5t30 1.5t31.5 3t27 3.5t20.5 4l8 1q14 0 14 -15q0 -11 -34 -20q-47 -15 -56 -107q-6 -92 -6 -504
q0 -431 6 -526q9 -93 56 -108z" />
    <glyph glyph-name="iogonek" unicode="&#x12f;" horiz-adv-x="481" 
d="M217 1133q-49 -4 -69.5 40t0 87.5t69.5 37.5q37 0 59.5 -22t22.5 -59q0 -38 -22.5 -61t-59.5 -23zM375 20q20 -3 20 -16q0 -12 -14 -12q-3 0 -37.5 3t-48.5 3l-47 -35q-87 -68 -126.5 -125t-39.5 -123q0 -125 117 -125q30 0 73 19q44 18 47 18q14 0 -2 -22
q-64 -58 -151 -58q-79 0 -123.5 41t-44.5 113q0 83 59 152.5t187 146.5h-2q-4 0 -74 -4q-14 -1 -27.5 -2t-20.5 -1.5t-9 -0.5q-15 0 -15 12q0 13 21 16q65 12 82 35q14 22 14 117v428q0 80 -16 102q-17 24 -95 39q-11 3 -15.5 9t0 11.5t15.5 6.5q54 4 95.5 18.5t61 27.5
t20.5 13q12 0 12 -14l-4 -45q-8 -57 -8 -164v-432q0 -95 14 -117q17 -23 82 -35z" />
    <glyph glyph-name="Idot" unicode="&#x130;" horiz-adv-x="544" 
d="M281 1432q-49 -4 -69.5 40t0 87.5t69.5 37.5q37 0 59 -22t22 -59q0 -38 -22 -61t-59 -23zM156 -12q-15 0 -15 12q0 14 35 23q47 15 53 108q9 95 9 526q0 413 -9 504q-6 92 -53 107q-35 9 -35 20q0 15 15 15l8 -1q8 -2 20.5 -4t27 -3.5t31 -3t29.5 -1.5t30 1.5t31.5 3
t27 3.5t20.5 4l8 1q14 0 14 -15q0 -11 -34 -20q-47 -15 -56 -107q-6 -92 -6 -504q0 -431 6 -526q9 -93 56 -108q34 -9 34 -23q0 -12 -14 -12q-3 0 -47 6t-70 6t-69 -6t-47 -6z" />
    <glyph glyph-name="dotlessi" unicode="&#x131;" horiz-adv-x="505" 
d="M123 -8q-14 0 -14 12q0 13 20 16q65 12 82 35q14 22 14 117v428q0 80 -16 102q-17 24 -94 39q-11 3 -15.5 9t0 11.5t15.5 6.5q54 4 95.5 18.5t60.5 27.5t20 13q12 0 12 -14l-4 -45q-8 -57 -8 -164v-432q0 -95 14 -117q17 -23 82 -35q21 -3 21 -16q0 -12 -15 -12
q-2 0 -9 0.5l-21 1.5t-29 2q-70 4 -80 4q-4 0 -74 -4q-14 -1 -27.5 -2t-20.5 -1.5t-9 -0.5z" />
    <glyph glyph-name="IJ" unicode="&#x132;" horiz-adv-x="1048" 
d="M504 -31q-146 0 -232 84t-86 221q0 71 31 113.5t74 42.5q26 0 42.5 -15.5t16.5 -39.5q0 -33 -55 -76q-53 -41 -53 -94q0 -72 67 -139q68 -68 195 -68q299 0 299 364v512q0 192 -6 263q-6 69 -23 96q-16 29 -59 37q-33 11 -33 22q0 13 14 13q8 0 58 -9q53 -6 86 -6
q32 0 82 6q53 9 55 9q14 0 14 -13q0 -9 -20 -18l-15 -4q-41 -11 -56 -33.5t-21 -85.5q-7 -72 -7 -221v-477q0 -484 -368 -484zM156 629q-14 0 -15 11q0 14 33 22h2q44 14 53 71q9 59 9 252v29q0 143 -10.5 191t-51.5 59q-36 8 -35 22q1 10 15 10q1 0 7 -0.5l18 -1.5t26 -2
q33 -2 65 -2q35 0 66 2q14 1 26 2l18 1.5t7 0.5q14 0 15 -10q1 -14 -35 -22q-45 -12 -54 -64q-8 -44 -8 -186v-29v-37q0 -172 8 -219q9 -51 54 -67q37 -8 34 -23q-2 -9 -14 -10q-20 0 -51 2q-62 4 -66 4t-12.5 -0.5t-24 -1.5t-28.5 -2q-31 -2 -51 -2z" />
    <glyph glyph-name="ij" unicode="&#x133;" horiz-adv-x="954" 
d="M217 1133q-49 -4 -69.5 40t0 87.5t69.5 37.5q37 0 59.5 -22t22.5 -59q0 -38 -22.5 -61t-59.5 -23zM725 1124q-49 -4 -69.5 40.5t0 88t69.5 37.5q37 0 59.5 -22.5t22.5 -59.5q0 -38 -22.5 -61t-59.5 -23zM111 -8q-15 0 -15 12q0 13 21 16q65 12 82 35q14 22 14 117v428
q0 80 -16 102q-17 24 -95 39q-11 3 -15.5 9t0 11.5t15.5 6.5q54 4 95.5 18.5t61 27.5t20.5 13q12 0 12 -14l-4 -45q-8 -57 -8 -164v-432q0 -95 14 -117q17 -23 82 -35q20 -3 20 -16q0 -12 -14 -12q-2 0 -9 0.5l-21 1.5t-29 2q-70 4 -80 4q-4 0 -74 -4q-14 -1 -27.5 -2
t-20.5 -1.5t-9 -0.5zM592 -440q-60 0 -107 33.5t-47 74.5q0 53 47 53q38 0 56 -59q21 -65 82 -65q94 0 94 133v133v729q0 69 -21 90q-25 25 -100 39q-36 8 -35 24q1 13 21 13q36 2 68.5 9t54.5 16t38.5 17t25 13.5t9.5 5.5q17 0 17 -14l-4 -45q-9 -65 -9 -164v-801
q0 -111 -50 -173t-140 -62z" />
    <glyph glyph-name="Kcommaaccent" unicode="&#x136;" horiz-adv-x="1245" 
d="M1143 41q63 -21 69 -29q2 -3 2 -6q0 -12 -14 -12q-2 0 -10.5 0.5l-25.5 1.5l-34 2q-41 2 -90 2q-61 0 -100 -2q-17 -1 -31.5 -2t-20.5 -2h-7q-15 0 -15 10q0 13 25 19q76 21 76 43q0 31 -41 98q-54 89 -109 168q-28 45 -72 104q-19 30 -86 125l-88 131q-12 15 -18 15
q-9 0 -18 -9l-226 -237q0 -268 10 -350q9 -72 52 -88q35 -9 35 -23q0 -12 -15 -12q-3 0 -47 6t-70 6t-69 -6t-47 -6q-15 0 -15 12q0 14 35 23q47 15 53 108q9 95 9 526q0 413 -9 504q-6 92 -53 107q-35 9 -35 20q0 15 15 15l8 -1q8 -2 20.5 -4t27 -3.5t31 -3t29.5 -1.5
t30 1.5t31.5 3t27 3.5t20.5 4l8 1q15 0 15 -15q0 -11 -35 -20q-47 -15 -56 -107q-6 -92 -6 -504v-159l506 538q83 90 107 122t24 54q0 34 -76 58q-18 6 -18 18q0 15 20 15l26 -3q26 -4 62.5 -7t61.5 -3q15 0 35 1.5t38 3t33 3.5t25 4l10 1q19 0 19 -15q0 -9 -31 -18
q-63 -15 -107 -47q-37 -24 -108 -99l-328 -346q382 -572 424 -626q72 -97 111 -111zM641 -121q123 0 123 -155q0 -94 -66 -154q-65 -59 -112 -59q-19 0 -19 16q0 14 21 20q133 44 133 174q0 46 -16 46q-2 0 -14.5 -10.5t-30.5 -21.5t-33 -11q-33 0 -54.5 20.5t-21.5 52.5
q0 36 25.5 59t64.5 23z" />
    <glyph glyph-name="kcommaaccent" unicode="&#x137;" horiz-adv-x="915" 
d="M868 -8q-1 0 -6 0.5t-16 1.5t-25 2q-58 4 -67 4q-8 0 -70 -4l-26 -2t-19 -1.5t-8 -0.5q-15 0 -15 10q0 1 25 16.5t25 30.5q0 12 -32.5 67.5t-74.5 114.5q-70 109 -121 179q-23 36 -39 36q-10 0 -47 -34l-84 -78v-141q0 -117 2 -130q10 -25 64 -40q23 -7 20 -22
q-2 -9 -14 -9q-2 0 -7.5 0.5t-17 1.5t-22.5 2q-54 4 -62 4q-12 0 -34.5 -2t-40.5 -4l-17 -2q-13 0 -14 11q0 14 25 22q33 12 43 41q10 30 10 124v912q0 71 -9.5 92t-46.5 33q-28 8 -34.5 12t-6.5 14q0 12 21 15q36 5 68.5 20.5t49.5 28t19 12.5q17 0 17 -14
q-13 -80 -13 -168v-776l152 141l57 55l86 84q66 60 66 84q0 38 -39 47q-21 6 -21 21q0 10 15 10l45 -6q41 -8 71 -8q24 0 76 6q53 6 60 6q16 0 16 -14q0 -17 -33 -23q-68 -13 -117 -45q-48 -33 -147 -125l-98 -92q3 -5 43 -65t63 -93q55 -78 82 -123l55 -79q35 -47 51 -65.5
t33 -29.5q16 -10 51 -27q49 -23 50 -30q1 -6 -17 -8zM475 -121q123 0 123 -155q0 -94 -66 -154q-65 -59 -112 -59q-19 0 -19 16q0 14 21 20q133 44 133 174q0 46 -16 46q-2 0 -14.5 -10.5t-30.5 -21.5t-33 -11q-33 0 -54.5 20.5t-21.5 52.5q0 36 25.5 59t64.5 23z" />
    <glyph glyph-name="Lacute" unicode="&#x139;" horiz-adv-x="1007" 
d="M244 1393q-8 0 -8 10q0 4 8 12l194 115q59 37 125 74q62 36 90 36q21 0 36.5 -15t15.5 -40q0 -38 -62 -59q-261 -94 -381 -129zM258 1290q18 0 45.5 4t48.5 7.5t23 3.5q14 0 14 -13q0 -2 -0.5 -3.5t-1.5 -3l-2 -3t-3.5 -3t-4.5 -2.5t-6.5 -3t-8 -4t-9.5 -4.5t-11 -5.5
q-37 -18 -43 -109q-6 -89 -6 -535q0 -393 2 -444q3 -75 20 -102q30 -47 252 -47q189 0 260 59q68 59 103 246q3 18 14 18q12 0 12 -16q0 -5 -16 -111q-14 -88 -14 -135q0 -19 5 -38.5t10 -32.5t5 -15q0 -12 -14 -12l-23 2q-23 1 -61.5 3t-84.5 4t-102.5 3.5t-105.5 1.5
q-313 0 -397 -10q-15 0 -15 12q0 5 35 29q33 20 39 106q6 83 6 479q0 431 -4 541q-3 85 -37 103q-9 9 -19.5 14t-15 8t-4.5 10q0 13 15 13l7 -1q7 -2 18 -4t23.5 -4.5t26.5 -4t25 -1.5z" />
    <glyph glyph-name="lacute" unicode="&#x13a;" horiz-adv-x="430" 
d="M41 1393q-8 0 -8 10q0 4 8 12l195 115q67 42 124 74q62 36 91 36q21 0 36 -15t15 -40q0 -38 -62 -59q-261 -94 -381 -129zM106 -8q-13 0 -14 11q0 14 27 20q52 12 61 38q13 29 13 129v830q0 110 -14 151t-58 54q-57 14 -54 30q2 10 21 11q51 4 91 19.5t59.5 29.5t21.5 14
q12 0 12 -12l-1 -7q-1 -7 -2.5 -20t-3 -31t-3 -42.5t-3 -52.5t-2.5 -63.5t-1 -72.5v-858q3 -89 14 -111q15 -24 62 -36q20 -6 20 -17q0 -14 -14 -14q-2 0 -7.5 0.5t-17 1.5t-22.5 2q-54 4 -62 4q-13 0 -75 -4z" />
    <glyph glyph-name="Lcommaaccent" unicode="&#x13b;" horiz-adv-x="1007" 
d="M258 1290q18 0 45.5 4t48.5 7.5t23 3.5q14 0 14 -13q0 -2 -0.5 -3.5t-1.5 -3l-2 -3t-3.5 -3t-4.5 -2.5t-6.5 -3t-8 -4t-9.5 -4.5t-11 -5.5q-37 -18 -43 -109q-6 -89 -6 -535q0 -393 2 -444q3 -75 20 -102q30 -47 252 -47q189 0 260 59q68 59 103 246q3 18 14 18
q12 0 12 -16q0 -5 -16 -111q-14 -88 -14 -135q0 -19 5 -38.5t10 -32.5t5 -15q0 -12 -14 -12l-23 2q-23 1 -61.5 3t-84.5 4t-102.5 3.5t-105.5 1.5q-313 0 -397 -10q-15 0 -15 12q0 5 35 29q33 20 39 106q6 83 6 479q0 431 -4 541q-3 85 -37 103q-9 9 -19.5 14t-15 8t-4.5 10
q0 13 15 13l7 -1q7 -2 18 -4t23.5 -4.5t26.5 -4t25 -1.5zM496 -489q-19 0 -19 16q0 14 21 20q133 44 133 174q0 46 -17 46q-2 0 -14 -10.5t-30 -21.5t-33 -11q-33 0 -54.5 20.5t-21.5 52.5q0 36 25.5 59t64.5 23q123 0 123 -155q0 -94 -66 -154q-65 -59 -112 -59z" />
    <glyph glyph-name="lcommaaccent" unicode="&#x13c;" horiz-adv-x="430" 
d="M106 -8q-13 0 -14 11q0 14 27 20q52 12 61 38q13 29 13 129v830q0 110 -14 151t-58 54q-57 14 -54 30q2 10 21 11q51 4 91 19.5t59.5 29.5t21.5 14q12 0 12 -12l-1 -7q-1 -7 -2.5 -20t-3 -31t-3 -42.5t-3 -52.5t-2.5 -63.5t-1 -72.5v-858q3 -89 14 -111q15 -24 62 -36
q20 -6 20 -17q0 -14 -14 -14q-2 0 -7.5 0.5t-17 1.5t-22.5 2q-54 4 -62 4q-13 0 -75 -4zM193 -489q-19 0 -19 16q0 14 21 20q133 44 133 174q0 46 -17 46q-2 0 -14.5 -10.5t-30.5 -21.5t-33 -11q-32 0 -53.5 20.5t-21.5 52.5q0 36 25.5 59t64.5 23q123 0 123 -155
q0 -94 -66 -154q-65 -59 -112 -59z" />
    <glyph glyph-name="Lcaron" unicode="&#x13d;" horiz-adv-x="1007" 
d="M258 1290q18 0 45.5 4t48.5 7.5t23 3.5q14 0 14 -13q0 -2 -0.5 -3.5t-1.5 -3l-2 -3t-3.5 -3t-4.5 -2.5t-6.5 -3t-8 -4t-9.5 -4.5t-11 -5.5q-37 -18 -43 -109q-6 -89 -6 -535q0 -393 2 -444q3 -75 20 -102q30 -47 252 -47q189 0 260 59q68 59 103 246q3 18 14 18
q12 0 12 -16q0 -5 -16 -111q-14 -88 -14 -135q0 -19 5 -38.5t10 -32.5t5 -15q0 -12 -14 -12l-23 2q-23 1 -61.5 3t-84.5 4t-102.5 3.5t-105.5 1.5q-313 0 -397 -10q-15 0 -15 12q0 5 35 29q33 20 39 106q6 83 6 479q0 431 -4 541q-3 85 -37 103q-9 9 -19.5 14t-15 8t-4.5 10
q0 13 15 13l7 -1q7 -2 18 -4t23.5 -4.5t26.5 -4t25 -1.5zM604 924q-18 0 -18 16q0 12 20 21q59 19 95 64.5t36 109.5q0 45 -14 45q-2 0 -15 -11t-31.5 -21.5t-33.5 -10.5q-33 0 -53.5 19.5t-20.5 51.5q0 37 25.5 60.5t64.5 23.5q121 0 121 -157q0 -97 -63 -154t-113 -57z
" />
    <glyph glyph-name="lcaron" unicode="&#x13e;" horiz-adv-x="430" 
d="M106 -8q-13 0 -14 11q0 14 27 20q52 12 61 38q13 29 13 129v830q0 110 -14 151t-58 54q-57 14 -54 30q2 10 21 11q51 4 91 19.5t59.5 29.5t21.5 14q12 0 12 -12l-1 -7q-1 -7 -2.5 -20t-3 -31t-3 -42.5t-3 -52.5t-2.5 -63.5t-1 -72.5v-858q3 -89 14 -111q15 -24 62 -36
q20 -6 20 -17q0 -14 -14 -14q-2 0 -7.5 0.5t-17 1.5t-22.5 2q-54 4 -62 4q-13 0 -75 -4zM403 948q-18 0 -18 17q0 13 21 22q131 40 131 174q0 45 -15 45q-2 0 -15 -11t-31.5 -22.5t-33.5 -11.5q-32 0 -52.5 21t-20.5 53q0 37 25.5 60.5t64.5 23.5q121 0 121 -158
q0 -97 -64 -155t-113 -58z" />
    <glyph glyph-name="Ldot" unicode="&#x13f;" horiz-adv-x="1007" 
d="M258 1290q18 0 45.5 4t48.5 7.5t23 3.5q14 0 14 -13q0 -2 -0.5 -3.5t-1.5 -3l-2 -3t-3.5 -3t-4.5 -2.5t-6.5 -3t-8 -4t-9.5 -4.5t-11 -5.5q-37 -18 -43 -109q-6 -89 -6 -535q0 -393 2 -444q3 -75 20 -102q30 -47 252 -47q189 0 260 59q68 59 103 246q3 18 14 18
q12 0 12 -16q0 -5 -16 -111q-14 -88 -14 -135q0 -19 5 -38.5t10 -32.5t5 -15q0 -12 -14 -12l-23 2q-23 1 -61.5 3t-84.5 4t-102.5 3.5t-105.5 1.5q-313 0 -397 -10q-15 0 -15 12q0 5 35 29q33 20 39 106q6 83 6 479q0 431 -4 541q-3 85 -37 103q-9 9 -19.5 14t-15 8t-4.5 10
q0 13 15 13l7 -1q7 -2 18 -4t23.5 -4.5t26.5 -4t25 -1.5zM631 735q47 0 66.5 -38.5t0 -77.5t-66.5 -39q-31 0 -52.5 21t-21.5 56t21.5 56.5t52.5 21.5z" />
    <glyph glyph-name="ldot" unicode="&#x140;" horiz-adv-x="542" 
d="M106 -8q-13 0 -14 11q0 14 27 20q52 12 61 38q13 29 13 129v830q0 110 -14 151t-58 54q-57 14 -54 30q2 10 21 11q51 4 91 19.5t59.5 29.5t21.5 14q12 0 12 -12l-1 -7q-1 -7 -2.5 -20t-3 -31t-3 -42.5t-3 -52.5t-2.5 -63.5t-1 -72.5v-858q3 -89 14 -111q15 -24 62 -36
q20 -6 20 -17q0 -14 -14 -14q-2 0 -7.5 0.5t-17 1.5t-22.5 2q-54 4 -62 4q-13 0 -75 -4zM471 713q47 0 66.5 -39t0 -78t-66.5 -39q-31 0 -52.5 21.5t-21.5 56.5t21.5 56.5t52.5 21.5z" />
    <glyph glyph-name="Lslash" unicode="&#x141;" horiz-adv-x="1007" 
d="M956 330q0 -5 -16 -111q-14 -88 -14 -135q0 -19 5 -38.5t10 -32.5t5 -15q0 -12 -14 -12l-23 2q-23 1 -61.5 3t-84.5 4t-102.5 3.5t-105.5 1.5q-313 0 -397 -10q-15 0 -15 12q0 5 35 29q33 20 39 106q6 83 6 479v5l-117 -48q-12 -6 -20 -6q-18 0 -18 23q0 12 16 18l139 56
q0 410 -6 493q-3 84 -35 103q-9 9 -19.5 14t-15 8t-4.5 10q0 13 15 13l7 -1q7 -2 18 -4t23.5 -4.5t26.5 -4t25 -1.5q18 0 45.5 4t48.5 7.5t23 3.5q14 0 14 -13q0 -2 -0.5 -3.5t-1.5 -3l-2 -3t-3.5 -3t-4.5 -2.5t-6.5 -3t-8 -4t-9.5 -4.5t-11 -5.5q-37 -18 -43 -103
q-6 -83 -6 -465l182 74q2 2 12 2q19 0 19 -23q0 -11 -17 -18l-196 -80v-31q0 -393 2 -444q3 -75 20 -102q30 -47 252 -47q189 0 260 59q68 59 103 246q3 18 14 18q12 0 12 -16z" />
    <glyph glyph-name="lslash" unicode="&#x142;" horiz-adv-x="481" 
d="M416 764q10 -19 -10 -29l-150 -86v-479q3 -89 14 -111q15 -24 62 -36q20 -6 20 -17q0 -14 -14 -14q-2 0 -7.5 0.5t-17 1.5t-22.5 2q-54 4 -62 4q-13 0 -75 -4l-48 -4q-13 0 -14 11q0 14 27 20q52 12 61 38q13 29 13 129v422l-52 -28q-18 -9 -30 6q-9 18 10 28l72 41v361
q0 110 -14 151t-58 54q-57 14 -54 30q2 10 21 11q51 4 91 19.5t59.5 29.5t21.5 14q12 0 12 -12l-1 -7q-1 -7 -2.5 -20t-3 -31t-3 -42.5t-3 -52.5t-2.5 -63.5t-1 -72.5v-332l129 74q19 9 31 -6z" />
    <glyph glyph-name="Nacute" unicode="&#x143;" horiz-adv-x="1386" 
d="M588 1393q-8 0 -8 10q0 4 8 12l194 115q59 37 125 74q62 36 90 36q21 0 36.5 -15t15.5 -40q0 -38 -62 -59q-261 -94 -381 -129zM1186 -31q-17 0 -33 25q-50 82 -369 514q-361 489 -512 686q-21 27 -24 27q-8 0 -8 -17v-958q0 -111 22 -160q20 -45 98 -63q31 -9 31 -21
q0 -14 -18 -14q-3 0 -56 6t-92 6q-22 0 -55 -3t-58 -6t-28 -3q-18 0 -18 14q0 10 32 18q61 13 83 62.5t22 163.5v903q0 61 -12.5 81t-59.5 27q-80 9 -80 35q0 11 15 11q1 0 5.5 -1t15 -2.5t22.5 -3.5q40 -6 57 -6q12 0 43.5 6.5t38.5 6.5q39 0 82 -58l827 -1110
q19 -31 19 -2v944q0 93 -20.5 132.5t-76.5 56.5q-41 15 -41 24q0 13 15 13l55 -7q55 -6 84 -6q34 0 86 6l53 7q15 0 15 -11q0 -13 -35 -22q-55 -18 -78 -60t-23 -133v-1067q0 -41 -24 -41z" />
    <glyph glyph-name="nacute" unicode="&#x144;" horiz-adv-x="1026" 
d="M373 924q-10 -3 -13 6q0 1 1 2.5t2 4.5t2 5q97 102 114 121l90 94l58 60q55 55 71 57q52 9 66 -41q9 -33 -45 -74q-188 -137 -338 -231zM911 25q25 -8 25 -22q-1 -11 -14 -11q-1 0 -5.5 0.5t-15 1.5t-22.5 2q-54 4 -64 4q-3 0 -57 -4q-12 -1 -22.5 -2t-15 -1.5t-5.5 -0.5
q-14 0 -14 12q0 13 20 19q26 8 39 21.5t19.5 47.5t6.5 98v310q0 282 -217 282q-131 0 -219 -108q-88 -107 -88 -295v-199q0 -92 13 -120t61 -40q20 -6 20 -16q0 -12 -14 -12q-2 0 -7.5 0.5t-17 1.5t-22.5 2q-54 4 -62 4q-7 0 -61 -4q-11 -1 -20.5 -2t-13.5 -1.5t-5 -0.5
q-14 0 -14 12q0 10 22 16q36 11 45 39q11 33 11 121v420q0 118 -76 133q-31 10 -31 19q0 11 25 14q38 5 70.5 20.5t49 28t19.5 12.5q12 0 12 -14q-2 -11 -5 -32t-7 -96t-2 -163q29 140 115 222.5t202 82.5q144 0 213.5 -79.5t69.5 -249.5v-308q0 -68 4.5 -99t16 -45
t38.5 -21z" />
    <glyph glyph-name="Ncommaaccent" unicode="&#x145;" horiz-adv-x="1386" 
d="M1186 -31q-17 0 -33 25q-50 82 -369 514q-361 489 -512 686q-21 27 -24 27q-8 0 -8 -17v-958q0 -111 22 -160q20 -45 98 -63q31 -9 31 -21q0 -14 -18 -14q-3 0 -56 6t-92 6q-22 0 -55 -3t-58 -6t-28 -3q-18 0 -18 14q0 10 32 18q61 13 83 62.5t22 163.5v903
q0 61 -12.5 81t-59.5 27q-80 9 -80 35q0 11 15 11q1 0 5.5 -1t15 -2.5t22.5 -3.5q40 -6 57 -6q12 0 43.5 6.5t38.5 6.5q39 0 82 -58l827 -1110q19 -31 19 -2v944q0 93 -20.5 132.5t-76.5 56.5q-41 15 -41 24q0 13 15 13l55 -7q55 -6 84 -6q34 0 86 6l53 7q15 0 15 -11
q0 -13 -35 -22q-55 -18 -78 -60t-23 -133v-1067q0 -41 -24 -41zM696 -489q-18 0 -18 16q0 14 20 20q133 44 133 174q0 46 -16 46q-2 0 -14.5 -10.5t-30.5 -21.5t-33 -11q-32 0 -53.5 20.5t-21.5 52.5q0 36 25.5 59t64.5 23q122 0 122 -155q0 -95 -65 -154t-113 -59z" />
    <glyph glyph-name="ncommaaccent" unicode="&#x146;" horiz-adv-x="1026" 
d="M911 25q25 -8 25 -22q-1 -11 -14 -11q-1 0 -5.5 0.5t-15 1.5t-22.5 2q-54 4 -64 4q-3 0 -57 -4q-12 -1 -22.5 -2t-15 -1.5t-5.5 -0.5q-14 0 -14 12q0 13 20 19q26 8 39 21.5t19.5 47.5t6.5 98v310q0 282 -217 282q-131 0 -219 -108q-88 -107 -88 -295v-199q0 -92 13 -120
t61 -40q20 -6 20 -16q0 -12 -14 -12q-2 0 -7.5 0.5t-17 1.5t-22.5 2q-54 4 -62 4q-7 0 -61 -4q-11 -1 -20.5 -2t-13.5 -1.5t-5 -0.5q-14 0 -14 12q0 10 22 16q36 11 45 39q11 33 11 121v420q0 118 -76 133q-31 10 -31 19q0 11 25 14q38 5 70.5 20.5t49 28t19.5 12.5
q12 0 12 -14q-2 -11 -5 -32t-7 -96t-2 -163q29 140 115 222.5t202 82.5q144 0 213.5 -79.5t69.5 -249.5v-308q0 -68 4.5 -99t16 -45t38.5 -21zM526 -121q123 0 123 -155q0 -95 -65 -154t-113 -59q-18 0 -18 16q0 14 20 20q133 44 133 174q0 46 -16 46q-2 0 -14.5 -10.5
t-30.5 -21.5t-33 -11q-33 0 -54.5 20.5t-21.5 52.5q0 36 25.5 59t64.5 23z" />
    <glyph glyph-name="Ncaron" unicode="&#x147;" horiz-adv-x="1386" 
d="M539 1683q15 0 77 -49q13 -8 39 -26t64.5 -45.5t66.5 -46.5h5q33 23 63.5 44.5t51 36t39.5 28t30 21.5t21.5 15.5t16.5 11t11 6t8 3.5t6 1q15 0 15 -14q0 -13 -121 -125q-25 -20 -60 -55l-31 -31t-24 -18t-29 -10q-7 0 -14.5 2.5t-13 6t-14.5 11t-14 12.5t-16 16.5
t-16 16.5q-162 149 -172 164q-4 8 -4 10q0 14 15 14zM1186 -31q-17 0 -33 25q-50 82 -369 514q-361 489 -512 686q-21 27 -24 27q-8 0 -8 -17v-958q0 -111 22 -160q20 -45 98 -63q31 -9 31 -21q0 -14 -18 -14q-3 0 -56 6t-92 6q-22 0 -55 -3t-58 -6t-28 -3q-18 0 -18 14
q0 10 32 18q61 13 83 62.5t22 163.5v903q0 61 -12.5 81t-59.5 27q-80 9 -80 35q0 11 15 11q1 0 5.5 -1t15 -2.5t22.5 -3.5q40 -6 57 -6q12 0 43.5 6.5t38.5 6.5q39 0 82 -58l827 -1110q19 -31 19 -2v944q0 93 -20.5 132.5t-76.5 56.5q-41 15 -41 24q0 13 15 13l55 -7
q55 -6 84 -6q34 0 86 6l53 7q15 0 15 -11q0 -13 -35 -22q-55 -18 -78 -60t-23 -133v-1067q0 -41 -24 -41z" />
    <glyph glyph-name="ncaron" unicode="&#x148;" horiz-adv-x="1026" 
d="M522 934q-13 1 -19 2t-14 3t-10 3t-8.5 5.5t-8.5 7t-11 11.5l-15 15q-20 20 -67 74q-108 123 -111 139q0 14 14 14q11 0 34.5 -18t107.5 -92q63 -55 106 -92h4l230 196q9 6 18 6q23 0 10 -29q-6 -13 -20 -30l-158 -174q-31 -31 -42 -35q-14 -6 -40 -6zM911 25
q25 -8 25 -22q-1 -11 -14 -11q-1 0 -5.5 0.5t-15 1.5t-22.5 2q-54 4 -64 4q-3 0 -57 -4q-12 -1 -22.5 -2t-15 -1.5t-5.5 -0.5q-14 0 -14 12q0 13 20 19q26 8 39 21.5t19.5 47.5t6.5 98v310q0 282 -217 282q-131 0 -219 -108q-88 -107 -88 -295v-199q0 -92 13 -120t61 -40
q20 -6 20 -16q0 -12 -14 -12q-2 0 -7.5 0.5t-17 1.5t-22.5 2q-54 4 -62 4q-7 0 -61 -4q-11 -1 -20.5 -2t-13.5 -1.5t-5 -0.5q-14 0 -14 12q0 10 22 16q36 11 45 39q11 33 11 121v420q0 118 -76 133q-31 10 -31 19q0 11 25 14q38 5 70.5 20.5t49 28t19.5 12.5q12 0 12 -14
q-2 -11 -5 -32t-7 -96t-2 -163q29 140 115 222.5t202 82.5q144 0 213.5 -79.5t69.5 -249.5v-308q0 -68 4.5 -99t16 -45t38.5 -21z" />
    <glyph glyph-name="Eng" unicode="&#x14a;" horiz-adv-x="1402" 
d="M893 -442q-118 0 -190 65t-72 168q0 71 30.5 113.5t73.5 42.5q60 0 60 -56q0 -38 -56 -73q-53 -35 -53 -86q0 -58 57 -102t150 -44q125 0 193.5 96t68.5 273q0 16 -20 45q-83 130 -387 545q-335 463 -476 649q-21 27 -24 27q-8 0 -8 -17v-958q0 -111 22 -160
q20 -45 98 -63q31 -9 31 -21q0 -14 -18 -14q-3 0 -56 6t-92 6q-22 0 -55 -3t-58 -6t-28 -3q-18 0 -18 14q0 10 32 18q61 13 83 62.5t22 163.5v903q0 61 -12.5 81t-59.5 27q-80 9 -80 35q0 13 15 13q2 0 43 -9q40 -6 57 -6q12 0 43.5 7.5t38.5 7.5q37 0 82 -60l827 -1132
q19 -31 19 -2v966q0 93 -20.5 133.5t-76.5 57.5q-7 2 -15.5 5t-12 4t-7.5 3t-5 4t-1 6q0 13 15 13l55 -7q55 -6 84 -6q34 0 86 6l53 7q14 0 15 -9q0 -12 -35 -22q-55 -18 -78 -61t-23 -134v-1089q0 -197 -82.5 -313.5t-234.5 -116.5z" />
    <glyph glyph-name="eng" unicode="&#x14b;" horiz-adv-x="1003" 
d="M569 827q144 0 213.5 -79.5t69.5 -249.5v-703q0 -111 -50 -173t-140 -62q-60 0 -107 33.5t-47 74.5q0 53 47 53q37 0 55 -59q21 -65 82 -65q94 0 94 133v133l-4 637q0 282 -213 282q-124 0 -213 -102q-88 -101 -94 -277v-223q0 -92 13 -120t61 -40q20 -6 20 -16
q0 -12 -14 -12q-2 0 -7.5 0.5t-17 1.5t-22.5 2q-54 4 -62 4q-7 0 -61 -4q-11 -1 -20.5 -2t-13.5 -1.5t-5 -0.5q-14 0 -14 12q0 10 22 16q36 11 45 39q11 33 11 121v420q0 118 -76 133q-31 10 -31 19q0 11 25 14q38 5 70.5 20.5t49 28t19.5 12.5q12 0 12 -14q-2 -11 -5 -32
t-7 -96t-2 -161q29 138 116 220.5t201 82.5z" />
    <glyph glyph-name="Omacron" unicode="&#x14c;" horiz-adv-x="1433" 
d="M516 1485q-24 0 -24 20q0 39 32 39q33 0 76 -2q45 -2 100 -2q66 0 117 2t90 2q25 0 25 -18q0 -41 -31 -41q-55 0 -98 2t-94 2q-54 0 -103 -2q-47 -2 -90 -2zM717 1329q275 0 444 -196q170 -194 170 -484q0 -284 -172 -483q-170 -197 -442 -197t-445 197
q-170 200 -170 483q0 290 170 484q172 196 445 196zM717 6q221 0 368 156q150 156 150 487q0 142 -28.5 253.5t-77 183.5t-116 119.5t-140.5 67t-156 19.5q-81 0 -153.5 -19.5t-140 -67t-116.5 -119.5t-78.5 -184t-29.5 -253q0 -167 43 -297t120 -205q147 -141 355 -141z
" />
    <glyph glyph-name="omacron" unicode="&#x14d;" horiz-adv-x="952" 
d="M291 1092q33 0 76 -2q68 -3 100 -3q41 0 117 3q51 2 90 2q24 0 24 -19q0 -41 -30 -41q-56 0 -99 2t-94 2q-53 0 -102 -2q-47 -2 -90 -2q-25 0 -25 21q0 39 33 39zM190 705q107 122 287 122q181 0 285 -122q106 -121 106 -308q0 -186 -106 -307t-285 -121q-178 0 -287 121
q-104 122 -104 307q0 186 104 308zM248 100q82 -102 229 -102q149 0 228 102q81 103 81 297t-81 297q-79 105 -228 105q-147 0 -229 -105q-80 -106 -80 -297t80 -297z" />
    <glyph glyph-name="Ohungarumlaut" unicode="&#x150;" horiz-adv-x="1433" 
d="M528 1415q-7 -3 -10 6q-3 10 0 13l84 127q72 111 119 170q26 36 53 36q51 0 51 -49q0 -28 -39 -67q-157 -157 -249 -232zM729 1421q-2 2 2 13l86 102q117 138 160 184q44 47 63 47q23 0 37.5 -15t14.5 -36q0 -32 -45 -65q-214 -176 -297 -232l-11 -4q-10 -7 -10 6z
M717 1329q275 0 444 -196q170 -194 170 -484q0 -284 -172 -483q-170 -197 -442 -197t-445 197q-170 200 -170 483q0 290 170 484q172 196 445 196zM717 6q221 0 368 156q150 156 150 487q0 142 -28.5 253.5t-77 183.5t-116 119.5t-140.5 67t-156 19.5q-81 0 -153.5 -19.5
t-140 -67t-116.5 -119.5t-78.5 -184t-29.5 -253q0 -167 43 -297t120 -205q147 -141 355 -141z" />
    <glyph glyph-name="ohungarumlaut" unicode="&#x151;" horiz-adv-x="952" 
d="M295 924q-7 -3 -10 6t0 12l84 127q78 118 118 170q27 37 54 37q51 0 51 -49q0 -29 -39 -68q-148 -148 -250 -231zM506 924q-10 -7 -10 6q-2 2 2 12l86 102q136 160 159 185q44 47 64 47q23 0 37 -15t14 -36q0 -33 -45 -66q-207 -170 -297 -231zM190 705q107 122 287 122
q181 0 285 -122q106 -121 106 -308q0 -186 -106 -307t-285 -121q-178 0 -287 121q-104 122 -104 307q0 186 104 308zM248 100q82 -102 229 -102q149 0 228 102q81 103 81 297t-81 297q-79 105 -228 105q-147 0 -229 -105q-80 -106 -80 -297t80 -297z" />
    <glyph glyph-name="OE" unicode="&#x152;" horiz-adv-x="1652" 
d="M1577 319q-23 -139 -23 -227q0 -15 4 -35.5t8.5 -35.5t4.5 -17q0 -12 -17 -12q-1 0 -25 0.5t-76 1.5t-112 2q-135 2 -299 2q-59 0 -196 -14q-144 -15 -215 -15q-224 0 -377 199q-152 202 -152 481q0 286 154 484q156 196 391 196q66 0 191 -16q117 -15 133 -15h94
q92 0 228.5 2.5t162.5 2.5q39 2 72 2q16 0 16 -13l-4 -12q-4 -11 -8 -25.5t-4 -21.5q0 -27 12 -115l10 -90q0 -16 -12 -16q-19 0 -22 22q-26 164 -70 205q-39 39 -193 39q-144 0 -188 -8q-49 -6 -68 -31q-17 -24 -20 -94q-2 -47 -2 -397q0 -35 27 -44.5t126 -9.5
q119 0 158 39q42 39 57 141q3 17 19 17q12 0 12 -14q0 -1 -1 -13t-3 -31.5t-4 -43.5t-3 -54t-1 -57q0 -30 1 -61.5t3 -54.5t4 -41t3 -28.5t1 -11.5q0 -14 -12 -14q-16 0 -16 18q-11 101 -56.5 141t-161.5 40q-100 0 -126.5 -9.5t-26.5 -46.5q0 -417 12 -499q6 -28 19 -41
q30 -41 227 -41q183 0 231 45q51 45 78 239q3 21 23 21q12 0 12 -15zM883 63q15 27 18 123q4 132 4 459q0 536 -39 592q-37 63 -213 63q-173 0 -307 -126q-73 -69 -114.5 -205.5t-41.5 -319.5q0 -181 41.5 -317t112.5 -207q130 -127 291 -127q90 0 162.5 18t85.5 47z" />
    <glyph glyph-name="oe" unicode="&#x153;" horiz-adv-x="1505" 
d="M1421 240q11 0 11 -11q0 -2 -1 -4.5t-2 -6.5t-2 -7q-31 -105 -116 -173.5t-205 -68.5q-115 0 -200.5 63t-127.5 171q-44 -108 -128.5 -170t-198.5 -62q-167 0 -267 121q-98 122 -98 307q0 187 98 306q98 122 267 122q116 0 200.5 -61.5t126.5 -171.5q45 108 132 170.5
t200 62.5q140 0 225 -88q86 -86 86 -211q0 -32 -9 -42.5t-36 -10.5l-557 2q-4 -66 -4 -74q0 -179 80.5 -286t220.5 -107q119 0 195 70q80 71 98 147q3 13 12 13zM240 104q76 -104 211 -104t208 104q76 104 76 295t-76 295q-73 105 -208 105t-211 -105q-74 -106 -74 -295
t74 -295zM1106 799q-109 0 -183.5 -75.5t-97.5 -207.5l512 4q13 0 13 21q0 100 -66 178q-65 80 -178 80z" />
    <glyph glyph-name="Racute" unicode="&#x154;" horiz-adv-x="1261" 
d="M356 1393q-8 0 -8 10q0 4 8 12l195 115q59 37 125 74q62 36 90 36q21 0 36 -15t15 -40q0 -38 -61 -59q-261 -94 -381 -129zM989 -25q-74 0 -166 56q-92 57 -164 121q-69 63 -163 120q-92 56 -166 56q-25 0 -25 -29q0 -149 6 -195q6 -44 25 -63q8 -8 24.5 -14.5
t27.5 -11.5t11 -11q0 -12 -16 -12q-1 0 -6 0.5t-16.5 1.5t-24.5 2q-58 4 -70 4q-9 0 -63 -4q-12 -1 -22 -2t-14 -1.5t-5 -0.5q-17 0 -17 12q0 7 4.5 11t19 10.5t26.5 13.5q14 8 20 49q9 41 12 184q4 192 4 445q0 335 -6 420q-6 87 -28 112q-7 10 -30.5 18t-23.5 15
q0 14 17 14l18 -2q17 -1 39.5 -2.5t34.5 -1.5q19 0 127 15q101 14 186 14q239 0 389 -135q150 -132 150 -357q0 -231 -168 -362q-165 -131 -408 -131q-62 0 -112 4v-4q73 -15 176 -86q96 -65 205 -127q101 -58 192 -58q80 0 127 54.5t47 146.5q0 10 8 10q10 0 17.5 -26.5
t7.5 -59.5q0 -91 -63 -151q-62 -62 -144 -62zM502 358q212 0 362 117q152 119 152 352q0 240 -129 351q-127 112 -322 112q-191 0 -233 -51q-24 -31 -27 -100q-4 -98 -4 -422v-295q0 -43 29 -53q37 -11 172 -11z" />
    <glyph glyph-name="racute" unicode="&#x155;" horiz-adv-x="700" 
d="M236 924q-10 -3 -13 6l4 12q13 13 36 37t42.5 44.5t36.5 39.5l90 94l57 60q55 55 72 57q52 9 66 -41q9 -33 -45 -74q-188 -137 -338 -231zM537 825q61 0 95 -25t34 -67q0 -67 -58 -67q-41 0 -65 53q-21 55 -66 55q-59 0 -119 -84q-60 -85 -63 -215v-330q0 -61 24 -84
t109 -43q14 -3 14 -14q0 -14 -16 -14q-1 0 -9 0.5t-24.5 1.5t-34.5 2q-78 4 -92 4t-88 -4q-16 -1 -30.5 -2t-21 -1.5t-7.5 -0.5q-15 0 -15 14q0 9 23 16q69 17 85.5 38t16.5 87v465q0 51 -23 76.5t-79 36.5q-37 3 -37 18q0 12 25 15q53 5 93 20.5t58.5 28t20.5 12.5
q12 0 12 -14q-2 -14 -5 -38t-7 -85t-2 -105q23 116 91.5 183t160.5 67z" />
    <glyph glyph-name="Rcommaaccent" unicode="&#x156;" horiz-adv-x="1261" 
d="M989 -25q-74 0 -166 56q-92 57 -164 121q-69 63 -163 120q-92 56 -166 56q-25 0 -25 -29q0 -149 6 -195q6 -44 25 -63q8 -8 24.5 -14.5t27.5 -11.5t11 -11q0 -12 -16 -12q-1 0 -6 0.5t-16.5 1.5t-24.5 2q-58 4 -70 4q-9 0 -63 -4q-12 -1 -22 -2t-14 -1.5t-5 -0.5
q-17 0 -17 12q0 7 4.5 11t19 10.5t26.5 13.5q14 8 20 49q9 41 12 184q4 192 4 445q0 335 -6 420q-6 87 -28 112q-7 10 -30.5 18t-23.5 15q0 14 17 14l18 -2q17 -1 39.5 -2.5t34.5 -1.5q19 0 127 15q101 14 186 14q239 0 389 -135q150 -132 150 -357q0 -231 -168 -362
q-165 -131 -408 -131q-62 0 -112 4v-4q73 -15 176 -86q96 -65 205 -127q101 -58 192 -58q80 0 127 54.5t47 146.5q0 10 8 10q10 0 17.5 -26.5t7.5 -59.5q0 -91 -63 -151q-62 -62 -144 -62zM502 358q212 0 362 117q152 119 152 352q0 240 -129 351q-127 112 -322 112
q-191 0 -233 -51q-24 -31 -27 -100q-4 -98 -4 -422v-295q0 -43 29 -53q37 -11 172 -11zM506 -489q-19 0 -19 16q0 14 21 20q133 44 133 174q0 46 -16 46q-2 0 -14.5 -10.5t-30.5 -21.5t-33 -11q-33 0 -54.5 20.5t-21.5 52.5q0 36 25.5 59t64.5 23q123 0 123 -155
q0 -94 -66 -154q-65 -59 -112 -59z" />
    <glyph glyph-name="rcommaaccent" unicode="&#x157;" horiz-adv-x="700" 
d="M537 825q61 0 95 -25t34 -67q0 -67 -58 -67q-41 0 -65 53q-21 55 -66 55q-59 0 -119 -84q-60 -85 -63 -215v-330q0 -61 24 -84t109 -43q14 -3 14 -14q0 -14 -16 -14q-1 0 -9 0.5t-24.5 1.5t-34.5 2q-78 4 -92 4t-88 -4q-16 -1 -30.5 -2t-21 -1.5t-7.5 -0.5q-15 0 -15 14
q0 9 23 16q69 17 85.5 38t16.5 87v465q0 51 -23 76.5t-79 36.5q-37 3 -37 18q0 12 25 15q53 5 93 20.5t58.5 28t20.5 12.5q12 0 12 -14q-2 -14 -5 -38t-7 -85t-2 -105q23 116 91.5 183t160.5 67zM248 -121q123 0 123 -155q0 -94 -66 -154q-65 -59 -112 -59q-19 0 -19 16
q0 14 21 20q133 44 133 174q0 46 -17 46q-2 0 -14.5 -10.5t-30.5 -21.5t-33 -11q-32 0 -53.5 20.5t-21.5 52.5q0 36 25.5 59t64.5 23z" />
    <glyph glyph-name="Rcaron" unicode="&#x158;" horiz-adv-x="1261" 
d="M307 1683q16 0 78 -49q13 -8 39 -26t64.5 -45.5t66.5 -46.5h4q32 23 63 44.5t51.5 36t39.5 28t30.5 21.5t22 15.5t16 11t11 6t8.5 3.5t6 1q14 0 14 -14q0 -13 -121 -125q-20 -16 -59 -55l-31 -31t-24 -18t-29 -10q-7 0 -14.5 2.5t-13 6t-14.5 11t-14 12.5t-16 16.5
t-16 16.5q-162 149 -172 164q-4 8 -4 10q0 14 14 14zM989 -25q-74 0 -166 56q-92 57 -164 121q-69 63 -163 120q-92 56 -166 56q-25 0 -25 -29q0 -149 6 -195q6 -44 25 -63q8 -8 24.5 -14.5t27.5 -11.5t11 -11q0 -12 -16 -12q-1 0 -6 0.5t-16.5 1.5t-24.5 2q-58 4 -70 4
q-9 0 -63 -4q-12 -1 -22 -2t-14 -1.5t-5 -0.5q-17 0 -17 12q0 7 4.5 11t19 10.5t26.5 13.5q14 8 20 49q9 41 12 184q4 192 4 445q0 335 -6 420q-6 87 -28 112q-7 10 -30.5 18t-23.5 15q0 14 17 14l18 -2q17 -1 39.5 -2.5t34.5 -1.5q19 0 127 15q101 14 186 14
q239 0 389 -135q150 -132 150 -357q0 -231 -168 -362q-165 -131 -408 -131q-62 0 -112 4v-4q73 -15 176 -86q96 -65 205 -127q101 -58 192 -58q80 0 127 54.5t47 146.5q0 10 8 10q10 0 17.5 -26.5t7.5 -59.5q0 -91 -63 -151q-62 -62 -144 -62zM502 358q212 0 362 117
q152 119 152 352q0 240 -129 351q-127 112 -322 112q-191 0 -233 -51q-24 -31 -27 -100q-4 -98 -4 -422v-295q0 -43 29 -53q37 -11 172 -11z" />
    <glyph glyph-name="rcaron" unicode="&#x159;" horiz-adv-x="700" 
d="M385 934q-13 1 -19 2t-14 3t-10 3t-8.5 5.5t-8.5 7t-11 11.5l-15 15q-168 186 -174 201q-4 8 -4 12q0 14 14 14q11 0 34.5 -18t107.5 -92q63 -55 106 -92h4l229 196q9 6 19 6q23 0 10 -29q-6 -13 -20 -30l-158 -174q-31 -31 -42 -35q-14 -6 -40 -6zM537 825q61 0 95 -25
t34 -67q0 -67 -58 -67q-41 0 -65 53q-21 55 -66 55q-59 0 -119 -84q-60 -85 -63 -215v-330q0 -61 24 -84t109 -43q14 -3 14 -14q0 -14 -16 -14q-1 0 -9 0.5t-24.5 1.5t-34.5 2q-78 4 -92 4t-88 -4q-16 -1 -30.5 -2t-21 -1.5t-7.5 -0.5q-15 0 -15 14q0 9 23 16q69 17 85.5 38
t16.5 87v465q0 51 -23 76.5t-79 36.5q-37 3 -37 18q0 12 25 15q53 5 93 20.5t58.5 28t20.5 12.5q12 0 12 -14q-2 -14 -5 -38t-7 -85t-2 -105q23 116 91.5 183t160.5 67z" />
    <glyph glyph-name="Sacute" unicode="&#x15a;" horiz-adv-x="1134" 
d="M367 1393q-9 0 -9 10q0 3 9 12l194 115q59 37 125 74q62 36 90 36q21 0 36 -15t15 -40q0 -38 -61 -59q-261 -94 -381 -129zM168 -31q-16 0 -16 23q0 24 2 69q4 90 4 115q0 32 -2 73t-4 77t-4.5 67t-4.5 50t-2 20q0 16 17 16q11 0 20 -22q28 -94 55 -164q33 -71 78 -137
q103 -152 320 -152q167 0 257.5 83.5t90.5 227.5q0 116 -72 188.5t-223 114.5l-192 52q-312 83 -312 325q0 151 105 242q109 92 260 92q73 0 149 -29.5t126.5 -58.5t60.5 -29t16.5 5.5t8.5 18t2.5 20t0.5 24.5q3 37 21 37q20 0 20 -19q0 -112 6 -186q0 -1 13 -115
q14 -98 14 -112q0 -15 -16 -15q-15 0 -21 19q-45 155 -121 268q-90 137 -272 137q-139 0 -226 -75.5t-87 -202.5q0 -111 71.5 -176.5t233.5 -108.5l168 -45q167 -43 246 -124t79 -214q0 -173 -110 -276t-301 -103q-66 0 -137 16.5t-118 37t-87.5 37t-53.5 16.5
q-20 0 -29 -16t-16 -68q-3 -23 -18 -23z" />
    <glyph glyph-name="sacute" unicode="&#x15b;" horiz-adv-x="825" 
d="M279 924q-10 -3 -13 6l4 12q13 13 36 37t42.5 44.5t36.5 39.5l90 94l57 60q54 55 72 57q52 9 66 -41q9 -33 -45 -74q-188 -137 -338 -231zM444 -31q-73 0 -157 35l-86 33q-17 0 -24 -8t-15 -33q-6 -19 -17 -19q-14 0 -14 19v7q0 7 0.5 17.5t1 22.5t0.5 25v22
q0 52 -12 125q-3 21 -5.5 40.5t-3.5 28t-1 9.5q0 14 12 14q14 0 20 -20q89 -287 312 -287q96 0 156.5 50.5t60.5 139.5q0 139 -166 179l-146 34q-118 27 -172.5 74.5t-54.5 134.5q0 92 74 153.5t190 61.5q86 0 158 -34q78 -35 80 -35q19 0 22 47q3 18 15 18q14 0 14 -20
q0 -111 14 -207l5 -31q0 -12 -13 -12q-9 0 -18 18q-44 124 -108.5 176t-174.5 52q-86 0 -140 -47.5t-54 -116.5q0 -66 48.5 -107.5t151.5 -66.5l138 -31q204 -46 204 -227q0 -102 -83.5 -168t-211.5 -66z" />
    <glyph glyph-name="Scedilla" unicode="&#x15e;" horiz-adv-x="1134" 
d="M627 -31h-23l-18 -82q155 -30 155 -131q0 -54 -41 -87.5t-100 -33.5q-39 0 -69 10.5t-42 20.5t-12 15q0 12 12 12l5 -3q6 -3 15.5 -6.5t20.5 -7.5t25.5 -7t28.5 -3q44 0 69 22.5t25 59.5q0 42 -28.5 64.5t-96.5 40.5q-12 3 -12 16q0 6 4 22l20 80q-91 8 -207 58
q-109 47 -127 47q-20 0 -29 -16t-16 -68q-3 -23 -18 -23q-16 0 -16 23q0 24 2 69q4 90 4 115q0 32 -2 73t-4 77t-4.5 67t-4.5 50t-2 20q0 16 17 16q11 0 20 -22q28 -94 55 -164q33 -71 78 -137q103 -152 320 -152q167 0 257.5 83.5t90.5 227.5q0 116 -72 188.5t-223 114.5
l-192 52q-312 83 -312 325q0 151 105 242q109 92 260 92q73 0 149 -29.5t126.5 -58.5t60.5 -29t16.5 5.5t8.5 18t2.5 20t0.5 24.5q3 37 21 37q20 0 20 -19q0 -112 6 -186q0 -1 13 -115q14 -98 14 -112q0 -15 -16 -15q-15 0 -21 19q-45 155 -121 268q-90 137 -272 137
q-139 0 -226 -75.5t-87 -202.5q0 -111 71.5 -176.5t233.5 -108.5l168 -45q167 -43 246 -124t79 -214q0 -173 -110 -276t-301 -103z" />
    <glyph glyph-name="scedilla" unicode="&#x15f;" horiz-adv-x="825" 
d="M444 -31h-4l-18 -82q156 -30 156 -131q0 -54 -41.5 -87.5t-100.5 -33.5q-39 0 -69 10.5t-42 20.5t-12 15q0 12 13 12l6 -3q5 -3 14 -6.5t20 -7.5t25.5 -7t28.5 -3q43 0 68.5 22.5t25.5 59.5q0 42 -28.5 64.5t-96.5 40.5q-12 3 -12 16q0 6 4 22l20 80q-40 5 -87.5 21.5
t-78 30.5t-34.5 14q-17 0 -24 -8t-15 -33q-6 -19 -17 -19q-14 0 -14 19v7q0 7 0.5 17.5t1 22.5t0.5 25v22q0 52 -12 125q-3 21 -5.5 40.5t-3.5 28t-1 9.5q0 14 12 14q14 0 20 -20q89 -287 312 -287q96 0 156.5 50.5t60.5 139.5q0 139 -166 179l-146 34q-118 27 -172.5 74.5
t-54.5 134.5q0 92 74 153.5t190 61.5q86 0 158 -34q78 -35 80 -35q19 0 22 47q3 18 15 18q14 0 14 -20q0 -111 14 -207l5 -31q0 -12 -13 -12q-9 0 -18 18q-44 124 -108.5 176t-174.5 52q-86 0 -140 -47.5t-54 -116.5q0 -66 48.5 -107.5t151.5 -66.5l138 -31
q204 -46 204 -227q0 -102 -83.5 -168t-211.5 -66z" />
    <glyph glyph-name="Scaron" unicode="&#x160;" horiz-adv-x="1134" 
d="M319 1683q16 0 78 -49q13 -8 39 -26t64.5 -45.5t66.5 -46.5h4q32 23 63 44.5t51.5 36t39.5 28t30.5 21.5t22 15.5t16 11t11 6t8.5 3.5t6 1q15 0 15 -14q0 -13 -121 -125q-25 -20 -60 -55l-31 -31t-24 -18t-29 -10q-7 0 -14.5 2.5t-13 6t-14.5 11t-14 12.5t-16 16.5
t-16 16.5q-162 149 -172 164q-4 8 -4 10q0 14 14 14zM168 -31q-16 0 -16 23q0 24 2 69q4 90 4 115q0 32 -2 73t-4 77t-4.5 67t-4.5 50t-2 20q0 16 17 16q11 0 20 -22q28 -94 55 -164q33 -71 78 -137q103 -152 320 -152q167 0 257.5 83.5t90.5 227.5q0 116 -72 188.5
t-223 114.5l-192 52q-312 83 -312 325q0 151 105 242q109 92 260 92q73 0 149 -29.5t126.5 -58.5t60.5 -29t16.5 5.5t8.5 18t2.5 20t0.5 24.5q3 37 21 37q20 0 20 -19q0 -112 6 -186q0 -1 13 -115q14 -98 14 -112q0 -15 -16 -15q-15 0 -21 19q-45 155 -121 268
q-90 137 -272 137q-139 0 -226 -75.5t-87 -202.5q0 -111 71.5 -176.5t233.5 -108.5l168 -45q167 -43 246 -124t79 -214q0 -173 -110 -276t-301 -103q-66 0 -137 16.5t-118 37t-87.5 37t-53.5 16.5q-20 0 -29 -16t-16 -68q-3 -23 -18 -23z" />
    <glyph glyph-name="scaron" unicode="&#x161;" horiz-adv-x="825" 
d="M178 1208q11 0 34.5 -18t107.5 -92q63 -55 106 -92h4l229 196q9 6 19 6q23 0 10 -29q-6 -13 -20 -30l-158 -174q-31 -31 -42 -35q-14 -6 -40 -6q-13 1 -19 2t-14 3t-10 3t-8.5 5.5t-8.5 7t-11 11.5l-15 15q-27 27 -68 74q-106 121 -110 139q0 14 14 14zM444 -31
q-73 0 -157 35l-86 33q-17 0 -24 -8t-15 -33q-6 -19 -17 -19q-14 0 -14 19v7q0 7 0.5 17.5t1 22.5t0.5 25v22q0 52 -12 125q-3 21 -5.5 40.5t-3.5 28t-1 9.5q0 14 12 14q14 0 20 -20q89 -287 312 -287q96 0 156.5 50.5t60.5 139.5q0 139 -166 179l-146 34
q-118 27 -172.5 74.5t-54.5 134.5q0 92 74 153.5t190 61.5q86 0 158 -34q78 -35 80 -35q19 0 22 47q3 18 15 18q14 0 14 -20q0 -111 14 -207l5 -31q0 -12 -13 -12q-9 0 -18 18q-44 124 -108.5 176t-174.5 52q-86 0 -140 -47.5t-54 -116.5q0 -66 48.5 -107.5t151.5 -66.5
l138 -31q204 -46 204 -227q0 -102 -83.5 -168t-211.5 -66z" />
    <glyph glyph-name="uni0162" unicode="&#x162;" horiz-adv-x="1243" 
d="M451 -10q-15 0 -15 14q0 9 23 16q97 14 121 48q22 36 22 159v351q-3 532 -4 548q-3 85 -18 103q-27 35 -183 35q-112 -4 -141 -13q-43 -13 -70 -61q-29 -90 -41 -236q-3 -32 -20 -32q-14 0 -14 20l4 111q2 74 2 159q0 13 -2.5 26t-5.5 22.5t-6.5 17t-6.5 12.5l-2 4
q0 15 15 15q1 0 16.5 -2.5t51.5 -5.5t83 -5q216 -6 375 -6q321 0 459 10q19 2 35.5 4.5t22.5 3.5t9 1q15 0 15 -15l-2 -4q-3 -5 -6.5 -12.5t-6.5 -17t-5.5 -22.5t-2.5 -26q0 -85 2 -159l4 -111q0 -20 -14 -20q-18 0 -21 32q-17 154 -31 207.5t-55 77.5q-57 25 -166 25
q-155 0 -182 -35q-15 -18 -18 -103q-2 -55 -2 -548l-2 -351q0 -126 20 -159q23 -33 123 -48q23 -7 23 -16q0 -14 -15 -14l-69 4q-115 8 -230 0zM643 -365q-39 0 -69 10.5t-42 20.5t-12 15q0 12 12 12l6 -3q5 -3 14.5 -6.5t20.5 -7.5t25.5 -7t28.5 -3q44 0 69 22.5t25 59.5
q0 42 -28.5 64.5t-96.5 40.5q-12 3 -12 16q0 6 4 22l24 101h39l-22 -105q155 -30 155 -131q0 -54 -41 -87.5t-100 -33.5z" />
    <glyph glyph-name="uni0163" unicode="&#x163;" horiz-adv-x="616" 
d="M375 -31q-29 0 -53 6l-19 -88q156 -30 156 -131q0 -54 -41.5 -87.5t-100.5 -33.5q-39 0 -69 10.5t-41.5 20.5t-11.5 15q0 12 12 12l5 -3q6 -3 15 -6.5t20 -7.5t25.5 -7t28.5 -3q43 0 68.5 22.5t25.5 59.5q0 42 -28.5 64.5t-96.5 40.5q-12 3 -12 16q0 6 4 22l25 99
q-76 40 -76 164v536q0 41 -9.5 52t-47.5 12l-82 4q-25 0 -25 22q0 19 25 19q12 1 36.5 2t31 2t21 4.5t20 10.5t13 18.5t13.5 29.5q14 74 24 230q3 30 27 30q23 0 23 -28l-2 -283q0 -14 12 -14l213 2q31 0 31 -29t-27 -29q-2 0 -41 1.5t-82 1.5q-35 2 -94 2q-15 0 -15 -17
v-577q0 -71 27 -103.5t84 -32.5q118 0 121 130q0 20 14 20q17 0 17 -23q0 -77 -45 -127.5t-119 -50.5z" />
    <glyph glyph-name="Tcaron" unicode="&#x164;" horiz-adv-x="1243" 
d="M385 1683q16 0 78 -49q13 -8 39 -26t64.5 -45.5t66.5 -46.5h4q32 23 63 44.5t51.5 36t39.5 28t30.5 21.5t22 15.5t16 11t11 6t8.5 3.5t6 1q14 0 14 -14q0 -13 -121 -125q-20 -16 -59 -55l-31 -31t-24 -18t-29 -10q-7 0 -14.5 2.5t-13 6t-14.5 11t-14 12.5t-16 16.5
t-16 16.5q-162 149 -172 164q-4 8 -4 10q0 14 14 14zM451 -10q-15 0 -15 14q0 9 23 16q97 14 121 48q22 36 22 159v351q-3 532 -4 548q-3 85 -18 103q-27 35 -183 35q-112 -4 -141 -13q-43 -13 -70 -61q-29 -90 -41 -236q-3 -32 -20 -32q-14 0 -14 20l4 111q2 74 2 159
q0 13 -2.5 26t-5.5 22.5t-6.5 17t-6.5 12.5l-2 4q0 15 15 15q1 0 16.5 -2.5t51.5 -5.5t83 -5q216 -6 375 -6q321 0 459 10q19 2 35.5 4.5t22.5 3.5t9 1q15 0 15 -15l-2 -4q-3 -5 -6.5 -12.5t-6.5 -17t-5.5 -22.5t-2.5 -26q0 -85 2 -159l4 -111q0 -20 -14 -20q-18 0 -21 32
q-17 154 -31 207.5t-55 77.5q-57 25 -166 25q-155 0 -182 -35q-15 -18 -18 -103q-2 -55 -2 -548l-2 -351q0 -126 20 -159q23 -33 123 -48q23 -7 23 -16q0 -14 -15 -14l-69 4q-115 8 -230 0z" />
    <glyph glyph-name="tcaron" unicode="&#x165;" horiz-adv-x="616" 
d="M440 903q-14 0 -14 15q0 10 16 16q105 34 105 139q0 37 -12 37l-23 -18q-23 -17 -39 -17q-27 0 -44 16t-17 42q0 30 20.5 47.5t52.5 17.5q97 0 97 -125q0 -77 -52 -123q-53 -47 -90 -47zM375 -31q-164 0 -164 185v536q0 41 -9.5 52t-47.5 12l-82 4q-25 0 -25 22
q0 19 25 19q12 1 36.5 2t31 2t21 4.5t20 10.5t13 18.5t13.5 29.5q14 74 24 230q3 30 27 30q23 0 23 -28l-2 -283q0 -14 12 -14l213 2q31 0 31 -29t-27 -29q-2 0 -41 1.5t-82 1.5q-35 2 -94 2q-15 0 -15 -17v-577q0 -71 27 -103.5t84 -32.5q118 0 121 130q0 20 14 20
q17 0 17 -23q0 -77 -45 -127.5t-119 -50.5z" />
    <glyph glyph-name="Tbar" unicode="&#x166;" horiz-adv-x="1243" 
d="M1176 1294l-2 -4q-3 -5 -6.5 -12.5t-6.5 -17t-5.5 -22.5t-2.5 -26q0 -85 2 -159l4 -111q0 -20 -14 -20q-18 0 -21 32q-17 154 -31 207.5t-55 77.5q-57 25 -166 25q-155 0 -182 -35q-15 -15 -18 -92q-2 -49 -2 -418h190q17 0 17 -24.5t-17 -24.5h-190v-92l-2 -351
q0 -126 20 -159q23 -33 123 -48q23 -7 23 -16q0 -14 -15 -14l-69 4q-115 8 -230 0l-69 -4q-15 0 -15 14q0 9 23 16q97 14 121 48q22 36 22 159v351q-2 23 -2 92h-190q-17 0 -17 24.5t17 24.5h190q0 320 -4 418q-3 79 -16 92q-27 35 -183 35q-112 -4 -141 -13
q-43 -13 -70 -61q-29 -90 -41 -236q-3 -32 -20 -32q-14 0 -14 20l4 111q2 74 2 159q0 13 -2.5 26t-5.5 22.5t-6.5 17t-6.5 12.5l-2 4q0 15 15 15q1 0 16.5 -2.5t51.5 -5.5t83 -5q216 -6 375 -6q321 0 459 10q19 2 35.5 4.5t22.5 3.5t9 1q15 0 15 -15z" />
    <glyph glyph-name="tbar" unicode="&#x167;" horiz-adv-x="618" 
d="M522 170q17 0 17 -23q0 -77 -45 -127.5t-119 -50.5q-164 0 -164 185v309h-139q-17 0 -17 24.5t17 24.5h139v178q0 41 -9.5 52t-47.5 12l-82 4q-25 0 -25 22q0 19 25 19q12 1 36.5 2t31 2t21 4.5t20 10.5t13 18.5t13.5 29.5q14 74 24 230q3 30 27 30q23 0 23 -28l-2 -283
q0 -14 12 -14l213 2q31 0 31 -29t-27 -29q-2 0 -41 1.5t-82 1.5q-35 2 -94 2q-15 0 -15 -17v-221h193q17 0 17 -24.5t-17 -24.5h-193v-307q0 -71 27 -103.5t84 -32.5q118 0 121 130q0 20 14 20z" />
    <glyph glyph-name="Utilde" unicode="&#x168;" horiz-adv-x="1275" 
d="M426 1442q-15 0 -12 18q15 164 116 164q52 0 129 -47q82 -43 115 -43q65 3 74 61q3 21 14 21q17 0 17 -23q0 -56 -31.5 -94.5t-83.5 -38.5q-42 0 -125 45q-82 43 -113 43q-69 -3 -82 -86q-6 -20 -18 -20zM645 -31q-240 0 -367.5 152.5t-127.5 451.5v510q0 90 -15 126.5
t-63 54.5q-37 14 -36 29q1 10 17 10q1 0 6.5 -1t18.5 -2.5t28 -3.5q52 -6 84 -6q34 0 86 6q61 7 62 7q14 0 14 -13q0 -14 -39 -26q-51 -17 -69.5 -50t-18.5 -106l-2 -551q-1 -268 108 -408.5t314 -140.5q200 0 311 137t111 412v469q0 121 -25 173.5t-88 70.5q-33 8 -33 22
q0 11 17 11l10 -1q10 -2 25 -4t32.5 -3.5t36 -3t31.5 -1.5q43 0 92 6q15 2 29 3.5t20 2.5t7 1q12 0 12 -9q0 -15 -33 -26q-53 -13 -74.5 -56t-21.5 -127v-528q0 -299 -121 -443.5t-338 -144.5z" />
    <glyph glyph-name="utilde" unicode="&#x169;" horiz-adv-x="972" 
d="M266 1032q-15 0 -12 19q15 163 117 163q52 0 129 -47q82 -43 114 -43q65 3 74 62q3 20 14 20q17 0 17 -22q0 -56 -31.5 -94.5t-83.5 -38.5q-42 0 -125 45q-82 43 -112 43q-69 -3 -82 -86q-6 -21 -19 -21zM897 45q27 -6 27 -16q0 -12 -23 -15q-34 -4 -61.5 -12.5t-41 -15
t-14.5 -6.5q-16 0 -16 14q-9 38 -12 239h-2q-31 -124 -115 -194t-207 -70q-268 0 -268 322v280q0 91 -11.5 123t-50.5 51q-24 8 -31.5 13t-7.5 14q0 12 21 12q18 0 39.5 3.5t38.5 9t31.5 10.5t22.5 9l9 3q17 0 17 -18q-13 -56 -13 -230v-270q0 -287 226 -287q128 0 207 101
q81 100 81 264v2q0 149 -2 204t-12 93q-7 39 -17 48.5t-42 16.5q-40 15 -43 27q0 14 20 14q32 0 60 3.5t46 9t31 10.5t20.5 8.5t8.5 3.5q12 0 12 -12l-8 -33q-8 -31 -8 -74v-534q0 -58 20 -83t68 -38z" />
    <glyph glyph-name="Umacron" unicode="&#x16a;" horiz-adv-x="1275" 
d="M459 1544q33 0 76 -2q45 -2 100 -2q66 0 117 2t90 2q24 0 24 -18q0 -41 -30 -41q-56 0 -99 2t-94 2q-53 0 -102 -2q-47 -2 -90 -2q-25 0 -25 20q0 39 33 39zM645 -31q-240 0 -367.5 152.5t-127.5 451.5v510q0 90 -15 126.5t-63 54.5q-37 14 -36 29q1 10 17 10q1 0 6.5 -1
t18.5 -2.5t28 -3.5q52 -6 84 -6q34 0 86 6q61 7 62 7q14 0 14 -13q0 -14 -39 -26q-51 -17 -69.5 -50t-18.5 -106l-2 -551q-1 -268 108 -408.5t314 -140.5q200 0 311 137t111 412v469q0 121 -25 173.5t-88 70.5q-33 8 -33 22q0 11 17 11l10 -1q10 -2 25 -4t32.5 -3.5t36 -3
t31.5 -1.5q43 0 92 6q15 2 29 3.5t20 2.5t7 1q12 0 12 -9q0 -15 -33 -26q-53 -13 -74.5 -56t-21.5 -127v-528q0 -299 -121 -443.5t-338 -144.5z" />
    <glyph glyph-name="umacron" unicode="&#x16b;" horiz-adv-x="972" 
d="M293 1032q-25 0 -25 21q0 39 33 39t76 -2q67 -3 100 -3q41 0 117 3q51 2 90 2q25 0 25 -19q0 -41 -31 -41q-55 0 -98 2t-95 2q-53 0 -102 -2q-47 -2 -90 -2zM897 45q27 -6 27 -16q0 -12 -23 -15q-34 -4 -61.5 -12.5t-41 -15t-14.5 -6.5q-16 0 -16 14q-9 38 -12 239h-2
q-31 -124 -115 -194t-207 -70q-268 0 -268 322v280q0 91 -11.5 123t-50.5 51q-24 8 -31.5 13t-7.5 14q0 12 21 12q18 0 39.5 3.5t38.5 9t31.5 10.5t22.5 9l9 3q17 0 17 -18q-13 -56 -13 -230v-270q0 -287 226 -287q128 0 207 101q81 100 81 264v2q0 149 -2 204t-12 93
q-7 39 -17 48.5t-42 16.5q-40 15 -43 27q0 14 20 14q32 0 60 3.5t46 9t31 10.5t20.5 8.5t8.5 3.5q12 0 12 -12l-8 -33q-8 -31 -8 -74v-534q0 -58 20 -83t68 -38z" />
    <glyph glyph-name="Uring" unicode="&#x16e;" horiz-adv-x="1275" 
d="M645 1401q-63 0 -106 39.5t-43 99.5q0 62 41.5 100.5t107.5 38.5q67 0 108.5 -38.5t41.5 -100.5t-41.5 -100.5t-108.5 -38.5zM645 1427q88 0 88 113t-88 113q-41 0 -64.5 -29.5t-23.5 -83.5t23.5 -83.5t64.5 -29.5zM645 -31q-240 0 -367.5 152.5t-127.5 451.5v510
q0 90 -15 126.5t-63 54.5q-37 14 -36 29q1 10 17 10q1 0 6.5 -1t18.5 -2.5t28 -3.5q52 -6 84 -6q34 0 86 6q61 7 62 7q14 0 14 -13q0 -14 -39 -26q-51 -17 -69.5 -50t-18.5 -106l-2 -551q-1 -268 108 -408.5t314 -140.5q200 0 311 137t111 412v469q0 121 -25 173.5t-88 70.5
q-33 8 -33 22q0 11 17 11l10 -1q10 -2 25 -4t32.5 -3.5t36 -3t31.5 -1.5q43 0 92 6q15 2 29 3.5t20 2.5t7 1q12 0 12 -9q0 -15 -33 -26q-53 -13 -74.5 -56t-21.5 -127v-528q0 -299 -121 -443.5t-338 -144.5z" />
    <glyph glyph-name="uring" unicode="&#x16f;" horiz-adv-x="972" 
d="M506 1012q-63 0 -106.5 39.5t-43.5 99.5q0 61 42 100t108 39q67 0 108 -38.5t41 -100.5t-41 -100.5t-108 -38.5zM506 1264q-41 0 -64.5 -29.5t-23.5 -83.5t23.5 -83.5t64.5 -29.5q88 0 88 113t-88 113zM897 45q27 -6 27 -16q0 -12 -23 -15q-34 -4 -61.5 -12.5t-41 -15
t-14.5 -6.5q-16 0 -16 14q-9 38 -12 239h-2q-31 -124 -115 -194t-207 -70q-268 0 -268 322v280q0 91 -11.5 123t-50.5 51q-24 8 -31.5 13t-7.5 14q0 12 21 12q18 0 39.5 3.5t38.5 9t31.5 10.5t22.5 9l9 3q17 0 17 -18q-13 -56 -13 -230v-270q0 -287 226 -287q128 0 207 101
q81 100 81 264v2q0 149 -2 204t-12 93q-7 39 -17 48.5t-42 16.5q-40 15 -43 27q0 14 20 14q32 0 60 3.5t46 9t31 10.5t20.5 8.5t8.5 3.5q12 0 12 -12l-8 -33q-8 -31 -8 -74v-534q0 -58 20 -83t68 -38z" />
    <glyph glyph-name="Uhungarumlaut" unicode="&#x170;" horiz-adv-x="1275" 
d="M481 1331q-7 -3 -10 6q-3 10 0 13l84 127q72 111 119 170q26 36 53 36q51 0 51 -49q0 -28 -39 -67q-153 -153 -250 -232zM692 1331q-10 -3 -10 6q-2 2 2 13l86 102q117 138 160 184q44 47 63 47q23 0 37 -15t14 -36q0 -32 -45 -65q-214 -176 -297 -232zM645 -31
q-240 0 -367.5 152.5t-127.5 451.5v510q0 90 -15 126.5t-63 54.5q-37 14 -36 29q1 10 17 10q1 0 6.5 -1t18.5 -2.5t28 -3.5q52 -6 84 -6q34 0 86 6q61 7 62 7q14 0 14 -13q0 -14 -39 -26q-51 -17 -69.5 -50t-18.5 -106l-2 -551q-1 -268 108 -408.5t314 -140.5q200 0 311 137
t111 412v469q0 121 -25 173.5t-88 70.5q-33 8 -33 22q0 11 17 11l10 -1q10 -2 25 -4t32.5 -3.5t36 -3t31.5 -1.5q43 0 92 6q15 2 29 3.5t20 2.5t7 1q12 0 12 -9q0 -15 -33 -26q-53 -13 -74.5 -56t-21.5 -127v-528q0 -299 -121 -443.5t-338 -144.5z" />
    <glyph glyph-name="uhungarumlaut" unicode="&#x171;" horiz-adv-x="972" 
d="M305 924q-7 -3 -10 6t0 12l84 127q72 111 119 170q27 37 53 37q51 0 51 -49q0 -29 -39 -68q-148 -148 -250 -231zM506 930q-2 2 2 12l86 102q126 149 160 185q44 47 63 47q23 0 37 -15t14 -36q0 -33 -45 -66q-207 -170 -297 -231l-10 -4q-10 -7 -10 6zM897 45
q27 -6 27 -16q0 -12 -23 -15q-34 -4 -61.5 -12.5t-41 -15t-14.5 -6.5q-16 0 -16 14q-9 38 -12 239h-2q-31 -124 -115 -194t-207 -70q-268 0 -268 322v280q0 91 -11.5 123t-50.5 51q-24 8 -31.5 13t-7.5 14q0 12 21 12q18 0 39.5 3.5t38.5 9t31.5 10.5t22.5 9l9 3
q17 0 17 -18q-13 -56 -13 -230v-270q0 -287 226 -287q128 0 207 101q81 100 81 264v2q0 149 -2 204t-12 93q-7 39 -17 48.5t-42 16.5q-40 15 -43 27q0 14 20 14q32 0 60 3.5t46 9t31 10.5t20.5 8.5t8.5 3.5q12 0 12 -12l-8 -33q-8 -31 -8 -74v-534q0 -58 20 -83t68 -38z" />
    </font>
</defs>
</svg>
