<?xml version="1.0" standalone="no"?>
<!DOCTYPE svg PUBLIC "-//W3C//DTD SVG 1.1//EN" "http://www.w3.org/Graphics/SVG/1.1/DTD/svg11.dtd" >
<svg xmlns="http://www.w3.org/2000/svg" xmlns:xlink="http://www.w3.org/1999/xlink" version="1.1">
<metadata>
Created by FontForge 20170731 at Thu Apr 29 12:40:39 2021
 By Aleksey,,,
Copyright (c) 2014 by Rodrigo Saiani. All rights reserved.
</metadata>
<defs>
<font id="Tenez-Black" horiz-adv-x="0" >
  <font-face 
    font-family="Tenez Black"
    font-weight="900"
    font-stretch="normal"
    units-per-em="2048"
    panose-1="2 0 10 0 0 0 0 0 0 0"
    ascent="1542"
    descent="-506"
    x-height="813"
    cap-height="1305"
    bbox="-1242 -784 2714 2157"
    underline-thickness="102"
    underline-position="-307"
    unicode-range="U+000D-FB02"
  />
<missing-glyph horiz-adv-x="1024" 
d="M840 1475v-2048h-650v2048h650zM682 1337h-338v-67h133v-76h-135v-68h340v68h-135v76h135v67zM547 1073h-205v-213h340v70h-135v143zM477 1004v-74h-67v74h67zM682 805h-340v-68h135v-75h-135v-68h205v143h135v68zM682 682h-68v-135h-272v-70h340v205zM682 432h-205v-115
h70v48h67v-97h-204v164h-68v-231h340v231zM682 78h-340v-232h340v232zM614 10v-96h-204v96h204zM682 -201h-340v-67h143l-143 -97v-67h340v67h-209l143 97h66v67z" />
    <glyph glyph-name="fi" unicode="fi" horiz-adv-x="1398" 
d="M1303 25q36 -17 36 -29t-16 -12l-22 2q-22 1 -56 3t-72.5 4t-79.5 3.5t-69 1.5q-29 0 -67 -1.5t-72 -3.5t-64 -4t-49 -3.5t-20 -1.5q-15 0 -15 12q0 4 2.5 7.5t6.5 5.5t13 7.5t17 10.5q42 28 51 84q13 63 13 200v307q0 77 -25 105q-31 31 -127 31h-166v-418
q0 -157 19 -225q18 -63 71 -84q27 -10 34 -15.5t7 -13.5q0 -12 -14 -12q-1 0 -22.5 1.5t-55 3.5t-72 4t-79.5 3.5t-70 1.5t-69 -1.5t-76.5 -3.5t-68.5 -4t-53 -3.5t-22 -1.5q-14 0 -14 12q0 4 2.5 7.5t6.5 5.5t13 7.5t17 10.5q53 27 65 88q15 64 15 239v349v43
q-53 -3 -97 -3q-17 0 -23.5 13.5t0 27t23.5 13.5h101q24 261 176.5 395.5t394.5 134.5q161 0 293 -72q129 -71 129 -174q0 -68 -44 -109.5t-112 -41.5q-135 0 -188 170q-30 100 -66 144t-92 44q-59 0 -94 -44.5t-35 -129.5v-317h252q92 0 270 18q52 5 99 10t66 7t20 2
q16 0 16 -15q0 -9 -24 -73q-15 -58 -15 -297v-76q0 -165 20.5 -243t76.5 -107z" />
    <glyph glyph-name="fl" unicode="fl" horiz-adv-x="1443" 
d="M1350 31q34 -21 34 -33t-14 -12l-117 6q-104 8 -188 8q-28 0 -67.5 -1.5t-76.5 -3.5t-70 -4t-53.5 -3.5t-21.5 -1.5q-14 0 -14 12q0 14 35 35q56 36 71 125q15 88 15 374v213q-42 0 -169.5 2t-195.5 3v-414q0 -157 19 -225q18 -63 71 -84q27 -10 34 -15.5t7 -13.5
q0 -12 -14 -12q-1 0 -22.5 1.5t-55 3.5t-72 4t-79.5 3.5t-70 1.5t-69 -1.5t-76.5 -3.5t-68.5 -4t-53 -3.5t-22 -1.5q-14 0 -14 12q0 4 2.5 7.5t6.5 5.5t13 7.5t17 10.5q53 27 65 88q15 64 15 239v349v43q-46 -3 -93 -3q-17 0 -23.5 13.5t0 27t23.5 13.5h7q7 0 17 -0.5t22 -1
t26 -0.5h25q21 266 172 399t372 133q157 0 293 -74q89 5 159 28.5t101 43.5l7 2q12 0 12 -12l-1 -3q-1 -4 -2.5 -11.5t-3 -19t-3.5 -28t-4.5 -35.5t-4 -44t-3 -52t-2.5 -60.5t-1 -68.5v-463q0 -253 17 -360q18 -94 86 -141zM518 793l365 6v366q-12 57 -59 91t-119 34
q-86 0 -136.5 -49.5t-50.5 -136.5v-311z" />
    <glyph glyph-name="T_h.liga" unicode="Th" horiz-adv-x="2531" 
d="M2451 29q33 -20 33 -31q0 -12 -14 -12q-33 0 -117 8q-95 6 -153 6q-64 0 -158 -6q-84 -8 -96 -8q-15 0 -15 12t37 33q32 25 41 63q8 33 8 158v354q0 86 -21 119t-75 33q-72 0 -125 -104.5t-53 -274.5q0 -198 12 -262q12 -66 68 -90q8 -4 17.5 -7.5t13 -5t6 -4.5t2.5 -10
q0 -14 -17 -14q-21 0 -114 8q-105 6 -170 6q-28 0 -67.5 -1.5t-76 -3.5t-69 -4t-53 -3.5t-21.5 -1.5q-17 0 -17 12q0 17 35 27q55 27 70 118q16 101 16 398v399q0 124 -6 174q-6 49 -31 80q-52 61 -213 61q-111 0 -141 -53q-12 -18 -18 -61q-6 -79 -8 -176q-5 -220 -5 -387
v-279q0 -157 13 -207q15 -45 69 -63q46 -20 43 -35q-2 -8 -14 -8q-36 0 -213 10q-106 4 -117 4q-10 0 -116 -4l-144 -6q-19 -1 -35.5 -2t-24.5 -1.5t-9 -0.5q-16 0 -14 11q1 14 42 32q56 18 68 63q14 43 14 205v281q0 467 -14 563q-3 40 -17 61q-30 53 -108 53
q-89 0 -146 -75q-58 -76 -129 -320q-11 -33 -25 -31q-8 3 -9 19l6 290v42q0 19 -2.5 38t-6 33t-6.5 25t-5 18l-3 6q0 15 15 15q3 0 22 -2.5t65 -6.5t105 -8q117 -8 477 -8q198 0 455 10q189 7 379 19q163 10 172 10q14 0 14 -10q0 1 -1 -13t-2 -40.5t-3 -62t-3.5 -81.5
t-2.5 -94t-1.5 -104.5t-0.5 -108.5v-207q68 219 297 219q179 0 260.5 -83.5t81.5 -264.5v-227q0 -116 10 -158q12 -38 59 -65z" />
    <glyph glyph-name="f_b.liga" unicode="fb" horiz-adv-x="1974" 
d="M1513 827q160 0 279 -110q121 -112 121 -307q0 -203 -131 -322t-334 -119q-62 0 -105.5 15.5t-119.5 60.5q-101 61 -113 61q-18 0 -49 -22l-111 -90q-36 -25 -53 -25q-23 0 -23 29q9 96 9 293q0 840 -4 876q-11 56 -56.5 89.5t-117.5 33.5q-86 0 -136.5 -49.5
t-50.5 -136.5v-309q120 6 166 6q33 0 33 -29t-33 -29l-166 5v-412q0 -157 19 -225q18 -63 71 -84q27 -10 34 -15.5t7 -13.5q0 -12 -14 -12q-1 0 -22.5 1.5t-55 3.5t-72 4t-79.5 3.5t-70 1.5t-69 -1.5t-76.5 -3.5t-68.5 -4t-53 -3.5t-22 -1.5q-14 0 -14 12q0 4 2.5 7.5
t6.5 5.5t13 7.5t17 10.5q53 27 65 88q15 64 15 239v349v43q-46 -3 -93 -3q-17 0 -23.5 13.5t0 27t23.5 13.5h7q7 0 17 -0.5t22 -1t26 -0.5h25q21 266 172 399t372 133q165 0 308 -82q53 12 107.5 32.5t85.5 35t36 14.5q16 0 16 -18q0 -1 -0.5 -6.5t-1.5 -17t-2 -25.5
q-2 -29 -2 -74v-516h8q52 155 258 155zM1393 10q71 0 102 84q33 79 33 316q0 206 -24 281t-95 75q-165 0 -162 -363v-69q3 -324 146 -324z" />
    <glyph glyph-name="f_f.liga" unicode="ff" horiz-adv-x="1474" 
d="M1139 1270q-35 0 -56.5 -20.5t-21.5 -55.5q-3 -25 19.5 -69.5t52 -90t56 -111t30.5 -124.5q35 2 102 2q33 0 33 -29t-33 -29h-100v-407q0 -147 25.5 -218t92.5 -89q58 -14 56 -33q-2 -10 -15 -10q-1 0 -27 1.5t-66.5 3.5t-85 4t-89.5 3.5t-74 1.5q-28 0 -67.5 -1.5
t-76.5 -3.5t-69.5 -4t-53 -3.5t-21.5 -1.5q-15 0 -15 12q0 4 2.5 7.5t6.5 5.5t13 7.5t17 10.5q54 28 66 88q14 60 14 239v375v17q-63 2 -262 2h-60v-35v-379q0 -146 22.5 -217.5t80.5 -89.5q26 -9 32.5 -13.5t6.5 -15.5q0 -14 -15 -14q-1 0 -24.5 1.5t-60.5 3.5t-77 4
t-81 3.5t-66 1.5q-28 0 -67.5 -1.5t-76.5 -3.5t-70 -4t-53.5 -3.5t-21.5 -1.5q-14 0 -14 12q0 4 2.5 7.5t6.5 5.5t13 7.5t17 10.5q54 28 66 88q14 60 14 239v389h-107q-17 0 -23.5 13.5t0 27t23.5 13.5q72 0 107 -2v2q0 238 149 366q150 129 371 129q184 0 291 -90
q101 125 283 125q107 0 166 -39t61 -104q0 -57 -39 -95t-96 -38q-52 0 -76 25.5t-49 95.5q-27 96 -88 96zM592 793q201 0 264 2q6 130 35 241q-29 120 -76 173t-121 53q-75 0 -118.5 -48t-43.5 -135v-286h60z" />
    <glyph glyph-name="f_f_b.liga" unicode="ffb" horiz-adv-x="2734" 
d="M2210 827q159 0 278 -110q121 -112 121 -307q0 -203 -131 -322t-334 -119q-62 0 -105.5 15.5t-119.5 60.5q-101 61 -113 61q-18 0 -49 -22l-110 -90q-36 -25 -54 -25q-22 0 -22 29q8 96 8 293q0 840 -4 876q-11 56 -56.5 89.5t-117.5 33.5q-86 0 -136.5 -49.5
t-50.5 -136.5v-305h95l51 2q33 0 33 -29t-33 -29q-95 0 -146 2v-409q0 -157 19 -225q18 -63 72 -84q27 -10 34 -15.5t7 -13.5q0 -12 -15 -12q-1 0 -22.5 1.5t-55 3.5t-72 4t-79.5 3.5t-70 1.5q-28 0 -67.5 -1.5t-76.5 -3.5t-70 -4t-53.5 -3.5t-21.5 -1.5q-14 0 -14 12
q0 4 2.5 7.5t6.5 5.5t13 7.5t17 10.5q54 28 66 88q14 60 14 239v349v45h-82h-248v-82v-332q0 -157 19 -225q18 -63 71 -84q27 -10 34 -15.5t7 -13.5q0 -12 -14 -12q-1 0 -22.5 1.5t-55 3.5t-72 4t-79.5 3.5t-70 1.5t-69 -1.5t-76.5 -3.5t-68.5 -4t-53 -3.5t-22 -1.5
q-14 0 -14 12q0 4 2.5 7.5t6.5 5.5t13 7.5t17 10.5q53 27 65 88q15 64 15 239v267q0 75 8 122h-80q-17 0 -23.5 13.5t0 27t23.5 13.5h88q42 198 179.5 302.5t338.5 104.5q166 0 279 -76q144 199 432 199q164 0 307 -82q53 12 107.5 32.5t85.5 35t36 14.5q17 0 17 -18
q0 -1 -0.5 -6.5t-1.5 -17t-2 -25.5q-2 -29 -2 -74v-516h8q52 155 258 155zM766 793h86q10 95 22 137q-33 120 -78 173.5t-118 53.5q-71 0 -115.5 -52.5t-44.5 -146.5v-163q55 -2 248 -2zM2089 10q71 0 102 84q33 79 33 316q0 206 -24 281t-95 75q-164 0 -161 -363v-69
q3 -324 145 -324z" />
    <glyph glyph-name="f_f_h.liga" unicode="ffh" horiz-adv-x="2744" 
d="M2652 29q33 -20 33 -31q0 -12 -14 -12q-33 0 -117 8q-94 6 -154 6q-62 0 -157 -6q-84 -8 -97 -8q-14 0 -14 12t37 33q32 25 41 63q8 33 8 158v354q0 86 -21 119t-75 33q-72 0 -125 -104.5t-53 -274.5v-133q0 -94 19.5 -140.5t82.5 -74.5q35 -21 35 -33t-15 -12l-116 6
q-104 8 -189 8q-28 0 -67.5 -1.5t-76.5 -3.5t-69.5 -4t-53 -3.5t-21.5 -1.5q-15 0 -15 12q0 14 35 35q57 37 72 125q14 83 14 374v633q-12 57 -59 91t-119 34q-86 0 -136.5 -49.5t-50.5 -136.5v-305h95l51 2q33 0 33 -29t-33 -29q-95 0 -146 2v-409q0 -157 19 -225
q18 -63 72 -84q27 -10 34 -15.5t7 -13.5q0 -12 -15 -12q-1 0 -22.5 1.5t-55 3.5t-72 4t-79.5 3.5t-70 1.5q-28 0 -67.5 -1.5t-76.5 -3.5t-70 -4t-53.5 -3.5t-21.5 -1.5q-14 0 -14 12q0 4 2.5 7.5t6.5 5.5t13 7.5t17 10.5q54 28 66 88q14 60 14 239v349v45h-82h-248v-82v-332
q0 -157 19 -225q18 -63 71 -84q27 -10 34 -15.5t7 -13.5q0 -12 -14 -12q-1 0 -22.5 1.5t-55 3.5t-72 4t-79.5 3.5t-70 1.5t-69 -1.5t-76.5 -3.5t-68.5 -4t-53 -3.5t-22 -1.5q-14 0 -14 12q0 4 2.5 7.5t6.5 5.5t13 7.5t17 10.5q53 27 65 88q15 64 15 239v267q0 75 8 122h-80
q-17 0 -23.5 13.5t0 27t23.5 13.5h88q42 198 179.5 302.5t338.5 104.5q166 0 279 -76q144 199 432 199q157 0 293 -74q89 5 159 28.5t101 43.5l6 2q12 0 12 -12l-1 -3q-1 -4 -2 -11.5t-3 -19t-4 -28t-4 -35.5t-4 -44t-3 -52t-2 -60.5t-1 -68.5v-387q68 219 297 219
q179 0 260.5 -83.5t81.5 -264.5v-227q0 -116 10 -158q12 -38 59 -65zM766 793h86q10 95 22 137q-33 120 -78 173.5t-118 53.5q-71 0 -115.5 -52.5t-44.5 -146.5v-163q55 -2 248 -2z" />
    <glyph glyph-name="f_f_i.liga" unicode="ffi" horiz-adv-x="2095" 
d="M2007 25q37 -18 37 -29q0 -12 -16 -12l-22 2q-22 1 -56 3t-72.5 4t-79.5 3.5t-69 1.5q-29 0 -67.5 -1.5t-72.5 -3.5t-64 -4t-49 -3.5t-20 -1.5q-14 0 -14 12q0 4 2.5 7.5t6.5 5.5t13 7.5t17 10.5q42 28 51 84q12 58 12 200v307q0 68 -28 99q-28 28 -164 28h-125v-409
q0 -160 18 -225q18 -63 72 -84q27 -10 34 -15.5t7 -13.5q0 -12 -15 -12q-1 0 -22.5 1.5t-55 3.5t-72 4t-79.5 3.5t-70 1.5t-69 -1.5t-76 -3.5t-68.5 -4t-53 -3.5t-21.5 -1.5q-15 0 -15 12q0 4 2.5 7.5t6.5 5.5t13 7.5t17 10.5q54 28 66 88q14 60 14 239v349v40h-305v-77
v-332q0 -160 18 -225q18 -63 72 -84q27 -10 34 -15.5t7 -13.5q0 -12 -14 -12q-1 0 -22.5 1.5t-55 3.5t-72 4t-79.5 3.5t-70 1.5t-69 -1.5t-76.5 -3.5t-68.5 -4t-53 -3.5t-22 -1.5q-14 0 -14 12q0 4 2.5 7.5t6.5 5.5t13 7.5t17 10.5q53 27 65 88q14 60 14 239v267q0 69 9 122
h-138q-17 0 -23.5 13.5t0 27t23.5 13.5h148q42 199 178.5 303t337.5 104q159 0 266 -67q150 190 447 190q161 0 293 -72q129 -71 129 -174q0 -68 -44 -109.5t-112 -41.5q-136 0 -189 170q-30 100 -65.5 144t-91.5 44q-59 0 -94 -44.5t-35 -129.5v-317h252q91 0 270 18
q53 5 99 10t65 7t20 2q17 0 17 -15q0 -6 -25 -73q-14 -55 -14 -297v-76q0 -166 20 -243.5t76 -106.5zM555 799h309q10 94 35 172q-30 96 -73 141t-111 45q-71 0 -115.5 -52.5t-44.5 -146.5v-159z" />
    <glyph glyph-name="f_f_j.liga" unicode="ffj" horiz-adv-x="2023" 
d="M1929 836q17 0 17 -15q0 -6 -25 -73q-14 -55 -14 -297v-291q-15 -600 -396 -600q-93 0 -153 53t-62 133q-1 62 35.5 99.5t93.5 37.5q55 0 86 -29t45 -92q27 -129 97 -129q29 0 48 19.5t19 50.5q0 55 -90 178q-36 50 -63 126t-27 155v456q0 78 -24 105q-31 31 -127 31
h-166v-418q0 -160 18 -225q18 -63 72 -84q27 -10 34 -15.5t7 -13.5q0 -12 -15 -12q-1 0 -22.5 1.5t-55 3.5t-72 4t-79.5 3.5t-70 1.5t-69 -1.5t-76 -3.5t-68.5 -4t-53 -3.5t-21.5 -1.5q-15 0 -15 12q0 4 2.5 7.5t6.5 5.5t13 7.5t17 10.5q54 28 66 88q14 60 14 239v349
q0 37 2 47q-246 0 -307 -2v-82v-332q0 -160 18 -225q18 -63 72 -84q27 -10 34 -15.5t7 -13.5q0 -12 -14 -12q-1 0 -22.5 1.5t-55 3.5t-72 4t-79.5 3.5t-70 1.5t-69 -1.5t-76.5 -3.5t-68.5 -4t-53 -3.5t-22 -1.5q-14 0 -14 12q0 4 2.5 7.5t6 5.5t12.5 7.5t17 10.5
q54 28 66 88q14 60 14 239v267q0 73 9 122h-111q-17 0 -23.5 13.5t0 27t23.5 13.5h121q42 199 178.5 303t337.5 104q159 0 266 -67q150 190 447 190q160 0 292 -72q129 -71 129 -174q0 -68 -43.5 -109.5t-111.5 -41.5q-136 0 -189 170q-30 100 -65.5 144t-91.5 44
q-59 0 -94 -44.5t-35 -129.5v-317h252q91 0 270 18q53 5 99 10t65 7t20 2zM551 799h309q10 94 35 172q-32 97 -74.5 141.5t-109.5 44.5q-71 0 -115.5 -52.5t-44.5 -146.5v-159z" />
    <glyph glyph-name="f_f_k.liga" unicode="ffk" horiz-adv-x="2734" 
d="M2673 39q9 -9 17.5 -16t13 -10t7.5 -7t3 -8q0 -12 -17 -12q-1 0 -16.5 1.5t-40.5 3.5t-54 4t-63 3.5t-63 1.5q-78 0 -179 -8l-110 -6q-14 0 -14 12q0 3 21.5 24t21.5 31q0 43 -175 303q-24 41 -38 41q-8 0 -25 -10l-18 -12v-129q0 -94 19.5 -140.5t82.5 -74.5
q35 -21 35 -33t-15 -12l-116 6q-104 8 -189 8q-28 0 -67.5 -1.5t-76.5 -3.5t-69.5 -4t-53 -3.5t-21.5 -1.5q-15 0 -15 12q0 14 35 35q57 37 72 125q14 83 14 374v633q-12 57 -59 91t-119 34q-86 0 -136.5 -49.5t-50.5 -136.5v-305h95l51 2q33 0 33 -29t-33 -29q-95 0 -146 2
v-409q0 -157 19 -225q18 -63 72 -84q27 -10 34 -15.5t7 -13.5q0 -12 -15 -12q-1 0 -22.5 1.5t-55 3.5t-72 4t-79.5 3.5t-70 1.5q-28 0 -67.5 -1.5t-76.5 -3.5t-70 -4t-53.5 -3.5t-21.5 -1.5q-14 0 -14 12q0 4 2.5 7.5t6.5 5.5t13 7.5t17 10.5q54 28 66 88q14 60 14 239v349
v45h-82h-248v-82v-332q0 -157 19 -225q18 -63 71 -84q27 -10 34 -15.5t7 -13.5q0 -12 -14 -12q-1 0 -22.5 1.5t-55 3.5t-72 4t-79.5 3.5t-70 1.5t-69 -1.5t-76.5 -3.5t-68.5 -4t-53 -3.5t-22 -1.5q-14 0 -14 12q0 4 2.5 7.5t6.5 5.5t13 7.5t17 10.5q53 27 65 88
q15 64 15 239v267q0 75 8 122h-80q-17 0 -23.5 13.5t0 27t23.5 13.5h88q42 198 179.5 302.5t338.5 104.5q166 0 279 -76q144 199 432 199q157 0 293 -74q89 5 159 28.5t101 43.5l6 2q12 0 12 -12l-1 -3q-1 -4 -2 -11.5t-3 -19t-4 -28t-4 -35.5t-4 -44t-3 -52t-2 -60.5
t-1 -68.5v-581q216 146 276 198q68 59 68 97q0 36 -66 67q-39 17 -39 27t15 10l83 -6q73 -8 125 -8q36 0 113 6q76 6 86 6q16 0 16 -12q0 -16 -75 -31q-84 -15 -258 -143l-29 -21q207 -314 414 -565zM766 793h86q10 95 22 137q-33 120 -78 173.5t-118 53.5
q-71 0 -115.5 -52.5t-44.5 -146.5v-163q55 -2 248 -2z" />
    <glyph glyph-name="f_f_l.liga" unicode="ffl" horiz-adv-x="2140" 
d="M2046 31q35 -21 35 -33t-15 -12l-116 6q-104 8 -189 8q-28 0 -67.5 -1.5t-76.5 -3.5t-69.5 -4t-53 -3.5t-21.5 -1.5q-15 0 -15 12q0 14 35 35q57 37 72 125q14 83 14 374v633q-12 57 -59 91t-119 34q-86 0 -136.5 -49.5t-50.5 -136.5v-305h95l51 2q33 0 33 -29t-33 -29
q-95 0 -146 2v-409q0 -157 19 -225q18 -63 72 -84q27 -10 34 -15.5t7 -13.5q0 -12 -15 -12q-1 0 -22.5 1.5t-55 3.5t-72 4t-79.5 3.5t-70 1.5q-28 0 -67.5 -1.5t-76.5 -3.5t-70 -4t-53.5 -3.5t-21.5 -1.5q-14 0 -14 12q0 4 2.5 7.5t6.5 5.5t13 7.5t17 10.5q54 28 66 88
q14 60 14 239v349v45h-82h-248v-82v-332q0 -157 19 -225q18 -63 71 -84q27 -10 34 -15.5t7 -13.5q0 -12 -14 -12q-1 0 -22.5 1.5t-55 3.5t-72 4t-79.5 3.5t-70 1.5t-69 -1.5t-76.5 -3.5t-68.5 -4t-53 -3.5t-22 -1.5q-14 0 -14 12q0 4 2.5 7.5t6.5 5.5t13 7.5t17 10.5
q53 27 65 88q15 64 15 239v267q0 75 8 122h-80q-17 0 -23.5 13.5t0 27t23.5 13.5h88q42 198 179.5 302.5t338.5 104.5q166 0 279 -76q144 199 432 199q157 0 293 -74q89 5 159 28.5t101 43.5l6 2q12 0 12 -12l-1 -3q-1 -4 -2 -11.5t-3 -19t-4 -28t-4 -35.5t-4 -44t-3 -52
t-2 -60.5t-1 -68.5v-463q0 -259 16 -360q18 -94 86 -141zM766 793h86q10 95 22 137q-33 120 -78 173.5t-118 53.5q-71 0 -115.5 -52.5t-44.5 -146.5v-163q55 -2 248 -2z" />
    <glyph glyph-name="f_h.liga" unicode="fh" horiz-adv-x="2035" 
d="M1956 29q33 -20 33 -31q0 -12 -15 -12q-32 0 -116 8q-94 6 -154 6q-64 0 -158 -6q-84 -8 -96 -8q-14 0 -14 12t37 33q31 24 40 63q9 37 9 158v354q0 86 -21.5 119t-75.5 33q-70 0 -121 -93.5t-57 -250.5v-86q0 -125 14.5 -190.5t57.5 -106.5q35 -21 35 -33t-15 -12
q-1 0 -21 1.5t-51 3.5t-66.5 4t-72.5 3.5t-63 1.5q-28 0 -67.5 -1.5t-76.5 -3.5t-70 -4t-53.5 -3.5t-21.5 -1.5q-14 0 -14 12q0 14 35 35q56 36 71 125q15 88 15 374v633q-12 57 -59 91t-119 34q-86 0 -136.5 -49.5t-50.5 -136.5v-309q120 6 166 6q33 0 33 -29t-33 -29
l-166 5v-412q0 -157 19 -225q18 -63 71 -84q27 -10 34 -15.5t7 -13.5q0 -12 -14 -12q-1 0 -22.5 1.5t-55 3.5t-72 4t-79.5 3.5t-70 1.5t-69 -1.5t-76.5 -3.5t-68.5 -4t-53 -3.5t-22 -1.5q-14 0 -14 12q0 4 2.5 7.5t6.5 5.5t13 7.5t17 10.5q53 27 65 88q15 64 15 239v349v43
q-46 -3 -93 -3q-17 0 -23.5 13.5t0 27t23.5 13.5h7q7 0 17 -0.5t22 -1t26 -0.5h25q21 266 172 399t372 133q155 0 295 -76q113 23 250 70l15 6q12 0 12 -12l-1 -3q-1 -4 -2.5 -11.5t-3 -19t-3.5 -28t-4.5 -35.5t-4 -44t-3 -52t-2.5 -60.5t-1 -68.5v-385q67 217 297 217
q179 0 260.5 -83.5t81.5 -264.5v-227q0 -116 10 -158q12 -37 60 -65z" />
    <glyph glyph-name="f_j.liga" unicode="fj" horiz-adv-x="1323" 
d="M1229 836q16 0 16 -15q0 -9 -24 -73q-15 -58 -15 -297v-291q-3 -600 -395 -600q-93 0 -153 53t-62 133q-1 62 35.5 99.5t93.5 37.5q55 0 86 -29t45 -92q27 -129 96 -129q29 0 48.5 19.5t19.5 50.5q0 55 -90 178q-36 50 -63 126t-27 155v456q0 77 -25 105q-31 31 -127 31
h-166v-418q0 -157 19 -225q18 -63 71 -84q27 -10 34 -15.5t7 -13.5q0 -12 -14 -12q-1 0 -22.5 1.5t-55 3.5t-72 4t-79.5 3.5t-70 1.5t-69 -1.5t-76.5 -3.5t-68.5 -4t-53 -3.5t-22 -1.5q-14 0 -14 12q0 4 2.5 7.5t6.5 5.5t13 7.5t17 10.5q53 27 65 88q15 64 15 239v349v43
q-53 -3 -97 -3q-17 0 -23.5 13.5t0 27t23.5 13.5h101q24 261 176.5 395.5t394.5 134.5q161 0 293 -72q129 -71 129 -174q0 -68 -44 -109.5t-112 -41.5q-135 0 -188 170q-30 100 -66 144t-92 44q-59 0 -94 -44.5t-35 -129.5v-317h252q92 0 270 18q52 5 99 10t66 7t20 2z" />
    <glyph glyph-name="f_k.liga" unicode="fk" horiz-adv-x="2035" 
d="M1974 39q9 -9 17.5 -16t13 -10t7.5 -7t3 -8q0 -12 -16 -12q-1 0 -17 1.5t-40.5 3.5t-54 4t-63.5 3.5t-63 1.5q-77 0 -176 -8l-112 -6q-15 0 -15 12q0 3 21.5 24t21.5 31q0 44 -174 303q-24 41 -39 41q-7 0 -24 -10l-17 -10v-49q0 -125 14.5 -190.5t57.5 -106.5
q35 -21 35 -33t-15 -12q-1 0 -21 1.5t-51 3.5t-66.5 4t-72.5 3.5t-63 1.5q-28 0 -67.5 -1.5t-76.5 -3.5t-70 -4t-53.5 -3.5t-21.5 -1.5q-14 0 -14 12q0 14 35 35q56 36 71 125q15 88 15 374v633q-12 57 -59 91t-119 34q-86 0 -136.5 -49.5t-50.5 -136.5v-309q120 6 166 6
q33 0 33 -29t-33 -29l-166 5v-412q0 -157 19 -225q18 -63 71 -84q27 -10 34 -15.5t7 -13.5q0 -12 -14 -12q-1 0 -22.5 1.5t-55 3.5t-72 4t-79.5 3.5t-70 1.5t-69 -1.5t-76.5 -3.5t-68.5 -4t-53 -3.5t-22 -1.5q-14 0 -14 12q0 4 2.5 7.5t6.5 5.5t13 7.5t17 10.5q53 27 65 88
q15 64 15 239v349v43q-46 -3 -93 -3q-17 0 -23.5 13.5t0 27t23.5 13.5h7q7 0 17 -0.5t22 -1t26 -0.5h25q21 266 172 399t372 133q155 0 295 -76q113 23 250 70l15 6q12 0 12 -12l-1 -3q-1 -4 -2.5 -11.5t-3 -19t-3.5 -28t-4.5 -35.5t-4 -44t-3 -52t-2.5 -60.5t-1 -68.5v-581
q223 153 275 198q67 58 67 97q0 37 -65 67q-39 17 -39 27t14 10l84 -6q73 -8 125 -8q36 0 113 6q76 6 86 6q16 0 16 -12q0 -16 -76 -31q-84 -15 -258 -143l-28 -21q211 -320 413 -565z" />
    <glyph glyph-name=".notdef" horiz-adv-x="1024" 
d="M840 1475v-2048h-650v2048h650zM682 1337h-338v-67h133v-76h-135v-68h340v68h-135v76h135v67zM547 1073h-205v-213h340v70h-135v143zM477 1004v-74h-67v74h67zM682 805h-340v-68h135v-75h-135v-68h205v143h135v68zM682 682h-68v-135h-272v-70h340v205zM682 432h-205v-115
h70v48h67v-97h-204v164h-68v-231h340v231zM682 78h-340v-232h340v232zM614 10v-96h-204v96h204zM682 -201h-340v-67h143l-143 -97v-67h340v67h-209l143 97h66v67z" />
    <glyph glyph-name=".null" 
 />
    <glyph glyph-name="nonmarkingreturn" horiz-adv-x="682" 
 />
    <glyph glyph-name="NULL" 
 />
    <glyph glyph-name="NULL" 
 />
    <glyph glyph-name="CR" unicode="&#xd;" horiz-adv-x="681" 
 />
    <glyph glyph-name="space" unicode=" " horiz-adv-x="430" 
 />
    <glyph glyph-name="exclam" unicode="!" horiz-adv-x="643" 
d="M299 373q-13 177 -63 334q-48 160 -93 276q-41 112 -41 156q0 75 61.5 123.5t158.5 48.5q96 0 157.5 -48.5t61.5 -123.5q0 -26 -17.5 -81.5t-54.5 -161t-63 -189.5q-50 -165 -62 -334h-45zM322 260q72 0 114.5 -39.5t42.5 -105.5q0 -64 -43 -104t-114 -40
q-68 0 -112 39.5t-44 104.5q0 63 44 104t112 41z" />
    <glyph glyph-name="quotedbl" unicode="&#x22;" horiz-adv-x="843" 
d="M223 698q-4 98 -24 189t-41 144t-38.5 98t-17.5 63q0 57 36 88t100 31q63 0 99 -31t36 -88q0 -18 -17.5 -63t-38.5 -98t-41 -144t-24 -189h-29zM592 698q-4 98 -24 189t-41 144t-38.5 98t-17.5 63q0 57 36 88t99 31t99 -31t36 -88q0 -18 -17 -63t-38.5 -98t-41 -144
t-23.5 -189h-29z" />
    <glyph glyph-name="numbersign" unicode="#" horiz-adv-x="919" 
d="M868 799q17 0 17 -24.5t-17 -24.5h-206l-58 -308h223q17 0 17 -24.5t-17 -24.5h-231l-68 -366q-6 -27 -30 -27q-20 0 -17 27l66 366h-260l-68 -366q-6 -27 -31 -27q-19 0 -16 27l66 366h-199q-17 0 -17 24.5t17 24.5h207l55 308h-211q-17 0 -17 24.5t17 24.5h219l60 336
q5 26 27 30q21 4 26 -14q2 -7 0 -16l-62 -336h258l60 336q5 26 27 30q21 4 26 -14q2 -7 0 -16l-61 -336h198zM555 442l55 308h-258l-57 -308h260z" />
    <glyph glyph-name="dollar" unicode="$" horiz-adv-x="1339" 
d="M1182 393q0 -163 -115 -258q-119 -99 -276 -119v-170q0 -17 -25 -17t-25 17v164h-34q-12 0 -74 4v-168q0 -17 -24.5 -17t-24.5 17v174q-64 8 -154 37q-82 27 -108 27q-58 0 -70 -59q-6 -21 -16 -21q-13 0 -13 16q0 105 -1.5 192t-3 134t-1.5 55l-2 15q0 12 12 12
q16 0 19 -18q73 -290 338 -349v379l-19 4q-352 76 -352 340q0 148 106 232q107 85 265 100v215q0 17 24.5 17t24.5 -17v-211h16q49 0 92 -6v217q0 17 25 17t25 -17v-223q42 -9 124 -37q70 -24 91 -24q39 0 45 49q6 32 18 32q14 0 14 -16q0 -123 23 -326l4 -20q0 -10 -10 -10
q-14 0 -17 16q-122 232 -292 291v-313l28 -7q193 -45 278 -125t85 -225zM645 1085h-12v-294q13 -7 35 -11l73 -18v315q-55 8 -96 8zM453 952q0 -101 131 -147v276q-62 -12 -96.5 -46.5t-34.5 -82.5zM705 49q28 0 36 2v346q-59 19 -88 25l-20 6v-375q62 -4 72 -4zM791 59
q135 34 135 152q0 63 -30 101t-105 67v-320z" />
    <glyph glyph-name="percent" unicode="%" horiz-adv-x="1755" 
d="M61 963q0 147 109 247q107 101 272 101q166 0 273 -101q108 -99 108 -247q0 -145 -108 -244q-110 -96 -273 -96q-162 0 -272 96q-109 100 -109 244zM233 -8q-30 0 -30 14q0 9 14 23l1315 1259q15 15 37 15q26 0 26 -15q0 -8 -14 -22l-1321 -1264q-10 -10 -27 -10z
M543 963q0 180 -23 249.5t-78 69.5t-77.5 -69.5t-22.5 -249.5q0 -177 22.5 -244.5t77.5 -67.5t78 67.5t23 244.5zM932 319q0 149 108 248q107 101 273 101q165 0 272 -101q109 -100 109 -248q0 -143 -109 -243q-110 -96 -272 -96q-163 0 -273 96q-108 99 -108 243zM1413 319
q0 180 -22.5 250t-77.5 70t-78 -70t-23 -250q0 -176 23 -243.5t78 -67.5t77.5 67t22.5 244z" />
    <glyph glyph-name="ampersand" unicode="&#x26;" horiz-adv-x="1595" 
d="M1581 240q14 0 14 -13q0 -8 -6 -26q-22 -79 -137 -156q-113 -76 -264 -76q-131 0 -234 68q-127 -68 -303 -68q-247 0 -413 88q-164 89 -164 254q0 229 313 328q-77 91 -110 160.5t-33 158.5q0 160 125 254q126 99 301 99q147 0 256 -68q106 -63 106 -172
q0 -95 -84.5 -166.5t-218.5 -103.5q1 -3 10.5 -11.5t10.5 -11.5l399 -438q18 62 18 119q0 135 -46.5 198t-164.5 88q-30 6 -30 21q0 12 14 12q12 0 100 -8q99 -6 162 -6q27 0 66 1.5t75 3.5t67.5 4t52.5 3.5t22 1.5q14 0 14 -12q0 -10 -22 -16l-17 -7q-98 -36 -145 -94
q-50 -62 -80 -203q-20 -91 -49 -147l67 -74q87 -100 174 -100q96 0 136 94q9 21 18 21zM670 1276q-56 0 -92.5 -43.5t-36.5 -114.5q0 -79 37 -137q45 -65 133 -160q94 82 94 271q0 184 -135 184zM721 8q110 0 201 49q-73 53 -179 174l-208 240l-86 96q-31 -88 -31 -196
q0 -168 79.5 -265.5t223.5 -97.5z" />
    <glyph glyph-name="quotesingle" unicode="'" horiz-adv-x="311" 
d="M141 698q-4 98 -24 189t-41 144t-38.5 98t-17.5 63q0 57 36 88t100 31q63 0 99 -31t36 -88q0 -18 -17.5 -63t-38.5 -98t-41 -144t-24 -189h-29z" />
    <glyph glyph-name="parenleft" unicode="(" horiz-adv-x="675" 
d="M504 -481q-206 279 -297 516q-90 241 -90 540q0 300 90 541q91 237 297 516h53q-104 -276 -151 -516q-48 -245 -48 -541q0 -295 48 -540q47 -240 151 -516h-53z" />
    <glyph glyph-name="parenright" unicode=")" horiz-adv-x="675" 
d="M172 -481h-53q104 276 151 516t47 540q0 301 -47 541t-151 516h53q208 -282 295 -516q92 -238 92 -541q0 -302 -92 -540q-87 -234 -295 -516z" />
    <glyph glyph-name="asterisk" unicode="*" horiz-adv-x="823" 
d="M496 1229q0 -29 -37 -99q-35 -72 -47 -141q-12 69 -50 141q-34 69 -34 99q-5 49 39.5 69.5t89 0t39.5 -69.5zM106 1090q12 35 41 49.5t62 3.5q27 -9 82 -64q61 -58 121 -90q-75 10 -152 -2q-83 -9 -102 -4q-33 11 -47.5 41t-4.5 66zM715 1090q12 -36 -2 -66t-47 -41
q-22 -5 -105 4q-74 12 -149 2q60 32 118 90q58 55 82 64q33 11 62 -3.5t41 -49.5zM203 846q13 18 86 57t123 86q-33 -61 -45 -143q-12 -74 -29 -98q-24 -44 -73.5 -33t-69.5 51t8 80zM600 731q-33 -23 -64.5 -18t-52.5 35q-14 19 -26 98q-12 82 -45 143q50 -47 123 -86
t86 -57q21 -26 15 -59t-36 -56z" />
    <glyph glyph-name="plus" unicode="+" horiz-adv-x="1146" 
d="M911 588q17 0 17 -24.5t-17 -24.5h-313v-314q0 -17 -24.5 -17t-24.5 17v314h-313q-17 0 -17 24.5t17 24.5h313v313q0 17 24.5 17t24.5 -17v-313h313z" />
    <glyph glyph-name="comma" unicode="," horiz-adv-x="579" 
d="M135 -313q-18 0 -18 16q0 15 18 18q103 24 189 107q86 80 86 176q0 27 -21 27q-6 0 -45 -31q-36 -31 -84 -31q-63 0 -110.5 48t-47.5 120q0 74 51.5 122t127.5 48q88 0 142 -61t54 -164q0 -87 -32.5 -159t-77.5 -114t-96.5 -71t-86.5 -40t-49 -11z" />
    <glyph glyph-name="hyphen" unicode="-" horiz-adv-x="747" 
d="M621 461q24 0 24 -31t-24 -31h-117q-51 2 -113 2l-262 -2q-27 0 -27 29q0 30 27 33q132 -4 254 -4q74 0 133 2t105 2z" />
    <glyph glyph-name="period" unicode="." horiz-adv-x="575" 
d="M287 307q85 0 135.5 -46t50.5 -124q0 -75 -51 -121.5t-135 -46.5q-80 0 -132.5 47t-52.5 121q0 75 52.5 122.5t132.5 47.5z" />
    <glyph glyph-name="slash" unicode="/" horiz-adv-x="770" 
d="M51 -174q-20 -3 -20 12q0 7 6 19l668 1570q9 25 34 25q20 0 23 -10q0 -11 -6 -23l-670 -1571q-9 -22 -35 -22z" />
    <glyph glyph-name="zero" unicode="0" horiz-adv-x="1277" 
d="M233 1008q159 163 406 163t403 -163q160 -165 160 -437q0 -271 -160 -436q-156 -164 -403 -164t-406 164q-157 165 -157 436q0 272 157 437zM535 39q36 -39 104 -39t104 39q37 40 58 164q22 132 22 368q0 235 -22 367q-21 126 -58 166q-36 39 -104 39t-104 -39
q-39 -43 -60 -166q-20 -120 -20 -367q0 -248 20 -368q20 -121 60 -164z" />
    <glyph glyph-name="one" unicode="1" horiz-adv-x="925" 
d="M647 1171q15 0 15 -10q0 1 -1.5 -18.5t-4 -53t-4.5 -74t-3.5 -88.5t-1.5 -89v-365q0 -227 17 -321q18 -81 88 -115q13 -6 27 -12l21 -9t13.5 -6t9 -6t2.5 -6q0 -12 -14 -12l-141 6q-125 8 -228 8q-25 0 -57.5 -1t-64.5 -2t-65 -2.5t-61.5 -3t-50.5 -2.5t-35 -2l-14 -1
q-14 0 -14 12q0 8 29 18q120 30 147 86q27 55 27 230v274q0 256 -31 332q-27 76 -164 111q-25 6 -25 20q0 18 21 18q100 3 240 25q143 23 223 39q87 20 100 20z" />
    <glyph glyph-name="two" unicode="2" horiz-adv-x="1241" 
d="M231 129q-49 0 -49 -41q0 -6 9.5 -34t9.5 -38q0 -39 -47 -39q-54 0 -54 107q0 166 83 283t241 174q151 54 212.5 134.5t61.5 207.5q0 116 -56.5 183t-158.5 67q-68 0 -111.5 -32t-43.5 -83q0 -52 53 -111q55 -58 55 -108q0 -53 -43 -84t-112 -31q-71 0 -118.5 48
t-47.5 128q0 135 131 223t356 88q200 0 342 -86q143 -82 143 -211q0 -140 -125 -226t-352 -113q-473 -59 -473 -441q0 -5 4 -55h15q-4 32 -4 57q0 118 84 205q83 86 241 86q87 0 264 -47q170 -45 238 -45q73 0 112.5 49t49.5 160q1 24 19 24q15 -1 16 -14q0 -72 -27 -238
q-26 -158 -85 -225t-171 -67q-109 0 -363 71q-254 74 -299 74z" />
    <glyph glyph-name="three" unicode="3" horiz-adv-x="1232" 
d="M557 -31q-217 0 -335 76t-118 203q0 88 56 139t139 51q62 0 98.5 -29.5t36.5 -82.5q0 -42 -61 -103q-62 -59 -62 -102q0 -53 45.5 -85t118.5 -32q109 0 180.5 76t71.5 213q0 291 -256 291q-12 0 -30.5 -1.5t-32.5 -2.5l-13 -2q-43 0 -43 38q0 39 43 39q4 0 62 -10
q47 -8 78 -8q190 0 190 258q0 121 -55.5 184.5t-153.5 63.5q-79 0 -125.5 -30t-46.5 -85q0 -29 35 -82q37 -52 37 -90q0 -54 -38 -87.5t-95 -33.5q-70 0 -116 43t-46 111q0 131 129 207q129 75 309 75q235 0 383 -77t148 -197q0 -127 -133.5 -200t-374.5 -81v-10
q168 -2 289.5 -32t195 -97t76.5 -168q0 -148 -164 -243q-168 -97 -422 -97z" />
    <glyph glyph-name="four" unicode="4" horiz-adv-x="1071" 
d="M952 236h-125q5 -93 28 -134.5t89 -70.5q47 -21 47 -33t-14 -12q-17 0 -137 8q-135 6 -219 6t-183 -8l-108 -6q-15 0 -15 12q0 5 3.5 7.5t15.5 8t22 11.5q61 36 80 73q20 39 23 138h-426q-23 0 -23 24q0 20 15 35l692 823q31 37 42 45t34 8q38 0 38 -34q0 -1 -0.5 -19.5
t-1.5 -49t-2 -66.5t-1.5 -80.5t-0.5 -83.5v-488v-20h127q54 0 54 -43q0 -26 -12.5 -37.5t-41.5 -13.5zM102 330h359v2v385q0 41 -35 -2z" />
    <glyph glyph-name="five" unicode="5" horiz-adv-x="1208" 
d="M506 -31q-181 0 -291.5 81t-110.5 210q0 68 42 109t106 41q61 0 97 -30t36 -83q0 -44 -37 -102q-35 -59 -35 -95q0 -96 133 -96q112 0 183 84t71 223q0 151 -67 229t-191 78q-96 0 -200 -55q-5 -2 -12.5 -6.5t-13 -7t-9.5 -2.5q-14 0 -28.5 13t-14.5 26v530q0 45 43 45
l19 -1q19 -1 63.5 -3.5t95.5 -5.5q156 -8 274 -8q41 0 96 1.5t105 4t93.5 5t70 4t25.5 1.5q18 0 18 -16q0 -118 -133 -221q-131 -101 -340 -101q-48 0 -102 7t-98 17t-81 20t-60 17t-24 7q-18 0 -18 -21v-276q127 86 338 86q236 0 393 -92q156 -92 156 -254
q0 -159 -168 -260q-171 -103 -424 -103z" />
    <glyph glyph-name="six" unicode="6" horiz-adv-x="1228" 
d="M762 694q158 0 274 -88q117 -89 117 -244q0 -169 -143 -282q-141 -111 -340 -111q-249 0 -396 164q-147 167 -147 410q0 264 170 446t414 182q152 0 252 -69q104 -70 104 -182q0 -66 -42.5 -105t-109.5 -39q-59 0 -97 31.5t-38 85.5q0 25 23 76q24 47 24 80
q0 41 -35.5 64.5t-93.5 23.5q-127 0 -168 -109q-27 -74 -30 -377v-104q18 70 90 108.5t172 38.5zM668 4q86 0 124.5 78t38.5 264q0 148 -41 215.5t-128 67.5q-164 0 -164 -301q0 -169 41.5 -246.5t128.5 -77.5z" />
    <glyph glyph-name="seven" unicode="7" horiz-adv-x="1073" 
d="M1079 1165q31 0 31 -28q0 -17 -51 -80l-338 -408q-91 -110 -141 -182q-39 -56 -39 -105q0 -46 18 -116q21 -70 21 -115q0 -74 -45.5 -118t-118.5 -44q-72 0 -118 47.5t-46 122.5q0 83 51 164q22 36 68 88l82 86l112 107l123 118q38 38 100 105q-30 -6 -75 -6
q-30 0 -211 16q-179 19 -209 19q-68 0 -113 -25l-53 -197q-6 -18 -18 -18q-15 0 -15 16l2 14q2 15 5 42.5t7 63t8.5 85.5t8.5 101q12 138 12 268q0 20 17 20q15 0 18 -12q4 -14 7.5 -26.5t5.5 -20.5t3 -10q91 18 197 18q64 0 223 -18q185 -17 211 -17q81 0 142 11t89 23z
" />
    <glyph glyph-name="eight" unicode="8" horiz-adv-x="1110" 
d="M737 696q159 -69 230 -148t71 -198q0 -178 -159 -280q-154 -101 -400 -101q-169 0 -291 78q-116 76 -116 199q0 90 62 162.5t175 117.5q-106 59 -154.5 128t-48.5 171q0 147 132 246q129 100 313 100q168 0 280 -65q113 -64 113 -172q0 -149 -207 -238zM567 1137
q-87 0 -140.5 -43t-53.5 -115q0 -82 64.5 -134t224.5 -118l30 -12q103 71 103 211q0 91 -66.5 151t-161.5 60zM500 4q104 0 167.5 57.5t63.5 151.5q3 99 -110 162q-16 14 -86 45q-8 4 -28 13t-42.5 18.5t-28.5 11.5l-88 43q-129 -82 -129 -246q0 -122 73 -189t208 -67z" />
    <glyph glyph-name="nine" unicode="9" horiz-adv-x="1196" 
d="M461 446q-153 0 -268 86q-115 89 -115 250q0 167 137 277q136 112 334 112q263 0 407 -170q148 -171 148 -403q0 -270 -178 -451q-175 -178 -447 -178q-142 0 -250 60q-102 62 -102 159q0 59 41 95t104 36q57 0 95.5 -29t38.5 -79q0 -17 -22 -67t-22 -70q0 -70 142 -70
q72 0 124.5 31t71.5 82q22 55 25 131q6 77 6 346q-18 -70 -92.5 -109t-177.5 -39zM567 1137q-94 0 -131 -71t-37 -259q0 -295 170 -295q166 0 166 303q0 171 -40 246.5t-128 75.5z" />
    <glyph glyph-name="colon" unicode=":" horiz-adv-x="575" 
d="M287 819q85 0 135.5 -46t50.5 -124q0 -75 -51 -121.5t-135 -46.5q-80 0 -132.5 47t-52.5 121q0 75 52.5 122.5t132.5 47.5zM287 315q85 0 135.5 -46t50.5 -124q0 -75 -51 -121.5t-135 -46.5q-80 0 -132.5 47t-52.5 121q0 75 52.5 122.5t132.5 47.5z" />
    <glyph glyph-name="semicolon" unicode=";" horiz-adv-x="579" 
d="M287 827q85 0 135.5 -46t50.5 -124q0 -75 -51 -121.5t-135 -46.5q-80 0 -132.5 47t-52.5 121q0 75 52.5 122.5t132.5 47.5zM135 -313q-18 0 -18 16q0 15 18 18q103 24 189 107q86 80 86 176q0 27 -21 27q-6 0 -45 -31q-36 -31 -84 -31q-63 0 -110.5 48t-47.5 120
q0 74 51.5 122t127.5 48q88 0 142 -61t54 -164q0 -87 -32.5 -159t-77.5 -114t-96.5 -71t-86.5 -40t-49 -11z" />
    <glyph glyph-name="less" unicode="&#x3c;" horiz-adv-x="1146" 
d="M256 358l504 314q23 12 31.5 12t15.5 -12q10 -9 7.5 -21t-26.5 -24l-475 -295l475 -295q24 -12 26.5 -24t-7.5 -21q-7 -12 -15.5 -12t-31.5 12l-504 313q-20 12 -20 26.5t20 26.5z" />
    <glyph glyph-name="equal" unicode="=" horiz-adv-x="1146" 
d="M236 729h675q17 0 17 -24.5t-17 -24.5h-675q-17 0 -17 24.5t17 24.5zM236 442h675q17 0 17 -24.5t-17 -24.5h-675q-17 0 -17 24.5t17 24.5z" />
    <glyph glyph-name="greater" unicode="&#x3e;" horiz-adv-x="1146" 
d="M862 305l-504 -313q-23 -12 -31.5 -12t-15.5 12q-10 9 -7.5 21t26.5 24l475 295l-475 295q-24 12 -26.5 24t7.5 21q7 12 15.5 12t31.5 -12l504 -314q20 -12 20 -26.5t-20 -26.5z" />
    <glyph glyph-name="question" unicode="?" horiz-adv-x="1171" 
d="M481 399v33q0 163 101 242q54 43 76 107t22 184q0 162 -47 234.5t-148 72.5q-79 0 -124.5 -28t-45.5 -77q0 -35 37 -84q39 -45 39 -90q0 -54 -41.5 -85t-103.5 -31q-64 0 -104 38.5t-40 104.5q0 125 125 207q128 84 330 84q242 0 377 -85t135 -237q0 -119 -95.5 -199.5
t-287.5 -138.5q-82 -25 -118 -74t-36 -135v-43h-51zM516 260q72 0 115 -39.5t43 -105.5q0 -64 -43.5 -104t-114.5 -40q-68 0 -112 39.5t-44 104.5q0 63 44 104t112 41z" />
    <glyph glyph-name="at" unicode="@" horiz-adv-x="1480" 
d="M1122 735q15 0 15 -14q0 -4 -11 -68l-47 -243q-24 -123 -24 -166q0 -76 75 -76q82 0 158 82q78 84 78 256q0 220 -170 352q-171 133 -424 133q-278 0 -467 -168q-190 -169 -190 -438q0 -253 180 -408q183 -157 442 -157q241 0 410 106q45 31 51 31q21 0 21 -23
q0 -10 -31 -32q-180 -125 -451 -125q-284 0 -479 168q-197 167 -197 440q0 293 205 471t506 178q280 0 463 -143q184 -144 184 -387q0 -197 -112 -303q-112 -109 -242 -109q-221 0 -221 199q0 1 2 22t2 41h-8q-41 -157 -92 -213q-51 -57 -156 -57q-106 0 -189 80
q-81 81 -81 213q0 163 116 270q118 109 277 109q60 0 133 -31t82 -31q28 0 104 21q76 20 88 20zM668 135q71 0 118 176q50 180 50 293q0 107 -66 107q-74 0 -127 -156q-51 -149 -51 -287q0 -133 76 -133z" />
    <glyph glyph-name="A" unicode="A" horiz-adv-x="1546" 
d="M770 -12q-20 0 -20 12q0 2 0.5 4t1 3.5t1.5 2.5t3 2.5t3.5 2t5 2t5.5 2t6.5 2l7.5 2.5q101 27 101 90q0 50 -72 286q-9 30 -49 33q-78 4 -248 4q-146 0 -164 -2q-28 0 -37 -20q-41 -123 -57 -191q-12 -55 -12 -84q0 -44 29.5 -70t103.5 -46q31 -9 31 -21q0 -14 -19 -14
q-3 0 -86 6q-79 6 -123 6q-34 0 -92 -6l-59 -6q-21 0 -21 14q0 15 19 18q65 9 106 62t90 190q300 845 310 879q12 23 7.5 32t-50.5 25q-51 22 -54 31q0 13 27 16q106 5 244 25q124 18 196 33q21 4 40 8.5t27 6t9 1.5q14 0 14 -16q0 -3 -10 -22t-10 -29q0 -12 12 -52
q44 -147 150 -442q88 -243 204 -537q38 -95 67.5 -138t68.5 -62q53 -21 53 -33q0 -10 -19 -10q-1 0 -28.5 1t-70.5 3t-92.5 4t-104 3t-95.5 1q-27 0 -61 -0.5t-66.5 -1.5t-65.5 -2.5t-60.5 -3t-49 -2.5t-34.5 -2h-13zM535 483q197 0 221 4q20 3 20 21q0 4 -4 20l-192 582
q-6 18 -13 18q-3 0 -12 -18l-201 -582q-8 -21 -8 -30q0 -10 16 -13q12 -2 173 -2z" />
    <glyph glyph-name="B" unicode="B" horiz-adv-x="1536" 
d="M782 -14q-3 0 -19 1t-54 4t-74 5q-117 8 -215 8q-32 0 -77 -1.5t-86 -3.5t-77.5 -4t-59.5 -3.5t-24 -1.5q-15 0 -14 10q1 14 37 31q46 21 61 73q21 85 21 545q0 463 -21 539q-16 56 -61 76q-39 18 -37 33q1 8 14 8q1 0 22 -1.5t54 -3.5t71 -4.5t78.5 -4t69.5 -1.5
q86 0 211 8q176 11 180 11q322 0 451 -60q73 -37 114.5 -99t41.5 -136q0 -144 -137 -229t-416 -97v-4h34q254 0 404 -66q194 -80 194 -249q0 -383 -686 -383zM709 700q154 0 202 60q50 62 50 254q0 153 -49.5 209.5t-176.5 56.5q-60 0 -82 -25q-14 -20 -14 -81v-426
q0 -29 14 -38.5t56 -9.5zM768 14q128 0 188 81.5t60 252.5q0 160 -58 238t-190 78q-78 0 -103.5 -22.5t-25.5 -94.5v-174q0 -266 23 -314q23 -45 106 -45z" />
    <glyph glyph-name="C" unicode="C" horiz-adv-x="1441" 
d="M1356 549l-4 -53q-17 -157 -17 -514q0 -13 -13 -14q-16 -2 -21 20l-1 10q-6 65 -79 65q-36 0 -172 -47t-230 -47q-324 0 -530 185q-205 184 -205 489q0 306 211 490q210 186 534 186q105 0 226 -47q119 -45 137 -45q49 0 55 59q6 31 23 33q14 -3 16 -19q0 -116 14 -245
q17 -228 40 -328l1 -2q0 -9 -7 -12.5t-15 0.5t-12 16l-29 96q-63 222 -173 343.5t-249 121.5q-104 0 -164 -52t-100 -194q-39 -139 -39 -401q2 -197 19 -322.5t54 -197t88 -98.5t130 -27q115 0 239 84q67 45 120 128.5t79 190.5l37 142q5 21 23 20q14 -1 14 -14z" />
    <glyph glyph-name="D" unicode="D" horiz-adv-x="1677" 
d="M791 1309q361 0 581 -181q221 -182 221 -485t-221 -485q-220 -181 -581 -181l-27 2q-26 2 -68 4.5t-89.5 5.5t-98.5 5t-88 2q-32 0 -77 -1.5t-86 -3.5t-77.5 -4t-59.5 -3.5t-24 -1.5q-14 0 -14 12q0 8 7 13.5t30 17.5q46 21 61 73q21 86 21 547q0 467 -21 543
q-16 56 -61 76q-39 18 -37 33q1 8 14 8q1 0 24 -1.5t59.5 -3.5t77.5 -4.5t86 -4t77 -1.5q37 0 88 2t98.5 5t89.5 5.5t68 4.5zM811 8q162 0 236 142q75 138 75 493q0 358 -75 496q-73 141 -236 141q-117 0 -152 -92q-20 -61 -20 -543q0 -486 20 -545q30 -92 152 -92z" />
    <glyph glyph-name="E" unicode="E" horiz-adv-x="1472" 
d="M1317 111q0 -32 9 -52.5t20.5 -27t20.5 -12.5t9 -13q0 -12 -14 -12q-6 0 -53 0.5t-148 1.5t-213 2q-258 2 -495 2q-87 0 -171.5 -1.5t-134 -3t-51.5 -1.5q-14 0 -14 12q0 11 39 31q46 21 61 72q21 88 21 536q0 467 -21 543q-16 56 -61 76q-40 18 -39 33q1 8 14 8l64 -3
q63 -4 158.5 -8t173.5 -4q120 0 489 6q369 9 381 9q14 0 14 -13q0 -4 -9 -10.5t-20.5 -14.5t-20.5 -29t-9 -50q0 -55 10.5 -146.5t21.5 -159t11 -63.5q0 -16 -13 -17q-15 -1 -21 23q-1 1 -1 2q-88 269 -233 359q-66 42 -127 59t-136 17q-102 0 -137 -41q-48 -57 -51 -496
q2 -29 20 -39t72 -10q152 0 213 82q27 37 64 119q6 16 18 16q10 0 10 -14q-10 -118 -10 -224q0 -35 1 -70t2.5 -61t3 -46t2.5 -32l1 -12q0 -14 -10 -14q-12 0 -18 16q-38 84 -65 118.5t-77 57.5q-55 25 -135 25q-52 0 -69.5 -10t-22.5 -37q3 -475 55 -527q34 -34 133 -34
q176 -6 310 131q137 136 186 450q3 33 23 33q12 0 12 -16l-2 -15q-2 -15 -5 -43t-7 -62.5t-9.5 -82.5t-9.5 -94q-10 -137 -10 -219z" />
    <glyph glyph-name="F" unicode="F" horiz-adv-x="1366" 
d="M1337 1292q0 -4 -9 -10.5t-19.5 -14.5t-19.5 -29t-9 -50q0 -49 10 -132.5t20 -142.5l11 -59q0 -16 -12 -16q-14 0 -23 24q-51 149 -131 244.5t-160 122.5q-71 26 -166 26q-104 0 -139 -41q-51 -57 -51 -538q0 -32 25 -40.5t118 -8.5q71 0 126.5 56t109.5 181q7 17 18 17
t11 -15l-1 -8q0 -9 -1 -23t-2 -33t-2.5 -42.5t-2.5 -48t-1.5 -52.5t-0.5 -53q0 -41 1 -81.5t3 -70t3.5 -53.5t2.5 -37.5t1 -15.5q0 -14 -11 -14q-12 0 -18 16q-89 238 -236 238q-90 0 -116 -7t-27 -36q0 -207 2 -264q3 -82 16 -146q11 -54 28 -72.5t58 -33.5q58 -21 58 -31
q0 -12 -15 -12l-14 1q-14 1 -37 2t-53 2.5t-64.5 3t-68.5 2.5t-68.5 2t-60.5 1q-32 0 -77 -1.5t-86 -3.5t-77.5 -4t-59.5 -3.5t-24 -1.5q-14 0 -14 12q0 10 37 31q47 21 61 71q21 95 21 545q0 467 -21 543q-16 56 -61 76q-39 18 -37 33q1 8 14 8q4 0 191 -9q187 -6 309 -6
q197 0 446 6q249 9 281 9q14 0 14 -13z" />
    <glyph glyph-name="G" unicode="G" horiz-adv-x="1497" 
d="M1360 -31q-13 0 -19 25q-15 69 -84 69q-67 0 -200 -43t-234 -43q-325 0 -532 177t-207 471q0 306 219 495t553 189q113 0 238 -41t139 -41q26 0 38 13.5t17 45.5q6 32 23 33q15 -2 16 -25q0 -230 29 -413q3 -21 7.5 -40t6.5 -28.5t2 -11.5q0 -15 -16 -15q-10 0 -19 19
q-132 258 -241 364q-107 107 -244 107q-57 0 -100 -15.5t-82 -58t-63.5 -114.5t-39 -188t-14.5 -275q3 -357 65 -490q64 -135 218 -135q137 0 137 156v110q0 122 -12 152q-11 32 -68 57q-39 17 -39 29t14 12q1 0 22 -1.5t54 -3.5t69.5 -4t76 -3.5t67.5 -1.5q33 0 78 1.5
t86.5 3.5t78 4t59.5 3.5t24 1.5q14 0 14 -12q0 -5 -6 -9t-21.5 -10t-25.5 -12q-49 -26 -58 -67q-10 -48 -10 -207v-199q0 -31 -16 -31z" />
    <glyph glyph-name="H" unicode="H" horiz-adv-x="1753" 
d="M1632 29q39 -20 39 -31q0 -12 -14 -12q-1 0 -24 1.5t-59.5 3.5t-78 4t-86.5 3.5t-78 1.5q-32 0 -76.5 -1.5t-85.5 -3.5t-77.5 -4t-59.5 -3.5t-24 -1.5q-15 0 -15 12q0 11 39 31q37 17 52 58.5t20 135.5q5 74 8 324q-3 55 -41 63q-46 11 -197 11q-144 0 -194 -11
q-36 -9 -39 -63l6 -324q6 -93 21 -137q16 -42 53 -57q39 -20 39 -31q0 -12 -15 -12q-1 0 -24 1.5t-59.5 3.5t-77.5 4t-85.5 3.5t-76.5 1.5q-33 0 -78 -1.5t-86.5 -3.5t-78 -4t-59.5 -3.5t-24 -1.5q-14 0 -14 12q0 11 39 31q47 21 61 71q21 95 21 545q0 467 -21 543
q-16 56 -61 76q-40 18 -39 33q1 8 14 8q1 0 24 -1.5t59.5 -3.5t78 -4.5t86.5 -4t78 -1.5q32 0 76.5 1.5t85.5 4t77.5 4.5t59.5 3.5t24 1.5q15 0 14 -10q-1 -14 -38 -31q-39 -19 -53.5 -54t-20.5 -131q-6 -95 -6 -342q3 -57 39 -69q49 -11 194 -11q151 0 197 11q38 11 41 69
q0 247 -6 342q-6 96 -21 131q-16 38 -53 54q-40 18 -38 33q1 8 14 8q1 0 24 -1.5t59.5 -3.5t77.5 -4.5t85.5 -4t76.5 -1.5q33 0 78 1.5t86.5 4t78 4.5t59.5 3.5t24 1.5q14 0 14 -9q0 -15 -39 -32q-46 -21 -61 -74q-21 -88 -21 -545q0 -465 21 -541q15 -54 61 -75z" />
    <glyph glyph-name="I" unicode="I" horiz-adv-x="911" 
d="M131 -12q-14 0 -14 10q1 14 39 33q47 21 61 71q21 89 21 543q0 467 -21 543q-16 56 -61 76q-40 18 -39 33q1 8 14 8q1 0 24 -1.5t59.5 -3.5t78 -4.5t86.5 -4t78 -1.5q32 0 76.5 1.5t85.5 4t77.5 4.5t59.5 3.5t24 1.5q15 0 14 -10q-1 -14 -38 -31q-58 -27 -70 -119
q-10 -102 -10 -500q0 -468 20 -541q12 -51 60 -73q46 -23 37 -38q-3 -5 -13 -5q-1 0 -24 1.5t-59.5 3.5t-77.5 4t-85.5 3.5t-76.5 1.5q-33 0 -78 -1.5t-86.5 -3.5t-78 -4t-59.5 -3.5t-24 -1.5z" />
    <glyph glyph-name="J" unicode="J" horiz-adv-x="1259" 
d="M1163 1305q15 0 15 -13q0 -3 -1.5 -5t-5 -4.5t-7 -4.5t-11 -6t-14.5 -8q-51 -34 -66 -95q-11 -56 -14 -264v-295q0 -641 -600 -641q-164 0 -293 72q-123 71 -123 223q0 85 53.5 139t134.5 54q68 0 111 -40.5t43 -101.5q0 -42 -41 -104q-39 -56 -39 -102q0 -50 37 -79.5
t104 -29.5q92 0 133.5 63t41.5 189v536q0 237 -17 334q-15 87 -76 142q-28 18 -28 28q0 13 14 13q1 0 24 -1.5t59.5 -3.5t78 -4.5t86.5 -4t78 -1.5q32 0 76.5 1.5t85.5 4t77.5 4.5t59.5 3.5t24 1.5z" />
    <glyph glyph-name="K" unicode="K" horiz-adv-x="1601" 
d="M1538 55q43 -46 43 -53q0 -14 -18 -14q-5 0 -93 6t-141 6q-108 0 -258 -6t-156 -6q-12 0 -12 12q0 9 25 25q24 21 24 34q0 33 -57 179q-66 172 -127 297q-17 33 -34.5 30.5t-57.5 -47.5l-35 -35q3 -291 14 -358q16 -74 66 -94q46 -23 37 -38q-3 -5 -13 -5q-1 0 -24 1.5
t-59.5 3.5t-77.5 4t-85.5 3.5t-76.5 1.5q-33 0 -78 -1.5t-86.5 -3.5t-78 -4t-59.5 -3.5t-24 -1.5q-14 0 -14 10q1 14 39 33q47 21 61 71q21 89 21 543q0 467 -21 543q-16 56 -61 76q-40 18 -39 33q1 8 14 8q1 0 24 -1.5t59.5 -3.5t78 -4.5t86.5 -4t78 -1.5q32 0 76.5 1.5
t85.5 4t77.5 4.5t59.5 3.5t24 1.5q15 0 14 -10q-1 -14 -38 -31q-58 -27 -70 -119q-10 -102 -10 -500v-123l285 303q82 86 132 180.5t50 147.5q0 70 -96 117q-19 10 -19 18q0 15 21 15q1 0 24 -1.5t59 -3.5t77 -3.5t85 -3t74 -1.5q28 0 74 3t81 7l34 3q12 0 12 -10
q1 -15 -31 -22q-1 -1 -2 -1q-148 -35 -325 -221l-144 -152q123 -272 277 -520q147 -237 229 -322z" />
    <glyph glyph-name="L" unicode="L" horiz-adv-x="1396" 
d="M754 1305q14 0 14 -13q0 -10 -47 -28q-43 -20 -59 -74q-21 -88 -21 -574q0 -298 6 -393q6 -92 25 -129q30 -59 157 -59q353 0 455 532q3 33 23 33q15 0 12 -33q-43 -319 -43 -465q0 -32 9 -52.5t20.5 -26.5t20.5 -12t9 -13q0 -12 -14 -12h-9q-9 0 -26.5 0.5t-41 1t-59 1
t-73.5 1.5q-137 2 -373 2q-237 0 -397 -2q-71 -1 -131.5 -2t-87.5 -2h-27q-14 0 -14 12q0 11 39 25q31 16 45 32q15 18 24 90q11 86 11 164q2 63 2 307q0 488 -21 570q-16 57 -61 78q-40 18 -39 33q1 8 14 8l10 -1q11 -1 28.5 -2t40.5 -2.5t51.5 -3.5t57.5 -3t61.5 -2
t60.5 -1q39 0 88.5 1.5t93 4t81 4.5t61 3.5t24.5 1.5z" />
    <glyph glyph-name="M" unicode="M" horiz-adv-x="1961" 
d="M1395 1300q11 0 81 -5t109 -5q79 0 178 8l111 7q14 0 14 -13q0 -11 -39 -28q-32 -14 -44.5 -33.5t-22.5 -79.5q-10 -74 -13 -158q-2 -61 -2 -284v-64v-268q2 -39 2 -96q1 -29 6 -81l5 -53q5 -55 21.5 -78.5t47.5 -39.5q39 -20 39 -31q0 -12 -14 -12q-1 0 -26 0.5t-64.5 1
t-85 1t-94 1t-82.5 0.5q-29 0 -70 -0.5t-79 -1t-71.5 -1t-54.5 -1t-22 -0.5q-15 0 -15 12q0 3 1.5 5.5t4.5 5.5t7 5.5t11 8t13 10.5q60 48 72 141q14 88 14 442q0 117 -1 281t-1 195v44q-2 47 -6 48q-3 0 -10 -13l-88 -221l-103 -254l-288 -710q-10 -19 -21 -19q-8 0 -18 17
l-498 1087q-3 10 -10 10q-8 0 -8 -10q-7 -182 -7 -469v-34q0 -100 0.5 -145.5t3.5 -99t9 -92.5l18 -94q7 -26 35 -51.5t51 -34.5l70 -22q45 -15 45 -29q0 -12 -19 -12q-5 0 -100 6q-91 6 -139 6q-40 0 -129 -6t-94 -6q-19 0 -19 14q0 9 33 18q58 14 79.5 23t49.5 33
q31 28 39 57q42 132 37 483l-2 435q0 103 -24.5 144t-94.5 65q-37 9 -37 22q0 14 16 14q1 0 21 -0.5t51 -1.5t66 -2t71.5 -1.5t61.5 -0.5l139 6q21 1 43 2l33 1.5t14 0.5q46 0 66 -45l336 -745l6 -8q3 0 8 8l274 700q23 56 42.5 73t60.5 17z" />
    <glyph glyph-name="N" unicode="N" horiz-adv-x="1517" 
d="M1292 -53q-16 0 -43 24l-925 805q-38 35 -58 35q-14 0 -14 -25v-409q0 -167 41 -238q42 -68 160 -112q39 -14 37 -29q-1 -10 -19 -10q-15 0 -109 6t-122 6t-113 -6q-107 -8 -116 -3q-5 2 -5 11q0 7 31 16q61 14 98 43q37 32 58 121q24 92 24 258v340q0 206 -12 289
q-12 86 -49 125q-24 25 -59.5 46t-58 32.5t-22.5 17.5q0 13 13 13l57 -7q59 -6 84 -6q32 0 85 6.5t56 6.5q27 0 78 -39q125 -96 504 -398q306 -242 367 -299q6 -6 10 -6q6 0 6 8v344q0 159 -46.5 239.5t-152.5 111.5q-39 9 -39 26q0 13 17 13q4 0 16.5 -1t41 -2.5t52.5 -3.5
q95 -6 123 -6q42 0 119 6q22 2 42 3.5t28.5 2.5t9.5 1q16 0 16 -13q0 -11 -33 -20q-86 -26 -124 -103q-35 -78 -35 -254v-936q0 -30 -19 -30z" />
    <glyph glyph-name="O" unicode="O" horiz-adv-x="1626" 
d="M1542 649q0 -304 -207 -493q-205 -187 -522 -187t-522 187q-207 189 -207 493q0 307 205 494q204 186 524 186q318 0 522 -186q207 -189 207 -494zM1073 649q0 355 -63 502q-64 149 -197 149t-197 -149q-63 -147 -63 -502q0 -342 63 -497.5t197 -155.5t197 155.5
t63 497.5z" />
    <glyph glyph-name="P" unicode="P" horiz-adv-x="1488" 
d="M653 360q-10 0 -10 -12v-82q0 -118 17.5 -168.5t60.5 -68.5q47 -19 51 -27q2 -3 2 -6q0 -10 -14 -10q-1 0 -25.5 1.5t-63.5 3.5t-82.5 4t-90 3.5t-78.5 1.5t-77 -1.5t-86 -3.5t-77.5 -4t-59.5 -3.5t-24 -1.5q-14 0 -14 12q0 10 37 31q47 21 61 71q21 95 21 545
q0 467 -21 543q-16 56 -61 76q-39 18 -37 33q1 8 14 8q1 0 24 -1.5t59.5 -3.5t77.5 -4.5t86 -4t77 -1.5q94 0 209 8q34 2 72 5t56 4.5t25 1.5q326 0 495 -121.5t169 -345.5q0 -223 -162 -363q-159 -141 -422 -141q-31 0 -63.5 2.5t-57 5.5t-44.5 6t-31.5 5.5t-12.5 2.5z
M668 1245q-13 -16 -19 -53q-6 -66 -8 -162q-2 -84 -2 -385q0 -192 2 -221q2 -25 18.5 -35t59.5 -10q135 0 197.5 112.5t64.5 346.5q-1 233 -52 337.5t-161 104.5q-73 0 -100 -35z" />
    <glyph glyph-name="Q" unicode="Q" horiz-adv-x="1626" 
d="M1522 -27q0 -123 -90 -282q-44 -83 -123.5 -135t-173.5 -52q-83 0 -172 45.5t-156 110.5q-60 57 -143 113t-154 65l-45 -47q-31 -36 -45 -47q-14 -14 -41 -27.5t-51 -13.5q-56 0 -56 51q0 44 62.5 78t157.5 35q103 95 184 110v3q-266 41 -428 221q-164 182 -164 448
q0 307 205 494q204 186 524 186q318 0 522 -186q207 -189 207 -494q0 -304 -207 -493q-205 -187 -522 -187q-165 0 -276 -102q61 -2 278 -31q212 -31 320 -31q167 0 241 41q76 40 113 121q8 23 23 20q10 -2 10 -14zM553 649q0 -342 63 -497.5t197 -155.5t197 155.5t63 497.5
q0 355 -63 502q-64 149 -197 149t-197 -149q-63 -147 -63 -502z" />
    <glyph glyph-name="R" unicode="R" horiz-adv-x="1650" 
d="M1331 -76q-92 0 -198 53q-109 55 -179 113q-68 60 -155 115q-80 53 -133 53q-21 0 -21 -27q3 -109 19 -149q15 -37 57 -53q47 -19 51 -27q2 -3 2 -6q0 -10 -14 -10q-1 0 -25.5 1.5t-63.5 3.5t-82.5 4t-89.5 3.5t-77 1.5q-33 0 -78 -1.5t-86.5 -3.5t-78 -4t-59.5 -3.5
t-24 -1.5q-14 0 -14 12q0 11 39 31q47 21 61 71q21 95 21 545q0 463 -23 547q-16 53 -59 72q-40 18 -39 33q1 8 14 8q1 0 24 -1.5t59.5 -3.5t78 -4.5t86.5 -4t78 -1.5q98 0 215 8q38 3 74 5.5t53 4t20 1.5q312 0 494 -144q180 -140 180 -364q0 -243 -172 -393
q-174 -148 -424 -148q-62 0 -151 12v-4q39 -3 229 -47q188 -43 346 -43q235 0 285 182q4 11 8 11q12 0 22.5 -39t10.5 -88q0 -131 -80 -226q-76 -94 -201 -94zM725 289q141 0 205.5 123.5t64.5 388.5q0 249 -53 364t-164 115q-95 0 -116 -47q-16 -32 -19 -127t0 -461v-321
q0 -20 16.5 -27.5t65.5 -7.5z" />
    <glyph glyph-name="S" unicode="S" horiz-adv-x="1341" 
d="M123 -10q0 26 2 73q4 94 4 132q0 27 -1 56.5t-2.5 54.5t-3 49.5t-3 43.5t-3 33t-2.5 22l-1 9q0 16 14 16t23 -22q53 -109 101.5 -182t113.5 -138q137 -137 344 -137q119 0 189.5 58.5t70.5 156.5q0 99 -70 154q-63 54 -258 102l-104 25q-426 94 -426 411q0 196 155 303
t369 107q95 0 191.5 -23.5t160 -47t78.5 -23.5q25 0 36.5 13.5t16.5 45.5q6 37 24 37q14 -2 15 -19q0 -98 8 -186l25 -229q0 -13 -14 -12q-15 2 -21 18q-97 198 -219.5 298.5t-294.5 100.5q-115 0 -178.5 -50t-63.5 -132t60 -128t200 -79l183 -43q230 -55 332 -151t102 -271
q0 -92 -33.5 -170.5t-90 -132t-130.5 -91.5t-154.5 -55.5t-162.5 -17.5q-139 0 -291 47t-174 47q-67 0 -82 -69q-6 -27 -21 -27q-14 0 -14 23z" />
    <glyph glyph-name="T" unicode="T" horiz-adv-x="1474" 
d="M408 -14q-16 0 -14 11q1 14 42 32q56 18 68 63q14 43 14 205v281q0 467 -14 563q-3 40 -17 61q-30 53 -108 53q-89 0 -146 -75q-58 -76 -129 -320q-11 -33 -25 -31q-8 3 -9 19l6 290v42q0 19 -2.5 38t-6 33t-6.5 25t-5 18l-3 6q0 15 15 15q3 0 22 -2.5t65 -6.5t105 -8
q117 -8 477 -8t477 8q25 1 63.5 5t43.5 4q76 8 86 8q14 0 14 -15l-3 -6q-2 -7 -5 -18t-6 -25t-5.5 -33t-2.5 -38q0 -239 6 -332q0 -20 -12 -19q-13 1 -23 31q-70 240 -131 320q-57 75 -143 75q-79 0 -109 -53q-12 -18 -18 -61q-6 -79 -8 -176q-5 -220 -5 -387v-279
q0 -157 13 -207q15 -45 69 -63q46 -20 43 -35q-2 -8 -14 -8q-36 0 -213 10q-106 4 -117 4q-10 0 -116 -4l-144 -6q-19 -1 -35.5 -2t-24.5 -1.5t-9 -0.5z" />
    <glyph glyph-name="U" unicode="U" horiz-adv-x="1486" 
d="M774 -31q-310 0 -464 149.5t-154 483.5v430q0 118 -12.5 161.5t-53.5 68.5q-8 5 -17 10t-13 7t-6.5 5.5t-2.5 7.5q0 13 15 13q1 0 22.5 -1.5t56 -3.5t73.5 -4.5t82 -4t75 -1.5q33 0 78 1.5t86.5 4t77.5 4.5t59 3.5t24 1.5q15 0 15 -13q0 -2 -1 -4t-3 -4t-4.5 -4
t-7.5 -5.5t-9.5 -6t-12.5 -8t-15 -9.5q-29 -19 -40.5 -40.5t-18 -76.5t-9.5 -182l-2 -473q0 -190 81.5 -287.5t237.5 -97.5q129 0 232 103q57 57 89 162t32 243v426q0 119 -35 170t-125 72q-32 11 -31 26q1 9 14 9l74 -7q65 -8 123 -8q52 0 119 6q70 9 74 9q12 0 12 -13
q4 -4 -6 -9t-28 -10t-25 -9q-68 -27 -95 -88q-24 -61 -24 -222v-364q0 -308 -140 -464.5t-397 -156.5z" />
    <glyph glyph-name="V" unicode="V" horiz-adv-x="1536" 
d="M748 -55q-10 0 -19 12l-493 1081q-38 81 -75 126t-93 81q-48 34 -52 45q0 15 19 15q211 -15 381 -15q84 0 213 6q129 9 135 9q20 0 20 -15q0 -11 -16 -14q-2 -2 -4 -2l-8 -2q-62 -19 -82.5 -34.5t-20.5 -45.5q0 -44 37 -156q43 -122 80 -217l94 -231l60 -139
q6 -15 12 -15q4 0 14 17q231 506 269 614q24 71 24 104q0 43 -30 65.5t-107 35.5q-29 6 -29 18q0 15 19 15q1 0 10 -1t30.5 -2.5t45.5 -3.5q83 -6 131 -6q47 0 117 6l69 7q20 0 20.5 -14.5t-18.5 -18.5q-97 -15 -143 -64q-44 -44 -101 -164l-491 -1085q-6 -12 -18 -12z" />
    <glyph glyph-name="W" unicode="W" horiz-adv-x="2285" 
d="M2251 1300q19 0 19 -14t-17 -16q-99 -16 -144 -64q-44 -47 -92 -164l-430 -1060q-6 -12 -18.5 -12t-16.5 12l-422 1046q-244 -701 -378 -1048q-6 -12 -17 -12t-18 12q-195 480 -494 1058q-55 107 -87 151.5t-68 61.5q-54 21 -52 37q3 9 19 12q-2 0 25 -1t71.5 -2.5t95 -3
t105 -2.5t92.5 -1q29 0 217 4l141 6q19 0 19 -10q0 -11 -43 -26q-42 -12 -59 -30.5t-17 -51.5q0 -48 78 -277q60 -177 143 -387q1 -6 4 -6t4 6q160 435 197 565q-41 99 -55 123q-17 35 -49 54q-8 5 -15.5 9.5t-10.5 6.5t-5 5t-2 9q0 10 18 10q1 0 23.5 -1t59 -2.5t78.5 -3
t87.5 -2.5t79.5 -1q89 0 172 2.5t130.5 5t49.5 2.5q19 0 19 -10q0 -17 -43 -26q-49 -12 -70 -31t-21 -51q0 -36 43 -172q89 -265 97 -287q45 -129 59 -182q8 -26 10 -26.5t13 24.5l39 98l45 108q69 164 82 205q59 164 59 207q0 42 -29 68t-96 43q-30 8 -28 22q1 10 14 10
q6 0 73 -6q94 -4 109 -4q29 0 131 4z" />
    <glyph glyph-name="X" unicode="X" horiz-adv-x="1519" 
d="M1477 41q14 -7 28 -13l21 -9t13.5 -6t8.5 -6t2 -7q0 -14 -12 -14q4 0 -58.5 3.5t-148 7t-137.5 3.5t-128.5 -3.5t-132.5 -6.5l-56 -4q-19 0 -19 14q0 3 20.5 32t20.5 42q0 19 -33 69q-33 58 -116 183l-144 221q-250 -318 -250 -430q0 -73 101 -103q20 -6 20 -16
q0 -12 -16 -12l-45 4q-44 3 -104 6.5t-97 3.5q-97 0 -199 -12l-41 -2q-14 0 -14 10q0 11 19 14q91 20 145 58q157 123 459 516q-9 18 -35 57q-189 309 -291 438q-105 136 -201 181q-45 20 -45 30q0 15 17 15q4 0 106 -9q102 -6 180 -6q53 0 139 4t146 8l59 3q15 0 15 -13
q0 -1 -23 -24q-20 -17 -20 -35q0 -61 229 -402q189 257 189 343q0 46 -60 81q-7 4 -25.5 13t-26.5 14t-5 10q0 13 14 13l33 -2q93 -13 170 -13q33 0 73.5 1.5t74.5 4t63 4.5t45.5 3.5t15.5 1.5q13 0 13 -11q0 -3 -1 -5.5t-4 -4.5t-6 -3.5t-8.5 -4t-10 -4t-12.5 -4t-14 -4.5
q-82 -25 -196 -125q-104 -94 -303 -336l36 -53q189 -275 342 -471q173 -219 220 -238z" />
    <glyph glyph-name="Y" unicode="Y" horiz-adv-x="1433" 
d="M387 -14q-14 0 -14 12q0 11 39 31q57 21 69 90q13 76 13 352q0 62 -23 123q-19 53 -86 156l-199 303q-66 99 -110 159q-28 38 -56 52q-36 14 -36 28q0 11 18 11l13 -1q13 0 34.5 -1.5t49 -3t60 -2.5t64.5 -2.5t64.5 -2t58.5 -0.5q29 0 70.5 1.5t80.5 3t73 3.5t56 3.5
t23 1.5q15 0 15 -13q0 -12 -39 -26q-43 -15 -43 -45q0 -40 69 -172q80 -150 246 -435l145 271q178 331 -34 389q-13 4 -18.5 11.5t0 13.5t20.5 6q1 0 19.5 -1.5t47.5 -3.5t61 -3.5t66 -3t56 -1.5q30 0 88 6l59 7q18 0 18 -13q0 -14 -18 -20q-77 -24 -126 -73t-107 -155
l-236 -432q-6 -9 -6 -28q0 -419 20 -486q12 -45 60 -67q39 -20 39 -31q0 -12 -15 -12q-1 0 -24 1.5t-59.5 3.5t-77.5 4t-85.5 3.5t-76.5 1.5q-33 0 -78 -1.5t-86.5 -3.5t-78 -4t-59.5 -3.5t-24 -1.5z" />
    <glyph glyph-name="Z" unicode="Z" horiz-adv-x="1437" 
d="M70 -14q-15 0 -15 12q0 10 21 31q148 211 389 616q256 431 285 510q16 43 16 62q0 35 -90 38h-12q-206 0 -310 -73q-104 -75 -211 -316q-12 -29 -29 -25q-9 4 -10 17q0 -4 11 56.5t21.5 143t10.5 130.5q0 21 -2 39t-5 29.5t-6 19.5t-5 12l-2 4q0 13 14 13l9 -1
q9 0 26.5 -0.5t41 -1t59.5 -1t75 -1.5q139 -2 373 -2q156 0 248 2q138 3 231 3q63 2 96 2q15 0 15 -13q0 -5 -4.5 -8.5t-14 -10t-16.5 -16.5q-28 -35 -348 -612l-111 -196l-86 -156l-59 -103q-47 -89 -47 -110q0 -45 63 -45q46 0 96 6q188 26 342 162q152 137 201 399
q3 33 25 33q10 0 10 -17l-2 -15q-2 -15 -5.5 -43t-7.5 -62.5t-9 -82t-9 -93.5q-10 -137 -10 -220q0 -34 2 -61t2 -41q0 -12 -14 -12q-78 0 -232 2q-152 2 -387 2t-389 -2q-68 -1 -126 -2t-83 -2h-26z" />
    <glyph glyph-name="bracketleft" unicode="[" horiz-adv-x="778" 
d="M737 1503h-282v-1917h282v-53h-499v2023h499v-53z" />
    <glyph glyph-name="backslash" unicode="\" horiz-adv-x="839" 
d="M899 -174q-26 0 -35 22l-608 1469q-6 15 -6 22q4 11 22 11q26 0 35 -25l608 -1468q1 -4 2 -8.5t2 -7t1 -3.5q0 -15 -21 -12z" />
    <glyph glyph-name="bracketright" unicode="]" horiz-adv-x="778" 
d="M541 1556v-2023h-500v53h283v1917h-283v53h500z" />
    <glyph glyph-name="asciicircum" unicode="^" horiz-adv-x="1105" 
d="M102 854q0 17 207 301q16 25 48 66.5t51 70.5q22 34 31 46t25 28.5t31 21.5t37 5q42 0 64 -20t61 -81l99 -137q204 -284 207 -301q0 -40 -86 35l-342 311h-5q-124 -114 -344 -311q-55 -49 -69 -49q-15 0 -15 14z" />
    <glyph glyph-name="underscore" unicode="_" horiz-adv-x="1138" 
d="M119 -88h901q17 0 17 -24.5t-17 -24.5h-901q-17 0 -17 24.5t17 24.5z" />
    <glyph glyph-name="grave" unicode="`" horiz-adv-x="819" 
d="M639 930q-8 0 -10 2q-217 80 -359 160q-59 32 -81.5 56.5t-22.5 57.5q0 37 23 59.5t61 24.5q47 3 117 -61q66 -57 274 -281q8 -8 8 -12q0 -6 -10 -6z" />
    <glyph glyph-name="a" unicode="a" horiz-adv-x="1177" 
d="M1159 174q17 0 17 -16q0 -97 -55.5 -143t-192.5 -46q-126 0 -195.5 48t-89.5 153q-62 -201 -326 -201q-121 0 -188.5 49t-67.5 144q0 144 177 207q140 50 395 71v170q0 101 -36 143t-114 42q-55 0 -88 -21t-33 -53q0 -21 21 -64q20 -39 20 -69q0 -50 -41.5 -82.5
t-107.5 -32.5q-69 0 -109.5 36t-40.5 99q0 97 110 158t321 61q117 0 204 -18t157 -61.5t106 -122.5t36 -193v-291q0 -71 47 -71q54 0 54 88q0 16 20 16zM498 68q56 0 95.5 68.5t39.5 172.5v99l-17 -5q-122 -24 -163 -65q-37 -34 -37 -125q0 -145 82 -145z" />
    <glyph glyph-name="b" unicode="b" horiz-adv-x="1228" 
d="M154 -31q-25 0 -25 29q8 96 8 293v590q0 94 -18.5 169t-34.5 93q-12 15 -39 39q-14 14 -14 24q0 17 20 17q66 0 134.5 11t120 26.5t93 31t66.5 26.5t27 11q16 0 16 -18q0 -2 -1 -24t-2 -51t-1 -48v-516h6q52 155 258 155q160 0 279 -110q120 -111 120 -307
q0 -203 -131 -322t-334 -119q-57 0 -106 17q-52 18 -117 59q-107 61 -114 61q-14 0 -50 -22l-110 -90q-36 -25 -51 -25zM647 10q72 0 103 84q32 77 32 316q0 207 -23.5 281.5t-94.5 74.5q-165 0 -162 -363v-69q3 -324 145 -324z" />
    <glyph glyph-name="c" unicode="c" horiz-adv-x="1032" 
d="M975 260q12 0 12 -12v-4q-56 -275 -428 -275q-221 0 -360 115q-138 117 -138 301q0 207 147 324.5t404 117.5q93 0 172 -26l86 -25q33 0 45 49q7 17 19 17q14 0 14 -19q0 -191 28 -339l1 -5q0 -17 -14 -17q-15 1 -21 21q-77 308 -254 308q-215 0 -215 -349
q0 -379 234 -379q92 0 159 47.5t92 131.5q6 18 17 18z" />
    <glyph glyph-name="d" unicode="d" horiz-adv-x="1253" 
d="M1184 68q26 -9 26 -23t-18 -14q-48 0 -110.5 -5t-118.5 -12.5t-104 -14.5t-77 -12t-28 -5q-15 0 -15 12l1 12q2 11 4 30t4.5 41t4.5 47.5t3 45.5h-4q-59 -201 -254 -201q-181 0 -310 117q-127 121 -127 301q0 197 127 318q128 122 310 122q160 0 225 -108h2v74
q-3 215 -18 286t-64 99q-37 21 -37 34q0 15 19 15q47 -1 98.5 4t96 14t87.5 19.5t76 21t58.5 19.5t38.5 14t12 4q12 0 12 -12l-2 -37q-12 -98 -12 -350l2 -570q0 -169 14 -215q15 -48 78 -71zM741 387q3 389 -163 389q-72 0 -99 -86q-30 -92 -33 -303q5 -199 32 -279.5
t93 -80.5q76 0 122.5 95.5t47.5 264.5z" />
    <glyph glyph-name="e" unicode="e" horiz-adv-x="1083" 
d="M1012 250q14 0 14 -12q0 -8 -6 -29q-37 -107 -153 -173.5t-275 -66.5q-240 0 -385 121q-146 122 -146 313q0 194 144 308q143 116 373 116q195 0 325 -92q129 -89 129 -235q0 -94 -80 -94l-506 2q5 -186 61.5 -268.5t184.5 -82.5q225 0 301 172q9 21 19 21zM580 799
q-78 0 -105 -76q-26 -71 -29 -272l205 2q32 0 39.5 13.5t7.5 74.5q0 143 -27.5 200.5t-90.5 57.5z" />
    <glyph glyph-name="f" unicode="f" horiz-adv-x="776" 
d="M440 1270q-35 0 -56.5 -20.5t-21.5 -55.5q-3 -26 19.5 -71t52 -90.5t56 -111t30.5 -124.5l156 4q33 0 33 -29t-33 -29l-154 5v-412q0 -147 26 -218t93 -89q58 -14 56 -33q-2 -10 -15 -10q-1 0 -27 1.5t-66.5 3.5t-85 4t-89.5 3.5t-74 1.5t-69 -1.5t-76.5 -3.5t-68.5 -4
t-53 -3.5t-22 -1.5q-14 0 -14 12q0 4 2.5 7.5t6.5 5.5t13 7.5t17 10.5q53 27 65 88q15 64 15 239v375v17q-46 -3 -97 -3q-17 0 -23.5 13.5t0 27t23.5 13.5h7q7 0 17.5 -0.5t23 -1t26.5 -0.5h25q21 532 403 532q107 0 166 -39t61 -104q0 -57 -39 -95t-96 -38q-52 0 -76 25.5
t-49 95.5q-27 96 -88 96z" />
    <glyph glyph-name="g" unicode="g" horiz-adv-x="1093" 
d="M700 100q201 0 295.5 -60t94.5 -185q0 -295 -529 -295q-252 0 -368.5 35t-116.5 110q0 100 176 127q-184 30 -184 186q0 188 305 218q-140 31 -219.5 107t-79.5 181q0 138 129 221q131 82 342 82q59 0 112 -6q23 115 93 176.5t151 61.5q68 0 108 -36.5t40 -94.5
q0 -52 -34.5 -86.5t-88.5 -34.5q-90 0 -111 88q-6 23 -11.5 29t-17.5 6q-24 0 -49 -32.5t-37 -82.5q148 -30 232 -106t84 -185q0 -141 -131 -223t-340 -82h-19q-134 0 -185.5 -14.5t-51.5 -50.5q0 -54 104 -54h307zM416 524q1 -148 31 -210t98 -62t98 62t31 210
q-1 148 -31 209.5t-98 61.5t-98 -61.5t-31 -209.5zM565 -412q332 0 332 133q0 101 -154 101l-329 2q-61 -4 -93 -34.5t-32 -76.5q0 -63 61.5 -94t214.5 -31z" />
    <glyph glyph-name="h" unicode="h" horiz-adv-x="1343" 
d="M1262 29q32 -19 32 -31t-14 -12q-33 0 -117 8q-95 6 -153 6q-64 0 -158 -6q-84 -8 -96 -8q-15 0 -15 12t37 33q32 25 41 63q8 33 8 158v387q0 119 -86 119q-81 0 -134.5 -102.5t-53.5 -276.5q0 -198 12 -262q12 -66 68 -90q8 -4 17.5 -7.5t13 -5t6 -4.5t2.5 -10
q0 -14 -17 -14q-21 0 -114 8q-105 6 -170 6q-28 0 -67.5 -1.5t-76 -3.5t-69 -4t-53 -3.5t-21.5 -1.5q-16 0 -16 12q0 17 34 27q55 27 70 118q16 101 16 398v229q0 226 -18 297q-15 70 -86 117q-10 10 -20 15.5t-13.5 8.5t-3.5 11q0 16 27 16q237 0 467 84l24 10q13 0 13 -12
l-1 -3q-1 -4 -2.5 -11.5t-3 -19t-3.5 -28t-4.5 -35.5t-4 -44t-3 -52t-2.5 -60.5t-1 -68.5v-391q64 223 299 223q178 0 259 -83.5t81 -264.5v-227q0 -116 10 -158q12 -37 60 -65z" />
    <glyph glyph-name="i" unicode="i" horiz-adv-x="718" 
d="M334 918q-95 0 -155 53t-60 143q0 87 60.5 142t154.5 55q98 0 157.5 -54.5t59.5 -142.5t-60 -142t-157 -54zM66 -16q-15 0 -15 12q0 4 2.5 7.5t6.5 5.5t13 7.5t17 10.5q54 28 66 88q14 60 14 237v78q0 139 -17.5 205t-60.5 92q-37 25 -41 33q0 12 27 12q148 4 263 18.5
t165 30.5q47 15 51 15q16 0 16 -15q0 -4 -4 -15.5t-10.5 -28t-9.5 -29.5q-14 -55 -14 -297v-76q0 -182 20 -252q21 -69 88 -105q25 -12 25 -20q0 -14 -15 -14q-1 0 -23 1.5t-56 3.5t-72.5 4t-79 3.5t-68.5 1.5t-67.5 -1.5t-76.5 -3.5t-69.5 -4t-53 -3.5t-21.5 -1.5z" />
    <glyph glyph-name="j" unicode="j" horiz-adv-x="643" 
d="M319 948q-95 0 -155 53.5t-60 143.5q0 87 60.5 141.5t154.5 54.5q98 0 158 -54t60 -142t-60.5 -142.5t-157.5 -54.5zM131 -440q-93 0 -153 53t-62 133q-1 62 35.5 99.5t93.5 37.5q55 0 86 -29t45 -92q27 -129 96 -129q29 0 48.5 19.5t19.5 50.5q0 55 -90 178
q-36 50 -63 126t-27 155v252q0 139 -17.5 205t-60.5 92q-37 25 -41 32q0 13 27 13q54 1 105 4t91.5 7t77 9t64.5 10t52 9.5t40.5 9l27.5 7.5t17 5l6 2q16 0 16 -14q0 -4 -4 -15.5t-10.5 -28.5t-9.5 -30q-18 -73 -15 -297v-274q-3 -600 -395 -600z" />
    <glyph glyph-name="k" unicode="k" horiz-adv-x="1335" 
d="M1274 39q9 -9 17.5 -16t13 -10t7.5 -7t3 -8q0 -12 -17 -12q-1 0 -16.5 1.5t-40.5 3.5t-54 4t-63 3.5t-63 1.5q-77 0 -176 -8l-113 -6q-14 0 -14 12q0 3 21.5 24t21.5 31q0 44 -174 303q-24 41 -39 41q-8 0 -25 -10l-16 -10q0 -196 12 -260q12 -66 68 -90q8 -4 17.5 -7.5
t13 -5t6 -4.5t2.5 -10q0 -14 -17 -14q-21 0 -114 8q-105 6 -170 6q-28 0 -67.5 -1.5t-76 -3.5t-69 -4t-53 -3.5t-21.5 -1.5q-17 0 -17 12q0 17 35 27q55 27 70 118q16 101 16 398v229q0 226 -18 297q-15 70 -86 117q-10 10 -20 15.5t-13.5 8.5t-3.5 11q0 16 27 16
q39 0 76.5 1.5t72.5 6t63.5 8.5t60 11t51.5 11.5t47.5 13t38 12t34 11.5t25.5 9l22 10q12 0 12 -12l-1 -3q-1 -4 -2 -11.5t-3 -19t-4 -28t-4 -35.5t-4 -44t-3 -52t-2 -60.5t-1 -68.5v-581q219 150 274 198q68 59 68 97q0 36 -66 67q-39 17 -39 27t15 10l84 -6q73 -8 125 -8
q36 0 112 6q77 6 86 6q17 0 17 -12q0 -16 -76 -31q-84 -15 -258 -143l-29 -21q207 -314 414 -565z" />
    <glyph glyph-name="l" unicode="l" horiz-adv-x="745" 
d="M86 -14q-14 0 -14 12q0 14 34 35q57 37 72 125t15 374v238q0 223 -19 297q-15 70 -86 117q-10 10 -20 15.5t-13.5 8.5t-3.5 11q0 16 27 16q237 0 467 84l24 10q13 0 13 -12l-1 -3q-1 -4 -2.5 -11.5t-3 -19t-3.5 -28t-4.5 -35.5t-4 -44t-3 -52t-2.5 -60.5t-1 -68.5v-463
q0 -259 16 -360q18 -94 86 -141q35 -21 35 -33t-14 -12l-117 6q-104 8 -188 8q-28 0 -67.5 -1.5t-76.5 -3.5t-70 -4t-53.5 -3.5t-21.5 -1.5z" />
    <glyph glyph-name="m" unicode="m" horiz-adv-x="1867" 
d="M1784 33q37 -27 37 -35q0 -12 -17 -12q-32 0 -116 8q-92 6 -152 6l-244 -14q-14 0 -14 12q0 10 37 37q27 21 33 57q6 34 6 141v367q0 117 -74 117q-50 0 -92 -60q-64 -91 -64 -260v-164q0 -102 11 -139q13 -32 55 -61q37 -27 37 -35q0 -12 -17 -12q-32 0 -116 8
q-92 6 -152 6l-244 -14q-14 0 -14 12q0 10 37 37q27 21 33 57q6 34 6 141v367q0 117 -74 117q-50 0 -92 -60q-64 -91 -64 -260v-123q0 -131 11 -188q9 -44 49 -59q40 -18 38 -33q-1 -8 -14 -8l-18 2q-19 1 -48.5 3t-63 4t-71 3.5t-65.5 1.5t-67.5 -1.5t-76 -3.5t-69 -4
t-53 -3.5t-21.5 -1.5q-14 0 -14 12q0 10 37 31q58 30 70 69q12 40 12 191v153q0 168 -14 211q-12 50 -66 72q-35 14 -39 27q0 14 19 14q48 0 113 6.5t124 15t110 17.5t82 15.5t29 6.5q15 0 15 -12l-1 -8q-1 -8 -2.5 -21t-3.5 -31l-4.5 -40.5t-4 -46t-2.5 -50t-1 -51.5h6
q64 260 320 260q240 0 274 -239h4q73 239 316 239q278 0 278 -315v-279q0 -102 11 -139q13 -32 55 -61z" />
    <glyph glyph-name="n" unicode="n" horiz-adv-x="1320" 
d="M1239 29q33 -20 33 -31q0 -12 -15 -12q-32 0 -116 8q-95 6 -154 6q-63 0 -158 -6q-84 -8 -96 -8q-14 0 -14 12t37 33q32 25 41 63q8 33 8 158v387q0 119 -86 119q-81 0 -135 -103t-54 -276v-105q0 -131 11 -188q9 -44 49 -59q40 -18 38 -33q-1 -8 -14 -8l-18 2
q-19 1 -48.5 3t-63 4t-71 3.5t-65.5 1.5t-67.5 -1.5t-76 -3.5t-69 -4t-53 -3.5t-21.5 -1.5q-14 0 -14 12q0 10 37 31q58 30 70 69q12 40 12 191v153q0 168 -14 211q-12 50 -66 72q-35 14 -39 27q0 14 19 14q48 0 113 6.5t124 15t110 17.5t82 15.5t29 6.5q15 0 15 -12l-1 -8
q-1 -8 -2.5 -21t-3.5 -31l-4.5 -40.5t-4 -46t-2.5 -50t-1 -51.5q58 260 309 260q178 0 259 -83.5t81 -264.5v-227q0 -112 11 -158q12 -38 59 -65z" />
    <glyph glyph-name="o" unicode="o" horiz-adv-x="1163" 
d="M205 711q143 116 377 116q231 0 374 -116q146 -119 146 -312q0 -192 -146 -311q-144 -117 -374 -117q-233 0 -377 117t-144 311q0 195 144 312zM582 0q72 3 106 84q32 76 35 315q-3 238 -35 314q-35 83 -106 86q-72 -3 -107 -86q-32 -76 -35 -314q3 -239 35 -315
q34 -81 107 -84z" />
    <glyph glyph-name="p" unicode="p" horiz-adv-x="1228" 
d="M793 827q159 0 266 -116q108 -117 108 -301q0 -204 -112 -322q-113 -119 -299 -119q-187 0 -252 133v-286q0 -171 98 -201q41 -14 39 -30q-1 -9 -14 -9q-24 0 -125 8q-114 6 -180 6q-28 0 -67.5 -1.5t-76 -3.5t-69 -4t-53 -3.5t-21.5 -1.5q-15 0 -15 12q0 10 37 31
q48 29 65 100.5t17 235.5v467q0 170 -12 211q-11 41 -70 76q-9 6 -19 11.5t-13.5 7.5t-6 5.5t-2.5 9.5q0 15 19 15q49 0 112.5 6.5t119.5 15t104 17.5t77 15.5t27 6.5q14 0 14 -12l-1 -8q-2 -8 -4 -22t-5 -33t-6 -44t-5 -51.5t-3.5 -58t-1.5 -62.5h4q38 299 326 299zM653 31
q75 0 101 75q28 79 28 304q0 214 -30 278q-27 68 -93 68q-73 0 -116.5 -90.5t-44.5 -255.5q-3 -379 155 -379z" />
    <glyph glyph-name="q" unicode="q" horiz-adv-x="1214" 
d="M1092 -184q0 -174 49 -201q28 -16 28 -27q0 -12 -14 -12q-19 0 -100 8q-91 6 -146 6q-28 0 -67.5 -1.5t-76 -3.5t-68.5 -4t-52.5 -3.5t-21.5 -1.5q-15 0 -15 12q0 10 37 31q48 29 65 100.5t17 235.5l-2 170h-6q-53 -156 -258 -156q-157 0 -279 119q-121 121 -121 299
q0 200 132 320t333 120q70 0 113 -18q40 -13 149 -80q62 -39 76 -39q23 0 68 39l94 76q28 22 49 22q25 0 25 -26l-1 -13q-1 -12 -2 -36t-2 -57t-2 -83t-1 -106v-690zM582 786q-70 0 -105 -84q-31 -85 -31 -315q0 -206 24 -281t95 -75q165 0 162 383v69q-3 303 -145 303z" />
    <glyph glyph-name="r" unicode="r" horiz-adv-x="1001" 
d="M805 827q85 0 130.5 -46.5t45.5 -127.5q0 -79 -37.5 -123.5t-103.5 -44.5q-52 0 -85 29t-44 63.5t-25.5 63.5t-34.5 29q-56 0 -86 -119q-30 -117 -33 -262v-62q0 -98 23.5 -136.5t95.5 -63.5q39 -14 39 -27q0 -14 -16 -14l-58 4q-59 3 -137.5 6.5t-128.5 3.5
q-28 0 -67.5 -1.5t-76.5 -3.5t-70 -4t-53.5 -3.5t-21.5 -1.5q-14 0 -14 12q0 11 39 31q56 24 68 67q14 43 14 162v270q0 98 -15 136t-65 61q-27 8 -34 12.5t-7 14.5q0 14 21 14q176 0 413 54l29 7q16 0 16 -14l-12 -95q-11 -120 -6 -245h2q26 162 105.5 258t189.5 96z" />
    <glyph glyph-name="s" unicode="s" horiz-adv-x="1017" 
d="M510 -31q-97 0 -215 33q-122 35 -125 35q-14 0 -21.5 -8.5t-13.5 -32.5q-1 -12 -8.5 -16.5t-15 0t-7.5 16.5q0 2 1 34.5t1 59.5q0 43 -10 125q-3 21 -5.5 40.5t-3.5 28t-1 9.5q0 14 12 14q10 0 19 -20q46 -138 150.5 -212.5t240.5 -74.5q78 0 121 30.5t43 86.5
q0 52 -35.5 81.5t-136.5 53.5l-140 33q-151 37 -214.5 96.5t-63.5 169.5q0 134 115 205q118 71 288 71q42 0 90 -7t86.5 -17.5t71 -20.5t53 -17t21.5 -7q24 0 33 47q3 18 16 18q16 0 16 -20q0 -137 39 -248l2 -6q0 -14 -13 -12q-12 1 -21 18q-60 115 -162 179.5t-213 64.5
q-162 0 -162 -92q0 -43 35 -68t115 -43l176 -39q148 -32 219 -97.5t71 -170.5q0 -100 -70.5 -177.5t-174.5 -111.5q-102 -31 -203 -31z" />
    <glyph glyph-name="t" unicode="t" horiz-adv-x="839" 
d="M492 -31q-180 0 -262.5 84.5t-82.5 278.5v340q0 44 -11 60t-46 20l-35 4q-17 1 -23.5 11.5t0 21.5t23.5 12q164 12 252 82q90 72 172 243q13 23 27 23q16 0 16 -25l-2 -313q0 -14 12 -14l226 2q30 0 30 -29t-26 -29q-6 0 -88.5 2t-141.5 2q-14 0 -14 -12l-4 -530
q0 -135 117 -135q61 0 95 40.5t34 108.5q0 16 9 22t18.5 -1t9.5 -23q0 -113 -74 -179.5t-231 -66.5z" />
    <glyph glyph-name="u" unicode="u" horiz-adv-x="1275" 
d="M1214 55q27 -9 27 -22q0 -15 -18 -15q-49 0 -109 -4.5t-111.5 -11t-95.5 -13.5t-69.5 -11.5t-24.5 -4.5q-22 0 -25 23q-17 49 -20 205q-53 -232 -293 -232q-167 0 -249.5 78.5t-82.5 257.5v275q0 83 -13 114t-52 49q-36 20 -39 29q0 12 20 12q44 0 105.5 3.5t119 9
t107.5 10.5t80.5 8.5t28.5 3.5q20 0 20 -22l-1 -9q-1 -8 -3 -25t-4 -41.5t-3 -64.5t-1 -86v-323q0 -189 98 -189q65 0 108 82.5t44 220.5q-3 246 -10 295q-9 64 -39 82q-6 4 -15 9.5t-12.5 8t-6.5 6.5t-3 9q0 12 20 12q62 0 169.5 8.5t184.5 17.5l76 9q15 0 15 -10
q0 -2 -1.5 -14t-3.5 -35t-4.5 -55.5t-4 -85t-1.5 -113.5v-152q0 -170 15 -223q15 -50 77 -76z" />
    <glyph glyph-name="v" unicode="v" horiz-adv-x="1093" 
d="M539 -53q-10 0 -19 12l-344 637q-79 143 -113 162q-10 6 -21 12.5t-15.5 9t-9 6t-6 6.5t-1.5 7q0 14 19 14l9 -1q9 -1 23.5 -2t34 -2.5t43.5 -3t48.5 -2.5t51.5 -2t50 -1q60 0 174 6t117 6q16 0 16 -14q0 -9 -21 -21q-51 -29 -51 -80q0 -27 23 -88q32 -75 125 -256
q9 -12 12 -12q6 0 12 16q115 239 115 334q0 75 -102 90q-23 3 -23 17t19 14q5 0 69 -6q67 -6 107 -6q45 0 116 6l70 6q20 0 20.5 -14.5t-18.5 -18.5q-97 -15 -145 -63q-46 -46 -99 -164l-268 -592q-6 -12 -18 -12z" />
    <glyph glyph-name="w" unicode="w" horiz-adv-x="1531" 
d="M457 -39l-264 578q-59 128 -82 166q-23 41 -56 61q-10 6 -21 11t-15 7t-6.5 5.5t-2.5 9.5q0 14 17 14l16 -1q16 -2 42.5 -4t57.5 -4t66.5 -3.5t64.5 -1.5q54 0 156 6l105 6q12 0 12 -14q0 -7 -25 -23q-43 -21 -43 -69q0 -74 117 -299l18 -33q4 0 13 20l71 176
q29 76 29 113q0 51 -49 88q-29 19 -29 29q0 14 15 14l94 -6q81 -8 137 -8q46 0 154 6l106 6q14 0 14 -14q0 -12 -30 -21q-43 -15 -43 -69q0 -42 45 -152q43 -107 73 -164q10 -16 13 -16t18 35l58 133q45 105 45 147q0 43 -50 78q-28 22 -28 31q0 12 14 12q2 0 43 -6
q43 -6 68 -6q12 0 28 1t30 3t26 4t20 3l8 1q19 0 19 -14q0 -13 -39 -27q-33 -16 -57 -47q-17 -22 -58 -115l-278 -647q-6 -13 -18.5 -13t-18.5 13q-62 142 -289 600q-6 12 -16.5 11.5t-16.5 -13.5l-246 -600q-6 -12 -16 -11.5t-16 13.5z" />
    <glyph glyph-name="x" unicode="x" horiz-adv-x="1142" 
d="M1108 29q5 -4 12 -8t10 -6t6 -5t4 -5t1 -5q0 -14 -15 -14q-1 0 -24.5 1.5t-60 3.5t-78 4t-85 3.5t-73.5 1.5q-41 0 -104 -3.5t-109 -6.5l-47 -4q-15 0 -15 12q0 10 35 31q45 29 49 41v10q0 6 -2.5 13t-9 18.5t-14.5 23.5t-23 34t-30 43t-40 57.5t-49 70.5l-106 -154
q-49 -70 -49 -108q0 -40 61 -55q35 -9 35 -21q0 -14 -18 -14q-5 0 -54 6t-75 6q-46 0 -117 -6l-70 -6q-20 0 -20.5 14t18.5 18q98 21 168 82q73 64 211 263q-14 14 -33 47q-138 201 -186 256q-53 67 -115 96q-41 18 -41 33q0 16 17 16q182 -14 293 -14q27 0 64 1.5t70.5 3.5
t63.5 4t49.5 3.5t20.5 1.5q14 0 14 -12q0 -13 -39 -33q-37 -21 -45.5 -29.5t-7.5 -25.5q3 -25 154 -232l79 140q39 62 39 98q0 38 -63 59q-39 12 -39 23q0 12 14 12q7 0 72 -6q67 -6 104 -6q39 0 97 6l57 6q21 0 21 -14q0 -18 -23 -21q-103 -21 -164 -76t-180 -241l18 -25
q136 -191 209 -270q70 -73 158 -137z" />
    <glyph glyph-name="y" unicode="y" horiz-adv-x="1097" 
d="M219 -190q29 0 92 -29t97 -29q47 0 79.5 44t32.5 110q0 86 -59 223q-24 60 -64 133q-38 78 -65 123q-14 26 -70 119l-53 92q-42 74 -69.5 107t-71.5 57q-47 23 -52 30q-2 4 -2 9q0 14 19 14q1 0 19 -1.5t46.5 -3.5t62.5 -4t75 -3.5t75 -1.5q60 0 174 6t117 6q16 0 16 -14
q0 -11 -28 -23q-43 -15 -43 -67q0 -49 61 -189q67 -150 94 -196q10 -13 13 -13q5 0 12 17l35 90q22 51 41 104q43 103 43 187q0 32 -20 47t-78 22q-39 9 -39 21q0 14 18 14q5 0 70 -6q67 -6 106 -6q47 0 117 6l70 6q20 0 20.5 -14.5t-18.5 -18.5q-100 -15 -148 -63
q-49 -49 -96 -164l-260 -639q-71 -173 -147 -262.5t-173 -89.5q-68 0 -112.5 36.5t-44.5 96.5q0 54 31 85.5t77 31.5z" />
    <glyph glyph-name="z" unicode="z" horiz-adv-x="1034" 
d="M78 -6q-15 0 -15 12q0 8 37 66q80 122 256 374q14 22 46 67t38 54t19.5 28.5t23 33.5t13.5 22q32 43 32 74q0 39 -100 39q-127 0 -176 -49q-61 -58 -131 -256q-9 -25 -21 -25q-14 0 -14 17q0 -3 7 41t14.5 105.5t7.5 98.5q0 21 -2 39t-5.5 29.5t-6.5 19.5t-5 12l-2 5
q0 12 15 12q1 0 27.5 -0.5t84.5 -1.5t125 -2q152 -2 387 -2q59 0 106.5 1t73.5 2t31 1l8 2q15 0 15 -12q0 -7 -52 -74q-43 -57 -208 -305q-205 -310 -205 -344q0 -39 76 -39q165 0 251 86q72 72 99 213q9 39 24 39q13 0 13 -12l-3 -18q-2 -18 -5 -46.5t-6.5 -60.5t-6 -67.5
t-2.5 -61.5q0 -35 2 -62t2 -41q0 -12 -14 -12h-664h-125z" />
    <glyph glyph-name="braceleft" unicode="{" horiz-adv-x="739" 
d="M676 -383q22 0 22 -18q0 -21 -47 -21q-155 0 -250.5 102.5t-95.5 278.5v459q0 131 -164 131q-15 0 -21 9.5t0 18.5t21 9q164 0 164 131v459q0 176 95.5 278t250.5 102q47 0 47 -20q0 -18 -22 -18q-71 0 -121.5 -65.5t-50.5 -182.5v-447q0 -110 -62.5 -180.5t-189.5 -71.5
v-8q127 -1 189.5 -71.5t62.5 -180.5v-446q0 -117 50.5 -182.5t121.5 -65.5z" />
    <glyph glyph-name="bar" unicode="|" horiz-adv-x="376" 
d="M164 -264v1710q0 17 24.5 17t24.5 -17v-1710q0 -17 -24.5 -17t-24.5 17z" />
    <glyph glyph-name="braceright" unicode="}" horiz-adv-x="739" 
d="M598 586q15 0 21 -9t0 -18.5t-21 -9.5q-164 0 -164 -131v-459q0 -176 -95.5 -278.5t-250.5 -102.5q-47 0 -47 21q0 18 22 18q71 0 122 65.5t51 182.5v446q0 110 62 180.5t189 71.5v8q-127 1 -189 71.5t-62 180.5v447q0 117 -51 182.5t-122 65.5q-22 0 -22 18q0 20 47 20
q155 0 250.5 -102t95.5 -278v-459q0 -131 164 -131z" />
    <glyph glyph-name="asciitilde" unicode="~" horiz-adv-x="1146" 
d="M150 195q-17 0 -17 22q0 406 213 406q70 0 262 -70q198 -68 242 -68q57 0 84 26t37 97q3 23 24 23q17 0 17 -17q0 -397 -201 -397q-78 0 -258 66q-177 65 -240 65q-59 0 -93.5 -30t-47.5 -101q-3 -22 -22 -22z" />
    <glyph glyph-name="exclamdown" unicode="&#xa1;" horiz-adv-x="561" 
d="M322 936q-68 0 -112 41t-44 104q0 65 44 104.5t112 39.5q71 0 114 -40t43 -104q0 -66 -42.5 -105.5t-114.5 -39.5zM299 823h45q12 -167 62 -336q58 -182 92 -274q43 -110 43 -156q0 -75 -61.5 -123.5t-157.5 -48.5q-97 0 -158.5 48.5t-61.5 123.5q0 26 18 82t54 159.5
t62 188.5q51 160 63 336z" />
    <glyph glyph-name="cent" unicode="&#xa2;" horiz-adv-x="1032" 
d="M975 260q12 0 12 -12v-4q-50 -244 -346 -271v-249q0 -17 -24.5 -17t-24.5 17v245h-33q-221 0 -360 115q-138 117 -138 301q0 203 144 320t397 122v238q0 17 24.5 17t24.5 -17v-240q66 -3 144 -26l38 -12t27 -8.5t10 -2.5q33 0 45 49q7 17 19 17q14 0 14 -19
q0 -191 28 -339l1 -5q0 -17 -14 -17q-15 1 -21 21q-77 308 -254 308q-215 0 -215 -349q0 -379 234 -379q92 0 159 47.5t92 131.5q6 18 17 18z" />
    <glyph glyph-name="sterling" unicode="&#xa3;" horiz-adv-x="1427" 
d="M1292 467q0 -280 -71 -389t-236 -109q-84 0 -244 60q-157 59 -229 59q-89 0 -203 -57q-113 -58 -116 -58q-27 0 -27 31q0 2 1.5 5.5t5.5 8t7.5 8.5t10.5 10.5t12 11.5t14 13t14.5 13t16 14t16.5 14q41 40 71.5 95.5t31.5 111.5q1 49 -10 92t-42 111l-34 86h-156
q-17 0 -17 24.5t17 24.5h139q-16 59 -16 113q0 190 166 301q165 110 415 110q169 0 281 -77q113 -76 113 -191q0 -80 -47.5 -128t-118.5 -48q-59 0 -97 31.5t-38 85.5q0 40 53 90q53 53 53 90q0 54 -57.5 86.5t-139.5 32.5q-121 0 -190.5 -63.5t-69.5 -172.5q0 -73 27 -155
q32 -98 33 -105h272q17 0 17 -24.5t-17 -24.5h-268v-10q0 -114 -123 -260q-79 -95 -100 -117q-60 -64 -121 -121l-84 -82l4 -6l59 57l49 45q48 46 125 103q71 57 144 92t129 35q94 0 201 -43t167 -43q150 0 177 213q1 19 16 20q13 -1 14 -14z" />
    <glyph glyph-name="currency" unicode="&#xa4;" horiz-adv-x="1032" 
d="M754 281l139 -142q14 -5 0 -23q-11 -13 -23 -16q-6 0 -10 4l-143 144q-82 -64 -203 -64q-117 0 -199 64l-143 -142q-5 -14 -23 0q-13 10 -16 23q0 6 4 10l144 144q-72 78 -72 196q0 123 74 203l-146 145q-4 4 -4 11q0 8 9.5 18t19.5 10q6 0 10 -4l145 -145q82 61 197 61
q122 0 201 -61l145 145q4 4 10 4q8 0 18.5 -9t10.5 -19q0 -7 -4 -11l-143 -143q71 -83 71 -205q0 -120 -69 -198zM514 229q113 0 180.5 67.5t67.5 182.5q0 119 -65.5 186.5t-182.5 67.5q-110 0 -177 -69.5t-67 -184.5q0 -113 67 -181.5t177 -68.5z" />
    <glyph glyph-name="yen" unicode="&#xa5;" horiz-adv-x="1398" 
d="M1374 1153q19 0 19 -10q0 -13 -19 -19q-132 -35 -192 -73q-64 -40 -107 -127l-178 -365q-6 -9 -6 -18h215q17 0 17 -24.5t-17 -24.5h-215v-101h215q17 0 17 -24.5t-17 -24.5h-215q3 -192 16 -242q14 -56 64 -75q34 -19 39 -29q0 -10 -15 -10q-1 0 -24 1t-59.5 3t-77.5 4
t-85.5 3t-76.5 1q-33 0 -78 -1t-86.5 -3t-78 -4t-59.5 -3t-24 -1q-15 0 -14 10q1 11 24 22l15 7q50 14 65 73q14 54 17 244h-228q-17 0 -17 24.5t17 24.5h228v45q0 27 -11 56h-217q-17 0 -17 24.5t17 24.5h195l-129 215q-142 231 -182 280q-56 69 -89 82q-39 18 -37 30
q1 7 19 7l13 -1q13 0 34.5 -1t49 -2.5t60 -3t64.5 -2.5t64.5 -1.5t58.5 -0.5q29 0 70.5 1t80.5 3t73 4t56 3t23 1q15 0 14 -8q-1 -12 -38 -29q-43 -15 -43 -49q0 -82 266 -526l119 245q75 150 75 230q0 46 -26.5 66.5t-106.5 41.5q-20 3 -20 17q0 10 22 10l97 -6
q132 -4 153 -4q13 0 127 4z" />
    <glyph glyph-name="brokenbar" unicode="&#xa6;" horiz-adv-x="376" 
d="M164 750v696q0 17 24.5 17t24.5 -17v-696q0 -17 -24.5 -17t-24.5 17zM164 -264v696q0 17 24.5 17t24.5 -17v-696q0 -17 -24.5 -17t-24.5 17z" />
    <glyph glyph-name="section" unicode="&#xa7;" horiz-adv-x="1040" 
d="M707 391q132 -39 193 -106.5t61 -182.5q0 -82 -41 -147.5t-109.5 -105.5t-151.5 -61t-172 -21q-178 0 -275 62.5t-97 164.5q0 57 34 93t91 36q43 0 71.5 -23.5t28.5 -58.5q0 -16 -20.5 -59.5t-20.5 -63.5q0 -48 58 -85.5t141 -37.5q107 0 172 43t65 117q0 63 -50 100.5
t-181 69.5l-82 20q-164 41 -237.5 111.5t-73.5 187.5q0 113 78.5 187t207.5 98q-256 74 -256 289q0 138 127 215q128 78 293 78q170 0 265.5 -55t95.5 -138q0 -117 -103 -117q-38 0 -63 22.5t-25 53.5q0 21 20.5 60t20.5 51q0 37 -62 65.5t-149 28.5q-96 0 -152.5 -38
t-56.5 -97q0 -55 40.5 -82t150.5 -55l98 -25q177 -42 255.5 -109t78.5 -186q0 -113 -73 -190t-195 -109zM322 584q0 -59 44 -91t146 -53l117 -28q121 24 121 125q0 62 -50 96.5t-188 66.5l-16 5q-84 0 -129 -33t-45 -88z" />
    <glyph glyph-name="dieresis" unicode="&#xa8;" horiz-adv-x="819" 
d="M342 1198q0 -61 -40.5 -98t-106.5 -37q-64 0 -105 37t-41 98q0 58 40.5 94.5t105.5 36.5q66 0 106.5 -35.5t40.5 -95.5zM768 1198q0 -61 -39.5 -98t-105.5 -37t-107 37t-41 98q0 57 41 94t107 37q65 0 105 -36.5t40 -94.5z" />
    <glyph glyph-name="copyright" unicode="&#xa9;" horiz-adv-x="1486" 
d="M743 1303q277 0 467 -193q193 -193 193 -469t-191 -467q-190 -190 -469 -190t-469 190q-190 193 -190 469q0 277 190 467q190 193 469 193zM311 207q174 -180 432 -180q257 0 431 180q176 182 176 436t-176 436q-175 181 -431 181q-257 0 -432 -181q-174 -180 -174 -436
t174 -436zM1049 618q14 0 14 -12q0 -2 -1 -12t-2.5 -31.5t-3 -52.5t-2.5 -84.5t-1 -118.5q0 -14 -15 -14t-18 18q-3 35 -37 35q-2 0 -84 -29q-74 -26 -143 -26q-166 0 -279 104q-112 106 -112 269q0 160 116 264q119 104 285 104q71 0 133 -26q70 -25 72 -25q25 0 28 33
q1 18 17 18q13 -1 14 -12q0 -25 3 -65.5t7 -80.5t8.5 -76.5t7.5 -60t3 -24.5q0 -13 -15 -13q-13 0 -16 13l-18 49q-46 127 -92.5 184.5t-110.5 57.5q-75 0 -109 -75t-34 -265q0 -210 32 -275q34 -70 109 -70q60 0 117 55t88 156l22 74q3 14 17 14z" />
    <glyph glyph-name="ordfeminine" unicode="&#xaa;" horiz-adv-x="849" 
d="M217 1022q127 26 207 33v129q0 55 -19 76.5t-69 21.5q-82 0 -82 -43q0 -8 13.5 -40.5t13.5 -47.5q0 -31 -31 -53.5t-78 -22.5q-41 0 -65.5 24.5t-24.5 65.5q0 65 70.5 105.5t205.5 40.5q167 0 250.5 -60.5t83.5 -201.5v-193q0 -47 31 -47t31 59q0 19 18 19q16 0 16 -19
q0 -66 -37 -96.5t-133 -30.5q-164 0 -188 136q-41 -136 -207 -136q-74 0 -118 34.5t-44 98.5q0 113 156 148zM334 813q36 0 63 44t27 110v59l-12 -2q-80 -15 -111 -57q-18 -24 -18 -80q0 -74 51 -74zM762 588q17 0 17 -24.5t-17 -24.5h-676q-17 0 -17 24.5t17 24.5h676z" />
    <glyph glyph-name="guillemotleft" unicode="&#xab;" horiz-adv-x="1067" 
d="M561 80q-3 0 -51 31l-311 213q-97 66 -97 122.5t97 122.5l311 213q48 31 53 31q15 0 15 -14q0 -9 -41 -62l-220 -291l220 -290q41 -53 41 -62q0 -14 -17 -14zM948 80q-3 0 -51 31l-311 213q-97 66 -97 122.5t97 122.5l311 213q48 31 53 31q15 0 15 -14q0 -9 -41 -62
l-219 -291l219 -290q41 -53 41 -62q0 -14 -17 -14z" />
    <glyph glyph-name="logicalnot" unicode="&#xac;" horiz-adv-x="1146" 
d="M903 588q29 0 29 -27v-256q0 -17 -24.5 -17t-24.5 17v234h-652q-17 0 -17 24.5t17 24.5h672z" />
    <glyph glyph-name="uni00AD" unicode="&#xad;" horiz-adv-x="747" 
d="M621 461q24 0 24 -31t-24 -31h-117q-51 2 -113 2l-262 -2q-27 0 -27 29q0 30 27 33q132 -4 254 -4q74 0 133 2t105 2z" />
    <glyph glyph-name="registered" unicode="&#xae;" horiz-adv-x="1486" 
d="M743 1303q277 0 467 -193q193 -193 193 -469t-191 -467q-190 -190 -469 -190t-469 190q-190 193 -190 469q0 277 190 467q190 193 469 193zM311 207q174 -180 432 -180q257 0 431 180q176 182 176 436t-176 436q-175 181 -431 181q-257 0 -432 -181q-174 -180 -174 -436
t174 -436zM1194 436q3 -70 -42 -117.5t-111.5 -50.5t-141.5 41q-33 20 -82 55.5t-78.5 53.5t-46.5 18q-12 0 -12 -20q3 -87 41 -101q31 -15 31 -22q0 -10 -11 -10l-14 1q-14 1 -35.5 2t-45.5 2t-49.5 2t-43.5 1q-98 0 -180 -8q-13 0 -10 11q2 10 20 19q30 12 39 52
q8 41 8 290q0 228 -8 275q-6 53 -39 67q-21 9 -21 17q0 12 13 12l13 -1q13 -1 33 -2t43 -2t47.5 -2t41.5 -1q23 0 117 4q70 6 80 6q170 0 270 -79t100 -208q0 -134 -90.5 -215.5t-228.5 -81.5q-35 0 -84 9v-7q142 -34 258 -34q143 0 190 102q3 8 9 8q20 0 20 -86zM692 981
q-16 -22 -16 -305q0 -173 2 -191q0 -20 45 -20q145 0 145 266q0 268 -118 268q-43 0 -58 -18z" />
    <glyph glyph-name="overscore" unicode="&#xaf;" horiz-adv-x="819" 
d="M133 1192q4 0 18 -0.5t41.5 -1.5t53.5 -2q132 -4 147 -4q18 0 170 4q32 1 63.5 2t47.5 1.5t22 0.5q22 0 30 -16t5 -35.5t-12 -36.5q-13 -23 -33 -23q-80 0 -143 2q-122 4 -140 4q-3 0 -147 -4q-72 -2 -133 -2q-37 0 -37 37q0 74 47 74z" />
    <glyph glyph-name="degree" unicode="&#xb0;" horiz-adv-x="575" 
d="M287 1311q94 0 151.5 -55t57.5 -146q0 -88 -58.5 -143.5t-150.5 -55.5t-149.5 54.5t-57.5 144.5t58 145.5t149 55.5zM287 1268q-68 0 -109 -43t-41 -115q0 -69 41.5 -112.5t108.5 -43.5q69 0 110 42t41 114q0 74 -39.5 116t-111.5 42z" />
    <glyph glyph-name="plusminus" unicode="&#xb1;" horiz-adv-x="1146" 
d="M911 649q17 0 17 -24.5t-17 -24.5h-313v-313q0 -17 -24.5 -17t-24.5 17v313h-313q-17 0 -17 24.5t17 24.5h313v314q0 17 24.5 17t24.5 -17v-314h313zM870 121q17 0 17 -24.5t-17 -24.5h-594q-17 0 -17 24.5t17 24.5h594z" />
    <glyph glyph-name="uni00B2" unicode="&#xb2;" horiz-adv-x="923" 
d="M182 809q-26 0 -26 -21q0 -4 7 -27t7 -30q0 -31 -37 -31q-41 0 -41 74q0 119 59 207t164 123q108 35 152.5 96t44.5 158q0 80 -34 126t-99 46q-44 0 -71 -21t-27 -57q0 -30 28 -72q31 -39 31 -71q0 -44 -35.5 -72.5t-87.5 -28.5q-55 0 -89 35t-34 92q0 106 105 170
t284 64q158 0 265 -64q110 -64 110 -155q0 -107 -100 -170t-275 -74q-358 -24 -358 -311q0 -29 4 -41h8q-4 16 -4 41q0 97 74.5 163t204.5 66q72 0 190 -33q123 -30 170 -30q52 0 78.5 24.5t38.5 83.5q2 19 15 19q11 -1 11 -11q0 -29 -18 -131q-24 -132 -68.5 -186.5
t-134.5 -54.5q-98 0 -286 51q-195 53 -226 53z" />
    <glyph glyph-name="uni00B3" unicode="&#xb3;" horiz-adv-x="976" 
d="M461 694q-174 0 -265.5 56.5t-91.5 152.5q0 73 49 117.5t123 44.5q54 0 85.5 -26t31.5 -70q0 -30 -47 -80q-47 -47 -47 -80q0 -78 96 -78q69 0 112.5 51t43.5 146q0 202 -133 202q-10 0 -26.5 -0.5t-29.5 -1.5h-12q-33 0 -33 31t33 31q18 0 45 -2t58 -2q112 0 112 184
q0 174 -137 174q-109 0 -109 -80q0 -16 25 -70t25 -77q0 -48 -32 -75.5t-81 -27.5q-62 0 -100.5 35t-38.5 94q0 112 104 170q108 60 246 60q198 0 315 -57q123 -58 123 -144q0 -94 -107 -150.5t-298 -60.5v-8q442 -15 442 -209q0 -111 -133 -182q-133 -68 -348 -68z" />
    <glyph glyph-name="acute" unicode="&#xb4;" horiz-adv-x="819" 
d="M170 930q-10 0 -10 6q0 4 8 12q217 233 272 281q70 64 119 61q38 -2 61 -24.5t23 -59.5q0 -33 -22.5 -57.5t-81.5 -56.5q-142 -80 -359 -160q-2 -2 -10 -2z" />
    <glyph glyph-name="uni00B5" unicode="&#xb5;" horiz-adv-x="1290" 
d="M1239 68q27 -9 27 -23t-19 -14q-47 0 -110.5 -5t-121 -12.5t-107 -14.5t-79.5 -12t-28 -5q-15 0 -15 12q7 107 7 201h-5q-17 -98 -61 -153.5t-102 -55.5q-145 -3 -172 241h-7q-8 -63 -8 -149q0 -107 21 -221q22 -123 22 -158q0 -139 -170 -139q-165 0 -168 145
q0 3 21 178q20 167 20 375v166q0 151 -22 215q-21 61 -84 86q-36 20 -39 29q0 12 20 12q89 0 185 8q140 11 190 17q23 3 45 5.5t31.5 3.5t11.5 1q21 0 21 -23q-4 -10 -10.5 -32t-17.5 -107.5t-11 -192.5l-2 -61q0 -175 32 -250.5t101 -75.5q63 0 103.5 66.5t41.5 179.5
q-3 259 -10 316q-9 79 -39 100q-6 4 -15 9.5t-12.5 8t-6.5 6.5t-3 9q0 12 21 12q62 0 169.5 8.5t183.5 17.5l77 9q14 0 14 -10q0 -2 -1.5 -14t-3.5 -35.5t-4 -56t-3.5 -85t-1.5 -113.5v-133q3 -172 16 -215q15 -48 78 -71z" />
    <glyph glyph-name="paragraph" unicode="&#xb6;" horiz-adv-x="1169" 
d="M682 -258q120 76 160 201q43 122 43 376v979q32 0 62 1.5t51 3t37 3.5t25.5 3.5t10.5 1.5q16 0 16 -17l-30 -73q-33 -70 -33 -160v-674q0 -291 -68 -424q-68 -135 -274 -221zM451 -297q-162 0 -269 82q-106 78 -106 197q0 88 49 139t121 51q62 0 97.5 -29.5t35.5 -83.5
q0 -41 -47 -100q-47 -62 -47 -104q0 -54 46 -85.5t124 -31.5q138 0 198 80t60 274l2 307q0 13 -10 13l-33 -8q-34 -8 -90 -16.5t-111 -8.5q-180 0 -305 131q-123 132 -123 326q0 207 139 340t373 133q49 0 123 -6q21 -1 43.5 -2t35.5 -2t19 -1v-1185q0 -217 -81 -313.5
t-244 -96.5z" />
    <glyph glyph-name="middot" unicode="&#xb7;" horiz-adv-x="575" 
d="M287 819q85 0 135.5 -46t50.5 -124q0 -75 -51 -121.5t-135 -46.5q-80 0 -132.5 47t-52.5 121q0 75 52.5 122.5t132.5 47.5z" />
    <glyph glyph-name="cedilla" unicode="&#xb8;" horiz-adv-x="819" 
d="M389 -410q-55 0 -98 12.5t-59.5 24t-16.5 17.5q0 12 12 12l6 -2q6 -2 15 -4.5t19.5 -5t22.5 -4.5t21 -2q38 0 62 25.5t24 68.5q0 46 -19.5 69t-72.5 47q-12 3 -12 17q0 7 12 22l78 105h39l-76 -105q141 -19 198.5 -58.5t57.5 -102.5q0 -64 -60.5 -100t-152.5 -36z" />
    <glyph glyph-name="uni00B9" unicode="&#xb9;" horiz-adv-x="714" 
d="M567 1573q13 0 13 -8q0 -1 -1.5 -15.5t-3 -39t-3.5 -53.5t-3.5 -63.5t-1.5 -64.5v-199q0 -198 11 -284q9 -71 51 -96q9 -4 17.5 -8.5t14.5 -7t11.5 -5t9 -4.5t6 -3.5t3.5 -3t1 -3.5q0 -8 -10 -8l-13 1q-13 0 -42.5 1t-63.5 2q-117 6 -188 6q-28 0 -67.5 -1t-76 -2.5
t-69 -3t-53 -2.5t-21.5 -1q-10 0 -10 8q0 4 2.5 6t9 3t10.5 3q84 21 103 70q18 49 18 192v94v13q0 232 -20 293q-18 63 -117 98q-21 6 -21 16q0 13 17 13q100 4 194 16l201 27q80 14 92 14z" />
    <glyph glyph-name="ordmasculine" unicode="&#xba;" horiz-adv-x="831" 
d="M162 1233q96 78 244 78t241 -78q94 -76 94 -207q0 -133 -94 -209q-91 -76 -241 -76t-244 76q-92 77 -92 209q0 130 92 207zM328 821q23 -51 78 -51t75 51q25 55 25 205t-25 205q-20 51 -75 51t-78 -51q-23 -57 -23 -205t23 -205zM78 588h676q17 0 17 -24.5t-17 -24.5
h-676q-17 0 -17 24.5t17 24.5z" />
    <glyph glyph-name="guillemotright" unicode="&#xbb;" horiz-adv-x="1067" 
d="M119 80q-17 0 -17 14q0 9 41 62l219 290l-219 291q-41 53 -41 62q0 14 15 14q5 0 53 -31l311 -213q97 -66 97 -122.5t-97 -122.5l-311 -213q-48 -31 -51 -31zM506 80q-17 0 -17 14q0 9 41 62l220 290l-220 291q-41 53 -41 62q0 14 15 14q5 0 53 -31l311 -213
q97 -66 97 -122.5t-97 -122.5l-311 -213q-48 -31 -51 -31z" />
    <glyph glyph-name="onequarter" unicode="&#xbc;" horiz-adv-x="1888" 
d="M1292 1403q0 -8 -6 -23l-608 -1468q-10 -23 -35 -23q-20 -3 -20 13q0 6 6 18l606 1469q9 24 35 24q19 0 22 -10zM672 469q0 -8 -10 -8l-13 1q-13 0 -42.5 1t-63.5 2q-117 6 -189 6q-28 0 -67.5 -1t-76 -2.5t-68.5 -3t-52.5 -2.5t-21.5 -1q-11 0 -11 8q0 4 3 6t9.5 3
t10.5 3q83 21 102 70q19 52 19 192v95v12q0 228 -21 293q-18 63 -117 98q-20 6 -20 16q0 13 16 13q101 4 195 16l201 27q80 14 92 14t12 -8q0 -1 -1 -15.5t-3 -39t-4 -53.5t-3 -63.5t-1 -64.5v-198q0 -207 10 -285q9 -71 51 -96q16 -8 35 -16.5t24 -11.5t5 -7zM1782 25
q40 -21 37 -31q-2 -4 -11 -4q-1 0 -118 6q-156 4 -191 4q-29 0 -151 -4l-95 -6q-10 0 -10 8q0 4 3.5 6t12.5 6.5t17 9.5q37 25 51.5 52.5t18.5 83.5h-287q-17 0 -17 18q0 14 9 23l555 622q26 27 33.5 32t25.5 5q33 0 33 -29q0 -1 -1 -35t-2 -85.5t-1 -94.5v-311v-68h90
q43 0 43 -34q0 -40 -45 -43h-84q9 -93 84 -131zM1120 233h230v52v168q0 20 -9 20q-4 0 -20 -16z" />
    <glyph glyph-name="onehalf" unicode="&#xbd;" horiz-adv-x="2015" 
d="M643 -111q-20 -3 -20 13q0 6 6 18l606 1469q9 24 35 24q19 0 22 -10q0 -8 -6 -23l-608 -1468q-10 -23 -35 -23zM547 1327q12 0 12 -8q0 -1 -1 -15.5t-3 -39t-4 -53.5t-3 -63.5t-1 -64.5v-198q0 -207 10 -285q9 -71 51 -96q16 -8 35 -16.5t24 -11.5t5 -7q0 -8 -10 -8
l-13 1q-13 0 -42.5 1t-63.5 2q-117 6 -189 6q-28 0 -67.5 -1t-76 -2.5t-68.5 -3t-52.5 -2.5t-21.5 -1q-11 0 -11 8q0 4 3 6t9.5 3t10.5 3q83 21 102 70q19 52 19 192v95v12q0 228 -21 293q-18 63 -117 98q-20 6 -20 16q0 13 16 13q101 4 195 16l201 27q80 14 92 14zM1255 92
q-26 0 -26 -20q0 -4 7 -27t7 -31q0 -30 -37 -30q-41 0 -41 73q0 119 59.5 207t164.5 123q108 35 152 96t44 158q0 80 -34 126t-99 46q-44 0 -71 -21t-27 -57q0 -29 28 -71q31 -39 31 -72q0 -44 -35.5 -72t-87.5 -28q-56 0 -89.5 34.5t-33.5 91.5q0 106 105 170t284 64
q158 0 265 -64q110 -64 110 -155q0 -107 -100 -170t-275 -74q-358 -24 -358 -311q0 -29 4 -41h8q-4 16 -4 41q0 97 74.5 163t204.5 66q72 0 190 -33q123 -30 170 -30q52 0 78.5 24.5t38.5 83.5q1 18 15 19q12 0 12 -11q0 -23 -19 -131q-24 -132 -68.5 -186.5t-134.5 -54.5
q-98 0 -286 51q-195 53 -226 53z" />
    <glyph glyph-name="threequarters" unicode="&#xbe;" horiz-adv-x="2080" 
d="M1483 1403q0 -8 -6 -23l-609 -1468q-10 -23 -34 -23q-21 -3 -21 13q0 6 6 18l606 1469q9 24 35 24q20 0 23 -10zM911 698q0 -111 -133 -182q-131 -67 -348 -67q-174 0 -265 56t-91 152q0 73 49 117.5t123 44.5q54 0 85 -26t31 -70q0 -30 -47 -80q-47 -47 -47 -80
q0 -78 97 -78q69 0 112 51t43 146q0 203 -133 203q-11 0 -39 -1t-29 -1q-32 0 -32 30q0 31 32 31q19 0 46 -2t57 -2q113 0 113 184q0 174 -138 174q-108 0 -108 -79q0 -17 24.5 -71t24.5 -77q0 -48 -32 -75t-81 -27q-62 0 -100.5 35t-38.5 94q0 112 104 170q106 59 246 59
q199 0 316 -57q122 -58 122 -144q0 -94 -107 -150.5t-298 -60.5v-8q442 -15 442 -209zM1972 25q41 -21 38 -31q-2 -4 -11 -4q-2 0 -119 6q-156 4 -190 4q-28 0 -154 -4l-92 -6q-10 0 -10 8q0 4 3.5 6t12 6.5t16.5 9.5q37 25 51.5 52.5t18.5 83.5h-287q-16 0 -16 18
q0 15 8 23l555 622q26 27 33.5 32t25.5 5q33 0 33 -29q0 -1 -1 -35t-2 -85.5t-1 -94.5v-311v-68h90q43 0 43 -34q0 -40 -45 -43h-84q9 -93 84 -131zM1311 233h229v52v168q0 20 -8 20q-5 0 -21 -16z" />
    <glyph glyph-name="questiondown" unicode="&#xbf;" horiz-adv-x="1171" 
d="M655 936q-72 0 -114.5 39.5t-42.5 105.5q0 64 43 104t114 40q68 0 112 -39.5t44 -104.5q0 -63 -44 -104t-112 -41zM690 797v-33q0 -164 -100 -242q-54 -43 -76 -107t-22 -184q0 -163 46.5 -235t147.5 -72q79 0 124.5 28t45.5 77q0 37 -39 82q-37 49 -37 92q0 54 42 85
t104 31q64 0 103.5 -38.5t39.5 -104.5q0 -125 -125 -207q-128 -84 -330 -84q-242 0 -377 85t-135 237q0 119 95.5 199.5t287.5 138.5q82 25 118 74t36 135v43h51z" />
    <glyph glyph-name="Agrave" unicode="&#xc0;" horiz-adv-x="1546" 
d="M975 1464q-1 0 -5 1t-5 1q-209 35 -453 111q-71 24 -98 51t-27 70q0 41 24.5 63.5t67.5 22.5q51 0 139 -55q116 -73 357 -242q8 -8 8 -12q0 -11 -8 -11zM770 -12q-20 0 -20 12q0 2 0.5 4t1 3.5t1.5 2.5t3 2.5t3.5 2t5 2t5.5 2t6.5 2l7.5 2.5q101 27 101 90q0 50 -72 286
q-9 30 -49 33q-78 4 -248 4q-146 0 -164 -2q-28 0 -37 -20q-41 -123 -57 -191q-12 -55 -12 -84q0 -44 29.5 -70t103.5 -46q31 -9 31 -21q0 -14 -19 -14q-3 0 -86 6q-79 6 -123 6q-34 0 -92 -6l-59 -6q-21 0 -21 14q0 15 19 18q65 9 106 62t90 190q300 845 310 879
q12 23 7.5 32t-50.5 25q-51 22 -54 31q0 13 27 16q106 5 244 25q124 18 196 33q21 4 40 8.5t27 6t9 1.5q14 0 14 -16q0 -3 -10 -22t-10 -29q0 -12 12 -52q44 -147 150 -442q88 -243 204 -537q38 -95 67.5 -138t68.5 -62q53 -21 53 -33q0 -10 -19 -10q-1 0 -28.5 1t-70.5 3
t-92.5 4t-104 3t-95.5 1q-27 0 -61 -0.5t-66.5 -1.5t-65.5 -2.5t-60.5 -3t-49 -2.5t-34.5 -2h-13zM535 483q197 0 221 4q20 3 20 21q0 4 -4 20l-192 582q-6 18 -13 18q-3 0 -12 -18l-201 -582q-8 -21 -8 -30q0 -10 16 -13q12 -2 173 -2z" />
    <glyph glyph-name="Aacute" unicode="&#xc1;" horiz-adv-x="1546" 
d="M477 1464q-8 0 -8 11q0 4 8 12q241 169 357 242q88 55 139 55q43 0 67.5 -22.5t24.5 -63.5q0 -43 -27 -70t-98 -51q-244 -76 -453 -111q-1 0 -5 -1t-5 -1zM770 -12q-20 0 -20 12q0 2 0.5 4t1 3.5t1.5 2.5t3 2.5t3.5 2t5 2t5.5 2t6.5 2l7.5 2.5q101 27 101 90
q0 50 -72 286q-9 30 -49 33q-78 4 -248 4q-146 0 -164 -2q-28 0 -37 -20q-41 -123 -57 -191q-12 -55 -12 -84q0 -44 29.5 -70t103.5 -46q31 -9 31 -21q0 -14 -19 -14q-3 0 -86 6q-79 6 -123 6q-34 0 -92 -6l-59 -6q-21 0 -21 14q0 15 19 18q65 9 106 62t90 190
q300 845 310 879q12 23 7.5 32t-50.5 25q-51 22 -54 31q0 13 27 16q106 5 244 25q124 18 196 33q21 4 40 8.5t27 6t9 1.5q14 0 14 -16q0 -3 -10 -22t-10 -29q0 -12 12 -52q44 -147 150 -442q88 -243 204 -537q38 -95 67.5 -138t68.5 -62q53 -21 53 -33q0 -10 -19 -10
q-1 0 -28.5 1t-70.5 3t-92.5 4t-104 3t-95.5 1q-27 0 -61 -0.5t-66.5 -1.5t-65.5 -2.5t-60.5 -3t-49 -2.5t-34.5 -2h-13zM535 483q197 0 221 4q20 3 20 21q0 4 -4 20l-192 582q-6 18 -13 18q-3 0 -12 -18l-201 -582q-8 -21 -8 -30q0 -10 16 -13q12 -2 173 -2z" />
    <glyph glyph-name="Acircumflex" unicode="&#xc2;" horiz-adv-x="1546" 
d="M436 1427q-14 0 -14 15q0 33 192 231q49 51 66 61.5t68 14.5q41 0 81 -31l33 -30l17 -17q194 -197 194 -229q0 -15 -14 -15q-11 0 -309 129h-5q-301 -129 -309 -129zM770 -12q-20 0 -20 12q0 2 0.5 4t1 3.5t1.5 2.5t3 2.5t3.5 2t5 2t5.5 2t6.5 2l7.5 2.5q101 27 101 90
q0 50 -72 286q-9 30 -49 33q-78 4 -248 4q-146 0 -164 -2q-28 0 -37 -20q-41 -123 -57 -191q-12 -55 -12 -84q0 -44 29.5 -70t103.5 -46q31 -9 31 -21q0 -14 -19 -14q-3 0 -86 6q-79 6 -123 6q-34 0 -92 -6l-59 -6q-21 0 -21 14q0 15 19 18q65 9 106 62t90 190
q300 845 310 879q12 23 7.5 32t-50.5 25q-51 22 -54 31q0 13 27 16q106 5 244 25q124 18 196 33q21 4 40 8.5t27 6t9 1.5q14 0 14 -16q0 -3 -10 -22t-10 -29q0 -12 12 -52q44 -147 150 -442q88 -243 204 -537q38 -95 67.5 -138t68.5 -62q53 -21 53 -33q0 -10 -19 -10
q-1 0 -28.5 1t-70.5 3t-92.5 4t-104 3t-95.5 1q-27 0 -61 -0.5t-66.5 -1.5t-65.5 -2.5t-60.5 -3t-49 -2.5t-34.5 -2h-13zM535 483q197 0 221 4q20 3 20 21q0 4 -4 20l-192 582q-6 18 -13 18q-3 0 -12 -18l-201 -582q-8 -21 -8 -30q0 -10 16 -13q12 -2 173 -2z" />
    <glyph glyph-name="Atilde" unicode="&#xc3;" horiz-adv-x="1546" 
d="M455 1458q-17 0 -17 23q0 127 43.5 204.5t128.5 77.5q58 0 189 -49q121 -47 157 -47q56 0 74 82q3 15 13 21t19 0t9 -21q0 -104 -41 -188q-41 -80 -119 -80q-61 0 -174 43q-112 47 -159 47q-40 0 -64 -20.5t-37 -69.5q-3 -23 -22 -23zM770 -12q-20 0 -20 12q0 2 0.5 4
t1 3.5t1.5 2.5t3 2.5t3.5 2t5 2t5.5 2t6.5 2l7.5 2.5q101 27 101 90q0 50 -72 286q-9 30 -49 33q-78 4 -248 4q-146 0 -164 -2q-28 0 -37 -20q-41 -123 -57 -191q-12 -55 -12 -84q0 -44 29.5 -70t103.5 -46q31 -9 31 -21q0 -14 -19 -14q-3 0 -86 6q-79 6 -123 6
q-34 0 -92 -6l-59 -6q-21 0 -21 14q0 15 19 18q65 9 106 62t90 190q300 845 310 879q12 23 7.5 32t-50.5 25q-51 22 -54 31q0 13 27 16q106 5 244 25q124 18 196 33q21 4 40 8.5t27 6t9 1.5q14 0 14 -16q0 -3 -10 -22t-10 -29q0 -12 12 -52q44 -147 150 -442
q88 -243 204 -537q38 -95 67.5 -138t68.5 -62q53 -21 53 -33q0 -10 -19 -10q-1 0 -28.5 1t-70.5 3t-92.5 4t-104 3t-95.5 1q-27 0 -61 -0.5t-66.5 -1.5t-65.5 -2.5t-60.5 -3t-49 -2.5t-34.5 -2h-13zM535 483q197 0 221 4q20 3 20 21q0 4 -4 20l-192 582q-6 18 -13 18
q-3 0 -12 -18l-201 -582q-8 -21 -8 -30q0 -10 16 -13q12 -2 173 -2z" />
    <glyph glyph-name="Adieresis" unicode="&#xc4;" horiz-adv-x="1546" 
d="M535 1454q-64 0 -105 37t-41 98q0 58 40.5 94.5t105.5 36.5q66 0 106.5 -35.5t40.5 -95.5q0 -61 -40.5 -98t-106.5 -37zM815 1589q0 57 41 94t107 37q65 0 105 -36.5t40 -94.5q0 -61 -39.5 -98t-105.5 -37t-107 37t-41 98zM770 -12q-20 0 -20 12q0 2 0.5 4t1 3.5t1.5 2.5
t3 2.5t3.5 2t5 2t5.5 2t6.5 2l7.5 2.5q101 27 101 90q0 50 -72 286q-9 30 -49 33q-78 4 -248 4q-146 0 -164 -2q-28 0 -37 -20q-41 -123 -57 -191q-12 -55 -12 -84q0 -44 29.5 -70t103.5 -46q31 -9 31 -21q0 -14 -19 -14q-3 0 -86 6q-79 6 -123 6q-34 0 -92 -6l-59 -6
q-21 0 -21 14q0 15 19 18q65 9 106 62t90 190q300 845 310 879q12 23 7.5 32t-50.5 25q-51 22 -54 31q0 13 27 16q106 5 244 25q124 18 196 33q21 4 40 8.5t27 6t9 1.5q14 0 14 -16q0 -3 -10 -22t-10 -29q0 -12 12 -52q44 -147 150 -442q88 -243 204 -537q38 -95 67.5 -138
t68.5 -62q53 -21 53 -33q0 -10 -19 -10q-1 0 -28.5 1t-70.5 3t-92.5 4t-104 3t-95.5 1q-27 0 -61 -0.5t-66.5 -1.5t-65.5 -2.5t-60.5 -3t-49 -2.5t-34.5 -2h-13zM535 483q197 0 221 4q20 3 20 21q0 4 -4 20l-192 582q-6 18 -13 18q-3 0 -12 -18l-201 -582q-8 -21 -8 -30
q0 -10 16 -13q12 -2 173 -2z" />
    <glyph glyph-name="Aring" unicode="&#xc5;" horiz-adv-x="1546" 
d="M748 1468q-88 0 -146.5 42t-58.5 108t57 107.5t148 41.5q92 0 148 -41.5t56 -107.5t-56 -108t-148 -42zM748 1495q81 0 81 123t-81 123q-80 0 -80 -123t80 -123zM770 -12q-20 0 -20 12q0 2 0.5 4t1 3.5t1.5 2.5t3 2.5t3.5 2t5 2t5.5 2t6.5 2l7.5 2.5q101 27 101 90
q0 50 -72 286q-9 30 -49 33q-78 4 -248 4q-146 0 -164 -2q-28 0 -37 -20q-41 -123 -57 -191q-12 -55 -12 -84q0 -44 29.5 -70t103.5 -46q31 -9 31 -21q0 -14 -19 -14q-3 0 -86 6q-79 6 -123 6q-34 0 -92 -6l-59 -6q-21 0 -21 14q0 15 19 18q65 9 106 62t90 190
q300 845 310 879q12 23 7.5 32t-50.5 25q-51 22 -54 31q0 13 27 16q106 5 244 25q124 18 196 33q21 4 40 8.5t27 6t9 1.5q14 0 14 -16q0 -3 -10 -22t-10 -29q0 -12 12 -52q44 -147 150 -442q88 -243 204 -537q38 -95 67.5 -138t68.5 -62q53 -21 53 -33q0 -10 -19 -10
q-1 0 -28.5 1t-70.5 3t-92.5 4t-104 3t-95.5 1q-27 0 -61 -0.5t-66.5 -1.5t-65.5 -2.5t-60.5 -3t-49 -2.5t-34.5 -2h-13zM535 483q197 0 221 4q20 3 20 21q0 4 -4 20l-192 582q-6 18 -13 18q-3 0 -12 -18l-201 -582q-8 -21 -8 -30q0 -10 16 -13q12 -2 173 -2z" />
    <glyph glyph-name="AE" unicode="&#xc6;" horiz-adv-x="1966" 
d="M1808 104q0 -33 9.5 -54t21.5 -27.5t21.5 -12.5t9.5 -12q0 -12 -15 -12q-5 0 -43 0.5t-118 1.5t-168 2q-203 2 -467 2q-93 0 -193 -2q-42 -1 -81 -2t-57.5 -1.5t-22.5 -0.5q-19 0 -19 14q0 5 1 8t5 5t7 3t12 3t14 4q69 19 94 48t25 89q0 29 -13 125l-12 121q-3 29 -43 32
q-148 4 -198 4q-156 0 -172 -2q-39 -3 -48 -26q-114 -249 -114 -291q0 -76 123 -103q24 -4 25 -18q-1 -13 -19 -14q-1 0 -84 6t-131 6q-19 0 -51 -3t-54 -6l-22 -3q-21 0 -21 14q0 15 21 18q70 9 110 52t115 204q383 791 412 861q12 27 12 55q0 37 -47 61q-35 15 -35 37
q0 17 20 17q1 0 49 -4.5t133.5 -8.5t176.5 -4q201 0 600 17q177 8 233 8q15 0 15 -12q0 -4 -15.5 -15.5t-30 -36.5t-12.5 -63q2 -54 16.5 -146t28 -159.5t13.5 -63.5q0 -16 -13 -17q-15 -1 -21 23q-1 1 -1 2q-87 265 -203 353q-118 92 -270 92q-100 0 -134 -22t-34 -85
q0 -33 68 -420q6 -36 61 -36q112 0 158 43q49 46 88 161q7 17 18 17q10 0 10 -15l-2 -38q-2 -38 -2.5 -78t2.5 -111q1 -36 3.5 -71.5t5 -61t5 -46t4 -32t1.5 -12.5q0 -14 -10 -14q-11 0 -21 16q-52 118 -100 160q-46 43 -160 43q-25 0 -34 -9.5t-5 -33.5q74 -382 119 -521
q17 -47 51.5 -66.5t103.5 -19.5q75 0 124 46.5t89 175.5t70 362q3 35 23 35q14 0 14 -16l-6 -86q-9 -90 -15 -213q-7 -136 -4 -220zM780 494q23 3 23 22q0 15 -2 23q-45 292 -96 557q-3 12 -9 12q-8 0 -14 -14l-59 -136l-123 -268q-60 -129 -86 -176q-6 -9 -6 -14t22 -8
q118 -5 168 -5q110 0 182 7z" />
    <glyph glyph-name="Ccedilla" unicode="&#xc7;" horiz-adv-x="1441" 
d="M1356 549l-4 -53q-17 -157 -17 -514q0 -13 -13 -14q-16 -2 -21 20l-1 10q-6 65 -79 65q-36 0 -172 -47q-124 -44 -226 -47l-59 -82q141 -19 198.5 -58.5t57.5 -102.5q0 -64 -60.5 -100t-152.5 -36q-55 0 -98 12.5t-59.5 24t-16.5 17.5q0 12 12 12l6 -2q6 -2 15 -4.5
t19.5 -5t22.5 -4.5t21 -2q38 0 62 25.5t24 68.5q0 46 -19.5 69t-72.5 47q-12 3 -12 17q0 7 12 22l61 82q-309 9 -505 193q-195 183 -195 481q0 306 211 490q210 186 534 186q105 0 226 -47q119 -45 137 -45q49 0 55 59q6 31 23 33q14 -3 16 -19q0 -116 14 -245
q17 -228 40 -328l1 -2q0 -9 -7 -12.5t-15 0.5t-12 16l-29 96q-63 222 -173 343.5t-249 121.5q-104 0 -164 -52t-100 -194q-39 -139 -39 -401q2 -197 19 -322.5t54 -197t88 -98.5t130 -27q115 0 239 84q67 45 120 128.5t79 190.5l37 142q5 21 23 20q14 -1 14 -14z" />
    <glyph glyph-name="Egrave" unicode="&#xc8;" horiz-adv-x="1472" 
d="M524 1575q-71 24 -98 51t-27 70q0 41 25 63.5t68 22.5q50 0 139 -56q120 -75 356 -241q8 -8 8 -12q0 -11 -8 -11q-1 0 -5 1t-5 1q-209 35 -453 111zM1317 111q0 -32 9 -52.5t20.5 -27t20.5 -12.5t9 -13q0 -12 -14 -12q-6 0 -53 0.5t-148 1.5t-213 2q-258 2 -495 2
q-87 0 -171.5 -1.5t-134 -3t-51.5 -1.5q-14 0 -14 12q0 11 39 31q46 21 61 72q21 88 21 536q0 467 -21 543q-16 56 -61 76q-40 18 -39 33q1 8 14 8l64 -3q63 -4 158.5 -8t173.5 -4q120 0 489 6q369 9 381 9q14 0 14 -13q0 -4 -9 -10.5t-20.5 -14.5t-20.5 -29t-9 -50
q0 -55 10.5 -146.5t21.5 -159t11 -63.5q0 -16 -13 -17q-15 -1 -21 23q-1 1 -1 2q-88 269 -233 359q-66 42 -127 59t-136 17q-102 0 -137 -41q-48 -57 -51 -496q2 -29 20 -39t72 -10q152 0 213 82q27 37 64 119q6 16 18 16q10 0 10 -14q-10 -118 -10 -224q0 -35 1 -70
t2.5 -61t3 -46t2.5 -32l1 -12q0 -14 -10 -14q-12 0 -18 16q-38 84 -65 118.5t-77 57.5q-55 25 -135 25q-52 0 -69.5 -10t-22.5 -37q3 -475 55 -527q34 -34 133 -34q176 -6 310 131q137 136 186 450q3 33 23 33q12 0 12 -16l-2 -15q-2 -15 -5 -43t-7 -62.5t-9.5 -82.5
t-9.5 -94q-10 -137 -10 -219z" />
    <glyph glyph-name="Eacute" unicode="&#xc9;" horiz-adv-x="1472" 
d="M489 1462q-8 0 -8 11q0 4 8 12q228 160 357 241q89 56 139 56q43 0 67.5 -22.5t24.5 -63.5q0 -43 -27 -70t-98 -51q-245 -76 -452 -111q-1 0 -5.5 -1t-5.5 -1zM1317 111q0 -32 9 -52.5t20.5 -27t20.5 -12.5t9 -13q0 -12 -14 -12q-6 0 -53 0.5t-148 1.5t-213 2
q-258 2 -495 2q-87 0 -171.5 -1.5t-134 -3t-51.5 -1.5q-14 0 -14 12q0 11 39 31q46 21 61 72q21 88 21 536q0 467 -21 543q-16 56 -61 76q-40 18 -39 33q1 8 14 8l64 -3q63 -4 158.5 -8t173.5 -4q120 0 489 6q369 9 381 9q14 0 14 -13q0 -4 -9 -10.5t-20.5 -14.5t-20.5 -29
t-9 -50q0 -55 10.5 -146.5t21.5 -159t11 -63.5q0 -16 -13 -17q-15 -1 -21 23q-1 1 -1 2q-88 269 -233 359q-66 42 -127 59t-136 17q-102 0 -137 -41q-48 -57 -51 -496q2 -29 20 -39t72 -10q152 0 213 82q27 37 64 119q6 16 18 16q10 0 10 -14q-10 -118 -10 -224q0 -35 1 -70
t2.5 -61t3 -46t2.5 -32l1 -12q0 -14 -10 -14q-12 0 -18 16q-38 84 -65 118.5t-77 57.5q-55 25 -135 25q-52 0 -69.5 -10t-22.5 -37q3 -475 55 -527q34 -34 133 -34q176 -6 310 131q137 136 186 450q3 33 23 33q12 0 12 -16l-2 -15q-2 -15 -5 -43t-7 -62.5t-9.5 -82.5
t-9.5 -94q-10 -137 -10 -219z" />
    <glyph glyph-name="Ecircumflex" unicode="&#xca;" horiz-adv-x="1472" 
d="M449 1425q-15 0 -15 15q0 32 193 231q49 52 65.5 62t67.5 14q42 0 82 -31l32 -30l17 -17q194 -197 194 -229q0 -15 -14 -15q-11 0 -309 129h-4q-302 -129 -309 -129zM1317 111q0 -32 9 -52.5t20.5 -27t20.5 -12.5t9 -13q0 -12 -14 -12q-6 0 -53 0.5t-148 1.5t-213 2
q-258 2 -495 2q-87 0 -171.5 -1.5t-134 -3t-51.5 -1.5q-14 0 -14 12q0 11 39 31q46 21 61 72q21 88 21 536q0 467 -21 543q-16 56 -61 76q-40 18 -39 33q1 8 14 8l64 -3q63 -4 158.5 -8t173.5 -4q120 0 489 6q369 9 381 9q14 0 14 -13q0 -4 -9 -10.5t-20.5 -14.5t-20.5 -29
t-9 -50q0 -55 10.5 -146.5t21.5 -159t11 -63.5q0 -16 -13 -17q-15 -1 -21 23q-1 1 -1 2q-88 269 -233 359q-66 42 -127 59t-136 17q-102 0 -137 -41q-48 -57 -51 -496q2 -29 20 -39t72 -10q152 0 213 82q27 37 64 119q6 16 18 16q10 0 10 -14q-10 -118 -10 -224q0 -35 1 -70
t2.5 -61t3 -46t2.5 -32l1 -12q0 -14 -10 -14q-12 0 -18 16q-38 84 -65 118.5t-77 57.5q-55 25 -135 25q-52 0 -69.5 -10t-22.5 -37q3 -475 55 -527q34 -34 133 -34q176 -6 310 131q137 136 186 450q3 33 23 33q12 0 12 -16l-2 -15q-2 -15 -5 -43t-7 -62.5t-9.5 -82.5
t-9.5 -94q-10 -137 -10 -219z" />
    <glyph glyph-name="Edieresis" unicode="&#xcb;" horiz-adv-x="1472" 
d="M547 1452q-64 0 -105 37t-41 98q0 58 40.5 94.5t105.5 36.5q66 0 106.5 -35.5t40.5 -95.5q0 -61 -40.5 -98t-106.5 -37zM827 1587q0 57 41 94t107 37q65 0 105 -36.5t40 -94.5q0 -61 -39.5 -98t-105.5 -37t-107 37t-41 98zM1317 111q0 -32 9 -52.5t20.5 -27t20.5 -12.5
t9 -13q0 -12 -14 -12q-6 0 -53 0.5t-148 1.5t-213 2q-258 2 -495 2q-87 0 -171.5 -1.5t-134 -3t-51.5 -1.5q-14 0 -14 12q0 11 39 31q46 21 61 72q21 88 21 536q0 467 -21 543q-16 56 -61 76q-40 18 -39 33q1 8 14 8l64 -3q63 -4 158.5 -8t173.5 -4q120 0 489 6q369 9 381 9
q14 0 14 -13q0 -4 -9 -10.5t-20.5 -14.5t-20.5 -29t-9 -50q0 -55 10.5 -146.5t21.5 -159t11 -63.5q0 -16 -13 -17q-15 -1 -21 23q-1 1 -1 2q-88 269 -233 359q-66 42 -127 59t-136 17q-102 0 -137 -41q-48 -57 -51 -496q2 -29 20 -39t72 -10q152 0 213 82q27 37 64 119
q6 16 18 16q10 0 10 -14q-10 -118 -10 -224q0 -35 1 -70t2.5 -61t3 -46t2.5 -32l1 -12q0 -14 -10 -14q-12 0 -18 16q-38 84 -65 118.5t-77 57.5q-55 25 -135 25q-52 0 -69.5 -10t-22.5 -37q3 -475 55 -527q34 -34 133 -34q176 -6 310 131q137 136 186 450q3 33 23 33
q12 0 12 -16l-2 -15q-2 -15 -5 -43t-7 -62.5t-9.5 -82.5t-9.5 -94q-10 -137 -10 -219z" />
    <glyph glyph-name="Igrave" unicode="&#xcc;" horiz-adv-x="911" 
d="M682 1462q-1 0 -5 1t-5 1q-209 35 -453 111q-71 24 -98 51t-27 70q0 41 24.5 63.5t67.5 22.5q51 0 140 -56q120 -75 356 -241q8 -8 8 -12q0 -11 -8 -11zM131 -12q-14 0 -14 10q1 14 39 33q47 21 61 71q21 89 21 543q0 467 -21 543q-16 56 -61 76q-40 18 -39 33q1 8 14 8
q1 0 24 -1.5t59.5 -3.5t78 -4.5t86.5 -4t78 -1.5q32 0 76.5 1.5t85.5 4t77.5 4.5t59.5 3.5t24 1.5q15 0 14 -10q-1 -14 -38 -31q-58 -27 -70 -119q-10 -102 -10 -500q0 -468 20 -541q12 -51 60 -73q46 -23 37 -38q-3 -5 -13 -5q-1 0 -24 1.5t-59.5 3.5t-77.5 4t-85.5 3.5
t-76.5 1.5q-33 0 -78 -1.5t-86.5 -3.5t-78 -4t-59.5 -3.5t-24 -1.5z" />
    <glyph glyph-name="Iacute" unicode="&#xcd;" horiz-adv-x="911" 
d="M186 1462q-8 0 -8 11q0 4 8 12q228 160 357 241q89 56 139 56q43 0 67.5 -22.5t24.5 -63.5q0 -43 -27 -70t-98 -51q-245 -76 -452 -111q-1 0 -5.5 -1t-5.5 -1zM131 -12q-14 0 -14 10q1 14 39 33q47 21 61 71q21 89 21 543q0 467 -21 543q-16 56 -61 76q-40 18 -39 33
q1 8 14 8q1 0 24 -1.5t59.5 -3.5t78 -4.5t86.5 -4t78 -1.5q32 0 76.5 1.5t85.5 4t77.5 4.5t59.5 3.5t24 1.5q15 0 14 -10q-1 -14 -38 -31q-58 -27 -70 -119q-10 -102 -10 -500q0 -468 20 -541q12 -51 60 -73q46 -23 37 -38q-3 -5 -13 -5q-1 0 -24 1.5t-59.5 3.5t-77.5 4
t-85.5 3.5t-76.5 1.5q-33 0 -78 -1.5t-86.5 -3.5t-78 -4t-59.5 -3.5t-24 -1.5z" />
    <glyph glyph-name="Icircumflex" unicode="&#xce;" horiz-adv-x="911" 
d="M145 1425q-14 0 -14 15q0 32 193 231q49 52 65.5 62t67.5 14q42 0 82 -31l32 -30l17 -17q194 -197 194 -229q0 -15 -14 -15q-10 0 -309 129h-4q-301 -129 -310 -129zM131 -12q-14 0 -14 10q1 14 39 33q47 21 61 71q21 89 21 543q0 467 -21 543q-16 56 -61 76
q-40 18 -39 33q1 8 14 8q1 0 24 -1.5t59.5 -3.5t78 -4.5t86.5 -4t78 -1.5q32 0 76.5 1.5t85.5 4t77.5 4.5t59.5 3.5t24 1.5q15 0 14 -10q-1 -14 -38 -31q-58 -27 -70 -119q-10 -102 -10 -500q0 -468 20 -541q12 -51 60 -73q46 -23 37 -38q-3 -5 -13 -5q-1 0 -24 1.5
t-59.5 3.5t-77.5 4t-85.5 3.5t-76.5 1.5q-33 0 -78 -1.5t-86.5 -3.5t-78 -4t-59.5 -3.5t-24 -1.5z" />
    <glyph glyph-name="Idieresis" unicode="&#xcf;" horiz-adv-x="911" 
d="M244 1452q-64 0 -105 37t-41 98q0 58 40.5 94.5t105.5 36.5q66 0 106.5 -35.5t40.5 -95.5q0 -61 -40.5 -98t-106.5 -37zM524 1587q0 57 41 94t107 37q65 0 105 -36.5t40 -94.5q0 -61 -39.5 -98t-105.5 -37t-107 37t-41 98zM131 -12q-14 0 -14 10q1 14 39 33q47 21 61 71
q21 89 21 543q0 467 -21 543q-16 56 -61 76q-40 18 -39 33q1 8 14 8q1 0 24 -1.5t59.5 -3.5t78 -4.5t86.5 -4t78 -1.5q32 0 76.5 1.5t85.5 4t77.5 4.5t59.5 3.5t24 1.5q15 0 14 -10q-1 -14 -38 -31q-58 -27 -70 -119q-10 -102 -10 -500q0 -468 20 -541q12 -51 60 -73
q46 -23 37 -38q-3 -5 -13 -5q-1 0 -24 1.5t-59.5 3.5t-77.5 4t-85.5 3.5t-76.5 1.5q-33 0 -78 -1.5t-86.5 -3.5t-78 -4t-59.5 -3.5t-24 -1.5z" />
    <glyph glyph-name="Eth" unicode="&#xd0;" horiz-adv-x="1689" 
d="M803 1309q361 0 581 -181q222 -183 222 -485t-222 -485q-220 -181 -581 -181l-27 2q-26 2 -68 4.5t-89.5 5.5t-98.5 5t-88 2q-32 0 -77 -1.5t-86 -3.5t-77 -4t-59 -3.5t-24 -1.5q-15 0 -15 12q0 8 7 13.5t30 17.5q30 9 46.5 35.5t23.5 78.5q10 68 10 248q2 51 2 215
q-16 0 -53.5 -1t-40.5 -1q-37 0 -37 47q0 22 12.5 37.5t34.5 15.5q2 0 35 -1t49 -1q0 232 -2 291q-3 94 -12 158q-7 63 -20 82.5t-48 34.5q-39 18 -36 33q1 8 14 8q1 0 24 -1.5t59 -3.5t77 -4.5t86 -4t77 -1.5q37 0 88 2t98.5 5t89.5 5.5t68 4.5zM823 8q162 0 236 142
q76 140 76 493q0 356 -76 496q-74 141 -236 141q-116 0 -151 -92q-21 -64 -21 -494q108 6 172 6q43 0 43 -43q0 -24 -12.5 -41t-32.5 -16q-140 7 -170 8q0 -444 21 -508q30 -92 151 -92z" />
    <glyph glyph-name="Ntilde" unicode="&#xd1;" horiz-adv-x="1517" 
d="M479 1456q-16 0 -16 23q0 127 43.5 204.5t128.5 77.5q57 0 188 -49q121 -47 158 -47q56 0 74 82q3 15 13 21t19 0t9 -21q0 -104 -41 -188q-41 -80 -119 -80q-61 0 -174 43q-112 47 -160 47q-40 0 -63.5 -20t-36.5 -70q-3 -23 -23 -23zM1292 -53q-16 0 -43 24l-925 805
q-38 35 -58 35q-14 0 -14 -25v-409q0 -167 41 -238q42 -68 160 -112q39 -14 37 -29q-1 -10 -19 -10q-15 0 -109 6t-122 6t-113 -6q-107 -8 -116 -3q-5 2 -5 11q0 7 31 16q61 14 98 43q37 32 58 121q24 92 24 258v340q0 206 -12 289q-12 86 -49 125q-24 25 -59.5 46t-58 32.5
t-22.5 17.5q0 13 13 13l57 -7q59 -6 84 -6q32 0 85 6.5t56 6.5q27 0 78 -39q125 -96 504 -398q306 -242 367 -299q6 -6 10 -6q6 0 6 8v344q0 159 -46.5 239.5t-152.5 111.5q-39 9 -39 26q0 13 17 13q4 0 16.5 -1t41 -2.5t52.5 -3.5q95 -6 123 -6q42 0 119 6q22 2 42 3.5
t28.5 2.5t9.5 1q16 0 16 -13q0 -11 -33 -20q-86 -26 -124 -103q-35 -78 -35 -254v-936q0 -30 -19 -30z" />
    <glyph glyph-name="Ograve" unicode="&#xd2;" horiz-adv-x="1626" 
d="M578 1575q-71 24 -98 51t-27 70q0 41 24.5 63.5t67.5 22.5q50 0 139 -56q120 -75 356 -241q9 -9 9 -12q0 -11 -9 -11q-1 0 -5 1t-5 1q-207 35 -452 111zM1542 649q0 -304 -207 -493q-205 -187 -522 -187t-522 187q-207 189 -207 493q0 307 205 494q204 186 524 186
q318 0 522 -186q207 -189 207 -494zM1073 649q0 355 -63 502q-64 149 -197 149t-197 -149q-63 -147 -63 -502q0 -342 63 -497.5t197 -155.5t197 155.5t63 497.5z" />
    <glyph glyph-name="Oacute" unicode="&#xd3;" horiz-adv-x="1626" 
d="M543 1462q-8 0 -8 11q0 4 8 12q236 166 356 241q89 56 139 56q43 0 67.5 -22.5t24.5 -63.5q0 -44 -26.5 -70.5t-97.5 -50.5q-244 -76 -453 -111q-1 0 -5 -1t-5 -1zM1542 649q0 -304 -207 -493q-205 -187 -522 -187t-522 187q-207 189 -207 493q0 307 205 494
q204 186 524 186q318 0 522 -186q207 -189 207 -494zM1073 649q0 355 -63 502q-64 149 -197 149t-197 -149q-63 -147 -63 -502q0 -342 63 -497.5t197 -155.5t197 155.5t63 497.5z" />
    <glyph glyph-name="Ocircumflex" unicode="&#xd4;" horiz-adv-x="1626" 
d="M502 1425q-15 0 -15 15q0 32 193 231q49 52 65.5 62t67.5 14q42 0 82 -31l33 -30l16 -17q195 -198 195 -229q0 -15 -15 -15q-10 0 -309 129h-4q-302 -129 -309 -129zM1542 649q0 -304 -207 -493q-205 -187 -522 -187t-522 187q-207 189 -207 493q0 307 205 494
q204 186 524 186q318 0 522 -186q207 -189 207 -494zM1073 649q0 355 -63 502q-64 149 -197 149t-197 -149q-63 -147 -63 -502q0 -342 63 -497.5t197 -155.5t197 155.5t63 497.5z" />
    <glyph glyph-name="Otilde" unicode="&#xd5;" horiz-adv-x="1626" 
d="M520 1456q-16 0 -16 23q0 127 43.5 204.5t128.5 77.5q57 0 188 -49q121 -47 158 -47q56 0 74 82q3 15 13 21t19 0t9 -21q0 -104 -41 -188q-41 -80 -119 -80q-61 0 -174 43q-112 47 -160 47q-40 0 -63.5 -20t-36.5 -70q-3 -23 -23 -23zM1542 649q0 -304 -207 -493
q-205 -187 -522 -187t-522 187q-207 189 -207 493q0 307 205 494q204 186 524 186q318 0 522 -186q207 -189 207 -494zM1073 649q0 355 -63 502q-64 149 -197 149t-197 -149q-63 -147 -63 -502q0 -342 63 -497.5t197 -155.5t197 155.5t63 497.5z" />
    <glyph glyph-name="Odieresis" unicode="&#xd6;" horiz-adv-x="1626" 
d="M600 1452q-64 0 -104.5 37t-40.5 98q0 58 40 94.5t105 36.5q66 0 107 -35.5t41 -95.5q0 -61 -41 -98t-107 -37zM881 1587q0 57 40.5 94t106.5 37q65 0 105.5 -36.5t40.5 -94.5q0 -61 -40 -98t-106 -37t-106.5 37t-40.5 98zM1542 649q0 -304 -207 -493
q-205 -187 -522 -187t-522 187q-207 189 -207 493q0 307 205 494q204 186 524 186q318 0 522 -186q207 -189 207 -494zM1073 649q0 355 -63 502q-64 149 -197 149t-197 -149q-63 -147 -63 -502q0 -342 63 -497.5t197 -155.5t197 155.5t63 497.5z" />
    <glyph glyph-name="multiply" unicode="&#xd7;" horiz-adv-x="1146" 
d="M606 551l250 -250q13 -13 -6 -29q-16 -19 -29 -6l-250 250l-249 -250q-13 -13 -29 6q-19 16 -6 29l250 250l-250 250q-13 13 6 28q16 20 29 7l249 -250l250 250q13 13 29 -7q19 -15 6 -28z" />
    <glyph glyph-name="Oslash" unicode="&#xd8;" horiz-adv-x="1626" 
d="M1141 1266q188 -79 294.5 -240.5t106.5 -376.5q0 -304 -207 -493q-205 -187 -522 -187q-157 0 -276 45l-88 -182q-9 -20 -35 -20q-21 0 -21 14q0 6 6 18l90 187q-188 79 -296.5 241.5t-108.5 376.5q0 307 205 494q204 186 524 186q159 0 281 -45l82 172q10 23 36 23
q21 0 21 -13q0 -7 -6 -22zM553 649q0 -260 37 -411l428 890q-58 172 -205 172q-133 0 -197 -149q-63 -147 -63 -502zM813 -4q134 0 197 155.5t63 497.5q0 254 -35 406l-428 -887q61 -172 203 -172z" />
    <glyph glyph-name="Ugrave" unicode="&#xd9;" horiz-adv-x="1486" 
d="M1038 1473q-1 0 -5 1t-5 1q-216 36 -453 110q-71 24 -97.5 50.5t-26.5 70.5q0 41 24.5 63.5t67.5 22.5q51 0 139 -55q106 -67 356 -242q9 -9 9 -12q0 -10 -9 -10zM774 -31q-310 0 -464 149.5t-154 483.5v430q0 118 -12.5 161.5t-53.5 68.5q-8 5 -17 10t-13 7t-6.5 5.5
t-2.5 7.5q0 13 15 13q1 0 22.5 -1.5t56 -3.5t73.5 -4.5t82 -4t75 -1.5q33 0 78 1.5t86.5 4t77.5 4.5t59 3.5t24 1.5q15 0 15 -13q0 -2 -1 -4t-3 -4t-4.5 -4t-7.5 -5.5t-9.5 -6t-12.5 -8t-15 -9.5q-29 -19 -40.5 -40.5t-18 -76.5t-9.5 -182l-2 -473q0 -190 81.5 -287.5
t237.5 -97.5q129 0 232 103q57 57 89 162t32 243v426q0 119 -35 170t-125 72q-32 11 -31 26q1 9 14 9l74 -7q65 -8 123 -8q52 0 119 6q70 9 74 9q12 0 12 -13q4 -4 -6 -9t-28 -10t-25 -9q-68 -27 -95 -88q-24 -61 -24 -222v-364q0 -308 -140 -464.5t-397 -156.5z" />
    <glyph glyph-name="Uacute" unicode="&#xda;" horiz-adv-x="1486" 
d="M541 1473q-9 0 -9 10q0 3 9 12q250 175 356 242q88 55 139 55q43 0 67.5 -22.5t24.5 -63.5q0 -44 -26.5 -70.5t-97.5 -50.5q-237 -74 -453 -110q-1 0 -5 -1t-5 -1zM774 -31q-310 0 -464 149.5t-154 483.5v430q0 118 -12.5 161.5t-53.5 68.5q-8 5 -17 10t-13 7t-6.5 5.5
t-2.5 7.5q0 13 15 13q1 0 22.5 -1.5t56 -3.5t73.5 -4.5t82 -4t75 -1.5q33 0 78 1.5t86.5 4t77.5 4.5t59 3.5t24 1.5q15 0 15 -13q0 -2 -1 -4t-3 -4t-4.5 -4t-7.5 -5.5t-9.5 -6t-12.5 -8t-15 -9.5q-29 -19 -40.5 -40.5t-18 -76.5t-9.5 -182l-2 -473q0 -190 81.5 -287.5
t237.5 -97.5q129 0 232 103q57 57 89 162t32 243v426q0 119 -35 170t-125 72q-32 11 -31 26q1 9 14 9l74 -7q65 -8 123 -8q52 0 119 6q70 9 74 9q12 0 12 -13q4 -4 -6 -9t-28 -10t-25 -9q-68 -27 -95 -88q-24 -61 -24 -222v-364q0 -308 -140 -464.5t-397 -156.5z" />
    <glyph glyph-name="Ucircumflex" unicode="&#xdb;" horiz-adv-x="1486" 
d="M500 1436q-15 0 -15 14q0 32 193 231q49 52 65.5 62t67.5 14q42 0 82 -31l33 -30l16 -17q195 -198 195 -229q0 -14 -15 -14q-10 0 -309 129h-4q-301 -129 -309 -129zM774 -31q-310 0 -464 149.5t-154 483.5v430q0 118 -12.5 161.5t-53.5 68.5q-8 5 -17 10t-13 7t-6.5 5.5
t-2.5 7.5q0 13 15 13q1 0 22.5 -1.5t56 -3.5t73.5 -4.5t82 -4t75 -1.5q33 0 78 1.5t86.5 4t77.5 4.5t59 3.5t24 1.5q15 0 15 -13q0 -2 -1 -4t-3 -4t-4.5 -4t-7.5 -5.5t-9.5 -6t-12.5 -8t-15 -9.5q-29 -19 -40.5 -40.5t-18 -76.5t-9.5 -182l-2 -473q0 -190 81.5 -287.5
t237.5 -97.5q129 0 232 103q57 57 89 162t32 243v426q0 119 -35 170t-125 72q-32 11 -31 26q1 9 14 9l74 -7q65 -8 123 -8q52 0 119 6q70 9 74 9q12 0 12 -13q4 -4 -6 -9t-28 -10t-25 -9q-68 -27 -95 -88q-24 -61 -24 -222v-364q0 -308 -140 -464.5t-397 -156.5z" />
    <glyph glyph-name="Udieresis" unicode="&#xdc;" horiz-adv-x="1486" 
d="M598 1462q-64 0 -104.5 37t-40.5 98q0 58 40 95t105 37q66 0 106.5 -36t40.5 -96q0 -61 -40.5 -98t-106.5 -37zM879 1597q0 58 41 95t106 37t105 -37t40 -95q0 -61 -39.5 -98t-105.5 -37t-106.5 37t-40.5 98zM774 -31q-310 0 -464 149.5t-154 483.5v430
q0 118 -12.5 161.5t-53.5 68.5q-8 5 -17 10t-13 7t-6.5 5.5t-2.5 7.5q0 13 15 13q1 0 22.5 -1.5t56 -3.5t73.5 -4.5t82 -4t75 -1.5q33 0 78 1.5t86.5 4t77.5 4.5t59 3.5t24 1.5q15 0 15 -13q0 -2 -1 -4t-3 -4t-4.5 -4t-7.5 -5.5t-9.5 -6t-12.5 -8t-15 -9.5
q-29 -19 -40.5 -40.5t-18 -76.5t-9.5 -182l-2 -473q0 -190 81.5 -287.5t237.5 -97.5q129 0 232 103q57 57 89 162t32 243v426q0 119 -35 170t-125 72q-32 11 -31 26q1 9 14 9l74 -7q65 -8 123 -8q52 0 119 6q70 9 74 9q12 0 12 -13q4 -4 -6 -9t-28 -10t-25 -9
q-68 -27 -95 -88q-24 -61 -24 -222v-364q0 -308 -140 -464.5t-397 -156.5z" />
    <glyph glyph-name="Yacute" unicode="&#xdd;" horiz-adv-x="1433" 
d="M469 1462q-8 0 -8 11q0 4 8 12q236 166 356 241q89 56 140 56q43 0 67.5 -22.5t24.5 -63.5q0 -43 -27 -70t-98 -51q-244 -76 -453 -111q-1 0 -5 -1t-5 -1zM387 -14q-14 0 -14 12q0 11 39 31q57 21 69 90q13 76 13 352q0 62 -23 123q-19 53 -86 156l-199 303
q-66 99 -110 159q-28 38 -56 52q-36 14 -36 28q0 11 18 11l13 -1q13 0 34.5 -1.5t49 -3t60 -2.5t64.5 -2.5t64.5 -2t58.5 -0.5q29 0 70.5 1.5t80.5 3t73 3.5t56 3.5t23 1.5q15 0 15 -13q0 -12 -39 -26q-43 -15 -43 -45q0 -40 69 -172q80 -150 246 -435l145 271
q178 331 -34 389q-13 4 -18.5 11.5t0 13.5t20.5 6q1 0 19.5 -1.5t47.5 -3.5t61 -3.5t66 -3t56 -1.5q30 0 88 6l59 7q18 0 18 -13q0 -14 -18 -20q-77 -24 -126 -73t-107 -155l-236 -432q-6 -9 -6 -28q0 -419 20 -486q12 -45 60 -67q39 -20 39 -31q0 -12 -15 -12q-1 0 -24 1.5
t-59.5 3.5t-77.5 4t-85.5 3.5t-76.5 1.5q-33 0 -78 -1.5t-86.5 -3.5t-78 -4t-59.5 -3.5t-24 -1.5z" />
    <glyph glyph-name="Thorn" unicode="&#xde;" horiz-adv-x="1466" 
d="M96 -14q-14 0 -14 12q0 10 37 31q35 15 48.5 33t20.5 71q11 71 11 129q2 49 2 240v315q0 163 -2.5 231.5t-12.5 116.5q-7 48 -20.5 66t-46.5 33q-39 18 -37 33q1 8 14 8q1 0 24 -1.5t59.5 -3.5t77.5 -4.5t86 -4t77 -1.5q89 0 196 8q31 2 67 5t53.5 4.5t23.5 1.5
q14 0 14 -11q0 -7 -8.5 -12.5t-31.5 -14.5q-2 0 -3 -0.5l-3 -1.5t-3.5 -1.5t-3.5 -1.5q-46 -20 -62 -68t-16 -156q0 -12 10 -12q86 23 203 23q263 0 428 -109q162 -107 162 -282q0 -181 -162 -297q-160 -115 -422 -115q-31 0 -63.5 2.5t-57 5.5t-44.5 6t-31.5 5.5t-12.5 2.5
q-10 0 -10 -12q6 -126 21 -170t57 -61q47 -19 51 -27q2 -3 2 -6q0 -10 -14 -10q-1 0 -25.5 1.5t-63.5 3.5t-82.5 4t-90 3.5t-78.5 1.5t-77 -1.5t-86 -3.5t-77.5 -4t-59.5 -3.5t-24 -1.5zM719 291q135 0 197.5 91.5t62.5 279.5q0 178 -60 264t-188 86q-55 0 -72.5 -11.5
t-19.5 -48.5v-301q0 -276 2 -315q2 -25 18.5 -35t59.5 -10z" />
    <glyph glyph-name="germandbls" unicode="&#xdf;" horiz-adv-x="1304" 
d="M1092 569q153 -135 153 -303q0 -120 -102 -209q-101 -88 -242 -88q-66 0 -131 33q-65 35 -78 35q-24 0 -30 -41q-1 -12 -8.5 -16.5t-15 0t-7.5 16.5v7q0 7 0.5 17.5t1 22.5t0.5 25v22q0 50 -6 117q-1 21 -2 38.5t-1 25.5l-1 8q0 13 11 13q12 1 18 -18q1 -1 1 -2
q83 -274 248 -274q54 0 88.5 31.5t34.5 81.5q0 42 -18.5 71t-73.5 80l-201 191q-110 104 -110 217q0 94 90 204q31 40 59 68l59 66q52 64 52 135q0 62 -47.5 105.5t-120.5 43.5q-92 0 -141.5 -59.5t-49.5 -171.5v-922q0 -25 2 -56.5t4 -53.5t2 -23q0 -14 -14 -14l-38 2
q-38 2 -90.5 4t-88.5 2q-39 0 -99 -3.5t-104 -6.5l-45 -4q-14 0 -14 12q0 4 2.5 7.5t6.5 5.5t13 7.5t17 10.5q53 27 65 88q15 64 15 239v392q-46 -3 -97 -3q-17 0 -23.5 13.5t0 27t23.5 13.5h7q7 0 17 -0.5t22 -1t26 -0.5h25q1 148 45 257.5t118 166.5q137 106 316 106
q138 0 206 -49.5t68 -134.5q0 -82 -55 -164q-53 -83 -53 -113q0 -37 26 -63q5 -5 36 -31t52 -47z" />
    <glyph glyph-name="agrave" unicode="&#xe0;" horiz-adv-x="1177" 
d="M336 1092q-61 37 -83 60t-22 54q0 37 23 59.5t61 24.5q49 3 119 -61q71 -62 275 -281q8 -8 8 -12q0 -6 -10 -6q-9 0 -11 2q-220 82 -360 160zM1159 174q17 0 17 -16q0 -97 -55.5 -143t-192.5 -46q-126 0 -195.5 48t-89.5 153q-62 -201 -326 -201q-121 0 -188.5 49
t-67.5 144q0 144 177 207q140 50 395 71v170q0 101 -36 143t-114 42q-55 0 -88 -21t-33 -53q0 -21 21 -64q20 -39 20 -69q0 -50 -41.5 -82.5t-107.5 -32.5q-69 0 -109.5 36t-40.5 99q0 97 110 158t321 61q117 0 204 -18t157 -61.5t106 -122.5t36 -193v-291q0 -71 47 -71
q54 0 54 88q0 16 20 16zM498 68q56 0 95.5 68.5t39.5 172.5v99l-17 -5q-122 -24 -163 -65q-37 -34 -37 -125q0 -145 82 -145z" />
    <glyph glyph-name="aacute" unicode="&#xe1;" horiz-adv-x="1177" 
d="M324 930q-11 0 -11 6q0 3 9 12q208 224 274 281q70 64 119 61q38 -2 61 -24.5t23 -59.5q0 -31 -22 -54t-83 -60q-140 -78 -360 -160q-2 -2 -10 -2zM1159 174q17 0 17 -16q0 -97 -55.5 -143t-192.5 -46q-126 0 -195.5 48t-89.5 153q-62 -201 -326 -201q-121 0 -188.5 49
t-67.5 144q0 144 177 207q140 50 395 71v170q0 101 -36 143t-114 42q-55 0 -88 -21t-33 -53q0 -21 21 -64q20 -39 20 -69q0 -50 -41.5 -82.5t-107.5 -32.5q-69 0 -109.5 36t-40.5 99q0 97 110 158t321 61q117 0 204 -18t157 -61.5t106 -122.5t36 -193v-291q0 -71 47 -71
q54 0 54 88q0 16 20 16zM498 68q56 0 95.5 68.5t39.5 172.5v99l-17 -5q-122 -24 -163 -65q-37 -34 -37 -125q0 -145 82 -145z" />
    <glyph glyph-name="acircumflex" unicode="&#xe2;" horiz-adv-x="1177" 
d="M238 979q-15 0 -15 14q0 17 56 78l147 178q53 62 125 62q75 0 125 -62l174 -209q29 -36 29 -47q0 -14 -15 -14q-11 0 -90 43q-18 11 -49 28t-80.5 43.5t-89.5 49.5h-8q-57 -33 -116 -65t-92 -50t-50 -29q-39 -20 -51 -20zM1159 174q17 0 17 -16q0 -97 -55.5 -143
t-192.5 -46q-126 0 -195.5 48t-89.5 153q-62 -201 -326 -201q-121 0 -188.5 49t-67.5 144q0 144 177 207q140 50 395 71v170q0 101 -36 143t-114 42q-55 0 -88 -21t-33 -53q0 -21 21 -64q20 -39 20 -69q0 -50 -41.5 -82.5t-107.5 -32.5q-69 0 -109.5 36t-40.5 99
q0 97 110 158t321 61q117 0 204 -18t157 -61.5t106 -122.5t36 -193v-291q0 -71 47 -71q54 0 54 88q0 16 20 16zM498 68q56 0 95.5 68.5t39.5 172.5v99l-17 -5q-122 -24 -163 -65q-37 -34 -37 -125q0 -145 82 -145z" />
    <glyph glyph-name="atilde" unicode="&#xe3;" horiz-adv-x="1177" 
d="M223 987q-16 0 -16 23q0 127 43.5 204.5t128.5 77.5q57 0 188 -49q121 -47 158 -47q56 0 74 82q3 15 13 21t19 0t9 -21q0 -104 -41 -188q-41 -80 -119 -80q-61 0 -174 43q-112 47 -160 47q-40 0 -63.5 -20t-36.5 -70q-3 -23 -23 -23zM1159 174q17 0 17 -16
q0 -97 -55.5 -143t-192.5 -46q-126 0 -195.5 48t-89.5 153q-62 -201 -326 -201q-121 0 -188.5 49t-67.5 144q0 144 177 207q140 50 395 71v170q0 101 -36 143t-114 42q-55 0 -88 -21t-33 -53q0 -21 21 -64q20 -39 20 -69q0 -50 -41.5 -82.5t-107.5 -32.5q-69 0 -109.5 36
t-40.5 99q0 97 110 158t321 61q117 0 204 -18t157 -61.5t106 -122.5t36 -193v-291q0 -71 47 -71q54 0 54 88q0 16 20 16zM498 68q56 0 95.5 68.5t39.5 172.5v99l-17 -5q-122 -24 -163 -65q-37 -34 -37 -125q0 -145 82 -145z" />
    <glyph glyph-name="adieresis" unicode="&#xe4;" horiz-adv-x="1177" 
d="M332 989q-64 0 -105 37t-41 98q0 58 40.5 94.5t105.5 36.5q66 0 106.5 -35.5t40.5 -95.5q0 -61 -40.5 -98t-106.5 -37zM612 1124q0 57 41 94t107 37q65 0 105 -36.5t40 -94.5q0 -61 -39.5 -98t-105.5 -37t-107 37t-41 98zM1159 174q17 0 17 -16q0 -97 -55.5 -143
t-192.5 -46q-126 0 -195.5 48t-89.5 153q-62 -201 -326 -201q-121 0 -188.5 49t-67.5 144q0 144 177 207q140 50 395 71v170q0 101 -36 143t-114 42q-55 0 -88 -21t-33 -53q0 -21 21 -64q20 -39 20 -69q0 -50 -41.5 -82.5t-107.5 -32.5q-69 0 -109.5 36t-40.5 99
q0 97 110 158t321 61q117 0 204 -18t157 -61.5t106 -122.5t36 -193v-291q0 -71 47 -71q54 0 54 88q0 16 20 16zM498 68q56 0 95.5 68.5t39.5 172.5v99l-17 -5q-122 -24 -163 -65q-37 -34 -37 -125q0 -145 82 -145z" />
    <glyph glyph-name="aring" unicode="&#xe5;" horiz-adv-x="1177" 
d="M545 1010q-84 0 -138.5 42.5t-54.5 106.5q0 66 54 108t139 42q86 0 139 -42t53 -108t-53 -107.5t-139 -41.5zM625 1159q0 123 -80 123t-80 -123t80 -123t80 123zM1159 174q17 0 17 -16q0 -97 -55.5 -143t-192.5 -46q-126 0 -195.5 48t-89.5 153q-62 -201 -326 -201
q-121 0 -188.5 49t-67.5 144q0 144 177 207q140 50 395 71v170q0 101 -36 143t-114 42q-55 0 -88 -21t-33 -53q0 -21 21 -64q20 -39 20 -69q0 -50 -41.5 -82.5t-107.5 -32.5q-69 0 -109.5 36t-40.5 99q0 97 110 158t321 61q117 0 204 -18t157 -61.5t106 -122.5t36 -193v-291
q0 -71 47 -71q54 0 54 88q0 16 20 16zM498 68q56 0 95.5 68.5t39.5 172.5v99l-17 -5q-122 -24 -163 -65q-37 -34 -37 -125q0 -145 82 -145z" />
    <glyph glyph-name="ae" unicode="&#xe6;" horiz-adv-x="1523" 
d="M1458 250q15 0 15 -12q0 -4 -7 -29q-37 -108 -148.5 -174t-264.5 -66q-289 0 -418 193q-49 -193 -305 -193q-269 0 -269 207q0 80 58 135.5t157 79.5q133 29 285 49v168q0 105 -25.5 146t-91.5 41q-52 0 -81 -21t-29 -53q0 -11 10 -53t10 -60q0 -50 -36 -82t-93 -32
q-60 0 -94.5 30t-34.5 84q0 97 95 158t276 61q184 0 287 -75q121 75 293 75q180 0 301 -92q118 -87 118 -235q0 -88 -80 -88l-438 2v-31q0 -320 211 -320q97 0 171.5 43.5t109.5 122.5q9 21 18 21zM1049 799q-37 0 -58.5 -30t-32 -103.5t-10.5 -204.5v-2l137 2
q33 0 40.5 13.5t7.5 74.5q0 138 -20 194t-64 56zM489 68q38 0 73 37t48 96q-47 89 -47 202l-16 -4q-74 -18 -109 -65q-39 -51 -39 -131q0 -135 90 -135z" />
    <glyph glyph-name="ccedilla" unicode="&#xe7;" horiz-adv-x="1032" 
d="M975 260q12 0 12 -12v-4q-53 -263 -395 -275l-60 -82q141 -19 198.5 -58.5t57.5 -102.5q0 -64 -60.5 -100t-152.5 -36q-55 0 -98 12.5t-59.5 24t-16.5 17.5q0 12 13 12l6 -2q6 -2 15 -4.5t19.5 -5t22.5 -4.5t21 -2q38 0 62 25.5t24 68.5q0 46 -19.5 69t-72.5 47
q-13 3 -13 17q0 6 13 22l61 82q-218 3 -356 117q-136 115 -136 299q0 207 147 324.5t404 117.5q93 0 172 -26l86 -25q33 0 45 49q7 17 19 17q14 0 14 -19q0 -191 28 -339l1 -5q0 -17 -14 -17q-15 1 -21 21q-77 308 -254 308q-215 0 -215 -349q0 -379 234 -379q92 0 159 47.5
t92 131.5q6 18 17 18z" />
    <glyph glyph-name="egrave" unicode="&#xe8;" horiz-adv-x="1083" 
d="M362 1092q-60 37 -82 60t-22 54q0 37 23 59.5t61 24.5q49 3 119 -61q66 -57 274 -281q8 -8 8 -12q0 -6 -10 -6q-8 0 -10 2q-223 83 -361 160zM1012 250q14 0 14 -12q0 -8 -6 -29q-37 -107 -153 -173.5t-275 -66.5q-240 0 -385 121q-146 122 -146 313q0 194 144 308
q143 116 373 116q195 0 325 -92q129 -89 129 -235q0 -94 -80 -94l-506 2q5 -186 61.5 -268.5t184.5 -82.5q225 0 301 172q9 21 19 21zM580 799q-78 0 -105 -76q-26 -71 -29 -272l205 2q32 0 39.5 13.5t7.5 74.5q0 143 -27.5 200.5t-90.5 57.5z" />
    <glyph glyph-name="eacute" unicode="&#xe9;" horiz-adv-x="1083" 
d="M350 930q-10 0 -10 6q0 4 8 12q204 219 275 281q70 64 118 61q38 -2 61 -24.5t23 -59.5q0 -31 -22 -54t-82 -60q-138 -77 -361 -160q-2 -2 -10 -2zM1012 250q14 0 14 -12q0 -8 -6 -29q-37 -107 -153 -173.5t-275 -66.5q-240 0 -385 121q-146 122 -146 313q0 194 144 308
q143 116 373 116q195 0 325 -92q129 -89 129 -235q0 -94 -80 -94l-506 2q5 -186 61.5 -268.5t184.5 -82.5q225 0 301 172q9 21 19 21zM580 799q-78 0 -105 -76q-26 -71 -29 -272l205 2q32 0 39.5 13.5t7.5 74.5q0 143 -27.5 200.5t-90.5 57.5z" />
    <glyph glyph-name="ecircumflex" unicode="&#xea;" horiz-adv-x="1083" 
d="M264 979q-14 0 -14 14q0 18 55 78l148 178q53 62 125 62q74 0 124 -62l175 -209q28 -35 28 -47q0 -14 -14 -14q-11 0 -90 43q-18 11 -49 28t-80.5 43.5t-89.5 49.5h-9q-57 -33 -116 -65t-92 -50t-50 -29q-39 -20 -51 -20zM1012 250q14 0 14 -12q0 -8 -6 -29
q-37 -107 -153 -173.5t-275 -66.5q-240 0 -385 121q-146 122 -146 313q0 194 144 308q143 116 373 116q195 0 325 -92q129 -89 129 -235q0 -94 -80 -94l-506 2q5 -186 61.5 -268.5t184.5 -82.5q225 0 301 172q9 21 19 21zM580 799q-78 0 -105 -76q-26 -71 -29 -272l205 2
q32 0 39.5 13.5t7.5 74.5q0 143 -27.5 200.5t-90.5 57.5z" />
    <glyph glyph-name="edieresis" unicode="&#xeb;" horiz-adv-x="1083" 
d="M358 989q-64 0 -104.5 37t-40.5 98q0 58 40 94.5t105 36.5q66 0 107 -35.5t41 -95.5q0 -61 -41 -98t-107 -37zM639 1124q0 57 40.5 94t106.5 37q65 0 105.5 -36.5t40.5 -94.5q0 -61 -40 -98t-106 -37t-106.5 37t-40.5 98zM1012 250q14 0 14 -12q0 -8 -6 -29
q-37 -107 -153 -173.5t-275 -66.5q-240 0 -385 121q-146 122 -146 313q0 194 144 308q143 116 373 116q195 0 325 -92q129 -89 129 -235q0 -94 -80 -94l-506 2q5 -186 61.5 -268.5t184.5 -82.5q225 0 301 172q9 21 19 21zM580 799q-78 0 -105 -76q-26 -71 -29 -272l205 2
q32 0 39.5 13.5t7.5 74.5q0 143 -27.5 200.5t-90.5 57.5z" />
    <glyph glyph-name="igrave" unicode="&#xec;" horiz-adv-x="737" 
d="M502 930q-8 0 -10 2q-223 83 -361 160q-60 37 -82 60t-22 54q0 37 23 59.5t61 24.5q48 3 118 -61q71 -62 275 -281q8 -8 8 -12q0 -6 -10 -6zM76 -14q-15 0 -15 12q0 4 2.5 7.5t6.5 5.5t13 7.5t17 10.5q54 28 66 88q14 60 14 237v78q0 139 -17.5 205t-60.5 92
q-37 25 -41 33q0 12 27 12q148 4 263 18.5t165 30.5q47 15 51 15q17 0 17 -15q0 -4 -4.5 -15.5t-11 -28t-9.5 -29.5q-14 -55 -14 -297v-76q0 -182 20 -252q21 -69 88 -105q25 -12 25 -20q0 -14 -14 -14q-1 0 -23 1.5t-56 3.5t-72.5 4t-79 3.5t-68.5 1.5q-29 0 -69 -1.5
t-76.5 -3.5t-68.5 -4t-53 -3.5t-22 -1.5z" />
    <glyph glyph-name="iacute" unicode="&#xed;" horiz-adv-x="737" 
d="M121 930q-10 0 -10 6q0 4 8 12q208 224 274 281q70 64 119 61q38 -2 61 -24.5t23 -59.5q0 -31 -22 -54t-82 -60q-138 -77 -361 -160q-2 -2 -10 -2zM76 -14q-15 0 -15 12q0 4 2.5 7.5t6.5 5.5t13 7.5t17 10.5q54 28 66 88q14 60 14 237v78q0 139 -17.5 205t-60.5 92
q-37 25 -41 33q0 12 27 12q148 4 263 18.5t165 30.5q47 15 51 15q17 0 17 -15q0 -4 -4.5 -15.5t-11 -28t-9.5 -29.5q-14 -55 -14 -297v-76q0 -182 20 -252q21 -69 88 -105q25 -12 25 -20q0 -14 -14 -14q-1 0 -23 1.5t-56 3.5t-72.5 4t-79 3.5t-68.5 1.5q-29 0 -69 -1.5
t-76.5 -3.5t-68.5 -4t-53 -3.5t-22 -1.5z" />
    <glyph glyph-name="icircumflex" unicode="&#xee;" horiz-adv-x="737" 
d="M117 963q-19 0 -19 16q0 36 138 244q33 52 51.5 67t54.5 15q27 -4 47 -16.5t30.5 -26t29.5 -43.5q129 -205 129 -244q0 -12 -11 -12q-17 0 -223 153h-4q-200 -153 -223 -153zM76 -14q-15 0 -15 12q0 4 2.5 7.5t6.5 5.5t13 7.5t17 10.5q54 28 66 88q14 60 14 237v78
q0 139 -17.5 205t-60.5 92q-37 25 -41 33q0 12 27 12q148 4 263 18.5t165 30.5q47 15 51 15q17 0 17 -15q0 -4 -4.5 -15.5t-11 -28t-9.5 -29.5q-14 -55 -14 -297v-76q0 -182 20 -252q21 -69 88 -105q25 -12 25 -20q0 -14 -14 -14q-1 0 -23 1.5t-56 3.5t-72.5 4t-79 3.5
t-68.5 1.5q-29 0 -69 -1.5t-76.5 -3.5t-68.5 -4t-53 -3.5t-22 -1.5z" />
    <glyph glyph-name="idieresis" unicode="&#xef;" horiz-adv-x="737" 
d="M274 1124q0 -61 -40.5 -98t-106.5 -37q-64 0 -104.5 37t-40.5 98q0 58 40 94.5t105 36.5q66 0 106.5 -35.5t40.5 -95.5zM700 1124q0 -61 -39.5 -98t-105.5 -37t-106.5 37t-40.5 98q0 57 40.5 94t106.5 37q65 0 105 -36.5t40 -94.5zM76 -14q-15 0 -15 12q0 4 2.5 7.5
t6.5 5.5t13 7.5t17 10.5q54 28 66 88q14 60 14 237v78q0 139 -17.5 205t-60.5 92q-37 25 -41 33q0 12 27 12q148 4 263 18.5t165 30.5q47 15 51 15q17 0 17 -15q0 -4 -4.5 -15.5t-11 -28t-9.5 -29.5q-14 -55 -14 -297v-76q0 -182 20 -252q21 -69 88 -105q25 -12 25 -20
q0 -14 -14 -14q-1 0 -23 1.5t-56 3.5t-72.5 4t-79 3.5t-68.5 1.5q-29 0 -69 -1.5t-76.5 -3.5t-68.5 -4t-53 -3.5t-22 -1.5z" />
    <glyph glyph-name="eth" unicode="&#xf0;" horiz-adv-x="1163" 
d="M633 1098q212 -77 340 -226q129 -147 129 -340q0 -255 -148 -409q-149 -152 -372 -152q-226 0 -373 111q-148 112 -148 297q0 171 119 278q121 109 289 109q192 0 244 -113q-3 186 -21 260q-15 75 -65 113q-13 10 -43 27l-211 -189q-17 -14 -27 -14q-18 0 -18 18
q0 14 14 25l201 180q-137 61 -328 64q-22 0 -22 18q0 16 22 16q199 0 373 -57l172 154q8 8 18 8q19 0 19 -21q0 -9 -11 -20zM727 350v92q0 127 -38.5 200t-104.5 73q-69 0 -107 -74q-37 -70 -37 -272q0 -369 146 -369q74 0 107.5 79t33.5 271z" />
    <glyph glyph-name="ntilde" unicode="&#xf1;" horiz-adv-x="1320" 
d="M369 987q-17 0 -17 23q0 127 43.5 204.5t128.5 77.5q58 0 189 -49q121 -47 157 -47q56 0 74 82q3 15 13 21t19 0t9 -21q0 -104 -41 -188q-41 -80 -119 -80q-61 0 -174 43q-112 47 -159 47q-40 0 -64 -20.5t-37 -69.5q-3 -23 -22 -23zM1239 29q33 -20 33 -31
q0 -12 -15 -12q-32 0 -116 8q-95 6 -154 6q-63 0 -158 -6q-84 -8 -96 -8q-14 0 -14 12t37 33q32 25 41 63q8 33 8 158v387q0 119 -86 119q-81 0 -135 -103t-54 -276v-105q0 -131 11 -188q9 -44 49 -59q40 -18 38 -33q-1 -8 -14 -8l-18 2q-19 1 -48.5 3t-63 4t-71 3.5
t-65.5 1.5t-67.5 -1.5t-76 -3.5t-69 -4t-53 -3.5t-21.5 -1.5q-14 0 -14 12q0 10 37 31q58 30 70 69q12 40 12 191v153q0 168 -14 211q-12 50 -66 72q-35 14 -39 27q0 14 19 14q48 0 113 6.5t124 15t110 17.5t82 15.5t29 6.5q15 0 15 -12l-1 -8q-1 -8 -2.5 -21t-3.5 -31
l-4.5 -40.5t-4 -46t-2.5 -50t-1 -51.5q58 260 309 260q178 0 259 -83.5t81 -264.5v-227q0 -112 11 -158q12 -38 59 -65z" />
    <glyph glyph-name="ograve" unicode="&#xf2;" horiz-adv-x="1163" 
d="M743 930q-8 0 -10 2q-220 82 -360 160q-61 37 -83 60t-22 54q0 37 23 59.5t61 24.5q49 3 119 -61q66 -57 274 -281q9 -9 9 -12q0 -6 -11 -6zM205 711q143 116 377 116q231 0 374 -116q146 -119 146 -312q0 -192 -146 -311q-144 -117 -374 -117q-233 0 -377 117t-144 311
q0 195 144 312zM582 0q72 3 106 84q32 76 35 315q-3 238 -35 314q-35 83 -106 86q-72 -3 -107 -86q-32 -76 -35 -314q3 -239 35 -315q34 -81 107 -84z" />
    <glyph glyph-name="oacute" unicode="&#xf3;" horiz-adv-x="1163" 
d="M360 930q-10 0 -10 6q0 4 8 12q204 219 275 281q70 64 119 61q38 -2 61 -24.5t23 -59.5q0 -31 -22 -54t-83 -60q-140 -78 -360 -160q-2 -2 -11 -2zM205 711q143 116 377 116q231 0 374 -116q146 -119 146 -312q0 -192 -146 -311q-144 -117 -374 -117q-233 0 -377 117
t-144 311q0 195 144 312zM582 0q72 3 106 84q32 76 35 315q-3 238 -35 314q-35 83 -106 86q-72 -3 -107 -86q-32 -76 -35 -314q3 -239 35 -315q34 -81 107 -84z" />
    <glyph glyph-name="ocircumflex" unicode="&#xf4;" horiz-adv-x="1163" 
d="M274 979q-14 0 -14 14q0 18 55 78l148 178q53 62 125 62q75 0 125 -62l174 -209q28 -35 28 -47q0 -14 -14 -14q-11 0 -90 43q-18 11 -49 28t-80.5 43.5t-89.5 49.5h-8q-57 -33 -116 -65t-92 -50t-50 -29q-39 -20 -52 -20zM205 711q143 116 377 116q231 0 374 -116
q146 -119 146 -312q0 -192 -146 -311q-144 -117 -374 -117q-233 0 -377 117t-144 311q0 195 144 312zM582 0q72 3 106 84q32 76 35 315q-3 238 -35 314q-35 83 -106 86q-72 -3 -107 -86q-32 -76 -35 -314q3 -239 35 -315q34 -81 107 -84z" />
    <glyph glyph-name="otilde" unicode="&#xf5;" horiz-adv-x="1163" 
d="M260 987q-16 0 -16 23q0 127 43.5 204.5t128.5 77.5q57 0 188 -49q121 -47 158 -47q56 0 74 82q3 15 13 21t19 0t9 -21q0 -104 -41 -188q-41 -80 -119 -80q-61 0 -174 43q-112 47 -160 47q-40 0 -63.5 -20t-36.5 -70q-3 -23 -23 -23zM205 711q143 116 377 116
q231 0 374 -116q146 -119 146 -312q0 -192 -146 -311q-144 -117 -374 -117q-233 0 -377 117t-144 311q0 195 144 312zM582 0q72 3 106 84q32 76 35 315q-3 238 -35 314q-35 83 -106 86q-72 -3 -107 -86q-32 -76 -35 -314q3 -239 35 -315q34 -81 107 -84z" />
    <glyph glyph-name="odieresis" unicode="&#xf6;" horiz-adv-x="1163" 
d="M516 1124q0 -61 -40.5 -98t-106.5 -37q-64 0 -105 37t-41 98q0 58 40.5 94.5t105.5 36.5q66 0 106.5 -35.5t40.5 -95.5zM942 1124q0 -61 -39.5 -98t-105.5 -37t-107 37t-41 98q0 57 41 94t107 37q65 0 105 -36.5t40 -94.5zM205 711q143 116 377 116q231 0 374 -116
q146 -119 146 -312q0 -192 -146 -311q-144 -117 -374 -117q-233 0 -377 117t-144 311q0 195 144 312zM582 0q72 3 106 84q32 76 35 315q-3 238 -35 314q-35 83 -106 86q-72 -3 -107 -86q-32 -76 -35 -314q3 -239 35 -315q34 -81 107 -84z" />
    <glyph glyph-name="divide" unicode="&#xf7;" horiz-adv-x="1146" 
d="M506 887q26 23 67 23t66 -23q26 -23 26 -61.5t-26 -61.5q-25 -23 -66 -23t-67 23q-25 23 -25 61.5t25 61.5zM236 588h675q17 0 17 -24.5t-17 -24.5h-675q-17 0 -17 24.5t17 24.5zM506 358q26 23 67 23t66 -23q26 -23 26 -61t-26 -61q-25 -23 -66 -23t-67 23
q-25 23 -25 61t25 61z" />
    <glyph glyph-name="oslash" unicode="&#xf8;" horiz-adv-x="1163" 
d="M850 776q120 -55 186 -152t66 -225q0 -192 -146 -311q-144 -117 -374 -117q-120 0 -220 33l-94 -147q-8 -13 -21.5 -18t-23.5 -1.5t-10 12.5q0 7 6 19l96 154q-120 52 -187 149.5t-67 226.5q0 195 144 312q143 116 377 116q120 0 221 -34l92 145q16 23 37 23q20 0 20 -13
t-6 -22zM440 399q0 -99 6 -170l261 412q-13 84 -43 120t-82 38q-72 -3 -107 -86q-32 -76 -35 -314zM582 0q72 3 106 84q32 76 35 315q0 97 -6 164l-260 -409q17 -83 46 -117.5t79 -36.5z" />
    <glyph glyph-name="ugrave" unicode="&#xf9;" horiz-adv-x="1275" 
d="M420 1092q-61 37 -83 60t-22 54q0 37 23 59.5t61 24.5q49 3 119 -61q71 -62 275 -281q8 -8 8 -12q0 -6 -10 -6q-9 0 -11 2q-220 82 -360 160zM1214 55q27 -9 27 -22q0 -15 -18 -15q-49 0 -109 -4.5t-111.5 -11t-95.5 -13.5t-69.5 -11.5t-24.5 -4.5q-22 0 -25 23
q-17 49 -20 205q-53 -232 -293 -232q-167 0 -249.5 78.5t-82.5 257.5v275q0 83 -13 114t-52 49q-36 20 -39 29q0 12 20 12q44 0 105.5 3.5t119 9t107.5 10.5t80.5 8.5t28.5 3.5q20 0 20 -22l-1 -9q-1 -8 -3 -25t-4 -41.5t-3 -64.5t-1 -86v-323q0 -189 98 -189q65 0 108 82.5
t44 220.5q-3 246 -10 295q-9 64 -39 82q-6 4 -15 9.5t-12.5 8t-6.5 6.5t-3 9q0 12 20 12q62 0 169.5 8.5t184.5 17.5l76 9q15 0 15 -10q0 -2 -1.5 -14t-3.5 -35t-4.5 -55.5t-4 -85t-1.5 -113.5v-152q0 -170 15 -223q15 -50 77 -76z" />
    <glyph glyph-name="uacute" unicode="&#xfa;" horiz-adv-x="1275" 
d="M408 930q-11 0 -11 6q0 3 9 12q208 224 274 281q70 64 119 61q38 -2 61 -24.5t23 -59.5q0 -31 -22 -54t-83 -60q-140 -78 -360 -160q-2 -2 -10 -2zM1214 55q27 -9 27 -22q0 -15 -18 -15q-49 0 -109 -4.5t-111.5 -11t-95.5 -13.5t-69.5 -11.5t-24.5 -4.5q-22 0 -25 23
q-17 49 -20 205q-53 -232 -293 -232q-167 0 -249.5 78.5t-82.5 257.5v275q0 83 -13 114t-52 49q-36 20 -39 29q0 12 20 12q44 0 105.5 3.5t119 9t107.5 10.5t80.5 8.5t28.5 3.5q20 0 20 -22l-1 -9q-1 -8 -3 -25t-4 -41.5t-3 -64.5t-1 -86v-323q0 -189 98 -189q65 0 108 82.5
t44 220.5q-3 246 -10 295q-9 64 -39 82q-6 4 -15 9.5t-12.5 8t-6.5 6.5t-3 9q0 12 20 12q62 0 169.5 8.5t184.5 17.5l76 9q15 0 15 -10q0 -2 -1.5 -14t-3.5 -35t-4.5 -55.5t-4 -85t-1.5 -113.5v-152q0 -170 15 -223q15 -50 77 -76z" />
    <glyph glyph-name="ucircumflex" unicode="&#xfb;" horiz-adv-x="1275" 
d="M315 944q-14 0 -14 14q0 18 55 78l148 178q53 62 125 62q75 0 125 -62l174 -208q28 -35 28 -48q0 -14 -14 -14q-11 0 -90 43q-18 11 -49 28t-80.5 43.5t-89.5 49.5h-8q-57 -33 -116 -64.5t-92.5 -49.5t-49.5 -29q-40 -21 -52 -21zM1214 55q27 -9 27 -22q0 -15 -18 -15
q-49 0 -109 -4.5t-111.5 -11t-95.5 -13.5t-69.5 -11.5t-24.5 -4.5q-22 0 -25 23q-17 49 -20 205q-53 -232 -293 -232q-167 0 -249.5 78.5t-82.5 257.5v275q0 83 -13 114t-52 49q-36 20 -39 29q0 12 20 12q44 0 105.5 3.5t119 9t107.5 10.5t80.5 8.5t28.5 3.5q20 0 20 -22
l-1 -9q-1 -8 -3 -25t-4 -41.5t-3 -64.5t-1 -86v-323q0 -189 98 -189q65 0 108 82.5t44 220.5q-3 246 -10 295q-9 64 -39 82q-6 4 -15 9.5t-12.5 8t-6.5 6.5t-3 9q0 12 20 12q62 0 169.5 8.5t184.5 17.5l76 9q15 0 15 -10q0 -2 -1.5 -14t-3.5 -35t-4.5 -55.5t-4 -85
t-1.5 -113.5v-152q0 -170 15 -223q15 -50 77 -76z" />
    <glyph glyph-name="udieresis" unicode="&#xfc;" horiz-adv-x="1275" 
d="M416 989q-64 0 -105 37t-41 98q0 58 40.5 94.5t105.5 36.5q66 0 106.5 -35.5t40.5 -95.5q0 -61 -40.5 -98t-106.5 -37zM696 1124q0 57 41 94t107 37q65 0 105 -36.5t40 -94.5q0 -61 -39.5 -98t-105.5 -37t-107 37t-41 98zM1214 55q27 -9 27 -22q0 -15 -18 -15
q-49 0 -109 -4.5t-111.5 -11t-95.5 -13.5t-69.5 -11.5t-24.5 -4.5q-22 0 -25 23q-17 49 -20 205q-53 -232 -293 -232q-167 0 -249.5 78.5t-82.5 257.5v275q0 83 -13 114t-52 49q-36 20 -39 29q0 12 20 12q44 0 105.5 3.5t119 9t107.5 10.5t80.5 8.5t28.5 3.5q20 0 20 -22
l-1 -9q-1 -8 -3 -25t-4 -41.5t-3 -64.5t-1 -86v-323q0 -189 98 -189q65 0 108 82.5t44 220.5q-3 246 -10 295q-9 64 -39 82q-6 4 -15 9.5t-12.5 8t-6.5 6.5t-3 9q0 12 20 12q62 0 169.5 8.5t184.5 17.5l76 9q15 0 15 -10q0 -2 -1.5 -14t-3.5 -35t-4.5 -55.5t-4 -85
t-1.5 -113.5v-152q0 -170 15 -223q15 -50 77 -76z" />
    <glyph glyph-name="yacute" unicode="&#xfd;" horiz-adv-x="1097" 
d="M375 930q-10 0 -10 6q0 4 8 12q208 224 274 281q70 64 119 61q38 -2 61 -24.5t23 -59.5q0 -31 -22 -54t-83 -60q-140 -78 -360 -160q-2 -2 -10 -2zM219 -190q29 0 92 -29t97 -29q47 0 79.5 44t32.5 110q0 86 -59 223q-24 60 -64 133q-38 78 -65 123q-14 26 -70 119
l-53 92q-42 74 -69.5 107t-71.5 57q-47 23 -52 30q-2 4 -2 9q0 14 19 14q1 0 19 -1.5t46.5 -3.5t62.5 -4t75 -3.5t75 -1.5q60 0 174 6t117 6q16 0 16 -14q0 -11 -28 -23q-43 -15 -43 -67q0 -49 61 -189q67 -150 94 -196q10 -13 13 -13q5 0 12 17l35 90q22 51 41 104
q43 103 43 187q0 32 -20 47t-78 22q-39 9 -39 21q0 14 18 14q5 0 70 -6q67 -6 106 -6q47 0 117 6l70 6q20 0 20.5 -14.5t-18.5 -18.5q-100 -15 -148 -63q-49 -49 -96 -164l-260 -639q-71 -173 -147 -262.5t-173 -89.5q-68 0 -112.5 36.5t-44.5 96.5q0 54 31 85.5t77 31.5z
" />
    <glyph glyph-name="thorn" unicode="&#xfe;" horiz-adv-x="1253" 
d="M817 827q159 0 266 -116q109 -118 109 -301q0 -203 -113 -322t-299 -119q-194 0 -256 146v-299q0 -171 99 -201q41 -14 38 -30q-1 -9 -14 -9q-24 0 -125 8q-114 6 -180 6q-28 0 -67.5 -1.5t-76 -3.5t-69 -4t-53 -3.5t-21.5 -1.5q-14 0 -14 12q0 10 37 31q48 29 65 100.5
t17 235.5l-2 815q0 247 -17 334q-15 76 -88 115q-8 8 -16 13t-12 6.5t-6.5 5t-2.5 9.5q0 13 21 13q83 0 205 16q98 13 194 31q85 16 86 16q15 0 15 -10q0 -4 -2 -48t-5 -125.5t-6 -156.5q-2 -86 -2 -219v-117q70 174 295 174zM678 31q74 0 100 75q29 82 29 304
q0 211 -31 278q-27 68 -92 68q-69 0 -112.5 -82.5t-49.5 -233.5v-96q15 -313 156 -313z" />
    <glyph glyph-name="ydieresis" unicode="&#xff;" horiz-adv-x="1097" 
d="M530 1124q0 -61 -40.5 -98t-106.5 -37q-64 0 -104.5 37t-40.5 98q0 58 40 94.5t105 36.5q66 0 106.5 -35.5t40.5 -95.5zM956 1124q0 -61 -39.5 -98t-105.5 -37t-106.5 37t-40.5 98q0 57 40.5 94t106.5 37q65 0 105 -36.5t40 -94.5zM219 -190q29 0 92 -29t97 -29
q47 0 79.5 44t32.5 110q0 86 -59 223q-24 60 -64 133q-38 78 -65 123q-14 26 -70 119l-53 92q-42 74 -69.5 107t-71.5 57q-47 23 -52 30q-2 4 -2 9q0 14 19 14q1 0 19 -1.5t46.5 -3.5t62.5 -4t75 -3.5t75 -1.5q60 0 174 6t117 6q16 0 16 -14q0 -11 -28 -23q-43 -15 -43 -67
q0 -49 61 -189q67 -150 94 -196q10 -13 13 -13q5 0 12 17l35 90q22 51 41 104q43 103 43 187q0 32 -20 47t-78 22q-39 9 -39 21q0 14 18 14q5 0 70 -6q67 -6 106 -6q47 0 117 6l70 6q20 0 20.5 -14.5t-18.5 -18.5q-100 -15 -148 -63q-49 -49 -96 -164l-260 -639
q-71 -173 -147 -262.5t-173 -89.5q-68 0 -112.5 36.5t-44.5 96.5q0 54 31 85.5t77 31.5z" />
    <glyph glyph-name="Amacron" unicode="&#x100;" horiz-adv-x="1546" 
d="M473 1665q4 0 18 -0.5t41.5 -1.5t53.5 -2q132 -4 147 -4q18 0 170 4q32 1 63.5 2t47.5 1.5t22 0.5q22 0 30 -16t5 -35.5t-12 -36.5q-13 -23 -33 -23q-80 0 -143 2q-23 1 -54 2t-51.5 2t-34.5 1t-63 -2t-84 -3q-72 -2 -133 -2q-37 0 -37 37q0 74 47 74zM770 -12
q-20 0 -20 12q0 2 0.5 4t1 3.5t1.5 2.5t3 2.5t3.5 2t5 2t5.5 2t6.5 2l7.5 2.5q101 27 101 90q0 50 -72 286q-9 30 -49 33q-78 4 -248 4q-146 0 -164 -2q-28 0 -37 -20q-41 -123 -57 -191q-12 -55 -12 -84q0 -44 29.5 -70t103.5 -46q31 -9 31 -21q0 -14 -19 -14q-3 0 -86 6
q-79 6 -123 6q-34 0 -92 -6l-59 -6q-21 0 -21 14q0 15 19 18q65 9 106 62t90 190q300 845 310 879q12 23 7.5 32t-50.5 25q-51 22 -54 31q0 13 27 16q106 5 244 25q124 18 196 33q21 4 40 8.5t27 6t9 1.5q14 0 14 -16q0 -3 -10 -22t-10 -29q0 -12 12 -52q44 -147 150 -442
q88 -243 204 -537q38 -95 67.5 -138t68.5 -62q53 -21 53 -33q0 -10 -19 -10q-1 0 -28.5 1t-70.5 3t-92.5 4t-104 3t-95.5 1q-27 0 -61 -0.5t-66.5 -1.5t-65.5 -2.5t-60.5 -3t-49 -2.5t-34.5 -2h-13zM535 483q197 0 221 4q20 3 20 21q0 4 -4 20l-192 582q-6 18 -13 18
q-3 0 -12 -18l-201 -582q-8 -21 -8 -30q0 -10 16 -13q12 -2 173 -2z" />
    <glyph glyph-name="amacron" unicode="&#x101;" horiz-adv-x="1177" 
d="M260 1049q-37 0 -37 36q0 74 47 74q4 0 18 -0.5t41.5 -1.5t53.5 -2q132 -4 147 -4q18 0 170 4q32 1 63.5 2t48 1.5t22.5 0.5q22 0 30 -16t4.5 -35.5t-12.5 -36.5q-13 -22 -33 -22q-80 0 -143 2q-122 4 -139 4q-4 0 -148 -4q-72 -2 -133 -2zM1159 174q17 0 17 -16
q0 -97 -55.5 -143t-192.5 -46q-126 0 -195.5 48t-89.5 153q-62 -201 -326 -201q-121 0 -188.5 49t-67.5 144q0 144 177 207q140 50 395 71v170q0 101 -36 143t-114 42q-55 0 -88 -21t-33 -53q0 -21 21 -64q20 -39 20 -69q0 -50 -41.5 -82.5t-107.5 -32.5q-69 0 -109.5 36
t-40.5 99q0 97 110 158t321 61q117 0 204 -18t157 -61.5t106 -122.5t36 -193v-291q0 -71 47 -71q54 0 54 88q0 16 20 16zM498 68q56 0 95.5 68.5t39.5 172.5v99l-17 -5q-122 -24 -163 -65q-37 -34 -37 -125q0 -145 82 -145z" />
    <glyph glyph-name="Abreve" unicode="&#x102;" horiz-adv-x="1546" 
d="M434 1743q0 14 15 14q11 0 22 -14q72 -90 277 -90q204 0 276 90q11 14 23 14q14 0 14 -14q0 -107 -82 -195t-231 -88q-150 0 -232 88t-82 195zM1477 31q53 -21 53 -33q0 -10 -19 -10q-1 0 -28.5 1t-70.5 3t-92.5 4t-104 3t-95.5 1q-27 0 -61 -0.5t-66.5 -1.5t-65.5 -2.5
t-60.5 -3t-49 -2.5t-34.5 -2h-13q-20 0 -20 12q0 2 0.5 4t1 3.5t1.5 2.5t3 2.5t3.5 2t5 2t5.5 2t6.5 2l7.5 2.5q101 27 101 90q0 50 -72 286q-9 30 -49 33q-78 4 -248 4q-146 0 -164 -2q-28 0 -37 -20q-41 -123 -57 -191q-12 -55 -12 -84q0 -44 29.5 -70t103.5 -46
q31 -9 31 -21q0 -14 -19 -14q-3 0 -86 6q-79 6 -123 6q-34 0 -92 -6l-59 -6q-21 0 -21 14q0 15 19 18q65 9 106 62t90 190q300 845 310 879q12 23 7.5 32t-50.5 25q-51 22 -54 31q0 13 27 16q106 5 244 25q124 18 196 33q21 4 40 8.5t27 6t9 1.5q14 0 14 -16q0 -3 -10 -22
t-10 -29q0 -12 12 -52q44 -147 150 -442q88 -243 204 -537q38 -95 67.5 -138t68.5 -62zM756 487q20 3 20 21q0 4 -4 20l-192 582q-6 18 -13 18q-3 0 -12 -18l-201 -582q-8 -21 -8 -30q0 -10 16 -13q12 -2 173 -2q197 0 221 4z" />
    <glyph glyph-name="abreve" unicode="&#x103;" horiz-adv-x="1177" 
d="M231 1309q0 14 15 14q11 0 20 -18q43 -119 279 -119q234 0 280 119q6 18 19 18q14 0 14 -14q0 -141 -82.5 -232.5t-230.5 -91.5t-231 91.5t-83 232.5zM1159 174q17 0 17 -16q0 -97 -55.5 -143t-192.5 -46q-126 0 -195.5 48t-89.5 153q-62 -201 -326 -201
q-121 0 -188.5 49t-67.5 144q0 144 177 207q140 50 395 71v170q0 101 -36 143t-114 42q-55 0 -88 -21t-33 -53q0 -21 21 -64q20 -39 20 -69q0 -50 -41.5 -82.5t-107.5 -32.5q-69 0 -109.5 36t-40.5 99q0 97 110 158t321 61q117 0 204 -18t157 -61.5t106 -122.5t36 -193v-291
q0 -71 47 -71q54 0 54 88q0 16 20 16zM498 68q56 0 95.5 68.5t39.5 172.5v99l-17 -5q-122 -24 -163 -65q-37 -34 -37 -125q0 -145 82 -145z" />
    <glyph glyph-name="Aogonek" unicode="&#x104;" horiz-adv-x="1546" 
d="M1477 31q53 -21 53 -33q0 -10 -19 -10q-1 0 -28.5 1t-70.5 3t-92.5 4t-104 3t-95.5 1q-27 0 -61 -0.5t-66.5 -1.5t-65.5 -2.5t-60.5 -3t-49 -2.5t-34.5 -2h-13l-18 -21q-74 -77 -74 -149q0 -113 115 -148q41 -13 79 -10q13 0 13 -10t-8 -15q-115 -86 -263 -86
q-91 0 -139.5 40.5t-48.5 113.5q0 85 77 154.5t249 152.5q5 5 32 13q101 27 101 90q0 50 -72 286q-9 30 -49 33q-78 4 -248 4q-146 0 -164 -2q-28 0 -37 -20q-41 -123 -57 -191q-12 -55 -12 -84q0 -44 29.5 -70t103.5 -46q31 -9 31 -21q0 -14 -19 -14q-3 0 -86 6
q-79 6 -123 6q-34 0 -92 -6l-59 -6q-21 0 -21 14q0 15 19 18q65 9 106 62t90 190q300 845 310 879q12 23 7.5 32t-50.5 25q-51 22 -54 31q0 13 27 16q106 5 244 25q124 18 196 33q21 4 40 8.5t27 6t9 1.5q14 0 14 -16q0 -3 -10 -22t-10 -29q0 -12 12 -52q44 -147 150 -442
q88 -243 204 -537q38 -95 67.5 -138t68.5 -62zM756 487q20 3 20 21q0 4 -4 20l-192 582q-6 18 -13 18q-3 0 -12 -18l-201 -582q-8 -21 -8 -30q0 -10 16 -13q12 -2 173 -2q197 0 221 4z" />
    <glyph glyph-name="aogonek" unicode="&#x105;" horiz-adv-x="1177" 
d="M1165 -322q13 0 13 -10q0 -8 -9 -14q-115 -86 -262 -86q-91 0 -139.5 40t-48.5 113q0 128 211 248h-2q-126 0 -195.5 48t-89.5 153q-62 -201 -326 -201q-121 0 -188.5 49t-67.5 144q0 144 177 207q140 50 395 71v170q0 101 -36 143t-114 42q-55 0 -88 -21t-33 -53
q0 -21 21 -64q20 -39 20 -69q0 -50 -41.5 -82.5t-107.5 -32.5q-69 0 -109.5 36t-40.5 99q0 97 110 158t321 61q117 0 204 -18t157 -61.5t106 -122.5t36 -193v-291q0 -71 47 -71q54 0 54 88q0 16 20 16q17 0 17 -16q0 -75 -31.5 -118t-106.5 -60q-67 -73 -67 -144
q0 -112 114 -147q44 -14 80 -11zM498 68q56 0 95.5 68.5t39.5 172.5v99l-17 -5q-122 -24 -163 -65q-37 -34 -37 -125q0 -145 82 -145z" />
    <glyph glyph-name="Cacute" unicode="&#x106;" horiz-adv-x="1441" 
d="M578 1462q-9 0 -9 11q0 3 9 12q236 166 356 241q89 56 139 56q43 0 67.5 -22.5t24.5 -63.5q0 -43 -27 -70t-98 -51q-245 -76 -452 -111q-1 0 -5 -1t-5 -1zM1356 549l-4 -53q-17 -157 -17 -514q0 -13 -13 -14q-16 -2 -21 20l-1 10q-6 65 -79 65q-36 0 -172 -47t-230 -47
q-324 0 -530 185q-205 184 -205 489q0 306 211 490q210 186 534 186q105 0 226 -47q119 -45 137 -45q49 0 55 59q6 31 23 33q14 -3 16 -19q0 -116 14 -245q17 -228 40 -328l1 -2q0 -9 -7 -12.5t-15 0.5t-12 16l-29 96q-63 222 -173 343.5t-249 121.5q-104 0 -164 -52
t-100 -194q-39 -139 -39 -401q2 -197 19 -322.5t54 -197t88 -98.5t130 -27q115 0 239 84q67 45 120 128.5t79 190.5l37 142q5 21 23 20q14 -1 14 -14z" />
    <glyph glyph-name="cacute" unicode="&#x107;" horiz-adv-x="1032" 
d="M332 930q-10 0 -10 6q0 4 8 12q208 224 274 281q70 64 119 61q38 -2 61 -24.5t23 -59.5q0 -31 -22 -54t-83 -60q-140 -78 -360 -160q-2 -2 -10 -2zM975 260q12 0 12 -12v-4q-56 -275 -428 -275q-221 0 -360 115q-138 117 -138 301q0 207 147 324.5t404 117.5
q93 0 172 -26l86 -25q33 0 45 49q7 17 19 17q14 0 14 -19q0 -191 28 -339l1 -5q0 -17 -14 -17q-15 1 -21 21q-77 308 -254 308q-215 0 -215 -349q0 -379 234 -379q92 0 159 47.5t92 131.5q6 18 17 18z" />
    <glyph glyph-name="Cdotaccent" unicode="&#x10a;" horiz-adv-x="1441" 
d="M848 1444q-67 0 -109.5 38t-42.5 99t42.5 99t109.5 38q68 0 109.5 -38t41.5 -99q0 -63 -41.5 -100t-109.5 -37zM1356 549l-4 -53q-17 -157 -17 -514q0 -13 -13 -14q-16 -2 -21 20l-1 10q-6 65 -79 65q-36 0 -172 -47t-230 -47q-324 0 -530 185q-205 184 -205 489
q0 306 211 490q210 186 534 186q105 0 226 -47q119 -45 137 -45q49 0 55 59q6 31 23 33q14 -3 16 -19q0 -116 14 -245q17 -228 40 -328l1 -2q0 -9 -7 -12.5t-15 0.5t-12 16l-29 96q-63 222 -173 343.5t-249 121.5q-104 0 -164 -52t-100 -194q-39 -139 -39 -401
q2 -197 19 -322.5t54 -197t88 -98.5t130 -27q115 0 239 84q67 45 120 128.5t79 190.5l37 142q5 21 23 20q14 -1 14 -14z" />
    <glyph glyph-name="cdotaccent" unicode="&#x10b;" horiz-adv-x="1032" 
d="M590 977q-76 0 -124 43.5t-48 114.5t48 114t124 43q78 0 125 -42.5t47 -114.5q0 -70 -47.5 -114t-124.5 -44zM975 260q12 0 12 -12v-4q-56 -275 -428 -275q-221 0 -360 115q-138 117 -138 301q0 207 147 324.5t404 117.5q93 0 172 -26l86 -25q33 0 45 49q7 17 19 17
q14 0 14 -19q0 -191 28 -339l1 -5q0 -17 -14 -17q-15 1 -21 21q-77 308 -254 308q-215 0 -215 -349q0 -379 234 -379q92 0 159 47.5t92 131.5q6 18 17 18z" />
    <glyph glyph-name="Ccaron" unicode="&#x10c;" horiz-adv-x="1441" 
d="M537 1751q7 0 309 -129h4q298 129 309 129q15 0 15 -14q0 -32 -195 -230q-3 -3 -14.5 -15t-15 -15t-13.5 -12t-15 -12l-15 -9t-18 -8t-18.5 -4t-21.5 -2q-42 0 -63.5 12.5t-69.5 62.5q-193 199 -193 232q0 14 15 14zM1356 549l-4 -53q-17 -157 -17 -514q0 -13 -13 -14
q-16 -2 -21 20l-1 10q-6 65 -79 65q-36 0 -172 -47t-230 -47q-324 0 -530 185q-205 184 -205 489q0 306 211 490q210 186 534 186q105 0 226 -47q119 -45 137 -45q49 0 55 59q6 31 23 33q14 -3 16 -19q0 -116 14 -245q17 -228 40 -328l1 -2q0 -9 -7 -12.5t-15 0.5t-12 16
l-29 96q-63 222 -173 343.5t-249 121.5q-104 0 -164 -52t-100 -194q-39 -139 -39 -401q2 -197 19 -322.5t54 -197t88 -98.5t130 -27q115 0 239 84q67 45 120 128.5t79 190.5l37 142q5 21 23 20q14 -1 14 -14z" />
    <glyph glyph-name="ccaron" unicode="&#x10d;" horiz-adv-x="1032" 
d="M240 1294q14 0 88 -43q12 -7 87 -47.5t134 -73.5h8q220 124 258 142q33 22 51 22q15 0 15 -14q0 -10 -10 -23.5t-46 -56.5q-9 -10 -147 -176q-49 -61 -125 -61q-73 0 -125 61l-174 209q-29 36 -29 47q0 14 15 14zM975 260q12 0 12 -12v-4q-56 -275 -428 -275
q-221 0 -360 115q-138 117 -138 301q0 207 147 324.5t404 117.5q93 0 172 -26l86 -25q33 0 45 49q7 17 19 17q14 0 14 -19q0 -191 28 -339l1 -5q0 -17 -14 -17q-15 1 -21 21q-77 308 -254 308q-215 0 -215 -349q0 -379 234 -379q92 0 159 47.5t92 131.5q6 18 17 18z" />
    <glyph glyph-name="Dcaron" unicode="&#x10e;" horiz-adv-x="1677" 
d="M827 1430q-42 0 -63.5 12.5t-69.5 62.5q-192 198 -192 232q0 14 14 14q7 0 309 -129h4q298 129 310 129q14 0 14 -14q0 -32 -195 -230q-3 -3 -14.5 -15t-15 -15t-13.5 -12t-15 -12l-15 -9t-18 -8t-18.5 -4t-21.5 -2zM791 1309q361 0 581 -181q221 -182 221 -485
t-221 -485q-220 -181 -581 -181l-27 2q-26 2 -68 4.5t-89.5 5.5t-98.5 5t-88 2q-32 0 -77 -1.5t-86 -3.5t-77.5 -4t-59.5 -3.5t-24 -1.5q-14 0 -14 12q0 8 7 13.5t30 17.5q46 21 61 73q21 86 21 547q0 467 -21 543q-16 56 -61 76q-39 18 -37 33q1 8 14 8q1 0 24 -1.5
t59.5 -3.5t77.5 -4.5t86 -4t77 -1.5q37 0 88 2t98.5 5t89.5 5.5t68 4.5zM811 8q162 0 236 142q75 138 75 493q0 358 -75 496q-73 141 -236 141q-117 0 -152 -92q-20 -61 -20 -543q0 -486 20 -545q30 -92 152 -92z" />
    <glyph glyph-name="dcaron" unicode="&#x10f;" horiz-adv-x="1427" 
d="M1184 68q26 -9 26 -23t-18 -14q-48 0 -110.5 -5t-118.5 -12.5t-104 -14.5t-77 -12t-28 -5q-15 0 -15 12l1 12q2 11 4 30t4.5 41t4.5 47.5t3 45.5h-4q-59 -201 -254 -201q-181 0 -310 117q-127 121 -127 301q0 197 127 318q128 122 310 122q160 0 225 -108h2v74
q-3 215 -18 286t-64 99q-37 21 -37 34q0 15 19 15q47 -1 98.5 4t96 14t87.5 19.5t76 21t58.5 19.5t38.5 14t12 4q12 0 12 -12l-2 -37q-12 -98 -12 -350l2 -570q0 -169 14 -215q15 -48 78 -71zM1323 1323q62 0 99.5 -42.5t37.5 -115.5q0 -61 -22.5 -111.5t-54 -80
t-67.5 -49.5t-60.5 -27.5t-34.5 -7.5q-19 0 -19 16q0 14 19 17q64 14 125 69q57 54 57 119q0 18 -14 18l-29 -20q-28 -21 -51 -21q-44 0 -77.5 33.5t-33.5 83.5q0 53 35 86t90 33zM741 387q3 389 -163 389q-72 0 -99 -86q-30 -92 -33 -303q5 -199 32 -279.5t93 -80.5
q76 0 122.5 95.5t47.5 264.5z" />
    <glyph glyph-name="Dcroat" unicode="&#x110;" horiz-adv-x="1689" 
d="M803 1309q361 0 581 -181q222 -183 222 -485t-222 -485q-220 -181 -581 -181l-27 2q-26 2 -68 4.5t-89.5 5.5t-98.5 5t-88 2q-32 0 -77 -1.5t-86 -3.5t-77 -4t-59 -3.5t-24 -1.5q-15 0 -15 12q0 8 7 13.5t30 17.5q30 9 46.5 35.5t23.5 78.5q10 68 10 248q2 51 2 215
q-16 0 -53.5 -1t-40.5 -1q-37 0 -37 47q0 22 12.5 37.5t34.5 15.5q2 0 35 -1t49 -1q0 232 -2 291q-3 94 -12 158q-7 63 -20 82.5t-48 34.5q-39 18 -36 33q1 8 14 8q1 0 24 -1.5t59 -3.5t77 -4.5t86 -4t77 -1.5q37 0 88 2t98.5 5t89.5 5.5t68 4.5zM823 8q162 0 236 142
q76 140 76 493q0 356 -76 496q-74 141 -236 141q-116 0 -151 -92q-21 -64 -21 -494q108 6 172 6q43 0 43 -43q0 -24 -12.5 -41t-32.5 -16q-140 7 -170 8q0 -444 21 -508q30 -92 151 -92z" />
    <glyph glyph-name="dslash" unicode="&#x111;" horiz-adv-x="1261" 
d="M1190 965h-100v-41l2 -570q0 -169 14 -215q15 -48 78 -71q26 -9 26 -23t-18 -14q-48 0 -110.5 -5t-118.5 -12.5t-104 -14.5t-77 -12t-28 -5q-15 0 -15 12l1 12q2 11 4 30t4.5 41t4.5 47.5t3 45.5h-4q-59 -201 -254 -201q-181 0 -310 117q-127 121 -127 301q0 197 127 318
q128 122 310 122q160 0 225 -108h2v74q0 105 -6 172h-197q-22 0 -22 24q0 23 22 23h195q-7 76 -23.5 110.5t-50.5 55.5q-37 21 -37 34q0 15 19 15q47 -1 98.5 4t96 14t87.5 19.5t76 21t58.5 19.5t38.5 14t12 4q12 0 12 -12v-3q-1 -3 -2 -10t-2 -17.5t-2 -25.5t-2 -32.5
t-2 -40.5t-2 -48.5t-1.5 -57t-0.5 -64.5h100q29 0 29 -23q0 -24 -29 -24zM741 387q3 389 -163 389q-72 0 -99 -86q-30 -92 -33 -303q5 -199 32 -279.5t93 -80.5q76 0 122.5 95.5t47.5 264.5z" />
    <glyph glyph-name="Emacron" unicode="&#x112;" horiz-adv-x="1472" 
d="M475 1552q-37 0 -37 37q0 74 47 74q4 0 18 -0.5t41.5 -1.5t53.5 -2q132 -4 147 -4q18 0 170 4q32 1 63.5 2t48 1.5t22.5 0.5q22 0 30 -16t4.5 -35.5t-12.5 -36.5q-13 -23 -33 -23q-80 0 -143 2q-24 1 -54.5 2t-50.5 2t-34 1t-64 -2t-84 -3q-72 -2 -133 -2zM1317 111
q0 -32 9 -52.5t20.5 -27t20.5 -12.5t9 -13q0 -12 -14 -12q-6 0 -53 0.5t-148 1.5t-213 2q-258 2 -495 2q-87 0 -171.5 -1.5t-134 -3t-51.5 -1.5q-14 0 -14 12q0 11 39 31q46 21 61 72q21 88 21 536q0 467 -21 543q-16 56 -61 76q-40 18 -39 33q1 8 14 8l64 -3
q63 -4 158.5 -8t173.5 -4q120 0 489 6q369 9 381 9q14 0 14 -13q0 -4 -9 -10.5t-20.5 -14.5t-20.5 -29t-9 -50q0 -55 10.5 -146.5t21.5 -159t11 -63.5q0 -16 -13 -17q-15 -1 -21 23q-1 1 -1 2q-88 269 -233 359q-66 42 -127 59t-136 17q-102 0 -137 -41q-48 -57 -51 -496
q2 -29 20 -39t72 -10q152 0 213 82q27 37 64 119q6 16 18 16q10 0 10 -14q-10 -118 -10 -224q0 -35 1 -70t2.5 -61t3 -46t2.5 -32l1 -12q0 -14 -10 -14q-12 0 -18 16q-38 84 -65 118.5t-77 57.5q-55 25 -135 25q-52 0 -69.5 -10t-22.5 -37q3 -475 55 -527q34 -34 133 -34
q176 -6 310 131q137 136 186 450q3 33 23 33q12 0 12 -16l-2 -15q-2 -15 -5 -43t-7 -62.5t-9.5 -82.5t-9.5 -94q-10 -137 -10 -219z" />
    <glyph glyph-name="emacron" unicode="&#x113;" horiz-adv-x="1083" 
d="M287 1049q-37 0 -37 36q0 74 47 74q4 0 18 -0.5t41.5 -1.5t53.5 -2q132 -4 147 -4q18 0 170 4q32 1 63.5 2t47.5 1.5t22 0.5q22 0 30 -16t5 -35.5t-12 -36.5q-13 -22 -33 -22q-80 0 -143 2q-122 4 -140 4q-3 0 -147 -4q-72 -2 -133 -2zM1012 250q14 0 14 -12q0 -8 -6 -29
q-37 -107 -153 -173.5t-275 -66.5q-240 0 -385 121q-146 122 -146 313q0 194 144 308q143 116 373 116q195 0 325 -92q129 -89 129 -235q0 -94 -80 -94l-506 2q5 -186 61.5 -268.5t184.5 -82.5q225 0 301 172q9 21 19 21zM580 799q-78 0 -105 -76q-26 -71 -29 -272l205 2
q32 0 39.5 13.5t7.5 74.5q0 143 -27.5 200.5t-90.5 57.5z" />
    <glyph glyph-name="Edotaccent" unicode="&#x116;" horiz-adv-x="1472" 
d="M760 1444q-67 0 -109.5 38t-42.5 99t42.5 99t109.5 38q68 0 109.5 -38t41.5 -99q0 -63 -41.5 -100t-109.5 -37zM1317 111q0 -32 9 -52.5t20.5 -27t20.5 -12.5t9 -13q0 -12 -14 -12q-6 0 -53 0.5t-148 1.5t-213 2q-258 2 -495 2q-87 0 -171.5 -1.5t-134 -3t-51.5 -1.5
q-14 0 -14 12q0 11 39 31q46 21 61 72q21 88 21 536q0 467 -21 543q-16 56 -61 76q-40 18 -39 33q1 8 14 8l64 -3q63 -4 158.5 -8t173.5 -4q120 0 489 6q369 9 381 9q14 0 14 -13q0 -4 -9 -10.5t-20.5 -14.5t-20.5 -29t-9 -50q0 -55 10.5 -146.5t21.5 -159t11 -63.5
q0 -16 -13 -17q-15 -1 -21 23q-1 1 -1 2q-88 269 -233 359q-66 42 -127 59t-136 17q-102 0 -137 -41q-48 -57 -51 -496q2 -29 20 -39t72 -10q152 0 213 82q27 37 64 119q6 16 18 16q10 0 10 -14q-10 -118 -10 -224q0 -35 1 -70t2.5 -61t3 -46t2.5 -32l1 -12q0 -14 -10 -14
q-12 0 -18 16q-38 84 -65 118.5t-77 57.5q-55 25 -135 25q-52 0 -69.5 -10t-22.5 -37q3 -475 55 -527q34 -34 133 -34q176 -6 310 131q137 136 186 450q3 33 23 33q12 0 12 -16l-2 -15q-2 -15 -5 -43t-7 -62.5t-9.5 -82.5t-9.5 -94q-10 -137 -10 -219z" />
    <glyph glyph-name="edotaccent" unicode="&#x117;" horiz-adv-x="1083" 
d="M551 977q-76 0 -124 43.5t-48 114.5t48 114t124 43q78 0 125 -42.5t47 -114.5q0 -70 -47.5 -114t-124.5 -44zM1012 250q14 0 14 -12q0 -8 -6 -29q-37 -107 -153 -173.5t-275 -66.5q-240 0 -385 121q-146 122 -146 313q0 194 144 308q143 116 373 116q195 0 325 -92
q129 -89 129 -235q0 -94 -80 -94l-506 2q5 -186 61.5 -268.5t184.5 -82.5q225 0 301 172q9 21 19 21zM580 799q-78 0 -105 -76q-26 -71 -29 -272l205 2q32 0 39.5 13.5t7.5 74.5q0 143 -27.5 200.5t-90.5 57.5z" />
    <glyph glyph-name="Eogonek" unicode="&#x118;" horiz-adv-x="1472" 
d="M1448 -360q12 0 12 -11q0 -9 -8 -14q-115 -86 -262 -86q-91 0 -140 40.5t-49 113.5q0 85 79 155.5t257 155.5q-19 0 -72 0.5t-155 1.5t-203 2q-240 2 -454 2q-87 0 -171.5 -1.5t-134 -3t-51.5 -1.5q-14 0 -14 12q0 11 39 31q46 21 61 72q21 88 21 536q0 467 -21 543
q-16 56 -61 76q-40 18 -39 33q1 8 14 8l64 -3q63 -4 158.5 -8t173.5 -4q120 0 489 6q369 9 381 9q14 0 14 -13q0 -4 -9 -10.5t-20.5 -14.5t-20.5 -29t-9 -50q0 -55 10.5 -146.5t21.5 -159t11 -63.5q0 -16 -13 -17q-15 -1 -21 23q-1 1 -1 2q-88 269 -233 359q-66 42 -127 59
t-136 17q-102 0 -137 -41q-48 -57 -51 -496q2 -29 20 -39t72 -10q152 0 213 82q27 37 64 119q6 16 18 16q10 0 10 -14q-10 -118 -10 -224q0 -35 1 -70t2.5 -61t3 -46t2.5 -32l1 -12q0 -14 -10 -14q-12 0 -18 16q-38 84 -65 118.5t-77 57.5q-55 25 -135 25q-52 0 -69.5 -10
t-22.5 -37q3 -475 55 -527q34 -34 133 -34q176 -6 310 131q137 136 186 450q3 33 23 33q12 0 12 -16l-2 -15q-2 -15 -5 -43t-7 -62.5t-9.5 -82.5t-9.5 -94q-10 -137 -10 -219q0 -17 3 -31t6.5 -22.5t10 -16t10.5 -10.5t11 -7.5t8 -5.5q18 -10 6 -22l-45 -49
q-74 -77 -74 -150q0 -112 115 -147q41 -13 80 -10z" />
    <glyph glyph-name="eogonek" unicode="&#x119;" horiz-adv-x="1083" 
d="M1012 250q14 0 14 -12q0 -8 -6 -29q-30 -83 -113 -148l-43 -47q-73 -76 -73 -149q0 -113 114 -148q41 -13 80 -10q12 0 12 -10q0 -9 -8 -14q-115 -86 -262 -86q-91 0 -139.5 40t-48.5 113q0 124 182 232q-63 -13 -129 -13q-240 0 -385 121q-146 122 -146 313
q0 194 144 308q143 116 373 116q195 0 325 -92q129 -89 129 -235q0 -94 -80 -94l-506 2q5 -186 61.5 -268.5t184.5 -82.5q225 0 301 172q9 21 19 21zM580 799q-78 0 -105 -76q-26 -71 -29 -272l205 2q32 0 39.5 13.5t7.5 74.5q0 143 -27.5 200.5t-90.5 57.5z" />
    <glyph glyph-name="Ecaron" unicode="&#x11a;" horiz-adv-x="1472" 
d="M760 1430q-42 0 -63.5 12.5t-69.5 62.5q-193 199 -193 232q0 14 15 14q7 0 309 -129h4q298 129 309 129q14 0 14 -14q0 -33 -194 -230q-3 -3 -14.5 -15t-15 -15t-13.5 -12t-15 -12l-15 -9t-18 -8t-18.5 -4t-21.5 -2zM1317 111q0 -32 9 -52.5t20.5 -27t20.5 -12.5t9 -13
q0 -12 -14 -12q-6 0 -53 0.5t-148 1.5t-213 2q-258 2 -495 2q-87 0 -171.5 -1.5t-134 -3t-51.5 -1.5q-14 0 -14 12q0 11 39 31q46 21 61 72q21 88 21 536q0 467 -21 543q-16 56 -61 76q-40 18 -39 33q1 8 14 8l64 -3q63 -4 158.5 -8t173.5 -4q120 0 489 6q369 9 381 9
q14 0 14 -13q0 -4 -9 -10.5t-20.5 -14.5t-20.5 -29t-9 -50q0 -55 10.5 -146.5t21.5 -159t11 -63.5q0 -16 -13 -17q-15 -1 -21 23q-1 1 -1 2q-88 269 -233 359q-66 42 -127 59t-136 17q-102 0 -137 -41q-48 -57 -51 -496q2 -29 20 -39t72 -10q152 0 213 82q27 37 64 119
q6 16 18 16q10 0 10 -14q-10 -118 -10 -224q0 -35 1 -70t2.5 -61t3 -46t2.5 -32l1 -12q0 -14 -10 -14q-12 0 -18 16q-38 84 -65 118.5t-77 57.5q-55 25 -135 25q-52 0 -69.5 -10t-22.5 -37q3 -475 55 -527q34 -34 133 -34q176 -6 310 131q137 136 186 450q3 33 23 33
q12 0 12 -16l-2 -15q-2 -15 -5 -43t-7 -62.5t-9.5 -82.5t-9.5 -94q-10 -137 -10 -219z" />
    <glyph glyph-name="ecaron" unicode="&#x11b;" horiz-adv-x="1083" 
d="M571 963q-73 0 -125 61l-174 209q-28 35 -28 47q0 14 14 14t88 -43q12 -7 87 -47.5t134 -73.5h8q213 120 259 142q33 22 51 22q14 0 14 -14q0 -10 -10.5 -24.5t-44.5 -55.5q-17 -19 -148 -176q-49 -61 -125 -61zM1012 250q14 0 14 -12q0 -8 -6 -29q-37 -107 -153 -173.5
t-275 -66.5q-240 0 -385 121q-146 122 -146 313q0 194 144 308q143 116 373 116q195 0 325 -92q129 -89 129 -235q0 -94 -80 -94l-506 2q5 -186 61.5 -268.5t184.5 -82.5q225 0 301 172q9 21 19 21zM580 799q-78 0 -105 -76q-26 -71 -29 -272l205 2q32 0 39.5 13.5t7.5 74.5
q0 143 -27.5 200.5t-90.5 57.5z" />
    <glyph glyph-name="Gbreve" unicode="&#x11e;" horiz-adv-x="1497" 
d="M543 1800q0 15 14 15q11 0 21 -19q43 -119 278 -119t281 119q6 19 18 19q14 0 14 -15q0 -141 -82.5 -232t-230.5 -91t-230.5 91t-82.5 232zM1483 516q14 0 14 -12q0 -5 -6 -9t-21.5 -10t-25.5 -12q-49 -26 -58 -67q-10 -48 -10 -207v-199q0 -31 -16 -31q-13 0 -19 25
q-15 69 -84 69q-67 0 -200 -43t-234 -43q-325 0 -532 177t-207 471q0 306 219 495t553 189q113 0 238 -41t139 -41q26 0 38 13.5t17 45.5q6 32 23 33q15 -2 16 -25q0 -230 29 -413q3 -21 7.5 -40t6.5 -28.5t2 -11.5q0 -15 -16 -15q-10 0 -19 19q-132 258 -241 364
q-107 107 -244 107q-57 0 -100 -15.5t-82 -58t-63.5 -114.5t-39 -188t-14.5 -275q3 -357 65 -490q64 -135 218 -135q137 0 137 156v110q0 122 -12 152q-11 32 -68 57q-39 17 -39 29t14 12q1 0 22 -1.5t54 -3.5t69.5 -4t76 -3.5t67.5 -1.5q33 0 78 1.5t86.5 3.5t78 4
t59.5 3.5t24 1.5z" />
    <glyph glyph-name="gbreve" unicode="&#x11f;" horiz-adv-x="1093" 
d="M287 1274q0 8 5 11t11 -0.5t10 -12.5q38 -96 224 -96q185 0 223 96q4 9 10 12.5t11 0.5t5 -11q0 -113 -65 -185.5t-184 -72.5t-184.5 72.5t-65.5 185.5zM700 100q201 0 295.5 -60t94.5 -185q0 -295 -529 -295q-252 0 -368.5 35t-116.5 110q0 100 176 127
q-184 30 -184 186q0 188 305 218q-140 31 -219.5 107t-79.5 181q0 138 129 221q131 82 342 82q59 0 112 -6q23 115 93 176.5t151 61.5q68 0 108 -36.5t40 -94.5q0 -52 -34.5 -86.5t-88.5 -34.5q-90 0 -111 88q-6 23 -11.5 29t-17.5 6q-24 0 -49 -32.5t-37 -82.5
q148 -30 232 -106t84 -185q0 -141 -131 -223t-340 -82h-19q-134 0 -185.5 -14.5t-51.5 -50.5q0 -54 104 -54h307zM416 524q1 -148 31 -210t98 -62t98 62t31 210q-1 148 -31 209.5t-98 61.5t-98 -61.5t-31 -209.5zM565 -412q332 0 332 133q0 101 -154 101l-329 2
q-61 -4 -93 -34.5t-32 -76.5q0 -63 61.5 -94t214.5 -31z" />
    <glyph glyph-name="Gdotaccent" unicode="&#x120;" horiz-adv-x="1497" 
d="M856 1444q-66 0 -108.5 38t-42.5 99t42.5 99t108.5 38q68 0 110 -38t42 -99q0 -62 -42 -99.5t-110 -37.5zM1360 -31q-13 0 -19 25q-15 69 -84 69q-67 0 -200 -43t-234 -43q-325 0 -532 177t-207 471q0 306 219 495t553 189q113 0 238 -41t139 -41q26 0 38 13.5t17 45.5
q6 32 23 33q15 -2 16 -25q0 -230 29 -413q3 -21 7.5 -40t6.5 -28.5t2 -11.5q0 -15 -16 -15q-10 0 -19 19q-132 258 -241 364q-107 107 -244 107q-57 0 -100 -15.5t-82 -58t-63.5 -114.5t-39 -188t-14.5 -275q3 -357 65 -490q64 -135 218 -135q137 0 137 156v110
q0 122 -12 152q-11 32 -68 57q-39 17 -39 29t14 12q1 0 22 -1.5t54 -3.5t69.5 -4t76 -3.5t67.5 -1.5q33 0 78 1.5t86.5 3.5t78 4t59.5 3.5t24 1.5q14 0 14 -12q0 -5 -6 -9t-21.5 -10t-25.5 -12q-49 -26 -58 -67q-10 -48 -10 -207v-199q0 -31 -16 -31z" />
    <glyph glyph-name="gdotaccent" unicode="&#x121;" horiz-adv-x="1093" 
d="M492 1016q-67 0 -108.5 37.5t-41.5 99.5q0 61 42 99t108 38q69 0 110 -37.5t41 -99.5q0 -63 -41.5 -100t-109.5 -37zM700 100q201 0 295.5 -60t94.5 -185q0 -295 -529 -295q-252 0 -368.5 35t-116.5 110q0 100 176 127q-184 30 -184 186q0 188 305 218
q-140 31 -219.5 107t-79.5 181q0 138 129 221q131 82 342 82q59 0 112 -6q23 115 93 176.5t151 61.5q68 0 108 -36.5t40 -94.5q0 -52 -34.5 -86.5t-88.5 -34.5q-90 0 -111 88q-6 23 -11.5 29t-17.5 6q-24 0 -49 -32.5t-37 -82.5q148 -30 232 -106t84 -185q0 -141 -131 -223
t-340 -82h-19q-134 0 -185.5 -14.5t-51.5 -50.5q0 -54 104 -54h307zM416 524q1 -148 31 -210t98 -62t98 62t31 210q-1 148 -31 209.5t-98 61.5t-98 -61.5t-31 -209.5zM565 -412q332 0 332 133q0 101 -154 101l-329 2q-61 -4 -93 -34.5t-32 -76.5q0 -63 61.5 -94t214.5 -31z
" />
    <glyph glyph-name="Gcommaaccent" unicode="&#x122;" horiz-adv-x="1497" 
d="M1360 -31q-13 0 -19 25q-15 69 -84 69q-67 0 -200 -43t-234 -43q-325 0 -532 177t-207 471q0 306 219 495t553 189q113 0 238 -41t139 -41q26 0 38 13.5t17 45.5q6 32 23 33q15 -2 16 -25q0 -230 29 -413q3 -21 7.5 -40t6.5 -28.5t2 -11.5q0 -15 -16 -15q-10 0 -19 19
q-132 258 -241 364q-107 107 -244 107q-57 0 -100 -15.5t-82 -58t-63.5 -114.5t-39 -188t-14.5 -275q3 -357 65 -490q64 -135 218 -135q137 0 137 156v110q0 122 -12 152q-11 32 -68 57q-39 17 -39 29t14 12q1 0 22 -1.5t54 -3.5t69.5 -4t76 -3.5t67.5 -1.5q33 0 78 1.5
t86.5 3.5t78 4t59.5 3.5t24 1.5q14 0 14 -12q0 -5 -6 -9t-21.5 -10t-25.5 -12q-49 -26 -58 -67q-10 -48 -10 -207v-199q0 -31 -16 -31zM731 -516q-18 0 -18 16q0 14 18 17q66 15 125 71q57 51 57 117q0 19 -14 19l-29 -20q-28 -21 -51 -21q-44 0 -77 33t-33 83q0 53 35 86
t90 33q62 0 99.5 -42.5t37.5 -115.5q0 -61 -22.5 -111.5t-54.5 -80t-68 -49.5t-60.5 -27.5t-34.5 -7.5z" />
    <glyph glyph-name="gcommaaccent" unicode="&#x123;" horiz-adv-x="1093" 
d="M487 940q-62 0 -99.5 42.5t-37.5 115.5q0 61 22.5 111.5t54.5 80t68 49.5t60.5 27.5t34.5 7.5q18 0 18 -16q0 -14 -18 -17q-66 -15 -125 -71q-57 -51 -57 -117q0 -18 14 -18l28 21q29 20 52 20q44 0 77 -33.5t33 -83.5q0 -53 -35 -86t-90 -33zM700 100q201 0 295.5 -60
t94.5 -185q0 -295 -529 -295q-252 0 -368.5 35t-116.5 110q0 100 176 127q-184 30 -184 186q0 188 305 218q-140 31 -219.5 107t-79.5 181q0 138 129 221q131 82 342 82q59 0 112 -6q23 115 93 176.5t151 61.5q68 0 108 -36.5t40 -94.5q0 -52 -34.5 -86.5t-88.5 -34.5
q-90 0 -111 88q-6 23 -11.5 29t-17.5 6q-24 0 -49 -32.5t-37 -82.5q148 -30 232 -106t84 -185q0 -141 -131 -223t-340 -82h-19q-134 0 -185.5 -14.5t-51.5 -50.5q0 -54 104 -54h307zM416 524q1 -148 31 -210t98 -62t98 62t31 210q-1 148 -31 209.5t-98 61.5t-98 -61.5
t-31 -209.5zM565 -412q332 0 332 133q0 101 -154 101l-329 2q-61 -4 -93 -34.5t-32 -76.5q0 -63 61.5 -94t214.5 -31z" />
    <glyph glyph-name="Hbar" unicode="&#x126;" horiz-adv-x="1775" 
d="M1677 934h-112q-2 -51 -2 -289q0 -468 20 -541q14 -54 62 -75q38 -20 38 -31q0 -12 -14 -12q-1 0 -24 1.5t-59.5 3.5t-78 4t-86.5 3.5t-78 1.5q-32 0 -76.5 -1.5t-85.5 -3.5t-77.5 -4t-59.5 -3.5t-24 -1.5q-14 0 -14 12q0 11 38 31q37 17 52 58.5t20 135.5q5 74 8 324
q-3 55 -41 63q-46 11 -196 11q-145 0 -195 -11q-36 -9 -39 -63l6 -324q6 -93 21 -137q16 -42 53 -57q39 -20 39 -31q0 -12 -14 -12q-1 0 -24 1.5t-59.5 3.5t-78 4t-86 3.5t-76.5 1.5q-33 0 -78 -1.5t-86.5 -3.5t-77.5 -4t-59 -3.5t-24 -1.5q-15 0 -15 12q0 11 39 31
q48 22 62 71q20 90 20 545q0 238 -2 289h-115q-17 0 -17 24.5t17 24.5h115q-3 154 -20 211q-15 50 -60 70q-40 18 -38 33q1 8 14 8q1 0 24 -1.5t59 -3.5t77.5 -4.5t86.5 -4t78 -1.5q32 0 76.5 1.5t86 4t78 4.5t59.5 3.5t24 1.5q14 0 14 -9q0 -15 -39 -32q-46 -21 -61 -68
q-14 -43 -17 -213h467q-3 167 -18 213q-15 48 -60 68q-40 18 -38 33q1 8 14 8q1 0 24 -1.5t59.5 -3.5t77.5 -4.5t85.5 -4t76.5 -1.5q33 0 78 1.5t86.5 4t78 4.5t59.5 3.5t24 1.5q15 0 14 -10q-1 -14 -36 -30q-1 -1 -2 -1q-47 -21 -62 -70q-15 -50 -18 -211h112
q17 0 17 -24.5t-17 -24.5zM1124 737q0 160 -2 197h-467q-2 -37 -2 -197q3 -57 39 -69q50 -11 195 -11q150 0 196 11q38 11 41 69z" />
    <glyph glyph-name="hbar" unicode="&#x127;" horiz-adv-x="1341" 
d="M1262 29q32 -19 32 -31t-14 -12q-33 0 -117 8q-95 6 -153 6q-64 0 -158 -6q-84 -8 -96 -8q-15 0 -15 12t37 33q32 25 41 63q8 33 8 158v387q0 119 -86 119q-81 0 -134.5 -102.5t-53.5 -276.5q0 -198 12 -262q12 -66 68 -90q8 -4 17.5 -7.5t13 -5t6 -4.5t2.5 -10
q0 -14 -17 -14q-21 0 -114 8q-105 6 -170 6q-28 0 -67.5 -1.5t-76 -3.5t-69 -4t-53 -3.5t-21.5 -1.5q-16 0 -16 12q0 17 34 27q55 27 70 118q16 101 16 398v229q0 135 -2 166h-170q-17 0 -17 24.5t17 24.5h166q-6 84 -26 123.5t-72 75.5q-10 10 -20 15.5t-13.5 8.5t-3.5 11
q0 16 27 16q237 0 467 84l24 10q13 0 13 -12l-1 -3q-1 -4 -2.5 -11.5t-3 -19t-3.5 -28t-4.5 -35.5t-4 -44t-3 -52t-2.5 -60.5t-1 -68.5v-10h221q17 0 17 -24.5t-17 -24.5h-221v-332q64 223 299 223q178 0 259 -83.5t81 -264.5v-227q0 -116 10 -158q12 -37 60 -65z" />
    <glyph glyph-name="Itilde" unicode="&#x128;" horiz-adv-x="911" 
d="M164 1456q-17 0 -17 23q0 127 43.5 204.5t128.5 77.5q58 0 189 -49q121 -47 158 -47q55 0 73 82q3 15 13 21t19 0t9 -21q0 -104 -41 -188q-41 -80 -118 -80q-62 0 -175 43q-112 47 -159 47q-40 0 -64 -20.5t-37 -69.5q-3 -23 -22 -23zM131 -12q-14 0 -14 10q1 14 39 33
q47 21 61 71q21 89 21 543q0 467 -21 543q-16 56 -61 76q-40 18 -39 33q1 8 14 8q1 0 24 -1.5t59.5 -3.5t78 -4.5t86.5 -4t78 -1.5q32 0 76.5 1.5t85.5 4t77.5 4.5t59.5 3.5t24 1.5q15 0 14 -10q-1 -14 -38 -31q-58 -27 -70 -119q-10 -102 -10 -500q0 -468 20 -541
q12 -51 60 -73q46 -23 37 -38q-3 -5 -13 -5q-1 0 -24 1.5t-59.5 3.5t-77.5 4t-85.5 3.5t-76.5 1.5q-33 0 -78 -1.5t-86.5 -3.5t-78 -4t-59.5 -3.5t-24 -1.5z" />
    <glyph glyph-name="itilde" unicode="&#x129;" horiz-adv-x="737" 
d="M39 987q-16 0 -16 23q0 127 43.5 204.5t128.5 77.5q57 0 188 -49q121 -47 158 -47q55 0 73 82q3 15 13 21t19 0t9 -21q0 -104 -41 -188q-41 -80 -118 -80q-61 0 -174 43q-112 47 -160 47q-40 0 -64 -20.5t-37 -69.5q-3 -23 -22 -23zM76 -14q-15 0 -15 12q0 4 2.5 7.5
t6.5 5.5t13 7.5t17 10.5q54 28 66 88q14 60 14 237v78q0 139 -17.5 205t-60.5 92q-37 25 -41 33q0 12 27 12q148 4 263 18.5t165 30.5q47 15 51 15q17 0 17 -15q0 -4 -4.5 -15.5t-11 -28t-9.5 -29.5q-14 -55 -14 -297v-76q0 -182 20 -252q21 -69 88 -105q25 -12 25 -20
q0 -14 -14 -14q-1 0 -23 1.5t-56 3.5t-72.5 4t-79 3.5t-68.5 1.5q-29 0 -69 -1.5t-76.5 -3.5t-68.5 -4t-53 -3.5t-22 -1.5z" />
    <glyph glyph-name="Imacron" unicode="&#x12a;" horiz-adv-x="911" 
d="M182 1663q4 0 18 -0.5t41.5 -1.5t53.5 -2q132 -4 147 -4q18 0 170 4q32 1 63.5 2t47.5 1.5t22 0.5q22 0 30 -16t5 -35.5t-12 -36.5q-13 -23 -33 -23q-80 0 -143 2q-24 1 -54.5 2t-50.5 2t-34 1t-64 -2t-84 -3q-72 -2 -133 -2q-37 0 -37 37q0 74 47 74zM131 -12
q-14 0 -14 10q1 14 39 33q47 21 61 71q21 89 21 543q0 467 -21 543q-16 56 -61 76q-40 18 -39 33q1 8 14 8q1 0 24 -1.5t59.5 -3.5t78 -4.5t86.5 -4t78 -1.5q32 0 76.5 1.5t85.5 4t77.5 4.5t59.5 3.5t24 1.5q15 0 14 -10q-1 -14 -38 -31q-58 -27 -70 -119q-10 -102 -10 -500
q0 -468 20 -541q12 -51 60 -73q46 -23 37 -38q-3 -5 -13 -5q-1 0 -24 1.5t-59.5 3.5t-77.5 4t-85.5 3.5t-76.5 1.5q-33 0 -78 -1.5t-86.5 -3.5t-78 -4t-59.5 -3.5t-24 -1.5z" />
    <glyph glyph-name="imacron" unicode="&#x12b;" horiz-adv-x="737" 
d="M63 1159q4 0 18 -0.5t41.5 -1.5t53.5 -2q132 -4 148 -4q18 0 170 4q32 1 63.5 2t47.5 1.5t22 0.5q22 0 30 -16t4.5 -35.5t-12.5 -36.5q-13 -22 -33 -22q-80 0 -143 2q-122 4 -139 4q-4 0 -148 -4q-72 -2 -133 -2q-37 0 -37 36q0 74 47 74zM76 -14q-15 0 -15 12
q0 4 2.5 7.5t6.5 5.5t13 7.5t17 10.5q54 28 66 88q14 60 14 237v78q0 139 -17.5 205t-60.5 92q-37 25 -41 33q0 12 27 12q148 4 263 18.5t165 30.5q47 15 51 15q17 0 17 -15q0 -4 -4.5 -15.5t-11 -28t-9.5 -29.5q-14 -55 -14 -297v-76q0 -182 20 -252q21 -69 88 -105
q25 -12 25 -20q0 -14 -14 -14q-1 0 -23 1.5t-56 3.5t-72.5 4t-79 3.5t-68.5 1.5q-29 0 -69 -1.5t-76.5 -3.5t-68.5 -4t-53 -3.5t-22 -1.5z" />
    <glyph glyph-name="Iogonek" unicode="&#x12e;" horiz-adv-x="911" 
d="M756 31q46 -23 37 -38q-3 -5 -13 -5q-2 0 -46 2.5t-110 6t-114 5.5l-14 -16q-74 -77 -74 -150q0 -112 115 -147q44 -14 79 -11q13 0 13 -10q0 -9 -8 -14q-115 -86 -263 -86q-91 0 -139.5 40t-48.5 113q0 78 66 144t206 137q-32 0 -75 -1.5t-82.5 -3.5t-74 -4t-56.5 -3.5
t-23 -1.5q-14 0 -14 10q1 14 39 33q47 21 61 71q21 89 21 543q0 467 -21 543q-16 56 -61 76q-40 18 -39 33q1 8 14 8q1 0 24 -1.5t59.5 -3.5t78 -4.5t86.5 -4t78 -1.5q32 0 76.5 1.5t85.5 4t77.5 4.5t59.5 3.5t24 1.5q15 0 14 -10q-1 -14 -38 -31q-58 -27 -70 -119
q-10 -102 -10 -500q0 -468 20 -541q12 -51 60 -73z" />
    <glyph glyph-name="iogonek" unicode="&#x12f;" horiz-adv-x="718" 
d="M334 918q-95 0 -155 53t-60 143q0 87 60.5 142t154.5 55q98 0 157.5 -54.5t59.5 -142.5t-60 -142t-157 -54zM643 18q25 -12 25 -20q0 -14 -15 -14q-2 0 -33.5 2t-80.5 5t-86 5l-29 -33q-74 -77 -74 -149q0 -113 115 -148q41 -13 80 -10q12 0 12 -10t-8 -15
q-115 -86 -262 -86q-91 0 -140 40.5t-49 113.5q0 82 74 152t234 147h-52q-28 0 -67.5 -1.5t-76.5 -3.5t-69.5 -4t-53 -3.5t-21.5 -1.5q-15 0 -15 12q0 4 2.5 7.5t6.5 5.5t13 7.5t17 10.5q54 28 66 88q14 60 14 237v78q0 139 -17.5 205t-60.5 92q-37 25 -41 33q0 12 27 12
q148 4 263 18.5t165 30.5q47 15 51 15q16 0 16 -15q0 -4 -4 -15.5t-10.5 -28t-9.5 -29.5q-14 -55 -14 -297v-76q0 -182 20 -252q21 -69 88 -105z" />
    <glyph glyph-name="Idot" unicode="&#x130;" horiz-adv-x="911" 
d="M457 1444q-67 0 -109.5 38t-42.5 99t42.5 99t109.5 38q68 0 109.5 -38t41.5 -99q0 -63 -41.5 -100t-109.5 -37zM131 -12q-14 0 -14 10q1 14 39 33q47 21 61 71q21 89 21 543q0 467 -21 543q-16 56 -61 76q-40 18 -39 33q1 8 14 8q1 0 24 -1.5t59.5 -3.5t78 -4.5t86.5 -4
t78 -1.5q32 0 76.5 1.5t85.5 4t77.5 4.5t59.5 3.5t24 1.5q15 0 14 -10q-1 -14 -38 -31q-58 -27 -70 -119q-10 -102 -10 -500q0 -468 20 -541q12 -51 60 -73q46 -23 37 -38q-3 -5 -13 -5q-1 0 -24 1.5t-59.5 3.5t-77.5 4t-85.5 3.5t-76.5 1.5q-33 0 -78 -1.5t-86.5 -3.5
t-78 -4t-59.5 -3.5t-24 -1.5z" />
    <glyph glyph-name="dotlessi" unicode="&#x131;" horiz-adv-x="737" 
d="M76 -14q-15 0 -15 12q0 4 2.5 7.5t6.5 5.5t13 7.5t17 10.5q54 28 66 88q14 60 14 237v78q0 139 -17.5 205t-60.5 92q-37 25 -41 33q0 12 27 12q148 4 263 18.5t165 30.5q47 15 51 15q17 0 17 -15q0 -4 -4.5 -15.5t-11 -28t-9.5 -29.5q-14 -55 -14 -297v-76
q0 -182 20 -252q21 -69 88 -105q25 -12 25 -20q0 -14 -14 -14q-1 0 -23 1.5t-56 3.5t-72.5 4t-79 3.5t-68.5 1.5q-29 0 -69 -1.5t-76.5 -3.5t-68.5 -4t-53 -3.5t-22 -1.5z" />
    <glyph glyph-name="IJ" unicode="&#x132;" horiz-adv-x="1632" 
d="M166 600q-14 0 -14 12q0 11 38 31q36 8 48 18t22 44q10 42 10 86q2 33 2 161q0 156 -6 209q-3 56 -18 74q-17 21 -58 29q-40 18 -38 33q1 8 14 8q1 0 24 -1.5t59.5 -3.5t78 -4.5t86.5 -4t78 -1.5q29 0 69.5 1.5t78 4t70.5 4.5t54 3.5t22 1.5q15 0 14 -11q-1 -14 -36 -27
l-2 -1q-32 -14 -41 -39q-10 -45 -10 -275q0 -204 6 -250q9 -47 45 -61q40 -18 38 -33q-3 -7 -14 -8q-1 0 -22 1.5t-54.5 3.5t-71.5 4t-78 3.5t-68 1.5q-33 0 -78 -1.5t-86.5 -3.5t-78 -4t-59.5 -3.5t-24 -1.5zM774 -31q-145 0 -249.5 26.5t-178.5 92.5q-76 70 -76 176
q0 86 54.5 144.5t134.5 58.5q68 0 110.5 -35.5t42.5 -87.5q0 -43 -41 -102q-39 -56 -39 -109q0 -57 53.5 -91t149.5 -34q123 0 190.5 105t67.5 301v544q-3 161 -14 209q-8 48 -57 97q-29 19 -29 28q0 13 14 13q1 0 22.5 -1.5t55.5 -3.5t73 -4.5t81 -4t73 -1.5q32 0 76.5 1.5
t86 4t78 4.5t59.5 3.5t24 1.5q14 0 14 -9q0 -15 -39 -32q-50 -33 -65 -88q-11 -48 -14 -222v-364q0 -168 -53.5 -294t-151.5 -196q-182 -131 -453 -131z" />
    <glyph glyph-name="ij" unicode="&#x133;" horiz-adv-x="1361" 
d="M1038 948q-95 0 -155 53.5t-60 143.5q0 87 60.5 141.5t154.5 54.5q98 0 157.5 -54t59.5 -142t-60 -142.5t-157 -54.5zM334 918q-95 0 -155 53t-60 143q0 87 60.5 142t154.5 55q98 0 157.5 -54.5t59.5 -142.5t-60 -142t-157 -54zM66 -16q-15 0 -15 12q0 4 2.5 7.5t6.5 5.5
t13 7.5t17 10.5q54 28 66 88q14 60 14 237v78q0 139 -17.5 205t-60.5 92q-37 25 -41 33q0 12 27 12q148 4 263 18.5t165 30.5q47 15 51 15q16 0 16 -15q0 -4 -4 -15.5t-10.5 -28t-9.5 -29.5q-14 -55 -14 -297v-76q0 -182 20 -252q21 -69 88 -105q25 -12 25 -20
q0 -14 -15 -14q-1 0 -23 1.5t-56 3.5t-72.5 4t-79 3.5t-68.5 1.5t-67.5 -1.5t-76.5 -3.5t-69.5 -4t-53 -3.5t-21.5 -1.5zM850 -440q-93 0 -153 53t-62 133q-1 62 35.5 99.5t93.5 37.5q55 0 86 -29t45 -92q27 -129 96 -129q29 0 48.5 19.5t19.5 50.5q0 65 -90 178
q-38 47 -64 124t-26 157v252q0 139 -17.5 205t-60.5 92q-38 25 -41 32q0 13 26 13q54 1 105 4t91.5 7t77.5 9t65 10t51.5 9.5t40 9t28 7.5t17.5 5l6 2q16 0 16 -14q0 -4 -4 -15.5t-10.5 -28.5t-9.5 -30q-18 -73 -15 -297v-274q-3 -600 -395 -600z" />
    <glyph glyph-name="Kcommaaccent" unicode="&#x136;" horiz-adv-x="1601" 
d="M1538 55q43 -46 43 -53q0 -14 -18 -14q-5 0 -93 6t-141 6q-108 0 -258 -6t-156 -6q-12 0 -12 12q0 9 25 25q24 21 24 34q0 33 -57 179q-66 172 -127 297q-17 33 -34.5 30.5t-57.5 -47.5l-35 -35q3 -291 14 -358q16 -74 66 -94q46 -23 37 -38q-3 -5 -13 -5q-1 0 -24 1.5
t-59.5 3.5t-77.5 4t-85.5 3.5t-76.5 1.5q-33 0 -78 -1.5t-86.5 -3.5t-78 -4t-59.5 -3.5t-24 -1.5q-14 0 -14 10q1 14 39 33q47 21 61 71q21 89 21 543q0 467 -21 543q-16 56 -61 76q-40 18 -39 33q1 8 14 8q1 0 24 -1.5t59.5 -3.5t78 -4.5t86.5 -4t78 -1.5q32 0 76.5 1.5
t85.5 4t77.5 4.5t59.5 3.5t24 1.5q15 0 14 -10q-1 -14 -38 -31q-58 -27 -70 -119q-10 -102 -10 -500v-123l285 303q82 86 132 180.5t50 147.5q0 70 -96 117q-19 10 -19 18q0 15 21 15q1 0 24 -1.5t59 -3.5t77 -3.5t85 -3t74 -1.5q28 0 74 3t81 7l34 3q12 0 12 -10
q1 -15 -31 -22q-1 -1 -2 -1q-148 -35 -325 -221l-144 -152q123 -272 277 -520q147 -237 229 -322zM764 -82q62 0 99.5 -42.5t37.5 -115.5q0 -61 -22.5 -111.5t-54 -80t-67.5 -49.5t-60.5 -27.5t-34.5 -7.5q-19 0 -19 16q0 14 19 17q64 14 124 71q58 52 58 117q0 19 -15 19
l-28 -20q-28 -21 -51 -21q-44 0 -77.5 33t-33.5 83q0 53 35 86t90 33z" />
    <glyph glyph-name="kcommaaccent" unicode="&#x137;" horiz-adv-x="1335" 
d="M1274 39q9 -9 17.5 -16t13 -10t7.5 -7t3 -8q0 -12 -17 -12q-1 0 -16.5 1.5t-40.5 3.5t-54 4t-63 3.5t-63 1.5q-77 0 -176 -8l-113 -6q-14 0 -14 12q0 3 21.5 24t21.5 31q0 44 -174 303q-24 41 -39 41q-8 0 -25 -10l-16 -10q0 -196 12 -260q12 -66 68 -90q8 -4 17.5 -7.5
t13 -5t6 -4.5t2.5 -10q0 -14 -17 -14q-21 0 -114 8q-105 6 -170 6q-28 0 -67.5 -1.5t-76 -3.5t-69 -4t-53 -3.5t-21.5 -1.5q-17 0 -17 12q0 17 35 27q55 27 70 118q16 101 16 398v229q0 226 -18 297q-15 70 -86 117q-10 10 -20 15.5t-13.5 8.5t-3.5 11q0 16 27 16
q39 0 76.5 1.5t72.5 6t63.5 8.5t60 11t51.5 11.5t47.5 13t38 12t34 11.5t25.5 9l22 10q12 0 12 -12l-1 -3q-1 -4 -2 -11.5t-3 -19t-4 -28t-4 -35.5t-4 -44t-3 -52t-2 -60.5t-1 -68.5v-581q219 150 274 198q68 59 68 97q0 36 -66 67q-39 17 -39 27t15 10l84 -6q73 -8 125 -8
q36 0 112 6q77 6 86 6q17 0 17 -12q0 -16 -76 -31q-84 -15 -258 -143l-29 -21q207 -314 414 -565zM733 -82q62 0 99.5 -42.5t37.5 -115.5q0 -61 -22.5 -111.5t-54 -80t-67.5 -49.5t-60.5 -27.5t-34.5 -7.5q-19 0 -19 16q0 14 19 17q66 15 125 71q57 51 57 117q0 19 -14 19
l-29 -20q-28 -21 -51 -21q-44 0 -77.5 33t-33.5 83q0 53 35 86t90 33z" />
    <glyph glyph-name="Lacute" unicode="&#x139;" horiz-adv-x="1396" 
d="M152 1462q-9 0 -9 11q0 3 9 12q236 166 356 241q89 56 139 56q43 0 67.5 -22.5t24.5 -63.5q0 -43 -27 -70t-98 -51q-245 -76 -452 -111q-1 0 -5 -1t-5 -1zM754 1305q14 0 14 -13q0 -10 -47 -28q-43 -20 -59 -74q-21 -88 -21 -574q0 -298 6 -393q6 -92 25 -129
q30 -59 157 -59q353 0 455 532q3 33 23 33q15 0 12 -33q-43 -319 -43 -465q0 -32 9 -52.5t20.5 -26.5t20.5 -12t9 -13q0 -12 -14 -12h-9q-9 0 -26.5 0.5t-41 1t-59 1t-73.5 1.5q-137 2 -373 2q-237 0 -397 -2q-71 -1 -131.5 -2t-87.5 -2h-27q-14 0 -14 12q0 11 39 25
q31 16 45 32q15 18 24 90q11 86 11 164q2 63 2 307q0 488 -21 570q-16 57 -61 78q-40 18 -39 33q1 8 14 8l10 -1q11 -1 28.5 -2t40.5 -2.5t51.5 -3.5t57.5 -3t61.5 -2t60.5 -1q39 0 88.5 1.5t93 4t81 4.5t61 3.5t24.5 1.5z" />
    <glyph glyph-name="lacute" unicode="&#x13a;" horiz-adv-x="745" 
d="M49 1462q-8 0 -8 11q0 4 8 12q228 160 357 241q89 56 139 56q43 0 67.5 -22.5t24.5 -63.5q0 -43 -27 -70t-98 -51q-244 -76 -453 -111q-1 0 -5 -1t-5 -1zM86 -14q-14 0 -14 12q0 14 34 35q57 37 72 125t15 374v238q0 223 -19 297q-15 70 -86 117q-10 10 -20 15.5
t-13.5 8.5t-3.5 11q0 16 27 16q237 0 467 84l24 10q13 0 13 -12l-1 -3q-1 -4 -2.5 -11.5t-3 -19t-3.5 -28t-4.5 -35.5t-4 -44t-3 -52t-2.5 -60.5t-1 -68.5v-463q0 -259 16 -360q18 -94 86 -141q35 -21 35 -33t-14 -12l-117 6q-104 8 -188 8q-28 0 -67.5 -1.5t-76.5 -3.5
t-70 -4t-53.5 -3.5t-21.5 -1.5z" />
    <glyph glyph-name="Lcommaaccent" unicode="&#x13b;" horiz-adv-x="1396" 
d="M754 1305q14 0 14 -13q0 -10 -47 -28q-43 -20 -59 -74q-21 -88 -21 -574q0 -298 6 -393q6 -92 25 -129q30 -59 157 -59q353 0 455 532q3 33 23 33q15 0 12 -33q-43 -319 -43 -465q0 -32 9 -52.5t20.5 -26.5t20.5 -12t9 -13q0 -12 -14 -12h-9q-9 0 -26.5 0.5t-41 1t-59 1
t-73.5 1.5q-137 2 -373 2q-237 0 -397 -2q-71 -1 -131.5 -2t-87.5 -2h-27q-14 0 -14 12q0 11 39 25q31 16 45 32q15 18 24 90q11 86 11 164q2 63 2 307q0 488 -21 570q-16 57 -61 78q-40 18 -39 33q1 8 14 8l10 -1q11 -1 28.5 -2t40.5 -2.5t51.5 -3.5t57.5 -3t61.5 -2
t60.5 -1q39 0 88.5 1.5t93 4t81 4.5t61 3.5t24.5 1.5zM602 -516q-18 0 -18 16q0 14 18 17q66 15 125 71q57 51 57 117q0 19 -14 19l-28 -20q-29 -21 -52 -21q-44 0 -77 33t-33 83q0 53 35 86t90 33q62 0 99.5 -42.5t37.5 -115.5q0 -61 -22.5 -111.5t-54.5 -80t-68 -49.5
t-60.5 -27.5t-34.5 -7.5z" />
    <glyph glyph-name="lcommaaccent" unicode="&#x13c;" horiz-adv-x="745" 
d="M86 -14q-14 0 -14 12q0 14 34 35q57 37 72 125t15 374v238q0 223 -19 297q-15 70 -86 117q-10 10 -20 15.5t-13.5 8.5t-3.5 11q0 16 27 16q237 0 467 84l24 10q13 0 13 -12l-1 -3q-1 -4 -2.5 -11.5t-3 -19t-3.5 -28t-4.5 -35.5t-4 -44t-3 -52t-2.5 -60.5t-1 -68.5v-463
q0 -259 16 -360q18 -94 86 -141q35 -21 35 -33t-14 -12l-117 6q-104 8 -188 8q-28 0 -67.5 -1.5t-76.5 -3.5t-70 -4t-53.5 -3.5t-21.5 -1.5zM291 -516q-19 0 -19 16q0 14 19 17q66 15 125 71q57 51 57 117q0 19 -14 19l-29 -20q-28 -21 -51 -21q-44 0 -77.5 33t-33.5 83
q0 53 35 86t90 33q62 0 99.5 -42.5t37.5 -115.5q0 -61 -22.5 -111.5t-54 -80t-67.5 -49.5t-60.5 -27.5t-34.5 -7.5z" />
    <glyph glyph-name="Lcaron" unicode="&#x13d;" horiz-adv-x="1396" 
d="M891 897q-19 0 -19 16q0 14 19 17q64 14 125 69q57 54 57 119q0 19 -14 19l-29 -21q-28 -20 -51 -20q-44 0 -77.5 33t-33.5 83q0 53 35 86t90 33q62 0 99.5 -42t37.5 -115q0 -61 -22.5 -111.5t-54 -80t-67.5 -50t-60.5 -28t-34.5 -7.5zM754 1305q14 0 14 -13
q0 -10 -47 -28q-43 -20 -59 -74q-21 -88 -21 -574q0 -298 6 -393q6 -92 25 -129q30 -59 157 -59q353 0 455 532q3 33 23 33q15 0 12 -33q-43 -319 -43 -465q0 -32 9 -52.5t20.5 -26.5t20.5 -12t9 -13q0 -12 -14 -12h-9q-9 0 -26.5 0.5t-41 1t-59 1t-73.5 1.5q-137 2 -373 2
q-237 0 -397 -2q-71 -1 -131.5 -2t-87.5 -2h-27q-14 0 -14 12q0 11 39 25q31 16 45 32q15 18 24 90q11 86 11 164q2 63 2 307q0 488 -21 570q-16 57 -61 78q-40 18 -39 33q1 8 14 8l10 -1q11 -1 28.5 -2t40.5 -2.5t51.5 -3.5t57.5 -3t61.5 -2t60.5 -1q39 0 88.5 1.5t93 4
t81 4.5t61 3.5t24.5 1.5z" />
    <glyph glyph-name="lcaron" unicode="&#x13e;" horiz-adv-x="745" 
d="M86 -14q-14 0 -14 12q0 14 34 35q57 37 72 125t15 374v238q0 223 -19 297q-15 70 -86 117q-10 10 -20 15.5t-13.5 8.5t-3.5 11q0 16 27 16q237 0 467 84l24 10q13 0 13 -12l-1 -3q-1 -4 -2.5 -11.5t-3 -19t-3.5 -28t-4.5 -35.5t-4 -44t-3 -52t-2.5 -60.5t-1 -68.5v-463
q0 -259 16 -360q18 -94 86 -141q35 -21 35 -33t-14 -12l-117 6q-104 8 -188 8q-28 0 -67.5 -1.5t-76.5 -3.5t-70 -4t-53.5 -3.5t-21.5 -1.5zM711 877q-19 0 -19 16q0 13 19 16q62 14 125 70q57 54 57 119q0 18 -14 18l-29 -20q-28 -21 -51 -21q-44 0 -77.5 33.5t-33.5 83.5
q0 53 35 86t90 33q62 0 99.5 -42.5t37.5 -115.5q0 -61 -22.5 -111.5t-54 -80t-67.5 -49.5t-60.5 -27.5t-34.5 -7.5z" />
    <glyph glyph-name="Ldot" unicode="&#x13f;" horiz-adv-x="1396" 
d="M754 1305q14 0 14 -13q0 -10 -47 -28q-43 -20 -59 -74q-21 -88 -21 -574q0 -298 6 -393q6 -92 25 -129q30 -59 157 -59q353 0 455 532q3 33 23 33q15 0 12 -33q-43 -319 -43 -465q0 -32 9 -52.5t20.5 -26.5t20.5 -12t9 -13q0 -12 -14 -12h-9q-9 0 -26.5 0.5t-41 1t-59 1
t-73.5 1.5q-137 2 -373 2q-237 0 -397 -2q-71 -1 -131.5 -2t-87.5 -2h-27q-14 0 -14 12q0 11 39 25q31 16 45 32q15 18 24 90q11 86 11 164q2 63 2 307q0 488 -21 570q-16 57 -61 78q-40 18 -39 33q1 8 14 8l10 -1q11 -1 28.5 -2t40.5 -2.5t51.5 -3.5t57.5 -3t61.5 -2
t60.5 -1q39 0 88.5 1.5t93 4t81 4.5t61 3.5t24.5 1.5zM944 819q68 0 109 -37t41 -98t-41.5 -98t-108.5 -37q-64 0 -105.5 37t-41.5 98t40.5 98t106.5 37z" />
    <glyph glyph-name="ldot" unicode="&#x140;" horiz-adv-x="823" 
d="M86 -14q-14 0 -14 12q0 14 34 35q57 37 72 125t15 374v238q0 223 -19 297q-15 70 -86 117q-10 10 -20 15.5t-13.5 8.5t-3.5 11q0 16 27 16q237 0 467 84l24 10q13 0 13 -12l-1 -3q-1 -4 -2.5 -11.5t-3 -19t-3.5 -28t-4.5 -35.5t-4 -44t-3 -52t-2.5 -60.5t-1 -68.5v-463
q0 -259 16 -360q18 -94 86 -141q35 -21 35 -33t-14 -12l-117 6q-104 8 -188 8q-28 0 -67.5 -1.5t-76.5 -3.5t-70 -4t-53.5 -3.5t-21.5 -1.5zM756 819q68 0 108.5 -37t40.5 -98t-41.5 -98t-107.5 -37q-64 0 -106 37t-42 98t41 98t107 37z" />
    <glyph glyph-name="Lslash" unicode="&#x141;" horiz-adv-x="1396" 
d="M1276 102q0 -32 9 -52.5t20.5 -26.5t20.5 -12t9 -13q0 -12 -14 -12h-9q-9 0 -26.5 0.5t-41 1t-59 1t-73.5 1.5q-137 2 -373 2q-237 0 -397 -2q-71 -1 -131.5 -2t-87.5 -2h-27q-14 0 -14 12q0 11 39 25q34 15 47 34.5t20 77.5q10 70 13 150q2 59 2 272l-117 -45
q-12 -6 -20 -6q-19 0 -19 22q0 13 16 19l140 55v14q0 488 -21 570q-16 57 -61 78q-40 18 -39 33q1 8 14 8l10 -1q11 -1 28.5 -2t40.5 -2.5t51.5 -3.5t57.5 -3t61.5 -2t60.5 -1q39 0 88.5 1.5t93 4t81 4.5t61 3.5t24.5 1.5q14 0 14 -13q0 -10 -47 -28q-37 -17 -51.5 -53
t-20.5 -128q-5 -72 -8 -311l111 45q4 2 12 2q18 0 18 -22q0 -13 -16 -19l-125 -49v-113q0 -298 6 -393q6 -92 25 -129q30 -59 157 -59q353 0 455 532q3 33 23 33q15 0 12 -33q-43 -319 -43 -465z" />
    <glyph glyph-name="lslash" unicode="&#x142;" horiz-adv-x="712" 
d="M659 31q35 -21 35 -33t-14 -12l-117 6q-104 8 -188 8q-28 0 -67.5 -1.5t-76.5 -3.5t-70 -4t-53.5 -3.5t-21.5 -1.5q-14 0 -14 12q0 14 34 35q57 37 72 125t15 374v39l-113 -65q-19 -9 -31 6q-10 19 10 29l134 77v152q0 223 -19 297q-15 70 -86 117q-10 10 -20 15.5
t-13.5 8.5t-3.5 11q0 16 27 16q237 0 467 84l24 10q13 0 13 -12l-1 -3q-1 -4 -2.5 -11.5t-3 -19t-3.5 -28t-4.5 -35.5t-4 -44t-3 -52t-2.5 -60.5t-1 -68.5v-168l90 52q18 9 31 -7q9 -18 -10 -28l-111 -64v-248q0 -259 16 -360q18 -94 86 -141z" />
    <glyph glyph-name="Nacute" unicode="&#x143;" horiz-adv-x="1517" 
d="M502 1462q-8 0 -8 11q0 4 8 12q236 166 356 241q89 56 139 56q43 0 68 -22.5t25 -63.5q0 -43 -27 -70t-98 -51q-244 -76 -453 -111q-1 0 -5 -1t-5 -1zM1292 -53q-16 0 -43 24l-925 805q-38 35 -58 35q-14 0 -14 -25v-409q0 -167 41 -238q42 -68 160 -112q39 -14 37 -29
q-1 -10 -19 -10q-15 0 -109 6t-122 6t-113 -6q-107 -8 -116 -3q-5 2 -5 11q0 7 31 16q61 14 98 43q37 32 58 121q24 92 24 258v340q0 206 -12 289q-12 86 -49 125q-24 25 -59.5 46t-58 32.5t-22.5 17.5q0 13 13 13l57 -7q59 -6 84 -6q32 0 85 6.5t56 6.5q27 0 78 -39
q125 -96 504 -398q306 -242 367 -299q6 -6 10 -6q6 0 6 8v344q0 159 -46.5 239.5t-152.5 111.5q-39 9 -39 26q0 13 17 13q4 0 16.5 -1t41 -2.5t52.5 -3.5q95 -6 123 -6q42 0 119 6q22 2 42 3.5t28.5 2.5t9.5 1q16 0 16 -13q0 -11 -33 -20q-86 -26 -124 -103
q-35 -78 -35 -254v-936q0 -30 -19 -30z" />
    <glyph glyph-name="nacute" unicode="&#x144;" horiz-adv-x="1320" 
d="M469 930q-10 0 -10 6q0 4 8 12q208 224 274 281q70 64 119 61q38 -2 61 -24.5t23 -59.5q0 -31 -22 -54t-82 -60q-138 -77 -361 -160q-2 -2 -10 -2zM1239 29q33 -20 33 -31q0 -12 -15 -12q-32 0 -116 8q-95 6 -154 6q-63 0 -158 -6q-84 -8 -96 -8q-14 0 -14 12t37 33
q32 25 41 63q8 33 8 158v387q0 119 -86 119q-81 0 -135 -103t-54 -276v-105q0 -131 11 -188q9 -44 49 -59q40 -18 38 -33q-1 -8 -14 -8l-18 2q-19 1 -48.5 3t-63 4t-71 3.5t-65.5 1.5t-67.5 -1.5t-76 -3.5t-69 -4t-53 -3.5t-21.5 -1.5q-14 0 -14 12q0 10 37 31q58 30 70 69
q12 40 12 191v153q0 168 -14 211q-12 50 -66 72q-35 14 -39 27q0 14 19 14q48 0 113 6.5t124 15t110 17.5t82 15.5t29 6.5q15 0 15 -12l-1 -8q-1 -8 -2.5 -21t-3.5 -31l-4.5 -40.5t-4 -46t-2.5 -50t-1 -51.5q58 260 309 260q178 0 259 -83.5t81 -264.5v-227q0 -112 11 -158
q12 -38 59 -65z" />
    <glyph glyph-name="Ncommaaccent" unicode="&#x145;" horiz-adv-x="1517" 
d="M1292 -53q-16 0 -43 24l-925 805q-38 35 -58 35q-14 0 -14 -25v-409q0 -167 41 -238q42 -68 160 -112q39 -14 37 -29q-1 -10 -19 -10q-15 0 -109 6t-122 6t-113 -6q-107 -8 -116 -3q-5 2 -5 11q0 7 31 16q61 14 98 43q37 32 58 121q24 92 24 258v340q0 206 -12 289
q-12 86 -49 125q-24 25 -59.5 46t-58 32.5t-22.5 17.5q0 13 13 13l57 -7q59 -6 84 -6q32 0 85 6.5t56 6.5q27 0 78 -39q125 -96 504 -398q306 -242 367 -299q6 -6 10 -6q6 0 6 8v344q0 159 -46.5 239.5t-152.5 111.5q-39 9 -39 26q0 13 17 13q4 0 16.5 -1t41 -2.5t52.5 -3.5
q95 -6 123 -6q42 0 119 6q22 2 42 3.5t28.5 2.5t9.5 1q16 0 16 -13q0 -11 -33 -20q-86 -26 -124 -103q-35 -78 -35 -254v-936q0 -30 -19 -30zM643 -516q-18 0 -18 16q0 14 18 17q66 15 125 71q57 51 57 117q0 19 -14 19l-29 -20q-28 -21 -51 -21q-44 0 -77 33t-33 83
q0 53 34.5 86t89.5 33q62 0 100 -42.5t38 -115.5q0 -61 -22.5 -111.5t-54.5 -80t-68 -49.5t-60.5 -27.5t-34.5 -7.5z" />
    <glyph glyph-name="ncommaaccent" unicode="&#x146;" horiz-adv-x="1320" 
d="M1239 29q33 -20 33 -31q0 -12 -15 -12q-32 0 -116 8q-95 6 -154 6q-63 0 -158 -6q-84 -8 -96 -8q-14 0 -14 12t37 33q32 25 41 63q8 33 8 158v387q0 119 -86 119q-81 0 -135 -103t-54 -276v-105q0 -131 11 -188q9 -44 49 -59q40 -18 38 -33q-1 -8 -14 -8l-18 2
q-19 1 -48.5 3t-63 4t-71 3.5t-65.5 1.5t-67.5 -1.5t-76 -3.5t-69 -4t-53 -3.5t-21.5 -1.5q-14 0 -14 12q0 10 37 31q58 30 70 69q12 40 12 191v153q0 168 -14 211q-12 50 -66 72q-35 14 -39 27q0 14 19 14q48 0 113 6.5t124 15t110 17.5t82 15.5t29 6.5q15 0 15 -12l-1 -8
q-1 -8 -2.5 -21t-3.5 -31l-4.5 -40.5t-4 -46t-2.5 -50t-1 -51.5q58 260 309 260q178 0 259 -83.5t81 -264.5v-227q0 -112 11 -158q12 -38 59 -65zM700 -82q62 0 100 -42.5t38 -115.5q0 -61 -22.5 -111.5t-54.5 -80t-68 -49.5t-60.5 -27.5t-34.5 -7.5q-18 0 -18 16
q0 14 18 17q66 15 125 71q57 51 57 117q0 19 -14 19l-28 -20q-29 -21 -52 -21q-44 0 -77.5 33t-33.5 83q0 53 35 86t90 33z" />
    <glyph glyph-name="Ncaron" unicode="&#x147;" horiz-adv-x="1517" 
d="M463 1751q7 0 309 -129h4q298 129 309 129q15 0 15 -14q0 -32 -195 -230q-3 -3 -14.5 -15t-15 -15t-13.5 -12t-15 -12l-15 -9t-18 -8t-18.5 -4t-21.5 -2q-42 0 -63.5 12.5t-69.5 62.5q-192 198 -192 232q0 14 14 14zM1292 -53q-16 0 -43 24l-925 805q-38 35 -58 35
q-14 0 -14 -25v-409q0 -167 41 -238q42 -68 160 -112q39 -14 37 -29q-1 -10 -19 -10q-15 0 -109 6t-122 6t-113 -6q-107 -8 -116 -3q-5 2 -5 11q0 7 31 16q61 14 98 43q37 32 58 121q24 92 24 258v340q0 206 -12 289q-12 86 -49 125q-24 25 -59.5 46t-58 32.5t-22.5 17.5
q0 13 13 13l57 -7q59 -6 84 -6q32 0 85 6.5t56 6.5q27 0 78 -39q125 -96 504 -398q306 -242 367 -299q6 -6 10 -6q6 0 6 8v344q0 159 -46.5 239.5t-152.5 111.5q-39 9 -39 26q0 13 17 13q4 0 16.5 -1t41 -2.5t52.5 -3.5q95 -6 123 -6q42 0 119 6q22 2 42 3.5t28.5 2.5t9.5 1
q16 0 16 -13q0 -11 -33 -20q-86 -26 -124 -103q-35 -78 -35 -254v-936q0 -30 -19 -30z" />
    <glyph glyph-name="ncaron" unicode="&#x148;" horiz-adv-x="1320" 
d="M690 963q-73 0 -125 61l-174 209q-29 36 -29 47q0 14 15 14q14 0 88 -43q12 -7 87 -47.5t134 -73.5h8q220 124 258 142q33 22 52 22q14 0 14 -14q0 -10 -10.5 -24.5t-44.5 -55.5q-17 -19 -148 -176q-49 -61 -125 -61zM1239 29q33 -20 33 -31q0 -12 -15 -12q-32 0 -116 8
q-95 6 -154 6q-63 0 -158 -6q-84 -8 -96 -8q-14 0 -14 12t37 33q32 25 41 63q8 33 8 158v387q0 119 -86 119q-81 0 -135 -103t-54 -276v-105q0 -131 11 -188q9 -44 49 -59q40 -18 38 -33q-1 -8 -14 -8l-18 2q-19 1 -48.5 3t-63 4t-71 3.5t-65.5 1.5t-67.5 -1.5t-76 -3.5
t-69 -4t-53 -3.5t-21.5 -1.5q-14 0 -14 12q0 10 37 31q58 30 70 69q12 40 12 191v153q0 168 -14 211q-12 50 -66 72q-35 14 -39 27q0 14 19 14q48 0 113 6.5t124 15t110 17.5t82 15.5t29 6.5q15 0 15 -12l-1 -8q-1 -8 -2.5 -21t-3.5 -31l-4.5 -40.5t-4 -46t-2.5 -50
t-1 -51.5q58 260 309 260q178 0 259 -83.5t81 -264.5v-227q0 -112 11 -158q12 -38 59 -65z" />
    <glyph glyph-name="Eng" unicode="&#x14a;" horiz-adv-x="1677" 
d="M1034 -440q-147 0 -254 61q-104 61 -104 199q0 77 49 128.5t119 51.5q66 0 107.5 -39t41.5 -96q0 -43 -28 -101q-27 -56 -27 -77q0 -41 31 -67t80 -26q72 0 116.5 48.5t44.5 121.5q0 98 -42.5 180t-147.5 187q-247 247 -711 637q-18 18 -30 18q-15 0 -15 -24v-385
q0 -137 55 -227t152 -123q37 -12 37 -27q0 -12 -19 -12q-10 0 -112 6q-99 6 -127 6t-117 -6q-108 -8 -117 -4q-6 3 -6 12t33 18q97 15 141 86q43 70 43 273v381q0 230 -30 338q-26 105 -138 162q-41 21 -41 30q0 15 15 15q1 0 7.5 -1t21.5 -2.5t32 -3.5q78 -4 84 -4
q4 0 10.5 0.5l19.5 1.5t23 2q51 7 58 7q28 0 86 -52q73 -59 311 -270q337 -298 412 -367l229 -206q16 -13 21 -13q8 0 8 15v501q0 186 -33 248q-29 63 -149 103q-44 12 -44 26q0 13 19 13l17 -1q16 -2 41.5 -4t54 -3.5t58.5 -3t50 -1.5q50 0 127 6q76 9 84 9q14 0 14 -13
q0 -15 -39 -24q-41 -10 -62.5 -20.5t-42 -30.5t-30 -56.5t-16 -90.5t-10.5 -142v-789q0 -302 -89.5 -440.5t-271.5 -138.5z" />
    <glyph glyph-name="eng" unicode="&#x14b;" horiz-adv-x="1269" 
d="M850 827q183 0 262.5 -90t79.5 -299v-278q-3 -600 -395 -600q-93 0 -153 53t-62 133q-1 62 35.5 99.5t93.5 37.5q55 0 86 -29t45 -92q27 -129 96 -129q29 0 48.5 19.5t19.5 50.5q0 64 -91 178q-38 47 -64 124t-26 157l2 434q0 85 -24.5 121.5t-81.5 36.5q-77 0 -133 -104
t-56 -271l-2 2v-107q0 -131 11 -188q9 -44 49 -59q40 -18 38 -33q-1 -8 -14 -8l-18 2q-19 1 -48.5 3t-63 4t-71 3.5t-65.5 1.5t-67.5 -1.5t-76 -3.5t-69 -4t-53 -3.5t-21.5 -1.5q-14 0 -14 12q0 10 37 31q58 30 70 69q12 40 12 191v153q0 168 -14 211q-12 50 -66 72
q-35 14 -39 27q0 14 19 14q48 0 113 6.5t124 15t110 17.5t82 15.5t29 6.5q15 0 15 -12l-1 -8q-1 -8 -2.5 -21t-3.5 -31l-4.5 -40.5t-4 -46t-2.5 -50t-1 -51.5h2q61 260 328 260z" />
    <glyph glyph-name="Omacron" unicode="&#x14c;" horiz-adv-x="1626" 
d="M528 1552q-36 0 -36 37q0 74 47 74q4 0 18 -0.5t41 -1.5t53 -2q132 -4 148 -4q18 0 170 4q32 1 63.5 2t47.5 1.5t22 0.5q22 0 30 -16t4.5 -35.5t-12.5 -36.5q-13 -23 -32 -23q-81 0 -144 2q-24 1 -54.5 2t-50.5 2t-34 1t-63 -2t-84 -3q-72 -2 -134 -2zM1542 649
q0 -304 -207 -493q-205 -187 -522 -187t-522 187q-207 189 -207 493q0 307 205 494q204 186 524 186q318 0 522 -186q207 -189 207 -494zM1073 649q0 355 -63 502q-64 149 -197 149t-197 -149q-63 -147 -63 -502q0 -342 63 -497.5t197 -155.5t197 155.5t63 497.5z" />
    <glyph glyph-name="omacron" unicode="&#x14d;" horiz-adv-x="1163" 
d="M307 1159q4 0 18 -0.5t41.5 -1.5t53.5 -2q132 -4 147 -4q18 0 170 4q32 1 63.5 2t47.5 1.5t22 0.5q22 0 30 -16t5 -35.5t-12 -36.5q-13 -22 -33 -22q-80 0 -143 2q-122 4 -139 4q-4 0 -148 -4q-72 -2 -133 -2q-37 0 -37 36q0 74 47 74zM205 711q143 116 377 116
q231 0 374 -116q146 -119 146 -312q0 -192 -146 -311q-144 -117 -374 -117q-233 0 -377 117t-144 311q0 195 144 312zM582 0q72 3 106 84q32 76 35 315q-3 238 -35 314q-35 83 -106 86q-72 -3 -107 -86q-32 -76 -35 -314q3 -239 35 -315q34 -81 107 -84z" />
    <glyph glyph-name="Ohungarumlaut" unicode="&#x150;" horiz-adv-x="1626" 
d="M535 1407q-7 -4 -11 4q0 6 6 12q161 234 218 297q56 62 100 62q37 0 60.5 -23t23.5 -61q0 -48 -90 -117q-86 -64 -297 -172q-2 -2 -10 -2zM854 1411q0 5 6 14q142 213 211 289q62 68 109 68q38 0 64 -25.5t26 -62.5q0 -57 -74 -119q-123 -85 -319 -168q-2 -2 -11 -2
t-12 6zM1542 649q0 -304 -207 -493q-205 -187 -522 -187t-522 187q-207 189 -207 493q0 307 205 494q204 186 524 186q318 0 522 -186q207 -189 207 -494zM1073 649q0 355 -63 502q-64 149 -197 149t-197 -149q-63 -147 -63 -502q0 -342 63 -497.5t197 -155.5t197 155.5
t63 497.5z" />
    <glyph glyph-name="ohungarumlaut" unicode="&#x151;" horiz-adv-x="1163" 
d="M303 915q-6 -3 -10 5q0 6 6 12q165 239 217 297q55 61 100 61q37 0 60.5 -23t23.5 -61q0 -47 -90 -116q-86 -64 -297 -172q-3 -3 -10 -3zM635 913q-9 0 -12 7q0 5 6 14q142 213 211 289q61 67 108 67q38 0 64 -25.5t26 -62.5q0 -58 -73 -119q-122 -84 -320 -168
q-2 -2 -10 -2zM205 711q143 116 377 116q231 0 374 -116q146 -119 146 -312q0 -192 -146 -311q-144 -117 -374 -117q-233 0 -377 117t-144 311q0 195 144 312zM582 0q72 3 106 84q32 76 35 315q-3 238 -35 314q-35 83 -106 86q-72 -3 -107 -86q-32 -76 -35 -314
q3 -239 35 -315q34 -81 107 -84z" />
    <glyph glyph-name="OE" unicode="&#x152;" horiz-adv-x="2131" 
d="M2036 1292q0 -4 -15 -12.5t-30 -31t-15 -60.5q0 -55 10 -146.5t20.5 -159t10.5 -63.5q0 -16 -12 -16q-13 0 -16 24q-144 443 -467 443q-70 0 -97 -41q-44 -58 -47 -465v2q0 -5 0.5 -19t0.5 -17t1 -13t2 -12t3.5 -9t6 -8t8.5 -5t11.5 -4.5t15 -1.5t19.5 -1q103 0 147 41
q45 39 101 160q3 16 14 16q8 0 8 -14q-8 -118 -8 -224q0 -35 1 -70t2 -61t2 -46t2 -32l1 -12q0 -14 -8 -14q-4 0 -14 16q-56 121 -101 160q-44 41 -147 41q-48 0 -58 -13t-10 -56v-13v2q3 -450 49 -502q29 -34 99 -35t135 29q65 26 131 92q67 64 117 183.5t73 277.5
q3 33 21 33q10 0 10 -17l-2 -15q-2 -15 -5 -43t-7 -62.5t-8.5 -82t-8.5 -93.5q-10 -137 -10 -220q0 -32 9.5 -52.5t20.5 -26.5t20.5 -12t9.5 -13q0 -12 -13 -12q-3 0 -143 1t-344 2t-361 1q-58 2 -235 -8q-166 -13 -193 -13q-286 0 -473 187q-186 186 -186 493t184 494
q186 186 473 186q51 0 248 -33h473q85 0 355 4q38 1 73.5 1.5t58 1t40 1t25.5 0.5l9 1q13 0 13 -13zM915 96q50 86 50 553q0 437 -43 547q-18 47 -62 75.5t-88 28.5q-130 0 -176 -143q-45 -136 -45 -508q0 -354 41 -506q44 -147 153 -147q113 0 170 100z" />
    <glyph glyph-name="oe" unicode="&#x153;" horiz-adv-x="1642" 
d="M1571 250q14 0 14 -12q0 -8 -6 -29q-34 -102 -145 -172q-109 -68 -234 -68q-120 0 -191.5 27.5t-142.5 95.5q-139 -121 -354 -121q-187 0 -319 117q-132 120 -132 311q0 193 132 310q130 118 319 118q216 0 352 -157q65 84 137.5 120.5t188.5 36.5q174 0 287 -94
q114 -95 114 -233q0 -94 -88 -94l-469 2v-25q0 -320 236 -320q95 0 171 44t111 122q9 21 19 21zM555 0q46 0 72 33t39.5 120.5t13.5 245.5t-13.5 245.5t-39.5 121t-72 33.5q-69 0 -96 -80q-29 -85 -29 -320q0 -234 29 -319q27 -80 96 -80zM1157 799q-68 0 -96 -75t-27 -265
l178 2q33 0 40.5 13.5t7.5 74.5q0 136 -25 193t-78 57z" />
    <glyph glyph-name="Racute" unicode="&#x154;" horiz-adv-x="1650" 
d="M541 1462q-9 0 -9 11q0 3 9 12q236 166 356 241q89 56 139 56q43 0 67.5 -22.5t24.5 -63.5q0 -44 -26.5 -70.5t-97.5 -50.5q-244 -76 -453 -111q-1 0 -5 -1t-5 -1zM1331 -76q-92 0 -198 53q-109 55 -179 113q-68 60 -155 115q-80 53 -133 53q-21 0 -21 -27
q3 -109 19 -149q15 -37 57 -53q47 -19 51 -27q2 -3 2 -6q0 -10 -14 -10q-1 0 -25.5 1.5t-63.5 3.5t-82.5 4t-89.5 3.5t-77 1.5q-33 0 -78 -1.5t-86.5 -3.5t-78 -4t-59.5 -3.5t-24 -1.5q-14 0 -14 12q0 11 39 31q47 21 61 71q21 95 21 545q0 463 -23 547q-16 53 -59 72
q-40 18 -39 33q1 8 14 8q1 0 24 -1.5t59.5 -3.5t78 -4.5t86.5 -4t78 -1.5q98 0 215 8q38 3 74 5.5t53 4t20 1.5q312 0 494 -144q180 -140 180 -364q0 -243 -172 -393q-174 -148 -424 -148q-62 0 -151 12v-4q39 -3 229 -47q188 -43 346 -43q235 0 285 182q4 11 8 11
q12 0 22.5 -39t10.5 -88q0 -131 -80 -226q-76 -94 -201 -94zM725 289q141 0 205.5 123.5t64.5 388.5q0 249 -53 364t-164 115q-95 0 -116 -47q-16 -32 -19 -127t0 -461v-321q0 -20 16.5 -27.5t65.5 -7.5z" />
    <glyph glyph-name="racute" unicode="&#x155;" horiz-adv-x="1001" 
d="M322 930q-11 0 -11 6q0 4 8 12q204 219 275 281q70 64 119 61q38 -2 61 -24.5t23 -59.5q0 -31 -22 -54t-83 -60q-140 -78 -360 -160q-2 -2 -10 -2zM805 827q85 0 130.5 -46.5t45.5 -127.5q0 -79 -37.5 -123.5t-103.5 -44.5q-52 0 -85 29t-44 63.5t-25.5 63.5t-34.5 29
q-56 0 -86 -119q-30 -117 -33 -262v-62q0 -98 23.5 -136.5t95.5 -63.5q39 -14 39 -27q0 -14 -16 -14l-58 4q-59 3 -137.5 6.5t-128.5 3.5q-28 0 -67.5 -1.5t-76.5 -3.5t-70 -4t-53.5 -3.5t-21.5 -1.5q-14 0 -14 12q0 11 39 31q56 24 68 67q14 43 14 162v270q0 98 -15 136
t-65 61q-27 8 -34 12.5t-7 14.5q0 14 21 14q176 0 413 54l29 7q16 0 16 -14l-12 -95q-11 -120 -6 -245h2q26 162 105.5 258t189.5 96z" />
    <glyph glyph-name="Rcommaaccent" unicode="&#x156;" horiz-adv-x="1650" 
d="M1331 -76q-92 0 -198 53q-109 55 -179 113q-68 60 -155 115q-80 53 -133 53q-21 0 -21 -27q3 -109 19 -149q15 -37 57 -53q47 -19 51 -27q2 -3 2 -6q0 -10 -14 -10q-1 0 -25.5 1.5t-63.5 3.5t-82.5 4t-89.5 3.5t-77 1.5q-33 0 -78 -1.5t-86.5 -3.5t-78 -4t-59.5 -3.5
t-24 -1.5q-14 0 -14 12q0 11 39 31q47 21 61 71q21 95 21 545q0 463 -23 547q-16 53 -59 72q-40 18 -39 33q1 8 14 8q1 0 24 -1.5t59.5 -3.5t78 -4.5t86.5 -4t78 -1.5q98 0 215 8q38 3 74 5.5t53 4t20 1.5q312 0 494 -144q180 -140 180 -364q0 -243 -172 -393
q-174 -148 -424 -148q-62 0 -151 12v-4q39 -3 229 -47q188 -43 346 -43q235 0 285 182q4 11 8 11q12 0 22.5 -39t10.5 -88q0 -131 -80 -226q-76 -94 -201 -94zM725 289q141 0 205.5 123.5t64.5 388.5q0 249 -53 364t-164 115q-95 0 -116 -47q-16 -32 -19 -127t0 -461v-321
q0 -20 16.5 -27.5t65.5 -7.5zM719 -516q-19 0 -19 16q0 14 19 17q66 15 125 71q57 51 57 117q0 19 -14 19l-29 -20q-28 -21 -51 -21q-44 0 -77.5 33t-33.5 83q0 53 35 86t90 33q62 0 99.5 -42.5t37.5 -115.5q0 -61 -22.5 -111.5t-54 -80t-67.5 -49.5t-60.5 -27.5t-34.5 -7.5
z" />
    <glyph glyph-name="rcommaaccent" unicode="&#x157;" horiz-adv-x="1001" 
d="M805 827q85 0 130.5 -46.5t45.5 -127.5q0 -79 -37.5 -123.5t-103.5 -44.5q-52 0 -85 29t-44 63.5t-25.5 63.5t-34.5 29q-56 0 -86 -119q-30 -117 -33 -262v-62q0 -98 23.5 -136.5t95.5 -63.5q39 -14 39 -27q0 -14 -16 -14l-58 4q-59 3 -137.5 6.5t-128.5 3.5
q-28 0 -67.5 -1.5t-76.5 -3.5t-70 -4t-53.5 -3.5t-21.5 -1.5q-14 0 -14 12q0 11 39 31q56 24 68 67q14 43 14 162v270q0 98 -15 136t-65 61q-27 8 -34 12.5t-7 14.5q0 14 21 14q176 0 413 54l29 7q16 0 16 -14l-12 -95q-11 -120 -6 -245h2q26 162 105.5 258t189.5 96z
M506 -82q62 0 99.5 -42.5t37.5 -115.5q0 -61 -22.5 -111.5t-54.5 -80t-68 -49.5t-60.5 -27.5t-34.5 -7.5q-18 0 -18 16q0 14 18 17q66 15 125 71q58 52 58 117q0 19 -15 19l-28 -20q-28 -21 -51 -21q-44 0 -77.5 33t-33.5 83q0 53 35 86t90 33z" />
    <glyph glyph-name="Rcaron" unicode="&#x158;" horiz-adv-x="1650" 
d="M500 1751q8 0 309 -129h4q298 129 309 129q15 0 15 -14q0 -32 -195 -230q-3 -3 -14.5 -15t-15 -15t-13.5 -12t-15 -12l-15 -9t-18 -8t-18.5 -4t-21.5 -2q-42 0 -63.5 12.5t-69.5 62.5q-193 199 -193 232q0 14 15 14zM1331 -76q-92 0 -198 53q-109 55 -179 113
q-68 60 -155 115q-80 53 -133 53q-21 0 -21 -27q3 -109 19 -149q15 -37 57 -53q47 -19 51 -27q2 -3 2 -6q0 -10 -14 -10q-1 0 -25.5 1.5t-63.5 3.5t-82.5 4t-89.5 3.5t-77 1.5q-33 0 -78 -1.5t-86.5 -3.5t-78 -4t-59.5 -3.5t-24 -1.5q-14 0 -14 12q0 11 39 31q47 21 61 71
q21 95 21 545q0 463 -23 547q-16 53 -59 72q-40 18 -39 33q1 8 14 8q1 0 24 -1.5t59.5 -3.5t78 -4.5t86.5 -4t78 -1.5q98 0 215 8q38 3 74 5.5t53 4t20 1.5q312 0 494 -144q180 -140 180 -364q0 -243 -172 -393q-174 -148 -424 -148q-62 0 -151 12v-4q39 -3 229 -47
q188 -43 346 -43q235 0 285 182q4 11 8 11q12 0 22.5 -39t10.5 -88q0 -131 -80 -226q-76 -94 -201 -94zM725 289q141 0 205.5 123.5t64.5 388.5q0 249 -53 364t-164 115q-95 0 -116 -47q-16 -32 -19 -127t0 -461v-321q0 -20 16.5 -27.5t65.5 -7.5z" />
    <glyph glyph-name="rcaron" unicode="&#x159;" horiz-adv-x="1001" 
d="M543 963q-73 0 -125 61l-174 209q-29 36 -29 47q0 14 14 14t88 -43q13 -7 88 -47.5t134 -73.5h8q220 124 258 142q33 22 51 22q14 0 14 -14q0 -10 -10.5 -24.5t-44.5 -55.5q-9 -10 -147 -176q-49 -61 -125 -61zM805 827q85 0 130.5 -46.5t45.5 -127.5q0 -79 -37.5 -123.5
t-103.5 -44.5q-52 0 -85 29t-44 63.5t-25.5 63.5t-34.5 29q-56 0 -86 -119q-30 -117 -33 -262v-62q0 -98 23.5 -136.5t95.5 -63.5q39 -14 39 -27q0 -14 -16 -14l-58 4q-59 3 -137.5 6.5t-128.5 3.5q-28 0 -67.5 -1.5t-76.5 -3.5t-70 -4t-53.5 -3.5t-21.5 -1.5q-14 0 -14 12
q0 11 39 31q56 24 68 67q14 43 14 162v270q0 98 -15 136t-65 61q-27 8 -34 12.5t-7 14.5q0 14 21 14q176 0 413 54l29 7q16 0 16 -14l-12 -95q-11 -120 -6 -245h2q26 162 105.5 258t189.5 96z" />
    <glyph glyph-name="Sacute" unicode="&#x15a;" horiz-adv-x="1341" 
d="M385 1462q-8 0 -8 11q0 4 8 12q236 166 356 241q89 56 140 56q43 0 67.5 -22.5t24.5 -63.5q0 -43 -27 -70t-98 -51q-244 -76 -453 -111q-1 0 -5 -1t-5 -1zM123 -10q0 26 2 73q4 94 4 132q0 27 -1 56.5t-2.5 54.5t-3 49.5t-3 43.5t-3 33t-2.5 22l-1 9q0 16 14 16t23 -22
q53 -109 101.5 -182t113.5 -138q137 -137 344 -137q119 0 189.5 58.5t70.5 156.5q0 99 -70 154q-63 54 -258 102l-104 25q-426 94 -426 411q0 196 155 303t369 107q95 0 191.5 -23.5t160 -47t78.5 -23.5q25 0 36.5 13.5t16.5 45.5q6 37 24 37q14 -2 15 -19q0 -98 8 -186
l25 -229q0 -13 -14 -12q-15 2 -21 18q-97 198 -219.5 298.5t-294.5 100.5q-115 0 -178.5 -50t-63.5 -132t60 -128t200 -79l183 -43q230 -55 332 -151t102 -271q0 -92 -33.5 -170.5t-90 -132t-130.5 -91.5t-154.5 -55.5t-162.5 -17.5q-139 0 -291 47t-174 47q-67 0 -82 -69
q-6 -27 -21 -27q-14 0 -14 23z" />
    <glyph glyph-name="sacute" unicode="&#x15b;" horiz-adv-x="1017" 
d="M279 930q-11 0 -11 6q0 4 8 12q204 219 275 281q70 64 119 61q38 -2 61 -24.5t23 -59.5q0 -31 -22 -54t-83 -60q-140 -78 -360 -160q-2 -2 -10 -2zM510 -31q-97 0 -215 33q-122 35 -125 35q-14 0 -21.5 -8.5t-13.5 -32.5q-1 -12 -8.5 -16.5t-15 0t-7.5 16.5q0 2 1 34.5
t1 59.5q0 43 -10 125q-3 21 -5.5 40.5t-3.5 28t-1 9.5q0 14 12 14q10 0 19 -20q46 -138 150.5 -212.5t240.5 -74.5q78 0 121 30.5t43 86.5q0 52 -35.5 81.5t-136.5 53.5l-140 33q-151 37 -214.5 96.5t-63.5 169.5q0 134 115 205q118 71 288 71q42 0 90 -7t86.5 -17.5
t71 -20.5t53 -17t21.5 -7q24 0 33 47q3 18 16 18q16 0 16 -20q0 -137 39 -248l2 -6q0 -14 -13 -12q-12 1 -21 18q-60 115 -162 179.5t-213 64.5q-162 0 -162 -92q0 -43 35 -68t115 -43l176 -39q148 -32 219 -97.5t71 -170.5q0 -100 -70.5 -177.5t-174.5 -111.5
q-102 -31 -203 -31z" />
    <glyph glyph-name="Scedilla" unicode="&#x15e;" horiz-adv-x="1341" 
d="M705 -31h-29l-60 -82q141 -19 198.5 -58.5t57.5 -102.5q0 -64 -60.5 -100t-152.5 -36q-55 0 -98 12.5t-59.5 24t-16.5 17.5q0 12 13 12l6 -2q6 -2 15 -4.5t19.5 -5t22.5 -4.5t21 -2q38 0 62 25.5t24 68.5q0 45 -19.5 68.5t-73.5 47.5q-12 3 -12 17q0 7 12 22l64 84
q-114 9 -244 49q-128 43 -155 43q-67 0 -82 -69q-6 -27 -21 -27q-14 0 -14 23q0 26 2 73q4 94 4 132q0 27 -1 56.5t-2.5 54.5t-3 49.5t-3 43.5t-3 33t-2.5 22l-1 9q0 16 14 16t23 -22q53 -109 101.5 -182t113.5 -138q137 -137 344 -137q119 0 189.5 58.5t70.5 156.5
q0 99 -70 154q-63 54 -258 102l-104 25q-426 94 -426 411q0 196 155 303t369 107q95 0 191.5 -23.5t160 -47t78.5 -23.5q25 0 36.5 13.5t16.5 45.5q6 37 24 37q14 -2 15 -19q0 -98 8 -186l25 -229q0 -13 -14 -12q-15 2 -21 18q-97 198 -219.5 298.5t-294.5 100.5
q-115 0 -178.5 -50t-63.5 -132t60 -128t200 -79l183 -43q230 -55 332 -151t102 -271q0 -92 -33.5 -170.5t-90 -132t-130.5 -91.5t-154.5 -55.5t-162.5 -17.5z" />
    <glyph glyph-name="scedilla" unicode="&#x15f;" horiz-adv-x="1017" 
d="M510 -31h-6l-60 -82q141 -19 198.5 -58.5t57.5 -102.5q0 -64 -60.5 -100t-152.5 -36q-55 0 -98 12.5t-59.5 24t-16.5 17.5q0 12 13 12l6 -2q6 -2 15 -4.5t19.5 -5t22.5 -4.5t21 -2q38 0 62 25.5t24 68.5q0 45 -19.5 68.5t-73.5 47.5q-12 3 -12 17q0 7 12 22l62 84
q-68 5 -184 35q-105 31 -111 31q-14 0 -21.5 -8.5t-13.5 -32.5q-1 -12 -8.5 -16.5t-15 0t-7.5 16.5q0 2 1 34.5t1 59.5q0 43 -10 125q-3 21 -5.5 40.5t-3.5 28t-1 9.5q0 14 12 14q10 0 19 -20q46 -138 150.5 -212.5t240.5 -74.5q78 0 121 30.5t43 86.5q0 52 -35.5 81.5
t-136.5 53.5l-140 33q-151 37 -214.5 96.5t-63.5 169.5q0 134 115 205q118 71 288 71q42 0 90 -7t86.5 -17.5t71 -20.5t53 -17t21.5 -7q24 0 33 47q3 18 16 18q16 0 16 -20q0 -137 39 -248l2 -6q0 -14 -13 -12q-12 1 -21 18q-60 115 -162 179.5t-213 64.5q-162 0 -162 -92
q0 -43 35 -68t115 -43l176 -39q148 -32 219 -97.5t71 -170.5q0 -100 -70.5 -177.5t-174.5 -111.5q-102 -31 -203 -31z" />
    <glyph glyph-name="Scaron" unicode="&#x160;" horiz-adv-x="1341" 
d="M344 1751q8 0 309 -129h4q299 129 310 129q14 0 14 -14q0 -32 -195 -230q-3 -3 -14.5 -15t-15 -15t-13.5 -12t-15 -12l-15 -9t-18 -8t-18.5 -4t-21.5 -2q-42 0 -63.5 12.5t-69.5 62.5q-192 198 -192 232q0 14 14 14zM123 -10q0 26 2 73q4 94 4 132q0 27 -1 56.5
t-2.5 54.5t-3 49.5t-3 43.5t-3 33t-2.5 22l-1 9q0 16 14 16t23 -22q53 -109 101.5 -182t113.5 -138q137 -137 344 -137q119 0 189.5 58.5t70.5 156.5q0 99 -70 154q-63 54 -258 102l-104 25q-426 94 -426 411q0 196 155 303t369 107q95 0 191.5 -23.5t160 -47t78.5 -23.5
q25 0 36.5 13.5t16.5 45.5q6 37 24 37q14 -2 15 -19q0 -98 8 -186l25 -229q0 -13 -14 -12q-15 2 -21 18q-97 198 -219.5 298.5t-294.5 100.5q-115 0 -178.5 -50t-63.5 -132t60 -128t200 -79l183 -43q230 -55 332 -151t102 -271q0 -92 -33.5 -170.5t-90 -132t-130.5 -91.5
t-154.5 -55.5t-162.5 -17.5q-139 0 -291 47t-174 47q-67 0 -82 -69q-6 -27 -21 -27q-14 0 -14 23z" />
    <glyph glyph-name="scaron" unicode="&#x161;" horiz-adv-x="1017" 
d="M186 1294q14 0 88 -43q13 -7 88 -47.5t134 -73.5h8q220 124 258 142q33 22 51 22q14 0 14 -14q0 -10 -10.5 -24.5t-44.5 -55.5q-9 -10 -147 -176q-49 -61 -125 -61q-73 0 -125 61l-174 209q-29 36 -29 47q0 14 14 14zM510 -31q-97 0 -215 33q-122 35 -125 35
q-14 0 -21.5 -8.5t-13.5 -32.5q-1 -12 -8.5 -16.5t-15 0t-7.5 16.5q0 2 1 34.5t1 59.5q0 43 -10 125q-3 21 -5.5 40.5t-3.5 28t-1 9.5q0 14 12 14q10 0 19 -20q46 -138 150.5 -212.5t240.5 -74.5q78 0 121 30.5t43 86.5q0 52 -35.5 81.5t-136.5 53.5l-140 33
q-151 37 -214.5 96.5t-63.5 169.5q0 134 115 205q118 71 288 71q42 0 90 -7t86.5 -17.5t71 -20.5t53 -17t21.5 -7q24 0 33 47q3 18 16 18q16 0 16 -20q0 -137 39 -248l2 -6q0 -14 -13 -12q-12 1 -21 18q-60 115 -162 179.5t-213 64.5q-162 0 -162 -92q0 -43 35 -68t115 -43
l176 -39q148 -32 219 -97.5t71 -170.5q0 -100 -70.5 -177.5t-174.5 -111.5q-102 -31 -203 -31z" />
    <glyph glyph-name="uni0162" unicode="&#x162;" horiz-adv-x="1474" 
d="M408 -14q-16 0 -14 11q1 14 42 32q56 18 68 63q14 43 14 205v281q0 467 -14 563q-3 40 -17 61q-30 53 -108 53q-89 0 -146 -75q-58 -76 -129 -320q-11 -33 -25 -31q-8 3 -9 19l6 290v42q0 19 -2.5 38t-6 33t-6.5 25t-5 18l-3 6q0 15 15 15q3 0 22 -2.5t65 -6.5t105 -8
q117 -8 477 -8t477 8q25 1 63.5 5t43.5 4q76 8 86 8q14 0 14 -15l-3 -6q-2 -7 -5 -18t-6 -25t-5.5 -33t-2.5 -38q0 -239 6 -332q0 -20 -12 -19q-13 1 -23 31q-70 240 -131 320q-57 75 -143 75q-79 0 -109 -53q-12 -18 -18 -61q-6 -79 -8 -176q-5 -220 -5 -387v-279
q0 -157 13 -207q15 -45 69 -63q46 -20 43 -35q-2 -8 -14 -8q-36 0 -213 10q-106 4 -117 4q-10 0 -116 -4l-144 -6q-19 -1 -35.5 -2t-24.5 -1.5t-9 -0.5zM719 -410q-55 0 -98 12.5t-59.5 24t-16.5 17.5q0 12 12 12l6 -2q6 -2 15 -4.5t19.5 -5t22.5 -4.5t21 -2q38 0 62 25.5
t24 68.5q0 46 -19.5 69t-72.5 47q-12 3 -12 17q0 7 12 22l78 105h39l-76 -105q141 -19 198.5 -58.5t57.5 -102.5q0 -64 -60.5 -100t-152.5 -36z" />
    <glyph glyph-name="uni0163" unicode="&#x163;" horiz-adv-x="839" 
d="M492 -31h-15l-59 -82q141 -19 198.5 -58.5t57.5 -102.5q0 -64 -60.5 -100t-152.5 -36q-55 0 -98 12.5t-59.5 24t-16.5 17.5q0 12 12 12l6 -2q6 -2 15 -4.5t19.5 -5t22.5 -4.5t21 -2q38 0 62 25.5t24 68.5q0 46 -19.5 69t-72.5 47q-12 3 -12 17q0 7 12 22l61 84
q-151 11 -221 95.5t-70 265.5v340q0 44 -11 60t-46 20l-35 4q-17 1 -23.5 11.5t0 21.5t23.5 12q164 12 252 82q90 72 172 243q13 23 27 23q16 0 16 -25l-2 -313q0 -14 12 -14l226 2q30 0 30 -29t-26 -29q-6 0 -88.5 2t-141.5 2q-14 0 -14 -12l-4 -530q0 -135 117 -135
q61 0 95 40.5t34 108.5q0 16 9 22t18.5 -1t9.5 -23q0 -113 -74 -179.5t-231 -66.5z" />
    </font>
</defs>
</svg>
