<?xml version="1.0" standalone="no"?>
<!DOCTYPE svg PUBLIC "-//W3C//DTD SVG 1.1//EN" "http://www.w3.org/Graphics/SVG/1.1/DTD/svg11.dtd" >
<svg xmlns="http://www.w3.org/2000/svg" xmlns:xlink="http://www.w3.org/1999/xlink" version="1.1">
<metadata>
Created by FontForge 20170731 at Thu Apr 29 12:40:33 2021
 By Aleksey,,,
Copyright (c) 2014 by Rodrigo Saiani. All rights reserved.
</metadata>
<defs>
<font id="Tenez-Bold" horiz-adv-x="0" >
  <font-face 
    font-family="Tenez"
    font-weight="700"
    font-stretch="normal"
    units-per-em="2048"
    panose-1="2 0 8 0 0 0 0 0 0 0"
    ascent="1538"
    descent="-510"
    x-height="811"
    cap-height="1305"
    bbox="-1242 -725 2405.17 2202"
    underline-thickness="102"
    underline-position="-307"
    unicode-range="U+000D-FB02"
  />
<missing-glyph horiz-adv-x="1024" 
d="M840 1475v-2048h-650v2048h650zM682 1337h-338v-67h133v-76h-135v-68h340v68h-135v76h135v67zM547 1073h-205v-213h340v70h-135v143zM477 1004v-74h-67v74h67zM682 805h-340v-68h135v-75h-135v-68h205v143h135v68zM682 682h-68v-135h-272v-70h340v205zM682 432h-205v-115
h70v48h67v-97h-204v164h-68v-231h340v231zM682 78h-340v-232h340v232zM614 10v-96h-204v96h204zM682 -201h-340v-67h143l-143 -97v-67h340v67h-209l143 97h66v67z" />
    <glyph glyph-name="fi" unicode="fi" horiz-adv-x="1253" 
d="M1155 23q34 -14 28 -29q-3 -8 -14 -8q-3 0 -94 6q-89 6 -145 6q-52 0 -135 -6q-79 -6 -82 -6q-15 0 -15 12t31 27q52 21 64 63q12 47 12 170v363q0 77 -25 102q-29 29 -182 29h-166v-482q0 -134 21 -180q21 -47 86 -65q32 -11 32 -23q0 -14 -14 -14q-3 0 -98 6t-150 6
q-24 0 -57 -1t-64 -3t-58 -4t-44 -3l-18 -1q-15 0 -15 12t35 27q61 21 76 67q16 53 16 189v465q-56 -3 -110 -3q-17 0 -23.5 13.5t0 27t23.5 13.5h110v30q0 244 128 372t345 128q141 0 256 -65t115 -148q0 -53 -32.5 -85t-84.5 -32q-105 0 -143 129q-27 87 -64.5 124.5
t-103.5 37.5q-75 0 -119.5 -50.5t-44.5 -145.5v-252v-43q53 -2 295 -2q66 -3 207 16l137 18q16 0 16 -14q0 -5 -8.5 -29.5t-9.5 -31.5q-10 -55 -10 -248v-211q0 -133 16 -195q18 -58 80 -79z" />
    <glyph glyph-name="fl" unicode="fl" horiz-adv-x="1257" 
d="M1163 27q35 -16 28 -32q-3 -7 -13 -7q-2 0 -91 6q-85 6 -139 6q-22 0 -53.5 -1t-60.5 -3t-54.5 -4t-41.5 -3t-17 -1q-14 0 -14 10q1 14 32 31q54 28 66 92q14 60 14 282v342q-41 0 -175 2t-214 3v-480q0 -134 21 -180q21 -47 86 -65q32 -11 32 -23q0 -14 -14 -14
q-3 0 -98 6t-150 6q-24 0 -57 -1t-64 -3t-58 -4t-44 -3l-18 -1q-15 0 -15 12q0 13 33 27q63 22 78 67q16 53 16 189v465q-14 0 -30 -0.5t-29 -1t-24 -0.5h-18l-7 -1q-17 0 -23.5 13.5t0 27t23.5 13.5l108 -4v45q0 239 123 364t328 125q124 0 245 -65q95 10 179 51l26 14
q13 0 13 -12v-3q-1 -4 -2.5 -11.5t-3 -18.5t-3 -27t-3.5 -34.5t-3.5 -42t-3 -49.5t-2 -58t-0.5 -65v-613q0 -189 16 -264q14 -68 76 -104zM430 793l389 6v344q-8 64 -58.5 105.5t-137.5 41.5t-140 -51t-53 -141v-305z" />
    <glyph glyph-name="T_h.liga" unicode="Th" horiz-adv-x="2353" 
d="M2261 27q37 -16 29 -32q-3 -7 -13 -7q-17 0 -90 6t-119 6q-44 0 -118 -6t-78 -6q-14 0 -14 11q0 15 30 28q36 22 45 55q11 46 11 147v336q0 108 -34.5 155.5t-107.5 47.5q-95 0 -161 -107t-66 -282v-72q0 -158 10 -213q9 -47 64 -69q29 -15 32 -23q0 -14 -16 -14
q-9 0 -88 6t-129 6q-21 0 -51 -1t-57.5 -3t-51.5 -4t-40 -3l-15 -1q-16 0 -16 12q0 11 18 20q11 4 12 5q50 21 62 88q12 68 12 295v608q0 96 -6 132.5t-29 59.5q-46 52 -225 52q-156 0 -187 -48q-16 -26 -22 -135q-4 -144 -4 -499v-306q0 -147 16 -190q14 -38 88 -57
q35 -15 35 -25q0 -12 -14 -12q-207 12 -275 12l-274 -12q-14 0 -14 12q0 10 34 25q77 19 91 57q17 46 14 188v308q0 391 -6 499q-3 106 -21 135q-31 48 -137 48q-49 -1 -76.5 -8t-54.5 -25.5t-46.5 -61t-40 -104t-46.5 -166.5q-6 -31 -23 -31q-12 0 -12 19q6 182 6 309
q0 17 -2.5 33.5t-5.5 29t-6 22t-6 15.5l-2 6q0 15 14 15q2 0 15.5 -2t50.5 -5.5t88 -7.5q107 -8 460 -8q216 0 441 10q178 8 311 19q29 2 61 5t45 4t17 1q16 0 16 -12l-1 -6q0 -6 -1 -18.5t-2 -29.5t-2 -39t-2 -46.5t-2 -53.5t-2 -58.5t-1.5 -62t-0.5 -63.5v-350
q35 116 112 176.5t189 60.5q166 0 242.5 -82.5t76.5 -259.5v-256q0 -105 11 -147q12 -34 55 -55z" />
    <glyph glyph-name="f_b.liga" unicode="fb" horiz-adv-x="1812" 
d="M1354 827q158 0 272 -114q115 -115 115 -307q0 -200 -123 -320q-120 -117 -309 -117q-111 0 -230 94q-26 20 -49.5 40.5t-32 27t-12.5 6.5q-14 0 -33 -22l-75 -119q-21 -27 -41 -27q-23 0 -23 25l1 8q0 9 1 25t2 37.5t1.5 53.5t0.5 68q0 885 -2 957q-6 63 -58 105
t-136 42q-87 0 -140 -51t-53 -141v-303q60 0 107 2q18 1 40 2t33.5 1.5t16.5 0.5q32 0 32 -29t-32 -29l-197 5v-476q0 -135 23 -187t84 -60q32 -11 32 -23q0 -14 -14 -14q-3 0 -98 6t-150 6q-24 0 -57 -1t-64 -3t-58 -4t-44 -3l-18 -1q-15 0 -15 12q0 13 33 27q64 22 78 69
q16 56 16 197v455q-14 0 -30 -0.5t-29 -1t-24 -0.5h-18l-7 -1q-17 0 -23.5 13.5t0 27t23.5 13.5l108 -4v45q0 239 123 364t328 125q131 0 254 -69q41 9 83 26t66.5 30t28.5 13q16 0 16 -16l-1 -9q-1 -10 -2 -24.5t-2 -32.5t-2 -38.5t-1 -37.5v-532h8q65 188 277 188zM1274 6
q96 0 145 93t49 307q0 198 -44.5 285t-139.5 87q-96 0 -155.5 -96t-59.5 -276v-52q1 -173 57.5 -260.5t147.5 -87.5z" />
    <glyph glyph-name="f_f.liga" unicode="ff" horiz-adv-x="1325" 
d="M1120 1329q96 0 153.5 -35t59.5 -90q0 -43 -27.5 -71.5t-70.5 -28.5q-37 0 -58 21.5t-42 76.5q-34 76 -97 76q-48 0 -76 -27t-28 -77q0 -31 49 -132t49 -196v-47h98l54 2q33 0 33 -29t-33 -29q-101 0 -152 2v-475q0 -126 25 -176t102 -67q45 -11 43 -29q-1 -10 -14 -10
q-2 0 -113 6t-166 6q-24 0 -57 -1t-64 -3t-58 -4t-44 -3l-18 -1q-15 0 -15 12q0 13 33 27q64 22 78 69q16 56 16 197v457h-159h-189v-480q0 -123 23 -174.5t90 -70.5q32 -7 32 -24q-1 -12 -14 -13q-2 0 -104 6t-152 6q-24 0 -57 -1t-64 -3t-58 -4t-44 -3l-18 -1
q-15 0 -15 12q0 11 27 23l8 4q61 21 76 67q16 53 16 189v462h-108q-17 0 -23.5 13.5t0 27t23.5 13.5q73 0 108 -2v80q0 200 125 307q126 108 309 108q165 0 256 -82q88 119 252 119zM621 793q120 0 159 2v67q0 124 29 225q-31 91 -75.5 130.5t-119.5 39.5q-84 0 -133 -50
t-49 -146v-266q41 -2 189 -2z" />
    <glyph glyph-name="f_f_b.liga" unicode="ffb" horiz-adv-x="2469" 
d="M1972 827q159 0 273 -114t114 -307q0 -200 -123 -320q-120 -117 -307 -117q-109 0 -231 94q-26 20 -49.5 40.5t-32 27t-12.5 6.5q-14 0 -33 -22l-76 -119q-21 -27 -41 -27q-22 0 -22 25v8q1 9 2 25t2 37.5t1.5 53.5t0.5 68q0 885 -2 957q-6 63 -58 105t-137 42
q-87 0 -139.5 -51t-52.5 -141v-299h98q39 2 70 2q32 0 32 -29t-32 -29l-60 2h-108v-473q0 -135 22.5 -187t83.5 -60q33 -11 33 -23q0 -14 -14 -14q-4 0 -99 6t-149 6q-24 0 -57 -1t-64 -3t-58.5 -4t-44.5 -3l-18 -1q-14 0 -14 12t35 27q60 21 75 69q17 60 17 197v457h-109
q-209 0 -266 -2v-23v-455q0 -134 18 -180q21 -47 86 -65q35 -12 35 -23q0 -14 -14 -14q-3 0 -98 6t-152 6q-24 0 -57 -1t-63.5 -3t-58 -4t-44.5 -3l-17 -1q-14 0 -14 12q0 13 33 27q63 22 78 67q16 53 16 189v456v6h-84q-17 0 -23.5 13.5t0 27t23.5 13.5h86
q17 200 136 307.5t308 107.5q160 0 254 -73q117 188 377 188q131 0 254 -69q41 9 83 26t66.5 30t28.5 13q17 0 17 -16l-1 -9q-1 -10 -2 -24.5t-2 -32.5t-2 -38.5t-1 -37.5v-532h8q65 188 276 188zM688 793q82 0 109 2v45q0 92 14 147q-32 95 -78.5 138.5t-124.5 43.5
q-84 0 -135 -55.5t-51 -157.5v-161q57 -2 266 -2zM1892 6q97 0 146 93t49 307q0 198 -44.5 285t-139.5 87q-96 0 -155.5 -96t-59.5 -276v-52q1 -173 57 -260.5t147 -87.5z" />
    <glyph glyph-name="f_f_h.liga" unicode="ffh" horiz-adv-x="2471" 
d="M2376 27q35 -16 28 -32q-4 -7 -14 -7q-14 0 -88 6t-119 6t-119 -6t-77 -6q-14 0 -14 11q0 15 30 28q34 21 43 55q10 38 10 147v336q0 108 -34 155.5t-105 47.5q-97 0 -162 -105.5t-65 -283.5v-162q0 -88 18 -127t74 -63q35 -16 28 -32q-4 -7 -14 -7q-2 0 -90 6
q-86 6 -139 6q-22 0 -53.5 -1t-60.5 -3t-54.5 -4t-42 -3t-17.5 -1q-14 0 -14 10q1 14 33 31q53 27 65 92q15 65 15 282v740q-6 63 -58 105t-139 42t-139.5 -51t-52.5 -141v-299h98q39 2 70 2q32 0 32 -29t-32 -29l-60 2h-108v-475q0 -136 20 -180q21 -47 86 -65
q33 -11 33 -23q0 -14 -14 -14q-4 0 -99 6t-149 6q-24 0 -57 -1t-64 -3t-58.5 -4t-44.5 -3l-18 -1q-14 0 -14 12q0 13 32 27q63 22 78 67q17 56 17 189v467h-109q-209 0 -266 -2v-23v-455q0 -134 18 -180q21 -47 86 -65q35 -12 35 -23q0 -14 -14 -14q-3 0 -98 6t-152 6
q-24 0 -57 -1t-63.5 -3t-58 -4t-44.5 -3l-17 -1q-14 0 -14 12q0 13 33 27q63 22 78 67q16 53 16 189v456v6h-84q-17 0 -23.5 13.5t0 27t23.5 13.5h86q17 200 136 307.5t308 107.5q160 0 254 -73q117 188 377 188q125 0 246 -65q94 10 178 51l27 14q12 0 12 -12v-3
q-1 -4 -2.5 -11.5t-3 -18.5t-3 -27t-3 -34.5t-3 -42t-3 -49.5t-2 -58t-0.5 -65v-418q70 237 301 237q166 0 242.5 -82.5t76.5 -259.5v-256q0 -109 10 -147q12 -34 56 -55zM688 793q82 0 109 2v45q0 92 14 147q-32 95 -78.5 138.5t-124.5 43.5q-84 0 -135 -55.5t-51 -157.5
v-161q57 -2 266 -2z" />
    <glyph glyph-name="f_f_i.liga" unicode="ffi" horiz-adv-x="1861" 
d="M1765 23q31 -9 31 -25q0 -12 -14 -12q-2 0 -94 6q-88 6 -146 6q-50 0 -133 -6t-86 -6q-14 0 -14 12q0 8 6.5 13.5t25.5 13.5q52 21 64 63q12 47 12 170v363q0 75 -26 98q-29 29 -201 29h-137v-478q0 -134 18 -180q21 -47 86 -65q35 -12 35 -23q0 -14 -14 -14q-4 0 -99 6
t-151 6q-24 0 -57 -1t-63.5 -3t-58 -4t-44.5 -3l-17 -1q-14 0 -14 12q0 13 33 27q62 21 77 67q17 56 17 189v465q-67 0 -187 -3h-170v-20v-455q0 -134 21 -180q21 -47 86 -65q33 -11 33 -23q0 -14 -15 -14q-4 0 -98 6q-95 6 -149 6q-24 0 -57 -1t-64 -3t-58.5 -4t-44.5 -3
l-18 -1q-14 0 -14 12q0 13 32 27q63 22 78 67q17 56 17 189v456v6h-117q-17 0 -23.5 13.5t0 27t23.5 13.5h119q17 200 136 307.5t308 107.5q148 0 246 -67q123 182 389 182q142 0 254 -65q112 -63 112 -148q0 -53 -32 -85t-84 -32q-106 0 -144 129q-25 87 -61.5 124.5
t-101.5 37.5q-75 0 -119.5 -50.5t-44.5 -145.5v-252v-45h286q45 0 128 8.5t148 17t66 8.5q17 0 17 -14q0 -5 -8 -29t-9 -32q-12 -58 -12 -248v-211q0 -129 17 -195q18 -58 79 -79zM444 799h357v30q0 99 22 185q-58 155 -192 155q-84 0 -135.5 -55.5t-51.5 -157.5v-157z" />
    <glyph glyph-name="f_f_j.liga" unicode="ffj" horiz-adv-x="1802" 
d="M1679 831q17 0 17 -14q0 -5 -8 -29t-9 -32q-12 -58 -12 -250v-483q-9 -463 -317 -463q-80 0 -136 45.5t-57 111.5q0 47 27.5 76t70.5 29q82 0 103 -96q27 -107 92 -107q33 0 55.5 25.5t22.5 68.5q0 31 -58 135q-55 104 -55 201v572q0 78 -24 102q-29 29 -183 29h-157
v-482q0 -134 18 -180q21 -47 86 -65q35 -12 35 -23q0 -14 -14 -14q-4 0 -99 6t-151 6q-24 0 -57 -1t-64 -3t-58.5 -4t-44.5 -3l-18 -1q-14 0 -14 12q0 11 26 23l9 4q62 21 77 67q17 56 17 189v469q-103 0 -183 -2q-137 0 -174 -2v-23v-455q0 -131 19 -180q21 -47 86 -65
q35 -12 35 -23q0 -14 -15 -14q-4 0 -98 6q-95 6 -152 6q-37 0 -95.5 -3t-101.5 -6l-44 -3q-15 0 -15 12q0 11 27 23l8 4q63 22 78 67q16 53 16 189v456v6h-100q-17 0 -23.5 13.5t0 27t23.5 13.5h103q17 200 136 307.5t308 107.5q145 0 246 -67q123 182 387 182
q142 0 254 -65q112 -63 112 -148q0 -53 -32 -85t-84 -32q-104 0 -142 129q-25 87 -62.5 124.5t-103.5 37.5q-72 0 -116.5 -50.5t-44.5 -145.5v-252v-45h284q45 0 128.5 8.5t149 17t66.5 8.5zM442 799h357v30q0 99 22 185q-30 80 -75 117.5t-117 37.5q-84 0 -135.5 -55.5
t-51.5 -157.5v-157z" />
    <glyph glyph-name="f_f_k.liga" unicode="ffk" horiz-adv-x="2424" 
d="M2337 45q13 -12 30 -21.5t25 -14.5t8 -11q0 -10 -16 -10q-1 0 -13.5 1t-33 3t-44.5 4t-51 3t-49 1q-49 0 -137 -6q-86 -6 -88 -6q-16 0 -16 12q0 2 23.5 20t23.5 31q0 31 -195 326q-26 39 -39 39q-6 0 -8 -2l-67 -54v-143q0 -88 18 -127t74 -63q35 -16 28 -32
q-4 -7 -14 -7q-2 0 -90 6q-86 6 -139 6q-22 0 -53.5 -1t-60.5 -3t-54.5 -4t-42 -3t-17.5 -1q-14 0 -14 10q1 14 33 31q53 27 65 92q15 65 15 282v740q-6 63 -58 105t-139 42t-139.5 -51t-52.5 -141v-299h98q39 2 70 2q32 0 32 -29t-32 -29l-60 2h-108v-475q0 -136 20 -180
q21 -47 86 -65q33 -11 33 -23q0 -14 -14 -14q-4 0 -99 6t-149 6q-24 0 -57 -1t-64 -3t-58.5 -4t-44.5 -3l-18 -1q-14 0 -14 12q0 13 32 27q63 22 78 67q17 56 17 189v467h-109q-209 0 -266 -2v-23v-455q0 -134 18 -180q21 -47 86 -65q35 -12 35 -23q0 -14 -14 -14
q-3 0 -98 6t-152 6q-24 0 -57 -1t-63.5 -3t-58 -4t-44.5 -3l-17 -1q-14 0 -14 12q0 13 33 27q63 22 78 67q16 53 16 189v456v6h-84q-17 0 -23.5 13.5t0 27t23.5 13.5h86q17 200 136 307.5t308 107.5q160 0 254 -73q117 188 377 188q125 0 246 -65q94 10 178 51l27 14
q12 0 12 -12v-3q-1 -4 -2.5 -11.5t-3 -18.5t-3 -27t-3 -34.5t-3 -42t-3 -49.5t-2 -58t-0.5 -65v-611q223 176 282 230q68 62 68 92q0 38 -58 59q-30 15 -30 25t14 10l70 -6q60 -8 104 -8q30 0 98 6t76 6q17 0 17 -12q0 -14 -60 -29q-94 -17 -260 -154l-57 -43
q252 -380 383 -528zM688 793q82 0 109 2v45q0 92 14 147q-32 95 -78.5 138.5t-124.5 43.5q-84 0 -135 -55.5t-51 -157.5v-161q57 -2 266 -2z" />
    <glyph glyph-name="f_f_l.liga" unicode="ffl" horiz-adv-x="1878" 
d="M1782 27q35 -16 28 -32q-4 -7 -14 -7q-2 0 -90 6q-86 6 -139 6q-22 0 -53.5 -1t-60.5 -3t-54.5 -4t-42 -3t-17.5 -1q-14 0 -14 10q1 14 33 31q53 27 65 92q15 65 15 282v740q-6 63 -58 105t-139 42t-139.5 -51t-52.5 -141v-299h98q39 2 70 2q32 0 32 -29t-32 -29l-60 2
h-108v-475q0 -136 20 -180q21 -47 86 -65q33 -11 33 -23q0 -14 -14 -14q-4 0 -99 6t-149 6q-24 0 -57 -1t-64 -3t-58.5 -4t-44.5 -3l-18 -1q-14 0 -14 12q0 13 32 27q63 22 78 67q17 56 17 189v467h-109q-209 0 -266 -2v-23v-455q0 -134 18 -180q21 -47 86 -65
q35 -12 35 -23q0 -14 -14 -14q-3 0 -98 6t-152 6q-24 0 -57 -1t-63.5 -3t-58 -4t-44.5 -3l-17 -1q-14 0 -14 12q0 13 33 27q63 22 78 67q16 53 16 189v456v6h-84q-17 0 -23.5 13.5t0 27t23.5 13.5h86q17 200 136 307.5t308 107.5q160 0 254 -73q117 188 377 188
q125 0 246 -65q94 10 178 51l27 14q12 0 12 -12v-3q-1 -4 -2.5 -11.5t-3 -18.5t-3 -27t-3 -34.5t-3 -42t-3 -49.5t-2 -58t-0.5 -65v-613q0 -189 16 -264q14 -68 76 -104zM688 793q82 0 109 2v45q0 92 14 147q-32 95 -78.5 138.5t-124.5 43.5q-84 0 -135 -55.5t-51 -157.5
v-161q57 -2 266 -2z" />
    <glyph glyph-name="f_h.liga" unicode="fh" horiz-adv-x="1849" 
d="M1757 27q29 -16 29 -27t-11.5 -12t-67.5 4q-15 1 -24 2q-73 6 -118 6q-47 0 -121 -6t-76 -6q-14 0 -14 11q0 15 30 28q34 21 43 55q11 42 11 147v336q0 108 -34.5 155.5t-105.5 47.5q-91 0 -156 -97.5t-71 -258.5v-144q0 -108 14.5 -159t57.5 -82q37 -16 29 -32
q-3 -7 -13 -7q-1 0 -84 6q-79 6 -127 6q-22 0 -53.5 -1t-60.5 -3t-54.5 -4t-41.5 -3t-17 -1q-14 0 -14 10q1 14 32 31q54 28 66 92q14 60 14 282v740q-8 64 -58.5 105.5t-137.5 41.5t-140 -51t-53 -141v-303q60 0 107 2q18 1 40 2t33.5 1.5t16.5 0.5q32 0 32 -29t-32 -29
l-197 5v-476q0 -135 23 -187t84 -60q32 -11 32 -23q0 -14 -14 -14q-3 0 -98 6t-150 6q-24 0 -57 -1t-64 -3t-58 -4t-44 -3l-18 -1q-15 0 -15 12q0 13 33 27q64 22 78 69q16 56 16 197v455q-14 0 -30 -0.5t-29 -1t-24 -0.5h-18l-7 -1q-17 0 -23.5 13.5t0 27t23.5 13.5l108 -4
v45q0 239 123 364t328 125q127 0 248 -65q22 6 44.5 12.5t42 12.5t38 12t32.5 11t24.5 9t15.5 6l5 2q13 0 13 -12v-3q-1 -4 -2.5 -11.5t-3 -18.5t-3 -27t-3.5 -34.5t-3.5 -42t-3 -49.5t-2 -58t-0.5 -65v-416q70 235 301 235q166 0 243 -82.5t77 -259.5v-256q0 -109 10 -147
q12 -34 55 -55z" />
    <glyph glyph-name="f_j.liga" unicode="fj" horiz-adv-x="1191" 
d="M1071 831q16 0 16 -14q0 -5 -8.5 -29.5t-9.5 -31.5q-10 -55 -10 -250v-483q-3 -258 -94 -359q-88 -104 -226 -104q-80 0 -135 45.5t-55 111.5q-1 47 27 76t71 29q82 0 103 -96q21 -107 90 -107q36 0 57 25t21 69q0 31 -58 135q-55 104 -55 201v572q0 77 -25 102
q-29 29 -182 29h-166v-482q0 -134 21 -180q21 -47 86 -65q32 -11 32 -23q0 -14 -14 -14q-3 0 -98 6t-150 6q-24 0 -57 -1t-64 -3t-58 -4t-44 -3l-18 -1q-15 0 -15 12t35 27q61 21 76 67q16 53 16 189v465q-56 -3 -110 -3q-17 0 -23.5 13.5t0 27t23.5 13.5h110v30
q0 244 128 372t345 128q141 0 256 -65t115 -148q0 -53 -32.5 -85t-84.5 -32q-105 0 -143 129q-27 87 -64.5 124.5t-103.5 37.5q-75 0 -119.5 -50.5t-44.5 -145.5v-252v-43q53 -2 295 -2q66 -3 207 16z" />
    <glyph glyph-name="f_k.liga" unicode="fk" horiz-adv-x="1806" 
d="M1718 45q12 -12 28.5 -21t26 -14t9.5 -12q0 -10 -17 -10q-1 0 -13.5 1t-33 3t-44 4t-50.5 3t-49 1q-49 0 -137 -6q-86 -6 -90 -6q-15 0 -15 12q0 2 22.5 20t22.5 31q0 15 -19 54t-50 81q-5 12 -58 88q-6 11 -65 103q-26 39 -41 39q-4 0 -6 -2l-68 -54v-92
q0 -108 14.5 -159t57.5 -82q37 -16 29 -32q-3 -7 -13 -7q-1 0 -84 6q-79 6 -127 6q-22 0 -53.5 -1t-60.5 -3t-54.5 -4t-41.5 -3t-17 -1q-14 0 -14 10q1 14 32 31q54 28 66 92q14 60 14 282v740q-8 64 -58.5 105.5t-137.5 41.5t-140 -51t-53 -141v-303q60 0 107 2q18 1 40 2
t33.5 1.5t16.5 0.5q32 0 32 -29t-32 -29l-197 5v-476q0 -135 23 -187t84 -60q32 -11 32 -23q0 -14 -14 -14q-3 0 -98 6t-150 6q-24 0 -57 -1t-64 -3t-58 -4t-44 -3l-18 -1q-15 0 -15 12q0 13 33 27q64 22 78 69q16 56 16 197v455q-14 0 -30 -0.5t-29 -1t-24 -0.5h-18l-7 -1
q-17 0 -23.5 13.5t0 27t23.5 13.5l108 -4v45q0 239 123 364t328 125q127 0 248 -65q22 6 44.5 12.5t42 12.5t38 12t32.5 11t24.5 9t15.5 6l5 2q13 0 13 -12v-3q-1 -4 -2.5 -11.5t-3 -18.5t-3 -27t-3.5 -34.5t-3.5 -42t-3 -49.5t-2 -58t-0.5 -65v-611q211 167 279 228
q69 63 69 94q0 38 -55 59q-37 16 -29 30q3 5 13 5l69 -6q60 -8 103 -8q30 0 98 6q70 6 78 6q16 0 16 -12q0 -14 -59 -29q-57 -10 -112.5 -43t-149.5 -111l-56 -43q252 -380 383 -528z" />
    <glyph glyph-name=".notdef" horiz-adv-x="1024" 
d="M840 1475v-2048h-650v2048h650zM682 1337h-338v-67h133v-76h-135v-68h340v68h-135v76h135v67zM547 1073h-205v-213h340v70h-135v143zM477 1004v-74h-67v74h67zM682 805h-340v-68h135v-75h-135v-68h205v143h135v68zM682 682h-68v-135h-272v-70h340v205zM682 432h-205v-115
h70v48h67v-97h-204v164h-68v-231h340v231zM682 78h-340v-232h340v232zM614 10v-96h-204v96h204zM682 -201h-340v-67h143l-143 -97v-67h340v67h-209l143 97h66v67z" />
    <glyph glyph-name=".null" 
 />
    <glyph glyph-name="nonmarkingreturn" horiz-adv-x="682" 
 />
    <glyph glyph-name="NULL" 
 />
    <glyph glyph-name="NULL" 
 />
    <glyph glyph-name="CR" unicode="&#xd;" horiz-adv-x="681" 
 />
    <glyph glyph-name="space" unicode=" " horiz-adv-x="417" 
 />
    <glyph glyph-name="exclam" unicode="!" horiz-adv-x="552" 
d="M256 342q-8 186 -45 385q-29 160 -66 299q-28 118 -28 154q0 60 43.5 95.5t115.5 35.5t116 -35.5t44 -95.5q0 -21 -13 -78.5t-38.5 -166t-44.5 -210.5q-34 -181 -43 -383h-41zM279 229q63 0 101 -35t38 -92t-39 -93t-100 -36q-58 0 -97 36.5t-39 92.5q0 57 38 92t98 35z
" />
    <glyph glyph-name="quotedbl" unicode="&#x22;" horiz-adv-x="808" 
d="M207 760q-3 94 -19.5 178t-35 131.5t-33.5 86.5t-15 54q0 47 31.5 74t85.5 27t84.5 -27t30.5 -74q0 -15 -15 -54t-33.5 -86.5t-35 -131.5t-19.5 -178h-26zM575 760q-4 120 -29.5 220.5t-49 157t-23.5 72.5q0 47 31.5 74t85.5 27t84.5 -27t30.5 -74q0 -15 -15 -54
t-33.5 -86.5t-35 -131.5t-19.5 -178h-27z" />
    <glyph glyph-name="numbersign" unicode="#" horiz-adv-x="935" 
d="M877 799q17 0 17 -24.5t-17 -24.5h-209l-56 -308h224q17 0 17 -24.5t-17 -24.5h-232l-67 -366q-6 -27 -31 -27q-20 0 -17 27l66 366h-260l-68 -366q-6 -27 -30 -27q-20 0 -17 27l66 366h-199q-17 0 -17 24.5t17 24.5h207l53 308h-209q-17 0 -17 24.5t17 24.5h219l60 336
q5 26 27 30q21 4 26 -14q2 -7 0 -16l-61 -336h258l59 336q5 26 27 30q21 4 26 -14q2 -7 0 -16l-61 -336h199zM563 442l53 308h-258l-55 -308h260z" />
    <glyph glyph-name="dollar" unicode="$" horiz-adv-x="1277" 
d="M1112 367q0 -139 -99 -232t-257 -119v-166q0 -16 -23 -16q-24 0 -24 16v162q-10 -2 -45 -2q-12 0 -66 4v-164q0 -16 -23 -16q-24 0 -24 16v170q-50 7 -141 39q-79 31 -97 31q-50 0 -59 -65q-5 -21 -17 -21q-12 -1 -12 16q0 77 -1.5 144.5t-3.5 110.5t-4 74.5t-3.5 48
t-1.5 18.5q0 12 12 12q16 0 19 -18q64 -298 309 -353v439l-8 2q-322 70 -322 309q0 134 94 213q96 81 236 96v199q0 16 24 16q23 0 23 -16v-195h23q47 0 88 -6v201q0 16 24 16q23 0 23 -16v-209q36 -7 108 -35q65 -24 84 -24q39 0 45 49q6 32 19 32q14 0 14 -16
q0 -58 3 -114t7 -95t7.5 -69.5t6.5 -48t3 -19.5q0 -10 -11 -10q-13 0 -16 16q-99 237 -270 295v-367l10 -2q182 -39 264 -116t82 -215zM616 1087h-18v-350l25 -6l86 -20v368q-36 8 -93 8zM395 924q0 -122 156 -172v329q-73 -12 -114.5 -55t-41.5 -102zM664 45q35 0 45 2v412
q-2 1 -13 4l-22 6t-17 4l-59 12v-436q54 -4 66 -4zM756 55q84 19 128 68.5t44 122.5q0 78 -39 122.5t-133 75.5v-389z" />
    <glyph glyph-name="percent" unicode="%" horiz-adv-x="1742" 
d="M92 973q0 146 103 241q105 97 247 97q143 0 248 -97q105 -94 105 -241q0 -145 -105 -240q-101 -94 -248 -94q-146 0 -247 94q-103 95 -103 240zM293 -8q-31 0 -31 14q-3 6 10 23l1166 1259q12 15 35 15q25 0 28 -15q0 -10 -12 -22l-1170 -1264q-10 -10 -26 -10zM586 973
q0 309 -144 309q-143 0 -143 -309q0 -305 143 -305q144 0 144 305zM950 313q0 147 103 242q104 96 247 96q144 0 248 -96q105 -94 105 -242q0 -145 -105 -239q-101 -94 -248 -94q-146 0 -247 94q-103 95 -103 239zM1444 313q0 310 -144 310q-143 0 -143 -310
q0 -305 143 -305q144 0 144 305z" />
    <glyph glyph-name="ampersand" unicode="&#x26;" horiz-adv-x="1492" 
d="M1479 162q13 0 14 -12.5t-10 -24.5q-20 -53 -105 -107q-82 -49 -184 -49q-135 0 -250 103q-133 -103 -334 -103q-219 0 -372 90q-150 89 -150 254q0 227 309 346q-87 100 -123 172t-36 158q0 141 108 230q112 92 268 92q135 0 232 -66q98 -64 98 -172q0 -102 -81 -183
t-220 -126l31 -35l395 -428q41 106 41 191q0 109 -40 160t-144 71q-33 6 -33 20q0 13 16 13q13 0 86 -8q100 -7 146 -7q50 0 153 7q79 8 92 8q17 0 17 -13q0 -3 -3 -6.5t-10.5 -6.5t-13.5 -5.5t-18 -6t-17 -5.5q-73 -25 -110 -74t-60 -152q-27 -131 -73 -219l39 -43
q79 -85 121.5 -114t91.5 -29q66 0 106 63q17 17 23 17zM618 1280q-72 0 -118.5 -52t-46.5 -134q0 -80 39 -142q48 -76 133 -168q149 101 149 299q0 197 -156 197zM653 4q143 0 265 90q-33 30 -121 125l-279 305l-84 94q-98 -104 -98 -266q0 -157 85 -252.5t232 -95.5z" />
    <glyph glyph-name="quotesingle" unicode="'" horiz-adv-x="317" 
d="M145 760q-4 120 -29.5 220.5t-49 157t-23.5 72.5q0 47 31.5 74t85.5 27t84 -27t30 -74q0 -16 -23.5 -72.5t-49 -157t-29.5 -220.5h-27z" />
    <glyph glyph-name="parenleft" unicode="(" horiz-adv-x="675" 
d="M496 -465q-193 282 -277 516q-86 238 -86 541t86 541q84 234 277 516h53q-125 -277 -184 -516q-56 -239 -56 -541t56 -541q59 -239 184 -516h-53z" />
    <glyph glyph-name="parenright" unicode=")" horiz-adv-x="675" 
d="M180 -465h-53q127 281 182 516q58 235 58 541t-58 541q-55 235 -182 516h53q193 -282 277 -516q86 -238 86 -541t-86 -541q-84 -234 -277 -516z" />
    <glyph glyph-name="asterisk" unicode="*" horiz-adv-x="792" 
d="M395 1292q31 0 49.5 -18t18.5 -49q0 -16 -29 -92q-31 -82 -39 -142q-9 70 -37 144q-28 73 -28 90q0 31 18 49t47 18zM109 1083q21 64 86 43q17 -6 75 -55q51 -40 125 -80q-67 14 -153 8q-80 -6 -88 2q-66 21 -45 82zM682 1083q22 -61 -43 -82q-22 -4 -50.5 -2.5
t-87.5 0.5t-106 -8q64 29 125 80q57 48 78 55q63 21 84 -43zM205 840q15 19 76 57q62 39 114 94q-35 -65 -53 -139t-31 -90q-41 -53 -92 -14q-24 17 -28 43t14 49zM573 748q-53 -41 -92 16q-10 12 -32 90q-16 66 -54 137q59 -59 115 -94q65 -41 78 -57q17 -23 13.5 -49
t-28.5 -43z" />
    <glyph glyph-name="plus" unicode="+" horiz-adv-x="1146" 
d="M911 588q17 0 17 -24.5t-17 -24.5h-313v-314q0 -17 -24.5 -17t-24.5 17v314h-313q-17 0 -17 24.5t17 24.5h313v313q0 17 24.5 17t24.5 -17v-313h313z" />
    <glyph glyph-name="comma" unicode="," horiz-adv-x="534" 
d="M143 -303q-18 0 -18 14q0 13 18 19q92 39 155.5 112.5t63.5 155.5q0 27 -18 27q-2 0 -20 -12.5t-44.5 -25t-48.5 -12.5q-52 0 -90.5 38.5t-38.5 97.5q0 61 42 100t106 39q76 0 123 -55t47 -146q0 -61 -18 -115t-46.5 -90.5t-61.5 -66t-64.5 -46.5t-54 -25.5t-32.5 -8.5z
" />
    <glyph glyph-name="hyphen" unicode="-" horiz-adv-x="722" 
d="M133 461q48 0 103 -2t126 -2q72 0 127 2q57 2 103 2q24 0 24 -31t-24 -31h-113q-47 2 -108 2l-240 -2q-27 0 -27 29q0 33 29 33z" />
    <glyph glyph-name="period" unicode="." horiz-adv-x="512" 
d="M254 256q69 0 110.5 -39t41.5 -102t-42.5 -102.5t-109.5 -39.5q-64 0 -107 40t-43 102q0 63 42 102t108 39z" />
    <glyph glyph-name="slash" unicode="/" horiz-adv-x="747" 
d="M25 -178q-19 0 -19 14q0 7 6 19l686 1550q9 22 35 25q19 0 19 -13q0 -5 -7 -22l-686 -1553q-9 -20 -34 -20z" />
    <glyph glyph-name="zero" unicode="0" horiz-adv-x="1241" 
d="M621 1171q227 0 376 -165q150 -166 150 -435q0 -268 -150 -434t-376 -166q-229 0 -379 166q-148 168 -148 434q0 267 148 435q149 165 379 165zM518 25q43 -23 102.5 -23t102.5 23q103 60 135 258q21 117 21 288q0 173 -21 287q-32 202 -135 258q-43 25 -102.5 25
t-102.5 -25q-102 -55 -137 -258q-19 -120 -19 -287q0 -165 19 -288q35 -199 137 -258z" />
    <glyph glyph-name="one" unicode="1" horiz-adv-x="847" 
d="M555 1171q14 0 14 -10q0 1 -1.5 -18.5t-3.5 -53t-4 -74t-3.5 -88.5t-1.5 -89v-461q0 -183 23 -254q21 -65 114 -92q58 -18 58 -33q0 -12 -15 -12l-125 6q-109 8 -198 8q-31 0 -73.5 -1.5t-82.5 -3.5t-75.5 -4t-57.5 -3.5t-23 -1.5q-14 0 -14 12q0 14 29 20q132 27 159 74
q29 50 29 197v426q0 195 -33 248q-34 58 -176 79q-15 1 -21.5 10.5t-1 19t18.5 9.5q189 8 391 70q61 20 74 20z" />
    <glyph glyph-name="two" unicode="2" horiz-adv-x="1167" 
d="M246 133q-64 0 -64 -57q0 -7 7.5 -31.5t7.5 -32.5q0 -35 -43 -35q-50 0 -50 115q0 325 353 457q155 60 217.5 137t62.5 197q0 123 -65.5 188.5t-182.5 65.5q-80 0 -135 -35.5t-55 -89.5q0 -40 41 -90q43 -46 43 -86q0 -44 -35.5 -71.5t-89.5 -27.5q-58 0 -97.5 41
t-39.5 107q0 120 125 202q128 84 317 84q188 0 318 -81q131 -82 131 -209q0 -261 -432 -349q-439 -88 -439 -426q0 -11 4 -81h9q-4 36 -4 59q0 97 66.5 160t184.5 63q89 0 271 -51q186 -49 243 -49q136 0 154 201q1 24 19 24q15 -1 16 -14q0 -61 -21 -193
q-23 -128 -75.5 -183.5t-151.5 -55.5q-92 0 -324 73q-233 74 -286 74z" />
    <glyph glyph-name="three" unicode="3" horiz-adv-x="1165" 
d="M545 -31q-199 0 -315.5 76t-116.5 195q0 73 44 115t113 42q51 0 81 -24.5t30 -67.5q0 -36 -49 -88t-49 -90q0 -54 59 -89.5t152 -35.5q123 0 204.5 78.5t81.5 216.5q0 289 -301 289q-24 0 -78 -4l-36 -2q-43 0 -43 36q0 35 43 35q12 0 59 -8q52 -6 86 -6q114 0 179 67
t65 193q0 120 -64 183t-176 63q-90 0 -142.5 -30t-52.5 -81q0 -24 29 -67q29 -44 29 -72q0 -46 -31 -73t-80 -27q-58 0 -95.5 35t-37.5 94q0 110 119 180q117 69 289 69q207 0 340 -77q131 -76 131 -197q0 -126 -127.5 -201.5t-345.5 -83.5v-2q248 0 390 -79t142 -224
q0 -140 -147 -239t-379 -99z" />
    <glyph glyph-name="four" unicode="4" horiz-adv-x="1024" 
d="M915 260h-137q3 -123 23 -164q22 -43 96 -69q51 -19 47 -34q-2 -7 -14 -7l-113 6q-101 8 -180 8q-61 0 -156 -6q-84 -8 -96 -8q-14 0 -14 12q0 1 0.5 2.5t1.5 2.5t2.5 2t3.5 2.5t4 2.5t5.5 3t6.5 3t7.5 3t7.5 4q78 35 94 71q18 40 18 166h-483q-27 0 -27 23q0 14 19 36
l647 797q41 50 53 53q4 2 19 2q32 0 32 -28l-4 -305v-498h137q48 0 48 -37q0 -43 -48 -43zM516 858q-8 0 -24 -22l-398 -496h428v506q0 12 -6 12z" />
    <glyph glyph-name="five" unicode="5" horiz-adv-x="1144" 
d="M506 -31q-173 0 -285 80q-108 83 -108 201q0 60 35.5 95.5t91.5 35.5q48 0 79 -27t31 -71q0 -36 -28 -84q-29 -50 -29 -76q0 -56 46.5 -88.5t127.5 -32.5q137 0 213 86.5t76 245.5q0 158 -73.5 236.5t-207.5 78.5q-137 0 -237 -74q-27 -18 -35 -18q-12 0 -25.5 11.5
t-13.5 23.5v522q0 47 49 47q2 0 34.5 -3t82.5 -7t107 -8t118.5 -7t106.5 -3q144 0 326 27l5 1q13 0 13 -12q0 -87 -111 -170q-110 -82 -281 -82q-53 0 -112 8t-106 20t-86 24t-62.5 20t-24.5 8q-14 0 -14 -14v-361q122 94 336 94q206 0 348 -92q143 -88 143 -258
q0 -164 -147 -272q-147 -105 -383 -105z" />
    <glyph glyph-name="six" unicode="6" horiz-adv-x="1167" 
d="M684 705q165 0 281 -93q116 -91 116 -250q0 -176 -135 -284q-136 -109 -325 -109q-236 0 -367 168q-133 171 -133 418q0 251 160 434q159 182 395 182q136 0 231 -65q97 -66 97 -164q0 -58 -34 -91.5t-87 -33.5q-50 0 -81.5 26t-31.5 70q0 17 22.5 66.5t22.5 69.5
q0 41 -40.5 65.5t-106.5 24.5q-157 0 -230 -131q-55 -98 -55 -396v-100q20 91 104 142t197 51zM621 2q115 0 171 82t56 268q0 301 -227 301q-107 0 -171.5 -83t-64.5 -234q0 -162 62.5 -248t173.5 -86z" />
    <glyph glyph-name="seven" unicode="7" horiz-adv-x="1009" 
d="M993 1159q29 0 29 -26q0 -3 -3.5 -9.5t-11.5 -17.5t-15.5 -21t-21.5 -27.5t-24 -31.5l-282 -360q-193 -260 -193 -365q0 -40 21.5 -114.5t21.5 -94.5q0 -56 -34 -89.5t-89 -33.5q-57 0 -92 39t-35 105q0 85 35 159q7 13 17 33t19 35.5t25 36.5q54 73 89 115l53 61l65 72
l68 77l168 216q-49 -15 -123 -15q-46 0 -199 12q-162 13 -207 13q-66 0 -110 -23l-47 -209q-6 -18 -17 -18q-14 0 -14 16l2 12q1 11 4 33t6 50.5t6.5 70t6.5 84.5q10 130 10 236q0 20 14 20q13 0 19 -14l14 -49q82 16 168 16q53 0 203 -12q166 -13 204 -13q67 0 126 8
t91 15.5t33 7.5z" />
    <glyph glyph-name="eight" unicode="8" horiz-adv-x="1099" 
d="M702 668q162 -64 236 -143t74 -195q0 -169 -148 -264q-148 -97 -360 -97q-178 0 -297 82q-117 83 -117 209q0 201 268 303q-113 56 -166 123.5t-53 167.5q0 138 123 227q125 90 293 90q159 0 266 -67q109 -65 109 -174q0 -168 -228 -262zM561 1139q-99 0 -165 -50.5
t-66 -134.5q0 -98 90 -157q81 -50 211 -101q32 -12 35 -14q155 82 155 244q0 92 -76 152.5t-184 60.5zM514 2q128 0 202.5 63t74.5 171q0 94 -69 150t-243 124l-88 37q-188 -95 -188 -279q0 -119 84.5 -192.5t226.5 -73.5z" />
    <glyph glyph-name="nine" unicode="9" horiz-adv-x="1159" 
d="M477 451q-157 0 -272 92t-115 252q0 163 131 270q130 106 311 106q166 0 288.5 -81t178.5 -213q54 -130 54 -279q0 -260 -160 -446q-157 -183 -410 -183q-145 0 -252 64q-106 63 -106 168q0 54 33.5 86t85.5 32q48 0 78 -25t30 -67q0 -18 -20.5 -63.5t-20.5 -61.5
q0 -44 52.5 -72t138.5 -28q83 0 145 36.5t92 98.5q28 61 37 152q10 105 10 340q-24 -85 -110 -131.5t-199 -46.5zM549 1139q-115 0 -170 -77.5t-55 -252.5q0 -307 221 -307q109 0 174 83.5t65 237.5q0 152 -62 234t-173 82z" />
    <glyph glyph-name="colon" unicode=":" horiz-adv-x="518" 
d="M252 770q69 0 110 -39t41 -102t-42 -102.5t-109 -39.5q-66 0 -108 39.5t-42 102.5t42 102t108 39zM252 260q69 0 110 -39t41 -102t-42 -102.5t-109 -39.5q-66 0 -108 39.5t-42 102.5t42 102t108 39z" />
    <glyph glyph-name="semicolon" unicode=";" horiz-adv-x="534" 
d="M254 776q69 0 110.5 -39t41.5 -102t-42 -102t-110 -39q-64 0 -107 39.5t-43 101.5q0 63 42 102t108 39zM143 -303q-18 0 -18 14q0 13 18 19q92 39 155.5 112.5t63.5 155.5q0 27 -18 27q-2 0 -20 -12.5t-44.5 -25t-48.5 -12.5q-52 0 -90.5 38.5t-38.5 97.5q0 61 42 100
t106 39q76 0 123 -55t47 -146q0 -61 -18 -115t-46.5 -90.5t-61.5 -66t-64.5 -46.5t-54 -25.5t-32.5 -8.5z" />
    <glyph glyph-name="less" unicode="&#x3c;" horiz-adv-x="1146" 
d="M256 358l504 314q23 12 31.5 12t15.5 -12q10 -9 7.5 -21t-26.5 -24l-475 -295l475 -295q24 -12 26.5 -24t-7.5 -21q-7 -12 -15.5 -12t-31.5 12l-504 313q-20 12 -20 26.5t20 26.5z" />
    <glyph glyph-name="equal" unicode="=" horiz-adv-x="1146" 
d="M236 729h675q17 0 17 -24.5t-17 -24.5h-675q-17 0 -17 24.5t17 24.5zM236 442h675q17 0 17 -24.5t-17 -24.5h-675q-17 0 -17 24.5t17 24.5z" />
    <glyph glyph-name="greater" unicode="&#x3e;" horiz-adv-x="1146" 
d="M862 305l-504 -313q-23 -12 -31.5 -12t-15.5 12q-10 9 -7.5 21t26.5 24l475 295l-475 295q-24 12 -26.5 24t7.5 21q7 12 15.5 12t31.5 -12l504 -314q20 -12 20 -26.5t-20 -26.5z" />
    <glyph glyph-name="question" unicode="?" horiz-adv-x="1103" 
d="M453 383v57q0 94 28.5 148.5t100.5 95.5q77 44 109 108.5t32 184.5q0 299 -234 299q-91 0 -149.5 -33t-58.5 -84q0 -34 32 -72q33 -39 33 -77q0 -44 -34.5 -72.5t-84.5 -28.5q-55 0 -89 34t-34 93q0 118 121 195q121 80 310 80q212 0 337 -84.5t125 -231.5
q0 -124 -84 -203.5t-254 -132.5q-87 -29 -122 -76t-35 -134v-66h-49zM485 229q63 0 100.5 -35t37.5 -92t-38.5 -93t-99.5 -36q-58 0 -96.5 36.5t-38.5 92.5q0 57 37.5 92t97.5 35z" />
    <glyph glyph-name="at" unicode="@" horiz-adv-x="1478" 
d="M1073 741q14 0 14 -14q0 -10 -10 -68l-47 -243q-24 -123 -24 -166q0 -100 94 -100q88 0 170 88q84 90 84 276q0 218 -166 350q-168 133 -416 133q-274 0 -461 -172q-186 -171 -186 -448q0 -252 176 -402q175 -153 430 -153q225 0 393 104q40 27 47 27q19 0 19 -19
q0 -10 -31 -32q-169 -117 -428 -117q-277 0 -469 162q-190 163 -190 430q0 294 202 475q203 182 498 182q272 0 453 -141q182 -141 182 -381q0 -200 -111 -311q-109 -109 -237 -109q-201 0 -201 193l8 86h-6q-37 -148 -98.5 -214.5t-161.5 -66.5q-102 0 -172 77t-70 202
q0 166 111 280q113 113 262 113q71 0 135 -37t68 -37q18 0 74 27q56 26 65 26zM649 133q87 0 146 164q59 165 59 285q0 141 -86 141t-150 -143q-63 -138 -63 -289q0 -158 94 -158z" />
    <glyph glyph-name="A" unicode="A" horiz-adv-x="1454" 
d="M836 -12q-21 0 -21 12q0 2 0.5 4t1 3t1.5 2.5t2 2.5t3 2t3.5 1.5l4.5 1.5t5.5 2t6.5 2t7 2q90 27 90 90q0 45 -78 284q-11 26 -41 29q-70 4 -274 4q-183 0 -199 -2q-23 -3 -31 -20q-41 -121 -59 -187q-14 -49 -14 -84q0 -80 118 -114q31 -9 31 -21q0 -14 -18 -14
q-1 0 -78 6t-119 6q-30 0 -86 -6q-55 -6 -57 -6q-21 0 -21 14q0 15 23 18q67 16 100 60q33 41 88 182q226 609 318 883q14 38 14 49q0 15 -53 33q-41 9 -41 24q0 17 24 17q181 8 364 56l17 5q17 0 17 -16q0 -2 -9.5 -18t-9.5 -25q0 -12 13 -56q184 -534 368 -997
q38 -94 63.5 -131.5t65.5 -54.5q58 -20 54 -35q-2 -8 -19 -8q-2 0 -113 6t-186 6q-27 0 -65 -1t-73 -3t-66 -4t-51 -3t-21 -1zM561 471q205 0 248 6q18 3 18 17q0 2 -4 18l-225 641q-4 12 -8 12t-10 -12l-228 -643q0 -3 -3 -12.5t-3 -12.5q0 -7 14 -10q50 -4 201 -4z" />
    <glyph glyph-name="B" unicode="B" horiz-adv-x="1415" 
d="M719 -14q-46 0 -158 8t-186 8q-25 0 -60.5 -1t-68 -3t-61 -4t-47 -3t-19.5 -1q-15 0 -14 11q0 15 36 28q48 18 62 63q22 74 22 498v65q0 464 -20 537q-12 51 -58 72l-6 2q-37 14 -36 29q0 10 14 10l43 -3q44 -4 101.5 -8t92.5 -4q67 0 179 8q154 11 170 11q284 0 407 -66
q145 -77 145 -235q0 -142 -125.5 -227t-371.5 -97v-6h18q236 0 377 -66q184 -79 184 -250q0 -183 -160 -279.5t-460 -96.5zM631 696q186 0 258 66q69 66 69 246q0 150 -66 211t-220 61q-104 0 -131 -27q-17 -24 -17 -79v-424q0 -35 19.5 -44.5t87.5 -9.5zM707 14
q317 0 317 334q0 311 -346 311q-97 0 -125.5 -20.5t-28.5 -89.5v-176q0 -281 21 -316q27 -43 162 -43z" />
    <glyph glyph-name="C" unicode="C" horiz-adv-x="1386" 
d="M1284 520q16 0 16 -14l-10 -203q-6 -158 -6 -321q0 -12 -12 -14q-16 -3 -21 21q-2 7 -2 15q-6 72 -63 72q-26 0 -162 -53q-139 -54 -256 -54q-297 0 -487 187q-191 188 -191 487t197 487q198 189 491 189q118 0 240 -49q124 -47 133 -47q39 0 45 61q6 35 24 35
q14 -2 15 -19q0 -100 12 -235q17 -218 38 -303l1 -2q0 -15 -14 -15q-18 0 -21 19l-22 82q-60 219 -170 331.5t-264 112.5q-379 0 -379 -647q0 -150 19 -263.5t51.5 -185t80.5 -116.5t100.5 -62.5t116.5 -17.5q165 0 287.5 97t163.5 282l29 123q3 20 20 20z" />
    <glyph glyph-name="D" unicode="D" horiz-adv-x="1570" 
d="M711 1309q343 0 555 -185q213 -186 213 -479q0 -294 -213 -483q-212 -185 -555 -185q-6 0 -24 1.5t-55.5 4.5t-70.5 5q-140 10 -196 10q-57 0 -152 -6l-94 -4q-15 0 -15 12q0 11 27 20l16 9q49 21 58 112q10 105 10 508q0 471 -18 545q-12 50 -52 68q-38 20 -41 28
q0 10 15 10l94 -6q122 -4 152 -4q77 0 194 8q36 2 73.5 5t55.5 4.5t23 1.5zM725 6q428 0 428 639q0 331 -109 483t-319 152q-168 0 -195 -82q-16 -56 -16 -549q0 -511 18 -561q27 -82 193 -82z" />
    <glyph glyph-name="E" unicode="E" horiz-adv-x="1337" 
d="M1202 104q0 -16 4.5 -31.5t11 -27t12.5 -20.5t10 -14l5 -5q0 -12 -14 -12q-1 0 -36.5 0.5t-115 1.5t-170.5 2q-207 2 -465 2q-51 0 -102.5 -0.5t-88.5 -1.5t-66.5 -2t-46.5 -1.5t-19 -0.5q-17 0 -17 12t27 21l14 6q48 18 62 63q22 71 22 484v65q0 468 -20 541
q-12 50 -57 71q-4 0 -7 3q-43 18 -42 32q3 7 18 8q2 0 22.5 -1t54 -2.5t72.5 -3t84.5 -2.5t83.5 -1q67 0 473 4q307 6 310 6q14 0 14 -12l-5 -5q-4 -5 -10 -13.5t-12.5 -19.5t-11 -26.5t-4.5 -31.5q0 -46 9 -120.5t17 -125.5l9 -51q0 -16 -13 -17q-15 -1 -21 23q-1 1 -1 2
q-72 226 -182 297q-55 36 -111.5 49t-144.5 13q-156 0 -185 -39q-21 -24 -30 -119q-8 -80 -11 -365q0 -35 24 -46t99 -11q160 0 211 78q29 51 51 117q4 11 11.5 15t13.5 0t6 -13l-1 -13q-1 -12 -3 -33.5t-4 -48t-3 -59t-1 -61.5q0 -34 1 -67.5t3 -58t4 -44t3 -30t1 -11.5
q0 -15 -12 -15q-14 0 -17 17q-40 111 -88 151q-47 41 -176 41q-78 0 -100.5 -10t-22.5 -45q3 -478 45 -526q30 -37 170 -37q203 -3 308 96q110 101 151 373q3 28 23 28q12 0 12 -16l-20 -169q-15 -148 -15 -237z" />
    <glyph glyph-name="F" unicode="F" horiz-adv-x="1247" 
d="M1210 1288l-4 -5q-4 -5 -10 -13.5t-12.5 -19.5t-10.5 -26.5t-4 -31.5q0 -105 32 -277l1 -6q0 -16 -12 -16q-14 0 -23 25q-72 209 -168 272q-98 67 -264 67q-141 0 -170 -36q-24 -31 -33 -131q-8 -91 -8 -400q0 -32 27 -40.5t125 -8.5q96 0 145 46t88 169q6 16 19 16
q10 0 10 -14v-8q-1 -7 -2 -20t-2 -30t-2 -38t-2 -43t-1.5 -47.5t-0.5 -48.5q0 -37 1 -74.5t2.5 -65t3 -49.5t2.5 -34l1 -13q0 -14 -10 -14q-13 0 -19 16q-33 120 -84.5 168.5t-148.5 48.5t-124 -8t-28 -39q0 -247 6 -346q9 -97 27 -135q20 -36 72 -51q49 -15 49 -25
q0 -12 -16 -12q-1 0 -22.5 1t-55 2.5t-71 3t-76 2.5t-64.5 1q-39 0 -102 -3t-107 -6l-43 -3q-17 0 -17 12q0 11 27 23l8 4q49 18 64 61q22 68 22 455v102q0 472 -20 545q-12 51 -58 72q-2 0 -4 2q-39 14 -39 24q0 12 17 12q1 0 29 -1t73.5 -2.5t98.5 -3t116 -2.5t115 -1
q126 0 412 4q217 6 231 6t14 -12z" />
    <glyph glyph-name="G" unicode="G" horiz-adv-x="1433" 
d="M1292 -31q-10 0 -16 25q-12 92 -68 92q-26 0 -91 -28t-155.5 -56.5t-177.5 -28.5q-305 0 -499 185q-195 189 -195 477q0 299 205 489q205 193 510 193q82 0 165 -22.5t138 -45t68 -22.5q24 0 35 14.5t16 50.5q3 37 22 37q17 0 17 -22q0 -49 1.5 -97t3.5 -87.5t5 -76
t6.5 -65t6.5 -53.5t6 -42.5t5 -29.5t3.5 -17.5t1.5 -4.5q0 -15 -17 -15q-12 0 -18 19q-98 246 -209 348q-109 100 -260 100q-386 0 -383 -651q0 -637 373 -637q112 0 175.5 53t63.5 150v94q0 102 -12 129q-9 27 -60 49q-22 7 -28 12t-6 13q0 12 14 12l84 -6q73 -8 135 -8
q39 0 100 3t107 6l45 3q14 0 14 -10q0 -6 -9.5 -11.5t-27 -12t-26.5 -11.5q-34 -21 -43 -64q-8 -39 -8 -204v-195q0 -31 -17 -31z" />
    <glyph glyph-name="H" unicode="H" horiz-adv-x="1628" 
d="M813 621q-189 0 -242 -9q-52 -6 -55 -43q0 -338 10 -436q12 -87 62 -108q37 -12 37 -27q0 -12 -15 -12l-94 6q-84 8 -149 8q-70 0 -154 -8l-94 -6q-15 0 -14 11q1 15 38 28q55 22 64 116q10 105 10 508q0 395 -10 500q-9 95 -64 117q-41 14 -38 30q1 9 14 9l94 -7
q84 -8 154 -8q65 0 149 8l94 7q15 0 15 -13q0 -14 -37 -26q-44 -18 -56 -74q-16 -75 -16 -481q3 -36 55 -45t242 -9q197 0 254 11q47 9 47 57v-170q0 46 -47 55q-57 11 -254 11zM1487 25q37 -14 36 -29q0 -10 -14 -10q-12 0 -96 8q-95 6 -149 6q-22 0 -55.5 -1.5t-65 -3.5
t-60 -4t-46.5 -3.5t-19 -1.5q-15 0 -14 11q0 15 36 28q55 22 64 120q10 113 10 517q0 464 -18 534q-12 52 -56 70q-37 14 -36 29q0 10 14 10q1 0 19 -1.5t46.5 -3.5t60 -4.5t65 -4t55.5 -1.5q54 0 149 6q94 9 96 9q15 0 14 -11q0 -14 -34 -27l-2 -1q-45 -17 -57 -80
q-17 -87 -17 -537q0 -464 17 -547q12 -60 57 -77z" />
    <glyph glyph-name="I" unicode="I" horiz-adv-x="772" 
d="M141 -12q-15 0 -14 10q1 14 37 31q54 22 63 114q11 116 11 506q0 385 -11 500q-9 95 -63 117q-37 12 -37 24q0 15 14 15q1 0 18 -1.5t44.5 -3.5t58.5 -4.5t65.5 -4t59.5 -1.5q73 0 154 8l92 7q14 0 14 -15q0 -10 -39 -24q-45 -17 -57 -84q-14 -71 -14 -533
q0 -472 16 -547q12 -58 55 -73q40 -18 39 -33q-1 -8 -14 -8l-92 8q-95 6 -154 6q-39 0 -98.5 -3.5t-103.5 -6.5z" />
    <glyph glyph-name="J" unicode="J" horiz-adv-x="1163" 
d="M1077 1305q15 0 15 -13q0 -3 -1.5 -5t-4.5 -4.5t-7 -4t-11 -5.5t-13 -7q-55 -27 -70 -86q-12 -59 -12 -269v-385q0 -283 -134.5 -420t-381.5 -137q-164 0 -279 80q-112 78 -112 234q0 78 41.5 125t107.5 47q50 0 82.5 -31t32.5 -76q0 -39 -39 -90t-39 -98
q0 -68 54.5 -114t144.5 -46q223 0 223 293v547q0 240 -15 311q-15 76 -75 115q-5 5 -13.5 9t-13 7.5t-4.5 9.5q0 13 14 13q5 0 99 -9q94 -6 157 -6q25 0 60 1.5t67.5 4t61 4.5t46.5 3.5t19 1.5z" />
    <glyph glyph-name="K" unicode="K" horiz-adv-x="1466" 
d="M1389 51q53 -41 53 -47q0 -14 -17 -14q-5 0 -84 6q-106 4 -120 4q-43 0 -199 -4q-117 -6 -119 -6q-14 0 -14 12q0 11 24 23q45 20 45 36q0 34 -79 189q-64 130 -187 344q-15 24 -28 24q-12 0 -48 -36l-100 -107q3 -283 12 -356q12 -71 60 -90q39 -18 36 -33q-1 -8 -14 -8
l-44 4q-44 3 -103 6.5t-96 3.5q-59 0 -154 -6l-94 -8q-15 0 -14 10q1 14 38 31q55 22 64 114q10 105 10 506q0 395 -10 500q-9 95 -64 117q-39 14 -39 24q0 15 15 15l45 -3q44 -4 104 -8t99 -4t98 4t102 8l43 3q15 0 15 -15q0 -12 -37 -24q-46 -18 -58 -84q-14 -71 -14 -533
v-135l369 391q162 174 162 271q0 56 -89 94q-18 6 -18 18q0 15 21 15q1 0 19 -1.5t46.5 -3.5t60.5 -3.5t67 -3t60 -1.5q42 0 107 6l65 7q14 0 14 -11q0 -14 -30 -21q-1 -1 -2 -1q-134 -30 -283 -193l-213 -225q370 -678 517 -801z" />
    <glyph glyph-name="L" unicode="L" horiz-adv-x="1249" 
d="M350 1290q82 0 166 8l94 7q15 0 15 -13q0 -10 -27 -22q-3 0 -5.5 -1t-6.5 -3.5t-8 -3.5q-42 -19 -54 -76q-16 -88 -16 -570q0 -293 4 -411q6 -89 25 -121q35 -53 192 -53q169 0 270 94q104 96 150 352q6 27 20 27q13 0 13 -27q-39 -316 -39 -381q0 -29 11.5 -52t22.5 -34
t11 -12q0 -9 -8.5 -11t-48.5 0h-14.5t-15 0.5t-18.5 0.5q-392 8 -413 8q-132 0 -459 -6q-53 -2 -92 -2q-15 0 -15 12q0 7 39 27q44 23 52 77q16 85 16 512q0 422 -10 527q-9 95 -58 119q-39 20 -39 30q0 13 15 13q1 0 15.5 -1.5t38.5 -3.5t52.5 -4.5t62 -4t62.5 -1.5z" />
    <glyph glyph-name="M" unicode="M" horiz-adv-x="1839" 
d="M1378 1298q10 0 65 -4t83 -4q36 0 88.5 2.5t90.5 5.5l38 2q14 0 14 -12q0 -15 -45 -24q-50 -17 -65 -86q-13 -73 -13 -328v-320q0 -197 4 -323q6 -93 21 -131q16 -37 51 -51q47 -15 47 -27t-12 -12q-1 0 -21.5 0.5t-52 1t-67 1t-74 1t-66.5 0.5q-37 0 -95 -1t-101 -2
l-43 -1q-15 0 -15 12q0 3 0.5 5t2.5 4t4 3.5t6 3.5t7.5 4t10.5 5t12 6q60 36 72 116q14 77 14 371q0 478 -2 584v92q0 12 -6 12q-1 0 -8 -10q-1 -2 -23.5 -56.5t-77 -186.5t-116.5 -283l-279 -672q-7 -19 -18 -19t-18 17l-508 1102q-6 14 -11 14q-8 0 -8 -10
q-4 -278 -4 -621q0 -221 10 -289q6 -34 17 -73q7 -22 30.5 -42.5t44.5 -27.5l64 -18q44 -12 44 -29q-1 -12 -19 -12q-5 0 -91 6t-127 6q-37 0 -116 -6q-77 -6 -82 -6q-19 0 -19 14q0 12 35 21q36 9 47 12.5t31 11t27.5 15t18 20t20.5 31.5q23 46 28.5 119.5t5.5 254.5v598
q-2 91 -24 124.5t-94 50.5q-35 6 -35 20q0 16 18 16h14q15 -1 38 -2t49 -2t53.5 -1.5t46.5 -0.5l98 4q16 1 33 2t26 1.5t11 0.5q41 0 59 -41l410 -903l6 -8l6 8l354 877q18 39 34 53t46 14z" />
    <glyph glyph-name="N" unicode="N" horiz-adv-x="1468" 
d="M1253 -45q-16 0 -41 25q-38 46 -378 403l-529 551q-33 33 -45 33t-12 -23v-616q0 -150 33 -209q35 -60 137 -94q35 -9 35 -25q0 -12 -19 -12q-10 0 -90 6t-111 6q-32 0 -102 -6q-71 -6 -84 -6q-18 0 -18 14q0 10 32 16q80 20 115 88q35 72 35 261v553q0 152 -12 210
q-9 61 -52 89q-23 18 -53.5 33t-47.5 23t-17 15q0 13 14 13q1 0 6.5 -1t18 -2.5t26.5 -3.5q53 -6 74 -6q25 0 69.5 6.5t49.5 6.5q32 0 80 -48q216 -207 471 -462q289 -286 383 -390q10 -10 12 -10q4 0 4 10v572q0 135 -36 199.5t-122 89.5q-28 8 -34.5 12t-6.5 14
q0 13 17 13q3 0 12.5 -1t31.5 -2.5t44 -3.5q82 -6 110 -6q37 0 105 6q20 2 37 3.5t24 2.5t8 1q17 0 17 -13q0 -11 -33 -20q-77 -24 -108 -87.5t-31 -207.5v-985q0 -35 -19 -35z" />
    <glyph glyph-name="O" unicode="O" horiz-adv-x="1552" 
d="M776 1329q301 0 494 -190q192 -186 192 -490q0 -295 -194 -489q-194 -191 -492 -191q-299 0 -493 191q-193 193 -193 489q0 300 193 490t493 190zM776 0q171 0 265 160.5t94 488.5q0 647 -359 647q-358 0 -358 -647q0 -325 94.5 -487t263.5 -162z" />
    <glyph glyph-name="P" unicode="P" horiz-adv-x="1366" 
d="M541 387q-12 0 -9 -12v-86q0 -138 18 -191.5t68 -70.5q14 -9 28.5 -13t20 -6.5t5.5 -11.5q0 -10 -15 -10q-1 0 -21.5 1.5t-52 3.5t-67.5 4t-73.5 3.5t-63.5 1.5q-41 0 -104 -3.5t-109 -6.5l-47 -4q-15 0 -15 12q0 11 27 20l16 9q45 17 60 65q22 74 22 512v49
q0 469 -20 539q-15 53 -62 74q-33 17 -36 26q0 13 14 13q1 0 19 -1.5t46.5 -3.5t61 -4.5t67.5 -4t60 -1.5q75 0 176 8q139 11 145 11q297 0 453 -119.5t156 -337.5q0 -215 -154 -354q-150 -138 -397 -138q-31 0 -64 3t-59 7t-47 7.5t-33.5 6.5t-13.5 3zM555 1241
q-12 -15 -18 -51q-7 -93 -9 -156q-2 -80 -2 -356q0 -186 15 -236q18 -41 127 -41q153 0 237 116.5t84 332.5q-1 221 -75 325.5t-224 104.5q-102 0 -135 -39z" />
    <glyph glyph-name="Q" unicode="Q" horiz-adv-x="1562" 
d="M1495 -88q0 -91 -86 -229q-43 -69 -118.5 -113.5t-160.5 -44.5t-173 42t-156 103q-166 149 -285 168q-3 -3 -16 -18.5t-27 -31t-20 -19.5l-27 -25q-29 -27 -72 -27q-55 0 -55 50q0 42 56 71t147 29q67 82 164 110q-256 35 -416 220q-160 189 -160 452q0 300 193 490
t493 190q301 0 494 -190q192 -186 192 -490q0 -292 -188 -483t-481 -197q-151 0 -252 -104q66 -6 272 -62q204 -55 322 -55q262 0 327 158q8 23 23 20q10 -2 10 -14zM418 649q0 -325 94.5 -487t263.5 -162q171 0 265 160.5t94 488.5q0 647 -359 647q-358 0 -358 -647z" />
    <glyph glyph-name="R" unicode="R" horiz-adv-x="1503" 
d="M1202 -57q-83 0 -186 53q-98 52 -172 117q-75 66 -160 118q-85 54 -145 54q-23 0 -23 -27q3 -131 14 -168q12 -40 45 -57q10 -5 28 -12t24 -11.5t6 -9.5q0 -12 -17 -12q-1 0 -19.5 1t-47.5 3t-62 4t-67.5 3t-57.5 1q-37 0 -95.5 -3t-102.5 -6l-43 -3q-15 0 -15 12
q0 7 4 10.5t16.5 9.5t23.5 13q37 18 49 82q14 85 14 557q0 241 -2 307q0 107 -8 164q-7 62 -16.5 80.5t-36.5 33.5q-5 3 -13.5 6.5t-13 6t-9.5 5.5t-7.5 6.5t-2.5 6.5q0 12 17 12l17 -1q17 -1 43.5 -2.5t57 -3t63 -2.5t56.5 -1q46 0 183 10q133 13 159 13q282 0 453 -139
q170 -138 170 -363q0 -240 -170 -381q-169 -141 -418 -141q-61 0 -137 8v-4q64 -10 246 -84q189 -74 330 -74q214 0 241 189q3 10 8 10q11 0 21 -34.5t10 -76.5q0 -115 -74 -198q-70 -82 -178 -82zM641 315q171 0 267 125.5t96 370.5q0 238 -80.5 355.5t-225.5 117.5
q-131 0 -161 -49q-20 -30 -23 -119q-5 -135 -2 -444v-312q2 -30 23.5 -37.5t105.5 -7.5z" />
    <glyph glyph-name="S" unicode="S" horiz-adv-x="1263" 
d="M133 -10q0 26 2 73q4 94 4 125q0 34 -1.5 74.5t-4 74t-5 62t-4 46t-1.5 18.5q0 16 16 16q12 0 21 -22q47 -109 86 -177t98 -137q126 -141 336 -141q136 0 214.5 68t78.5 184q0 105 -72 167t-244 105l-137 35q-383 91 -383 379q0 178 137 279q138 102 326 102
q87 0 176.5 -25.5t148 -51t70.5 -25.5q23 0 30.5 13t12.5 50q6 37 23 37q18 0 18 -19q0 -112 6 -186q2 -25 8.5 -82.5t12.5 -103t6 -43.5q0 -13 -16 -13q-15 0 -21 19q-83 198 -193 299.5t-274 101.5q-126 0 -198 -59.5t-72 -159.5q0 -94 63.5 -145.5t214.5 -89.5l177 -45
q206 -50 299.5 -140.5t93.5 -249.5q0 -205 -150 -319q-151 -115 -360 -115q-136 0 -279 49q-142 50 -161 50q-53 0 -68 -74q-1 -25 -18 -27q-14 5 -17 23z" />
    <glyph glyph-name="T" unicode="T" horiz-adv-x="1386" 
d="M424 -12q-14 0 -14 12q0 10 34 25q77 19 91 57q17 46 14 188v308q0 391 -6 499q-3 106 -21 135q-31 48 -137 48q-49 -1 -76.5 -8t-54.5 -25.5t-46.5 -61t-40 -104t-46.5 -166.5q-6 -31 -23 -31q-12 0 -12 19q6 182 6 309q0 17 -2.5 33.5t-5.5 29t-6 22t-6 15.5l-2 6
q0 15 14 15q1 0 19 -2t61 -5.5t96 -7.5q109 -8 438 -8q330 0 437 8l100 7q68 8 78 8q14 0 14 -15l-3 -6q-2 -6 -5 -15.5t-6 -22t-5.5 -29t-2.5 -33.5l6 -309q0 -20 -12 -19q-13 1 -23 31q-63 293 -150 342q-44 23 -114 23q-107 0 -138 -48q-16 -26 -22 -135q-4 -144 -4 -499
v-306q0 -147 16 -190q14 -38 88 -57q35 -15 35 -25q0 -12 -14 -12q-207 12 -275 12z" />
    <glyph glyph-name="U" unicode="U" horiz-adv-x="1406" 
d="M725 -31q-283 0 -427 151t-144 472v459q0 106 -13.5 148t-56.5 65q-39 17 -39 28q0 13 16 13l43 -3q44 -4 103 -8t98 -4q63 0 158 6q99 9 100 9q15 0 15 -13q0 -10 -50 -37q-43 -20 -59 -65q-14 -41 -14 -178l-2 -502q-1 -220 91.5 -334.5t266.5 -114.5q161 0 268 125
q111 126 111 400v442q0 119 -31.5 171t-111.5 71q-32 11 -31 26q1 9 14 9l66 -7q57 -8 108 -8q50 0 111 6q62 9 63 9q15 0 15 -13q0 -8 -50 -26q-64 -23 -87 -77.5t-23 -184.5v-426q0 -305 -133.5 -457t-374.5 -152z" />
    <glyph glyph-name="V" unicode="V" horiz-adv-x="1441" 
d="M707 -55q-10 0 -19 12l-461 1096q-36 84 -72.5 127.5t-91.5 70.5q-46 30 -49 39q0 15 19 15l51 -2q147 -13 254 -13q63 0 168 6q108 9 117 9q20 0 20 -15q0 -13 -43 -22q-52 -13 -72 -31.5t-20 -50.5q0 -49 61 -223q45 -123 156 -410q96 -237 98 -246q3 -10 8 -10
q8 0 11 12q254 588 313 758q23 67 23 98q0 43 -28 67t-91 38q-31 9 -31 18q0 15 19 15q1 0 9.5 -1t28 -2.5t41.5 -3.5q76 -6 119 -6q42 0 103 6l61 7q13 0 18.5 -7t0 -15.5t-20.5 -12.5q-76 -12 -118.5 -54.5t-90.5 -150.5l-473 -1106q-6 -12 -18 -12z" />
    <glyph glyph-name="W" unicode="W" horiz-adv-x="2166" 
d="M2132 1300q20 0 20.5 -14t-18.5 -16q-76 -13 -116.5 -55.5t-82.5 -149.5l-413 -1098q-6 -12 -18 -12t-17 12l-406 1053l-370 -1055q-6 -12 -19 -12q-9 0 -18 12q-115 294 -463 1094q-41 92 -74 134.5t-78 63.5q-29 10 -37 16t-8 17q0 13 19 13q203 -13 305 -13
q58 0 172 6q33 2 62 3.5t42 2.5l13 1q21 0 20 -11q-1 -14 -43 -27q-1 -1 -2 -1q-82 -21 -82 -82q0 -79 283 -838l4 -4q2 2 2 4q178 496 252 731q-38 96 -57 127q-20 33 -64 60q-8 5 -16 9.5t-11 5.5t-4.5 4t-1.5 9q0 13 19 13q1 0 19.5 -1.5t47.5 -3.5t61.5 -3.5t68.5 -3
t63 -1.5q67 0 132 3t102 7l38 3q19 0 19 -13q0 -14 -43 -26q-45 -12 -63.5 -28.5t-18.5 -45.5q0 -37 63 -229q10 -28 20.5 -59t22 -66t17.5 -52l77 -217l72 -205q3 -18 8 -18l8 16q50 142 86 238q40 104 76 211q45 123 56 156q51 143 51 192q0 43 -28.5 68.5t-96.5 42.5
q-27 8 -27 21q0 11 17 11q2 0 69 -6q90 -4 109 -4q20 0 45 1t47.5 2.5t42 3t32 2.5t13.5 1z" />
    <glyph glyph-name="X" unicode="X" horiz-adv-x="1478" 
d="M1393 47q12 -6 41 -18t40.5 -18.5t6.5 -10.5q0 -14 -11 -14q-1 0 -21.5 1.5t-52 3.5t-67 4t-72 3.5t-61.5 1.5q-28 0 -66.5 -1.5t-73.5 -3.5t-66 -4t-50 -3l-20 -2q-19 0 -19 14q0 11 33 31q35 21 35 43q0 25 -64 123l-258 383l-29 -31q-270 -331 -270 -438q0 -67 96 -97
q23 -7 23 -16q0 -12 -16 -12l-17 2q-16 1 -41.5 3t-54 4t-59.5 3.5t-52 1.5t-52 -1.5t-60 -3.5t-54.5 -4t-41.5 -3.5t-15 -1.5q-12 0 -12 10q0 13 20 16q89 19 146 64q141 111 463 542q-2 6 -9 13q-224 332 -329 465q-91 116 -179 159q-13 7 -26 12t-19.5 7t-12 4t-7.5 4.5
t-2 7.5q0 15 16 15q3 0 86 -9q85 -6 150 -6q29 0 69.5 1.5t78.5 4t71.5 4.5t55 3.5t22.5 1.5q12 0 12 -13q0 -7 -33 -24t-33 -39q0 -58 267 -430l47 47q194 262 194 340q0 37 -55 71q-8 4 -18.5 8.5t-16 7.5t-11.5 6t-8.5 6.5t-2.5 6.5q0 13 14 13l4 -1q3 0 10 -1t17 -2
t22 -2t25.5 -2.5t28 -2.5t28.5 -2t28.5 -1.5t27.5 -0.5q28 0 62.5 1.5t64.5 4t55.5 4.5t41.5 3.5t17 1.5q12 0 12 -11q0 -13 -49 -28q-92 -27 -182 -111q-96 -89 -270 -311l-66 -74q18 -22 43 -59q443 -621 531 -664z" />
    <glyph glyph-name="Y" unicode="Y" horiz-adv-x="1341" 
d="M412 -14q-17 0 -17 12q0 10 43 31q60 22 72 94q14 69 14 364q0 78 -73 191l-242 379q-63 103 -109 157q-34 40 -69 54q-33 11 -33 24q0 11 16 11q1 0 20 -1.5t48 -3.5t62 -3.5t69 -3t63 -1.5q37 0 98.5 3t107.5 7l46 3q17 0 17 -13q0 -9 -37 -24q-45 -17 -45 -45
q0 -76 330 -621l168 293q100 169 100 260q0 92 -113 119q-22 3 -22 18q0 13 20 13q1 0 10.5 -1t31 -2.5t46.5 -3.5q86 -6 135 -6q27 0 86 6q17 2 32 3.5t21 2.5t7 1q12 0 16.5 -6t0 -14t-16.5 -13q-68 -21 -109 -62q-39 -39 -98 -139l-279 -473q-8 -13 -8 -29
q0 -403 19 -471q15 -43 57 -63l8 -4q44 -20 41 -35q-2 -8 -14 -8l-48 4q-48 3 -111 6.5t-99 3.5q-24 0 -59 -1.5t-69 -3.5t-64 -4t-49.5 -3.5t-20.5 -1.5z" />
    <glyph glyph-name="Z" unicode="Z" horiz-adv-x="1374" 
d="M78 -14q-15 0 -15 12q0 10 21 31q114 138 432 624q223 338 283 439q61 101 61 129q0 12 -9.5 19t-40.5 11t-89 4h-84q-216 0 -305 -59q-84 -58 -174 -278q-12 -25 -25 -25q-14 0 -14 16q37 187 37 279q0 21 -2 39t-5 29.5t-6.5 19.5t-5.5 12l-2 4q0 13 15 13l8 -1
q9 0 26 -0.5t40 -1t57.5 -1t72.5 -1.5q135 -2 363 -2q141 0 223 2q123 3 207 3q57 2 92 2q14 0 14 -13q0 -5 -4.5 -8.5t-13.5 -10t-16 -16.5q-73 -93 -392 -608q-115 -180 -151 -233l-58 -88q-25 -37 -83 -133q-64 -100 -64 -125q0 -35 57 -35q35 0 199 4q233 18 358 125
q127 109 179 368q3 33 24 33q10 0 10 -16l-4 -33q-5 -32 -13 -95.5t-15 -127.5q-11 -132 -11 -191q0 -34 2 -61l3 -41q0 -12 -15 -12q-10 0 -61.5 0.5t-151.5 1.5t-188 2h-289q-180 0 -297 -2q-33 -1 -63.5 -1.5t-50.5 -1t-35 -1t-23 -0.5h-8z" />
    <glyph glyph-name="bracketleft" unicode="[" horiz-adv-x="743" 
d="M659 1503h-262v-1917h262v-53h-423v2023h423v-53z" />
    <glyph glyph-name="backslash" unicode="\" horiz-adv-x="849" 
d="M854 -178q-24 0 -33 20l-635 1458q-1 6 -2 11.5t-1.5 8t-0.5 3.5q0 12 19 12q26 -3 32 -24l635 -1456q1 -4 2 -8.5t1.5 -7t0.5 -3.5q0 -14 -18 -14z" />
    <glyph glyph-name="bracketright" unicode="]" horiz-adv-x="743" 
d="M508 1556v-2023h-422v53h262v1917h-262v53h422z" />
    <glyph glyph-name="asciicircum" unicode="^" horiz-adv-x="1122" 
d="M111 854q0 14 182 264l139 189q47 65 68 77q15 9 41 9q23 0 42.5 -11.5t28.5 -25.5q13 -13 37 -49l109 -146q210 -287 213 -307q0 -42 -86 39l-342 336h-4l-342 -336q-59 -53 -72 -53q-14 0 -14 14z" />
    <glyph glyph-name="underscore" unicode="_" horiz-adv-x="1144" 
d="M121 -88h901q17 0 17 -24.5t-17 -24.5h-901q-17 0 -17 24.5t17 24.5z" />
    <glyph glyph-name="grave" unicode="`" horiz-adv-x="819" 
d="M625 926q-1 0 -4.5 1.5t-6.5 2.5q-158 65 -350 188q-47 29 -65 51t-17 48q1 32 23 50.5t55 16.5q37 -3 100 -63q65 -59 269 -275q9 -9 6 -12q0 -8 -10 -8z" />
    <glyph glyph-name="a" unicode="a" horiz-adv-x="1085" 
d="M1057 137q14 0 14 -16q0 -76 -44 -114t-146 -38q-107 0 -162 48t-62 153q-37 -98 -123.5 -149.5t-201.5 -51.5q-120 0 -189 50t-69 143q0 150 174 209q84 29 175 44.5t232 26.5v117q0 126 -49 182t-149 56q-66 0 -107 -24t-41 -60q0 -13 19.5 -56t19.5 -61
q0 -42 -32.5 -68t-86.5 -26q-56 0 -87 30t-31 84q0 91 100 151t283 60q219 0 330.5 -90t111.5 -293v-315q0 -82 47 -82q53 0 53 72q3 18 21 18zM444 41q87 0 149 81.5t62 211.5v78l-6 -2q-214 -21 -276 -76q-49 -43 -49 -135q0 -158 120 -158z" />
    <glyph glyph-name="b" unicode="b" horiz-adv-x="1126" 
d="M152 -31q-23 0 -23 25v4q0 5 0.5 14t1 21.5t1 30t1 38t1 46t1 52t0.5 58.5v64v643q0 78 -12.5 132t-28.5 70q-16 20 -37 33q-28 12 -24 28q2 11 20 11q80 2 157 24.5t121.5 44t45.5 21.5q16 0 16 -16l-1 -9q0 -10 -1 -25t-2 -33t-1.5 -38t-0.5 -37v-532h6q65 188 277 188
q158 0 272 -114q115 -115 115 -307q0 -200 -123 -320q-120 -117 -307 -117q-110 0 -232 94q-26 20 -49.5 40.5t-32 27t-12.5 6.5q-14 0 -33 -22l-75 -119q-21 -27 -41 -27zM590 6q97 0 145.5 93t48.5 307q0 198 -44 285t-138 87q-98 0 -157 -96t-58 -276v-52
q1 -173 56.5 -260.5t146.5 -87.5z" />
    <glyph glyph-name="c" unicode="c" horiz-adv-x="976" 
d="M915 260q13 0 13 -12v-4q-56 -275 -402 -275q-201 0 -327 117q-127 118 -127 303q0 203 135 320q136 118 354 118q95 0 172 -26q22 -7 43.5 -13.5t29.5 -9t9 -2.5q29 0 41 43q7 17 18 17q15 0 15 -19q0 -49 2.5 -99.5t6.5 -89t8 -68.5t6.5 -46.5t2.5 -15.5q0 -16 -13 -17
q-15 0 -21 21q-38 152 -104.5 222.5t-170.5 70.5q-110 0 -181 -93t-71 -274q0 -186 72 -284.5t197 -98.5q103 0 175 51.5t101 145.5q6 18 16 18z" />
    <glyph glyph-name="d" unicode="d" horiz-adv-x="1157" 
d="M1092 59q26 -9 26 -20q0 -14 -20 -14q-29 -1 -62.5 -3.5t-65 -6.5t-62.5 -8.5t-56.5 -9t-45 -8t-30.5 -5.5l-12 -2q-14 0 -14 12q0 1 2.5 29.5t6 71.5t5.5 75h-4q-71 -201 -275 -201q-172 0 -292 117q-121 121 -121 301q0 197 121 318q119 122 292 122q182 0 252 -131h2
v164q-3 202 -16 252q-13 62 -57 82q-48 22 -48 33q0 14 21 14q52 1 107 10t97.5 21.5t76.5 24t54 19.5l19 9q13 0 13 -12l-5 -35q-10 -82 -10 -332v-663q0 -119 19 -162q21 -41 82 -62zM754 387q3 397 -219 397q-189 0 -195 -397q6 -369 190 -369q100 0 161.5 97t62.5 272z
" />
    <glyph glyph-name="e" unicode="e" horiz-adv-x="1015" 
d="M938 246q14 0 14 -13q0 -6 -6 -24q-36 -106 -143.5 -173t-253.5 -67q-216 0 -348 123q-129 123 -129 309q0 189 131 308q130 118 340 118q177 0 293 -90q114 -89 114 -227q0 -78 -67 -78l-543 2v-14q0 -381 274 -381q110 0 193 53t115 137q10 17 16 17zM541 799
q-189 0 -201 -326l342 4q25 0 30 9.5t5 52.5q0 260 -176 260z" />
    <glyph glyph-name="f" unicode="f" horiz-adv-x="708" 
d="M434 1278q-45 0 -72.5 -27t-27.5 -77q0 -31 49 -132t49 -196v-51q32 0 74.5 1.5t72.5 3t31 1.5q33 0 33 -29t-33 -29l-178 5v-476q0 -124 25.5 -176t99.5 -69q43 -11 41 -29q-1 -10 -14 -10q-3 0 -111 6t-164 6q-24 0 -57 -1t-64 -3t-58 -4t-44 -3l-18 -1q-15 0 -15 12
t35 27q61 21 76 69q16 53 16 197v455q-13 0 -29 -0.5t-29.5 -1t-25 -0.5h-18.5l-8 -1q-17 0 -23.5 13.5t0 27t23.5 13.5l110 -4v65q0 254 94 361q94 108 240 108q96 0 153.5 -35t59.5 -90q0 -43 -27.5 -71.5t-70.5 -28.5q-37 0 -57 20.5t-44 77.5q-34 76 -94 76z" />
    <glyph glyph-name="g" unicode="g" horiz-adv-x="1001" 
d="M627 66q184 0 270 -55t86 -171q0 -138 -122.5 -209t-348.5 -71q-446 0 -446 178q0 118 167 145q-153 34 -153 166q0 169 270 199q-126 31 -198 105t-72 177q0 136 117 215q116 82 299 82q53 0 125 -10q19 103 81 160t136 57q59 0 93 -30t34 -80q0 -43 -29 -72t-72 -29
q-74 0 -92 68q-16 47 -49 35q-37 -14 -58 -83l-8 -34q120 -31 188 -104t68 -175q0 -136 -118 -217q-116 -82 -299 -82h-11q-241 0 -241 -92q0 -73 121 -73h262zM496 797q-171 0 -174 -267q3 -268 174 -268q173 0 176 268q-3 267 -176 267zM516 -412q324 0 324 166
q0 121 -174 121h-299q-140 -12 -140 -131q0 -156 289 -156z" />
    <glyph glyph-name="h" unicode="h" horiz-adv-x="1222" 
d="M1128 27q29 -16 29 -27t-11 -12t-66 4q-16 1 -25 2q-74 6 -119 6q-48 0 -121 -6t-76 -6q-14 0 -14 11q1 15 31 28q36 22 45 55q10 42 10 147v357q0 182 -135 182q-101 0 -167.5 -105.5t-66.5 -283.5v-72q0 -191 15 -229q16 -36 59 -53q30 -15 33 -23q0 -14 -17 -14
q-8 0 -88 6t-129 6q-20 0 -49 -1t-56.5 -3t-52 -4t-39.5 -3l-16 -1q-11 0 -15 6t0.5 13.5t16.5 12.5q12 4 13 5q47 21 59 88q14 66 14 295v487q0 172 -14 221q-14 50 -72 84l-12 6q-2 1 -6.5 3t-6 3t-4.5 2.5t-3.5 2.5t-2 2.5t-2 3t-1 3.5t-0.5 5q0 16 24 16q60 2 118.5 11
t99.5 20.5t72.5 23t49.5 19.5t19 8q12 0 12 -12l-6 -29q-13 -84 -13 -235v-459q73 233 301 233q166 0 243 -82.5t77 -259.5v-256q0 -109 10 -147q12 -34 55 -55z" />
    <glyph glyph-name="i" unicode="i" horiz-adv-x="628" 
d="M289 999q-70 0 -117 43t-47 111t46 111t118 43q75 0 120.5 -42.5t45.5 -111.5t-45.5 -111.5t-120.5 -42.5zM82 -12q-14 0 -14 12q0 11 32 25q60 22 72 67q14 43 14 193v209q0 122 -17.5 169t-72.5 70q-33 14 -33 25q0 12 25 12q71 2 134 9t102.5 16t68.5 17t43 13.5
t15 5.5q16 0 16 -14q0 -3 -3 -13t-8 -24t-7 -24q-11 -68 -11 -248v-211q0 -146 19 -201q18 -54 84 -78q25 -6 24 -19q0 -11 -14 -11q-3 0 -94 6q-118 4 -146 4q-23 0 -141 -4q-86 -6 -88 -6z" />
    <glyph glyph-name="j" unicode="j" horiz-adv-x="579" 
d="M291 1016q-72 0 -118 42t-46 111q0 68 46 111t118 43q75 0 120.5 -42.5t45.5 -111.5t-46 -111t-120 -42zM123 -440q-81 0 -136 45.5t-55 111.5q-1 47 26.5 76t70.5 29q81 0 102 -98q27 -105 92 -105q36 0 57 25t21 69q0 30 -57 135q-56 106 -56 201v432q0 117 -19 165.5
t-75 68.5q-36 20 -39 28q0 13 25 13q53 2 101.5 6t85 10t68 12.5t52.5 12.5t36 11t23 8l7 3q16 0 16 -14q0 -4 -2 -12t-6.5 -23.5t-7.5 -28.5q-13 -70 -13 -245v-476q0 -253 -92 -356q-91 -104 -225 -104z" />
    <glyph glyph-name="k" unicode="k" horiz-adv-x="1175" 
d="M1087 45q13 -12 30 -21.5t25.5 -14.5t8.5 -11q0 -10 -16 -10q-1 0 -13.5 1t-33 3t-44.5 4t-51 3t-49 1q-48 0 -137 -6q-85 -6 -88 -6q-14 0 -14 12q0 2 22.5 20t22.5 31q0 31 -195 326q-23 39 -39 39q-6 0 -8 -2l-68 -54v-53q0 -153 11 -213q9 -48 65 -69q31 -9 31 -23
t-15 -14q-8 0 -90 6q-80 6 -129 6q-20 0 -49 -1t-56.5 -3t-52 -4t-39.5 -3l-16 -1q-14 0 -14 12q0 13 18 20q12 4 13 5q47 21 59 90q14 66 14 293v487q0 170 -14 219q-15 52 -72 86l-12 6q-2 1 -6.5 3t-6 3t-4.5 2.5t-3.5 2.5t-2 2.5t-2 3t-1 3.5t-0.5 5q0 16 24 16
q61 2 119 11.5t98.5 21t71.5 23t48.5 19t18.5 7.5q15 0 15 -12l-6 -29q-15 -97 -15 -235v-656q230 182 283 230q68 62 68 92q0 38 -56 59q-34 14 -32 27q1 8 14 8l69 -6q63 -8 105 -8q31 0 98 6q68 6 76 6q16 0 16 -12q0 -14 -59 -29q-54 -10 -107.5 -42t-152.5 -112
l-55 -43q246 -376 380 -528z" />
    <glyph glyph-name="l" unicode="l" horiz-adv-x="626" 
d="M94 -12q-14 0 -14 10q1 14 31 31q54 26 67 94q15 65 15 280v461q0 176 -17 242q-14 56 -76 92q-27 12 -35 18t-8 15q0 13 25 16q65 2 125.5 11.5t102 21t73.5 23t50 19t20 7.5q12 0 12 -12l-1 -3q-1 -4 -2 -11.5t-3 -18.5t-3.5 -27t-3.5 -34.5t-4 -42t-3 -49.5t-2 -58
t-1 -65v-613q3 -200 17 -266q15 -66 76 -102q36 -16 31 -31q-3 -8 -17 -8q-1 0 -90 6q-85 6 -140 6q-21 0 -52 -1t-60 -3t-54.5 -4t-42.5 -3z" />
    <glyph glyph-name="m" unicode="m" horiz-adv-x="1730" 
d="M1636 29q31 -19 31 -29q0 -12 -14 -12q-17 0 -90 6q-71 6 -117 6q-28 0 -93 -4t-67 -4l-31 -4q-14 0 -14 12q0 9 31 31q31 17 39 50t8 136v361q0 163 -115 163q-70 0 -127 -69q-67 -86 -76 -226v-229q0 -100 11 -137q14 -31 53 -51q31 -19 31 -29q0 -12 -15 -12
q-17 0 -90 6q-71 6 -117 6q-21 0 -50 -1.5t-61.5 -3.5t-45.5 -3l-33 -4q-14 0 -14 12q0 10 30 31q31 17 39.5 50t8.5 136v361q0 163 -115 163q-70 0 -127 -69q-78 -104 -78 -281v-151q0 -117 10 -162q11 -38 56 -53q32 -14 32 -25q0 -12 -14 -12l-15 1q-15 1 -38.5 3t-50 4
t-55 3t-48.5 1q-21 0 -51 -1t-57.5 -3t-52 -4t-40 -3t-16.5 -1q-14 0 -14 12q0 8 6.5 13.5t25.5 13.5q51 22 60 57q12 34 12 164v254q0 120 -16 166q-15 43 -64 61q-30 13 -35 23q0 14 21 14q28 1 62 4.5t65.5 9t63 12t57.5 12.5t46 11.5t32 8.5l12 3q14 0 14 -12
q-16 -116 -16 -274q30 136 111 211t204 75q237 0 264 -243h2q36 118 113.5 180.5t192.5 62.5q266 0 266 -305v-305q0 -104 10 -137q14 -31 53 -51z" />
    <glyph glyph-name="n" unicode="n" horiz-adv-x="1208" 
d="M1114 27q37 -16 29 -32q-3 -7 -13 -7q-16 0 -90 6t-118 6q-46 0 -119 -6q-74 -6 -76 -6q-14 0 -14 11q0 15 30 28q36 22 45 55q11 46 11 147v357q0 182 -137 182q-100 0 -167 -105.5t-67 -283.5v-139q0 -117 10 -162q11 -38 56 -53q32 -14 32 -25q0 -12 -14 -12l-15 1
q-15 1 -38.5 3t-50 4t-55 3t-48.5 1q-21 0 -51 -1t-57.5 -3t-52 -4t-40 -3t-16.5 -1q-14 0 -14 12q0 8 6.5 13.5t25.5 13.5q51 22 60 57q12 34 12 164v254q0 120 -16 166q-15 43 -64 61q-30 13 -35 23q0 14 21 14q28 1 62 4.5t65.5 9t63 12t57.5 12.5t46 11.5t32 8.5l12 3
q14 0 14 -12l-1 -7q-1 -7 -2.5 -19.5t-3 -30t-3 -40.5t-3 -48t-2.5 -55.5t-1 -61.5q29 133 109 203.5t202 70.5q166 0 242 -82t76 -260v-256q0 -107 10 -145q11 -33 55 -57z" />
    <glyph glyph-name="o" unicode="o" horiz-adv-x="1083" 
d="M201 709q130 118 342 118q213 0 340 -118q131 -119 131 -310q0 -190 -131 -309q-128 -119 -340 -119q-211 0 -342 119q-129 120 -129 309q0 190 129 310zM543 0q105 0 154.5 93t50.5 306q-1 212 -50.5 305t-154.5 95q-106 -2 -155.5 -95t-49.5 -305q0 -213 49.5 -306
t155.5 -93z" />
    <glyph glyph-name="p" unicode="p" horiz-adv-x="1142" 
d="M702 827q157 0 265 -114q106 -112 106 -303q0 -198 -110 -320q-112 -121 -283 -121q-202 0 -272 156v-328q0 -147 96 -182q43 -14 41 -30q-2 -9 -15 -9q-18 0 -102 8q-91 6 -145 6q-35 0 -91.5 -3.5t-98.5 -6.5l-42 -4q-15 0 -14 10q1 14 37 31q50 24 66 79t16 187v539
q0 166 -13 213q-11 41 -71 76q-5 2 -11 5t-9 4t-7 3l-6 3t-4.5 3t-3.5 3t-2 3t-1.5 4t-0.5 4q0 15 18 15q31 0 67 3.5t68.5 8.5t64 11.5t57 13.5t45 12t31.5 9l11 3q14 0 14 -12l-1 -7q-2 -8 -4 -21t-5 -30.5t-6 -40t-5 -47t-3.5 -53.5t-1.5 -57q59 276 325 276zM616 18
q97 0 142 89t45 303q0 195 -46 278.5t-136 83.5q-100 0 -159.5 -97t-60.5 -269q-1 -192 57 -290t158 -98z" />
    <glyph glyph-name="q" unicode="q" horiz-adv-x="1126" 
d="M993 -211q0 -144 58 -174q28 -16 28 -27q0 -12 -14 -12q-15 0 -80 8q-73 6 -117 6q-36 0 -92.5 -3.5t-98.5 -6.5l-42 -4q-14 0 -14 12q0 11 36 31q49 24 66.5 80.5t17.5 175.5l-2 272h-6q-52 -178 -272 -178q-154 0 -273 119q-116 119 -116 303q0 196 123 316t311 120
q75 0 127 -22q51 -22 135 -82q51 -31 57 -31q18 0 52 43l65 72q20 20 37 20q20 0 20 -22l-1 -7q0 -6 -0.5 -18.5t-1 -30t-1 -43t-1 -54.5t-1 -67t-0.5 -79v-717zM541 791q-64 0 -107 -37t-68.5 -127.5t-25.5 -235.5q0 -196 46 -284.5t144 -88.5q212 0 209 385v56
q-3 332 -198 332z" />
    <glyph glyph-name="r" unicode="r" horiz-adv-x="886" 
d="M702 827q75 0 117.5 -38.5t42.5 -104.5q0 -61 -29.5 -96t-80.5 -35q-42 0 -68.5 24.5t-35.5 53.5t-24 53.5t-38 24.5q-59 0 -99 -107q-42 -109 -45 -242v-163q0 -83 24.5 -115.5t100.5 -56.5q29 -10 29 -23q0 -14 -16 -14q-1 0 -103 6q-99 6 -160 6q-36 0 -92.5 -3
t-98.5 -6l-42 -3q-14 0 -14 12q0 11 32 25q58 21 74 57q14 32 14 133v344q0 79 -17.5 113.5t-70.5 52.5q-39 9 -39 23t23 14q74 2 159 17t133 29l48 15q14 0 14 -14q-3 -16 -6.5 -43.5t-8.5 -106t-1 -149.5q25 146 100 231.5t178 85.5z" />
    <glyph glyph-name="s" unicode="s" horiz-adv-x="944" 
d="M485 -31q-91 0 -194 33q-29 9 -58 18.5t-39.5 13t-11.5 3.5q-17 0 -24 -8t-13 -33q-1 -12 -8.5 -16.5t-14.5 0t-7 16.5q0 2 1 34.5t1 59.5q0 35 -11 125q-3 21 -5.5 40.5t-3.5 28t-1 9.5q0 14 12 14q13 0 19 -20q95 -287 360 -287q86 0 135.5 38.5t49.5 106.5
q0 59 -38 94t-132 58l-142 33q-138 33 -199 87.5t-61 155.5q0 118 101 185q100 69 252 69q99 0 192 -34l96 -35q23 0 29 47q2 19 16.5 18.5t14.5 -20.5q0 -134 32 -244l1 -4q0 -12 -13 -12q-11 0 -20 18q-111 238 -340 238q-80 0 -127 -33.5t-47 -85.5q0 -53 40.5 -84.5
t129.5 -50.5l159 -37q258 -56 258 -252q0 -136 -118 -211q-119 -76 -271 -76z" />
    <glyph glyph-name="t" unicode="t" horiz-adv-x="755" 
d="M446 -31q-141 0 -207.5 69.5t-66.5 225.5v416q0 42 -10.5 56.5t-46.5 15.5l-54 4q-17 1 -23.5 11.5t0 21.5t23.5 12q144 9 205 67q63 60 119 246q5 17 16 23.5t20 0t9 -23.5l-2 -301q0 -14 12 -14l222 2q30 0 30 -29t-26 -29q-7 0 -47 1t-82 1q-52 3 -97 3q-14 0 -14 -15
l-2 -549q0 -135 115 -135q59 0 92 38.5t33 105.5q0 22 18 22q16 0 16 -25q0 -101 -63 -161t-189 -60z" />
    <glyph glyph-name="u" unicode="u" horiz-adv-x="1161" 
d="M1094 51q28 -8 26 -22q-1 -12 -20 -13q-39 -1 -84 -5.5t-81 -10.5t-66 -11.5t-47.5 -9.5t-18.5 -4q-17 0 -23 21q-13 43 -16 217h-2q-53 -244 -303 -244q-153 0 -230 78.5t-77 251.5v276q0 88 -12.5 119.5t-53.5 48.5q-37 13 -37 29q0 12 21 12q25 0 56.5 2t61.5 5
t60.5 7t56.5 7.5t46 6.5t32 5l12 2q19 0 19 -20q-13 -58 -13 -228v-303q0 -225 148 -225q87 0 143 85.5t60 227.5q0 227 -11 306q-9 64 -47 79q-4 2 -11 5t-10 4.5t-7.5 4t-6 5t-3 5.5t-1.5 7q0 12 21 12q36 0 83 3.5t88.5 9t77.5 10.5t59 9l22 3q12 0 12 -10
q-14 -82 -14 -229v-297q0 -125 16 -168t74 -64z" />
    <glyph glyph-name="v" unicode="v" horiz-adv-x="1030" 
d="M516 -41q-7 0 -20 23l-328 649q-36 67 -57.5 93t-51.5 38q-41 21 -41 33q0 14 19 14l13 -1q14 -1 36 -2.5t48 -3t56 -2.5t54 -1q17 0 135 4q26 1 49 2t34 1l11 1q16 0 16 -14q0 -10 -22 -19q-51 -20 -51 -67q0 -34 20 -84t117 -261q20 -39 39 -86q18 -35 20 -36
q4 -2 10 9q1 3 19 46q141 313 141 399q0 64 -84 82q-26 3 -26 21q0 14 16 14q4 0 62 -6t94 -6q18 0 96 4l59 6q21 0 21 -12q-1 -13 -29 -24q-1 -1 -2 -1q-68 -12 -105.5 -50t-76.5 -130l-268 -610q-10 -23 -23 -23z" />
    <glyph glyph-name="w" unicode="w" horiz-adv-x="1460" 
d="M436 -27l-262 623q-45 96 -65 127.5t-48 44.5q-8 4 -16.5 7.5t-12.5 5.5t-7.5 4.5t-5 5t-1.5 6.5q0 14 17 14q125 -12 201 -12q14 0 124 4q82 6 84 6q13 0 13 -14q0 -8 -23 -21q-51 -15 -51 -65q0 -69 145 -406q17 -36 19 -37q2 2 12 27l109 307q24 68 24 102
q0 44 -45 70q-26 13 -26 27q0 12 14 12l70 -6q71 -6 110 -6q23 0 71 2.5t86 4.5l38 3q14 0 14 -12q0 -9 -27 -21q-39 -14 -39 -57q0 -24 19 -78t72 -188q60 -146 63 -156l12 -25q4 0 19 37l88 234q39 95 39 145q0 57 -53 84q-37 25 -24 35q3 2 9 2q4 0 47 -6q58 -4 70 -4
q14 0 30.5 1t30 2.5t25.5 3t19 2.5l8 1q18 0 18 -12q0 -9 -31 -25q-47 -17 -69 -45q-22 -25 -52 -102l-256 -650q-9 -20 -18 -20q-12 0 -18 20l-275 629q-7 17 -14 17q-5 0 -15 -17l-235 -633q-6 -17 -15 -17t-16 19z" />
    <glyph glyph-name="x" unicode="x" horiz-adv-x="1075" 
d="M1020 31q45 -20 45 -31q0 -14 -14 -14l-101 6q-91 8 -162 8q-22 0 -53 -1.5t-59.5 -3.5t-53 -4t-40.5 -3.5t-17 -1.5q-14 0 -14 12q0 11 37 29q39 18 49 26.5t10 24.5q-3 26 -129 196l-63 86l-131 -178q-54 -79 -54 -106q0 -41 72 -53q35 -9 35 -21q0 -14 -21 -14
q-2 0 -57 6q-53 6 -84 6q-45 0 -109 -6l-63 -6q-20 0 -20.5 14t18.5 18q102 22 170 84q72 66 227 279l-18 25q-147 202 -211 272q-60 69 -121 90q-35 15 -35 27q0 16 19 16l16 -1q16 -2 42 -4t55.5 -4t63 -3.5t58.5 -1.5q22 0 52 1.5t57 3.5t50 4t38 3.5t16 1.5q15 0 14 -11
q-1 -14 -36 -33l-2 -1q-37 -19 -41 -37q-6 -11 1.5 -27.5t32.5 -54.5q8 -11 32.5 -42.5t37.5 -49.5q32 -36 68 -86l100 152q43 64 43 94q0 40 -65 61q-33 9 -33 21q0 14 14 14q6 0 68 -6q61 -6 98 -6q40 0 92 6t55 6q19 0 19 -14q0 -18 -23 -21q-88 -18 -149 -73
q-65 -59 -203 -254l12 -19q171 -220 232 -287q66 -69 133 -114z" />
    <glyph glyph-name="y" unicode="y" horiz-adv-x="1030" 
d="M180 -217q32 0 82 -33q53 -35 84 -35q42 0 88 76q49 76 49 137q0 142 -301 701q-32 62 -57 89t-66 46q-6 3 -13.5 6.5t-11.5 5.5l-9 4.5t-7 4.5l-4 4t-3 4.5t-1 5.5q0 14 19 14l82 -6q71 -8 139 -8q44 0 133 6q88 6 92 6q17 0 17 -13q0 -16 -29 -23l-2 -1
q-41 -12 -41 -61q0 -39 80 -234q89 -206 116 -256q7 -10 9 -10q7 0 10 12l57 137q50 112 82 209q33 88 33 140q0 30 -19.5 44t-72.5 21q-33 9 -33 21q0 14 18 14q2 0 60 -6t94 -6q42 0 100 6l60 6q18 0 18 -14q0 -16 -20 -19q-75 -13 -115 -52t-78 -136l-284 -678
q-73 -174 -145 -260t-165 -86q-62 0 -100.5 30.5t-38.5 84.5q0 48 27 75t67 27z" />
    <glyph glyph-name="z" unicode="z" horiz-adv-x="976" 
d="M86 -6q-16 0 -16 12q0 4 41 66q82 121 272 374q189 251 197 275q6 12 6 20q0 29 -117 29q-170 0 -223 -47q-51 -48 -113 -234q-9 -24 -20 -24q-17 0 -17 16q0 -1 3 14.5t7 40t8.5 52.5t7.5 58t3 50q0 30 -4 54.5t-8 37t-4 13.5q0 12 16 12q4 0 32 -0.5t86 -1.5t122 -2
q150 -2 356 -2q36 0 65.5 0.5t47 1.5t30 2t18.5 1.5t7 0.5q14 0 14 -12q0 -5 -53 -76l-225 -305q-242 -327 -242 -359q0 -17 19 -22.5t77 -5.5q214 0 293 73q58 55 96 209q3 31 23 31q12 0 12 -12q-26 -156 -26 -246q0 -10 1 -29.5t2 -34.5l1 -16q0 -12 -17 -12h-573h-133
q-47 -2 -72 -2z" />
    <glyph glyph-name="braceleft" unicode="{" horiz-adv-x="768" 
d="M659 -383q23 0 23 -18q0 -21 -47 -21q-144 0 -233 98t-89 267v475q0 131 -163 131q-15 0 -21 9.5t0 18.5t21 9q163 0 163 131v475q0 169 89 266.5t233 97.5q47 0 47 -20q0 -18 -23 -18q-84 0 -140 -68.5t-56 -196.5v-430q0 -71 -20.5 -126t-67.5 -90t-115 -36v-8
q68 -1 115 -36t67.5 -90t20.5 -126v-430q0 -127 56 -195.5t140 -68.5z" />
    <glyph glyph-name="bar" unicode="|" horiz-adv-x="471" 
d="M211 -264v1710q0 17 24.5 17t24.5 -17v-1710q0 -17 -24.5 -17t-24.5 17z" />
    <glyph glyph-name="braceright" unicode="}" horiz-adv-x="768" 
d="M618 586q15 0 21 -9t0 -18.5t-21 -9.5q-163 0 -163 -131v-475q0 -169 -89 -267t-233 -98q-47 0 -47 21q0 18 23 18q84 0 140 68.5t56 195.5v430q0 71 20.5 126t67.5 90t115 36v8q-68 1 -115 36t-67.5 90t-20.5 126v430q0 128 -56 196.5t-140 68.5q-23 0 -23 18
q0 20 47 20q144 0 233 -97.5t89 -266.5v-475q0 -131 163 -131z" />
    <glyph glyph-name="asciitilde" unicode="~" horiz-adv-x="1146" 
d="M168 233q-16 0 -16 23q5 162 54 255t148 93q66 0 248 -78q180 -77 223 -77q114 0 129 139q1 13 10.5 18.5t19 1t9.5 -15.5q0 -157 -47.5 -248.5t-146.5 -91.5q-78 0 -240 76q-160 75 -227 75q-118 0 -142 -147q-3 -23 -22 -23z" />
    <glyph glyph-name="exclamdown" unicode="&#xa1;" horiz-adv-x="503" 
d="M279 967q-60 0 -98 35t-38 92q0 56 39 92.5t97 36.5q61 0 100 -36t39 -93t-38 -92t-101 -35zM256 854h41q9 -200 43 -385q30 -161 66 -301q30 -114 30 -152q0 -60 -44 -95.5t-116 -35.5t-115.5 35.5t-43.5 95.5q0 22 12.5 78.5t37.5 164.5t44 210q37 199 45 385z" />
    <glyph glyph-name="cent" unicode="&#xa2;" horiz-adv-x="976" 
d="M915 260q13 0 13 -12v-4q-50 -246 -334 -273v-247q0 -17 -24.5 -17t-24.5 17v245h-19q-201 0 -327 117q-127 118 -127 303q0 202 133 320q133 115 350 118v238q0 17 24.5 17t24.5 -17v-240q66 -3 137 -26l74 -23q29 0 41 43q7 17 18 17q15 0 15 -19q0 -49 2.5 -99.5
t6.5 -89t8 -68.5t6.5 -46.5t2.5 -15.5q0 -16 -13 -17q-15 0 -21 21q-38 152 -104.5 222.5t-170.5 70.5q-110 0 -181 -93t-71 -274q0 -186 72 -284.5t197 -98.5q103 0 175 51.5t101 145.5q6 18 16 18z" />
    <glyph glyph-name="sterling" unicode="&#xa3;" horiz-adv-x="1294" 
d="M1167 358q0 -215 -58 -302t-194 -87q-78 0 -229 49q-155 50 -221 50q-77 0 -182 -48q-103 -47 -105 -47q-26 0 -26 29q-2 3 15 21t43.5 47t53 65t45 85t17.5 97q0 70 -19 129l-22 70l-21 62h-145q-17 0 -17 24.5t17 24.5h133q-19 78 -19 141q0 187 144 295t360 108
q158 0 262 -73q105 -74 105 -178q0 -68 -39 -109t-100 -41q-50 0 -82.5 28t-32.5 74q0 36 43 76q45 42 45 80q0 49 -58 81t-141 32q-126 0 -200 -69t-74 -189q0 -87 39 -256h332q17 0 17 -24.5t-17 -24.5h-322q6 -37 6 -76q0 -133 -129 -283q-93 -106 -102 -115
q-37 -40 -101 -98l5 -6l57 49l106 88q47 38 123 74q75 37 135 37q78 0 199 -39q124 -37 172 -37q131 0 152 180q1 19 16 20q13 -1 14 -14z" />
    <glyph glyph-name="currency" unicode="&#xa4;" horiz-adv-x="1048" 
d="M760 281l141 -142q14 -5 0 -23q-10 -13 -22 -16q-7 0 -11 4l-143 144q-82 -64 -203 -64q-116 0 -198 64l-144 -142q-5 -14 -23 0q-13 10 -16 23q0 6 4 10l142 144q-70 79 -70 196q0 123 74 203l-146 145q-4 4 -4 11q0 8 9.5 18t19.5 10q6 0 10 -4l146 -145q82 61 196 61
q122 0 201 -61l145 145q4 4 11 4q8 0 18 -9t10 -19q0 -7 -4 -11l-143 -143q71 -83 71 -205q0 -115 -71 -198zM522 229q113 0 180.5 67.5t67.5 182.5q0 119 -65.5 186.5t-182.5 67.5q-110 0 -176.5 -69.5t-66.5 -184.5q0 -113 66.5 -181.5t176.5 -68.5z" />
    <glyph glyph-name="yen" unicode="&#xa5;" horiz-adv-x="1308" 
d="M1272 1153q18 0 18 -10q0 -13 -20 -19q-105 -26 -158 -61q-46 -32 -94 -117l-223 -405l-4 -9h249q17 0 17 -24.5t-17 -24.5h-254v-100h254q17 0 17 -24.5t-17 -24.5h-254q3 -189 17 -238q14 -50 63 -71q34 -19 39 -29q0 -10 -14 -10l-47 3q-47 3 -108.5 6t-96.5 3
q-23 0 -58 -1t-68.5 -3t-63 -4t-48.5 -3t-20 -1q-14 0 -14 10q0 14 41 29q51 15 63 71q13 48 16 238h-266q-17 0 -17 24.5t17 24.5h266v53q0 28 -8 47h-258q-17 0 -17 24.5t17 24.5h236q-43 81 -160 265q-114 189 -166 250q-49 58 -96 73q-33 11 -33 23t18 12l48 -3
q47 -3 111.5 -6t107.5 -3q57 0 151 6l97 6q14 0 14 -10t-35 -25q-45 -15 -45 -45q0 -75 283 -540l141 260q88 163 88 233q0 42 -25.5 63t-89.5 35q-22 3 -22 17q0 10 20 10q1 0 84 -6q110 -4 131 -4q15 0 40.5 1t51 2.5t48.5 3t38 2.5z" />
    <glyph glyph-name="brokenbar" unicode="&#xa6;" horiz-adv-x="471" 
d="M211 750v696q0 17 24.5 17t24.5 -17v-696q0 -17 -24.5 -17t-24.5 17zM211 -264v696q0 17 24.5 17t24.5 -17v-696q0 -17 -24.5 -17t-24.5 17z" />
    <glyph glyph-name="section" unicode="&#xa7;" horiz-adv-x="1003" 
d="M682 379q124 -39 180 -99.5t56 -162.5q0 -149 -130 -232q-128 -82 -303 -82q-167 0 -263.5 66t-96.5 168q0 55 29 87t79 32q38 0 64.5 -22.5t26.5 -53.5q0 -16 -24 -59.5t-24 -61.5q0 -52 62.5 -89.5t153.5 -37.5q117 0 189.5 49.5t72.5 134.5q0 67 -51.5 107t-180.5 76
l-106 30q-147 38 -214 101.5t-67 167.5q0 101 71 168t187 88q-229 76 -229 274q0 132 112 207q113 76 271 76q153 0 245.5 -57t92.5 -140q0 -50 -27 -79t-70 -29q-36 0 -58.5 19.5t-22.5 49.5q0 18 23.5 58t23.5 55q0 38 -61.5 66t-147.5 28q-103 0 -165.5 -47t-62.5 -123
q0 -65 44 -101.5t151 -66.5l117 -35q155 -39 225 -100.5t70 -165.5q0 -101 -66 -169.5t-176 -94.5zM485 434l123 -35q154 21 154 142q0 67 -49 103t-178 69l-56 16q-92 -1 -141 -37.5t-49 -99.5t45.5 -97.5t150.5 -60.5z" />
    <glyph glyph-name="dieresis" unicode="&#xa8;" horiz-adv-x="819" 
d="M227 1290q55 0 88 -30.5t33 -81.5t-33.5 -82t-87.5 -31t-86 31t-32 82t32 81.5t86 30.5zM588 1065q-52 0 -86.5 31.5t-34.5 81.5q0 51 33.5 81.5t87.5 30.5t87.5 -30.5t33.5 -81.5t-33.5 -82t-87.5 -31z" />
    <glyph glyph-name="copyright" unicode="&#xa9;" horiz-adv-x="1501" 
d="M750 1303q277 0 467 -193q192 -192 192 -469t-190 -467t-469 -190t-469 190q-191 194 -191 469q0 276 191 467q190 193 469 193zM317 207q174 -180 433 -180q256 0 430 180q176 182 176 436t-176 436q-175 181 -430 181q-258 0 -433 -181q-174 -180 -174 -436t174 -436z
M1044 618q15 0 15 -12q0 -2 -1 -12t-2.5 -31.5t-3 -52.5t-2.5 -84.5t-1 -118.5q0 -14 -15 -14t-18 18q-3 45 -33 45q-11 0 -82 -32q-73 -33 -149 -33q-154 0 -260 106q-107 107 -107 267q0 156 109 262t264 106q72 0 137 -26q70 -25 72 -25q24 0 30 33q0 18 17 18
q12 0 12 -12q0 -25 3 -65.5t7 -80.5t8.5 -76.5t7.5 -60t3 -24.5q0 -13 -15 -13q-13 0 -16 13l-14 49q-39 124 -92.5 183t-131.5 59q-186 0 -186 -340q0 -345 184 -345q73 0 135 53.5t91 157.5l18 74q3 14 16 14z" />
    <glyph glyph-name="ordfeminine" unicode="&#xaa;" horiz-adv-x="798" 
d="M213 1030q98 26 221 39v82q0 72 -25 100.5t-83 28.5q-86 0 -86 -41q0 -7 10 -35.5t10 -40.5q0 -25 -24 -42t-60 -17q-32 0 -52 21t-20 53q0 58 62.5 94.5t175.5 36.5q141 0 213 -56t72 -186v-190q0 -50 30 -50q33 0 33 54q0 16 17 16q14 0 14 -16q0 -56 -29.5 -80.5
t-105.5 -24.5q-133 0 -148 115q-44 -115 -194 -115q-71 0 -112.5 31.5t-41.5 91.5q0 97 123 131zM319 831q48 0 81.5 44t33.5 112v55l-12 -2q-105 -15 -143 -51q-23 -23 -23 -80q0 -78 63 -78zM696 604q17 0 17 -24.5t-17 -24.5h-596q-17 0 -17 24.5t17 24.5h596z" />
    <glyph glyph-name="guillemotleft" unicode="&#xab;" horiz-adv-x="1024" 
d="M539 78q-10 0 -52 33l-299 225q-85 62 -85 111t85 110l299 225q42 33 54 33q14 0 14 -14q0 -13 -39 -58l-250 -297l250 -296q39 -45 39 -58q0 -14 -16 -14zM903 78q-9 0 -53 33l-297 225q-85 60 -85 110.5t85 110.5l297 225q44 33 53 33q17 0 17 -14q0 -10 -39 -58
l-252 -297l252 -296q39 -48 39 -58q0 -14 -17 -14z" />
    <glyph glyph-name="logicalnot" unicode="&#xac;" horiz-adv-x="1146" 
d="M903 588q29 0 29 -27v-256q0 -17 -24.5 -17t-24.5 17v234h-652q-17 0 -17 24.5t17 24.5h672z" />
    <glyph glyph-name="uni00AD" unicode="&#xad;" horiz-adv-x="722" 
d="M133 461q48 0 103 -2t126 -2q72 0 127 2q57 2 103 2q24 0 24 -31t-24 -31h-113q-47 2 -108 2l-240 -2q-27 0 -27 29q0 33 29 33z" />
    <glyph glyph-name="registered" unicode="&#xae;" horiz-adv-x="1501" 
d="M750 1303q277 0 467 -193q192 -192 192 -469t-190 -467t-469 -190t-469 190q-191 194 -191 469q0 276 191 467q190 193 469 193zM317 207q174 -180 433 -180q256 0 430 180q176 182 176 436t-176 436q-175 181 -430 181q-258 0 -433 -181q-174 -180 -174 -436t174 -436z
M1159 418q1 -64 -38.5 -106t-100.5 -44t-133 41q-27 17 -82.5 55t-86.5 55t-50 17q-13 0 -13 -20q3 -87 41 -101q31 -15 31 -22q0 -10 -10 -10l-60 4q-78 4 -96 4l-145 -8q-13 0 -10 11q2 10 20 19q30 12 39 52q8 41 8 290q0 228 -8 275q-6 53 -39 67q-20 9 -20 17
q0 12 12 12l55 -4q89 -7 189 0q64 6 83 6q160 0 255.5 -80t95.5 -209q0 -133 -91 -214t-229 -81q-30 0 -88 9v-7l125 -30q114 -27 166 -27q124 0 151 98q3 9 9 9q20 0 20 -78zM670 979q-19 -22 -19 -287q0 -178 2 -196q0 -31 54 -31q104 0 153 64.5t49 203.5q0 266 -164 266
q-61 0 -75 -20z" />
    <glyph glyph-name="overscore" unicode="&#xaf;" horiz-adv-x="819" 
d="M166 1176q4 0 16.5 -1t35.5 -2t48 -2q57 -2 129 -2q84 0 150 2q28 1 55.5 2t42 2t19.5 1q30 0 30 -27q0 -64 -39 -64q-72 0 -127 2q-82 3 -123 3q-37 0 -131 -3q-61 -2 -114 -2q-33 0 -33 29q0 62 41 62z" />
    <glyph glyph-name="degree" unicode="&#xb0;" horiz-adv-x="591" 
d="M295 1311q94 0 151.5 -55t57.5 -146q0 -88 -58.5 -143.5t-150.5 -55.5t-149.5 54.5t-57.5 144.5t58 145.5t149 55.5zM295 1268q-68 0 -109 -43t-41 -115q0 -69 41.5 -112.5t108.5 -43.5q69 0 110 42t41 114q0 74 -39.5 116t-111.5 42z" />
    <glyph glyph-name="plusminus" unicode="&#xb1;" horiz-adv-x="1146" 
d="M911 649q17 0 17 -24.5t-17 -24.5h-313v-313q0 -17 -24.5 -17t-24.5 17v313h-313q-17 0 -17 24.5t17 24.5h313v314q0 17 24.5 17t24.5 -17v-314h313zM870 121q17 0 17 -24.5t-17 -24.5h-594q-17 0 -17 24.5t17 24.5h594z" />
    <glyph glyph-name="uni00B2" unicode="&#xb2;" horiz-adv-x="874" 
d="M199 825q-39 0 -39 -34q0 -5 6 -24t6 -26q0 -26 -35 -26q-37 0 -37 73q0 246 246 332q113 40 158 95.5t45 144.5q0 81 -44 126.5t-120 45.5q-54 0 -90.5 -23.5t-36.5 -58.5q0 -17 24.5 -59t24.5 -62q0 -36 -28 -59t-70 -23q-45 0 -74 29t-29 78q0 93 97 153t250 60
q138 0 241 -62q101 -58 101 -149q0 -194 -334 -246q-330 -50 -330 -299q0 -7 4 -57h4q-2 6 -2 41q0 77 56 127.5t155 50.5q61 0 195 -35q126 -33 176 -33q47 0 73.5 27t38.5 88q3 18 15 18q10 0 10 -10q0 -35 -14 -115q-17 -104 -58 -149t-120 -45q-72 0 -252 53
q-177 53 -213 53z" />
    <glyph glyph-name="uni00B3" unicode="&#xb3;" horiz-adv-x="903" 
d="M444 709q-157 0 -244 54.5t-87 143.5q0 59 38 94t95 35q43 0 68.5 -20t25.5 -55q0 -30 -37 -70t-37 -68q0 -35 37.5 -57.5t97.5 -22.5q83 0 137 52t54 145q0 201 -184 201q-38 0 -58 -2h-31q-32 0 -32 28q0 27 32 27q1 0 44 -2t61 -2q75 0 117.5 47t42.5 133
q0 170 -164 170q-131 0 -131 -74q0 -15 21.5 -56.5t21.5 -59.5q0 -37 -27.5 -60.5t-66.5 -23.5q-48 0 -79.5 29.5t-31.5 76.5q0 91 92 144q95 53 225 53q169 0 275 -55t106 -142q0 -92 -99 -146.5t-271 -60.5v-4q194 -2 302.5 -54.5t108.5 -154.5q0 -105 -118 -174
q-115 -69 -304 -69z" />
    <glyph glyph-name="acute" unicode="&#xb4;" horiz-adv-x="819" 
d="M188 926q-10 0 -10 8q-3 3 6 12q216 228 267 275q63 60 102 63q33 2 55 -16.5t23 -50.5q1 -26 -17 -48t-65 -51q-192 -123 -350 -188q-3 -1 -6 -3z" />
    <glyph glyph-name="uni00B5" unicode="&#xb5;" horiz-adv-x="1177" 
d="M1110 59q27 -9 27 -20q0 -14 -21 -14q-29 -1 -62.5 -3.5t-65 -6.5t-62.5 -8.5t-56.5 -9t-45 -8t-30.5 -5.5l-12 -2q-12 0 -12 12q8 96 8 215h-2q-20 -105 -78 -164t-137 -59q-76 -2 -127 51.5t-74 161.5q-6 -166 -6 -168q0 -86 17 -215q16 -122 16 -146q0 -98 -123 -98
q-118 0 -121 102l9 78q8 78 16 220t8 298v209q0 131 -18 180q-18 52 -72 74q-22 8 -29.5 13t-7.5 14q0 12 21 12q24 0 55.5 2t63 5t63.5 7l60 7.5t50 6.5t35 5l13 2q18 0 18 -21q-29 -77 -29 -292v-127q-1 -168 39.5 -243t128.5 -75q86 0 142 75.5t57 201.5q-3 244 -12 315
t-45 88q-10 7 -22 11.5t-15.5 8t-3.5 11.5q0 12 20 12q37 0 84 3.5t89 9t78 10.5t59 9l22 3q12 0 12 -10l-4 -25q-10 -55 -10 -205v-284q0 -121 16 -164q19 -42 76 -60z" />
    <glyph glyph-name="paragraph" unicode="&#xb6;" horiz-adv-x="1101" 
d="M633 -229q108 57 149 161q41 103 41 306v1060q39 0 76 3t58.5 6.5t23.5 3.5q16 0 16 -17l-30 -63q-33 -62 -33 -139v-799q0 -227 -62 -342q-58 -113 -239 -180zM440 -256q-140 0 -233 72q-92 71 -92 170q0 70 39 112.5t96 42.5q50 0 78 -23.5t28 -66.5q0 -36 -39 -84
q-36 -48 -36 -84q0 -48 44 -77t117 -29q115 0 169 67.5t55 223.5v401q0 12 -11 12q-1 0 -12 -3.5t-30.5 -8t-43.5 -9t-55 -8t-61 -3.5q-168 0 -277 118q-110 119 -110 307q0 198 120 316.5t328 118.5q48 0 119 -6q20 -1 41 -2t34 -2t19 -1v-1204q0 -185 -72.5 -267.5
t-214.5 -82.5z" />
    <glyph glyph-name="middot" unicode="&#xb7;" horiz-adv-x="591" 
d="M254 768q69 0 110.5 -39t41.5 -102t-42.5 -102.5t-109.5 -39.5q-64 0 -107 40t-43 102q0 63 42 102t108 39z" />
    <glyph glyph-name="cedilla" unicode="&#xb8;" horiz-adv-x="819" 
d="M393 -393q-49 0 -87 11t-53 22t-15 18q0 12 12 12q1 0 14.5 -5.5t34.5 -11t39 -5.5q41 0 65.5 24.5t24.5 65.5q0 43 -22 65.5t-82 46.5q-13 3 -13 17q0 9 8 22l58 103h39l-56 -105q218 -35 218 -149q0 -60 -53.5 -95.5t-131.5 -35.5z" />
    <glyph glyph-name="uni00B9" unicode="&#xb9;" horiz-adv-x="653" 
d="M477 1569q10 0 10 -8q0 1 -1 -13t-2.5 -38.5t-3 -53.5t-2.5 -63.5t-1 -63.5v-278q0 -167 12 -222q15 -52 74 -73q51 -20 51 -27q0 -8 -10 -8l-11 1q-11 0 -36 1t-55 2q-102 6 -162 6q-25 0 -59 -1t-66 -2.5t-60 -3t-45 -2.5l-18 -1q-12 0 -12 8q0 5 22 14q94 21 115 58
q21 41 21 160v223q0 168 -25 223q-20 51 -127 72q-12 3 -17 10t-0.5 12.5t15.5 5.5q33 1 72 5t75.5 9.5t73.5 12t67 12.5t54 11.5t38 8.5z" />
    <glyph glyph-name="ordmasculine" unicode="&#xba;" horiz-adv-x="757" 
d="M662 1042q0 -121 -82 -195.5t-211 -74.5t-211 74.5t-82 195.5q0 118 82.5 193.5t210.5 75.5t210.5 -75.5t82.5 -193.5zM487 1042q0 133 -29.5 186.5t-88.5 53.5t-88 -53.5t-29 -186.5q0 -134 29 -187.5t88 -53.5t88.5 53.5t29.5 187.5zM88 604h582q17 0 17 -24.5
t-17 -24.5h-582q-17 0 -17 24.5t17 24.5z" />
    <glyph glyph-name="guillemotright" unicode="&#xbb;" horiz-adv-x="1024" 
d="M121 78q-17 0 -17 14q0 10 39 58l252 296l-252 297q-39 48 -39 58q0 14 17 14q9 0 53 -33l299 -225q83 -60 83 -110.5t-83 -110.5l-299 -225q-44 -33 -53 -33zM485 78q-16 0 -16 14q0 10 39 58l250 296l-250 297q-39 48 -39 58q0 14 14 14q12 0 56 -33l297 -225
q85 -60 85 -110.5t-85 -110.5l-297 -225q-44 -33 -54 -33z" />
    <glyph glyph-name="onequarter" unicode="&#xbc;" horiz-adv-x="1820" 
d="M1243 1393q0 -8 -6 -23l-633 -1456q-10 -20 -35 -23q-18 0 -18 15q0 6 6 18l633 1456q9 25 33 25q17 0 20 -12zM602 483q0 -8 -10 -8l-11 1q-11 0 -36.5 1t-55.5 2q-102 6 -161 6q-25 0 -59 -1t-66 -2.5t-60 -3t-45 -2.5l-18 -1q-12 0 -12 8q0 6 22 15q95 21 115 59
q20 39 20 158v225q0 172 -24 221q-20 51 -127 72q-19 6 -19 16q0 13 17 13q33 1 72 4.5t75.5 9t73.5 12t67 12.5t54 11.5t38 8.5l13 3q10 0 10 -8q0 1 -1 -13t-2.5 -38.5t-3 -53.5t-2.5 -63.5t-1 -63.5v-278q0 -163 12 -219q15 -56 74 -74q51 -23 51 -29zM1714 174h-96
q5 -74 21.5 -104t66.5 -50q35 -12 35 -22q0 -8 -10 -8q-3 0 -97 6q-126 4 -153 4q-25 0 -127 -4l-78 -6q-10 0 -10 8q0 3 30 18q48 25 63.5 54.5t16.5 103.5h-338q-18 0 -18 16q0 13 12 25l506 584q24 30 30 34.5t25 4.5q27 0 27 -25v-14t-0.5 -34.5t-1 -47.5t-0.5 -58v-61
v-360h96q37 0 37 -29q0 -35 -37 -35zM1370 563q-2 0 -18 -16l-265 -309h289v311q0 14 -6 14z" />
    <glyph glyph-name="onehalf" unicode="&#xbd;" horiz-adv-x="1931" 
d="M569 -109q-18 0 -18 15q0 6 6 18l633 1456q9 25 33 25q17 0 20 -12q0 -8 -6 -23l-633 -1456q-10 -20 -35 -23zM465 1323q10 0 10 -8q0 1 -1 -13t-2.5 -38.5t-3 -53.5t-2.5 -63.5t-1 -63.5v-278q0 -163 12 -219q15 -56 74 -74q51 -23 51 -29q0 -8 -10 -8l-11 1
q-11 0 -36.5 1t-55.5 2q-102 6 -161 6q-25 0 -59 -1t-66 -2.5t-60 -3t-45 -2.5l-18 -1q-12 0 -12 8q0 6 22 15q95 21 115 59q20 39 20 158v225q0 172 -24 221q-20 51 -127 72q-19 6 -19 16q0 13 17 13q33 1 72 4.5t75.5 9t73.5 12t67 12.5t54 11.5t38 8.5zM1237 94
q-39 0 -39 -35q0 -3 6 -22t6 -27q0 -26 -34 -26q-37 0 -37 75q0 244 245 332q112 37 157.5 93t45.5 145q0 81 -44 126.5t-120 45.5q-54 0 -90.5 -23.5t-36.5 -58.5q0 -17 25 -58t25 -61q0 -38 -28.5 -61t-70.5 -23q-45 0 -73.5 30t-28.5 79q0 91 96.5 151t249.5 60
q139 0 242 -62q100 -57 100 -149q0 -194 -334 -246q-330 -50 -330 -299q0 -8 2 -28t3 -29h4q-2 6 -2 43q0 77 55.5 126.5t154.5 49.5q61 0 195 -35q126 -33 176 -33q49 0 75 27t38 90q3 16 14 16q10 0 10 -10q0 -36 -14 -113q-17 -105 -58 -149.5t-120 -44.5t-252 51
q-177 53 -213 53z" />
    <glyph glyph-name="threequarters" unicode="&#xbe;" horiz-adv-x="2000" 
d="M1423 1393q0 -8 -6 -23l-633 -1456q-10 -20 -34 -23q-19 0 -19 15q0 6 6 18l633 1456q9 25 33 25q17 0 20 -12zM410 463q-157 0 -244.5 55t-87.5 144q0 59 38 94t95 35q94 0 94 -76q0 -30 -37 -70t-37 -67q0 -35 38 -57.5t98 -22.5q83 0 136.5 51.5t53.5 144.5
q0 201 -184 201q-38 0 -58 -2h-30q-33 0 -33 29q0 26 33 26q1 0 43.5 -2t60.5 -2q76 0 118 47.5t42 134.5q0 168 -164 168q-131 0 -131 -73q0 -15 21.5 -57t21.5 -60q0 -37 -27 -59.5t-67 -22.5q-48 0 -79.5 28.5t-31.5 75.5q0 91 92 144q95 53 226 53q169 0 275 -55
t106 -142q0 -91 -99.5 -145.5t-271.5 -60.5v-2q195 -5 303 -57.5t108 -153.5q0 -106 -118 -175q-115 -69 -303 -69zM1894 174h-96q5 -74 21.5 -104t66.5 -50q35 -12 35 -22q0 -8 -10 -8q-1 0 -96 6q-126 4 -154 4q-25 0 -127 -4l-78 -6q-10 0 -10 8q0 2 31 18q48 25 63 54.5
t16 103.5h-337q-19 0 -19 16q0 13 12 25l506 584q23 29 30 34t26 5q26 0 26 -25v-14t-0.5 -34.5t-1 -47.5t-0.5 -58v-61v-360h96q37 0 37 -29q0 -35 -37 -35zM1550 563q-2 0 -18 -16l-264 -309h288v311q0 14 -6 14z" />
    <glyph glyph-name="questiondown" unicode="&#xbf;" horiz-adv-x="1103" 
d="M618 967q-63 0 -100 35t-37 92t38 93t99 36q58 0 97 -36.5t39 -92.5q0 -57 -38 -92t-98 -35zM651 813v-57q0 -94 -28.5 -148.5t-100.5 -95.5q-77 -44 -109 -108.5t-32 -184.5q0 -299 233 -299q91 0 149 33t58 84q0 33 -33 72q-30 41 -30 77q0 44 34.5 72.5t84.5 28.5
q54 0 87 -35t33 -92q0 -118 -120 -195q-121 -80 -308 -80q-215 0 -340 84.5t-125 231.5q0 124 84.5 203.5t255.5 132.5q87 29 122.5 76.5t35.5 134.5v65h49z" />
    <glyph glyph-name="Agrave" unicode="&#xc0;" horiz-adv-x="1454" 
d="M928 1446h-4q-2 2 -9 2q-173 35 -426 119q-57 20 -78.5 41.5t-21.5 56.5q0 33 20.5 53.5t55.5 20.5q42 0 121 -49q66 -40 342 -222q8 -5 8 -12q0 -10 -8 -10zM836 -12q-21 0 -21 12q0 2 0.5 4t1 3t1.5 2.5t2 2.5t3 2t3.5 1.5l4.5 1.5t5.5 2t6.5 2t7 2q90 27 90 90
q0 45 -78 284q-11 26 -41 29q-70 4 -274 4q-183 0 -199 -2q-23 -3 -31 -20q-41 -121 -59 -187q-14 -49 -14 -84q0 -80 118 -114q31 -9 31 -21q0 -14 -18 -14q-1 0 -78 6t-119 6q-30 0 -86 -6q-55 -6 -57 -6q-21 0 -21 14q0 15 23 18q67 16 100 60q33 41 88 182
q226 609 318 883q14 38 14 49q0 15 -53 33q-41 9 -41 24q0 17 24 17q181 8 364 56l17 5q17 0 17 -16q0 -2 -9.5 -18t-9.5 -25q0 -12 13 -56q184 -534 368 -997q38 -94 63.5 -131.5t65.5 -54.5q58 -20 54 -35q-2 -8 -19 -8q-2 0 -113 6t-186 6q-27 0 -65 -1t-73 -3t-66 -4
t-51 -3t-21 -1zM561 471q205 0 248 6q18 3 18 17q0 2 -4 18l-225 641q-4 12 -8 12t-10 -12l-228 -643q0 -3 -3 -12.5t-3 -12.5q0 -7 14 -10q50 -4 201 -4z" />
    <glyph glyph-name="Aacute" unicode="&#xc1;" horiz-adv-x="1454" 
d="M457 1438q-8 0 -8 10q0 7 8 12q243 161 340 221q83 50 123 50q35 0 55 -20.5t20 -53.5q0 -35 -21.5 -56.5t-78.5 -41.5q-253 -84 -426 -119q-6 0 -8 -2h-4zM836 -12q-21 0 -21 12q0 2 0.5 4t1 3t1.5 2.5t2 2.5t3 2t3.5 1.5l4.5 1.5t5.5 2t6.5 2t7 2q90 27 90 90
q0 45 -78 284q-11 26 -41 29q-70 4 -274 4q-183 0 -199 -2q-23 -3 -31 -20q-41 -121 -59 -187q-14 -49 -14 -84q0 -80 118 -114q31 -9 31 -21q0 -14 -18 -14q-1 0 -78 6t-119 6q-30 0 -86 -6q-55 -6 -57 -6q-21 0 -21 14q0 15 23 18q67 16 100 60q33 41 88 182
q226 609 318 883q14 38 14 49q0 15 -53 33q-41 9 -41 24q0 17 24 17q181 8 364 56l17 5q17 0 17 -16q0 -2 -9.5 -18t-9.5 -25q0 -12 13 -56q184 -534 368 -997q38 -94 63.5 -131.5t65.5 -54.5q58 -20 54 -35q-2 -8 -19 -8q-2 0 -113 6t-186 6q-27 0 -65 -1t-73 -3t-66 -4
t-51 -3t-21 -1zM561 471q205 0 248 6q18 3 18 17q0 2 -4 18l-225 641q-4 12 -8 12t-10 -12l-228 -643q0 -3 -3 -12.5t-3 -12.5q0 -7 14 -10q50 -4 201 -4z" />
    <glyph glyph-name="Acircumflex" unicode="&#xc2;" horiz-adv-x="1454" 
d="M414 1423q-15 0 -15 15q0 24 187 211q30 30 42 41t31.5 20.5t42.5 9.5q34 0 62 -22q14 -12 51 -49q191 -188 191 -211q0 -15 -15 -15q-7 0 -15 3.5t-28 14t-46 25t-79.5 42t-117.5 59.5h-5q-44 -23 -113 -60q-157 -81 -173 -84zM836 -12q-21 0 -21 12q0 2 0.5 4t1 3
t1.5 2.5t2 2.5t3 2t3.5 1.5l4.5 1.5t5.5 2t6.5 2t7 2q90 27 90 90q0 45 -78 284q-11 26 -41 29q-70 4 -274 4q-183 0 -199 -2q-23 -3 -31 -20q-41 -121 -59 -187q-14 -49 -14 -84q0 -80 118 -114q31 -9 31 -21q0 -14 -18 -14q-1 0 -78 6t-119 6q-30 0 -86 -6q-55 -6 -57 -6
q-21 0 -21 14q0 15 23 18q67 16 100 60q33 41 88 182q226 609 318 883q14 38 14 49q0 15 -53 33q-41 9 -41 24q0 17 24 17q181 8 364 56l17 5q17 0 17 -16q0 -2 -9.5 -18t-9.5 -25q0 -12 13 -56q184 -534 368 -997q38 -94 63.5 -131.5t65.5 -54.5q58 -20 54 -35
q-2 -8 -19 -8q-2 0 -113 6t-186 6q-27 0 -65 -1t-73 -3t-66 -4t-51 -3t-21 -1zM561 471q205 0 248 6q18 3 18 17q0 2 -4 18l-225 641q-4 12 -8 12t-10 -12l-228 -643q0 -3 -3 -12.5t-3 -12.5q0 -7 14 -10q50 -4 201 -4z" />
    <glyph glyph-name="Atilde" unicode="&#xc3;" horiz-adv-x="1454" 
d="M422 1475q2 107 40 172t109 65q56 0 166 -49q102 -45 142 -45q61 0 73 74q3 22 21 22t18 -22q0 -91 -38.5 -154t-104.5 -63q-55 0 -156 43q-91 45 -141 45q-73 0 -94 -88q-3 -15 -12 -21t-16.5 0t-6.5 21zM836 -12q-21 0 -21 12q0 2 0.5 4t1 3t1.5 2.5t2 2.5t3 2t3.5 1.5
l4.5 1.5t5.5 2t6.5 2t7 2q90 27 90 90q0 45 -78 284q-11 26 -41 29q-70 4 -274 4q-183 0 -199 -2q-23 -3 -31 -20q-41 -121 -59 -187q-14 -49 -14 -84q0 -80 118 -114q31 -9 31 -21q0 -14 -18 -14q-1 0 -78 6t-119 6q-30 0 -86 -6q-55 -6 -57 -6q-21 0 -21 14q0 15 23 18
q67 16 100 60q33 41 88 182q226 609 318 883q14 38 14 49q0 15 -53 33q-41 9 -41 24q0 17 24 17q181 8 364 56l17 5q17 0 17 -16q0 -2 -9.5 -18t-9.5 -25q0 -12 13 -56q184 -534 368 -997q38 -94 63.5 -131.5t65.5 -54.5q58 -20 54 -35q-2 -8 -19 -8q-2 0 -113 6t-186 6
q-27 0 -65 -1t-73 -3t-66 -4t-51 -3t-21 -1zM561 471q205 0 248 6q18 3 18 17q0 2 -4 18l-225 641q-4 12 -8 12t-10 -12l-228 -643q0 -3 -3 -12.5t-3 -12.5q0 -7 14 -10q50 -4 201 -4z" />
    <glyph glyph-name="Adieresis" unicode="&#xc4;" horiz-adv-x="1454" 
d="M401 1546q0 50 32.5 80.5t86.5 30.5q55 0 88 -30.5t33 -80.5q0 -51 -33.5 -81.5t-87.5 -30.5t-86.5 30.5t-32.5 81.5zM881 1434q-52 0 -86.5 31t-34.5 81t33.5 80.5t87.5 30.5t87 -30.5t33 -80.5q0 -51 -33 -81.5t-87 -30.5zM836 -12q-21 0 -21 12q0 2 0.5 4t1 3t1.5 2.5
t2 2.5t3 2t3.5 1.5l4.5 1.5t5.5 2t6.5 2t7 2q90 27 90 90q0 45 -78 284q-11 26 -41 29q-70 4 -274 4q-183 0 -199 -2q-23 -3 -31 -20q-41 -121 -59 -187q-14 -49 -14 -84q0 -80 118 -114q31 -9 31 -21q0 -14 -18 -14q-1 0 -78 6t-119 6q-30 0 -86 -6q-55 -6 -57 -6
q-21 0 -21 14q0 15 23 18q67 16 100 60q33 41 88 182q226 609 318 883q14 38 14 49q0 15 -53 33q-41 9 -41 24q0 17 24 17q181 8 364 56l17 5q17 0 17 -16q0 -2 -9.5 -18t-9.5 -25q0 -12 13 -56q184 -534 368 -997q38 -94 63.5 -131.5t65.5 -54.5q58 -20 54 -35
q-2 -8 -19 -8q-2 0 -113 6t-186 6q-27 0 -65 -1t-73 -3t-66 -4t-51 -3t-21 -1zM561 471q205 0 248 6q18 3 18 17q0 2 -4 18l-225 641q-4 12 -8 12t-10 -12l-228 -643q0 -3 -3 -12.5t-3 -12.5q0 -7 14 -10q50 -4 201 -4z" />
    <glyph glyph-name="Aring" unicode="&#xc5;" horiz-adv-x="1454" 
d="M702 1444q-80 0 -132 41t-52 104t52.5 104.5t131.5 41.5q82 0 133.5 -40t51.5 -106q0 -63 -52 -104t-133 -41zM618 1589q0 -119 84 -119t84 119t-84 119t-84 -119zM836 -12q-21 0 -21 12q0 2 0.5 4t1 3t1.5 2.5t2 2.5t3 2t3.5 1.5l4.5 1.5t5.5 2t6.5 2t7 2q90 27 90 90
q0 45 -78 284q-11 26 -41 29q-70 4 -274 4q-183 0 -199 -2q-23 -3 -31 -20q-41 -121 -59 -187q-14 -49 -14 -84q0 -80 118 -114q31 -9 31 -21q0 -14 -18 -14q-1 0 -78 6t-119 6q-30 0 -86 -6q-55 -6 -57 -6q-21 0 -21 14q0 15 23 18q67 16 100 60q33 41 88 182
q226 609 318 883q14 38 14 49q0 15 -53 33q-41 9 -41 24q0 17 24 17q181 8 364 56l17 5q17 0 17 -16q0 -2 -9.5 -18t-9.5 -25q0 -12 13 -56q184 -534 368 -997q38 -94 63.5 -131.5t65.5 -54.5q58 -20 54 -35q-2 -8 -19 -8q-2 0 -113 6t-186 6q-27 0 -65 -1t-73 -3t-66 -4
t-51 -3t-21 -1zM561 471q205 0 248 6q18 3 18 17q0 2 -4 18l-225 641q-4 12 -8 12t-10 -12l-228 -643q0 -3 -3 -12.5t-3 -12.5q0 -7 14 -10q50 -4 201 -4z" />
    <glyph glyph-name="AE" unicode="&#xc6;" horiz-adv-x="1794" 
d="M1661 104q0 -31 7 -52t15.5 -29t15.5 -14t7 -11q0 -12 -14 -12q-5 0 -35.5 0.5t-95 1.5t-134.5 2q-160 2 -383 2q-92 0 -180 -2q-38 -1 -72.5 -2t-50.5 -1.5t-18 -0.5q-18 0 -18 14q0 15 38 23q66 13 92.5 40.5t26.5 79.5q0 43 -37 265q-3 25 -34 28q-168 4 -207 4
q-145 0 -172 -2q-38 -3 -47 -26q-115 -251 -115 -291q0 -74 123 -101q24 -4 25 -18q-1 -13 -19 -14q-3 0 -80 6t-125 6q-34 0 -86 -6t-53 -6q-21 0 -21 14q0 15 21 18q75 12 112 52q41 45 115 202q360 735 414 867q12 30 12 49q0 33 -45 59q-33 20 -33 39q0 17 23 17
q1 0 100 -9q102 -6 209 -6q57 0 250 7t252 8q153 8 203 8q14 0 14 -13l-5 -6q-4 -5 -10 -15t-12.5 -22.5t-10.5 -30.5t-3 -36q0 -49 10 -117t20.5 -118t10.5 -54q0 -16 -13 -17q-15 -1 -21 23q-1 1 -1 2q-71 221 -160 289q-88 70 -258 70q-122 0 -168 -17q-36 -14 -36 -69
q0 -60 73 -441q6 -36 62 -36q131 0 172 38q43 40 73 166q3 17 19 17q10 0 10 -17v-37q-4 -100 -2 -188q2 -56 6.5 -109.5t8.5 -82.5l4 -29q0 -9 -6 -13t-13.5 0t-11.5 15q-40 122 -86 162q-47 41 -174 41q-27 0 -35 -9.5t-4 -35.5q77 -396 114 -517q13 -49 47.5 -67.5
t112.5 -18.5q119 0 178 93q57 89 95 374q3 33 22 33q14 0 14 -16q0 1 -1 -7.5t-2.5 -24t-3 -37t-3.5 -47.5t-4 -55t-4 -58.5t-3 -60t-1.5 -58t0.5 -52.5zM786 492q23 3 23 22q0 15 -2 23q-40 259 -98 555q-3 12 -9 12q-8 0 -14 -14q-224 -498 -266 -578q-6 -12 -6 -14
q0 -9 22 -9q86 -4 168 -4q147 0 182 7z" />
    <glyph glyph-name="Ccedilla" unicode="&#xc7;" horiz-adv-x="1386" 
d="M1284 520q16 0 16 -14l-10 -203q-6 -158 -6 -321q0 -12 -12 -14q-16 -3 -21 21q-2 7 -2 15q-6 72 -63 72q-30 0 -158 -51q-130 -53 -242 -56l-43 -82q218 -35 218 -149q0 -60 -53.5 -95.5t-131.5 -35.5q-49 0 -87 11t-53 22t-15 18q0 12 12 12q1 0 14.5 -5.5t34.5 -11
t39 -5.5q41 0 65.5 24.5t24.5 65.5q0 43 -22 65.5t-82 46.5q-13 3 -13 17q0 9 8 22l46 80q-291 9 -474 195q-184 187 -184 479q0 299 197 487q198 189 491 189q118 0 240 -49q124 -47 133 -47q39 0 45 61q6 35 24 35q14 -2 15 -19q0 -100 12 -235q17 -218 38 -303l1 -2
q0 -15 -14 -15q-18 0 -21 19l-22 82q-60 219 -170 331.5t-264 112.5q-379 0 -379 -647q0 -150 19 -263.5t51.5 -185t80.5 -116.5t100.5 -62.5t116.5 -17.5q165 0 287.5 97t163.5 282l29 123q3 20 20 20z" />
    <glyph glyph-name="Egrave" unicode="&#xc8;" horiz-adv-x="1337" 
d="M487 1565q-57 20 -78.5 41.5t-21.5 56.5q0 33 20.5 53.5t55.5 20.5q42 0 121 -49q66 -40 342 -222q8 -5 8 -12q0 -10 -8 -10l-4 2h-9q-173 35 -426 119zM1202 104q0 -16 4.5 -31.5t11 -27t12.5 -20.5t10 -14l5 -5q0 -12 -14 -12q-1 0 -36.5 0.5t-115 1.5t-170.5 2
q-207 2 -465 2q-51 0 -102.5 -0.5t-88.5 -1.5t-66.5 -2t-46.5 -1.5t-19 -0.5q-17 0 -17 12t27 21l14 6q48 18 62 63q22 71 22 484v65q0 468 -20 541q-12 50 -57 71q-4 0 -7 3q-43 18 -42 32q3 7 18 8q2 0 22.5 -1t54 -2.5t72.5 -3t84.5 -2.5t83.5 -1q67 0 473 4q307 6 310 6
q14 0 14 -12l-5 -5q-4 -5 -10 -13.5t-12.5 -19.5t-11 -26.5t-4.5 -31.5q0 -46 9 -120.5t17 -125.5l9 -51q0 -16 -13 -17q-15 -1 -21 23q-1 1 -1 2q-72 226 -182 297q-55 36 -111.5 49t-144.5 13q-156 0 -185 -39q-21 -24 -30 -119q-8 -80 -11 -365q0 -35 24 -46t99 -11
q160 0 211 78q29 51 51 117q4 11 11.5 15t13.5 0t6 -13l-1 -13q-1 -12 -3 -33.5t-4 -48t-3 -59t-1 -61.5q0 -34 1 -67.5t3 -58t4 -44t3 -30t1 -11.5q0 -15 -12 -15q-14 0 -17 17q-40 111 -88 151q-47 41 -176 41q-78 0 -100.5 -10t-22.5 -45q3 -478 45 -526q30 -37 170 -37
q203 -3 308 96q110 101 151 373q3 28 23 28q12 0 12 -16l-20 -169q-15 -148 -15 -237z" />
    <glyph glyph-name="Eacute" unicode="&#xc9;" horiz-adv-x="1337" 
d="M455 1436q-9 0 -9 10q0 6 9 12q243 161 340 221q83 50 123 50q35 0 55 -20.5t20 -53.5q0 -35 -21.5 -57t-78.5 -42q-245 -81 -426 -118h-8zM1202 104q0 -16 4.5 -31.5t11 -27t12.5 -20.5t10 -14l5 -5q0 -12 -14 -12q-1 0 -36.5 0.5t-115 1.5t-170.5 2q-207 2 -465 2
q-51 0 -102.5 -0.5t-88.5 -1.5t-66.5 -2t-46.5 -1.5t-19 -0.5q-17 0 -17 12t27 21l14 6q48 18 62 63q22 71 22 484v65q0 468 -20 541q-12 50 -57 71q-4 0 -7 3q-43 18 -42 32q3 7 18 8q2 0 22.5 -1t54 -2.5t72.5 -3t84.5 -2.5t83.5 -1q67 0 473 4q307 6 310 6q14 0 14 -12
l-5 -5q-4 -5 -10 -13.5t-12.5 -19.5t-11 -26.5t-4.5 -31.5q0 -46 9 -120.5t17 -125.5l9 -51q0 -16 -13 -17q-15 -1 -21 23q-1 1 -1 2q-72 226 -182 297q-55 36 -111.5 49t-144.5 13q-156 0 -185 -39q-21 -24 -30 -119q-8 -80 -11 -365q0 -35 24 -46t99 -11q160 0 211 78
q29 51 51 117q4 11 11.5 15t13.5 0t6 -13l-1 -13q-1 -12 -3 -33.5t-4 -48t-3 -59t-1 -61.5q0 -34 1 -67.5t3 -58t4 -44t3 -30t1 -11.5q0 -15 -12 -15q-14 0 -17 17q-40 111 -88 151q-47 41 -176 41q-78 0 -100.5 -10t-22.5 -45q3 -478 45 -526q30 -37 170 -37q203 -3 308 96
q110 101 151 373q3 28 23 28q12 0 12 -16l-20 -169q-15 -148 -15 -237z" />
    <glyph glyph-name="Ecircumflex" unicode="&#xca;" horiz-adv-x="1337" 
d="M412 1421q-15 0 -15 15q0 24 187 211q30 30 42 41t31.5 20.5t42.5 9.5q34 0 62 -22q14 -12 51 -49q191 -188 191 -211q0 -15 -15 -15q-7 0 -15.5 3.5t-28.5 14t-46 25t-79.5 42.5t-117.5 59h-4q-44 -23 -113 -60q-157 -81 -173 -84zM1202 104q0 -16 4.5 -31.5t11 -27
t12.5 -20.5t10 -14l5 -5q0 -12 -14 -12q-1 0 -36.5 0.5t-115 1.5t-170.5 2q-207 2 -465 2q-51 0 -102.5 -0.5t-88.5 -1.5t-66.5 -2t-46.5 -1.5t-19 -0.5q-17 0 -17 12t27 21l14 6q48 18 62 63q22 71 22 484v65q0 468 -20 541q-12 50 -57 71q-4 0 -7 3q-43 18 -42 32
q3 7 18 8q2 0 22.5 -1t54 -2.5t72.5 -3t84.5 -2.5t83.5 -1q67 0 473 4q307 6 310 6q14 0 14 -12l-5 -5q-4 -5 -10 -13.5t-12.5 -19.5t-11 -26.5t-4.5 -31.5q0 -46 9 -120.5t17 -125.5l9 -51q0 -16 -13 -17q-15 -1 -21 23q-1 1 -1 2q-72 226 -182 297q-55 36 -111.5 49
t-144.5 13q-156 0 -185 -39q-21 -24 -30 -119q-8 -80 -11 -365q0 -35 24 -46t99 -11q160 0 211 78q29 51 51 117q4 11 11.5 15t13.5 0t6 -13l-1 -13q-1 -12 -3 -33.5t-4 -48t-3 -59t-1 -61.5q0 -34 1 -67.5t3 -58t4 -44t3 -30t1 -11.5q0 -15 -12 -15q-14 0 -17 17
q-40 111 -88 151q-47 41 -176 41q-78 0 -100.5 -10t-22.5 -45q3 -478 45 -526q30 -37 170 -37q203 -3 308 96q110 101 151 373q3 28 23 28q12 0 12 -16l-20 -169q-15 -148 -15 -237z" />
    <glyph glyph-name="Edieresis" unicode="&#xcb;" horiz-adv-x="1337" 
d="M399 1544q0 50 32.5 80.5t86.5 30.5q55 0 88 -30.5t33 -80.5q0 -51 -33.5 -81.5t-87.5 -30.5t-86.5 30.5t-32.5 81.5zM879 1432q-52 0 -86.5 31t-34.5 81t33.5 80.5t87.5 30.5t87 -30.5t33 -80.5q0 -51 -33 -81.5t-87 -30.5zM1202 104q0 -16 4.5 -31.5t11 -27t12.5 -20.5
t10 -14l5 -5q0 -12 -14 -12q-1 0 -36.5 0.5t-115 1.5t-170.5 2q-207 2 -465 2q-51 0 -102.5 -0.5t-88.5 -1.5t-66.5 -2t-46.5 -1.5t-19 -0.5q-17 0 -17 12t27 21l14 6q48 18 62 63q22 71 22 484v65q0 468 -20 541q-12 50 -57 71q-4 0 -7 3q-43 18 -42 32q3 7 18 8
q2 0 22.5 -1t54 -2.5t72.5 -3t84.5 -2.5t83.5 -1q67 0 473 4q307 6 310 6q14 0 14 -12l-5 -5q-4 -5 -10 -13.5t-12.5 -19.5t-11 -26.5t-4.5 -31.5q0 -46 9 -120.5t17 -125.5l9 -51q0 -16 -13 -17q-15 -1 -21 23q-1 1 -1 2q-72 226 -182 297q-55 36 -111.5 49t-144.5 13
q-156 0 -185 -39q-21 -24 -30 -119q-8 -80 -11 -365q0 -35 24 -46t99 -11q160 0 211 78q29 51 51 117q4 11 11.5 15t13.5 0t6 -13l-1 -13q-1 -12 -3 -33.5t-4 -48t-3 -59t-1 -61.5q0 -34 1 -67.5t3 -58t4 -44t3 -30t1 -11.5q0 -15 -12 -15q-14 0 -17 17q-40 111 -88 151
q-47 41 -176 41q-78 0 -100.5 -10t-22.5 -45q3 -478 45 -526q30 -37 170 -37q203 -3 308 96q110 101 151 373q3 28 23 28q12 0 12 -16l-20 -169q-15 -148 -15 -237z" />
    <glyph glyph-name="Igrave" unicode="&#xcc;" horiz-adv-x="772" 
d="M612 1444l-4 2h-8q-173 35 -426 119q-57 20 -78.5 41.5t-21.5 56.5q0 33 20.5 53.5t55.5 20.5q41 0 120 -49q66 -40 342 -222q9 -6 9 -12q0 -10 -9 -10zM141 -12q-15 0 -14 10q1 14 37 31q54 22 63 114q11 116 11 506q0 385 -11 500q-9 95 -63 117q-37 12 -37 24
q0 15 14 15q1 0 18 -1.5t44.5 -3.5t58.5 -4.5t65.5 -4t59.5 -1.5q73 0 154 8l92 7q14 0 14 -15q0 -10 -39 -24q-45 -17 -57 -84q-14 -71 -14 -533q0 -472 16 -547q12 -58 55 -73q40 -18 39 -33q-1 -8 -14 -8l-92 8q-95 6 -154 6q-39 0 -98.5 -3.5t-103.5 -6.5z" />
    <glyph glyph-name="Iacute" unicode="&#xcd;" horiz-adv-x="772" 
d="M143 1436q-8 0 -8 10q0 7 8 12q243 161 340 221q83 50 123 50q35 0 55.5 -20.5t20.5 -53.5q0 -35 -21.5 -57t-78.5 -42q-245 -81 -426 -118h-9zM141 -12q-15 0 -14 10q1 14 37 31q54 22 63 114q11 116 11 506q0 385 -11 500q-9 95 -63 117q-37 12 -37 24q0 15 14 15
q1 0 18 -1.5t44.5 -3.5t58.5 -4.5t65.5 -4t59.5 -1.5q73 0 154 8l92 7q14 0 14 -15q0 -10 -39 -24q-45 -17 -57 -84q-14 -71 -14 -533q0 -472 16 -547q12 -58 55 -73q40 -18 39 -33q-1 -8 -14 -8l-92 8q-95 6 -154 6q-39 0 -98.5 -3.5t-103.5 -6.5z" />
    <glyph glyph-name="Icircumflex" unicode="&#xce;" horiz-adv-x="772" 
d="M98 1421q-14 0 -14 15q0 25 186 211q30 30 42.5 41t32 20.5t42.5 9.5q35 0 62 -22q14 -12 51 -49q190 -187 190 -211q0 -15 -14 -15q-7 0 -15.5 3.5t-28.5 14t-46 25t-79.5 42.5t-117.5 59h-4q-254 -134 -273 -141q-9 -3 -14 -3zM141 -12q-15 0 -14 10q1 14 37 31
q54 22 63 114q11 116 11 506q0 385 -11 500q-9 95 -63 117q-37 12 -37 24q0 15 14 15q1 0 18 -1.5t44.5 -3.5t58.5 -4.5t65.5 -4t59.5 -1.5q73 0 154 8l92 7q14 0 14 -15q0 -10 -39 -24q-45 -17 -57 -84q-14 -71 -14 -533q0 -472 16 -547q12 -58 55 -73q40 -18 39 -33
q-1 -8 -14 -8l-92 8q-95 6 -154 6q-39 0 -98.5 -3.5t-103.5 -6.5z" />
    <glyph glyph-name="Idieresis" unicode="&#xcf;" horiz-adv-x="772" 
d="M88 1544q0 50 32.5 80.5t86.5 30.5q55 0 88 -30.5t33 -80.5q0 -51 -33.5 -81.5t-87.5 -30.5t-86.5 30.5t-32.5 81.5zM567 1432q-52 0 -86.5 31t-34.5 81t33.5 80.5t87.5 30.5t87.5 -30.5t33.5 -80.5q0 -51 -33.5 -81.5t-87.5 -30.5zM141 -12q-15 0 -14 10q1 14 37 31
q54 22 63 114q11 116 11 506q0 385 -11 500q-9 95 -63 117q-37 12 -37 24q0 15 14 15q1 0 18 -1.5t44.5 -3.5t58.5 -4.5t65.5 -4t59.5 -1.5q73 0 154 8l92 7q14 0 14 -15q0 -10 -39 -24q-45 -17 -57 -84q-14 -71 -14 -533q0 -472 16 -547q12 -58 55 -73q40 -18 39 -33
q-1 -8 -14 -8l-92 8q-95 6 -154 6q-39 0 -98.5 -3.5t-103.5 -6.5z" />
    <glyph glyph-name="Eth" unicode="&#xd0;" horiz-adv-x="1576" 
d="M719 1309q343 0 555 -185q213 -186 213 -479q0 -294 -213 -483q-212 -185 -555 -185q-6 0 -24 1.5t-56 4.5t-72 5q-140 10 -196 10q-24 0 -150 -4q-91 -6 -94 -6q-14 0 -14 12q0 11 26 20l17 9q48 22 57 108q10 98 10 473q-27 -2 -94 -2q-31 0 -31 39q0 45 39 45
q2 0 36 -1t50 -1q0 368 -12 457q-9 93 -57 115q-38 20 -41 28q0 10 14 10l92 -6q122 -4 152 -4q79 0 196 8q36 2 73.5 5t55.5 4.5t23 1.5zM731 6q430 0 430 639q0 635 -430 635q-165 0 -192 -82q-19 -59 -19 -512q68 0 121 2q22 1 46.5 2t38 1.5t19.5 0.5q35 0 35 -37
q0 -20 -10.5 -34t-26.5 -13q-183 7 -223 8q0 -476 21 -528q27 -82 190 -82z" />
    <glyph glyph-name="Ntilde" unicode="&#xd1;" horiz-adv-x="1468" 
d="M500 1473q2 107 40 172t109 65q56 0 166 -49q102 -45 141 -45q62 0 74 74q3 22 21 22t18 -22q0 -91 -38.5 -154t-104.5 -63q-55 0 -156 43q-91 45 -141 45q-73 0 -94 -88q-3 -15 -12 -21t-16.5 0t-6.5 21zM1253 -45q-16 0 -41 25q-38 46 -378 403l-529 551q-33 33 -45 33
t-12 -23v-616q0 -150 33 -209q35 -60 137 -94q35 -9 35 -25q0 -12 -19 -12q-10 0 -90 6t-111 6q-32 0 -102 -6q-71 -6 -84 -6q-18 0 -18 14q0 10 32 16q80 20 115 88q35 72 35 261v553q0 152 -12 210q-9 61 -52 89q-23 18 -53.5 33t-47.5 23t-17 15q0 13 14 13q1 0 6.5 -1
t18 -2.5t26.5 -3.5q53 -6 74 -6q25 0 69.5 6.5t49.5 6.5q32 0 80 -48q216 -207 471 -462q289 -286 383 -390q10 -10 12 -10q4 0 4 10v572q0 135 -36 199.5t-122 89.5q-28 8 -34.5 12t-6.5 14q0 13 17 13q3 0 12.5 -1t31.5 -2.5t44 -3.5q82 -6 110 -6q37 0 105 6q20 2 37 3.5
t24 2.5t8 1q17 0 17 -13q0 -11 -33 -20q-77 -24 -108 -87.5t-31 -207.5v-985q0 -35 -19 -35z" />
    <glyph glyph-name="Ograve" unicode="&#xd2;" horiz-adv-x="1552" 
d="M561 1565q-57 20 -78.5 41.5t-21.5 56.5q0 33 20.5 53.5t55.5 20.5q41 0 120 -49q66 -40 342 -222q9 -6 9 -12q0 -10 -9 -10l-4 2h-8q-173 35 -426 119zM776 1329q301 0 494 -190q192 -186 192 -490q0 -295 -194 -489q-194 -191 -492 -191q-299 0 -493 191
q-193 193 -193 489q0 300 193 490t493 190zM776 0q171 0 265 160.5t94 488.5q0 647 -359 647q-358 0 -358 -647q0 -325 94.5 -487t263.5 -162z" />
    <glyph glyph-name="Oacute" unicode="&#xd3;" horiz-adv-x="1552" 
d="M530 1436q-8 0 -8 10q0 7 8 12q243 161 340 221q83 50 123 50q35 0 55.5 -20.5t20.5 -53.5q0 -35 -21.5 -57t-78.5 -42q-245 -81 -426 -118h-8zM776 1329q301 0 494 -190q192 -186 192 -490q0 -295 -194 -489q-194 -191 -492 -191q-299 0 -493 191q-193 193 -193 489
q0 300 193 490t493 190zM776 0q171 0 265 160.5t94 488.5q0 647 -359 647q-358 0 -358 -647q0 -325 94.5 -487t263.5 -162z" />
    <glyph glyph-name="Ocircumflex" unicode="&#xd4;" horiz-adv-x="1552" 
d="M485 1421q-14 0 -14 15q0 25 186 211q30 30 42.5 41t32 20.5t42.5 9.5q34 0 62 -22q14 -12 51 -49q190 -187 190 -211q0 -15 -14 -15q-7 0 -15.5 3.5t-28.5 14t-46 25t-79.5 42.5t-117.5 59h-4q-254 -134 -273 -141q-9 -3 -14 -3zM776 1329q301 0 494 -190
q192 -186 192 -490q0 -295 -194 -489q-194 -191 -492 -191q-299 0 -493 191q-193 193 -193 489q0 300 193 490t493 190zM776 0q171 0 265 160.5t94 488.5q0 647 -359 647q-358 0 -358 -647q0 -325 94.5 -487t263.5 -162z" />
    <glyph glyph-name="Otilde" unicode="&#xd5;" horiz-adv-x="1552" 
d="M494 1473q2 107 40 172t109 65q56 0 166 -49q102 -45 141 -45q62 0 74 74q3 22 20 22q19 0 19 -22q0 -91 -38.5 -154t-104.5 -63q-55 0 -156 43q-91 45 -141 45q-74 0 -95 -88q-3 -15 -11.5 -21t-16 0t-6.5 21zM776 1329q301 0 494 -190q192 -186 192 -490
q0 -295 -194 -489q-194 -191 -492 -191q-299 0 -493 191q-193 193 -193 489q0 300 193 490t493 190zM776 0q171 0 265 160.5t94 488.5q0 647 -359 647q-358 0 -358 -647q0 -325 94.5 -487t263.5 -162z" />
    <glyph glyph-name="Odieresis" unicode="&#xd6;" horiz-adv-x="1552" 
d="M475 1544q0 50 32.5 80.5t86.5 30.5q55 0 88 -30.5t33 -80.5q0 -51 -33.5 -81.5t-87.5 -30.5t-86.5 30.5t-32.5 81.5zM954 1432q-52 0 -86 31t-34 81t33 80.5t87 30.5t87.5 -30.5t33.5 -80.5q0 -51 -33.5 -81.5t-87.5 -30.5zM776 1329q301 0 494 -190q192 -186 192 -490
q0 -295 -194 -489q-194 -191 -492 -191q-299 0 -493 191q-193 193 -193 489q0 300 193 490t493 190zM776 0q171 0 265 160.5t94 488.5q0 647 -359 647q-358 0 -358 -647q0 -325 94.5 -487t263.5 -162z" />
    <glyph glyph-name="multiply" unicode="&#xd7;" horiz-adv-x="1146" 
d="M606 551l250 -250q13 -13 -6 -29q-16 -19 -29 -6l-250 250l-249 -250q-13 -13 -29 6q-19 16 -6 29l250 250l-250 250q-13 13 6 28q16 20 29 7l249 -250l250 250q13 13 29 -7q19 -15 6 -28z" />
    <glyph glyph-name="Oslash" unicode="&#xd8;" horiz-adv-x="1552" 
d="M1090 1264q174 -80 273 -241.5t99 -373.5q0 -295 -194 -489q-194 -191 -492 -191q-154 0 -284 56l-93 -193q-9 -20 -34 -20q-21 0 -21 14q0 6 6 18l96 201q-166 82 -261 242t-95 362q0 300 193 490t493 190q142 0 266 -47l84 174q10 23 37 23q21 0 21 -13q0 -7 -6 -22z
M418 649q0 -313 90 -479l493 1028q-82 98 -225 98q-358 0 -358 -647zM776 0q171 0 265 160.5t94 488.5q0 339 -99 502l-497 -1030q89 -121 237 -121z" />
    <glyph glyph-name="Ugrave" unicode="&#xd9;" horiz-adv-x="1406" 
d="M975 1450h-4q-2 2 -8 2q-173 35 -426 119q-57 20 -79 41.5t-22 56.5q0 33 20.5 53.5t55.5 20.5q42 0 121 -49q83 -50 342 -221q8 -5 8 -13q0 -10 -8 -10zM725 -31q-283 0 -427 151t-144 472v459q0 106 -13.5 148t-56.5 65q-39 17 -39 28q0 13 16 13l43 -3q44 -4 103 -8
t98 -4q63 0 158 6q99 9 100 9q15 0 15 -13q0 -10 -50 -37q-43 -20 -59 -65q-14 -41 -14 -178l-2 -502q-1 -220 91.5 -334.5t266.5 -114.5q161 0 268 125q111 126 111 400v442q0 119 -31.5 171t-111.5 71q-32 11 -31 26q1 9 14 9l66 -7q57 -8 108 -8q50 0 111 6q62 9 63 9
q15 0 15 -13q0 -8 -50 -26q-64 -23 -87 -77.5t-23 -184.5v-426q0 -305 -133.5 -457t-374.5 -152z" />
    <glyph glyph-name="Uacute" unicode="&#xda;" horiz-adv-x="1406" 
d="M504 1442q-8 0 -8 10q0 7 8 12q269 178 340 222q82 49 123 49q35 0 55 -20.5t20 -53.5q0 -35 -21.5 -56.5t-78.5 -41.5q-253 -84 -426 -119q-6 0 -8 -2h-4zM725 -31q-283 0 -427 151t-144 472v459q0 106 -13.5 148t-56.5 65q-39 17 -39 28q0 13 16 13l43 -3q44 -4 103 -8
t98 -4q63 0 158 6q99 9 100 9q15 0 15 -13q0 -10 -50 -37q-43 -20 -59 -65q-14 -41 -14 -178l-2 -502q-1 -220 91.5 -334.5t266.5 -114.5q161 0 268 125q111 126 111 400v442q0 119 -31.5 171t-111.5 71q-32 11 -31 26q1 9 14 9l66 -7q57 -8 108 -8q50 0 111 6q62 9 63 9
q15 0 15 -13q0 -8 -50 -26q-64 -23 -87 -77.5t-23 -184.5v-426q0 -305 -133.5 -457t-374.5 -152z" />
    <glyph glyph-name="Ucircumflex" unicode="&#xdb;" horiz-adv-x="1406" 
d="M459 1427q-15 0 -15 15q0 24 187 211q30 30 42.5 41t32 20.5t42.5 9.5q34 0 61 -22q14 -12 51 -49q191 -188 191 -211q0 -15 -15 -15q-7 0 -15 3.5t-28 14t-46 25t-79.5 42t-117.5 59.5h-5q-44 -23 -113 -60q-157 -81 -173 -84zM725 -31q-283 0 -427 151t-144 472v459
q0 106 -13.5 148t-56.5 65q-39 17 -39 28q0 13 16 13l43 -3q44 -4 103 -8t98 -4q63 0 158 6q99 9 100 9q15 0 15 -13q0 -10 -50 -37q-43 -20 -59 -65q-14 -41 -14 -178l-2 -502q-1 -220 91.5 -334.5t266.5 -114.5q161 0 268 125q111 126 111 400v442q0 119 -31.5 171
t-111.5 71q-32 11 -31 26q1 9 14 9l66 -7q57 -8 108 -8q50 0 111 6q62 9 63 9q15 0 15 -13q0 -8 -50 -26q-64 -23 -87 -77.5t-23 -184.5v-426q0 -305 -133.5 -457t-374.5 -152z" />
    <glyph glyph-name="Udieresis" unicode="&#xdc;" horiz-adv-x="1406" 
d="M449 1550q0 50 32 80.5t86 30.5q55 0 88 -30.5t33 -80.5q0 -51 -33.5 -81.5t-87.5 -30.5t-86 30.5t-32 81.5zM928 1438q-52 0 -86.5 31t-34.5 81t33.5 80.5t87.5 30.5t87.5 -30.5t33.5 -80.5q0 -51 -33.5 -81.5t-87.5 -30.5zM725 -31q-283 0 -427 151t-144 472v459
q0 106 -13.5 148t-56.5 65q-39 17 -39 28q0 13 16 13l43 -3q44 -4 103 -8t98 -4q63 0 158 6q99 9 100 9q15 0 15 -13q0 -10 -50 -37q-43 -20 -59 -65q-14 -41 -14 -178l-2 -502q-1 -220 91.5 -334.5t266.5 -114.5q161 0 268 125q111 126 111 400v442q0 119 -31.5 171
t-111.5 71q-32 11 -31 26q1 9 14 9l66 -7q57 -8 108 -8q50 0 111 6q62 9 63 9q15 0 15 -13q0 -8 -50 -26q-64 -23 -87 -77.5t-23 -184.5v-426q0 -305 -133.5 -457t-374.5 -152z" />
    <glyph glyph-name="Yacute" unicode="&#xdd;" horiz-adv-x="1341" 
d="M442 1436q-8 0 -8 10q0 7 8 12q243 161 340 221q83 50 123 50q35 0 55.5 -20.5t20.5 -53.5q0 -35 -21.5 -57t-78.5 -42q-245 -81 -426 -118h-9zM412 -14q-17 0 -17 12q0 10 43 31q60 22 72 94q14 69 14 364q0 78 -73 191l-242 379q-63 103 -109 157q-34 40 -69 54
q-33 11 -33 24q0 11 16 11q1 0 20 -1.5t48 -3.5t62 -3.5t69 -3t63 -1.5q37 0 98.5 3t107.5 7l46 3q17 0 17 -13q0 -9 -37 -24q-45 -17 -45 -45q0 -76 330 -621l168 293q100 169 100 260q0 92 -113 119q-22 3 -22 18q0 13 20 13q1 0 10.5 -1t31 -2.5t46.5 -3.5q86 -6 135 -6
q27 0 86 6q17 2 32 3.5t21 2.5t7 1q12 0 16.5 -6t0 -14t-16.5 -13q-68 -21 -109 -62q-39 -39 -98 -139l-279 -473q-8 -13 -8 -29q0 -403 19 -471q15 -43 57 -63l8 -4q44 -20 41 -35q-2 -8 -14 -8l-48 4q-48 3 -111 6.5t-99 3.5q-24 0 -59 -1.5t-69 -3.5t-64 -4t-49.5 -3.5
t-20.5 -1.5z" />
    <glyph glyph-name="Thorn" unicode="&#xde;" horiz-adv-x="1351" 
d="M119 -14q-15 0 -15 12q0 11 27 20l16 9q49 18 64 67q18 61 18 410v327q-3 276 -16 336q-16 77 -66 97q-39 20 -43 28q0 13 15 13l47 -3q46 -4 109 -8t104 -4q73 0 164 8q102 9 114 9q15 0 15 -11q0 -4 -2 -6.5t-6.5 -5t-10 -4t-15.5 -5.5t-20 -9q-54 -18 -70 -61.5
t-16 -157.5q0 -13 9 -13l3 1q4 1 10.5 2.5t16.5 3t22.5 3.5t26.5 4.5t30 4t32.5 3t35.5 2.5t36 1q246 0 397 -109q149 -107 149 -284q0 -180 -149 -293t-393 -113q-30 0 -63.5 2.5t-59.5 6t-47 7.5t-33.5 6.5t-13.5 2.5q-9 0 -9 -13q3 -136 19 -186q14 -44 67 -59
q14 -9 28.5 -13t20 -6.5t5.5 -11.5q0 -10 -15 -10q-1 0 -21.5 1.5t-52 3.5t-67.5 4t-73.5 3.5t-63.5 1.5q-41 0 -104 -3.5t-109 -6.5zM668 301q150 0 231.5 94t81.5 271q0 170 -80.5 261t-224.5 91q-126 0 -141 -53q-9 -27 -9 -306q0 -271 9 -315q12 -43 133 -43z" />
    <glyph glyph-name="germandbls" unicode="&#xdf;" horiz-adv-x="1175" 
d="M944 530q90 -74 131 -141.5t41 -150.5q0 -111 -92 -191q-90 -78 -217 -78q-70 0 -137 33q-68 35 -78 35q-25 0 -31 -41q-1 -12 -8.5 -16.5t-15 0t-7.5 16.5v7q0 7 0.5 17.5t1 22.5t0.5 25v22q0 50 -6 117q-1 21 -2 38.5t-2 25.5v8q0 14 12 13q13 -2 19 -20
q43 -141 104.5 -207.5t149.5 -66.5q61 0 101 37t40 96q0 49 -25 86t-92 92l-180 160q-116 94 -116 213q0 55 22 100.5t78 110.5q24 28 57 61q44 47 56 64q19 22 33 58.5t14 72.5q0 57 -45.5 98t-116.5 41q-96 0 -152.5 -66t-56.5 -190v-893q0 -25 2 -56.5t4 -53.5t2 -23
q0 -14 -14 -14l-27 2q-27 2 -64.5 4t-62.5 2t-123 -4l-73 -6q-15 0 -15 12q0 4 2.5 7.5t6.5 5.5t13 7.5t17 10.5q51 23 66 76q14 49 14 192v447q-15 0 -37.5 -1t-39.5 -1.5t-19 -0.5q-17 0 -23.5 13.5t0 27t23.5 13.5l96 -4v39q-1 109 23.5 195t64.5 140t95 89.5t111.5 49.5
t117.5 13q118 0 180.5 -48.5t62.5 -125.5q2 -46 -22.5 -97.5t-55 -88.5t-55 -77.5t-22.5 -68.5q0 -35 21.5 -63.5t86.5 -85.5z" />
    <glyph glyph-name="agrave" unicode="&#xe0;" horiz-adv-x="1085" 
d="M285 1118q-47 29 -65 51t-17 48q1 32 23 50.5t53 16.5q39 -3 102 -63q58 -53 268 -275q9 -9 6 -12q0 -8 -10 -8q-2 2 -4 2q-2 2 -6 2q-167 71 -350 188zM1057 137q14 0 14 -16q0 -76 -44 -114t-146 -38q-107 0 -162 48t-62 153q-37 -98 -123.5 -149.5t-201.5 -51.5
q-120 0 -189 50t-69 143q0 150 174 209q84 29 175 44.5t232 26.5v117q0 126 -49 182t-149 56q-66 0 -107 -24t-41 -60q0 -13 19.5 -56t19.5 -61q0 -42 -32.5 -68t-86.5 -26q-56 0 -87 30t-31 84q0 91 100 151t283 60q219 0 330.5 -90t111.5 -293v-315q0 -82 47 -82
q53 0 53 72q3 18 21 18zM444 41q87 0 149 81.5t62 211.5v78l-6 -2q-214 -21 -276 -76q-49 -43 -49 -135q0 -158 120 -158z" />
    <glyph glyph-name="aacute" unicode="&#xe1;" horiz-adv-x="1085" 
d="M309 926q-10 0 -10 8q-3 3 6 12q222 235 266 275q63 60 105 63q31 2 53 -16.5t23 -50.5q1 -26 -17 -48t-65 -51q-181 -116 -351 -188q-6 0 -10 -4zM1057 137q14 0 14 -16q0 -76 -44 -114t-146 -38q-107 0 -162 48t-62 153q-37 -98 -123.5 -149.5t-201.5 -51.5
q-120 0 -189 50t-69 143q0 150 174 209q84 29 175 44.5t232 26.5v117q0 126 -49 182t-149 56q-66 0 -107 -24t-41 -60q0 -13 19.5 -56t19.5 -61q0 -42 -32.5 -68t-86.5 -26q-56 0 -87 30t-31 84q0 91 100 151t283 60q219 0 330.5 -90t111.5 -293v-315q0 -82 47 -82
q53 0 53 72q3 18 21 18zM444 41q87 0 149 81.5t62 211.5v78l-6 -2q-214 -21 -276 -76q-49 -43 -49 -135q0 -158 120 -158z" />
    <glyph glyph-name="acircumflex" unicode="&#xe2;" horiz-adv-x="1085" 
d="M219 1001q-14 0 -14 15q0 12 28 47t123 145q26 30 41 47q47 55 111 55.5t108 -53.5q173 -203 180 -212q15 -20 15 -29q0 -15 -14 -15q-12 0 -170 103l-115 76h-8q-45 -29 -87 -57t-67 -44.5t-48 -31.5t-34.5 -23t-22 -13.5t-16 -7.5t-10.5 -2zM1057 137q14 0 14 -16
q0 -76 -44 -114t-146 -38q-107 0 -162 48t-62 153q-37 -98 -123.5 -149.5t-201.5 -51.5q-120 0 -189 50t-69 143q0 150 174 209q84 29 175 44.5t232 26.5v117q0 126 -49 182t-149 56q-66 0 -107 -24t-41 -60q0 -13 19.5 -56t19.5 -61q0 -42 -32.5 -68t-86.5 -26
q-56 0 -87 30t-31 84q0 91 100 151t283 60q219 0 330.5 -90t111.5 -293v-315q0 -82 47 -82q53 0 53 72q3 18 21 18zM444 41q87 0 149 81.5t62 211.5v78l-6 -2q-214 -21 -276 -76q-49 -43 -49 -135q0 -158 120 -158z" />
    <glyph glyph-name="atilde" unicode="&#xe3;" horiz-adv-x="1085" 
d="M199 1026q2 107 40 172.5t109 65.5q54 0 166 -50q102 -45 141 -45q62 0 74 74q3 23 21 23t18 -23q0 -91 -38.5 -154t-104.5 -63q-55 0 -156 43q-91 45 -141 45q-74 0 -95 -88q-3 -15 -11.5 -21t-16 0t-6.5 21zM1057 137q14 0 14 -16q0 -76 -44 -114t-146 -38
q-107 0 -162 48t-62 153q-37 -98 -123.5 -149.5t-201.5 -51.5q-120 0 -189 50t-69 143q0 150 174 209q84 29 175 44.5t232 26.5v117q0 126 -49 182t-149 56q-66 0 -107 -24t-41 -60q0 -13 19.5 -56t19.5 -61q0 -42 -32.5 -68t-86.5 -26q-56 0 -87 30t-31 84q0 91 100 151
t283 60q219 0 330.5 -90t111.5 -293v-315q0 -82 47 -82q53 0 53 72q3 18 21 18zM444 41q87 0 149 81.5t62 211.5v78l-6 -2q-214 -21 -276 -76q-49 -43 -49 -135q0 -158 120 -158z" />
    <glyph glyph-name="adieresis" unicode="&#xe4;" horiz-adv-x="1085" 
d="M322 1210q55 0 87.5 -30.5t32.5 -81.5t-33 -82t-87 -31t-86.5 31t-32.5 82t32.5 81.5t86.5 30.5zM682 985q-52 0 -86.5 31.5t-34.5 81.5q0 51 33.5 81.5t87.5 30.5t87.5 -30.5t33.5 -81.5t-33.5 -82t-87.5 -31zM1057 137q14 0 14 -16q0 -76 -44 -114t-146 -38
q-107 0 -162 48t-62 153q-37 -98 -123.5 -149.5t-201.5 -51.5q-120 0 -189 50t-69 143q0 150 174 209q84 29 175 44.5t232 26.5v117q0 126 -49 182t-149 56q-66 0 -107 -24t-41 -60q0 -13 19.5 -56t19.5 -61q0 -42 -32.5 -68t-86.5 -26q-56 0 -87 30t-31 84q0 91 100 151
t283 60q219 0 330.5 -90t111.5 -293v-315q0 -82 47 -82q53 0 53 72q3 18 21 18zM444 41q87 0 149 81.5t62 211.5v78l-6 -2q-214 -21 -276 -76q-49 -43 -49 -135q0 -158 120 -158z" />
    <glyph glyph-name="aring" unicode="&#xe5;" horiz-adv-x="1085" 
d="M510 1010q-75 0 -125.5 41.5t-50.5 103.5q0 64 49.5 106t126.5 42q79 0 127.5 -41t48.5 -107q0 -63 -49 -104t-127 -41zM426 1155q0 -119 84 -119t84 119q0 121 -84 121t-84 -121zM1057 137q14 0 14 -16q0 -76 -44 -114t-146 -38q-107 0 -162 48t-62 153
q-37 -98 -123.5 -149.5t-201.5 -51.5q-120 0 -189 50t-69 143q0 150 174 209q84 29 175 44.5t232 26.5v117q0 126 -49 182t-149 56q-66 0 -107 -24t-41 -60q0 -13 19.5 -56t19.5 -61q0 -42 -32.5 -68t-86.5 -26q-56 0 -87 30t-31 84q0 91 100 151t283 60q219 0 330.5 -90
t111.5 -293v-315q0 -82 47 -82q53 0 53 72q3 18 21 18zM444 41q87 0 149 81.5t62 211.5v78l-6 -2q-214 -21 -276 -76q-49 -43 -49 -135q0 -158 120 -158z" />
    <glyph glyph-name="ae" unicode="&#xe6;" horiz-adv-x="1517" 
d="M1446 246q12 0 12 -13q0 -6 -6 -24q-36 -106 -140 -173t-247 -67q-139 0 -245 60t-161 166q-29 -110 -115 -168t-210 -58q-123 0 -191.5 52t-68.5 151q0 144 176 203q143 49 360 67v109q0 132 -42 189t-134 57q-66 0 -103.5 -24t-37.5 -60q0 -11 12 -49t12 -56
q0 -42 -28.5 -68t-77.5 -26q-50 0 -78.5 27.5t-28.5 74.5q0 91 91 151t256 60q204 0 301 -106q121 106 311 106q166 0 276 -90q111 -88 111 -227q0 -74 -68 -74l-501 2v-47q0 -168 65.5 -258t188.5 -90q103 0 183 52t112 134q7 17 16 17zM1061 799q-171 0 -180 -320l301 4
q23 0 27.5 9.5t4.5 52.5q0 254 -153 254zM434 41q73 0 130 54.5t75 146.5q-27 70 -27 159v7h-6q-187 -21 -244 -78q-49 -52 -49 -137q0 -152 121 -152z" />
    <glyph glyph-name="ccedilla" unicode="&#xe7;" horiz-adv-x="976" 
d="M915 260q13 0 13 -12v-4q-55 -260 -369 -275l-43 -82q217 -34 217 -149q0 -60 -53 -95.5t-131 -35.5q-31 0 -58 4.5t-44.5 10.5t-30 13.5t-18 13.5t-5.5 9q0 12 13 12q1 0 14.5 -5.5t34.5 -11t39 -5.5q41 0 65.5 24.5t24.5 65.5q0 42 -22.5 65t-82.5 47q-12 3 -12 17
q0 9 8 22l45 80q-198 3 -323 119t-125 301q0 203 135 320q136 118 354 118q95 0 172 -26q22 -7 43.5 -13.5t29.5 -9t9 -2.5q29 0 41 43q7 17 18 17q15 0 15 -19q0 -49 2.5 -99.5t6.5 -89t8 -68.5t6.5 -46.5t2.5 -15.5q0 -16 -13 -17q-15 0 -21 21q-38 152 -104.5 222.5
t-170.5 70.5q-110 0 -181 -93t-71 -274q0 -186 72 -284.5t197 -98.5q103 0 175 51.5t101 145.5q6 18 16 18z" />
    <glyph glyph-name="egrave" unicode="&#xe8;" horiz-adv-x="1015" 
d="M317 1118q-47 29 -65 51t-16 48q1 32 22.5 50.5t52.5 16.5q40 -3 103 -63q58 -53 268 -275q9 -9 6 -12q0 -8 -10 -8q-2 2 -4 2q-2 2 -6 2q-170 72 -351 188zM938 246q14 0 14 -13q0 -6 -6 -24q-36 -106 -143.5 -173t-253.5 -67q-216 0 -348 123q-129 123 -129 309
q0 189 131 308q130 118 340 118q177 0 293 -90q114 -89 114 -227q0 -78 -67 -78l-543 2v-14q0 -381 274 -381q110 0 193 53t115 137q10 17 16 17zM541 799q-189 0 -201 -326l342 4q25 0 30 9.5t5 52.5q0 260 -176 260z" />
    <glyph glyph-name="eacute" unicode="&#xe9;" horiz-adv-x="1015" 
d="M340 926q-10 0 -10 8q-3 3 6 12q222 235 266 275q63 60 105 63q31 2 52.5 -16.5t22.5 -50.5q1 -26 -17 -48t-65 -51q-183 -117 -350 -188q-6 0 -10 -4zM938 246q14 0 14 -13q0 -6 -6 -24q-36 -106 -143.5 -173t-253.5 -67q-216 0 -348 123q-129 123 -129 309
q0 189 131 308q130 118 340 118q177 0 293 -90q114 -89 114 -227q0 -78 -67 -78l-543 2v-14q0 -381 274 -381q110 0 193 53t115 137q10 17 16 17zM541 799q-189 0 -201 -326l342 4q25 0 30 9.5t5 52.5q0 260 -176 260z" />
    <glyph glyph-name="ecircumflex" unicode="&#xea;" horiz-adv-x="1015" 
d="M250 1001q-14 0 -14 15q0 12 28 47t123 145q26 30 41 47q47 55 111 55.5t108 -53.5q173 -203 180 -212q15 -20 15 -29q0 -15 -15 -15q-12 0 -170 103l-114 76h-8q-45 -29 -87 -57t-67 -44.5t-48 -31.5t-34.5 -23t-22 -13.5t-16 -7.5t-10.5 -2zM938 246q14 0 14 -13
q0 -6 -6 -24q-36 -106 -143.5 -173t-253.5 -67q-216 0 -348 123q-129 123 -129 309q0 189 131 308q130 118 340 118q177 0 293 -90q114 -89 114 -227q0 -78 -67 -78l-543 2v-14q0 -381 274 -381q110 0 193 53t115 137q10 17 16 17zM541 799q-189 0 -201 -326l342 4
q25 0 30 9.5t5 52.5q0 260 -176 260z" />
    <glyph glyph-name="edieresis" unicode="&#xeb;" horiz-adv-x="1015" 
d="M352 1210q55 0 88 -30.5t33 -81.5t-33.5 -82t-87.5 -31t-86.5 31t-32.5 82t32.5 81.5t86.5 30.5zM713 985q-52 0 -86.5 31.5t-34.5 81.5q0 51 33.5 81.5t87.5 30.5t87.5 -30.5t33.5 -81.5t-33.5 -82t-87.5 -31zM938 246q14 0 14 -13q0 -6 -6 -24q-36 -106 -143.5 -173
t-253.5 -67q-216 0 -348 123q-129 123 -129 309q0 189 131 308q130 118 340 118q177 0 293 -90q114 -89 114 -227q0 -78 -67 -78l-543 2v-14q0 -381 274 -381q110 0 193 53t115 137q10 17 16 17zM541 799q-189 0 -201 -326l342 4q25 0 30 9.5t5 52.5q0 260 -176 260z" />
    <glyph glyph-name="igrave" unicode="&#xec;" horiz-adv-x="649" 
d="M442 926q-2 2 -4 2q-2 2 -6 2q-167 71 -350 188q-47 29 -65 51t-17 48q1 32 23 50.5t53 16.5q39 -3 102 -63q58 -53 268 -275q10 -10 7 -12q0 -8 -11 -8zM94 -12q-14 0 -14 12t31 27q59 21 71 67q15 46 15 191v211q0 113 -17 166q-15 50 -74 71q-30 15 -30 27t22 12
q52 2 100 6t83.5 9.5t66 12t51 12.5t35 11t22.5 8l7 3q14 0 14 -15q0 -3 -2.5 -13t-7 -24.5t-6.5 -25.5q-12 -52 -12 -246v-211q0 -149 18 -201q19 -54 86 -78q22 -9 22 -18q0 -14 -14 -14q-3 0 -94 6q-89 6 -143 6t-142 -6q-85 -6 -88 -6z" />
    <glyph glyph-name="iacute" unicode="&#xed;" horiz-adv-x="649" 
d="M106 926q-10 0 -10 8q-3 3 6 12q216 228 267 275q63 60 104 63q31 2 53 -16.5t23 -50.5q1 -26 -17 -48t-65 -51q-183 -117 -350 -188q-7 0 -11 -4zM94 -12q-14 0 -14 12t31 27q59 21 71 67q15 46 15 191v211q0 113 -17 166q-15 50 -74 71q-30 15 -30 27t22 12q52 2 100 6
t83.5 9.5t66 12t51 12.5t35 11t22.5 8l7 3q14 0 14 -15q0 -3 -2.5 -13t-7 -24.5t-6.5 -25.5q-12 -52 -12 -246v-211q0 -149 18 -201q19 -54 86 -78q22 -9 22 -18q0 -14 -14 -14q-3 0 -94 6q-89 6 -143 6t-142 -6q-85 -6 -88 -6z" />
    <glyph glyph-name="icircumflex" unicode="&#xee;" horiz-adv-x="649" 
d="M84 989q-14 0 -14 17q0 30 139 231l8 12q38 56 62 62l22 4q20 0 38 -13t26.5 -24.5t27.5 -40.5q135 -205 135 -233q0 -15 -10 -15q-15 0 -215 176h-4q-184 -166 -207 -174q-2 -2 -8 -2zM94 -12q-14 0 -14 12t31 27q59 21 71 67q15 46 15 191v211q0 113 -17 166
q-15 50 -74 71q-30 15 -30 27t22 12q52 2 100 6t83.5 9.5t66 12t51 12.5t35 11t22.5 8l7 3q14 0 14 -15q0 -3 -2.5 -13t-7 -24.5t-6.5 -25.5q-12 -52 -12 -246v-211q0 -149 18 -201q19 -54 86 -78q22 -9 22 -18q0 -14 -14 -14q-3 0 -94 6q-89 6 -143 6t-142 -6
q-85 -6 -88 -6z" />
    <glyph glyph-name="idieresis" unicode="&#xef;" horiz-adv-x="649" 
d="M119 1210q55 0 88 -30.5t33 -81.5t-33.5 -82t-87.5 -31t-86.5 31t-32.5 82t32.5 81.5t86.5 30.5zM479 985q-52 0 -86.5 31.5t-34.5 81.5q0 51 33.5 81.5t87.5 30.5t87.5 -30.5t33.5 -81.5t-33.5 -82t-87.5 -31zM94 -12q-14 0 -14 12t31 27q59 21 71 67q15 46 15 191v211
q0 113 -17 166q-15 50 -74 71q-30 15 -30 27t22 12q52 2 100 6t83.5 9.5t66 12t51 12.5t35 11t22.5 8l7 3q14 0 14 -15q0 -3 -2.5 -13t-7 -24.5t-6.5 -25.5q-12 -52 -12 -246v-211q0 -149 18 -201q19 -54 86 -78q22 -9 22 -18q0 -14 -14 -14q-3 0 -94 6q-89 6 -143 6
t-142 -6q-85 -6 -88 -6z" />
    <glyph glyph-name="eth" unicode="&#xf0;" horiz-adv-x="1091" 
d="M614 1100q192 -76 300 -223t108 -345q0 -242 -129 -401q-130 -160 -346 -160q-201 0 -340 109q-135 111 -135 295q0 174 114 282q118 109 281 109q221 0 274 -164q-3 194 -30 285t-88 137q-16 16 -54 35l-219 -195q-17 -14 -26 -14q-19 0 -19 18q0 14 14 25l209 186
q-131 55 -315 58q-25 0 -25 18q0 16 25 16q198 0 356 -55l168 152q8 8 19 8q18 0 18 -21q0 -10 -10 -20zM745 354v68q0 139 -57 220t-151 81q-195 0 -195 -354q0 -185 55 -277t152 -92q196 0 196 354z" />
    <glyph glyph-name="ntilde" unicode="&#xf1;" horiz-adv-x="1208" 
d="M324 1026q2 107 40 172.5t109 65.5q54 0 166 -50q102 -45 141 -45q62 0 74 74q3 23 20 23q19 0 19 -23q0 -91 -38.5 -154t-104.5 -63q-55 0 -156 43q-91 45 -141 45q-74 0 -95 -88q-3 -15 -11.5 -21t-16 0t-6.5 21zM1114 27q37 -16 29 -32q-3 -7 -13 -7q-16 0 -90 6
t-118 6q-46 0 -119 -6q-74 -6 -76 -6q-14 0 -14 11q0 15 30 28q36 22 45 55q11 46 11 147v357q0 182 -137 182q-100 0 -167 -105.5t-67 -283.5v-139q0 -117 10 -162q11 -38 56 -53q32 -14 32 -25q0 -12 -14 -12l-15 1q-15 1 -38.5 3t-50 4t-55 3t-48.5 1q-21 0 -51 -1
t-57.5 -3t-52 -4t-40 -3t-16.5 -1q-14 0 -14 12q0 8 6.5 13.5t25.5 13.5q51 22 60 57q12 34 12 164v254q0 120 -16 166q-15 43 -64 61q-30 13 -35 23q0 14 21 14q28 1 62 4.5t65.5 9t63 12t57.5 12.5t46 11.5t32 8.5l12 3q14 0 14 -12l-1 -7q-1 -7 -2.5 -19.5t-3 -30
t-3 -40.5t-3 -48t-2.5 -55.5t-1 -61.5q29 133 109 203.5t202 70.5q166 0 242 -82t76 -260v-256q0 -107 10 -145q11 -33 55 -57z" />
    <glyph glyph-name="ograve" unicode="&#xf2;" horiz-adv-x="1083" 
d="M686 926q-2 2 -4 2q-2 2 -6 2q-167 71 -350 188q-47 29 -65 51t-17 48q1 32 22.5 50.5t52.5 16.5q40 -3 103 -63q58 -53 268 -275q9 -9 6 -12q0 -8 -10 -8zM201 709q130 118 342 118q213 0 340 -118q131 -119 131 -310q0 -190 -131 -309q-128 -119 -340 -119
q-211 0 -342 119q-129 120 -129 309q0 190 129 310zM543 0q105 0 154.5 93t50.5 306q-1 212 -50.5 305t-154.5 95q-106 -2 -155.5 -95t-49.5 -305q0 -213 49.5 -306t155.5 -93z" />
    <glyph glyph-name="oacute" unicode="&#xf3;" horiz-adv-x="1083" 
d="M348 926q-10 0 -10 8q-3 3 6 12q222 235 266 275q63 60 105 63q31 2 53 -16.5t23 -50.5q1 -26 -17 -48t-65 -51q-181 -116 -351 -188q-6 0 -10 -4zM201 709q130 118 342 118q213 0 340 -118q131 -119 131 -310q0 -190 -131 -309q-128 -119 -340 -119q-211 0 -342 119
q-129 120 -129 309q0 190 129 310zM543 0q105 0 154.5 93t50.5 306q-1 212 -50.5 305t-154.5 95q-106 -2 -155.5 -95t-49.5 -305q0 -213 49.5 -306t155.5 -93z" />
    <glyph glyph-name="ocircumflex" unicode="&#xf4;" horiz-adv-x="1083" 
d="M258 1001q-14 0 -14 15q0 12 28 47t123 145q26 30 41 47q47 55 111 55.5t108 -53.5q173 -203 180 -212q15 -20 15 -29q0 -15 -14 -15q-12 0 -170 103l-115 76h-8q-45 -29 -87 -57t-67 -44.5t-48 -31.5t-34.5 -23t-22 -13.5t-16 -7.5t-10.5 -2zM201 709q130 118 342 118
q213 0 340 -118q131 -119 131 -310q0 -190 -131 -309q-128 -119 -340 -119q-211 0 -342 119q-129 120 -129 309q0 190 129 310zM543 0q105 0 154.5 93t50.5 306q-1 212 -50.5 305t-154.5 95q-106 -2 -155.5 -95t-49.5 -305q0 -213 49.5 -306t155.5 -93z" />
    <glyph glyph-name="otilde" unicode="&#xf5;" horiz-adv-x="1083" 
d="M240 1026q2 107 40 172.5t109 65.5q54 0 166 -50q102 -45 141 -45q62 0 74 74q3 23 21 23t18 -23q0 -91 -38.5 -154t-104.5 -63q-55 0 -156 43q-91 45 -141 45q-74 0 -95 -88q-3 -15 -11.5 -21t-16 0t-6.5 21zM201 709q130 118 342 118q213 0 340 -118q131 -119 131 -310
q0 -190 -131 -309q-128 -119 -340 -119q-211 0 -342 119q-129 120 -129 309q0 190 129 310zM543 0q105 0 154.5 93t50.5 306q-1 212 -50.5 305t-154.5 95q-106 -2 -155.5 -95t-49.5 -305q0 -213 49.5 -306t155.5 -93z" />
    <glyph glyph-name="odieresis" unicode="&#xf6;" horiz-adv-x="1083" 
d="M360 1210q55 0 88 -30.5t33 -81.5t-33.5 -82t-87.5 -31t-86 31t-32 82t32 81.5t86 30.5zM721 985q-52 0 -86.5 31.5t-34.5 81.5q0 51 33.5 81.5t87.5 30.5t87.5 -30.5t33.5 -81.5t-33.5 -82t-87.5 -31zM201 709q130 118 342 118q213 0 340 -118q131 -119 131 -310
q0 -190 -131 -309q-128 -119 -340 -119q-211 0 -342 119q-129 120 -129 309q0 190 129 310zM543 0q105 0 154.5 93t50.5 306q-1 212 -50.5 305t-154.5 95q-106 -2 -155.5 -95t-49.5 -305q0 -213 49.5 -306t155.5 -93z" />
    <glyph glyph-name="divide" unicode="&#xf7;" horiz-adv-x="1146" 
d="M569 885q47 5 66.5 -33.5t0 -76.5t-66.5 -32q-32 0 -53.5 19.5t-21.5 50.5q0 32 21 52t54 20zM248 578h651q17 0 17 -25t-17 -25h-651q-17 0 -17 25t17 25zM569 356q47 5 66.5 -33t0 -76t-66.5 -32q-32 0 -53.5 19.5t-21.5 50.5q0 32 21 51.5t54 19.5z" />
    <glyph glyph-name="oslash" unicode="&#xf8;" horiz-adv-x="1083" 
d="M807 764q207 -121 207 -365q0 -190 -131 -309q-128 -119 -340 -119q-122 0 -213 39l-97 -153q-8 -13 -21.5 -18t-23.5 -1.5t-10 12.5q0 7 6 19l101 162q-101 56 -157 151t-56 217q0 190 129 310q130 118 342 118q126 0 219 -43l98 154q16 23 37 23t21 -13q0 -12 -7 -22z
M338 399q0 -157 27 -243l337 534q-50 109 -159 109q-106 -2 -155.5 -95t-49.5 -305zM543 0q105 2 154.5 94.5t50.5 304.5q0 143 -25 232l-338 -533q49 -98 158 -98z" />
    <glyph glyph-name="ugrave" unicode="&#xf9;" horiz-adv-x="1161" 
d="M358 1118q-47 29 -65 51t-17 48q1 32 23 50.5t53 16.5q40 -3 103 -63q58 -53 268 -275q9 -9 6 -12q0 -8 -10 -8q-2 2 -4 2q-2 2 -6 2q-170 72 -351 188zM1094 51q28 -8 26 -22q-1 -12 -20 -13q-39 -1 -84 -5.5t-81 -10.5t-66 -11.5t-47.5 -9.5t-18.5 -4q-17 0 -23 21
q-13 43 -16 217h-2q-53 -244 -303 -244q-153 0 -230 78.5t-77 251.5v276q0 88 -12.5 119.5t-53.5 48.5q-37 13 -37 29q0 12 21 12q25 0 56.5 2t61.5 5t60.5 7t56.5 7.5t46 6.5t32 5l12 2q19 0 19 -20q-13 -58 -13 -228v-303q0 -225 148 -225q87 0 143 85.5t60 227.5
q0 227 -11 306q-9 64 -47 79q-4 2 -11 5t-10 4.5t-7.5 4t-6 5t-3 5.5t-1.5 7q0 12 21 12q36 0 83 3.5t88.5 9t77.5 10.5t59 9l22 3q12 0 12 -10q-14 -82 -14 -229v-297q0 -125 16 -168t74 -64z" />
    <glyph glyph-name="uacute" unicode="&#xfa;" horiz-adv-x="1161" 
d="M381 926q-10 0 -10 8q-3 3 6 12q222 235 266 275q63 60 105 63q31 2 52.5 -16.5t22.5 -50.5q1 -26 -17 -48t-65 -51q-183 -117 -350 -188q-6 0 -10 -4zM1094 51q28 -8 26 -22q-1 -12 -20 -13q-39 -1 -84 -5.5t-81 -10.5t-66 -11.5t-47.5 -9.5t-18.5 -4q-17 0 -23 21
q-13 43 -16 217h-2q-53 -244 -303 -244q-153 0 -230 78.5t-77 251.5v276q0 88 -12.5 119.5t-53.5 48.5q-37 13 -37 29q0 12 21 12q25 0 56.5 2t61.5 5t60.5 7t56.5 7.5t46 6.5t32 5l12 2q19 0 19 -20q-13 -58 -13 -228v-303q0 -225 148 -225q87 0 143 85.5t60 227.5
q0 227 -11 306q-9 64 -47 79q-4 2 -11 5t-10 4.5t-7.5 4t-6 5t-3 5.5t-1.5 7q0 12 21 12q36 0 83 3.5t88.5 9t77.5 10.5t59 9l22 3q12 0 12 -10q-14 -82 -14 -229v-297q0 -125 16 -168t74 -64z" />
    <glyph glyph-name="ucircumflex" unicode="&#xfb;" horiz-adv-x="1161" 
d="M287 954q-15 0 -15 15q0 11 25 42.5t108 127.5q38 43 60 69q47 55 111 55.5t108 -53.5q173 -203 180 -212q15 -20 15 -29q0 -15 -15 -15q-12 0 -170 103l-114 76h-9q-45 -29 -87 -57t-66.5 -44.5t-47.5 -31.5t-34.5 -23t-22 -13.5t-16 -7.5t-10.5 -2zM1094 51
q28 -8 26 -22q-1 -12 -20 -13q-39 -1 -84 -5.5t-81 -10.5t-66 -11.5t-47.5 -9.5t-18.5 -4q-17 0 -23 21q-13 43 -16 217h-2q-53 -244 -303 -244q-153 0 -230 78.5t-77 251.5v276q0 88 -12.5 119.5t-53.5 48.5q-37 13 -37 29q0 12 21 12q25 0 56.5 2t61.5 5t60.5 7t56.5 7.5
t46 6.5t32 5l12 2q19 0 19 -20q-13 -58 -13 -228v-303q0 -225 148 -225q87 0 143 85.5t60 227.5q0 227 -11 306q-9 64 -47 79q-4 2 -11 5t-10 4.5t-7.5 4t-6 5t-3 5.5t-1.5 7q0 12 21 12q36 0 83 3.5t88.5 9t77.5 10.5t59 9l22 3q12 0 12 -10q-14 -82 -14 -229v-297
q0 -125 16 -168t74 -64z" />
    <glyph glyph-name="udieresis" unicode="&#xfc;" horiz-adv-x="1161" 
d="M393 1210q55 0 88 -30.5t33 -81.5t-33.5 -82t-87.5 -31t-86.5 31t-32.5 82t32.5 81.5t86.5 30.5zM754 985q-52 0 -86.5 31.5t-34.5 81.5q0 51 33.5 81.5t87.5 30.5t87 -30.5t33 -81.5t-33 -82t-87 -31zM1094 51q28 -8 26 -22q-1 -12 -20 -13q-39 -1 -84 -5.5t-81 -10.5
t-66 -11.5t-47.5 -9.5t-18.5 -4q-17 0 -23 21q-13 43 -16 217h-2q-53 -244 -303 -244q-153 0 -230 78.5t-77 251.5v276q0 88 -12.5 119.5t-53.5 48.5q-37 13 -37 29q0 12 21 12q25 0 56.5 2t61.5 5t60.5 7t56.5 7.5t46 6.5t32 5l12 2q19 0 19 -20q-13 -58 -13 -228v-303
q0 -225 148 -225q87 0 143 85.5t60 227.5q0 227 -11 306q-9 64 -47 79q-4 2 -11 5t-10 4.5t-7.5 4t-6 5t-3 5.5t-1.5 7q0 12 21 12q36 0 83 3.5t88.5 9t77.5 10.5t59 9l22 3q12 0 12 -10q-14 -82 -14 -229v-297q0 -125 16 -168t74 -64z" />
    <glyph glyph-name="yacute" unicode="&#xfd;" horiz-adv-x="1030" 
d="M356 926q-10 0 -10 8q-3 3 6 12q222 235 266 275q63 60 105 63q31 2 53 -16.5t23 -50.5q1 -26 -17 -48t-65 -51q-183 -117 -350 -188q-7 0 -11 -4zM180 -217q32 0 82 -33q53 -35 84 -35q42 0 88 76q49 76 49 137q0 142 -301 701q-32 62 -57 89t-66 46q-6 3 -13.5 6.5
t-11.5 5.5l-9 4.5t-7 4.5l-4 4t-3 4.5t-1 5.5q0 14 19 14l82 -6q71 -8 139 -8q44 0 133 6q88 6 92 6q17 0 17 -13q0 -16 -29 -23l-2 -1q-41 -12 -41 -61q0 -39 80 -234q89 -206 116 -256q7 -10 9 -10q7 0 10 12l57 137q50 112 82 209q33 88 33 140q0 30 -19.5 44t-72.5 21
q-33 9 -33 21q0 14 18 14q2 0 60 -6t94 -6q42 0 100 6l60 6q18 0 18 -14q0 -16 -20 -19q-75 -13 -115 -52t-78 -136l-284 -678q-73 -174 -145 -260t-165 -86q-62 0 -100.5 30.5t-38.5 84.5q0 48 27 75t67 27z" />
    <glyph glyph-name="thorn" unicode="&#xfe;" horiz-adv-x="1159" 
d="M719 827q156 0 264 -114q107 -113 107 -303q0 -197 -111 -320q-112 -121 -283 -121q-212 0 -276 168v-340q0 -147 96 -182q43 -14 41 -30q-1 -9 -14 -9q-19 0 -103 8q-92 6 -145 6q-22 0 -54 -1.5t-61 -3.5t-55 -4t-43 -3l-16 -2q-15 0 -14 10q1 14 36 31q50 24 66 79
t16 187l-2 887q0 220 -16 289q-15 66 -84 100q-26 13 -33.5 19t-7.5 14q0 14 20 14q32 0 69.5 3.5t72.5 9t69.5 12t63 13t50.5 12t35 8.5l13 4q14 0 14 -11l-1 -17q-1 -18 -3.5 -59.5t-5.5 -90.5q-8 -145 -8 -256l2 -201q77 194 301 194zM819 410q0 195 -46 278.5t-136 83.5
q-98 0 -156.5 -93.5t-62.5 -260.5v-51q6 -175 63 -262t152 -87q63 0 103 36.5t61.5 123.5t21.5 232z" />
    <glyph glyph-name="ydieresis" unicode="&#xff;" horiz-adv-x="1030" 
d="M369 1210q55 0 87.5 -30.5t32.5 -81.5t-33 -82t-87 -31t-86.5 31t-32.5 82t32.5 81.5t86.5 30.5zM729 985q-52 0 -86.5 31.5t-34.5 81.5q0 51 33.5 81.5t87.5 30.5t87.5 -30.5t33.5 -81.5t-33.5 -82t-87.5 -31zM180 -217q32 0 82 -33q53 -35 84 -35q42 0 88 76
q49 76 49 137q0 142 -301 701q-32 62 -57 89t-66 46q-6 3 -13.5 6.5t-11.5 5.5l-9 4.5t-7 4.5l-4 4t-3 4.5t-1 5.5q0 14 19 14l82 -6q71 -8 139 -8q44 0 133 6q88 6 92 6q17 0 17 -13q0 -16 -29 -23l-2 -1q-41 -12 -41 -61q0 -39 80 -234q89 -206 116 -256q7 -10 9 -10
q7 0 10 12l57 137q50 112 82 209q33 88 33 140q0 30 -19.5 44t-72.5 21q-33 9 -33 21q0 14 18 14q2 0 60 -6t94 -6q42 0 100 6l60 6q18 0 18 -14q0 -16 -20 -19q-75 -13 -115 -52t-78 -136l-284 -678q-73 -174 -145 -260t-165 -86q-62 0 -100.5 30.5t-38.5 84.5q0 48 27 75
t67 27z" />
    <glyph glyph-name="Amacron" unicode="&#x100;" horiz-adv-x="1454" 
d="M459 1620q4 0 16.5 -0.5t36 -1.5t47.5 -2q57 -2 129 -2q84 0 150 2q28 1 55.5 2t41.5 1.5t19 0.5q31 0 31 -27q0 -63 -39 -63q-72 0 -127 2t-123 2t-131 -2q-61 -2 -114 -2q-33 0 -33 29q0 61 41 61zM836 -12q-21 0 -21 12q0 2 0.5 4t1 3t1.5 2.5t2 2.5t3 2t3.5 1.5
l4.5 1.5t5.5 2t6.5 2t7 2q90 27 90 90q0 45 -78 284q-11 26 -41 29q-70 4 -274 4q-183 0 -199 -2q-23 -3 -31 -20q-41 -121 -59 -187q-14 -49 -14 -84q0 -80 118 -114q31 -9 31 -21q0 -14 -18 -14q-1 0 -78 6t-119 6q-30 0 -86 -6q-55 -6 -57 -6q-21 0 -21 14q0 15 23 18
q67 16 100 60q33 41 88 182q226 609 318 883q14 38 14 49q0 15 -53 33q-41 9 -41 24q0 17 24 17q181 8 364 56l17 5q17 0 17 -16q0 -2 -9.5 -18t-9.5 -25q0 -12 13 -56q184 -534 368 -997q38 -94 63.5 -131.5t65.5 -54.5q58 -20 54 -35q-2 -8 -19 -8q-2 0 -113 6t-186 6
q-27 0 -65 -1t-73 -3t-66 -4t-51 -3t-21 -1zM561 471q205 0 248 6q18 3 18 17q0 2 -4 18l-225 641q-4 12 -8 12t-10 -12l-228 -643q0 -3 -3 -12.5t-3 -12.5q0 -7 14 -10q50 -4 201 -4z" />
    <glyph glyph-name="amacron" unicode="&#x101;" horiz-adv-x="1085" 
d="M252 1042q-33 0 -33 29q0 62 41 62q4 0 16.5 -1t35.5 -2t48 -2q57 -2 129 -2q84 0 150 2q28 1 55.5 2t42 2t19.5 1q30 0 30 -27q0 -64 -38 -64q-72 0 -127 2q-83 3 -123 3q-36 0 -131 -3q-61 -2 -115 -2zM1057 137q14 0 14 -16q0 -76 -44 -114t-146 -38q-107 0 -162 48
t-62 153q-37 -98 -123.5 -149.5t-201.5 -51.5q-120 0 -189 50t-69 143q0 150 174 209q84 29 175 44.5t232 26.5v117q0 126 -49 182t-149 56q-66 0 -107 -24t-41 -60q0 -13 19.5 -56t19.5 -61q0 -42 -32.5 -68t-86.5 -26q-56 0 -87 30t-31 84q0 91 100 151t283 60
q219 0 330.5 -90t111.5 -293v-315q0 -82 47 -82q53 0 53 72q3 18 21 18zM444 41q87 0 149 81.5t62 211.5v78l-6 -2q-214 -21 -276 -76q-49 -43 -49 -135q0 -158 120 -158z" />
    <glyph glyph-name="Abreve" unicode="&#x102;" horiz-adv-x="1454" 
d="M420 1686q0 16 14 16q13 0 23 -16q48 -97 245 -97q198 0 246 97q10 16 23 16q14 0 14 -16q0 -89 -74 -166q-73 -76 -209 -76q-135 0 -208 76q-74 77 -74 166zM1376 31q58 -20 54 -35q-2 -8 -19 -8q-2 0 -113 6t-186 6q-27 0 -65 -1t-73 -3t-66 -4t-51 -3t-21 -1
q-21 0 -21 12q0 2 0.5 4t1 3t1.5 2.5t2 2.5t3 2t3.5 1.5l4.5 1.5t5.5 2t6.5 2t7 2q90 27 90 90q0 45 -78 284q-11 26 -41 29q-70 4 -274 4q-183 0 -199 -2q-23 -3 -31 -20q-41 -121 -59 -187q-14 -49 -14 -84q0 -80 118 -114q31 -9 31 -21q0 -14 -18 -14q-1 0 -78 6t-119 6
q-30 0 -86 -6q-55 -6 -57 -6q-21 0 -21 14q0 15 23 18q67 16 100 60q33 41 88 182q226 609 318 883q14 38 14 49q0 15 -53 33q-41 9 -41 24q0 17 24 17q181 8 364 56l17 5q17 0 17 -16q0 -2 -9.5 -18t-9.5 -25q0 -12 13 -56q184 -534 368 -997q38 -94 63.5 -131.5
t65.5 -54.5zM809 477q18 3 18 17q0 2 -4 18l-225 641q-4 12 -8 12t-10 -12l-228 -643q0 -3 -3 -12.5t-3 -12.5q0 -7 14 -10q50 -4 201 -4q205 0 248 6z" />
    <glyph glyph-name="abreve" unicode="&#x103;" horiz-adv-x="1085" 
d="M219 1282q0 18 14 18q13 0 19 -18q20 -67 76 -99t174 -32t174 32t76 99q6 18 18 18q14 0 14 -16q0 -123 -75 -203t-207 -80t-207.5 79.5t-75.5 201.5zM1057 137q14 0 14 -16q0 -76 -44 -114t-146 -38q-107 0 -162 48t-62 153q-37 -98 -123.5 -149.5t-201.5 -51.5
q-120 0 -189 50t-69 143q0 150 174 209q84 29 175 44.5t232 26.5v117q0 126 -49 182t-149 56q-66 0 -107 -24t-41 -60q0 -13 19.5 -56t19.5 -61q0 -42 -32.5 -68t-86.5 -26q-56 0 -87 30t-31 84q0 91 100 151t283 60q219 0 330.5 -90t111.5 -293v-315q0 -82 47 -82
q53 0 53 72q3 18 21 18zM444 41q87 0 149 81.5t62 211.5v78l-6 -2q-214 -21 -276 -76q-49 -43 -49 -135q0 -158 120 -158z" />
    <glyph glyph-name="Aogonek" unicode="&#x104;" horiz-adv-x="1454" 
d="M1376 31q58 -20 54 -35q-2 -8 -19 -8q-2 0 -113 6t-186 6q-127 0 -274 -12l-27 -23q-109 -100 -109 -188q0 -116 117 -137q10 -2 55 2q11 1 20.5 2t13.5 1.5t5 0.5q11 0 11 -8q0 -6 -9 -15q-98 -76 -219 -76q-87 0 -134.5 40.5t-47.5 113.5q0 85 72 155.5t231 151.5
q7 7 33 15q90 27 90 90q0 45 -78 284q-11 26 -41 29q-70 4 -274 4q-183 0 -199 -2q-23 -3 -31 -20q-41 -121 -59 -187q-14 -49 -14 -84q0 -80 118 -114q31 -9 31 -21q0 -14 -18 -14q-1 0 -78 6t-119 6q-30 0 -86 -6q-55 -6 -57 -6q-21 0 -21 14q0 15 23 18q67 16 100 60
q33 41 88 182q226 609 318 883q14 38 14 49q0 15 -53 33q-41 9 -41 24q0 17 24 17q181 8 364 56l17 5q17 0 17 -16q0 -2 -9.5 -18t-9.5 -25q0 -12 13 -56q184 -534 368 -997q38 -94 63.5 -131.5t65.5 -54.5zM809 477q18 3 18 17q0 2 -4 18l-225 641q-4 12 -8 12t-10 -12
l-228 -643q0 -3 -3 -12.5t-3 -12.5q0 -7 14 -10q50 -4 201 -4q205 0 248 6z" />
    <glyph glyph-name="aogonek" unicode="&#x105;" horiz-adv-x="1085" 
d="M1065 -340q10 0 10 -8q0 -6 -8 -14q-98 -76 -219 -76q-87 0 -134.5 40.5t-47.5 112.5q0 135 204 254q-101 2 -153.5 50t-59.5 151q-37 -98 -123.5 -149.5t-201.5 -51.5q-120 0 -189 50t-69 143q0 150 174 209q84 29 175 44.5t232 26.5v117q0 126 -49 182t-149 56
q-66 0 -107 -24t-41 -60q0 -13 19.5 -56t19.5 -61q0 -42 -32.5 -68t-86.5 -26q-56 0 -87 30t-31 84q0 91 100 151t283 60q219 0 330.5 -90t111.5 -293v-315q0 -82 47 -82q53 0 53 72q3 18 21 18q14 0 14 -16q0 -120 -113 -144q-104 -98 -104 -186q0 -116 117 -137
q10 -2 55 2q11 1 20.5 2t13.5 1.5t5 0.5zM444 41q87 0 149 81.5t62 211.5v78l-6 -2q-214 -21 -276 -76q-49 -43 -49 -135q0 -158 120 -158z" />
    <glyph glyph-name="Cacute" unicode="&#x106;" horiz-adv-x="1386" 
d="M553 1436q-8 0 -8 10q0 7 8 12q243 161 340 221q83 50 123 50q35 0 55.5 -20.5t20.5 -53.5q0 -35 -22 -57t-79 -42q-245 -81 -426 -118h-8zM1284 520q16 0 16 -14l-10 -203q-6 -158 -6 -321q0 -12 -12 -14q-16 -3 -21 21q-2 7 -2 15q-6 72 -63 72q-26 0 -162 -53
q-139 -54 -256 -54q-297 0 -487 187q-191 188 -191 487t197 487q198 189 491 189q118 0 240 -49q124 -47 133 -47q39 0 45 61q6 35 24 35q14 -2 15 -19q0 -100 12 -235q17 -218 38 -303l1 -2q0 -15 -14 -15q-18 0 -21 19l-22 82q-60 219 -170 331.5t-264 112.5
q-379 0 -379 -647q0 -150 19 -263.5t51.5 -185t80.5 -116.5t100.5 -62.5t116.5 -17.5q165 0 287.5 97t163.5 282l29 123q3 20 20 20z" />
    <glyph glyph-name="cacute" unicode="&#x107;" horiz-adv-x="976" 
d="M334 926q-10 0 -10 8q-3 3 6 12q222 235 266 275q63 60 104 63q31 2 53 -16.5t23 -50.5q1 -26 -17 -48t-65 -51q-183 -117 -350 -188q-6 0 -10 -4zM915 260q13 0 13 -12v-4q-56 -275 -402 -275q-201 0 -327 117q-127 118 -127 303q0 203 135 320q136 118 354 118
q95 0 172 -26q22 -7 43.5 -13.5t29.5 -9t9 -2.5q29 0 41 43q7 17 18 17q15 0 15 -19q0 -49 2.5 -99.5t6.5 -89t8 -68.5t6.5 -46.5t2.5 -15.5q0 -16 -13 -17q-15 0 -21 21q-38 152 -104.5 222.5t-170.5 70.5q-110 0 -181 -93t-71 -274q0 -186 72 -284.5t197 -98.5
q103 0 175 51.5t101 145.5q6 18 16 18z" />
    <glyph glyph-name="Cdotaccent" unicode="&#x10a;" horiz-adv-x="1386" 
d="M797 1440q-55 0 -89 31.5t-34 84.5q0 51 34.5 84t88.5 33q57 0 91 -31.5t34 -85.5t-34 -85t-91 -31zM1284 520q16 0 16 -14l-10 -203q-6 -158 -6 -321q0 -12 -12 -14q-16 -3 -21 21q-2 7 -2 15q-6 72 -63 72q-26 0 -162 -53q-139 -54 -256 -54q-297 0 -487 187
q-191 188 -191 487t197 487q198 189 491 189q118 0 240 -49q124 -47 133 -47q39 0 45 61q6 35 24 35q14 -2 15 -19q0 -100 12 -235q17 -218 38 -303l1 -2q0 -15 -14 -15q-18 0 -21 19l-22 82q-60 219 -170 331.5t-264 112.5q-379 0 -379 -647q0 -150 19 -263.5t51.5 -185
t80.5 -116.5t100.5 -62.5t116.5 -17.5q165 0 287.5 97t163.5 282l29 123q3 20 20 20z" />
    <glyph glyph-name="cdotaccent" unicode="&#x10b;" horiz-adv-x="976" 
d="M526 971q-64 0 -103.5 37t-39.5 98q0 59 40.5 96t102.5 37q66 0 106 -36.5t40 -96.5q0 -61 -40 -98t-106 -37zM915 260q13 0 13 -12v-4q-56 -275 -402 -275q-201 0 -327 117q-127 118 -127 303q0 203 135 320q136 118 354 118q95 0 172 -26q22 -7 43.5 -13.5t29.5 -9
t9 -2.5q29 0 41 43q7 17 18 17q15 0 15 -19q0 -49 2.5 -99.5t6.5 -89t8 -68.5t6.5 -46.5t2.5 -15.5q0 -16 -13 -17q-15 0 -21 21q-38 152 -104.5 222.5t-170.5 70.5q-110 0 -181 -93t-71 -274q0 -186 72 -284.5t197 -98.5q103 0 175 51.5t101 145.5q6 18 16 18z" />
    <glyph glyph-name="Ccaron" unicode="&#x10c;" horiz-adv-x="1386" 
d="M508 1724q12 0 50 -19t184 -96q11 -6 17.5 -9.5t16.5 -8.5t19 -10h4q63 31 117 59t79.5 42t46 25t28.5 14t15 3q15 0 15 -14q0 -23 -191 -211q-37 -37 -51 -49q-29 -23 -61 -23q-23 0 -42.5 9.5t-31.5 20.5t-43 42q-186 186 -186 211q0 14 14 14zM1284 520q16 0 16 -14
l-10 -203q-6 -158 -6 -321q0 -12 -12 -14q-16 -3 -21 21q-2 7 -2 15q-6 72 -63 72q-26 0 -162 -53q-139 -54 -256 -54q-297 0 -487 187q-191 188 -191 487t197 487q198 189 491 189q118 0 240 -49q124 -47 133 -47q39 0 45 61q6 35 24 35q14 -2 15 -19q0 -100 12 -235
q17 -218 38 -303l1 -2q0 -15 -14 -15q-18 0 -21 19l-22 82q-60 219 -170 331.5t-264 112.5q-379 0 -379 -647q0 -150 19 -263.5t51.5 -185t80.5 -116.5t100.5 -62.5t116.5 -17.5q165 0 287.5 97t163.5 282l29 123q3 20 20 20z" />
    <glyph glyph-name="ccaron" unicode="&#x10d;" horiz-adv-x="976" 
d="M240 1262q5 0 10.5 -2t16 -7.5t22 -13.5t34.5 -23t47.5 -31.5t66.5 -44.5t87 -57h8l115 76q114 77 131 86q31 17 39 17q14 0 14 -15t-114 -147q-49 -57 -80 -94q-44 -54 -108 -53.5t-111 55.5q-170 197 -183 217q-10 14 -10 22q0 15 15 15zM915 260q13 0 13 -12v-4
q-56 -275 -402 -275q-201 0 -327 117q-127 118 -127 303q0 203 135 320q136 118 354 118q95 0 172 -26q22 -7 43.5 -13.5t29.5 -9t9 -2.5q29 0 41 43q7 17 18 17q15 0 15 -19q0 -49 2.5 -99.5t6.5 -89t8 -68.5t6.5 -46.5t2.5 -15.5q0 -16 -13 -17q-15 0 -21 21
q-38 152 -104.5 222.5t-170.5 70.5q-110 0 -181 -93t-71 -274q0 -186 72 -284.5t197 -98.5q103 0 175 51.5t101 145.5q6 18 16 18z" />
    <glyph glyph-name="Dcaron" unicode="&#x10e;" horiz-adv-x="1570" 
d="M756 1427q-23 0 -42.5 9.5t-31.5 20.5t-43 42q-186 186 -186 211q0 14 14 14q12 0 50 -19t184 -96q11 -6 17.5 -9.5t16.5 -8.5t19 -10h4q63 31 117 59t79.5 42t46 25t28.5 14t15 3q15 0 15 -14q0 -23 -191 -211q-37 -37 -51 -49q-29 -23 -61 -23zM711 1309
q343 0 555 -185q213 -186 213 -479q0 -294 -213 -483q-212 -185 -555 -185q-6 0 -24 1.5t-55.5 4.5t-70.5 5q-140 10 -196 10q-57 0 -152 -6l-94 -4q-15 0 -15 12q0 11 27 20l16 9q49 21 58 112q10 105 10 508q0 471 -18 545q-12 50 -52 68q-38 20 -41 28q0 10 15 10l94 -6
q122 -4 152 -4q77 0 194 8q36 2 73.5 5t55.5 4.5t23 1.5zM725 6q428 0 428 639q0 331 -109 483t-319 152q-168 0 -195 -82q-16 -56 -16 -549q0 -511 18 -561q27 -82 193 -82z" />
    <glyph glyph-name="dcaron" unicode="&#x10f;" horiz-adv-x="1318" 
d="M1092 59q26 -9 26 -20q0 -14 -20 -14q-29 -1 -62.5 -3.5t-65 -6.5t-62.5 -8.5t-56.5 -9t-45 -8t-30.5 -5.5l-12 -2q-14 0 -14 12q0 1 2.5 29.5t6 71.5t5.5 75h-4q-71 -201 -275 -201q-172 0 -292 117q-121 121 -121 301q0 197 121 318q119 122 292 122q182 0 252 -131h2
v164q-3 202 -16 252q-13 62 -57 82q-48 22 -48 33q0 14 21 14q52 1 107 10t97.5 21.5t76.5 24t54 19.5l19 9q13 0 13 -12l-5 -35q-10 -82 -10 -332v-663q0 -119 19 -162q21 -41 82 -62zM1204 1319q61 0 96 -42t35 -116q0 -66 -28.5 -118.5t-67.5 -79.5t-71.5 -40.5
t-49.5 -13.5q-18 0 -18 17q0 12 20 18q68 18 116 69.5t48 112.5q0 29 -16 29q-1 0 -29 -20.5t-49 -20.5q-42 0 -70 27t-28 71q0 47 31.5 77t80.5 30zM754 387q3 397 -219 397q-189 0 -195 -397q6 -369 190 -369q100 0 161.5 97t62.5 272z" />
    <glyph glyph-name="Dcroat" unicode="&#x110;" horiz-adv-x="1576" 
d="M719 1309q343 0 555 -185q213 -186 213 -479q0 -294 -213 -483q-212 -185 -555 -185q-6 0 -24 1.5t-56 4.5t-72 5q-140 10 -196 10q-24 0 -150 -4q-91 -6 -94 -6q-14 0 -14 12q0 11 26 20l17 9q48 22 57 108q10 98 10 473q-27 -2 -94 -2q-31 0 -31 39q0 45 39 45
q2 0 36 -1t50 -1q0 368 -12 457q-9 93 -57 115q-38 20 -41 28q0 10 14 10l92 -6q122 -4 152 -4q79 0 196 8q36 2 73.5 5t55.5 4.5t23 1.5zM731 6q430 0 430 639q0 635 -430 635q-165 0 -192 -82q-19 -59 -19 -512q68 0 121 2q22 1 46.5 2t38 1.5t19.5 0.5q35 0 35 -37
q0 -20 -10.5 -34t-26.5 -13q-183 7 -223 8q0 -476 21 -528q27 -82 190 -82z" />
    <glyph glyph-name="dslash" unicode="&#x111;" horiz-adv-x="1161" 
d="M1092 59q26 -9 26 -20q0 -14 -20 -14q-29 -1 -62.5 -3.5t-65 -6.5t-62.5 -8.5t-56.5 -9t-45 -8t-30.5 -5.5l-12 -2q-14 0 -14 12q0 1 2.5 29.5t6 71.5t5.5 75h-4q-71 -201 -275 -201q-172 0 -292 117q-121 121 -121 301q0 197 121 318q119 122 292 122q182 0 252 -131h2
v164q0 85 -2 105h-207q-22 0 -22 24q0 23 22 23h205q-4 94 -18.5 129t-50.5 53q-48 22 -48 33q0 14 21 14q52 1 107 10t97.5 21.5t76.5 24t54 19.5l19 9q13 0 13 -12v-3q-1 -4 -2 -11t-2 -18t-2.5 -26t-2.5 -33t-2 -41.5t-2 -48.5t-1.5 -56t-0.5 -64h84q29 0 29 -23
q0 -24 -29 -24h-84v-19v-663q0 -119 19 -162q21 -41 82 -62zM754 387q3 397 -219 397q-189 0 -195 -397q6 -369 190 -369q100 0 161.5 97t62.5 272z" />
    <glyph glyph-name="Emacron" unicode="&#x112;" horiz-adv-x="1337" 
d="M449 1528q-33 0 -33 28q0 62 41 62q4 0 16.5 -0.5t36 -1.5t47.5 -2q57 -2 129 -2q84 0 150 2q28 1 55.5 2t41.5 1.5t19 0.5q31 0 31 -27q0 -63 -39 -63q-72 0 -127 2t-123 2t-131 -2q-61 -2 -114 -2zM1202 104q0 -16 4.5 -31.5t11 -27t12.5 -20.5t10 -14l5 -5
q0 -12 -14 -12q-1 0 -36.5 0.5t-115 1.5t-170.5 2q-207 2 -465 2q-51 0 -102.5 -0.5t-88.5 -1.5t-66.5 -2t-46.5 -1.5t-19 -0.5q-17 0 -17 12t27 21l14 6q48 18 62 63q22 71 22 484v65q0 468 -20 541q-12 50 -57 71q-4 0 -7 3q-43 18 -42 32q3 7 18 8q2 0 22.5 -1t54 -2.5
t72.5 -3t84.5 -2.5t83.5 -1q67 0 473 4q307 6 310 6q14 0 14 -12l-5 -5q-4 -5 -10 -13.5t-12.5 -19.5t-11 -26.5t-4.5 -31.5q0 -46 9 -120.5t17 -125.5l9 -51q0 -16 -13 -17q-15 -1 -21 23q-1 1 -1 2q-72 226 -182 297q-55 36 -111.5 49t-144.5 13q-156 0 -185 -39
q-21 -24 -30 -119q-8 -80 -11 -365q0 -35 24 -46t99 -11q160 0 211 78q29 51 51 117q4 11 11.5 15t13.5 0t6 -13l-1 -13q-1 -12 -3 -33.5t-4 -48t-3 -59t-1 -61.5q0 -34 1 -67.5t3 -58t4 -44t3 -30t1 -11.5q0 -15 -12 -15q-14 0 -17 17q-40 111 -88 151q-47 41 -176 41
q-78 0 -100.5 -10t-22.5 -45q3 -478 45 -526q30 -37 170 -37q203 -3 308 96q110 101 151 373q3 28 23 28q12 0 12 -16l-20 -169q-15 -148 -15 -237z" />
    <glyph glyph-name="emacron" unicode="&#x113;" horiz-adv-x="1015" 
d="M283 1042q-33 0 -33 29q0 62 41 62q4 0 16.5 -1t35.5 -2t48 -2q57 -2 129 -2q84 0 150 2q28 1 55 2t41.5 2t19.5 1q31 0 31 -27q0 -64 -39 -64q-72 0 -127 2q-83 3 -123 3q-36 0 -131 -3q-61 -2 -114 -2zM938 246q14 0 14 -13q0 -6 -6 -24q-36 -106 -143.5 -173
t-253.5 -67q-216 0 -348 123q-129 123 -129 309q0 189 131 308q130 118 340 118q177 0 293 -90q114 -89 114 -227q0 -78 -67 -78l-543 2v-14q0 -381 274 -381q110 0 193 53t115 137q10 17 16 17zM541 799q-189 0 -201 -326l342 4q25 0 30 9.5t5 52.5q0 260 -176 260z" />
    <glyph glyph-name="Edotaccent" unicode="&#x116;" horiz-adv-x="1337" 
d="M700 1440q-55 0 -88.5 31.5t-33.5 84.5q0 51 34 84t88 33q57 0 91 -31.5t34 -85.5t-34 -85t-91 -31zM1202 104q0 -16 4.5 -31.5t11 -27t12.5 -20.5t10 -14l5 -5q0 -12 -14 -12q-1 0 -36.5 0.5t-115 1.5t-170.5 2q-207 2 -465 2q-51 0 -102.5 -0.5t-88.5 -1.5t-66.5 -2
t-46.5 -1.5t-19 -0.5q-17 0 -17 12t27 21l14 6q48 18 62 63q22 71 22 484v65q0 468 -20 541q-12 50 -57 71q-4 0 -7 3q-43 18 -42 32q3 7 18 8q2 0 22.5 -1t54 -2.5t72.5 -3t84.5 -2.5t83.5 -1q67 0 473 4q307 6 310 6q14 0 14 -12l-5 -5q-4 -5 -10 -13.5t-12.5 -19.5
t-11 -26.5t-4.5 -31.5q0 -46 9 -120.5t17 -125.5l9 -51q0 -16 -13 -17q-15 -1 -21 23q-1 1 -1 2q-72 226 -182 297q-55 36 -111.5 49t-144.5 13q-156 0 -185 -39q-21 -24 -30 -119q-8 -80 -11 -365q0 -35 24 -46t99 -11q160 0 211 78q29 51 51 117q4 11 11.5 15t13.5 0
t6 -13l-1 -13q-1 -12 -3 -33.5t-4 -48t-3 -59t-1 -61.5q0 -34 1 -67.5t3 -58t4 -44t3 -30t1 -11.5q0 -15 -12 -15q-14 0 -17 17q-40 111 -88 151q-47 41 -176 41q-78 0 -100.5 -10t-22.5 -45q3 -478 45 -526q30 -37 170 -37q203 -3 308 96q110 101 151 373q3 28 23 28
q12 0 12 -16l-20 -169q-15 -148 -15 -237z" />
    <glyph glyph-name="edotaccent" unicode="&#x117;" horiz-adv-x="1015" 
d="M532 971q-64 0 -103.5 37t-39.5 98q0 59 40.5 96t102.5 37q66 0 106 -36.5t40 -96.5q0 -61 -40 -98t-106 -37zM938 246q14 0 14 -13q0 -6 -6 -24q-36 -106 -143.5 -173t-253.5 -67q-216 0 -348 123q-129 123 -129 309q0 189 131 308q130 118 340 118q177 0 293 -90
q114 -89 114 -227q0 -78 -67 -78l-543 2v-14q0 -381 274 -381q110 0 193 53t115 137q10 17 16 17zM541 799q-189 0 -201 -326l342 4q25 0 30 9.5t5 52.5q0 260 -176 260z" />
    <glyph glyph-name="Eogonek" unicode="&#x118;" horiz-adv-x="1337" 
d="M1290 -373q10 0 10 -8q0 -6 -8 -14q-98 -76 -219 -76q-87 0 -134.5 40.5t-47.5 113.5q0 85 72.5 155.5t236.5 155.5q-375 6 -756 6q-51 0 -102.5 -0.5t-88.5 -1.5t-66.5 -2t-46.5 -1.5t-19 -0.5q-17 0 -17 12t27 21l14 6q48 18 62 63q22 71 22 484v65q0 468 -20 541
q-12 50 -57 71q-4 0 -7 3q-43 18 -42 32q3 7 18 8q2 0 22.5 -1t54 -2.5t72.5 -3t84.5 -2.5t83.5 -1q67 0 473 4q307 6 310 6q14 0 14 -12l-5 -5q-4 -5 -10 -13.5t-12.5 -19.5t-11 -26.5t-4.5 -31.5q0 -46 9 -120.5t17 -125.5l9 -51q0 -16 -13 -17q-15 -1 -21 23q-1 1 -1 2
q-72 226 -182 297q-55 36 -111.5 49t-144.5 13q-156 0 -185 -39q-21 -24 -30 -119q-8 -80 -11 -365q0 -35 24 -46t99 -11q160 0 211 78q29 51 51 117q4 11 11.5 15t13.5 0t6 -13l-1 -13q-1 -12 -3 -33.5t-4 -48t-3 -59t-1 -61.5q0 -34 1 -67.5t3 -58t4 -44t3 -30t1 -11.5
q0 -15 -12 -15q-14 0 -17 17q-40 111 -88 151q-47 41 -176 41q-78 0 -100.5 -10t-22.5 -45q3 -478 45 -526q30 -37 170 -37q203 -3 308 96q110 101 151 373q3 28 23 28q12 0 12 -16l-20 -169q-15 -148 -15 -237q0 -16 4.5 -31.5t11 -27t12.5 -20.5t10 -14l5 -5q0 -6 -4 -10
h2l-55 -49q-109 -100 -109 -189q0 -116 117 -137q10 -2 55 2q11 1 20.5 2t13.5 1.5t5 0.5z" />
    <glyph glyph-name="eogonek" unicode="&#x119;" horiz-adv-x="1015" 
d="M946 209q-26 -81 -106 -148l-56 -49q-108 -99 -108 -188q0 -116 117 -137q10 -2 55 2q11 1 20.5 2t13.5 1.5t5 0.5q10 0 10 -8q0 -7 -8 -15q-98 -76 -219 -76q-87 0 -135 41t-48 113q0 122 168 232q-68 -11 -106 -11q-216 0 -348 123q-129 123 -129 309q0 189 131 308
q130 118 340 118q177 0 293 -90q114 -89 114 -227q0 -78 -67 -78l-543 2v-14q0 -381 274 -381q110 0 193 53t115 137q10 17 16 17q14 0 14 -13q0 -6 -6 -24zM541 799q-189 0 -201 -326l342 4q25 0 30 9.5t5 52.5q0 260 -176 260z" />
    <glyph glyph-name="Ecaron" unicode="&#x11a;" horiz-adv-x="1337" 
d="M700 1427q-23 0 -42.5 10t-30 19.5t-43.5 42.5q-187 187 -187 211q0 14 15 14q11 0 49.5 -19t159.5 -83q48 -26 77 -41h4q63 31 117.5 59t80 42t45.5 25t28.5 14t15.5 3q15 0 15 -14q0 -23 -191 -211q-37 -37 -51 -49q-29 -23 -62 -23zM1202 104q0 -16 4.5 -31.5t11 -27
t12.5 -20.5t10 -14l5 -5q0 -12 -14 -12q-1 0 -36.5 0.5t-115 1.5t-170.5 2q-207 2 -465 2q-51 0 -102.5 -0.5t-88.5 -1.5t-66.5 -2t-46.5 -1.5t-19 -0.5q-17 0 -17 12t27 21l14 6q48 18 62 63q22 71 22 484v65q0 468 -20 541q-12 50 -57 71q-4 0 -7 3q-43 18 -42 32
q3 7 18 8q2 0 22.5 -1t54 -2.5t72.5 -3t84.5 -2.5t83.5 -1q67 0 473 4q307 6 310 6q14 0 14 -12l-5 -5q-4 -5 -10 -13.5t-12.5 -19.5t-11 -26.5t-4.5 -31.5q0 -46 9 -120.5t17 -125.5l9 -51q0 -16 -13 -17q-15 -1 -21 23q-1 1 -1 2q-72 226 -182 297q-55 36 -111.5 49
t-144.5 13q-156 0 -185 -39q-21 -24 -30 -119q-8 -80 -11 -365q0 -35 24 -46t99 -11q160 0 211 78q29 51 51 117q4 11 11.5 15t13.5 0t6 -13l-1 -13q-1 -12 -3 -33.5t-4 -48t-3 -59t-1 -61.5q0 -34 1 -67.5t3 -58t4 -44t3 -30t1 -11.5q0 -15 -12 -15q-14 0 -17 17
q-40 111 -88 151q-47 41 -176 41q-78 0 -100.5 -10t-22.5 -45q3 -478 45 -526q30 -37 170 -37q203 -3 308 96q110 101 151 373q3 28 23 28q12 0 12 -16l-20 -169q-15 -148 -15 -237z" />
    <glyph glyph-name="ecaron" unicode="&#x11b;" horiz-adv-x="1015" 
d="M424 1008q-170 197 -183 217q-10 14 -10 22q0 15 15 15q5 0 10.5 -2t16 -7.5t22 -13.5t34.5 -23t47.5 -31.5t66.5 -44.5t87 -57h9l114 76q114 77 131 86q31 17 39 17q15 0 15 -15q0 -14 -103 -133q-17 -20 -27 -32t-29 -34t-36 -42q-44 -54 -108 -53.5t-111 55.5z
M938 246q14 0 14 -13q0 -6 -6 -24q-36 -106 -143.5 -173t-253.5 -67q-216 0 -348 123q-129 123 -129 309q0 189 131 308q130 118 340 118q177 0 293 -90q114 -89 114 -227q0 -78 -67 -78l-543 2v-14q0 -381 274 -381q110 0 193 53t115 137q10 17 16 17zM541 799
q-189 0 -201 -326l342 4q25 0 30 9.5t5 52.5q0 260 -176 260z" />
    <glyph glyph-name="Gbreve" unicode="&#x11e;" horiz-adv-x="1433" 
d="M518 1774q0 18 14 18q13 0 19 -18q20 -67 76 -99.5t174 -32.5t174 32.5t76 99.5q6 18 18 18q14 0 14 -16q0 -123 -75 -203t-207 -80t-207.5 79.5t-75.5 201.5zM1409 508q14 0 14 -10q0 -6 -9.5 -11.5t-27 -12t-26.5 -11.5q-34 -21 -43 -64q-8 -39 -8 -204v-195
q0 -31 -17 -31q-10 0 -16 25q-12 92 -68 92q-26 0 -91 -28t-155.5 -56.5t-177.5 -28.5q-305 0 -499 185q-195 189 -195 477q0 299 205 489q205 193 510 193q82 0 165 -22.5t138 -45t68 -22.5q24 0 35 14.5t16 50.5q3 37 22 37q17 0 17 -22q0 -49 1.5 -97t3.5 -87.5t5 -76
t6.5 -65t6.5 -53.5t6 -42.5t5 -29.5t3.5 -17.5t1.5 -4.5q0 -15 -17 -15q-12 0 -18 19q-98 246 -209 348q-109 100 -260 100q-386 0 -383 -651q0 -637 373 -637q112 0 175.5 53t63.5 150v94q0 102 -12 129q-9 27 -60 49q-22 7 -28 12t-6 13q0 12 14 12l84 -6q73 -8 135 -8
q39 0 100 3t107 6z" />
    <glyph glyph-name="gbreve" unicode="&#x11f;" horiz-adv-x="1001" 
d="M238 1223q0 14 14 14q10 0 16 -16q18 -59 65.5 -87t151.5 -28t153 28t67 87q6 16 16 16q12 0 12 -14q0 -109 -65 -178.5t-183 -69.5q-117 0 -182 70t-65 178zM627 66q184 0 270 -55t86 -171q0 -138 -122.5 -209t-348.5 -71q-446 0 -446 178q0 118 167 145
q-153 34 -153 166q0 169 270 199q-126 31 -198 105t-72 177q0 136 117 215q116 82 299 82q53 0 125 -10q19 103 81 160t136 57q59 0 93 -30t34 -80q0 -43 -29 -72t-72 -29q-74 0 -92 68q-16 47 -49 35q-37 -14 -58 -83l-8 -34q120 -31 188 -104t68 -175q0 -136 -118 -217
q-116 -82 -299 -82h-11q-241 0 -241 -92q0 -73 121 -73h262zM496 797q-171 0 -174 -267q3 -268 174 -268q173 0 176 268q-3 267 -176 267zM516 -412q324 0 324 166q0 121 -174 121h-299q-140 -12 -140 -131q0 -156 289 -156z" />
    <glyph glyph-name="Gdotaccent" unicode="&#x120;" horiz-adv-x="1433" 
d="M801 1440q-55 0 -89 31.5t-34 84.5q0 51 34.5 84t88.5 33q57 0 91 -31.5t34 -85.5t-34 -85t-91 -31zM1292 -31q-10 0 -16 25q-12 92 -68 92q-26 0 -91 -28t-155.5 -56.5t-177.5 -28.5q-305 0 -499 185q-195 189 -195 477q0 299 205 489q205 193 510 193q82 0 165 -22.5
t138 -45t68 -22.5q24 0 35 14.5t16 50.5q3 37 22 37q17 0 17 -22q0 -49 1.5 -97t3.5 -87.5t5 -76t6.5 -65t6.5 -53.5t6 -42.5t5 -29.5t3.5 -17.5t1.5 -4.5q0 -15 -17 -15q-12 0 -18 19q-98 246 -209 348q-109 100 -260 100q-386 0 -383 -651q0 -637 373 -637q112 0 175.5 53
t63.5 150v94q0 102 -12 129q-9 27 -60 49q-22 7 -28 12t-6 13q0 12 14 12l84 -6q73 -8 135 -8q39 0 100 3t107 6l45 3q14 0 14 -10q0 -6 -9.5 -11.5t-27 -12t-26.5 -11.5q-34 -21 -43 -64q-8 -39 -8 -204v-195q0 -31 -17 -31z" />
    <glyph glyph-name="gdotaccent" unicode="&#x121;" horiz-adv-x="1001" 
d="M461 1012q-58 0 -95.5 34.5t-37.5 90.5t36.5 90.5t96.5 34.5q61 0 98 -34.5t37 -90.5q0 -57 -37.5 -91t-97.5 -34zM627 66q184 0 270 -55t86 -171q0 -138 -122.5 -209t-348.5 -71q-446 0 -446 178q0 118 167 145q-153 34 -153 166q0 169 270 199q-126 31 -198 105
t-72 177q0 136 117 215q116 82 299 82q53 0 125 -10q19 103 81 160t136 57q59 0 93 -30t34 -80q0 -43 -29 -72t-72 -29q-74 0 -92 68q-16 47 -49 35q-37 -14 -58 -83l-8 -34q120 -31 188 -104t68 -175q0 -136 -118 -217q-116 -82 -299 -82h-11q-241 0 -241 -92
q0 -73 121 -73h262zM496 797q-171 0 -174 -267q3 -268 174 -268q173 0 176 268q-3 267 -176 267zM516 -412q324 0 324 166q0 121 -174 121h-299q-140 -12 -140 -131q0 -156 289 -156z" />
    <glyph glyph-name="Gcommaaccent" unicode="&#x122;" horiz-adv-x="1433" 
d="M1292 -31q-10 0 -16 25q-12 92 -68 92q-26 0 -91 -28t-155.5 -56.5t-177.5 -28.5q-305 0 -499 185q-195 189 -195 477q0 299 205 489q205 193 510 193q82 0 165 -22.5t138 -45t68 -22.5q24 0 35 14.5t16 50.5q3 37 22 37q17 0 17 -22q0 -49 1.5 -97t3.5 -87.5t5 -76
t6.5 -65t6.5 -53.5t6 -42.5t5 -29.5t3.5 -17.5t1.5 -4.5q0 -15 -17 -15q-12 0 -18 19q-98 246 -209 348q-109 100 -260 100q-386 0 -383 -651q0 -637 373 -637q112 0 175.5 53t63.5 150v94q0 102 -12 129q-9 27 -60 49q-22 7 -28 12t-6 13q0 12 14 12l84 -6q73 -8 135 -8
q39 0 100 3t107 6l45 3q14 0 14 -10q0 -6 -9.5 -11.5t-27 -12t-26.5 -11.5q-34 -21 -43 -64q-8 -39 -8 -204v-195q0 -31 -17 -31zM711 -506q-19 0 -19 17q0 12 19 18q68 18 115.5 69t47.5 113q0 29 -16 29l-28 -20q-27 -21 -50 -21q-42 0 -70 28t-28 72t33 74.5t80 30.5
q61 0 96 -42t35 -116q0 -66 -28.5 -118.5t-67.5 -79.5t-71 -40.5t-48 -13.5z" />
    <glyph glyph-name="gcommaaccent" unicode="&#x123;" horiz-adv-x="1001" 
d="M465 936q-61 0 -96 42t-35 116q0 66 28.5 118.5t67.5 79.5t71 40.5t48 13.5q18 0 18 -17q0 -12 -18 -18q-68 -18 -116 -70t-48 -113q0 -28 16 -28l27 20q28 21 51 21q42 0 70.5 -28.5t28.5 -72.5t-33 -74t-80 -30zM627 66q184 0 270 -55t86 -171q0 -138 -122.5 -209
t-348.5 -71q-446 0 -446 178q0 118 167 145q-153 34 -153 166q0 169 270 199q-126 31 -198 105t-72 177q0 136 117 215q116 82 299 82q53 0 125 -10q19 103 81 160t136 57q59 0 93 -30t34 -80q0 -43 -29 -72t-72 -29q-74 0 -92 68q-16 47 -49 35q-37 -14 -58 -83l-8 -34
q120 -31 188 -104t68 -175q0 -136 -118 -217q-116 -82 -299 -82h-11q-241 0 -241 -92q0 -73 121 -73h262zM496 797q-171 0 -174 -267q3 -268 174 -268q173 0 176 268q-3 267 -176 267zM516 -412q324 0 324 166q0 121 -174 121h-299q-140 -12 -140 -131q0 -156 289 -156z" />
    <glyph glyph-name="Hbar" unicode="&#x126;" horiz-adv-x="1691" 
d="M1569 983q17 0 17 -24.5t-17 -24.5h-127v-285q0 -469 16 -547q12 -59 58 -77q37 -14 36 -29q0 -10 -14 -10q-12 0 -96 8q-94 6 -150 6q-22 0 -55 -1.5t-65 -3.5t-60 -4t-46 -3.5t-19 -1.5q-15 0 -14 11q0 15 36 28q55 22 64 120q10 113 10 517v272h-598v-232
q8 -32 59 -38q61 -7 238 -7q195 0 252 11q47 9 47 57v-170q0 46 -47 55q-57 11 -252 11q-177 0 -238 -7q-50 -6 -59 -39q0 -344 10 -442q12 -87 61 -108q37 -12 37 -27q0 -12 -14 -12l-94 6q-84 8 -150 8q-67 0 -151 -8l-97 -6q-14 0 -14 10q0 15 39 29q55 22 64 116
q10 105 10 508v285h-125q-17 0 -17 24.5t17 24.5h123q-3 167 -17 213q-15 52 -55 70q-41 14 -39 30q1 9 14 9l97 -7q84 -8 151 -8q66 0 150 8l94 7q14 0 14 -13q0 -14 -37 -26q-40 -18 -55 -68q-11 -45 -14 -215h594q-3 169 -17 215q-15 50 -55 68q-37 14 -36 29q0 10 14 10
q1 0 19 -1.5t46 -3.5t60 -4.5t65 -4t55 -1.5q56 0 150 6q94 9 96 9q15 0 14 -11q0 -14 -34 -27l-2 -1q-41 -18 -56 -70q-13 -42 -16 -213h125z" />
    <glyph glyph-name="hbar" unicode="&#x127;" horiz-adv-x="1220" 
d="M1128 27q29 -16 29 -27t-11 -12t-66 4q-16 1 -25 2q-74 6 -119 6q-48 0 -121 -6t-76 -6q-14 0 -14 11q1 15 31 28q36 22 45 55q10 42 10 147v357q0 182 -135 182q-101 0 -167.5 -105.5t-66.5 -283.5v-72q0 -191 15 -229q16 -36 59 -53q30 -15 33 -23q0 -14 -17 -14
q-8 0 -88 6t-129 6q-20 0 -49 -1t-56.5 -3t-52 -4t-39.5 -3l-16 -1q-11 0 -15 6t0.5 13.5t16.5 12.5q12 4 13 5q47 21 59 88q14 66 14 295v487v41h-163q-17 0 -17 24.5t17 24.5h163q-3 104 -18 145q-15 40 -68 70l-12 6q-2 1 -6.5 3t-6 3t-4.5 2.5t-3.5 2.5t-2 2.5t-2 3
t-1 3.5t-0.5 5q0 16 24 16q60 2 118.5 11t99.5 20.5t72.5 23t49.5 19.5t19 8q12 0 12 -12l-6 -29q-13 -84 -13 -235v-68h209q17 0 17 -24.5t-17 -24.5h-209v-342q73 233 301 233q166 0 243 -82.5t77 -259.5v-256q0 -109 10 -147q12 -34 55 -55z" />
    <glyph glyph-name="Itilde" unicode="&#x128;" horiz-adv-x="772" 
d="M109 1473q2 107 40 172t109 65q56 0 166 -49q102 -45 141 -45q62 0 74 74q3 22 20 22q19 0 19 -22q0 -91 -38.5 -154t-104.5 -63q-55 0 -156 43q-91 45 -141 45q-74 0 -95 -88q-3 -15 -11.5 -21t-16 0t-6.5 21zM141 -12q-15 0 -14 10q1 14 37 31q54 22 63 114
q11 116 11 506q0 385 -11 500q-9 95 -63 117q-37 12 -37 24q0 15 14 15q1 0 18 -1.5t44.5 -3.5t58.5 -4.5t65.5 -4t59.5 -1.5q73 0 154 8l92 7q14 0 14 -15q0 -10 -39 -24q-45 -17 -57 -84q-14 -71 -14 -533q0 -472 16 -547q12 -58 55 -73q40 -18 39 -33q-1 -8 -14 -8l-92 8
q-95 6 -154 6q-39 0 -98.5 -3.5t-103.5 -6.5z" />
    <glyph glyph-name="itilde" unicode="&#x129;" horiz-adv-x="649" 
d="M16 1026q2 107 40.5 172.5t109.5 65.5q54 0 166 -50q102 -45 141 -45q62 0 74 74q3 23 20 23q19 0 19 -23q0 -91 -39 -154t-105 -63q-54 0 -155 43q-91 45 -142 45q-73 0 -94 -88q-3 -15 -12 -21t-16.5 0t-6.5 21zM94 -12q-14 0 -14 12t31 27q59 21 71 67q15 46 15 191
v211q0 113 -17 166q-15 50 -74 71q-30 15 -30 27t22 12q52 2 100 6t83.5 9.5t66 12t51 12.5t35 11t22.5 8l7 3q14 0 14 -15q0 -3 -2.5 -13t-7 -24.5t-6.5 -25.5q-12 -52 -12 -246v-211q0 -149 18 -201q19 -54 86 -78q22 -9 22 -18q0 -14 -14 -14q-3 0 -94 6q-89 6 -143 6
t-142 -6q-85 -6 -88 -6z" />
    <glyph glyph-name="Imacron" unicode="&#x12a;" horiz-adv-x="772" 
d="M145 1618q4 0 16.5 -0.5t36.5 -1.5l48 -2q57 -2 129 -2q83 0 149 2q27 1 55 2t42.5 1.5t19.5 0.5q31 0 31 -27q0 -63 -39 -63q-72 0 -127 2t-123 2t-131 -2q-61 -2 -115 -2q-33 0 -33 28q0 62 41 62zM141 -12q-15 0 -14 10q1 14 37 31q54 22 63 114q11 116 11 506
q0 385 -11 500q-9 95 -63 117q-37 12 -37 24q0 15 14 15q1 0 18 -1.5t44.5 -3.5t58.5 -4.5t65.5 -4t59.5 -1.5q73 0 154 8l92 7q14 0 14 -15q0 -10 -39 -24q-45 -17 -57 -84q-14 -71 -14 -533q0 -472 16 -547q12 -58 55 -73q40 -18 39 -33q-1 -8 -14 -8l-92 8q-95 6 -154 6
q-39 0 -98.5 -3.5t-103.5 -6.5z" />
    <glyph glyph-name="imacron" unicode="&#x12b;" horiz-adv-x="649" 
d="M57 1133q4 0 17 -1t36 -2t48 -2q57 -2 129 -2q83 0 149 2q28 1 55.5 2t42 2t19.5 1q31 0 31 -27q0 -64 -39 -64q-72 0 -127 2q-82 3 -123 3q-37 0 -131 -3q-61 -2 -115 -2q-33 0 -33 29q0 62 41 62zM94 -12q-14 0 -14 12t31 27q59 21 71 67q15 46 15 191v211
q0 113 -17 166q-15 50 -74 71q-30 15 -30 27t22 12q52 2 100 6t83.5 9.5t66 12t51 12.5t35 11t22.5 8l7 3q14 0 14 -15q0 -3 -2.5 -13t-7 -24.5t-6.5 -25.5q-12 -52 -12 -246v-211q0 -149 18 -201q19 -54 86 -78q22 -9 22 -18q0 -14 -14 -14q-3 0 -94 6q-89 6 -143 6
t-142 -6q-85 -6 -88 -6z" />
    <glyph glyph-name="Iogonek" unicode="&#x12e;" horiz-adv-x="772" 
d="M608 29q40 -18 39 -33q-1 -8 -14 -8q-1 0 -36.5 3t-84 6t-82.5 3l-24 -20q-109 -100 -109 -189q0 -116 117 -137q10 -2 55 2q11 1 20.5 2t13.5 1.5t5 0.5q10 0 10 -8q0 -6 -8 -14q-98 -76 -219 -76q-87 0 -134.5 40.5t-47.5 112.5q0 78 63 145.5t197 141.5
q-38 0 -93 -3.5t-95 -6.5l-40 -4q-15 0 -14 10q1 14 37 31q54 22 63 114q11 116 11 506q0 385 -11 500q-9 95 -63 117q-37 12 -37 24q0 15 14 15q1 0 18 -1.5t44.5 -3.5t58.5 -4.5t65.5 -4t59.5 -1.5q73 0 154 8l92 7q14 0 14 -15q0 -10 -39 -24q-45 -17 -57 -84
q-14 -71 -14 -533q0 -472 16 -547q12 -58 55 -73z" />
    <glyph glyph-name="iogonek" unicode="&#x12f;" horiz-adv-x="628" 
d="M289 999q-70 0 -117 43t-47 111t46 111t118 43q75 0 120.5 -42.5t45.5 -111.5t-45.5 -111.5t-120.5 -42.5zM541 18q25 -6 24 -19q0 -11 -14 -11q-2 0 -29 2t-64.5 4t-64.5 2l-37 -33q-108 -99 -108 -188q0 -116 117 -137q10 -2 55 2q11 1 20.5 2t13.5 1.5t5 0.5
q10 0 10 -9q0 -6 -8 -14q-98 -76 -219 -76q-87 0 -135 41t-48 113q0 82 68.5 151.5t216.5 147.5h-33q-23 0 -141 -4q-86 -6 -88 -6q-14 0 -14 12q0 11 32 25q60 22 72 67q14 43 14 193v209q0 122 -17.5 169t-72.5 70q-33 14 -33 25q0 12 25 12q71 2 134 9t102.5 16t68.5 17
t43 13.5t15 5.5q16 0 16 -14q0 -3 -3 -13t-8 -24t-7 -24q-11 -68 -11 -248v-211q0 -146 19 -201q18 -54 84 -78z" />
    <glyph glyph-name="Idot" unicode="&#x130;" horiz-adv-x="772" 
d="M389 1440q-55 0 -89 31.5t-34 84.5q0 51 34.5 84t88.5 33q57 0 91 -31.5t34 -85.5t-34 -85t-91 -31zM141 -12q-15 0 -14 10q1 14 37 31q54 22 63 114q11 116 11 506q0 385 -11 500q-9 95 -63 117q-37 12 -37 24q0 15 14 15q1 0 18 -1.5t44.5 -3.5t58.5 -4.5t65.5 -4
t59.5 -1.5q73 0 154 8l92 7q14 0 14 -15q0 -10 -39 -24q-45 -17 -57 -84q-14 -71 -14 -533q0 -472 16 -547q12 -58 55 -73q40 -18 39 -33q-1 -8 -14 -8l-92 8q-95 6 -154 6q-39 0 -98.5 -3.5t-103.5 -6.5z" />
    <glyph glyph-name="dotlessi" unicode="&#x131;" horiz-adv-x="649" 
d="M94 -12q-14 0 -14 12t31 27q59 21 71 67q15 46 15 191v211q0 113 -17 166q-15 50 -74 71q-30 15 -30 27t22 12q52 2 100 6t83.5 9.5t66 12t51 12.5t35 11t22.5 8l7 3q14 0 14 -15q0 -3 -2.5 -13t-7 -24.5t-6.5 -25.5q-12 -52 -12 -246v-211q0 -149 18 -201q19 -54 86 -78
q22 -9 22 -18q0 -14 -14 -14q-3 0 -94 6q-89 6 -143 6t-142 -6q-85 -6 -88 -6z" />
    <glyph glyph-name="IJ" unicode="&#x132;" horiz-adv-x="1411" 
d="M672 -31q-187 0 -312 76q-122 76 -122 223q0 81 45 133t112 52q53 0 85 -27.5t32 -69.5q0 -41 -45 -92t-45 -104q0 -65 60.5 -110.5t164.5 -45.5q134 0 204.5 98.5t70.5 292.5v533q-3 198 -15 250q-13 55 -63 88q-31 16 -31 26q0 13 14 13q5 0 93 -9q91 -6 151 -6
q74 0 158 8l94 7q14 0 14 -13q0 -7 -6 -11t-31 -15q-52 -27 -67 -80q-11 -48 -14 -242v-405q0 -124 -29 -222.5t-78.5 -162.5t-120 -106.5t-149 -60.5t-170.5 -18zM162 610q-15 0 -14 10q1 14 36 31q55 16 64 64q12 53 12 250q0 191 -12 237q-9 46 -64 62q-37 15 -37 24
q0 12 15 12q2 0 96 -6q126 -4 150 -4q21 0 139 4l88 6q14 0 14 -9q0 -14 -35 -24q-1 -1 -2 -1q-40 -15 -49 -62q-6 -46 -6 -239q0 -203 8 -250q9 -52 47 -66q37 -12 37 -26q0 -13 -14 -13l-88 6q-103 7 -139 7q-40 0 -150 -7q-94 -6 -96 -6z" />
    <glyph glyph-name="ij" unicode="&#x133;" horiz-adv-x="1206" 
d="M920 1014q-72 0 -118 42t-46 111t46 111.5t118 42.5q75 0 120 -42.5t45 -111.5t-45.5 -111t-119.5 -42zM289 999q-70 0 -117 43t-47 111t46 111t118 43q75 0 120.5 -42.5t45.5 -111.5t-45.5 -111.5t-120.5 -42.5zM82 -12q-14 0 -14 12q0 11 32 25q60 22 72 67
q14 43 14 193v209q0 122 -17.5 169t-72.5 70q-33 14 -33 25q0 12 25 12q71 2 134 9t102.5 16t68.5 17t43 13.5t15 5.5q16 0 16 -14q0 -3 -3 -13t-8 -24t-7 -24q-11 -68 -11 -248v-211q0 -146 19 -201q18 -54 84 -78q25 -6 24 -19q0 -11 -14 -11q-3 0 -94 6q-118 4 -146 4
q-23 0 -141 -4q-86 -6 -88 -6zM752 -440q-81 0 -136 45.5t-55 111.5q-1 47 26 76t70 29q82 0 103 -98q27 -105 92 -105q36 0 57 25t21 69q0 28 -58 135q-55 104 -55 201v432q0 117 -19 165.5t-75 68.5q-36 20 -39 28q0 13 25 13q53 2 101.5 6t85 10t67.5 12.5t52 12.5t36 11
t23 8l7 3q17 0 17 -14q0 -3 -2.5 -11.5t-7 -24t-7.5 -28.5q-12 -64 -12 -245v-476q0 -253 -92 -356q-91 -104 -225 -104z" />
    <glyph glyph-name="Kcommaaccent" unicode="&#x136;" horiz-adv-x="1466" 
d="M1389 51q53 -41 53 -47q0 -14 -17 -14q-5 0 -84 6q-106 4 -120 4q-43 0 -199 -4q-117 -6 -119 -6q-14 0 -14 12q0 11 24 23q45 20 45 36q0 34 -79 189q-64 130 -187 344q-15 24 -28 24q-12 0 -48 -36l-100 -107q3 -283 12 -356q12 -71 60 -90q39 -18 36 -33q-1 -8 -14 -8
l-44 4q-44 3 -103 6.5t-96 3.5q-59 0 -154 -6l-94 -8q-15 0 -14 10q1 14 38 31q55 22 64 114q10 105 10 506q0 395 -10 500q-9 95 -64 117q-39 14 -39 24q0 15 15 15l45 -3q44 -4 104 -8t99 -4t98 4t102 8l43 3q15 0 15 -15q0 -12 -37 -24q-46 -18 -58 -84q-14 -71 -14 -533
v-135l369 391q162 174 162 271q0 56 -89 94q-18 6 -18 18q0 15 21 15q1 0 19 -1.5t46.5 -3.5t60.5 -3.5t67 -3t60 -1.5q42 0 107 6l65 7q14 0 14 -11q0 -14 -30 -21q-1 -1 -2 -1q-134 -30 -283 -193l-213 -225q370 -678 517 -801zM717 -96q61 0 96 -42t35 -116
q0 -66 -28.5 -118.5t-67.5 -79.5t-71 -40.5t-48 -13.5q-19 0 -19 17q0 12 19 18q68 18 116 69.5t48 112.5q0 29 -17 29l-28 -20q-27 -21 -50 -21q-42 0 -70 28t-28 72t33 74.5t80 30.5z" />
    <glyph glyph-name="kcommaaccent" unicode="&#x137;" horiz-adv-x="1175" 
d="M1087 45q13 -12 30 -21.5t25.5 -14.5t8.5 -11q0 -10 -16 -10q-1 0 -13.5 1t-33 3t-44.5 4t-51 3t-49 1q-48 0 -137 -6q-85 -6 -88 -6q-14 0 -14 12q0 2 22.5 20t22.5 31q0 31 -195 326q-23 39 -39 39q-6 0 -8 -2l-68 -54v-53q0 -153 11 -213q9 -48 65 -69q31 -9 31 -23
t-15 -14q-8 0 -90 6q-80 6 -129 6q-20 0 -49 -1t-56.5 -3t-52 -4t-39.5 -3l-16 -1q-14 0 -14 12q0 13 18 20q12 4 13 5q47 21 59 90q14 66 14 293v487q0 170 -14 219q-15 52 -72 86l-12 6q-2 1 -6.5 3t-6 3t-4.5 2.5t-3.5 2.5t-2 2.5t-2 3t-1 3.5t-0.5 5q0 16 24 16
q61 2 119 11.5t98.5 21t71.5 23t48.5 19t18.5 7.5q15 0 15 -12l-6 -29q-15 -97 -15 -235v-656q230 182 283 230q68 62 68 92q0 38 -56 59q-34 14 -32 27q1 8 14 8l69 -6q63 -8 105 -8q31 0 98 6q68 6 76 6q16 0 16 -12q0 -14 -59 -29q-54 -10 -107.5 -42t-152.5 -112
l-55 -43q246 -376 380 -528zM635 -96q61 0 96 -42t35 -116q0 -66 -28.5 -118.5t-67.5 -79.5t-71 -40.5t-48 -13.5q-19 0 -19 17q0 12 19 18q68 18 116 69.5t48 112.5q0 29 -17 29l-27 -20q-27 -21 -50 -21q-42 0 -70.5 28t-28.5 72t33 74.5t80 30.5z" />
    <glyph glyph-name="Lacute" unicode="&#x139;" horiz-adv-x="1249" 
d="M186 1436q-8 0 -8 10q0 7 8 12q243 161 340 221q83 50 123 50q35 0 55.5 -20.5t20.5 -53.5q0 -35 -21.5 -57t-78.5 -42q-245 -81 -426 -118h-9zM350 1290q82 0 166 8l94 7q15 0 15 -13q0 -10 -27 -22q-3 0 -5.5 -1t-6.5 -3.5t-8 -3.5q-42 -19 -54 -76q-16 -88 -16 -570
q0 -293 4 -411q6 -89 25 -121q35 -53 192 -53q169 0 270 94q104 96 150 352q6 27 20 27q13 0 13 -27q-39 -316 -39 -381q0 -29 11.5 -52t22.5 -34t11 -12q0 -9 -8.5 -11t-48.5 0h-14.5t-15 0.5t-18.5 0.5q-392 8 -413 8q-132 0 -459 -6q-53 -2 -92 -2q-15 0 -15 12
q0 7 39 27q44 23 52 77q16 85 16 512q0 422 -10 527q-9 95 -58 119q-39 20 -39 30q0 13 15 13q1 0 15.5 -1.5t38.5 -3.5t52.5 -4.5t62 -4t62.5 -1.5z" />
    <glyph glyph-name="lacute" unicode="&#x13a;" horiz-adv-x="626" 
d="M47 1436q-8 0 -8 10q0 7 8 12q243 161 340 221q83 50 123 50q35 0 55.5 -20.5t20.5 -53.5q0 -35 -22 -57t-79 -42q-245 -81 -426 -118h-8zM94 -12q-14 0 -14 10q1 14 31 31q54 26 67 94q15 65 15 280v461q0 176 -17 242q-14 56 -76 92q-27 12 -35 18t-8 15q0 13 25 16
q65 2 125.5 11.5t102 21t73.5 23t50 19t20 7.5q12 0 12 -12l-1 -3q-1 -4 -2 -11.5t-3 -18.5t-3.5 -27t-3.5 -34.5t-4 -42t-3 -49.5t-2 -58t-1 -65v-613q3 -200 17 -266q15 -66 76 -102q36 -16 31 -31q-3 -8 -17 -8q-1 0 -90 6q-85 6 -140 6q-21 0 -52 -1t-60 -3t-54.5 -4
t-42.5 -3z" />
    <glyph glyph-name="Lcommaaccent" unicode="&#x13b;" horiz-adv-x="1249" 
d="M350 1290q82 0 166 8l94 7q15 0 15 -13q0 -10 -27 -22q-3 0 -5.5 -1t-6.5 -3.5t-8 -3.5q-42 -19 -54 -76q-16 -88 -16 -570q0 -293 4 -411q6 -89 25 -121q35 -53 192 -53q169 0 270 94q104 96 150 352q6 27 20 27q13 0 13 -27q-39 -316 -39 -381q0 -29 11.5 -52t22.5 -34
t11 -12q0 -9 -8.5 -11t-48.5 0h-14.5t-15 0.5t-18.5 0.5q-392 8 -413 8q-132 0 -459 -6q-53 -2 -92 -2q-15 0 -15 12q0 7 39 27q44 23 52 77q16 85 16 512q0 422 -10 527q-9 95 -58 119q-39 20 -39 30q0 13 15 13q1 0 15.5 -1.5t38.5 -3.5t52.5 -4.5t62 -4t62.5 -1.5z
M563 -506q-18 0 -18 17q0 12 18 18q68 18 116 69.5t48 112.5q0 29 -16 29l-27 -20q-28 -21 -51 -21q-42 0 -70 28t-28 72t32.5 74.5t79.5 30.5q61 0 96 -42t35 -116q0 -66 -28.5 -118.5t-67.5 -79.5t-71 -40.5t-48 -13.5z" />
    <glyph glyph-name="lcommaaccent" unicode="&#x13c;" horiz-adv-x="626" 
d="M94 -12q-14 0 -14 10q1 14 31 31q54 26 67 94q15 65 15 280v461q0 176 -17 242q-14 56 -76 92q-27 12 -35 18t-8 15q0 13 25 16q65 2 125.5 11.5t102 21t73.5 23t50 19t20 7.5q12 0 12 -12l-1 -3q-1 -4 -2 -11.5t-3 -18.5t-3.5 -27t-3.5 -34.5t-4 -42t-3 -49.5t-2 -58
t-1 -65v-613q3 -200 17 -266q15 -66 76 -102q36 -16 31 -31q-3 -8 -17 -8q-1 0 -90 6q-85 6 -140 6q-21 0 -52 -1t-60 -3t-54.5 -4t-42.5 -3zM254 -506q-18 0 -18 17q0 12 18 18q68 18 116 69.5t48 112.5q0 29 -17 29l-27 -20q-27 -21 -50 -21q-42 0 -70.5 28t-28.5 72
t33 74.5t80 30.5q61 0 96 -42t35 -116q0 -66 -28.5 -118.5t-67.5 -79.5t-71 -40.5t-48 -13.5z" />
    <glyph glyph-name="Lcaron" unicode="&#x13d;" horiz-adv-x="1249" 
d="M780 907q-18 0 -18 17q0 13 20 16q68 19 116 71t48 113q0 29 -16 29q-1 0 -29 -21.5t-49 -21.5q-42 0 -70 28t-28 72q0 47 31 76t81 29q61 0 96 -41t35 -115q0 -66 -28.5 -118.5t-67.5 -79.5t-71.5 -40.5t-49.5 -13.5zM350 1290q82 0 166 8l94 7q15 0 15 -13
q0 -10 -27 -22q-3 0 -5.5 -1t-6.5 -3.5t-8 -3.5q-42 -19 -54 -76q-16 -88 -16 -570q0 -293 4 -411q6 -89 25 -121q35 -53 192 -53q169 0 270 94q104 96 150 352q6 27 20 27q13 0 13 -27q-39 -316 -39 -381q0 -29 11.5 -52t22.5 -34t11 -12q0 -9 -8.5 -11t-48.5 0h-14.5
t-15 0.5t-18.5 0.5q-392 8 -413 8q-132 0 -459 -6q-53 -2 -92 -2q-15 0 -15 12q0 7 39 27q44 23 52 77q16 85 16 512q0 422 -10 527q-9 95 -58 119q-39 20 -39 30q0 13 15 13q1 0 15.5 -1.5t38.5 -3.5t52.5 -4.5t62 -4t62.5 -1.5z" />
    <glyph glyph-name="lcaron" unicode="&#x13e;" horiz-adv-x="626" 
d="M94 -12q-14 0 -14 10q1 14 31 31q54 26 67 94q15 65 15 280v461q0 176 -17 242q-14 56 -76 92q-27 12 -35 18t-8 15q0 13 25 16q65 2 125.5 11.5t102 21t73.5 23t50 19t20 7.5q12 0 12 -12l-1 -3q-1 -4 -2 -11.5t-3 -18.5t-3.5 -27t-3.5 -34.5t-4 -42t-3 -49.5t-2 -58
t-1 -65v-613q3 -200 17 -266q15 -66 76 -102q36 -16 31 -31q-3 -8 -17 -8q-1 0 -90 6q-85 6 -140 6q-21 0 -52 -1t-60 -3t-54.5 -4t-42.5 -3zM594 903q-19 0 -19 17q0 15 19 18q68 19 116 71t48 113q0 29 -15 29l-28 -21q-28 -22 -51 -22q-39 0 -68 28.5t-29 71.5
q0 47 31.5 76t79.5 29q62 0 96.5 -40.5t34.5 -115.5q0 -85 -49 -149q-51 -64 -96 -84q-46 -21 -70 -21z" />
    <glyph glyph-name="Ldot" unicode="&#x13f;" horiz-adv-x="1249" 
d="M350 1290q82 0 166 8l94 7q15 0 15 -13q0 -10 -27 -22q-3 0 -5.5 -1t-6.5 -3.5t-8 -3.5q-42 -19 -54 -76q-16 -88 -16 -570q0 -293 4 -411q6 -89 25 -121q35 -53 192 -53q169 0 270 94q104 96 150 352q6 27 20 27q13 0 13 -27q-39 -316 -39 -381q0 -29 11.5 -52t22.5 -34
t11 -12q0 -9 -8.5 -11t-48.5 0h-14.5t-15 0.5t-18.5 0.5q-392 8 -413 8q-132 0 -459 -6q-53 -2 -92 -2q-15 0 -15 12q0 7 39 27q44 23 52 77q16 85 16 512q0 422 -10 527q-9 95 -58 119q-39 20 -39 30q0 13 15 13q1 0 15.5 -1.5t38.5 -3.5t52.5 -4.5t62 -4t62.5 -1.5z
M737 756q35 31 88.5 31t85.5 -31q35 -31 35 -82t-35 -82q-32 -31 -85.5 -31t-88.5 31q-32 31 -32 82t32 82z" />
    <glyph glyph-name="ldot" unicode="&#x140;" horiz-adv-x="716" 
d="M94 -12q-14 0 -14 10q1 14 31 31q54 26 67 94q15 65 15 280v461q0 176 -17 242q-14 56 -76 92q-27 12 -35 18t-8 15q0 13 25 16q65 2 125.5 11.5t102 21t73.5 23t50 19t20 7.5q12 0 12 -12l-1 -3q-1 -4 -2 -11.5t-3 -18.5t-3.5 -27t-3.5 -34.5t-4 -42t-3 -49.5t-2 -58
t-1 -65v-613q3 -200 17 -266q15 -66 76 -102q36 -16 31 -31q-3 -8 -17 -8q-1 0 -90 6q-85 6 -140 6q-21 0 -52 -1t-60 -3t-54.5 -4t-42.5 -3zM561 748q35 31 88.5 31t85.5 -31q35 -31 35 -82t-35 -82q-32 -31 -85.5 -31t-88.5 31q-32 31 -32 82t32 82z" />
    <glyph glyph-name="Lslash" unicode="&#x141;" horiz-adv-x="1249" 
d="M1143 96q0 -29 11.5 -52t22.5 -34t11 -12q0 -9 -8.5 -11t-48.5 0h-14.5t-15 0.5t-18.5 0.5q-392 8 -413 8q-132 0 -459 -6q-53 -2 -92 -2q-15 0 -15 12q0 7 39 27q49 25 58 108q10 95 10 447l-117 -47q-4 0 -12 -3l-8 -4q-19 0 -19 23q0 11 17 18l139 56q0 416 -10 518
q-9 95 -58 119q-39 20 -39 30q0 13 15 13q1 0 15.5 -1.5t38.5 -3.5t52.5 -4.5t62 -4t62.5 -1.5q82 0 166 8l94 7q15 0 15 -13q0 -10 -27 -22q-3 0 -5.5 -1t-6.5 -3.5t-8 -3.5q-49 -22 -58 -103q-10 -88 -10 -416l137 54q2 2 12 2q19 0 19 -23q0 -12 -16 -18l-154 -60v-82
q0 -293 4 -411q6 -89 25 -121q35 -53 192 -53q169 0 270 94q104 96 150 352q6 27 20 27q13 0 13 -27q-39 -316 -39 -381z" />
    <glyph glyph-name="lslash" unicode="&#x142;" horiz-adv-x="624" 
d="M578 831q9 -18 -11 -28l-125 -72v-336q3 -200 17 -266q15 -66 76 -102q36 -16 31 -31q-3 -8 -17 -8q-1 0 -90 6q-85 6 -140 6q-21 0 -52 -1t-60 -3t-54.5 -4t-42.5 -3l-16 -1q-14 0 -14 10q1 14 31 31q54 26 67 94q15 65 15 280v183l-91 -51q-18 -9 -30 6q-9 18 10 28
l111 64v231q0 176 -17 242q-14 56 -76 92q-27 12 -35 18t-8 15q0 13 25 16q65 2 125.5 11.5t102 21t73.5 23t50 19t20 7.5q12 0 12 -12l-1 -3q-1 -4 -2 -11.5t-3 -18.5t-3.5 -27t-3.5 -34.5t-4 -42t-3 -49.5t-2 -58t-1 -65v-232l105 62q18 9 31 -7z" />
    <glyph glyph-name="Nacute" unicode="&#x143;" horiz-adv-x="1468" 
d="M535 1436q-9 0 -9 10q0 6 9 12q259 171 339 221q83 50 123 50q35 0 55.5 -20.5t20.5 -53.5q0 -35 -21.5 -57t-78.5 -42q-245 -81 -426 -118h-8zM1253 -45q-16 0 -41 25q-38 46 -378 403l-529 551q-33 33 -45 33t-12 -23v-616q0 -150 33 -209q35 -60 137 -94q35 -9 35 -25
q0 -12 -19 -12q-10 0 -90 6t-111 6q-32 0 -102 -6q-71 -6 -84 -6q-18 0 -18 14q0 10 32 16q80 20 115 88q35 72 35 261v553q0 152 -12 210q-9 61 -52 89q-23 18 -53.5 33t-47.5 23t-17 15q0 13 14 13q1 0 6.5 -1t18 -2.5t26.5 -3.5q53 -6 74 -6q25 0 69.5 6.5t49.5 6.5
q32 0 80 -48q216 -207 471 -462q289 -286 383 -390q10 -10 12 -10q4 0 4 10v572q0 135 -36 199.5t-122 89.5q-28 8 -34.5 12t-6.5 14q0 13 17 13q3 0 12.5 -1t31.5 -2.5t44 -3.5q82 -6 110 -6q37 0 105 6q20 2 37 3.5t24 2.5t8 1q17 0 17 -13q0 -11 -33 -20
q-77 -24 -108 -87.5t-31 -207.5v-985q0 -35 -19 -35z" />
    <glyph glyph-name="nacute" unicode="&#x144;" horiz-adv-x="1208" 
d="M432 926q-10 0 -10 8q-3 3 6 12q222 235 266 275q63 60 105 63q31 2 52.5 -16.5t22.5 -50.5q2 -26 -16 -48t-65 -51q-181 -116 -351 -188q-6 0 -10 -4zM1114 27q37 -16 29 -32q-3 -7 -13 -7q-16 0 -90 6t-118 6q-46 0 -119 -6q-74 -6 -76 -6q-14 0 -14 11q0 15 30 28
q36 22 45 55q11 46 11 147v357q0 182 -137 182q-100 0 -167 -105.5t-67 -283.5v-139q0 -117 10 -162q11 -38 56 -53q32 -14 32 -25q0 -12 -14 -12l-15 1q-15 1 -38.5 3t-50 4t-55 3t-48.5 1q-21 0 -51 -1t-57.5 -3t-52 -4t-40 -3t-16.5 -1q-14 0 -14 12q0 8 6.5 13.5
t25.5 13.5q51 22 60 57q12 34 12 164v254q0 120 -16 166q-15 43 -64 61q-30 13 -35 23q0 14 21 14q28 1 62 4.5t65.5 9t63 12t57.5 12.5t46 11.5t32 8.5l12 3q14 0 14 -12l-1 -7q-1 -7 -2.5 -19.5t-3 -30t-3 -40.5t-3 -48t-2.5 -55.5t-1 -61.5q29 133 109 203.5t202 70.5
q166 0 242 -82t76 -260v-256q0 -107 10 -145q11 -33 55 -57z" />
    <glyph glyph-name="Ncommaaccent" unicode="&#x145;" horiz-adv-x="1468" 
d="M1253 -45q-16 0 -41 25q-38 46 -378 403l-529 551q-33 33 -45 33t-12 -23v-616q0 -150 33 -209q35 -60 137 -94q35 -9 35 -25q0 -12 -19 -12q-10 0 -90 6t-111 6q-32 0 -102 -6q-71 -6 -84 -6q-18 0 -18 14q0 10 32 16q80 20 115 88q35 72 35 261v553q0 152 -12 210
q-9 61 -52 89q-23 18 -53.5 33t-47.5 23t-17 15q0 13 14 13q1 0 6.5 -1t18 -2.5t26.5 -3.5q53 -6 74 -6q25 0 69.5 6.5t49.5 6.5q32 0 80 -48q216 -207 471 -462q289 -286 383 -390q10 -10 12 -10q4 0 4 10v572q0 135 -36 199.5t-122 89.5q-28 8 -34.5 12t-6.5 14
q0 13 17 13q3 0 12.5 -1t31.5 -2.5t44 -3.5q82 -6 110 -6q37 0 105 6q20 2 37 3.5t24 2.5t8 1q17 0 17 -13q0 -11 -33 -20q-77 -24 -108 -87.5t-31 -207.5v-985q0 -35 -19 -35zM664 -506q-19 0 -19 17q0 12 19 18q68 18 115.5 69t47.5 113q0 29 -16 29l-27 -20
q-28 -21 -51 -21q-42 0 -70 28t-28 72t33 74.5t80 30.5q61 0 96 -42t35 -116q0 -66 -28.5 -118.5t-67.5 -79.5t-71 -40.5t-48 -13.5z" />
    <glyph glyph-name="ncommaaccent" unicode="&#x146;" horiz-adv-x="1208" 
d="M1114 27q37 -16 29 -32q-3 -7 -13 -7q-16 0 -90 6t-118 6q-46 0 -119 -6q-74 -6 -76 -6q-14 0 -14 11q0 15 30 28q36 22 45 55q11 46 11 147v357q0 182 -137 182q-100 0 -167 -105.5t-67 -283.5v-139q0 -117 10 -162q11 -38 56 -53q32 -14 32 -25q0 -12 -14 -12l-15 1
q-15 1 -38.5 3t-50 4t-55 3t-48.5 1q-21 0 -51 -1t-57.5 -3t-52 -4t-40 -3t-16.5 -1q-14 0 -14 12q0 8 6.5 13.5t25.5 13.5q51 22 60 57q12 34 12 164v254q0 120 -16 166q-15 43 -64 61q-30 13 -35 23q0 14 21 14q28 1 62 4.5t65.5 9t63 12t57.5 12.5t46 11.5t32 8.5l12 3
q14 0 14 -12l-1 -7q-1 -7 -2.5 -19.5t-3 -30t-3 -40.5t-3 -48t-2.5 -55.5t-1 -61.5q29 133 109 203.5t202 70.5q166 0 242 -82t76 -260v-256q0 -107 10 -145q11 -33 55 -57zM635 -96q61 0 96 -42t35 -116q0 -66 -28.5 -118.5t-67.5 -79.5t-71 -40.5t-48 -13.5q-19 0 -19 17
q0 12 19 18q68 18 116 69.5t48 112.5q0 29 -17 29l-27 -20q-27 -21 -50 -21q-42 0 -70.5 28t-28.5 72t33 74.5t80 30.5z" />
    <glyph glyph-name="Ncaron" unicode="&#x147;" horiz-adv-x="1468" 
d="M489 1724q12 0 50 -19t184 -96q11 -6 17.5 -9.5t16.5 -8.5t19 -10h4q63 31 117.5 59t80 42t45.5 25t28.5 14t15.5 3q14 0 14 -14q0 -24 -190 -211q-37 -37 -51 -49q-29 -23 -62 -23q-23 0 -42.5 10t-30 19.5t-43.5 42.5q-187 187 -187 211q0 14 14 14zM1253 -45
q-16 0 -41 25q-38 46 -378 403l-529 551q-33 33 -45 33t-12 -23v-616q0 -150 33 -209q35 -60 137 -94q35 -9 35 -25q0 -12 -19 -12q-10 0 -90 6t-111 6q-32 0 -102 -6q-71 -6 -84 -6q-18 0 -18 14q0 10 32 16q80 20 115 88q35 72 35 261v553q0 152 -12 210q-9 61 -52 89
q-23 18 -53.5 33t-47.5 23t-17 15q0 13 14 13q1 0 6.5 -1t18 -2.5t26.5 -3.5q53 -6 74 -6q25 0 69.5 6.5t49.5 6.5q32 0 80 -48q216 -207 471 -462q289 -286 383 -390q10 -10 12 -10q4 0 4 10v572q0 135 -36 199.5t-122 89.5q-28 8 -34.5 12t-6.5 14q0 13 17 13q3 0 12.5 -1
t31.5 -2.5t44 -3.5q82 -6 110 -6q37 0 105 6q20 2 37 3.5t24 2.5t8 1q17 0 17 -13q0 -11 -33 -20q-77 -24 -108 -87.5t-31 -207.5v-985q0 -35 -19 -35z" />
    <glyph glyph-name="ncaron" unicode="&#x148;" horiz-adv-x="1208" 
d="M516 1008q-170 197 -184 219q-8 13 -8 20q0 15 14 15q5 0 10.5 -2t16 -7.5t22 -13.5t34.5 -23t48 -31.5t67 -44.5t87 -57h8l114 76q109 73 132 86q31 17 38 17q15 0 15 -15q0 -14 -103 -133q-17 -20 -27 -32t-29 -34t-36 -42q-44 -54 -108 -53.5t-111 55.5zM1114 27
q37 -16 29 -32q-3 -7 -13 -7q-16 0 -90 6t-118 6q-46 0 -119 -6q-74 -6 -76 -6q-14 0 -14 11q0 15 30 28q36 22 45 55q11 46 11 147v357q0 182 -137 182q-100 0 -167 -105.5t-67 -283.5v-139q0 -117 10 -162q11 -38 56 -53q32 -14 32 -25q0 -12 -14 -12l-15 1q-15 1 -38.5 3
t-50 4t-55 3t-48.5 1q-21 0 -51 -1t-57.5 -3t-52 -4t-40 -3t-16.5 -1q-14 0 -14 12q0 8 6.5 13.5t25.5 13.5q51 22 60 57q12 34 12 164v254q0 120 -16 166q-15 43 -64 61q-30 13 -35 23q0 14 21 14q28 1 62 4.5t65.5 9t63 12t57.5 12.5t46 11.5t32 8.5l12 3q14 0 14 -12
l-1 -7q-1 -7 -2.5 -19.5t-3 -30t-3 -40.5t-3 -48t-2.5 -55.5t-1 -61.5q29 133 109 203.5t202 70.5q166 0 242 -82t76 -260v-256q0 -107 10 -145q11 -33 55 -57z" />
    <glyph glyph-name="Eng" unicode="&#x14a;" horiz-adv-x="1572" 
d="M981 -440q-141 0 -231.5 65t-90.5 185q0 74 41.5 122t102.5 48q53 0 84 -30t31 -75t-39 -90q-37 -46 -37 -82q0 -46 41 -78.5t106 -32.5q93 0 147 66.5t54 177.5q0 65 -28.5 119t-98.5 127l-768 848q-20 20 -29 20q-12 0 -12 -20v-602q0 -251 174 -303q35 -9 35 -25
q0 -12 -19 -12q-8 0 -90 6t-114 6q-33 0 -103 -6q-71 -6 -88 -6q-18 0 -18 14q0 10 32 18q84 15 119 78q35 62 35 230v579q0 169 -24 242q-20 72 -107 111q-55 18 -55 30q0 15 14 15q1 0 7 -1t19.5 -2.5t28.5 -3.5q52 -6 74 -6q9 0 49.5 6.5t48.5 6.5q30 0 86 -56
q102 -99 291 -299q296 -314 395 -422q168 -181 218 -231q14 -14 18 -14q8 0 8 14v678q0 147 -28 205q-27 56 -121 86q-40 15 -43 24q0 13 16 13l14 -1q15 -2 37 -4t46.5 -3.5t50.5 -3t43 -1.5q43 0 110 6q70 9 74 9q14 0 14 -13t-39 -22q-79 -22 -106 -74q-28 -54 -31 -211
v-903q0 -522 -344 -522z" />
    <glyph glyph-name="eng" unicode="&#x14b;" horiz-adv-x="1169" 
d="M743 827q168 0 244 -86t76 -280v-441q-3 -257 -94 -358q-89 -102 -224 -102q-79 0 -134.5 45.5t-57.5 111.5q0 47 27.5 76t70.5 29q82 0 103 -98q27 -105 90 -105q78 0 78 94q0 26 -56 135q-55 104 -55 201v510q0 107 -36 156t-111 49q-100 0 -167 -105t-67 -280l-2 2
v-141q0 -117 10 -162q11 -38 56 -53q32 -14 32 -25q0 -12 -14 -12l-15 1q-15 1 -38.5 3t-50 4t-55 3t-48.5 1q-21 0 -51 -1t-57.5 -3t-52 -4t-40 -3t-16.5 -1q-14 0 -14 12q0 8 6.5 13.5t25.5 13.5q51 22 60 57q12 34 12 164v254q0 120 -16 166q-15 43 -64 61q-30 13 -35 23
q0 14 21 14q28 1 62 4.5t65.5 9t63 12t57.5 12.5t46 11.5t32 8.5l12 3q14 0 14 -12v-3q-1 -4 -2 -12t-2 -19t-2.5 -26t-3 -32t-2.5 -37.5t-2 -42t-1.5 -46.5t-0.5 -50q62 280 323 280z" />
    <glyph glyph-name="Omacron" unicode="&#x14c;" horiz-adv-x="1552" 
d="M524 1528q-32 0 -32 28q0 62 40 62q4 0 16.5 -0.5t36.5 -1.5l48 -2q57 -2 129 -2q83 0 149 2q28 1 55.5 2t42 1.5t19.5 0.5q31 0 31 -27q0 -63 -39 -63q-72 0 -127 2t-123 2t-131 -2q-61 -2 -115 -2zM776 1329q301 0 494 -190q192 -186 192 -490q0 -295 -194 -489
q-194 -191 -492 -191q-299 0 -493 191q-193 193 -193 489q0 300 193 490t493 190zM776 0q171 0 265 160.5t94 488.5q0 647 -359 647q-358 0 -358 -647q0 -325 94.5 -487t263.5 -162z" />
    <glyph glyph-name="omacron" unicode="&#x14d;" horiz-adv-x="1083" 
d="M299 1133q4 0 16.5 -1t35.5 -2t48 -2q57 -2 129 -2q84 0 150 2q28 1 55.5 2t42 2t19.5 1q30 0 30 -27q0 -64 -39 -64q-72 0 -127 2q-82 3 -122 3q-37 0 -131 -3q-61 -2 -115 -2q-33 0 -33 29q0 62 41 62zM201 709q130 118 342 118q213 0 340 -118q131 -119 131 -310
q0 -190 -131 -309q-128 -119 -340 -119q-211 0 -342 119q-129 120 -129 309q0 190 129 310zM543 0q105 0 154.5 93t50.5 306q-1 212 -50.5 305t-154.5 95q-106 -2 -155.5 -95t-49.5 -305q0 -213 49.5 -306t155.5 -93z" />
    <glyph glyph-name="Ohungarumlaut" unicode="&#x150;" horiz-adv-x="1552" 
d="M532 1409q-8 0 -10 6t4 12q148 220 207 289q51 60 88 60q31 0 50.5 -19t19.5 -51q0 -40 -70 -98q-141 -118 -278 -195q-3 -1 -6 -3q-4 -1 -5 -1zM807 1415q0 8 4 12q158 214 217 279q61 70 98 70q32 0 54 -21.5t22 -52.5q0 -47 -63 -98q-162 -119 -310 -193q-2 -2 -10 -2
q-9 0 -12 6zM776 1329q301 0 494 -190q192 -186 192 -490q0 -295 -194 -489q-194 -191 -492 -191q-299 0 -493 191q-193 193 -193 489q0 300 193 490t493 190zM776 0q171 0 265 160.5t94 488.5q0 647 -359 647q-358 0 -358 -647q0 -325 94.5 -487t263.5 -162z" />
    <glyph glyph-name="ohungarumlaut" unicode="&#x151;" horiz-adv-x="1083" 
d="M299 918q-8 0 -10 6t4 12q148 220 207 289q50 59 88 59q31 0 50 -19t19 -51q0 -41 -69 -98q-135 -113 -279 -194q-2 -1 -4.5 -2t-3.5 -1.5t-2 -0.5zM586 918q-10 0 -13 6q0 7 5 12q154 209 217 278q61 70 98 70q32 0 54 -21.5t22 -52.5q0 -46 -64 -98
q-160 -118 -309 -192q-2 -2 -10 -2zM201 709q130 118 342 118q213 0 340 -118q131 -119 131 -310q0 -190 -131 -309q-128 -119 -340 -119q-211 0 -342 119q-129 120 -129 309q0 190 129 310zM543 0q105 0 154.5 93t50.5 306q-1 212 -50.5 305t-154.5 95q-106 -2 -155.5 -95
t-49.5 -305q0 -213 49.5 -306t155.5 -93z" />
    <glyph glyph-name="OE" unicode="&#x152;" horiz-adv-x="1949" 
d="M1815 98q0 -25 10 -48t20 -36t10 -14q0 -12 -12 -12h-11q-11 0 -34 0.5t-53 1t-75.5 1t-94.5 1.5q-174 2 -453 2q-67 0 -217 -12q-163 -13 -205 -13q-261 0 -436 193q-174 192 -174 487q0 301 174 490q175 190 441 190q55 0 276 -33h330q155 0 235 2l195 5q51 2 94 2
q14 0 14 -13q0 -3 -10.5 -13t-21.5 -29.5t-11 -45.5q0 -38 9 -114t17.5 -135t8.5 -56q0 -16 -14 -16q-13 0 -19 22q-65 225 -155 295q-89 74 -232 74q-76 0 -108 -8t-49 -33q-36 -48 -39 -475q3 -37 9.5 -50.5t25.5 -19.5t65 -6q110 0 154 41q41 38 82 154q3 16 16 16
q10 0 10 -14l-1 -13q-1 -12 -2.5 -33.5t-3 -48t-2.5 -59t-1 -61.5q0 -34 1 -67.5t2.5 -58t3 -44t2.5 -30t1 -11.5q0 -9 -5 -13t-11 0t-10 15q-38 113 -82 151q-44 41 -154 41q-65 0 -81.5 -13t-18.5 -59v3q3 -310 10 -388q9 -100 33 -131q27 -34 147 -34q165 0 262 100
q99 99 140 369q3 26 20 26q10 0 10 -14q0 2 -3.5 -25t-8 -72.5t-9 -98t-8 -111t-3.5 -101.5zM903 84q22 43 31 149q8 101 8 414q0 467 -41 563q-18 41 -67 65.5t-107 24.5q-151 0 -233 -149q-80 -151 -80 -502q0 -653 288 -653q149 0 201 88z" />
    <glyph glyph-name="oe" unicode="&#x153;" horiz-adv-x="1591" 
d="M1513 246q8 0 11 -6t2 -14t-4 -17q-34 -102 -133 -170q-101 -70 -226 -70q-117 0 -191.5 40t-137.5 126q-120 -164 -345 -164q-180 0 -299 119q-118 118 -118 309q0 190 118 308q120 120 299 120q223 0 342 -186q113 186 328 186q161 0 264 -92q103 -89 103 -225
q0 -42 -16 -60t-56 -18l-502 2v-43q0 -168 66.5 -258t193.5 -90q98 0 176.5 52.5t108.5 133.5q10 17 16 17zM375 88q46 -88 141 -88q92 0 139 92q45 89 45 307q0 219 -45 308q-47 92 -139 92q-94 0 -141 -90q-45 -86 -45 -310q0 -225 45 -311zM1137 799q-86 0 -131 -76.5
t-52 -241.5l306 2q23 0 28.5 9.5t5.5 52.5q0 254 -157 254z" />
    <glyph glyph-name="Racute" unicode="&#x154;" horiz-adv-x="1503" 
d="M471 1436q-8 0 -8 10q0 7 8 12q243 161 340 221q83 50 123 50q35 0 55.5 -20.5t20.5 -53.5q0 -35 -22 -57t-79 -42q-245 -81 -426 -118h-8zM1202 -57q-83 0 -186 53q-98 52 -172 117q-75 66 -160 118q-85 54 -145 54q-23 0 -23 -27q3 -131 14 -168q12 -40 45 -57
q10 -5 28 -12t24 -11.5t6 -9.5q0 -12 -17 -12q-1 0 -19.5 1t-47.5 3t-62 4t-67.5 3t-57.5 1q-37 0 -95.5 -3t-102.5 -6l-43 -3q-15 0 -15 12q0 7 4 10.5t16.5 9.5t23.5 13q37 18 49 82q14 85 14 557q0 241 -2 307q0 107 -8 164q-7 62 -16.5 80.5t-36.5 33.5q-5 3 -13.5 6.5
t-13 6t-9.5 5.5t-7.5 6.5t-2.5 6.5q0 12 17 12l17 -1q17 -1 43.5 -2.5t57 -3t63 -2.5t56.5 -1q46 0 183 10q133 13 159 13q282 0 453 -139q170 -138 170 -363q0 -240 -170 -381q-169 -141 -418 -141q-61 0 -137 8v-4q64 -10 246 -84q189 -74 330 -74q214 0 241 189
q3 10 8 10q11 0 21 -34.5t10 -76.5q0 -115 -74 -198q-70 -82 -178 -82zM641 315q171 0 267 125.5t96 370.5q0 238 -80.5 355.5t-225.5 117.5q-131 0 -161 -49q-20 -30 -23 -119q-5 -135 -2 -444v-312q2 -30 23.5 -37.5t105.5 -7.5z" />
    <glyph glyph-name="racute" unicode="&#x155;" horiz-adv-x="886" 
d="M289 926q-10 0 -10 8q-3 3 6 12q222 235 266 275q63 60 104 63q31 2 53 -16.5t23 -50.5q1 -26 -17 -48t-65 -51q-183 -117 -350 -188q-6 0 -10 -4zM702 827q75 0 117.5 -38.5t42.5 -104.5q0 -61 -29.5 -96t-80.5 -35q-42 0 -68.5 24.5t-35.5 53.5t-24 53.5t-38 24.5
q-59 0 -99 -107q-42 -109 -45 -242v-163q0 -83 24.5 -115.5t100.5 -56.5q29 -10 29 -23q0 -14 -16 -14q-1 0 -103 6q-99 6 -160 6q-36 0 -92.5 -3t-98.5 -6l-42 -3q-14 0 -14 12q0 11 32 25q58 21 74 57q14 32 14 133v344q0 79 -17.5 113.5t-70.5 52.5q-39 9 -39 23t23 14
q74 2 159 17t133 29l48 15q14 0 14 -14q-3 -16 -6.5 -43.5t-8.5 -106t-1 -149.5q25 146 100 231.5t178 85.5z" />
    <glyph glyph-name="Rcommaaccent" unicode="&#x156;" horiz-adv-x="1503" 
d="M1202 -57q-83 0 -186 53q-98 52 -172 117q-75 66 -160 118q-85 54 -145 54q-23 0 -23 -27q3 -131 14 -168q12 -40 45 -57q10 -5 28 -12t24 -11.5t6 -9.5q0 -12 -17 -12q-1 0 -19.5 1t-47.5 3t-62 4t-67.5 3t-57.5 1q-37 0 -95.5 -3t-102.5 -6l-43 -3q-15 0 -15 12
q0 7 4 10.5t16.5 9.5t23.5 13q37 18 49 82q14 85 14 557q0 241 -2 307q0 107 -8 164q-7 62 -16.5 80.5t-36.5 33.5q-5 3 -13.5 6.5t-13 6t-9.5 5.5t-7.5 6.5t-2.5 6.5q0 12 17 12l17 -1q17 -1 43.5 -2.5t57 -3t63 -2.5t56.5 -1q46 0 183 10q133 13 159 13q282 0 453 -139
q170 -138 170 -363q0 -240 -170 -381q-169 -141 -418 -141q-61 0 -137 8v-4q64 -10 246 -84q189 -74 330 -74q214 0 241 189q3 10 8 10q11 0 21 -34.5t10 -76.5q0 -115 -74 -198q-70 -82 -178 -82zM641 315q171 0 267 125.5t96 370.5q0 238 -80.5 355.5t-225.5 117.5
q-131 0 -161 -49q-20 -30 -23 -119q-5 -135 -2 -444v-312q2 -30 23.5 -37.5t105.5 -7.5zM639 -506q-18 0 -18 17q0 12 18 18q68 18 116 69.5t48 112.5q0 29 -17 29l-27 -20q-27 -21 -50 -21q-42 0 -70.5 28t-28.5 72t33 74.5t80 30.5q61 0 96 -42t35 -116
q0 -66 -28.5 -118.5t-67.5 -79.5t-71 -40.5t-48 -13.5z" />
    <glyph glyph-name="rcommaaccent" unicode="&#x157;" horiz-adv-x="886" 
d="M702 827q75 0 117.5 -38.5t42.5 -104.5q0 -61 -29.5 -96t-80.5 -35q-42 0 -68.5 24.5t-35.5 53.5t-24 53.5t-38 24.5q-59 0 -99 -107q-42 -109 -45 -242v-163q0 -83 24.5 -115.5t100.5 -56.5q29 -10 29 -23q0 -14 -16 -14q-1 0 -103 6q-99 6 -160 6q-36 0 -92.5 -3
t-98.5 -6l-42 -3q-14 0 -14 12q0 11 32 25q58 21 74 57q14 32 14 133v344q0 79 -17.5 113.5t-70.5 52.5q-39 9 -39 23t23 14q74 2 159 17t133 29l48 15q14 0 14 -14q-3 -16 -6.5 -43.5t-8.5 -106t-1 -149.5q25 146 100 231.5t178 85.5zM408 -96q61 0 96 -42t35 -116
q0 -66 -28.5 -118.5t-67.5 -79.5t-71 -40.5t-48 -13.5q-19 0 -19 17q0 12 19 18q68 18 115.5 69t47.5 113q0 29 -16 29l-27 -20q-28 -21 -51 -21q-42 0 -70 28t-28 72t33 74.5t80 30.5z" />
    <glyph glyph-name="Rcaron" unicode="&#x158;" horiz-adv-x="1503" 
d="M426 1724q12 0 50 -19t184 -96q11 -6 17.5 -9.5t16.5 -8.5t19 -10h4q63 31 117.5 59t80 42t45.5 25t28.5 14t15.5 3q14 0 14 -14q0 -23 -191 -211q-37 -37 -51 -49q-29 -23 -61 -23q-23 0 -42.5 9.5t-31.5 20.5t-43 42q-186 186 -186 211q0 14 14 14zM1202 -57
q-83 0 -186 53q-98 52 -172 117q-75 66 -160 118q-85 54 -145 54q-23 0 -23 -27q3 -131 14 -168q12 -40 45 -57q10 -5 28 -12t24 -11.5t6 -9.5q0 -12 -17 -12q-1 0 -19.5 1t-47.5 3t-62 4t-67.5 3t-57.5 1q-37 0 -95.5 -3t-102.5 -6l-43 -3q-15 0 -15 12q0 7 4 10.5
t16.5 9.5t23.5 13q37 18 49 82q14 85 14 557q0 241 -2 307q0 107 -8 164q-7 62 -16.5 80.5t-36.5 33.5q-5 3 -13.5 6.5t-13 6t-9.5 5.5t-7.5 6.5t-2.5 6.5q0 12 17 12l17 -1q17 -1 43.5 -2.5t57 -3t63 -2.5t56.5 -1q46 0 183 10q133 13 159 13q282 0 453 -139
q170 -138 170 -363q0 -240 -170 -381q-169 -141 -418 -141q-61 0 -137 8v-4q64 -10 246 -84q189 -74 330 -74q214 0 241 189q3 10 8 10q11 0 21 -34.5t10 -76.5q0 -115 -74 -198q-70 -82 -178 -82zM641 315q171 0 267 125.5t96 370.5q0 238 -80.5 355.5t-225.5 117.5
q-131 0 -161 -49q-20 -30 -23 -119q-5 -135 -2 -444v-312q2 -30 23.5 -37.5t105.5 -7.5z" />
    <glyph glyph-name="rcaron" unicode="&#x159;" horiz-adv-x="886" 
d="M373 1008q-170 197 -183 217q-10 14 -10 22q0 15 15 15q5 0 10.5 -2t16 -7.5t22 -13.5t34.5 -23t47.5 -31.5t66.5 -44.5t87 -57h8l115 76q114 77 131 86q31 17 39 17q14 0 14 -15t-114 -147q-49 -57 -80 -94q-44 -54 -108 -53.5t-111 55.5zM702 827q75 0 117.5 -38.5
t42.5 -104.5q0 -61 -29.5 -96t-80.5 -35q-42 0 -68.5 24.5t-35.5 53.5t-24 53.5t-38 24.5q-59 0 -99 -107q-42 -109 -45 -242v-163q0 -83 24.5 -115.5t100.5 -56.5q29 -10 29 -23q0 -14 -16 -14q-1 0 -103 6q-99 6 -160 6q-36 0 -92.5 -3t-98.5 -6l-42 -3q-14 0 -14 12
q0 11 32 25q58 21 74 57q14 32 14 133v344q0 79 -17.5 113.5t-70.5 52.5q-39 9 -39 23t23 14q74 2 159 17t133 29l48 15q14 0 14 -14q-3 -16 -6.5 -43.5t-8.5 -106t-1 -149.5q25 146 100 231.5t178 85.5z" />
    <glyph glyph-name="Sacute" unicode="&#x15a;" horiz-adv-x="1263" 
d="M379 1436q-8 0 -8 10q0 7 8 12q243 161 340 221q83 50 123 50q35 0 55.5 -20.5t20.5 -53.5q0 -35 -22 -57t-79 -42q-245 -81 -426 -118h-8zM133 -10q0 26 2 73q4 94 4 125q0 34 -1.5 74.5t-4 74t-5 62t-4 46t-1.5 18.5q0 16 16 16q12 0 21 -22q47 -109 86 -177t98 -137
q126 -141 336 -141q136 0 214.5 68t78.5 184q0 105 -72 167t-244 105l-137 35q-383 91 -383 379q0 178 137 279q138 102 326 102q87 0 176.5 -25.5t148 -51t70.5 -25.5q23 0 30.5 13t12.5 50q6 37 23 37q18 0 18 -19q0 -112 6 -186q2 -25 8.5 -82.5t12.5 -103t6 -43.5
q0 -13 -16 -13q-15 0 -21 19q-83 198 -193 299.5t-274 101.5q-126 0 -198 -59.5t-72 -159.5q0 -94 63.5 -145.5t214.5 -89.5l177 -45q206 -50 299.5 -140.5t93.5 -249.5q0 -205 -150 -319q-151 -115 -360 -115q-136 0 -279 49q-142 50 -161 50q-53 0 -68 -74q-1 -25 -18 -27
q-14 5 -17 23z" />
    <glyph glyph-name="sacute" unicode="&#x15b;" horiz-adv-x="944" 
d="M279 926q-11 0 -11 8q-3 3 6 12q216 228 267 275q63 60 104 63q31 2 53 -16.5t23 -50.5q1 -26 -17 -48t-65 -51q-183 -117 -350 -188q-6 0 -10 -4zM485 -31q-91 0 -194 33q-29 9 -58 18.5t-39.5 13t-11.5 3.5q-17 0 -24 -8t-13 -33q-1 -12 -8.5 -16.5t-14.5 0t-7 16.5
q0 2 1 34.5t1 59.5q0 35 -11 125q-3 21 -5.5 40.5t-3.5 28t-1 9.5q0 14 12 14q13 0 19 -20q95 -287 360 -287q86 0 135.5 38.5t49.5 106.5q0 59 -38 94t-132 58l-142 33q-138 33 -199 87.5t-61 155.5q0 118 101 185q100 69 252 69q99 0 192 -34l96 -35q23 0 29 47
q2 19 16.5 18.5t14.5 -20.5q0 -134 32 -244l1 -4q0 -12 -13 -12q-11 0 -20 18q-111 238 -340 238q-80 0 -127 -33.5t-47 -85.5q0 -53 40.5 -84.5t129.5 -50.5l159 -37q258 -56 258 -252q0 -136 -118 -211q-119 -76 -271 -76z" />
    <glyph glyph-name="Scedilla" unicode="&#x15e;" horiz-adv-x="1263" 
d="M676 -31h-29l-43 -82q217 -34 217 -149q0 -60 -53 -95.5t-131 -35.5q-31 0 -58 4.5t-44.5 10.5t-30 13.5t-18 13.5t-5.5 9q0 12 13 12q1 0 14.5 -5.5t34.5 -11t39 -5.5q41 0 65.5 24.5t24.5 65.5q0 42 -22.5 65t-82.5 47q-12 3 -12 17q0 9 8 22l47 82q-104 9 -229 54
q-119 43 -145 43q-53 0 -68 -74q-1 -25 -18 -27q-14 5 -17 23q0 26 2 73q4 94 4 125q0 34 -1.5 74.5t-4 74t-5 62t-4 46t-1.5 18.5q0 16 16 16q12 0 21 -22q47 -109 86 -177t98 -137q126 -141 336 -141q136 0 214.5 68t78.5 184q0 105 -72 167t-244 105l-137 35
q-383 91 -383 379q0 178 137 279q138 102 326 102q87 0 176.5 -25.5t148 -51t70.5 -25.5q23 0 30.5 13t12.5 50q6 37 23 37q18 0 18 -19q0 -112 6 -186q2 -25 8.5 -82.5t12.5 -103t6 -43.5q0 -13 -16 -13q-15 0 -21 19q-83 198 -193 299.5t-274 101.5q-126 0 -198 -59.5
t-72 -159.5q0 -94 63.5 -145.5t214.5 -89.5l177 -45q206 -50 299.5 -140.5t93.5 -249.5q0 -205 -150 -319q-151 -115 -360 -115z" />
    <glyph glyph-name="scedilla" unicode="&#x15f;" horiz-adv-x="944" 
d="M485 -31h-8l-43 -82q217 -34 217 -149q0 -60 -53 -95.5t-131 -35.5q-31 0 -58 4.5t-44.5 10.5t-30 13.5t-18 13.5t-5.5 9q0 12 13 12q1 0 14.5 -5.5t34.5 -11t39 -5.5q41 0 65.5 24.5t24.5 65.5q0 42 -22.5 65t-82.5 47q-12 3 -12 17q0 9 8 22l45 82q-61 5 -159 35
q-91 31 -97 31q-17 0 -24 -8t-13 -33q-1 -12 -8.5 -16.5t-14.5 0t-7 16.5q0 2 1 34.5t1 59.5q0 35 -11 125q-3 21 -5.5 40.5t-3.5 28t-1 9.5q0 14 12 14q13 0 19 -20q95 -287 360 -287q86 0 135.5 38.5t49.5 106.5q0 59 -38 94t-132 58l-142 33q-138 33 -199 87.5t-61 155.5
q0 118 101 185q100 69 252 69q99 0 192 -34l96 -35q23 0 29 47q2 19 16.5 18.5t14.5 -20.5q0 -134 32 -244l1 -4q0 -12 -13 -12q-11 0 -20 18q-111 238 -340 238q-80 0 -127 -33.5t-47 -85.5q0 -53 40.5 -84.5t129.5 -50.5l159 -37q258 -56 258 -252q0 -136 -118 -211
q-119 -76 -271 -76z" />
    <glyph glyph-name="Scaron" unicode="&#x160;" horiz-adv-x="1263" 
d="M334 1724q12 0 50 -19t184 -96q11 -6 17.5 -9.5t16.5 -8.5t19 -10h4q63 31 117 59t79.5 42t46 25t28.5 14t15 3q15 0 15 -14q0 -23 -191 -211q-37 -37 -51 -49q-29 -23 -61 -23q-23 0 -42.5 9.5t-31.5 20.5t-43 42q-187 187 -187 211q0 14 15 14zM133 -10q0 26 2 73
q4 94 4 125q0 34 -1.5 74.5t-4 74t-5 62t-4 46t-1.5 18.5q0 16 16 16q12 0 21 -22q47 -109 86 -177t98 -137q126 -141 336 -141q136 0 214.5 68t78.5 184q0 105 -72 167t-244 105l-137 35q-383 91 -383 379q0 178 137 279q138 102 326 102q87 0 176.5 -25.5t148 -51
t70.5 -25.5q23 0 30.5 13t12.5 50q6 37 23 37q18 0 18 -19q0 -112 6 -186q2 -25 8.5 -82.5t12.5 -103t6 -43.5q0 -13 -16 -13q-15 0 -21 19q-83 198 -193 299.5t-274 101.5q-126 0 -198 -59.5t-72 -159.5q0 -94 63.5 -145.5t214.5 -89.5l177 -45q206 -50 299.5 -140.5
t93.5 -249.5q0 -205 -150 -319q-151 -115 -360 -115q-136 0 -279 49q-142 50 -161 50q-53 0 -68 -74q-1 -25 -18 -27q-14 5 -17 23z" />
    <glyph glyph-name="scaron" unicode="&#x161;" horiz-adv-x="944" 
d="M184 1262q5 0 10.5 -2t16 -7.5t22 -13.5t34.5 -23t48 -31.5t67 -44.5t87 -57h8l115 76q114 77 131 86q31 17 39 17q14 0 14 -15t-114 -147q-49 -57 -80 -94q-44 -54 -108.5 -53.5t-111.5 55.5q-170 197 -184 219q-8 13 -8 20q0 15 14 15zM485 -31q-91 0 -194 33
q-29 9 -58 18.5t-39.5 13t-11.5 3.5q-17 0 -24 -8t-13 -33q-1 -12 -8.5 -16.5t-14.5 0t-7 16.5q0 2 1 34.5t1 59.5q0 35 -11 125q-3 21 -5.5 40.5t-3.5 28t-1 9.5q0 14 12 14q13 0 19 -20q95 -287 360 -287q86 0 135.5 38.5t49.5 106.5q0 59 -38 94t-132 58l-142 33
q-138 33 -199 87.5t-61 155.5q0 118 101 185q100 69 252 69q99 0 192 -34l96 -35q23 0 29 47q2 19 16.5 18.5t14.5 -20.5q0 -134 32 -244l1 -4q0 -12 -13 -12q-11 0 -20 18q-111 238 -340 238q-80 0 -127 -33.5t-47 -85.5q0 -53 40.5 -84.5t129.5 -50.5l159 -37
q258 -56 258 -252q0 -136 -118 -211q-119 -76 -271 -76z" />
    <glyph glyph-name="uni0162" unicode="&#x162;" horiz-adv-x="1386" 
d="M424 -12q-14 0 -14 12q0 10 34 25q77 19 91 57q17 46 14 188v308q0 391 -6 499q-3 106 -21 135q-31 48 -137 48q-49 -1 -76.5 -8t-54.5 -25.5t-46.5 -61t-40 -104t-46.5 -166.5q-6 -31 -23 -31q-12 0 -12 19q6 182 6 309q0 17 -2.5 33.5t-5.5 29t-6 22t-6 15.5l-2 6
q0 15 14 15q1 0 19 -2t61 -5.5t96 -7.5q109 -8 438 -8q330 0 437 8l100 7q68 8 78 8q14 0 14 -15l-3 -6q-2 -6 -5 -15.5t-6 -22t-5.5 -29t-2.5 -33.5l6 -309q0 -20 -12 -19q-13 1 -23 31q-63 293 -150 342q-44 23 -114 23q-107 0 -138 -48q-16 -26 -22 -135q-4 -144 -4 -499
v-306q0 -147 16 -190q14 -38 88 -57q35 -15 35 -25q0 -12 -14 -12q-207 12 -275 12zM690 -393q-49 0 -87 11t-53 22t-15 18q0 12 12 12q1 0 14.5 -5.5t34.5 -11t39 -5.5q41 0 65.5 24.5t24.5 65.5q0 43 -22 65.5t-82 46.5q-13 3 -13 17q0 9 8 22l58 103h39l-56 -105
q217 -34 217 -149q0 -60 -53 -95.5t-131 -35.5z" />
    <glyph glyph-name="uni0163" unicode="&#x163;" horiz-adv-x="755" 
d="M446 -31h-28l-43 -82q217 -34 217 -149q0 -60 -53 -95.5t-131 -35.5q-31 0 -58 4.5t-44.5 10.5t-30 13.5t-18 13.5t-5.5 9q0 12 12 12q1 0 14.5 -5.5t34.5 -11t39 -5.5q41 0 65.5 24.5t24.5 65.5q0 43 -22 65.5t-82 46.5q-12 3 -12 17q0 9 8 22l47 84
q-106 14 -157.5 83.5t-51.5 207.5v416q0 42 -10.5 56.5t-46.5 15.5l-54 4q-17 1 -23.5 11.5t0 21.5t23.5 12q144 9 205 67q63 60 119 246q5 17 16 23.5t20 0t9 -23.5l-2 -301q0 -14 12 -14l222 2q30 0 30 -29t-26 -29q-7 0 -47 1t-82 1q-52 3 -97 3q-14 0 -14 -15l-2 -549
q0 -135 115 -135q59 0 92 38.5t33 105.5q0 22 18 22q16 0 16 -25q0 -101 -63 -161t-189 -60z" />
    <glyph glyph-name="Tcaron" unicode="&#x164;" horiz-adv-x="1386" 
d="M410 1724q11 0 49.5 -19t159.5 -83q48 -26 77 -41h4q63 31 117.5 59t80 42t45.5 25t28.5 14t15.5 3q14 0 14 -14q0 -24 -190 -211q-37 -37 -51 -49q-29 -23 -62 -23q-23 0 -42.5 10t-30 19.5t-43.5 42.5q-187 187 -187 211q0 14 15 14zM424 -12q-14 0 -14 12q0 10 34 25
q77 19 91 57q17 46 14 188v308q0 391 -6 499q-3 106 -21 135q-31 48 -137 48q-49 -1 -76.5 -8t-54.5 -25.5t-46.5 -61t-40 -104t-46.5 -166.5q-6 -31 -23 -31q-12 0 -12 19q6 182 6 309q0 17 -2.5 33.5t-5.5 29t-6 22t-6 15.5l-2 6q0 15 14 15q1 0 19 -2t61 -5.5t96 -7.5
q109 -8 438 -8q330 0 437 8l100 7q68 8 78 8q14 0 14 -15l-3 -6q-2 -6 -5 -15.5t-6 -22t-5.5 -29t-2.5 -33.5l6 -309q0 -20 -12 -19q-13 1 -23 31q-63 293 -150 342q-44 23 -114 23q-107 0 -138 -48q-16 -26 -22 -135q-4 -144 -4 -499v-306q0 -147 16 -190q14 -38 88 -57
q35 -15 35 -25q0 -12 -14 -12q-207 12 -275 12z" />
    <glyph glyph-name="tcaron" unicode="&#x165;" horiz-adv-x="755" 
d="M575 920q-16 0 -16 14q0 11 16 14q60 18 101 61.5t41 96.5q0 24 -15 24q-2 0 -12 -8.5t-25 -17t-30 -8.5q-36 0 -60 24t-24 62q0 41 27 65.5t69 24.5q52 0 83.5 -35t31.5 -100q0 -102 -72 -162q-70 -55 -115 -55zM446 -31q-141 0 -207.5 69.5t-66.5 225.5v416
q0 42 -10.5 56.5t-46.5 15.5l-54 4q-17 1 -23.5 11.5t0 21.5t23.5 12q144 9 205 67q63 60 119 246q5 17 16 23.5t20 0t9 -23.5l-2 -301q0 -14 12 -14l222 2q30 0 30 -29t-26 -29q-7 0 -47 1t-82 1q-52 3 -97 3q-14 0 -14 -15l-2 -549q0 -135 115 -135q59 0 92 38.5t33 105.5
q0 22 18 22q16 0 16 -25q0 -101 -63 -161t-189 -60z" />
    <glyph glyph-name="Tbar" unicode="&#x166;" horiz-adv-x="1386" 
d="M1327 1298l-3 -6q-2 -6 -5 -15.5t-6 -22t-5.5 -29t-2.5 -33.5l6 -309q0 -20 -12 -19q-13 1 -23 31q-63 293 -150 342q-44 23 -114 23q-107 0 -138 -48q-14 -19 -20 -112q-6 -88 -6 -381h174q17 0 17 -24.5t-17 -24.5h-174v-92v-306q0 -147 16 -190q14 -38 88 -57
q35 -15 35 -25q0 -12 -14 -12q-207 12 -275 12l-274 -12q-14 0 -14 12q0 10 34 25q77 19 91 57q17 46 14 188v308v92h-168q-17 0 -17 24.5t17 24.5h168q0 293 -6 381q-6 91 -21 112q-31 48 -137 48q-49 -1 -76.5 -8t-54.5 -25.5t-46.5 -61t-40 -104t-46.5 -166.5
q-6 -31 -23 -31q-12 0 -12 19q6 182 6 309q0 17 -2.5 33.5t-5.5 29t-6 22t-6 15.5l-2 6q0 15 14 15q1 0 19 -2t61 -5.5t96 -7.5q109 -8 438 -8q330 0 437 8l100 7q68 8 78 8q14 0 14 -15z" />
    <glyph glyph-name="tbar" unicode="&#x167;" horiz-adv-x="759" 
d="M682 215q16 0 16 -25q0 -101 -63 -161t-189 -60q-141 0 -207.5 69.5t-66.5 225.5v201h-98q-17 0 -17 24.5t17 24.5h98v166q0 42 -10.5 56.5t-46.5 15.5l-54 4q-17 1 -23.5 11.5t0 21.5t23.5 12q144 9 205 67q63 60 119 246q5 17 16 23.5t20 0t9 -23.5l-2 -301
q0 -14 12 -14l222 2q30 0 30 -29t-26 -29q-7 0 -47 1t-82 1q-52 3 -97 3q-14 0 -14 -15v-219h201q17 0 17 -24.5t-17 -24.5h-201l-2 -281q0 -135 115 -135q59 0 92 38.5t33 105.5q0 22 18 22z" />
    <glyph glyph-name="Utilde" unicode="&#x168;" horiz-adv-x="1406" 
d="M469 1479q2 107 40 172t109 65q56 0 166 -49q102 -45 142 -45q61 0 73 74q3 22 21 22t18 -22q0 -91 -38.5 -154t-104.5 -63q-55 0 -156 43q-91 45 -141 45q-73 0 -94 -88q-3 -15 -12 -21t-16.5 0t-6.5 21zM725 -31q-283 0 -427 151t-144 472v459q0 106 -13.5 148
t-56.5 65q-39 17 -39 28q0 13 16 13l43 -3q44 -4 103 -8t98 -4q63 0 158 6q99 9 100 9q15 0 15 -13q0 -10 -50 -37q-43 -20 -59 -65q-14 -41 -14 -178l-2 -502q-1 -220 91.5 -334.5t266.5 -114.5q161 0 268 125q111 126 111 400v442q0 119 -31.5 171t-111.5 71
q-32 11 -31 26q1 9 14 9l66 -7q57 -8 108 -8q50 0 111 6q62 9 63 9q15 0 15 -13q0 -8 -50 -26q-64 -23 -87 -77.5t-23 -184.5v-426q0 -305 -133.5 -457t-374.5 -152z" />
    <glyph glyph-name="utilde" unicode="&#x169;" horiz-adv-x="1161" 
d="M291 1026q2 107 40 172.5t109 65.5q54 0 166 -50q102 -45 142 -45q61 0 73 74q3 23 21 23t18 -23q0 -91 -38.5 -154t-104.5 -63q-55 0 -156 43q-91 45 -141 45q-73 0 -94 -88q-3 -15 -12 -21t-16.5 0t-6.5 21zM1094 51q28 -8 26 -22q-1 -12 -20 -13q-39 -1 -84 -5.5
t-81 -10.5t-66 -11.5t-47.5 -9.5t-18.5 -4q-17 0 -23 21q-13 43 -16 217h-2q-53 -244 -303 -244q-153 0 -230 78.5t-77 251.5v276q0 88 -12.5 119.5t-53.5 48.5q-37 13 -37 29q0 12 21 12q25 0 56.5 2t61.5 5t60.5 7t56.5 7.5t46 6.5t32 5l12 2q19 0 19 -20
q-13 -58 -13 -228v-303q0 -225 148 -225q87 0 143 85.5t60 227.5q0 227 -11 306q-9 64 -47 79q-4 2 -11 5t-10 4.5t-7.5 4t-6 5t-3 5.5t-1.5 7q0 12 21 12q36 0 83 3.5t88.5 9t77.5 10.5t59 9l22 3q12 0 12 -10q-14 -82 -14 -229v-297q0 -125 16 -168t74 -64z" />
    <glyph glyph-name="Umacron" unicode="&#x16a;" horiz-adv-x="1406" 
d="M506 1624q4 0 16.5 -0.5t36 -1.5t47.5 -2q57 -2 129 -2q84 0 150 2q28 1 55.5 2t41.5 1.5t19 0.5q31 0 31 -27q0 -63 -39 -63q-72 0 -127 2t-123 2t-131 -2q-61 -2 -114 -2q-33 0 -33 29q0 61 41 61zM725 -31q-283 0 -427 151t-144 472v459q0 106 -13.5 148t-56.5 65
q-39 17 -39 28q0 13 16 13l43 -3q44 -4 103 -8t98 -4q63 0 158 6q99 9 100 9q15 0 15 -13q0 -10 -50 -37q-43 -20 -59 -65q-14 -41 -14 -178l-2 -502q-1 -220 91.5 -334.5t266.5 -114.5q161 0 268 125q111 126 111 400v442q0 119 -31.5 171t-111.5 71q-32 11 -31 26
q1 9 14 9l66 -7q57 -8 108 -8q50 0 111 6q62 9 63 9q15 0 15 -13q0 -8 -50 -26q-64 -23 -87 -77.5t-23 -184.5v-426q0 -305 -133.5 -457t-374.5 -152z" />
    <glyph glyph-name="umacron" unicode="&#x16b;" horiz-adv-x="1161" 
d="M324 1042q-33 0 -33 29q0 62 41 62q4 0 16.5 -1t35.5 -2t48 -2q57 -2 129 -2q84 0 150 2q28 1 55 2t41.5 2t19.5 1q31 0 31 -27q0 -64 -39 -64q-72 0 -127 2q-82 3 -123 3q-37 0 -131 -3q-61 -2 -114 -2zM1094 51q28 -8 26 -22q-1 -12 -20 -13q-39 -1 -84 -5.5t-81 -10.5
t-66 -11.5t-47.5 -9.5t-18.5 -4q-17 0 -23 21q-13 43 -16 217h-2q-53 -244 -303 -244q-153 0 -230 78.5t-77 251.5v276q0 88 -12.5 119.5t-53.5 48.5q-37 13 -37 29q0 12 21 12q25 0 56.5 2t61.5 5t60.5 7t56.5 7.5t46 6.5t32 5l12 2q19 0 19 -20q-13 -58 -13 -228v-303
q0 -225 148 -225q87 0 143 85.5t60 227.5q0 227 -11 306q-9 64 -47 79q-4 2 -11 5t-10 4.5t-7.5 4t-6 5t-3 5.5t-1.5 7q0 12 21 12q36 0 83 3.5t88.5 9t77.5 10.5t59 9l22 3q12 0 12 -10q-14 -82 -14 -229v-297q0 -125 16 -168t74 -64z" />
    <glyph glyph-name="Uring" unicode="&#x16e;" horiz-adv-x="1406" 
d="M748 1448q-80 0 -132.5 41t-52.5 104t52.5 104.5t132.5 41.5q82 0 133 -40t51 -106q0 -63 -51.5 -104t-132.5 -41zM664 1593q0 -118 84 -118q83 0 83 118q0 119 -83 119q-84 0 -84 -119zM725 -31q-283 0 -427 151t-144 472v459q0 106 -13.5 148t-56.5 65q-39 17 -39 28
q0 13 16 13l43 -3q44 -4 103 -8t98 -4q63 0 158 6q99 9 100 9q15 0 15 -13q0 -10 -50 -37q-43 -20 -59 -65q-14 -41 -14 -178l-2 -502q-1 -220 91.5 -334.5t266.5 -114.5q161 0 268 125q111 126 111 400v442q0 119 -31.5 171t-111.5 71q-32 11 -31 26q1 9 14 9l66 -7
q57 -8 108 -8q50 0 111 6q62 9 63 9q15 0 15 -13q0 -8 -50 -26q-64 -23 -87 -77.5t-23 -184.5v-426q0 -305 -133.5 -457t-374.5 -152z" />
    <glyph glyph-name="uring" unicode="&#x16f;" horiz-adv-x="1161" 
d="M582 1010q-75 0 -125.5 41.5t-50.5 103.5q0 64 49.5 106t126.5 42q79 0 127.5 -41t48.5 -107q0 -63 -49 -104t-127 -41zM498 1155q0 -119 84 -119t84 119q0 121 -84 121t-84 -121zM1094 51q28 -8 26 -22q-1 -12 -20 -13q-39 -1 -84 -5.5t-81 -10.5t-66 -11.5t-47.5 -9.5
t-18.5 -4q-17 0 -23 21q-13 43 -16 217h-2q-53 -244 -303 -244q-153 0 -230 78.5t-77 251.5v276q0 88 -12.5 119.5t-53.5 48.5q-37 13 -37 29q0 12 21 12q25 0 56.5 2t61.5 5t60.5 7t56.5 7.5t46 6.5t32 5l12 2q19 0 19 -20q-13 -58 -13 -228v-303q0 -225 148 -225
q87 0 143 85.5t60 227.5q0 227 -11 306q-9 64 -47 79q-4 2 -11 5t-10 4.5t-7.5 4t-6 5t-3 5.5t-1.5 7q0 12 21 12q36 0 83 3.5t88.5 9t77.5 10.5t59 9l22 3q12 0 12 -10q-14 -82 -14 -229v-297q0 -125 16 -168t74 -64z" />
    <glyph glyph-name="Uhungarumlaut" unicode="&#x170;" horiz-adv-x="1406" 
d="M506 1413q-7 0 -10 6t4 13q145 215 207 288q51 60 88 60q31 0 50 -19t19 -51q0 -41 -69 -98q-139 -116 -279 -195q-2 -1 -4.5 -2t-3.5 -1.5t-2 -0.5zM793 1413q-10 0 -13 6q0 9 4 13q154 209 217 278q61 70 99 70q32 0 54 -21.5t22 -52.5q0 -46 -64 -98
q-165 -121 -309 -193q-2 -2 -10 -2zM725 -31q-283 0 -427 151t-144 472v459q0 106 -13.5 148t-56.5 65q-39 17 -39 28q0 13 16 13l43 -3q44 -4 103 -8t98 -4q63 0 158 6q99 9 100 9q15 0 15 -13q0 -10 -50 -37q-43 -20 -59 -65q-14 -41 -14 -178l-2 -502
q-1 -220 91.5 -334.5t266.5 -114.5q161 0 268 125q111 126 111 400v442q0 119 -31.5 171t-111.5 71q-32 11 -31 26q1 9 14 9l66 -7q57 -8 108 -8q50 0 111 6q62 9 63 9q15 0 15 -13q0 -8 -50 -26q-64 -23 -87 -77.5t-23 -184.5v-426q0 -305 -133.5 -457t-374.5 -152z" />
    </font>
</defs>
</svg>
