<svg width="316" height="95" viewBox="0 0 316 95" fill="none" xmlns="http://www.w3.org/2000/svg">
<g clip-path="url(#clip0_2391_470)">
<path d="M108.75 84C128.77 84 145 67.6584 145 47.5C145 27.3416 128.77 11 108.75 11C88.7297 11 72.5 27.3416 72.5 47.5C72.5 67.6584 88.7297 84 108.75 84Z" fill="#FEFAF1"/>
<path d="M72.5 11C62.8859 11 53.6656 14.8455 46.8674 21.6906C40.0692 28.5357 36.25 37.8196 36.25 47.5C36.25 57.1804 40.0692 66.4643 46.8674 73.3094C53.6656 80.1545 62.8859 84 72.5 84V47.5V11Z" fill="#FEFAF1"/>
<path d="M36.25 11C26.6359 11 17.4156 14.8455 10.6174 21.6906C3.81918 28.5357 3.056e-07 37.8196 0 47.5C-3.056e-07 57.1804 3.81918 66.4643 10.6174 73.3094C17.4156 80.1545 26.6359 84 36.25 84V47.5V11Z" fill="#FEFAF1"/>
<path d="M160 95V0" stroke="#FEFAF1" stroke-width="2"/>
<path d="M208.198 7.19995C223.398 7.19995 235.098 15 237.998 30.1H233.698C230.798 17 220.398 11.1 208.098 11.1C191.298 11.1 179.898 24.1 179.898 44.7C179.898 65.1 190.898 78.4 207.698 78.4C220.198 78.4 233.998 72.3999 233.998 53.7V50.4H213.198V46.5999H237.998V81H234.198L234.098 67.9C230.098 76.2999 222.098 82.3 207.598 82.3C186.798 82.3 175.498 66.2 175.498 44.7C175.498 23.2 187.298 7.19995 208.198 7.19995Z" fill="#FEFAF1"/>
<path d="M282.718 81H278.718L250.518 12.5V81H246.418V8.5H253.118L280.718 76.2L308.318 8.5H315.018V81H310.918V12.5L282.718 81Z" fill="#FEFAF1"/>
</g>
<defs>
<clipPath id="clip0_2391_470">
<rect width="316" height="95" fill="white"/>
</clipPath>
</defs>
</svg>
