<svg width="312" height="129" viewBox="0 0 312 129" fill="none" xmlns="http://www.w3.org/2000/svg">
  <path d="M72.39 7.55005V43.7201C72.38 23.7401 56.18 7.55005 36.2 7.55005C16.22 7.55005 0 23.76 0 43.75C0 63.74 16.21 79.95 36.2 79.95C56.19 79.95 72.38 63.76 72.39 43.78V79.95C92.38 79.95 108.59 63.74 108.59 43.75C108.59 23.76 92.38 7.55005 72.39 7.55005Z" fill="#FEFAF1"/>
  <path d="M108.59 7.55005V79.94C128.58 79.94 144.79 63.7301 144.79 43.7401C144.79 23.7501 128.58 7.55005 108.59 7.55005Z" fill="#FEFAF1"/>
  <path d="M157.32 0H155.32V94.74H157.32V0Z" fill="#FEFAF1"/>
  
  <path d="M225.4 28.71H221.19C218.35 15.87 208.16 10.09 196.1 10.09C179.64 10.09 168.46 22.83 168.46 43.02C168.46 63.21 179.24 76.05 195.71 76.05C207.96 76.05 221.49 70.17 221.49 51.84V48.61H201.1V44.89H225.41V78.6H221.69L221.59 65.76C217.67 73.99 209.83 79.87 195.62 79.87C175.23 79.87 164.16 64.09 164.16 43.02C164.16 21.95 175.72 6.27002 196.21 6.27002C211.11 6.27002 222.57 13.91 225.42 28.71H225.4Z" fill="#FEFAF1"/>
  <path d="M273.97 80.3801L246.33 13.2501V80.3801H242.31V9.32007H248.88L275.93 75.6701L302.98 9.32007H309.55V80.3801H305.53V13.2401L277.89 80.3701H273.97V80.3801Z" fill="#FEFAF1"/>
  
  <path d="M11.0543 119.202H9.3363C8.91704 117.791 7.79218 116.799 5.75722 116.799C3.52796 116.799 1.78954 118.537 1.78954 121.809C1.78954 125.082 3.43592 126.871 5.75722 126.871C7.42405 126.871 9.47947 126.176 9.47947 123.568V123.241H6.1458V121.707H11.1565V128.139H9.76579L9.68398 126.554C8.86591 127.853 7.39337 128.364 5.70609 128.364C2.0861 128.364 0 125.634 0 121.809C0 117.985 2.31107 115.306 5.85948 115.306C8.4671 115.306 10.5532 116.768 11.0747 119.202H11.0543Z" fill="#FEFAF1"/>
  <path d="M20.7486 128.139H18.9795V115.541H20.7486V128.139Z" fill="#FEFAF1"/>
  <path d="M34.0525 128.364C30.4325 128.364 28.1418 125.634 28.1418 121.83C28.1418 118.026 30.4325 115.316 34.0525 115.316C37.6724 115.316 39.9631 118.026 39.9631 121.83C39.9631 125.634 37.6724 128.364 34.0525 128.364ZM34.0525 126.871C36.3431 126.871 38.1531 125.082 38.1531 121.83C38.1531 118.578 36.3431 116.809 34.0525 116.809C31.7618 116.809 29.9518 118.578 29.9518 121.83C29.9518 125.082 31.7414 126.871 34.0525 126.871Z" fill="#FEFAF1"/>
  <path d="M49.1255 128.139H47.3564V115.541H49.1255V128.139Z" fill="#FEFAF1"/>
  <path d="M60.3024 115.531H62.3578L67.1027 128.129H65.1904L64.1985 125.399H58.4106L57.4391 128.129H55.6292L60.3024 115.531ZM58.9424 123.896H63.6361L61.2739 117.32L58.9424 123.896Z" fill="#FEFAF1"/>
  <path d="M87.9739 128.139L84.4971 117.157V128.139H82.728V115.541H85.7038L88.9147 126.043L92.1257 115.541H95.1014V128.139H93.3324V117.157L89.8555 128.139H87.9739Z" fill="#FEFAF1"/>
  <path d="M108.405 128.364C104.785 128.364 102.495 125.634 102.495 121.83C102.495 118.026 104.785 115.316 108.405 115.316C112.025 115.316 114.316 118.026 114.316 121.83C114.316 125.634 112.025 128.364 108.405 128.364ZM108.405 126.871C110.696 126.871 112.506 125.082 112.506 121.83C112.506 118.578 110.696 116.809 108.405 116.809C106.115 116.809 104.305 118.578 104.305 121.83C104.305 125.082 106.094 126.871 108.405 126.871Z" fill="#FEFAF1"/>
  <path d="M129.246 128.139L123.478 117.382V128.139H121.709V115.541H124.317L130.074 126.268V115.541H131.843V128.139H129.246H129.246Z" fill="#FEFAF1"/>
  <path d="M150.291 119.202H148.573C148.154 117.791 147.029 116.799 144.994 116.799C142.765 116.799 141.026 118.537 141.026 121.809C141.026 125.082 142.673 126.871 144.994 126.871C146.661 126.871 148.716 126.176 148.716 123.568V123.241H145.382V121.707H150.393V128.139H149.002L148.921 126.554C148.102 127.853 146.63 128.364 144.943 128.364C141.323 128.364 139.237 125.634 139.237 121.809C139.237 117.985 141.548 115.306 145.096 115.306C147.704 115.306 149.79 116.768 150.311 119.202H150.291Z" fill="#FEFAF1"/>
  <path d="M158.226 115.531H166.775V117.065H159.995V120.889H166.376V122.423H159.995V126.616H166.775V128.15H158.226V115.551V115.531Z" fill="#FEFAF1"/>
  <path d="M175.662 126.605H182.319V128.139H173.893V115.541H175.662V126.616V126.605Z" fill="#FEFAF1"/>
  <path d="M190.591 126.605H197.248V128.139H188.822V115.541H190.591V126.616V126.605Z" fill="#FEFAF1"/>
  <path d="M205.521 128.139H203.752V115.541H205.521V128.139Z" fill="#FEFAF1"/>
  <path d="M226.679 115.306C228.959 115.306 230.953 116.328 231.455 118.752H229.737C229.317 117.31 227.855 116.809 226.607 116.809C225.636 116.809 223.928 117.249 223.928 118.65C223.928 119.764 224.797 120.316 225.984 120.582L227.446 120.91C229.379 121.329 231.69 122.055 231.69 124.591C231.69 127.127 229.399 128.364 226.894 128.364C223.918 128.364 222.047 126.728 221.709 124.223H223.448C223.775 125.961 224.961 126.861 226.924 126.861C228.888 126.861 229.859 125.992 229.859 124.744C229.859 123.405 228.734 122.883 227.149 122.515L225.585 122.188C223.846 121.809 222.128 120.828 222.128 118.742C222.128 116.328 224.644 115.296 226.679 115.296V115.306Z" fill="#FEFAF1"/>
  <path d="M241.23 117.065H237.13V115.531H247.11V117.065H243.01V128.139H241.24V117.065H241.23Z" fill="#FEFAF1"/>
  <path d="M255.189 115.531V123.2C255.189 125.685 256.078 126.83 258.441 126.83C260.803 126.83 261.744 125.491 261.744 123.006V115.531H263.513V122.863C263.513 126.544 262.102 128.354 258.441 128.354C254.78 128.354 253.42 126.933 253.42 122.996V115.52H255.189V115.531Z" fill="#FEFAF1"/>
  <path d="M274.762 115.531C278.739 115.531 281.623 117.044 281.623 121.82C281.623 126.595 278.739 128.129 274.762 128.129H271.315V115.531H274.762ZM274.71 117.024H273.095V126.636H274.71C277.298 126.636 279.823 126.115 279.823 121.82C279.823 117.525 277.308 117.024 274.71 117.024Z" fill="#FEFAF1"/>
  <path d="M290.795 128.139H289.026V115.541H290.795V128.139Z" fill="#FEFAF1"/>
  <path d="M304.09 128.364C300.47 128.364 298.179 125.634 298.179 121.83C298.179 118.026 300.47 115.316 304.09 115.316C307.71 115.316 310 118.026 310 121.83C310 125.634 307.71 128.364 304.09 128.364ZM304.09 126.871C306.38 126.871 308.19 125.082 308.19 121.83C308.19 118.578 306.38 116.809 304.09 116.809C301.799 116.809 299.989 118.578 299.989 121.83C299.989 125.082 301.778 126.871 304.09 126.871Z" fill="#FEFAF1"/>
</svg>