<?xml version="1.0" encoding="UTF-8"?>
<svg id="Livello_2" data-name="Livello 2" xmlns="http://www.w3.org/2000/svg" viewBox="0 0 311.82 128.22">
  <defs>
    <style>
      .cls-1 {
        fill: #fefaf1;
      }
    </style>
  </defs>
  <g id="Livello_6" data-name="Livello 6">
    <g>
      <g>
        <path class="cls-1" d="M72.39,7.55v36.17c-.01-19.98-16.21-36.17-36.19-36.17S0,23.76,0,43.75s16.21,36.2,36.2,36.2,36.18-16.19,36.19-36.17v36.17c19.99,0,36.2-16.21,36.2-36.2S92.38,7.55,72.39,7.55Z"/>
        <path class="cls-1" d="M108.59,7.55v72.39c19.99,0,36.2-16.21,36.2-36.2S128.58,7.55,108.59,7.55Z"/>
      </g>
      <g>
        <path class="cls-1" d="M225.4,28.71h-4.21c-2.84-12.84-13.03-18.62-25.09-18.62-16.46,0-27.64,12.74-27.64,32.93s10.78,33.03,27.25,33.03c12.25,0,25.78-5.88,25.78-24.21v-3.23h-20.39v-3.72h24.31v33.71h-3.72l-.1-12.84c-3.92,8.23-11.76,14.11-25.97,14.11-20.39,0-31.46-15.78-31.46-36.85s11.56-36.75,32.05-36.75c14.9,0,26.36,7.64,29.21,22.44Z"/>
        <path class="cls-1" d="M273.97,80.38l-27.64-67.13v67.13h-4.02V9.32h6.57l27.05,66.35,27.05-66.35h6.57v71.06h-4.02V13.24l-27.64,67.13h-3.92Z"/>
      </g>
      <rect class="cls-1" x="155.32" width="2" height="94.74"/>
      <g>
        <path class="cls-1" d="M19.48,119.26h-1.68c-.41-1.38-1.51-2.35-3.5-2.35-2.18,0-3.88,1.7-3.88,4.9s1.61,4.95,3.88,4.95c1.63,0,3.64-.68,3.64-3.23v-.32h-3.26v-1.5h4.9v6.29h-1.36l-.08-1.55c-.8,1.27-2.24,1.77-3.89,1.77-3.54,0-5.58-2.67-5.58-6.41s2.26-6.36,5.73-6.36c2.55,0,4.59,1.43,5.1,3.81Z"/>
        <path class="cls-1" d="M28.96,128h-1.73v-12.32h1.73v12.32Z"/>
        <path class="cls-1" d="M41.97,128.22c-3.54,0-5.78-2.67-5.78-6.39s2.24-6.37,5.78-6.37,5.78,2.65,5.78,6.37-2.24,6.39-5.78,6.39ZM41.97,126.76c2.24,0,4.01-1.75,4.01-4.93s-1.77-4.91-4.01-4.91-4.01,1.73-4.01,4.91,1.75,4.93,4.01,4.93Z"/>
        <path class="cls-1" d="M56.71,128h-1.73v-12.32h1.73v12.32Z"/>
        <path class="cls-1" d="M67.64,115.67h2.01l4.64,12.32h-1.87l-.97-2.67h-5.66l-.95,2.67h-1.77l4.57-12.32ZM66.31,123.85h4.59l-2.31-6.43-2.28,6.43Z"/>
        <path class="cls-1" d="M94.7,128l-3.4-10.74v10.74h-1.73v-12.32h2.91l3.14,10.27,3.14-10.27h2.91v12.32h-1.73v-10.74l-3.4,10.74h-1.84Z"/>
        <path class="cls-1" d="M114.68,128.22c-3.54,0-5.78-2.67-5.78-6.39s2.24-6.37,5.78-6.37,5.78,2.65,5.78,6.37-2.24,6.39-5.78,6.39ZM114.68,126.76c2.24,0,4.01-1.75,4.01-4.93s-1.77-4.91-4.01-4.91-4.01,1.73-4.01,4.91,1.75,4.93,4.01,4.93Z"/>
        <path class="cls-1" d="M135.06,128l-5.64-10.52v10.52h-1.73v-12.32h2.55l5.63,10.49v-10.49h1.73v12.32h-2.53Z"/>
        <path class="cls-1" d="M155.64,119.26h-1.68c-.41-1.38-1.51-2.35-3.5-2.35-2.18,0-3.88,1.7-3.88,4.9s1.61,4.95,3.88,4.95c1.63,0,3.64-.68,3.64-3.23v-.32h-3.26v-1.5h4.9v6.29h-1.36l-.08-1.55c-.8,1.27-2.24,1.77-3.89,1.77-3.54,0-5.58-2.67-5.58-6.41s2.26-6.36,5.73-6.36c2.55,0,4.59,1.43,5.1,3.81Z"/>
        <path class="cls-1" d="M163.4,115.67h8.36v1.5h-6.63v3.74h6.24v1.5h-6.24v4.1h6.63v1.5h-8.36v-12.32Z"/>
        <path class="cls-1" d="M180.45,126.5h6.51v1.5h-8.24v-12.32h1.73v10.83Z"/>
        <path class="cls-1" d="M195.05,126.5h6.51v1.5h-8.24v-12.32h1.73v10.83Z"/>
        <path class="cls-1" d="M209.65,128h-1.73v-12.32h1.73v12.32Z"/>
        <path class="cls-1" d="M230.34,115.45c2.23,0,4.18,1,4.67,3.37h-1.68c-.41-1.41-1.84-1.9-3.06-1.9-.95,0-2.62.43-2.62,1.8,0,1.09.85,1.63,2.01,1.89l1.43.32c1.89.41,4.15,1.12,4.15,3.6s-2.24,3.69-4.69,3.69c-2.91,0-4.74-1.6-5.07-4.05h1.7c.32,1.7,1.48,2.58,3.4,2.58s2.87-.85,2.87-2.07c0-1.31-1.1-1.82-2.65-2.18l-1.53-.32c-1.7-.37-3.38-1.33-3.38-3.37,0-2.36,2.46-3.37,4.45-3.37Z"/>
        <path class="cls-1" d="M244.57,117.17h-4.01v-1.5h9.76v1.5h-4.01v10.83h-1.73v-10.83Z"/>
        <path class="cls-1" d="M258.22,115.67v7.5c0,2.43.87,3.55,3.18,3.55s3.23-1.31,3.23-3.74v-7.31h1.73v7.17c0,3.6-1.38,5.37-4.96,5.37s-4.91-1.39-4.91-5.24v-7.31h1.73Z"/>
        <path class="cls-1" d="M277.36,115.67c3.89,0,6.71,1.48,6.71,6.15s-2.82,6.17-6.71,6.17h-3.37v-12.32h3.37ZM277.31,117.13h-1.58v9.4h1.58c2.53,0,5-.51,5-4.71s-2.46-4.69-5-4.69Z"/>
        <path class="cls-1" d="M293.04,128h-1.73v-12.32h1.73v12.32Z"/>
        <path class="cls-1" d="M306.04,128.22c-3.54,0-5.78-2.67-5.78-6.39s2.24-6.37,5.78-6.37,5.78,2.65,5.78,6.37-2.24,6.39-5.78,6.39ZM306.04,126.76c2.24,0,4.01-1.75,4.01-4.93s-1.77-4.91-4.01-4.91-4.01,1.73-4.01,4.91,1.75,4.93,4.01,4.93Z"/>
      </g>
    </g>
  </g>
</svg>