<svg width="95" height="29" viewBox="0 0 95 29" fill="none" xmlns="http://www.w3.org/2000/svg">
<g clip-path="url(#clip0_2546_23)">
<path d="M32.6938 25.6421C38.7126 25.6421 43.5918 20.6536 43.5918 14.5C43.5918 8.3464 38.7126 3.35791 32.6938 3.35791C26.6751 3.35791 21.7959 8.3464 21.7959 14.5C21.7959 20.6536 26.6751 25.6421 32.6938 25.6421Z" fill="#0D0D0D"/>
<path d="M21.7959 3.35791C18.9056 3.35791 16.1337 4.5318 14.0899 6.62136C12.0461 8.71091 10.8979 11.5449 10.8979 14.5C10.8979 17.4551 12.0461 20.2891 14.0899 22.3787C16.1337 24.4682 18.9056 25.6421 21.7959 25.6421V14.5V3.35791Z" fill="#0D0D0D"/>
<path d="M10.8979 3.35791C8.00763 3.35791 5.2357 4.5318 3.19194 6.62136C1.14817 8.71091 9.18734e-08 11.5449 0 14.5C-9.18734e-08 17.4551 1.14817 20.2891 3.19194 22.3787C5.2357 24.4682 8.00763 25.6421 10.8979 25.6421V14.5V3.35791Z" fill="#0D0D0D"/>
<path d="M48.1013 29V0" stroke="#0D0D0D" stroke-width="2"/>
<path d="M62.5912 2.19788C67.1608 2.19788 70.6782 4.57893 71.5501 9.1884H70.2573C69.3855 5.18946 66.2589 3.3884 62.5611 3.3884C57.5105 3.3884 54.0833 7.35682 54.0833 13.6452C54.0833 19.8726 57.3902 23.9326 62.4409 23.9326C66.1988 23.9326 70.3475 22.101 70.3475 16.3926V15.3852H64.0944V14.2252H71.5501V24.7263H70.4076L70.3776 20.7274C69.1751 23.2916 66.77 25.1231 62.4108 25.1231C56.1577 25.1231 52.7605 20.2084 52.7605 13.6452C52.7605 7.08209 56.308 2.19788 62.5912 2.19788Z" fill="#0D0D0D"/>
<path d="M84.9943 24.7263H83.7917L75.3139 3.81578V24.7263H74.0813V2.59473H76.0955L84.393 23.261L92.6905 2.59473H94.7047V24.7263H93.4721V3.81578L84.9943 24.7263Z" fill="#0D0D0D"/>
</g>
<defs>
<clipPath id="clip0_2546_23">
<rect width="95" height="29" fill="white"/>
</clipPath>
</defs>
</svg>
