<svg width="316" height="130" viewBox="0 0 316 130" fill="none" xmlns="http://www.w3.org/2000/svg">
<path d="M159 95H161V0H159V95Z" fill="#FEFAF1"/>
<path d="M36.25 11C26.6359 11 17.4156 14.8455 10.6174 21.6906C3.81918 28.5357 0 37.8196 0 47.5C0 57.1804 3.81918 66.4643 10.6174 73.3094C17.4156 80.1545 26.6359 84 36.25 84L36.25 47.5C36.25 57.1804 40.0692 66.4643 46.8674 73.3094C53.6656 80.1545 62.8859 84 72.5 84L72.5 47.5C72.5 67.6584 88.7297 84 108.75 84C128.77 84 145 67.6584 145 47.5C145 27.3416 128.77 11 108.75 11C88.7297 11 72.5 27.3416 72.5 47.5V11C62.8859 11 53.6656 14.8455 46.8674 21.6906C40.0692 28.5357 36.25 37.8196 36.25 47.5L36.25 11Z" fill="#FEFAF1"/>
<path d="M6.208 117.192C8.608 117.192 10.528 118.536 11.008 120.776H9.424C9.04 119.48 8 118.568 6.128 118.568C4.08 118.568 2.48 120.168 2.48 123.176C2.48 126.12 4 127.832 6.128 127.832C7.664 127.832 9.552 127.192 9.552 124.792V124.488H6.48V123.08H11.088V129H9.808L9.728 127.544C8.976 128.744 7.616 129.208 6.064 129.208C2.736 129.208 0.816 126.696 0.816 123.176C0.816 119.592 2.944 117.192 6.208 117.192Z" fill="#FEFAF1"/>
<path d="M20.7285 117.4V129H19.0965V117.4H20.7285Z" fill="#FEFAF1"/>
<path fill-rule="evenodd" clip-rule="evenodd" d="M39.2151 123.192C39.2151 126.696 37.1031 129.208 33.7751 129.208C30.4471 129.208 28.3351 126.696 28.3351 123.192C28.3351 119.688 30.4471 117.192 33.7751 117.192C37.1031 117.192 39.2151 119.688 39.2151 123.192ZM29.9991 123.192C29.9991 126.184 31.6471 127.832 33.7751 127.832C35.8871 127.832 37.5511 126.184 37.5511 123.192C37.5511 120.2 35.8871 118.568 33.7751 118.568C31.6471 118.568 29.9991 120.2 29.9991 123.192Z" fill="#FEFAF1"/>
<path d="M48.4507 117.4V129H46.8187V117.4H48.4507Z" fill="#FEFAF1"/>
<path fill-rule="evenodd" clip-rule="evenodd" d="M55.2414 129L59.5454 117.4H61.4334L65.8014 129H64.0414L63.1294 126.488H57.8014L56.9054 129H55.2414ZM60.4414 119.048L58.2974 125.096H62.6174L60.4414 119.048Z" fill="#FEFAF1"/>
<path d="M86.6247 129L83.4248 118.888V129H81.7927V117.4H84.5287L87.4887 127.064L90.4487 117.4H93.1847V129H91.5527V118.888L88.3527 129H86.6247Z" fill="#FEFAF1"/>
<path fill-rule="evenodd" clip-rule="evenodd" d="M111.661 123.192C111.661 126.696 109.549 129.208 106.221 129.208C102.893 129.208 100.781 126.696 100.781 123.192C100.781 119.688 102.893 117.192 106.221 117.192C109.549 117.192 111.661 119.688 111.661 123.192ZM102.445 123.192C102.445 126.184 104.093 127.832 106.221 127.832C108.333 127.832 109.997 126.184 109.997 123.192C109.997 120.2 108.333 118.568 106.221 118.568C104.093 118.568 102.445 120.2 102.445 123.192Z" fill="#FEFAF1"/>
<path d="M128.593 129H126.209L120.897 119.096V129H119.265V117.4H121.665L126.961 127.272V117.4H128.593V129Z" fill="#FEFAF1"/>
<path d="M141.583 117.192C143.983 117.192 145.903 118.536 146.383 120.776H144.799C144.415 119.48 143.375 118.568 141.503 118.568C139.455 118.568 137.855 120.168 137.855 123.176C137.855 126.12 139.375 127.832 141.503 127.832C143.039 127.832 144.927 127.192 144.927 124.792V124.488H141.855V123.08H146.463V129H145.183L145.103 127.544C144.351 128.744 142.991 129.208 141.439 129.208C138.111 129.208 136.191 126.696 136.191 123.176C136.191 119.592 138.319 117.192 141.583 117.192Z" fill="#FEFAF1"/>
<path d="M154.472 129V117.4H162.344V118.808H156.104V122.328H161.976V123.736H156.104V127.592H162.344V129H154.472Z" fill="#FEFAF1"/>
<path d="M171.324 117.4V127.592H177.452V129H169.692V117.4H171.324Z" fill="#FEFAF1"/>
<path d="M185.873 117.4V127.592H192.001V129H184.241V117.4H185.873Z" fill="#FEFAF1"/>
<path d="M200.421 117.4V129H198.789V117.4H200.421Z" fill="#FEFAF1"/>
<path d="M216.593 117.4H218.385L221.601 127.32L224.753 117.4H226.465L222.529 129H220.577L216.593 117.4Z" fill="#FEFAF1"/>
<path d="M235.036 117.4V129H233.404V117.4H235.036Z" fill="#FEFAF1"/>
<path d="M242.723 120.36C242.723 118.136 245.043 117.192 246.915 117.192C249.011 117.192 250.851 118.136 251.315 120.36H249.731C249.347 119.032 248.003 118.568 246.851 118.568C245.955 118.568 244.387 118.968 244.387 120.264C244.387 121.288 245.187 121.8 246.275 122.04L247.619 122.344C249.395 122.728 251.523 123.4 251.523 125.736C251.523 127.992 249.411 129.208 247.107 129.208C244.371 129.208 242.643 127.704 242.339 125.4H243.939C244.243 127 245.331 127.832 247.139 127.832C248.867 127.832 249.843 127.032 249.843 125.88C249.843 124.648 248.803 124.168 247.347 123.832L245.907 123.528C244.307 123.176 242.723 122.28 242.723 120.36Z" fill="#FEFAF1"/>
<path d="M258.685 117.4H260.317V124.456C260.317 126.744 261.133 127.8 263.309 127.8C265.533 127.8 266.349 126.568 266.349 124.28V117.4H267.981V124.152C267.981 127.544 266.685 129.208 263.309 129.208C260.093 129.208 258.685 127.896 258.685 124.28V117.4Z" fill="#FEFAF1"/>
<path fill-rule="evenodd" clip-rule="evenodd" d="M273.986 129L278.29 117.4H280.178L284.546 129H282.786L281.874 126.488H276.546L275.65 129H273.986ZM279.186 119.048L277.042 125.096H281.362L279.186 119.048Z" fill="#FEFAF1"/>
<path d="M292.965 117.4V127.592H299.093V129H291.333V117.4H292.965Z" fill="#FEFAF1"/>
<path d="M305.323 120.36C305.323 118.136 307.643 117.192 309.515 117.192C311.611 117.192 313.451 118.136 313.915 120.36H312.331C311.947 119.032 310.603 118.568 309.451 118.568C308.555 118.568 306.987 118.968 306.987 120.264C306.987 121.288 307.787 121.8 308.875 122.04L310.219 122.344C311.995 122.728 314.123 123.4 314.123 125.736C314.123 127.992 312.011 129.208 309.707 129.208C306.971 129.208 305.243 127.704 304.939 125.4H306.539C306.843 127 307.931 127.832 309.739 127.832C311.467 127.832 312.443 127.032 312.443 125.88C312.443 124.648 311.403 124.168 309.947 123.832L308.507 123.528C306.907 123.176 305.323 122.28 305.323 120.36Z" fill="#FEFAF1"/>
<path d="M208.198 7.2C223.398 7.2 235.098 15 237.998 30.1H233.698C230.798 17 220.398 11.1 208.098 11.1C191.298 11.1 179.898 24.1 179.898 44.7C179.898 65.1 190.898 78.4 207.698 78.4C220.198 78.4 233.998 72.4 233.998 53.7V50.4H213.198V46.6H237.998V81H234.198L234.098 67.9C230.098 76.3 222.098 82.3 207.598 82.3C186.798 82.3 175.498 66.2 175.498 44.7C175.498 23.2 187.298 7.2 208.198 7.2Z" fill="#FEFAF1"/>
<path d="M278.718 81H282.718L310.918 12.5V81H315.018V8.5H308.318L280.718 76.2L253.118 8.5H246.418V81H250.518V12.5L278.718 81Z" fill="#FEFAF1"/>
</svg>
